<svg width="234" height="228" viewBox="0 0 234 228" fill="none" xmlns="http://www.w3.org/2000/svg">
<g opacity="0.5">
<path d="M231.942 167.937C230.158 178.596 220.231 186.621 208.606 185.894L175.218 183.802H175.212L113.988 179.967C113.986 179.965 113.986 179.965 113.984 179.965L32.4238 174.857H32.4199L30.3673 174.728C24.6956 174.373 19.3811 171.925 15.52 167.89C11.6588 163.855 9.54532 158.54 9.61546 153.042L9.76812 141.073L10.1578 110.614L10.6599 71.1567L10.7305 65.6534C10.7961 60.5052 12.7723 55.5513 16.2986 51.6953C19.8249 47.8392 24.6663 45.3378 29.9401 44.6473L81.2501 37.9284L158.334 27.8363L158.336 27.8345L201.275 22.213C214.181 20.5226 225.81 29.9034 226.414 42.4914L226.786 50.2723L228.629 88.7599L230.538 128.675L232.203 163.48C232.276 164.97 232.188 166.464 231.942 167.937Z" fill="#DFFFDA"/>
<path d="M110.984 77.649C95.5543 77.649 85.1857 73.8937 75.1185 70.2478C64.2184 66.3001 53.9224 62.5717 38.1373 64.1536C28.95 65.0741 19.8058 67.6324 10.9587 71.7574L10.3604 70.5556C19.3515 66.3634 28.6495 63.7628 37.9962 62.8265C54.1037 61.2127 64.5471 64.9939 75.6029 68.9982C86.8213 73.0609 98.4221 77.2615 117.077 76.1252C134.451 75.0666 144.836 70.0896 155.83 64.8205C166.827 59.55 178.198 54.0999 197.787 51.1924C207.389 49.7777 217.107 49.2465 226.812 49.6057L226.76 50.9386C217.143 50.5825 207.512 51.109 197.996 52.5109C178.618 55.3871 167.344 60.7904 156.442 66.0158C145.32 71.3462 134.815 76.3809 117.164 77.4566C115.015 77.5876 112.956 77.6517 110.984 77.649Z" fill="white"/>
<path d="M107.687 42.7289C95.9885 42.7289 87.4074 40.5615 81.0376 38.563L81.4631 37.2935C88.7659 39.5848 99.0223 42.1016 113.64 41.2103C131.009 40.1515 141.391 35.1774 152.382 29.9111C154.211 29.0346 156.103 28.1285 158.038 27.2343L158.333 27.8327L158.824 28.3059L158.741 28.3868L158.632 28.438C156.706 29.328 154.819 30.2321 152.994 31.1065C141.875 36.4346 131.373 41.4661 113.726 42.542C111.627 42.6701 109.614 42.7289 107.687 42.7289Z" fill="white"/>
<path d="M131.544 114.226C113.903 114.226 102.045 110.476 90.5315 106.834C78.0305 102.881 66.2241 99.1462 48.1046 100.732C35.3218 101.85 22.6577 105.376 10.4638 111.212L9.85254 110.016C22.1994 104.107 35.0276 100.537 47.9804 99.4033C66.3819 97.7933 78.3206 101.569 90.9598 105.566C103.823 109.635 117.124 113.842 138.528 112.703C158.459 111.642 170.364 106.66 182.968 101.385C195.07 96.3198 207.584 91.0822 228.529 88.1008L228.729 89.4206C207.964 92.3765 195.535 97.5784 183.515 102.609C170.795 107.933 158.78 112.961 138.604 114.035C136.15 114.165 133.797 114.229 131.544 114.226Z" fill="white"/>
<path d="M98.7955 155.607C77.8351 155.607 63.7408 151.86 50.0562 148.224C37.6041 144.915 25.8426 141.789 9.76562 141.74L9.7701 140.406C26.0306 140.456 37.8782 143.605 50.4214 146.938C65.7496 151.011 81.5992 155.223 107.113 154.083C130.874 153.021 145.059 148.032 160.078 142.75C175.038 137.488 190.507 132.048 217.14 129.147C221.546 128.667 226.039 128.284 230.494 128.01L230.582 129.341C226.149 129.614 221.678 129.995 217.294 130.473C190.824 133.356 175.432 138.769 160.549 144.004C145.429 149.321 131.147 154.344 107.176 155.416C104.263 155.546 101.469 155.609 98.7955 155.607Z" fill="white"/>
<path d="M175.261 184.469H175.219L175.216 183.78L175.133 183.141C191.436 181.174 202.914 177.138 215.067 172.864C220.31 171.02 225.731 169.113 231.737 167.301L232.147 168.574C226.172 170.377 220.766 172.278 215.538 174.117C203.311 178.418 191.761 182.48 175.304 184.464L175.261 184.469Z" fill="white"/>
<path d="M113.985 180.632H113.898L113.814 180.612C110.824 179.87 107.887 179.09 105.047 178.335C90.1467 174.375 76.073 170.636 54.4636 172.225C47.0934 172.768 39.778 173.866 32.5838 175.507L32.5055 175.525H32.4255L32.4236 174.85L32.2671 174.209C39.5312 172.552 46.9176 171.444 54.3594 170.896C76.2075 169.289 90.3939 173.059 105.413 177.049C108.221 177.796 111.123 178.567 114.073 179.3H114.271L114.477 179.497L113.99 179.968L113.985 180.632Z" fill="white"/>
<path d="M176.945 41.0665H114.91C113.152 41.0665 111.727 42.4452 111.727 44.146V130.631C111.727 132.332 113.152 133.711 114.91 133.711H176.945C178.703 133.711 180.128 132.332 180.128 130.631V44.146C180.128 42.4452 178.703 41.0665 176.945 41.0665Z" fill="#35BB1E"/>
<path d="M146.081 104.989C144.839 104.989 143.809 104.606 142.991 103.84C142.589 103.468 142.272 103.018 142.061 102.52C141.849 102.022 141.748 101.486 141.764 100.948C141.764 98.8877 142.328 96.6296 143.457 94.1735C144.586 91.7174 146.335 89.5384 148.706 87.6365C150.285 86.3686 151.738 85.1139 153.066 83.8726C154.387 82.6381 155.475 81.1902 156.282 79.5939C157.1 77.9838 157.509 76.0162 157.51 73.6911C157.513 72.0097 157.067 70.356 156.214 68.891C155.361 67.426 154.13 66.1997 152.642 65.3312C151.089 64.4076 149.184 63.9453 146.928 63.9445C144.162 63.9445 141.876 64.4199 140.071 65.3707C138.335 66.2518 136.928 67.6374 136.049 69.3325C135.174 71.0237 134.736 73.0046 134.737 75.2752C134.737 76.4377 134.342 77.4018 133.552 78.1673C132.762 78.9328 131.718 79.3157 130.419 79.3162C129.178 79.3162 128.148 78.9332 127.33 78.1673C126.927 77.7951 126.61 77.3453 126.399 76.8472C126.187 76.349 126.086 75.8135 126.102 75.2752C126.102 71.5782 126.962 68.3296 128.684 65.5293C130.406 62.7291 132.833 60.5237 135.965 58.9132C139.098 57.3024 142.752 56.4968 146.928 56.4964C150.596 56.4964 153.855 57.2227 156.706 58.6754C159.479 60.061 161.818 62.1407 163.478 64.6977C165.142 67.2603 165.975 70.258 165.975 73.691C165.975 76.6498 165.468 79.2117 164.452 81.3767C163.437 83.5406 162.032 85.5126 160.304 87.2005C158.42 89.0313 156.412 90.7386 154.293 92.3111C152.835 93.4065 151.769 94.9169 151.245 96.6295C150.68 98.3999 150.398 99.8394 150.399 100.948C150.399 102.11 150.004 103.075 149.214 103.84C148.423 104.605 147.379 104.988 146.081 104.989ZM146.081 119.648C145.319 119.656 144.564 119.516 143.858 119.237C143.153 118.958 142.513 118.545 141.976 118.023C140.818 116.941 140.239 115.66 140.24 114.18C140.23 113.445 140.379 112.717 140.678 112.041C140.977 111.366 141.419 110.758 141.976 110.258C142.513 109.736 143.153 109.323 143.859 109.044C144.564 108.765 145.319 108.626 146.081 108.634C146.856 108.62 147.626 108.757 148.346 109.036C149.066 109.315 149.721 109.731 150.272 110.258C150.828 110.758 151.27 111.366 151.569 112.041C151.868 112.717 152.017 113.446 152.007 114.18C152.007 115.66 151.429 116.941 150.272 118.023C149.721 118.551 149.066 118.966 148.346 119.245C147.627 119.524 146.856 119.661 146.081 119.647V119.648Z" fill="white"/>
<path d="M46.5828 171.417L31.3979 224.57H28.9053L40.3914 170.191L46.5828 171.417Z" fill="#FDAB71"/>
<path d="M73.4007 170.969L58.0907 224.57H55.6304L67.2093 169.746L73.4007 170.969Z" fill="#E28F59"/>
<path d="M99.3386 224.57H97.0195L85.4912 168.475L91.7593 167.694L99.3386 224.57Z" fill="#FDAB71"/>
<path d="M122.827 224.57H120.518L108.335 163.629L114.603 162.847L122.827 224.57Z" fill="#E28F59"/>
<path d="M42.5328 166.074L31.458 120.475H42.5328L46.3962 166.074H42.5328Z" fill="#FDAB71"/>
<path d="M60.8179 163.582L52.061 116.737H60.8179L64.6814 163.582H60.8179Z" fill="#FDAB71"/>
<path d="M26.1921 94.5249C26.2565 93.8108 26.4978 93.1223 26.8958 92.5176C27.2937 91.913 27.8364 91.4101 28.4779 91.0515C36.2324 86.7823 56.3263 86.0001 59.6751 89.8879C63.3924 94.2034 68.6552 118.246 67.2955 121.535C65.4368 126.03 47.9657 131.784 35.1414 127.289C24.289 123.485 25.5482 101.268 26.1921 94.5249Z" fill="#EEEDFF"/>
<path d="M29.6838 90.4589C34.5657 90.1567 46.4795 124.052 35.142 127.289C24.79 130.244 22.8054 107.266 23.3872 95.8568C23.4377 94.8088 23.8014 93.7976 24.4342 92.9457C25.067 92.0938 25.9418 91.4379 26.9523 91.0575C27.8265 90.7262 28.7473 90.5243 29.6838 90.4589Z" fill="#2B3629"/>
<path d="M84.4078 158.615C84.4078 158.615 96.9671 158.725 107.455 154.93C111.358 153.518 115.693 156.007 116.055 160.024C116.196 161.586 115.725 163.303 114.132 165.05C108.557 171.163 83.1284 174.374 83.1284 174.374L84.4078 158.615Z" fill="#EEEDFF"/>
<path d="M37.3717 161.453C37.3717 161.453 57.9733 162.735 82.1544 158.71C91.4091 157.17 95.3218 169.863 86.6499 173.349C86.5203 173.401 86.3881 173.451 86.2534 173.501C75.4735 177.457 43.5052 175.659 37.3717 171.703C31.2382 167.747 33.8531 161.318 37.3717 161.453Z" fill="#2B3629"/>
<path d="M46.5717 202.24C47.0314 204.241 45.1926 206.02 42.3194 208.021C39.4462 210.023 43.2389 211.802 44.7329 215.248C45.705 217.491 42.8158 222.091 40.6786 225.033H37.0105C36.9913 225.213 36.9721 225.383 36.9547 225.539C36.8604 225.374 36.7694 225.204 36.6826 225.033C36.4506 224.572 36.2439 224.1 36.0633 223.618C35.6308 222.446 35.3094 221.238 35.1032 220.009C34.4695 216.382 34.6849 212.777 35.0346 211.202C35.0785 210.968 35.1513 210.74 35.2516 210.523C35.9987 209.133 33.7001 208.021 33.3553 206.242C33.0104 204.463 35.4241 203.24 34.5046 199.682C33.5851 196.124 32.6674 182.773 42.3196 183.449C50.2496 184.005 45.8823 193.567 44.733 196.347C43.5838 199.126 46.1121 200.238 46.5717 202.24Z" fill="#87DC78"/>
<path d="M37.0106 225.033C36.9914 225.213 36.9722 225.383 36.9548 225.539C36.8605 225.374 36.7695 225.204 36.6827 225.033H32.0528C30.9594 222.703 28.7183 218.584 25.9425 217.027C21.9775 214.804 22.438 210.467 22.438 207.799C22.438 205.13 17.9558 204.13 13.7035 201.795C9.45124 199.46 7.89327 189.106 12.2095 188.119C18.5304 186.673 23.4724 194.901 25.4261 197.57C27.3798 200.238 30.9426 198.57 31.0575 201.684C31.1597 204.442 32.8852 207.899 35.0353 211.203C35.3127 211.629 35.5957 212.051 35.8844 212.469C37.7878 215.233 37.3457 221.906 37.0106 225.033Z" fill="#318522"/>
<path d="M42.4586 193.535C42.4426 193.559 40.872 196.205 39.6557 201.905C38.6581 206.58 37.7274 214.22 38.5304 225.033H38.2104C37.4074 214.184 38.3461 206.516 39.35 201.82C40.576 196.08 42.1674 193.405 42.1832 193.379C42.1934 193.36 42.2073 193.344 42.2241 193.331C42.2408 193.318 42.2601 193.309 42.2808 193.303C42.3015 193.297 42.3231 193.296 42.3444 193.298C42.3658 193.301 42.3863 193.308 42.4049 193.318C42.4234 193.329 42.4396 193.343 42.4524 193.359C42.4653 193.376 42.4745 193.395 42.4796 193.415C42.4847 193.435 42.4855 193.456 42.4821 193.477C42.4786 193.497 42.4709 193.517 42.4594 193.535H42.4586Z" fill="white"/>
<path d="M36.368 225.033H36.044C34.8995 219.284 32.3886 212.569 29.078 206.593C24.5912 198.49 19.4736 193.149 15.0394 191.936C15.0193 191.931 15.0005 191.922 14.984 191.909C14.9676 191.897 14.9539 191.881 14.9437 191.863C14.9334 191.846 14.9269 191.826 14.9244 191.806C14.922 191.786 14.9236 191.766 14.9293 191.746C14.9351 191.727 14.9448 191.709 14.9578 191.693C14.9709 191.677 14.9871 191.663 15.0055 191.653C15.0239 191.644 15.0441 191.637 15.065 191.635C15.0859 191.633 15.107 191.634 15.1273 191.64C19.6429 192.874 24.8305 198.271 29.3606 206.448C31.7467 210.768 33.6711 215.312 35.1038 220.009C35.4719 221.237 35.795 222.443 36.064 223.618C36.1739 224.095 36.2753 224.567 36.368 225.033Z" fill="white"/>
<path d="M97.9571 218.82L100.897 219.635C101.362 219.771 101.863 219.727 102.295 219.513C102.728 219.298 103.057 218.93 103.215 218.486L105.238 212.284L98.7342 210.479L96.711 216.682C96.6432 216.901 96.6218 217.132 96.6481 217.359C96.6745 217.587 96.748 217.807 96.8643 218.007C96.9807 218.206 97.1374 218.381 97.3251 218.521C97.5129 218.661 97.7278 218.762 97.9571 218.82Z" fill="#FB855F"/>
<path d="M142.606 218.086L139.531 218.964C139.305 219.028 139.069 219.049 138.835 219.025C138.6 219.001 138.374 218.933 138.167 218.824C137.96 218.715 137.778 218.568 137.63 218.391C137.482 218.214 137.371 218.01 137.305 217.792L135.297 211.212L141.811 209.352L143.819 215.932C143.885 216.15 143.907 216.379 143.882 216.606C143.857 216.832 143.786 217.052 143.674 217.252C143.561 217.452 143.409 217.629 143.226 217.772C143.042 217.915 142.832 218.021 142.606 218.086Z" fill="#FB855F"/>
<path d="M134.119 158.705C134.668 156.447 134.303 154.072 133.099 152.066C131.894 150.06 129.942 148.577 127.642 147.92C107.421 142.168 86.5524 136.916 71.0471 133.881L66.3491 153.225C84.0316 156.6 104.47 161.087 122.733 165.444C123.938 165.732 125.19 165.786 126.417 165.602C127.644 165.419 128.821 165.001 129.88 164.374C130.939 163.748 131.859 162.924 132.586 161.951C133.314 160.978 133.835 159.875 134.119 158.705Z" fill="#32492E"/>
<path d="M123.143 148.28C124.366 147.931 125.65 147.827 126.915 147.975C128.181 148.123 129.402 148.52 130.503 149.142C131.604 149.763 132.562 150.596 133.319 151.589C134.075 152.582 134.613 153.714 134.901 154.915C138.996 172.042 145.017 197.062 147.537 208.073L132.294 212.426C129.148 199.959 121.275 174.807 116.789 159.408C116.122 157.117 116.415 154.665 117.605 152.582C118.794 150.499 120.784 148.953 123.143 148.28Z" fill="#32492E"/>
<path d="M114.73 166.418C115.52 164.227 115.414 161.827 114.432 159.71C113.45 157.593 111.668 155.92 109.451 155.035C89.9641 147.269 69.7785 139.935 54.687 135.349C53.8121 137.777 53.4453 140.348 53.6078 142.914C53.7704 145.48 54.4591 147.988 55.6339 150.294C56.8087 152.6 58.4461 154.656 60.4506 156.344C62.455 158.031 64.7866 159.316 67.3094 160.123C79.1446 163.911 91.3507 168.011 102.675 171.967C103.843 172.376 105.083 172.556 106.323 172.498C107.563 172.439 108.779 172.143 109.9 171.627C111.021 171.111 112.025 170.385 112.854 169.491C113.683 168.596 114.321 167.552 114.73 166.418Z" fill="#32492E"/>
<path d="M108.054 154.071C113.424 154.425 117.363 158.875 116.66 163.797C114.287 180.41 110.857 204.693 109.226 215.338L93.373 214.294C94.9459 202.147 96.6892 177.147 98.0702 161.95C98.4982 157.246 102.949 153.735 108.054 154.071Z" fill="#32492E"/>
<path d="M81.9397 155.998L64.1808 155.772L63.8787 133.599L77.6748 137.005L81.9397 155.998Z" fill="#32492E"/>
<path d="M147.537 208.073L146.587 203.196L131.333 206.942L132.294 212.426L147.537 208.073Z" fill="#222B21"/>
<path d="M110.04 209.704L109.227 215.338L93.374 214.294L94.2418 208.64L110.04 209.704Z" fill="#222B21"/>
<path d="M143.098 214.41L159.508 212.979C160.023 212.934 160.539 213.063 160.967 213.345C161.395 213.627 161.71 214.043 161.856 214.523C162.024 215.074 161.959 215.667 161.675 216.172C161.392 216.677 160.912 217.052 160.343 217.214L138.309 223.506L136.606 216.346L143.098 214.41Z" fill="#222B21"/>
<path d="M103.456 216.97L117.999 224.112C118.449 224.323 118.806 224.682 119.006 225.125C119.207 225.569 119.236 226.067 119.09 226.529C118.734 227.621 117.485 228.24 116.301 227.912L94.3022 221.809L96.9282 215.238L103.456 216.97Z" fill="#202220"/>
<path d="M142.228 125.818C142.31 124.074 139.135 123.055 136.384 122.45C137.561 121.495 138.467 120.285 138.163 119.666C137.725 118.777 134.953 119.448 133.177 120.267C132.862 120.412 132.559 120.581 132.27 120.772C131.364 120.754 130.477 121.02 129.74 121.53C129.003 122.04 128.456 122.766 128.18 123.6C127.904 124.435 127.913 125.333 128.207 126.162C128.501 126.991 129.064 127.706 129.811 128.201C130.716 129.015 131.845 129.558 133.062 129.765C135.962 130.293 142.041 129.779 142.228 125.818Z" fill="#FB855F"/>
<path d="M132.441 120.647L131.005 129.302L126.935 129.307L93.7889 129.336C93.3857 129.33 92.9836 129.295 92.586 129.23C90.5656 128.91 88.7435 127.866 87.4818 126.307C86.22 124.747 85.6109 122.785 85.7754 120.81C85.9399 118.836 86.866 116.994 88.3697 115.65C89.8734 114.306 91.8447 113.558 93.8921 113.555C94.3298 113.555 94.7669 113.589 95.1991 113.656L97.883 114.161L98.5689 114.291L100.174 114.589L128.539 119.916L132.441 120.647Z" fill="#FFAA40"/>
<path d="M93.7484 129.095L93.6987 129.105C93.3315 129.175 92.9593 129.217 92.5854 129.23C90.9462 129.301 89.3273 128.857 87.9696 127.965C86.612 127.074 85.5882 125.782 85.0507 124.282L75.7073 98.2931C75.2696 97.0741 75.096 95.7809 75.1976 94.4942C75.2992 93.2074 75.6737 91.9547 76.2978 90.8142C76.9219 89.6736 77.7822 88.6697 78.825 87.865C79.8678 87.0603 81.0708 86.4721 82.359 86.137C83.6472 85.802 84.9929 85.7272 86.3122 85.9175C87.6315 86.1078 88.8962 86.559 90.0273 87.2429C91.1585 87.9269 92.1318 88.829 92.8867 89.893C93.6416 90.9569 94.1618 92.16 94.4149 93.427L98.3263 113.064L98.5699 114.291L98.888 115.887L99.7976 120.45C100.18 122.372 99.7577 124.363 98.6233 125.984C97.4889 127.606 95.7354 128.725 93.7484 129.095Z" fill="#FFAA40"/>
<path d="M93.6605 137.135C87.0104 148.262 70.7333 137.563 53.5864 137.135V86.8637C61.8666 80.805 77.7658 80.7426 89.3564 86.8637L93.6605 137.135Z" fill="#FFAA40"/>
<path d="M65.9478 65.3563C65.9968 64.9978 65.144 64.5931 64.043 64.4523C62.942 64.3114 62.0097 64.4879 61.9608 64.8464C61.9118 65.2049 62.7646 65.6097 63.8656 65.7505C64.9666 65.8913 65.8989 65.7148 65.9478 65.3563Z" fill="#8E3332"/>
<path d="M64.5887 66.8711C64.8319 66.7941 64.7491 65.9035 64.4038 64.882C64.0584 63.8604 63.5812 63.0946 63.3379 63.1716C63.0947 63.2486 63.1775 64.1391 63.5228 65.1607C63.8682 66.1823 64.3454 66.9481 64.5887 66.8711Z" fill="#8E3332"/>
<path d="M77.3355 84.1032C77.1848 86.5301 76.3411 89.3214 73.2302 89.1756C67.7763 88.9206 66.458 83.3745 66.458 83.3745C66.458 83.3745 66.9024 75.4383 67.0306 75.3581H77.1622V80.6416C77.341 81.7868 77.3991 82.9466 77.3355 84.1032Z" fill="#FB855F"/>
<path d="M77.3345 84.1032C69.4934 82.5292 68.3779 78.5282 68.3779 78.5282L76.2579 75.3581H77.1619V80.6416C77.3404 81.7868 77.3983 82.9467 77.3345 84.1032Z" fill="#E56542"/>
<path d="M65.5443 72.4818C65.5443 72.4818 67.8966 83.5993 76.6621 81.3231C77.6585 81.067 78.5669 80.5601 79.2948 79.8538C79.9462 79.2213 80.4184 78.4373 80.6661 77.5772C81.5483 74.4944 81.3918 69.4609 80.442 62.8872L65.5439 64.113L65.5443 72.4818Z" fill="#FB855F"/>
<path d="M69.0611 68.4786C76.0255 69.6599 81.7586 67.9807 83.2594 63.9191C83.3962 63.5449 83.4369 63.1441 83.378 62.7513C83.3191 62.3584 83.1624 61.9853 82.9214 61.6641C82.6803 61.3428 82.3622 61.0831 81.9944 60.9072C81.6266 60.7313 81.2202 60.6445 80.81 60.6542C77.6095 60.7375 72.1848 61.8632 66.8999 62.7698C66.5057 62.8365 66.1228 62.9549 65.7616 63.1215C62.6732 64.556 61.8054 67.286 62.506 70.9314C63.6913 76.349 65.5162 77.3229 67.4843 77.3031C67.3606 74.0725 69.9112 71.5273 69.0611 68.4786Z" fill="#8E3332"/>
<path d="M66.5781 76.8493C67.865 76.8493 68.9082 75.5499 68.9082 73.947C68.9082 72.3441 67.865 71.0447 66.5781 71.0447C65.2913 71.0447 64.248 72.3441 64.248 73.947C64.248 75.5499 65.2913 76.8493 66.5781 76.8493Z" fill="#FB855F"/>
<path d="M64.9887 73.4992C64.9567 73.5147 66.6275 71.7903 67.8835 73.7271C67.8835 73.7271 66.0583 72.9675 64.9887 73.4992Z" fill="#E56542"/>
<path d="M64.1129 102.39L47.8903 114.127L47.145 114.665L46.3845 115.218L41.3297 118.873C40.5278 119.454 39.6153 119.876 38.6446 120.115C37.6739 120.355 36.664 120.407 35.6725 120.268C34.681 120.13 33.7275 119.804 32.8663 119.309C32.0052 118.813 31.2534 118.159 30.6538 117.382L30.6241 117.344C29.5265 115.923 28.9943 114.167 29.1248 112.398C29.2553 110.629 30.0398 108.964 31.3347 107.708L51.4239 88.2341C52.3662 87.3209 53.4928 86.6053 54.7336 86.1319C55.9743 85.6586 57.3026 85.4377 58.6355 85.4829C59.9684 85.5281 61.2774 85.8385 62.4808 86.3948C63.6843 86.9511 64.7563 87.7413 65.6301 88.7161C66.5039 89.6909 67.1608 90.8295 67.5597 92.0607C67.9586 93.292 68.091 94.5896 67.9486 95.8725C67.8063 97.1555 67.3922 98.3963 66.7323 99.5176C66.0723 100.639 65.1807 101.617 64.1129 102.39Z" fill="#FFAA40"/>
<path d="M63.1744 152.882C64.6526 151.881 63.5489 148.826 62.365 146.348C63.8657 146.667 65.4096 146.623 65.7301 146.012C66.1909 145.134 63.9496 143.42 62.1953 142.558C61.8838 142.405 61.5604 142.276 61.2281 142.171C60.6894 141.467 59.9301 140.949 59.0631 140.696C58.1961 140.442 57.2676 140.466 56.4157 140.764C55.5638 141.061 54.834 141.617 54.3347 142.348C53.8354 143.08 53.5933 143.947 53.6445 144.822C53.5305 146.012 53.7751 147.209 54.3486 148.268C55.6859 150.812 59.8172 155.157 63.1744 152.882Z" fill="#FB855F"/>
<path d="M61.435 142.227L53.4726 146.41L50.8583 143.131L30.7293 117.912C29.8244 116.739 29.2744 115.345 29.1404 113.887C29.0065 112.429 29.294 110.964 29.9709 109.655C30.6477 108.346 31.6872 107.244 32.9735 106.474C34.2597 105.703 35.742 105.293 37.255 105.29C38.7242 105.289 40.1665 105.672 41.429 106.399C42.6915 107.127 43.7273 108.17 44.4269 109.42L46.8822 114.156L47.1456 114.666L47.6078 115.561L59.2677 138.044L61.435 142.227Z" fill="#FFAA40"/>
<path d="M72.997 89.2031C67.0516 89.2031 65.7159 82.6404 65.7036 82.5737L66.091 82.5035C66.1034 82.5679 67.3982 88.9308 73.1365 88.82C74.3014 88.7991 77.0463 88.1815 77.3736 82.9141L77.7667 82.937C77.6973 84.054 77.456 85.6652 76.7005 86.9978C75.8874 88.4318 74.6908 89.1731 73.1439 89.2011C73.0946 89.2025 73.0456 89.2031 72.997 89.2031Z" fill="#251138"/>
<path d="M73.336 89.0042L72.9424 89.0177L74.8325 140.532L75.2261 140.519L73.336 89.0042Z" fill="#251138"/>
<path d="M75.1665 95.7433C75.4828 95.7433 75.7392 95.4953 75.7392 95.1893C75.7392 94.8833 75.4828 94.6352 75.1665 94.6352C74.8502 94.6352 74.5938 94.8833 74.5938 95.1893C74.5938 95.4953 74.8502 95.7433 75.1665 95.7433Z" fill="#3E4A3C"/>
<path d="M75.6025 103.737C75.9188 103.737 76.1752 103.489 76.1752 103.183C76.1752 102.877 75.9188 102.629 75.6025 102.629C75.2862 102.629 75.0298 102.877 75.0298 103.183C75.0298 103.489 75.2862 103.737 75.6025 103.737Z" fill="#3E4A3C"/>
<path d="M76.0376 111.731C76.3539 111.731 76.6103 111.483 76.6103 111.177C76.6103 110.871 76.3539 110.623 76.0376 110.623C75.7213 110.623 75.4648 110.871 75.4648 111.177C75.4648 111.483 75.7213 111.731 76.0376 111.731Z" fill="#3E4A3C"/>
<path d="M76.4736 119.725C76.7899 119.725 77.0463 119.477 77.0463 119.171C77.0463 118.865 76.7899 118.617 76.4736 118.617C76.1573 118.617 75.9009 118.865 75.9009 119.171C75.9009 119.477 76.1573 119.725 76.4736 119.725Z" fill="#3E4A3C"/>
<path d="M76.9092 127.719C77.2255 127.719 77.4819 127.471 77.4819 127.165C77.4819 126.859 77.2255 126.611 76.9092 126.611C76.5928 126.611 76.3364 126.859 76.3364 127.165C76.3364 127.471 76.5928 127.719 76.9092 127.719Z" fill="#3E4A3C"/>
<path d="M77.3452 135.713C77.6615 135.713 77.9179 135.465 77.9179 135.159C77.9179 134.853 77.6615 134.605 77.3452 134.605C77.0289 134.605 76.7725 134.853 76.7725 135.159C76.7725 135.465 77.0289 135.713 77.3452 135.713Z" fill="#98D28E"/>
<path d="M132.443 120.647L131.007 129.302L126.936 129.307L128.541 119.916L132.443 120.647Z" fill="#FFAA40"/>
<path d="M61.4357 142.227L53.4737 146.41L50.8594 143.131C52.9469 141.833 58.9159 138.145 59.2689 138.044L61.4357 142.227Z" fill="#FFAA40"/>
<path d="M56.3937 106.806L52.7134 110.367L52.992 110.636L56.6723 107.076L56.3937 106.806Z" fill="#251138"/>
<path d="M47.3317 113.871H43.6514V114.252H47.3317V113.871Z" fill="#251138"/>
<path d="M98.7179 113.927L95.0376 117.488L95.3162 117.757L98.9965 114.197L98.7179 113.927Z" fill="#251138"/>
<path d="M54.869 128.22L54.5166 128.39L56.3567 131.951L56.7091 131.78L54.869 128.22Z" fill="#251138"/>
<path d="M93.5336 124.348H93.1396V129.689H93.5336V124.348Z" fill="#251138"/>
<path d="M205.568 152.994C185.247 164.353 186.211 185.895 195.438 180.658C195.438 180.658 195.784 188.237 202.106 185.033C208.429 181.829 203.16 171.926 203.611 164.353C204.063 156.78 205.568 152.994 205.568 152.994Z" fill="#318522"/>
<path d="M194.278 198.197C194.222 198.197 194.17 198.176 194.13 198.138C194.091 198.101 194.069 198.05 194.068 197.997C194.081 192.989 194.37 187.986 194.935 183.009C195.796 175.448 197.708 165.069 201.928 158.567C201.942 158.544 201.961 158.523 201.984 158.507C202.006 158.491 202.032 158.48 202.059 158.474C202.086 158.467 202.114 158.466 202.142 158.471C202.169 158.475 202.195 158.485 202.219 158.499C202.243 158.513 202.263 158.532 202.279 158.554C202.295 158.576 202.306 158.601 202.312 158.628C202.318 158.654 202.318 158.681 202.313 158.708C202.308 158.734 202.298 158.759 202.282 158.782C198.104 165.219 196.207 175.534 195.351 183.053C194.788 188.015 194.499 193.002 194.487 197.993C194.488 198.046 194.466 198.098 194.427 198.136C194.389 198.175 194.336 198.197 194.28 198.197L194.278 198.197Z" fill="#30354F"/>
<path d="M196.18 176.604C196.129 176.604 196.08 176.597 196.032 176.582C195.374 176.373 195.086 173.675 194.973 172.086C194.969 172.033 194.987 171.98 195.024 171.939C195.06 171.899 195.111 171.874 195.167 171.871C195.222 171.867 195.277 171.885 195.318 171.92C195.36 171.955 195.386 172.005 195.39 172.058C195.523 173.924 195.867 176.033 196.168 176.199C196.171 176.2 196.19 176.206 196.232 176.184C196.568 176.012 196.977 174.995 197.157 174.394C197.172 174.343 197.208 174.299 197.257 174.273C197.305 174.247 197.363 174.241 197.416 174.256C197.469 174.271 197.514 174.306 197.541 174.353C197.568 174.4 197.574 174.455 197.559 174.507C197.473 174.794 197.015 176.24 196.427 176.541C196.351 176.582 196.266 176.603 196.18 176.604Z" fill="#3E4A3C"/>
<path d="M197.732 170.12C197.637 170.119 197.542 170.105 197.451 170.078C196.331 169.753 196.086 167.186 196.061 166.894C196.058 166.841 196.076 166.789 196.112 166.749C196.148 166.709 196.199 166.685 196.253 166.68C196.308 166.676 196.362 166.693 196.404 166.727C196.446 166.761 196.473 166.809 196.478 166.862C196.561 167.857 196.932 169.505 197.571 169.69C197.638 169.713 197.708 169.72 197.778 169.712C197.848 169.705 197.915 169.682 197.974 169.645C198.378 169.406 198.603 168.626 198.655 168.345C198.666 168.293 198.697 168.247 198.743 168.217C198.788 168.187 198.844 168.176 198.897 168.185C198.951 168.195 198.999 168.224 199.031 168.267C199.063 168.311 199.075 168.364 199.067 168.417C199.058 168.465 198.839 169.606 198.194 169.989C198.055 170.074 197.895 170.119 197.732 170.12Z" fill="#30354F"/>
<path d="M174.408 152.558C194.579 152.218 206.822 183.379 191.92 181.342C191.92 181.342 187.654 184.354 183.841 180.859C180.028 177.364 182.637 166.878 180.931 162.606C179.225 158.334 174.408 152.558 174.408 152.558Z" fill="#87DC78"/>
<path d="M165.979 162.291C180.932 162.606 197.463 182.821 188.144 184.461C188.144 184.461 186.237 190.47 178.416 186.392C170.595 182.314 174.039 173.659 172.101 169.409C170.194 165.228 165.979 162.291 165.979 162.291Z" fill="#318522"/>
<path d="M189.761 194.75C189.726 194.75 189.691 194.742 189.66 194.725C189.629 194.709 189.603 194.685 189.585 194.656C189.566 194.628 189.555 194.595 189.552 194.561C189.55 194.527 189.557 194.493 189.572 194.462C190.749 192.043 191.583 187.344 191.697 182.492C191.824 177.1 191.054 172.722 189.585 170.482C186.236 165.376 183.154 160.573 182.237 157.913C182.228 157.888 182.224 157.861 182.225 157.834C182.227 157.807 182.234 157.781 182.246 157.756C182.258 157.732 182.275 157.71 182.296 157.693C182.317 157.675 182.342 157.661 182.368 157.653C182.394 157.644 182.422 157.641 182.45 157.643C182.478 157.645 182.505 157.652 182.53 157.665C182.555 157.677 182.577 157.694 182.595 157.715C182.612 157.735 182.626 157.759 182.634 157.785C183.535 160.399 186.736 165.384 189.938 170.265C193.317 175.417 192.388 189.622 189.951 194.634C189.934 194.669 189.907 194.698 189.873 194.719C189.84 194.74 189.801 194.75 189.761 194.75Z" fill="#30354F"/>
<path d="M185.892 164.321L182.323 162.097C182.3 162.082 182.28 162.064 182.264 162.042C182.249 162.02 182.238 161.995 182.232 161.969C182.226 161.943 182.226 161.917 182.23 161.89C182.235 161.864 182.245 161.839 182.26 161.817C182.275 161.795 182.294 161.775 182.317 161.76C182.34 161.745 182.365 161.734 182.392 161.729C182.419 161.723 182.447 161.722 182.474 161.727C182.501 161.732 182.526 161.742 182.55 161.756L185.386 163.524C185.338 162.799 185.32 161.318 185.878 160.548C185.91 160.504 185.958 160.474 186.013 160.465C186.068 160.455 186.124 160.468 186.169 160.498C186.215 160.529 186.245 160.576 186.255 160.629C186.265 160.682 186.252 160.736 186.22 160.78C185.571 161.678 185.836 163.871 185.838 163.893L185.892 164.321Z" fill="#30354F"/>
<path d="M189.818 170.835L189.287 170.025C189.093 169.728 187.635 168.982 186.763 168.58C186.738 168.569 186.715 168.553 186.696 168.533C186.678 168.514 186.663 168.49 186.654 168.465C186.644 168.44 186.64 168.413 186.641 168.387C186.643 168.36 186.649 168.334 186.661 168.31C186.673 168.285 186.69 168.264 186.711 168.246C186.731 168.228 186.755 168.214 186.781 168.206C186.807 168.197 186.835 168.193 186.863 168.195C186.89 168.196 186.917 168.203 186.942 168.215C187.246 168.354 188.494 168.939 189.197 169.419C189.111 168.42 189.067 166.256 190.106 165.095C190.124 165.074 190.146 165.057 190.171 165.044C190.195 165.032 190.222 165.024 190.25 165.022C190.278 165.02 190.306 165.023 190.333 165.031C190.359 165.04 190.384 165.053 190.405 165.071C190.426 165.088 190.443 165.11 190.456 165.134C190.468 165.158 190.475 165.185 190.477 165.212C190.478 165.239 190.474 165.266 190.465 165.291C190.456 165.317 190.441 165.34 190.422 165.36C189.195 166.73 189.666 169.855 189.67 169.887L189.818 170.835Z" fill="#30354F"/>
<path d="M192.07 195.43C192.016 195.43 191.965 195.41 191.926 195.374C191.887 195.338 191.864 195.289 191.862 195.237C191.507 187.77 187.434 183.005 183.741 181.036C180.727 179.429 175.468 171.523 173.321 167.647C173.298 167.6 173.294 167.546 173.311 167.497C173.327 167.447 173.363 167.406 173.411 167.381C173.458 167.356 173.514 167.35 173.565 167.364C173.617 167.378 173.662 167.411 173.689 167.456C175.815 171.296 181.005 179.115 183.942 180.682C185.054 181.274 187.199 182.669 189.077 185.348C191.022 188.124 192.1 191.445 192.279 195.218C192.281 195.272 192.262 195.324 192.225 195.364C192.187 195.403 192.135 195.427 192.08 195.43L192.07 195.43Z" fill="#30354F"/>
<path d="M176.492 172.3L176.255 172.274C174.841 172.12 174.264 171.4 174.24 171.369C174.209 171.326 174.195 171.273 174.204 171.221C174.212 171.169 174.241 171.122 174.284 171.09C174.327 171.058 174.382 171.044 174.436 171.051C174.49 171.057 174.539 171.084 174.573 171.125C174.582 171.136 175.02 171.662 176.067 171.839C176.073 171.127 176.167 169.196 177.015 168.741C177.064 168.716 177.12 168.71 177.173 168.725C177.226 168.74 177.27 168.774 177.297 168.821C177.324 168.867 177.33 168.922 177.316 168.973C177.301 169.024 177.266 169.068 177.218 169.094C176.641 169.404 176.464 171.083 176.487 172.068L176.492 172.3Z" fill="#30354F"/>
<path d="M181.713 179.43L180.83 178.469C180.453 178.058 178.915 177.531 178.354 177.363C178.301 177.347 178.257 177.311 178.231 177.263C178.205 177.216 178.199 177.16 178.216 177.109C178.232 177.058 178.269 177.015 178.318 176.99C178.368 176.965 178.425 176.96 178.478 176.975C179.183 177.185 179.869 177.452 180.528 177.773C180.111 176.69 179.478 174.631 180.42 174.065C180.443 174.051 180.469 174.041 180.497 174.036C180.524 174.031 180.552 174.032 180.579 174.038C180.606 174.044 180.631 174.055 180.654 174.07C180.677 174.086 180.696 174.106 180.71 174.128C180.725 174.151 180.735 174.176 180.739 174.203C180.744 174.229 180.743 174.256 180.736 174.282C180.73 174.309 180.718 174.333 180.701 174.355C180.685 174.376 180.664 174.395 180.641 174.408C179.949 174.825 180.603 176.987 181.178 178.252L181.713 179.43Z" fill="#30354F"/>
<path d="M203.611 190.179L203.423 192.509L202.83 199.854L200.961 223.038L200.823 224.742H183.317L182.859 219.057L181.158 197.977L180.718 192.509L180.53 190.179H203.611Z" fill="#323930"/>
<path d="M203.611 190.179L203.423 192.509H180.718L180.53 190.179H203.611Z" fill="#32492E"/>
<path d="M44.9944 16.5914L44.5463 2.69237C44.5312 2.27454 44.6205 1.85934 44.8065 1.48196C44.9925 1.10457 45.2697 0.776105 45.6148 0.524386C45.9598 0.272666 46.3625 0.105106 46.7887 0.0358953C47.2149 -0.0333152 47.652 -0.00213642 48.0631 0.126791C50.0724 0.778275 51.8272 2.00946 53.0915 3.65472C54.3558 5.29998 55.0689 7.28039 55.135 9.32951C55.201 11.3786 54.6168 13.3982 53.4609 15.1164C52.305 16.8347 50.6328 18.1693 48.6694 18.9406C48.2674 19.0942 47.833 19.1518 47.4031 19.1084C46.9732 19.0651 46.5604 18.9221 46.1998 18.6916C45.8392 18.4611 45.5413 18.1498 45.3315 17.7842C45.1216 17.4186 45.006 17.0095 44.9944 16.5914Z" fill="#FFF0E3"/>
<path d="M25.3564 27.4259L27.0019 29.9749C27.1456 30.1976 27.2262 30.4529 27.2356 30.7152C27.2449 30.9776 27.1828 31.2377 27.0553 31.4694C26.9279 31.7011 26.7396 31.8963 26.5095 32.0354C26.2794 32.1744 26.0154 32.2524 25.7443 32.2615L22.6399 32.3657L19.5354 32.4698C19.2643 32.4789 18.9954 32.4188 18.7558 32.2955C18.5163 32.1722 18.3145 31.9901 18.1707 31.7675C18.027 31.5448 17.9464 31.2895 17.937 31.0272C17.9276 30.7648 17.9897 30.5047 18.1171 30.2729L19.5762 27.6197L21.0353 24.9667C21.1627 24.7349 21.351 24.5397 21.5811 24.4007C21.8112 24.2616 22.0751 24.1836 22.3463 24.1745C22.6175 24.1654 22.8863 24.2256 23.1259 24.3488C23.3654 24.4721 23.5672 24.6543 23.7109 24.8769L25.3564 27.4259Z" fill="#87DC78"/>
<path d="M216.486 204.01C218.45 204.01 220.042 202.47 220.042 200.57C220.042 198.67 218.45 197.13 216.486 197.13C214.522 197.13 212.93 198.67 212.93 200.57C212.93 202.47 214.522 204.01 216.486 204.01Z" fill="#FFF0E3"/>
<path d="M233.114 225.201H0.886364C0.396839 225.201 0 225.584 0 226.058C0 226.532 0.396839 226.916 0.886364 226.916H233.114C233.603 226.916 234 226.532 234 226.058C234 225.584 233.603 225.201 233.114 225.201Z" fill="#318522"/>
<path d="M116.486 159.397H116.092C116.092 157.928 113.717 155.027 102.4 149.553C95.5851 146.257 88.6823 143.577 88.6133 143.551L88.7595 143.197C88.8285 143.224 95.7469 145.909 102.576 149.212C111.806 153.677 116.486 157.104 116.486 159.397Z" fill="#251138"/>
<path d="M79.9694 159.399H79.5754V153.582L70.4834 149.184L70.6596 148.843L79.9694 153.347V159.399Z" fill="#251138"/>
<path d="M101.086 167.746L97.4058 169.527L97.5819 169.868L101.262 168.087L101.086 167.746Z" fill="#251138"/>
<path d="M122.203 162.546L118.523 164.326L118.699 164.667L122.38 162.887L122.203 162.546Z" fill="#251138"/>
<path d="M192.389 113.887L188.853 116.673L192.319 120.789L195.854 118.003L192.389 113.887Z" fill="#2E5029"/>
<path d="M181.121 119.89C191.125 119.89 199.234 112.044 199.234 102.366C199.234 92.6876 191.125 84.8418 181.121 84.8418C171.117 84.8418 163.007 92.6876 163.007 102.366C163.007 112.044 171.117 119.89 181.121 119.89Z" fill="#FFAA40"/>
<path opacity="0.63" d="M181.121 115.478C188.606 115.478 194.675 109.608 194.675 102.366C194.675 95.1241 188.606 89.2534 181.121 89.2534C173.636 89.2534 167.567 95.1241 167.567 102.366C167.567 109.608 173.636 115.478 181.121 115.478Z" fill="white"/>
<path d="M194.226 115.906L190.586 118.775C190.201 119.078 190.143 119.625 190.457 119.998L206.006 138.467C206.32 138.839 206.886 138.895 207.271 138.592L210.911 135.723C211.295 135.42 211.353 134.873 211.04 134.5L195.49 116.031C195.177 115.659 194.611 115.603 194.226 115.906Z" fill="#32492E"/>
<g opacity="0.33">
<g opacity="0.33">
<g opacity="0.33">
<path opacity="0.33" d="M194.54 85.666L189.648 84.5134L180.77 119.778L185.662 120.93L194.54 85.666Z" fill="white"/>
<path opacity="0.33" d="M185.674 84.6518L185.087 84.5135L176.21 119.778L176.797 119.916L185.674 84.6518Z" fill="white"/>
</g>
</g>
</g>
</g>
</svg>
