<svg width="234" height="215" viewBox="0 0 234 215" fill="none" xmlns="http://www.w3.org/2000/svg">
<g opacity="0.5">
<path d="M213.555 91.2591C213.564 103.157 211.412 114.94 207.222 125.934C203.032 136.929 196.887 146.918 189.138 155.331C181.39 163.745 172.189 170.416 162.063 174.965C151.937 179.514 141.084 181.851 130.125 181.841C126.98 181.842 123.837 181.651 120.711 181.27C107.671 179.685 95.1647 174.762 84.2188 166.907H84.217C72.9489 158.828 63.6453 147.913 57.0977 135.091V135.089C50.8139 122.779 47.2755 109.041 46.7665 94.9782C46.7188 93.7436 46.6954 92.5039 46.6963 91.2591C46.6956 67.6526 55.1828 44.9784 70.3505 28.0649C85.5182 11.1513 106.168 1.33472 127.903 0.705499C149.637 0.0762729 170.74 8.68412 186.716 24.6961C202.692 40.708 212.28 62.8589 213.438 86.4318C213.516 88.0306 213.555 89.6397 213.555 91.2591Z" fill="#B0F8A4"/>
<path d="M134.496 60.6588C121.407 60.6639 108.38 58.6975 95.789 54.8159C83.9502 51.1757 72.6127 45.8338 62.0776 38.932L62.7228 37.773C73.1627 44.6121 84.3977 49.9055 96.1294 53.5125C113.384 58.8254 131.271 60.4942 149.294 58.4718C167.043 56.4803 184.214 50.9969 200.33 42.1738L200.892 43.3835C184.639 52.2812 167.322 57.811 149.422 59.8196C144.463 60.3774 139.481 60.6575 134.496 60.6588Z" fill="white"/>
<path d="M130.125 182.519C126.956 182.519 123.789 182.327 120.64 181.943L120.055 181.872L120.087 181.233C120.75 168.026 124.145 154.275 129.905 141.467C135.717 128.541 143.652 117.233 152.852 108.763C160.76 101.483 170.446 95.4652 180.865 91.3587C191.874 87.0204 203.151 85.0835 213.475 85.7559L214.032 85.7922L214.061 86.3964C214.139 87.999 214.179 89.6352 214.179 91.2593C214.187 103.246 212.019 115.118 207.798 126.194C203.577 137.27 197.386 147.334 189.579 155.81C181.772 164.286 172.503 171.008 162.301 175.591C152.099 180.174 141.165 182.528 130.125 182.519H130.125ZM121.367 180.666C124.276 180.998 127.199 181.164 130.125 181.164C141.001 181.174 151.773 178.856 161.824 174.341C171.875 169.827 181.007 163.205 188.698 154.854C196.389 146.504 202.488 136.589 206.646 125.676C210.804 114.764 212.94 103.069 212.93 91.2593C212.93 89.8633 212.901 88.4585 212.842 87.0746C202.838 86.5175 191.942 88.435 181.29 92.6322C171.009 96.6839 161.454 102.62 153.659 109.797C144.589 118.146 136.763 129.303 131.026 142.061C125.432 154.501 122.098 167.834 121.367 180.666Z" fill="white"/>
<path d="M138.881 21.5494C135.118 21.554 131.367 21.1088 127.694 20.2218C118.757 18.057 109.081 12.8891 101.809 6.39783L100.957 5.63701L101.996 5.23609C113.039 0.996251 124.774 -0.69831 136.453 0.26049C148.132 1.21929 159.499 4.8104 169.829 10.8048L170.806 11.375L169.849 11.985C163.757 15.8726 157.018 18.7254 150.361 20.2341C146.586 21.0998 142.739 21.5405 138.881 21.5494ZM103.473 6.11311C110.491 12.1173 119.563 16.8643 127.965 18.8994C135.079 20.6227 142.528 20.626 150.106 18.9086C156.279 17.5093 162.526 14.9302 168.242 11.4273C158.329 5.86273 147.484 2.52426 136.356 1.61122C125.228 0.698177 114.044 2.22928 103.473 6.11311Z" fill="white"/>
<path d="M84.4975 167.585H84.029L83.8726 167.473C72.5269 159.325 63.1554 148.331 56.5512 135.42L56.4731 135.264C50.1714 122.909 46.6327 109.119 46.1424 95.0056C46.0952 93.7826 46.0713 92.5218 46.0713 91.2591C46.0657 82.6627 47.1778 74.1085 49.3747 65.8497L49.5099 65.3429L49.9956 65.361C58.6117 65.684 67.7738 68.35 75.7941 72.8692C84.7287 77.9032 91.9168 85.0031 96.5809 93.4016C102.884 104.749 104.541 118.442 101.374 132.997C98.7275 145.156 92.6442 157.681 84.6836 167.358L84.4975 167.585ZM57.7212 134.916C64.1354 147.398 73.1782 158.055 84.111 166.018C91.7616 156.565 97.5995 144.449 100.159 132.686C103.25 118.482 101.644 105.14 95.5127 94.1013C90.9672 85.9169 83.9497 78.9909 75.2196 74.0718C67.5117 69.7291 58.7315 67.1331 50.4394 66.7358C48.364 74.7152 47.314 82.9677 47.3194 91.2591C47.3194 92.5029 47.343 93.7449 47.3896 94.9496C47.8745 108.911 51.3876 122.551 57.6431 134.761L57.7212 134.916Z" fill="white"/>
<path d="M56.9787 136.255L56.5513 135.418C50.2012 123.024 46.6349 109.178 46.1425 95.0057L46.1084 94.0858L46.9274 94.324C53.0917 96.1168 60.5347 101.903 63.2668 110.791C65.7529 118.874 63.6207 128.126 57.5642 135.539L56.9787 136.255ZM47.4288 95.8948C48.0196 109.202 51.3633 122.194 57.2119 133.906C62.5229 126.991 64.3453 118.576 62.0831 111.22C59.6184 103.203 53.0938 97.8492 47.4288 95.8948Z" fill="white"/>
<path d="M125.159 100.192C124.358 100.199 123.558 100.128 122.769 99.9788C121.02 99.6295 119.811 98.879 119.174 97.7484C118.435 96.4352 118.452 94.5276 119.222 92.2314C120.205 89.3008 122.346 85.96 125.096 83.0654C127.26 80.7872 130.804 77.7204 135.4 76.0481C140.975 74.0199 150.113 73.5929 152.055 78.1304C153.997 82.6678 147.587 89.6811 143.926 92.7551C140.862 95.3271 136.933 97.4781 132.863 98.8119C130.096 99.7182 127.409 100.192 125.159 100.192ZM135.796 77.3326C128.49 79.9915 122.228 87.2315 120.394 92.695C119.768 94.5628 119.713 96.1064 120.239 97.0412C120.677 97.819 121.63 98.3733 122.995 98.646C127.608 99.5679 136.629 97.1667 143.162 91.6825C145.386 89.8155 147.594 87.3964 149.067 85.2117C150.363 83.2902 151.737 80.601 150.924 78.701C149.49 75.352 141.615 75.2152 135.796 77.3325V77.3326Z" fill="white"/>
<path d="M161.57 175.92L161.372 175.201C161.057 174.053 160.795 172.889 160.589 171.712C159.028 162.784 160.876 153.74 165.933 145.557C170.08 138.848 176.299 132.951 182.998 129.377C185.895 127.885 188.903 126.662 191.991 125.721C198.214 123.834 203.445 123.571 207.539 124.939L208.192 125.158L207.933 125.844C203.709 137.005 197.495 147.149 189.648 155.694C181.801 164.239 172.476 171.015 162.208 175.633L161.57 175.92ZM201.835 125.442C193.323 125.442 184.022 130.34 183.548 130.592C177.04 134.065 170.998 139.794 166.97 146.312C162.099 154.193 160.316 162.888 161.815 171.459C161.969 172.341 162.158 173.222 162.377 174.088C182.288 164.916 198.12 147.676 206.51 126.031C204.981 125.624 203.41 125.426 201.835 125.443V125.442Z" fill="white"/>
<path d="M84.4953 30.5641C80.1995 30.5641 75.2345 29.6543 70.6765 28.1577L69.6846 27.8321L70.4138 27.0325C76.352 20.5183 83.1594 15.0113 90.6072 10.6968L91.0602 10.4343L91.3845 10.8667C95.5811 16.4579 97.0464 23.3295 94.7928 26.8491C93.1169 29.468 89.2091 30.5641 84.4953 30.5641ZM72.0454 27.1797C76.4478 28.5203 81.0743 29.2548 84.8845 29.213C89.3511 29.1614 92.5067 28.0474 93.7686 26.0759C95.6291 23.1696 94.2932 17.1371 90.7375 12.1594C83.8875 16.1872 77.5948 21.2437 72.0454 27.1795V27.1797Z" fill="white"/>
<path d="M26.3735 213.48L24.7134 213.112L34.1031 163.22L38.8957 164.283L26.3735 213.48Z" fill="#FDAB71"/>
<path d="M47.1334 213.093L45.4731 212.725L54.8629 162.833L59.6556 163.896L47.1334 213.093Z" fill="#E28F59"/>
<path d="M78.1822 211.791L79.8628 211.555L73.8661 161.05L69.0146 161.729L78.1822 211.791Z" fill="#FDAB71"/>
<path d="M96.3652 211.782L98.0458 211.547L91.5503 156.84L86.6987 157.519L96.3652 211.782Z" fill="#E28F59"/>
<path d="M35.7608 159.642L27.188 120.03H35.7608L38.7513 159.642H35.7608Z" fill="#FDAB71"/>
<path d="M49.9162 157.478L43.1377 116.783H49.9162L52.9067 157.478H49.9162Z" fill="#FDAB71"/>
<path d="M23.1123 97.4865C23.1621 96.8662 23.349 96.268 23.6571 95.7427C23.9652 95.2174 24.3854 94.7806 24.8821 94.4692C30.8847 90.7604 46.4389 90.0808 49.0312 93.4583C51.9086 97.2073 55.9824 118.094 54.9304 120.951C53.4917 124.856 39.9678 129.854 30.0413 125.949C21.6391 122.645 22.6138 103.344 23.1123 97.4865Z" fill="#EEEDFF"/>
<path d="M25.8145 93.9547C29.5936 93.6921 38.8157 123.138 30.0396 125.949C22.0265 128.516 20.4901 108.555 20.9407 98.6434C20.9798 97.7331 21.2613 96.8546 21.7511 96.1145C22.241 95.3744 22.9181 94.8046 23.7003 94.4741C24.3769 94.1864 25.0897 94.0113 25.8145 93.9547Z" fill="#4C7645"/>
<path d="M68.1754 153.163C68.1754 153.163 77.8972 153.258 86.0157 149.962C89.0374 148.735 92.3925 150.897 92.6734 154.387C92.7824 155.744 92.4183 157.236 91.1846 158.753C86.8684 164.064 67.1851 166.853 67.1851 166.853L68.1754 153.163Z" fill="#EEEDFF"/>
<path d="M31.7657 155.628C31.7657 155.628 47.7129 156.742 66.4308 153.245C73.5941 151.907 76.6234 162.934 69.9107 165.962C69.8105 166.007 69.7082 166.051 69.6038 166.094C61.2592 169.531 36.5133 167.969 31.7654 164.532C27.0175 161.096 29.0421 155.511 31.7657 155.628Z" fill="#4C7645"/>
<path d="M224.031 0.677185H93.1469C87.6411 0.677185 83.1777 5.52317 83.1777 11.501V99.6029C83.1777 105.581 87.6411 110.427 93.1469 110.427H224.031C229.537 110.427 234 105.581 234 99.6029V11.501C234 5.52317 229.537 0.677185 224.031 0.677185Z" fill="#30B319"/>
<path d="M221.188 6.47583H96.1047C92.5436 6.47583 89.6567 9.6102 89.6567 13.4766V97.6288C89.6567 101.495 92.5436 104.63 96.1047 104.63H221.188C224.749 104.63 227.636 101.495 227.636 97.6288V13.4766C227.636 9.6102 224.749 6.47583 221.188 6.47583Z" fill="white"/>
<path d="M221.188 104.823H96.1043C94.3475 104.82 92.6633 104.062 91.421 102.713C90.1788 101.364 89.48 99.5357 89.478 97.6283V13.4761C89.48 11.5687 90.1787 9.74001 91.421 8.39125C92.6632 7.04249 94.3475 6.2838 96.1043 6.28162H221.188C222.945 6.28376 224.629 7.04243 225.871 8.39119C227.114 9.73995 227.812 11.5687 227.814 13.4761V97.6283C227.812 99.5357 227.113 101.364 225.871 102.713C224.629 104.062 222.945 104.82 221.188 104.823ZM96.1043 6.66881C94.442 6.67087 92.8484 7.38873 91.673 8.66489C90.4976 9.94106 89.8364 11.6713 89.8345 13.4761V97.6283C89.8364 99.433 90.4976 101.163 91.673 102.439C92.8484 103.716 94.442 104.434 96.1043 104.436H221.188C222.85 104.434 224.444 103.716 225.619 102.439C226.795 101.163 227.456 99.433 227.458 97.6283V13.4761C227.456 11.6713 226.795 9.94102 225.619 8.66485C224.444 7.38867 222.85 6.67083 221.188 6.66881H96.1043Z" fill="#30B319"/>
<path d="M158.624 71.4513C157.584 71.4513 156.722 71.0913 156.037 70.3712C155.7 70.0213 155.434 69.5987 155.257 69.1305C155.08 68.6623 154.996 68.1591 155.009 67.6532C155.009 65.7171 155.482 63.5947 156.428 61.2862C157.373 58.9776 158.839 56.9297 160.824 55.1424C162.146 53.9508 163.363 52.7715 164.475 51.6044C165.581 50.4441 166.493 49.0833 167.169 47.583C167.854 46.0693 168.196 44.22 168.197 42.0352C168.2 40.455 167.826 38.9008 167.111 37.524C166.397 36.1473 165.366 34.9947 164.12 34.1786C162.82 33.3106 161.225 32.8762 159.335 32.8753C157.018 32.8753 155.104 33.3222 153.592 34.2158C152.139 35.0439 150.961 36.3461 150.225 37.9392C149.491 39.5286 149.125 41.3904 149.126 43.5245C149.14 44.0271 149.059 44.5275 148.888 44.9949C148.717 45.4623 148.461 45.8869 148.133 46.2425C147.471 46.963 146.596 47.3229 145.51 47.3224C144.47 47.3224 143.607 46.9624 142.922 46.2425C142.585 45.8927 142.32 45.4701 142.143 45.0019C141.965 44.5338 141.881 44.0305 141.894 43.5245C141.894 40.05 142.615 36.9968 144.057 34.3648C145.499 31.7329 147.531 29.6601 150.154 28.1466C152.777 26.6328 155.838 25.8757 159.335 25.8753C162.407 25.8753 165.136 26.5579 167.524 27.9232C169.846 29.2255 171.805 31.1799 173.196 33.5829C174.589 35.9914 175.286 38.8089 175.287 42.0352C175.287 44.8161 174.862 47.224 174.011 49.2588C173.161 51.2926 171.985 53.1459 170.537 54.7322C168.959 56.4531 167.277 58.0579 165.503 59.5359C164.282 60.5654 163.389 61.9849 162.951 63.5944C162.478 65.2585 162.242 66.6114 162.242 67.653C162.256 68.1556 162.175 68.656 162.004 69.1234C161.834 69.5908 161.577 70.0154 161.249 70.371C160.586 71.0916 159.711 71.4517 158.624 71.4513ZM158.624 85.228C157.986 85.2357 157.353 85.1046 156.763 84.8424C156.172 84.5802 155.636 84.1922 155.186 83.7013C154.216 82.6847 153.732 81.4808 153.732 80.0897C153.724 79.3991 153.849 78.7142 154.099 78.0792C154.35 77.4442 154.72 76.8733 155.186 76.4033C155.636 75.9126 156.172 75.5247 156.763 75.2626C157.353 75.0004 157.986 74.8691 158.624 74.8766C159.274 74.8642 159.918 74.9928 160.521 75.255C161.124 75.5172 161.672 75.9076 162.134 76.4033C162.6 76.8736 162.97 77.4446 163.22 78.0795C163.47 78.7144 163.595 79.3991 163.587 80.0897C163.587 81.4801 163.103 82.684 162.134 83.7013C161.672 84.1972 161.124 84.5878 160.521 84.85C159.919 85.1122 159.274 85.2407 158.624 85.228Z" fill="#F04843"/>
<path d="M192.351 147.262C182.999 143.983 174.794 172.543 177.533 190.658L182.639 192.01C182.639 192.01 204.304 151.453 192.351 147.262Z" fill="#30B319"/>
<path d="M180.023 192.199C179.997 192.199 179.97 192.192 179.946 192.179C179.923 192.166 179.902 192.147 179.886 192.124C179.87 192.101 179.859 192.074 179.854 192.045C179.849 192.017 179.85 191.987 179.857 191.96L190.441 151.537C190.453 151.489 190.483 151.449 190.523 151.425C190.563 151.4 190.61 151.394 190.654 151.408C190.699 151.422 190.736 151.454 190.758 151.497C190.781 151.541 190.786 151.592 190.774 151.64L180.19 192.062C180.18 192.101 180.158 192.136 180.128 192.161C180.098 192.185 180.061 192.199 180.023 192.199Z" fill="white"/>
<path d="M164.036 155.252C152.482 160.726 172.175 195.542 179.482 192.448C179.482 192.448 176.866 149.173 164.036 155.252Z" fill="#78C56A"/>
<path d="M181.194 195.94C181.163 195.944 181.131 195.937 181.104 195.921C181.076 195.905 181.054 195.88 181.039 195.85L165.639 163.39C165.62 163.35 165.617 163.304 165.629 163.261C165.642 163.219 165.669 163.184 165.706 163.163C165.742 163.143 165.785 163.139 165.824 163.152C165.863 163.166 165.896 163.196 165.915 163.236L181.315 195.696C181.326 195.72 181.332 195.747 181.332 195.774C181.332 195.801 181.326 195.828 181.314 195.852C181.302 195.876 181.285 195.897 181.264 195.912C181.243 195.927 181.219 195.937 181.194 195.94L181.194 195.94Z" fill="white"/>
<path d="M188.897 183.366V202.968C188.897 206.159 187.729 209.22 185.651 211.476C183.573 213.733 180.754 215 177.815 215C174.875 215 172.057 213.733 169.978 211.476C167.9 209.22 166.732 206.159 166.732 202.968V183.366H188.897Z" fill="#747474"/>
<path d="M211.229 187.295L209.427 188.588C209.27 188.701 209.088 188.767 208.9 188.779C208.711 188.791 208.523 188.75 208.355 188.658C208.186 188.567 208.042 188.429 207.938 188.258C207.834 188.087 207.774 187.889 207.762 187.685L207.632 185.344L207.501 183.004C207.49 182.8 207.528 182.596 207.613 182.412C207.697 182.229 207.824 182.073 207.982 181.96C208.139 181.847 208.321 181.781 208.509 181.769C208.698 181.757 208.885 181.798 209.054 181.89L210.986 182.938L212.918 183.985C213.087 184.077 213.231 184.215 213.335 184.386C213.439 184.556 213.499 184.754 213.511 184.958C213.522 185.163 213.484 185.367 213.399 185.55C213.315 185.733 213.188 185.889 213.031 186.002L211.229 187.295Z" fill="#9FA3BF"/>
<path d="M230.788 160.938H217.779C216.094 160.938 214.895 159.119 215.48 157.403C216.146 155.45 217.346 153.766 218.92 152.576C220.494 151.387 222.366 150.749 224.284 150.749C226.202 150.749 228.074 151.387 229.648 152.576C231.222 153.766 232.422 155.45 233.088 157.403C233.673 159.119 232.473 160.938 230.788 160.938Z" fill="#9CFF8B"/>
<path d="M32.8668 53.8245L32.4617 39.707C32.4091 37.8785 34.0467 36.5197 35.6445 37.1012C37.4626 37.7632 39.0504 39.0139 40.1944 40.6849C41.3383 42.356 41.9835 44.3673 42.0431 46.4483C42.1028 48.5294 41.5741 50.5804 40.5281 52.3254C39.4821 54.0705 37.9689 55.4259 36.1922 56.2094C34.6315 56.8981 32.9192 55.6529 32.8668 53.8245Z" fill="#FFF0E3"/>
<path d="M6.71459 68.7001L8.20344 71.2892C8.33352 71.5153 8.40649 71.7746 8.41503 72.041C8.42356 72.3075 8.36735 72.5716 8.25205 72.807C8.13675 73.0424 7.96642 73.2406 7.75817 73.3819C7.54993 73.5231 7.31112 73.6024 7.06573 73.6116L4.25657 73.7175L1.44741 73.8233C1.20199 73.8325 0.95866 73.7715 0.741869 73.6462C0.525079 73.521 0.342469 73.336 0.212391 73.1099C0.082314 72.8837 0.00935159 72.6244 0.000840635 72.358C-0.00767032 72.0915 0.0485694 71.8273 0.163905 71.5919L1.48421 68.8971L2.80452 66.2023C2.91983 65.9669 3.09018 65.7686 3.29845 65.6273C3.50673 65.4861 3.74558 65.4068 3.99101 65.3975C4.23643 65.3883 4.47978 65.4493 4.6966 65.5745C4.91341 65.6997 5.09605 65.8847 5.22615 66.1108L6.71459 68.7001Z" fill="#288E17"/>
<path d="M42.0743 14.2469C43.8517 14.2469 45.2926 12.6825 45.2926 10.7527C45.2926 8.8229 43.8517 7.25848 42.0743 7.25848C40.2968 7.25848 38.856 8.8229 38.856 10.7527C38.856 12.6825 40.2968 14.2469 42.0743 14.2469Z" fill="#3ECC25"/>
<path d="M52.7707 198.993L50.4562 197.534C50.0841 197.299 49.813 196.914 49.7027 196.462C49.5924 196.01 49.6518 195.53 49.8679 195.126L52.943 189.377L58.0639 192.606L54.9888 198.355C54.8818 198.555 54.7395 198.73 54.5701 198.87C54.4007 199.011 54.2075 199.114 54.0015 199.173C53.7955 199.232 53.5808 199.247 53.3696 199.216C53.1584 199.185 52.9549 199.11 52.7706 198.993L52.7707 198.993Z" fill="#FB855F"/>
<path d="M98.6115 208.901L95.9365 208.994C95.7235 209.002 95.5113 208.964 95.3119 208.882C95.1124 208.801 94.9298 208.677 94.7743 208.519C94.6189 208.361 94.4936 208.171 94.4058 207.96C94.3179 207.749 94.2691 207.522 94.2622 207.29L94.0646 200.646L99.9833 200.438L100.181 207.083C100.188 207.314 100.153 207.545 100.078 207.761C100.002 207.978 99.8888 208.176 99.743 208.345C99.5973 208.513 99.4224 208.649 99.2282 208.745C99.0341 208.84 98.8245 208.893 98.6115 208.901Z" fill="#FB855F"/>
<path d="M98.6077 155.276C100.697 155.204 102.682 154.266 104.154 152.655C105.627 151.044 106.475 148.881 106.525 146.612C106.946 126.665 106.785 106.254 105.911 91.3088L88.0122 91.9364C89.0846 108.957 89.8134 128.782 90.1612 146.584C90.184 147.759 90.4213 148.917 90.8593 149.992C91.2973 151.066 91.9273 152.036 92.7129 152.845C93.4985 153.653 94.424 154.284 95.4359 154.702C96.4477 155.119 97.5258 155.315 98.6077 155.276Z" fill="#2E322E"/>
<path d="M98.1049 138.156C99.2158 138.117 100.322 138.325 101.357 138.767C102.391 139.21 103.331 139.877 104.119 140.728C104.907 141.579 105.526 142.596 105.939 143.717C106.351 144.837 106.549 146.038 106.518 147.244C106.084 164.438 105.482 189.566 105.108 200.593L91.2582 201.079C91.4352 188.524 90.504 162.829 90.2165 147.178C90.1739 144.85 90.9781 142.597 92.4547 140.909C93.9313 139.22 95.9613 138.231 98.1049 138.156Z" fill="#2E322E"/>
<path d="M69.4601 150.12C71.5145 150.54 73.6391 150.09 75.3978 148.863C77.1564 147.636 78.4154 145.724 78.9163 143.52C83.3025 124.145 87.2129 104.179 89.337 89.3831L71.7376 85.7914C69.3928 102.661 66.154 122.187 62.9468 139.649C62.735 140.802 62.7359 141.988 62.9493 143.14C63.1628 144.292 63.5846 145.387 64.1904 146.361C64.7962 147.334 65.5738 148.168 66.4784 148.813C67.383 149.458 68.3964 149.902 69.4601 150.12Z" fill="#2E322E"/>
<path d="M73.2085 135.097C74.2687 135.459 75.2494 136.053 76.0905 136.842C76.9315 137.631 77.615 138.599 78.099 139.685C78.583 140.771 78.8572 141.954 78.9049 143.159C78.9525 144.365 78.7726 145.569 78.3761 146.696C72.7228 162.764 64.4925 186.258 60.7767 196.529L47.5596 192.009C51.5553 180.225 58.5123 155.645 63.0137 140.773C63.6835 138.561 65.1292 136.725 67.0376 135.662C68.9459 134.6 71.163 134.396 73.2085 135.097Z" fill="#2E322E"/>
<path d="M97.4544 111.435L81.9707 111.214L86.3908 94.2549L93.7359 92.8516L97.4544 111.435Z" fill="#2E322E"/>
<path d="M87.7379 103.567L87.6968 103.182L91.718 102.676L90.1931 92.0448L90.5455 91.9853L92.1272 103.014L87.7379 103.567Z" fill="#365B2F"/>
<path d="M106.393 108.466L104.311 106.591L103.16 91.3966L103.516 91.3649L104.654 106.397L106.621 108.168L106.393 108.466Z" fill="#365B2F"/>
<path d="M68.2577 109.588L68.1382 109.223L70.942 108.139L73.97 92.4803L74.3189 92.5599L71.2498 108.431L68.2577 109.588Z" fill="#365B2F"/>
<path d="M105.109 200.594L105.415 195.75L91.6936 195.658L91.2588 201.079L105.109 200.594Z" fill="#365B2F"/>
<path d="M62.7008 191.083L60.7765 196.53L47.5596 192.009L49.5344 186.554L62.7008 191.083Z" fill="#365B2F"/>
<path d="M99.9231 205.536L114.094 208.095C114.539 208.175 114.945 208.421 115.242 208.789C115.54 209.158 115.71 209.627 115.725 210.117C115.742 210.679 115.552 211.225 115.198 211.635C114.844 212.045 114.354 212.286 113.837 212.304L93.8174 213.006L94.0066 205.82L99.9231 205.536Z" fill="#365B2F"/>
<path d="M55.5241 196.893L66.2934 207.215C66.6318 207.54 66.8562 207.981 66.9284 208.465C67.0006 208.949 66.9162 209.445 66.6895 209.869C66.4294 210.355 66.0021 210.709 65.5017 210.853C65.0012 210.997 64.4685 210.92 64.0208 210.637L46.7002 199.716L50.3674 193.73L55.5241 196.893Z" fill="#365B2F"/>
<path d="M148.329 80.1178C148.4 78.4112 145.632 77.4143 143.233 76.822C144.26 75.8873 145.05 74.7031 144.784 74.0979C144.402 73.2286 141.986 73.8844 140.438 74.6858C140.162 74.8278 139.898 74.993 139.646 75.1799C138.857 75.163 138.083 75.4232 137.441 75.9218C136.798 76.4205 136.321 77.1309 136.08 77.9475C135.84 78.7641 135.848 79.6433 136.104 80.4543C136.36 81.2654 136.851 81.965 137.503 82.4492C138.292 83.2457 139.276 83.7772 140.337 83.9797C142.865 84.4962 148.166 83.9934 148.329 80.1178Z" fill="#FB855F"/>
<path d="M139.796 75.0577L138.544 83.5272L134.995 83.5319L106.096 83.5601C105.745 83.5548 105.394 83.5202 105.048 83.4566C103.286 83.1432 101.697 82.122 100.597 80.5956C99.4974 79.0692 98.9664 77.1495 99.11 75.2177C99.2535 73.2859 100.061 71.4834 101.372 70.1682C102.683 68.853 104.402 68.1215 106.187 68.1188C106.569 68.1191 106.95 68.1522 107.327 68.2176L109.667 68.7115L110.265 68.8386L111.665 69.1303L136.395 74.3434L139.796 75.0577Z" fill="#365B2F"/>
<path d="M106.061 83.3242L106.018 83.3335C105.697 83.4017 105.373 83.4425 105.047 83.4555C103.618 83.5245 102.206 83.0906 101.023 82.2182C99.8388 81.3459 98.9462 80.0818 98.4776 78.6142L90.3311 53.1844C89.9492 51.9916 89.7979 50.7262 89.8864 49.4671C89.9749 48.2079 90.3013 46.9821 90.8455 45.866C91.3896 44.7499 92.1396 43.7675 93.0489 42.9801C93.9581 42.1926 95.0071 41.617 96.1303 41.2891C97.2535 40.9613 98.4268 40.8882 99.5772 41.0744C100.728 41.2606 101.83 41.7022 102.816 42.3715C103.803 43.0408 104.651 43.9236 105.31 44.9648C105.968 46.006 106.421 47.1832 106.642 48.4231L110.052 67.638L110.264 68.8378L110.542 70.3998L111.335 74.8652C111.668 76.7461 111.3 78.6939 110.311 80.2801C109.322 81.8664 107.793 82.9613 106.061 83.3242Z" fill="#365B2F"/>
<path d="M105.984 91.1909C100.186 102.078 85.9945 91.6095 71.0444 91.1909V42.0017C78.264 36.0736 92.1262 36.0124 102.232 42.0017L105.984 91.1909Z" fill="#365B2F"/>
<path d="M81.8303 20.8789C81.8729 20.5279 81.1289 20.132 80.1685 19.9946C79.2082 19.8572 78.3951 20.0303 78.3525 20.3813C78.3099 20.7322 79.0539 21.1281 80.0143 21.2655C80.9746 21.403 81.7877 21.2299 81.8303 20.8789Z" fill="#8E3332"/>
<path d="M80.6377 22.4397C80.8498 22.3644 80.7776 21.493 80.4765 20.4934C80.1753 19.4938 79.7593 18.7446 79.5472 18.8199C79.335 18.8952 79.4072 19.7666 79.7083 20.7662C80.0095 21.7658 80.4255 22.515 80.6377 22.4397Z" fill="#8E3332"/>
<path d="M91.7495 39.3004C91.6182 41.6751 90.8826 44.4062 88.1701 44.2635C83.415 44.014 82.2656 38.5874 82.2656 38.5874C82.2656 38.5874 82.6532 30.8219 82.7648 30.7435H91.5985V35.9132C91.7544 37.0338 91.805 38.1687 91.7495 39.3004Z" fill="#FB855F"/>
<path d="M91.7499 39.3004C84.9128 37.7601 83.9404 33.8453 83.9404 33.8453L90.8104 30.7435H91.5985V35.9132C91.7545 37.0338 91.8052 38.1687 91.7499 39.3004Z" fill="#E56542"/>
<path d="M81.4688 27.9295C81.4688 27.9295 83.5194 38.8077 91.1622 36.5805C92.0309 36.3298 92.8229 35.8338 93.4575 35.1427C94.0254 34.5238 94.4371 33.7568 94.6531 32.9153C95.4223 29.8987 95.2852 24.9736 94.458 18.5414L81.4688 19.7409V27.9295Z" fill="#FB855F"/>
<path d="M84.5352 24.0121C90.6072 25.1681 95.6058 23.525 96.9143 19.5509C97.0336 19.1847 97.069 18.7925 97.0177 18.4081C96.9664 18.0237 96.8298 17.6586 96.6196 17.3443C96.4095 17.03 96.1321 16.7758 95.8114 16.6037C95.4907 16.4316 95.1363 16.3467 94.7786 16.3563C91.988 16.4379 87.2582 17.5393 82.6508 18.4264C82.3071 18.4917 81.9732 18.6074 81.6583 18.7705C78.9659 20.1735 78.2089 22.8453 78.8198 26.4123C79.8533 31.7132 81.4444 32.6662 83.1599 32.6468C83.0523 29.4856 85.2762 26.9958 84.5352 24.0121Z" fill="#8E3332"/>
<path d="M82.3709 32.2028C83.493 32.2028 84.4025 30.9313 84.4025 29.3629C84.4025 27.7945 83.493 26.5231 82.3709 26.5231C81.2489 26.5231 80.3394 27.7945 80.3394 29.3629C80.3394 30.9313 81.2489 32.2028 82.3709 32.2028Z" fill="#FB855F"/>
<path d="M80.9838 28.9246C80.9557 28.9398 82.4127 27.2526 83.5078 29.1475C83.508 29.1475 81.9166 28.4044 80.9838 28.9246Z" fill="#E56542"/>
<path d="M80.2207 57.1937L66.0766 68.6783L65.4266 69.2052L64.7636 69.7463L60.3566 73.322C59.6574 73.8902 58.8618 74.3033 58.0155 74.5375C57.1692 74.7718 56.2886 74.8226 55.4241 74.6872C54.5597 74.5517 53.7283 74.2326 52.9775 73.7481C52.2267 73.2636 51.5712 72.6232 51.0484 71.8635L51.0225 71.8258C50.0657 70.4354 49.6018 68.7175 49.7156 66.9863C49.8294 65.2551 50.5133 63.6262 51.6422 62.3973L69.1573 43.3425C69.9788 42.4487 70.9611 41.7483 72.043 41.285C73.1249 40.8216 74.2831 40.6053 75.4453 40.6495C76.6076 40.6937 77.749 40.9974 78.7984 41.5417C79.8478 42.086 80.7826 42.8593 81.5446 43.8133C82.3065 44.7672 82.8792 45.8814 83.227 47.0863C83.5748 48.2913 83.6901 49.5611 83.5659 50.8165C83.4417 52.072 83.0805 53.2862 82.5049 54.3834C81.9293 55.4806 81.1517 56.4373 80.2205 57.1937H80.2207Z" fill="#365B2F"/>
<path d="M79.4032 106.6C80.692 105.62 79.7296 102.63 78.6975 100.206C80.006 100.518 81.3522 100.475 81.6315 99.8771C82.0331 99.0178 80.079 97.3404 78.5495 96.4977C78.2781 96.3477 77.9963 96.2211 77.7067 96.1189C77.237 95.4296 76.575 94.9233 75.8191 94.6751C75.0632 94.427 74.2537 94.4503 73.511 94.7417C72.7682 95.033 72.1319 95.5767 71.6966 96.2921C71.2612 97.0075 71.0501 97.8563 71.0946 98.7123C70.9952 99.877 71.2083 101.048 71.7083 102.084C72.874 104.574 76.4759 108.825 79.4032 106.6Z" fill="#FB855F"/>
<path d="M77.8852 96.1734L70.9431 100.266L68.6637 97.0577L51.1137 72.3809C50.3248 71.2329 49.8453 69.8696 49.7286 68.443C49.6119 67.0164 49.8626 65.5826 50.4527 64.3017C51.0428 63.0208 51.9491 61.9431 53.0706 61.1889C54.192 60.4347 55.4843 60.0337 56.8035 60.0305C58.0845 60.0296 59.3419 60.4047 60.4426 61.1161C61.5433 61.8275 62.4464 62.8487 63.0564 64.0718L65.1967 68.7064L65.4263 69.2051L65.8293 70.0801L75.9954 92.0801L77.8852 96.1734Z" fill="#365B2F"/>
<path d="M87.9661 44.298C82.7774 44.298 81.6123 37.8709 81.6011 37.8055L81.9522 37.7343C81.9632 37.7971 83.0864 44.0067 88.0885 43.9105C89.1024 43.8901 91.4916 43.2866 91.7763 38.1385L92.132 38.1617C92.0717 39.2553 91.8611 40.8329 91.2017 42.1381C90.4916 43.5437 89.4459 44.2702 88.0951 44.2975C88.0515 44.2977 88.0086 44.298 87.9661 44.298Z" fill="#365B2F"/>
<path d="M88.1883 44.1214L87.832 44.1349L89.4579 94.5219L89.8142 94.5084L88.1883 44.1214Z" fill="#365B2F"/>
<path d="M89.8587 50.6905C90.1345 50.6905 90.358 50.4478 90.358 50.1484C90.358 49.849 90.1345 49.6063 89.8587 49.6063C89.5829 49.6063 89.3594 49.849 89.3594 50.1484C89.3594 50.4478 89.5829 50.6905 89.8587 50.6905Z" fill="black"/>
<path d="M90.2386 58.5118C90.5144 58.5118 90.7379 58.2691 90.7379 57.9697C90.7379 57.6703 90.5144 57.4276 90.2386 57.4276C89.9628 57.4276 89.7393 57.6703 89.7393 57.9697C89.7393 58.2691 89.9628 58.5118 90.2386 58.5118Z" fill="black"/>
<path d="M90.6185 66.3339C90.8942 66.3339 91.1178 66.0912 91.1178 65.7918C91.1178 65.4924 90.8942 65.2496 90.6185 65.2496C90.3427 65.2496 90.1191 65.4924 90.1191 65.7918C90.1191 66.0912 90.3427 66.3339 90.6185 66.3339Z" fill="black"/>
<path d="M90.9984 74.1559C91.2741 74.1559 91.4977 73.9132 91.4977 73.6138C91.4977 73.3144 91.2741 73.0717 90.9984 73.0717C90.7226 73.0717 90.499 73.3144 90.499 73.6138C90.499 73.9132 90.7226 74.1559 90.9984 74.1559Z" fill="black"/>
<path d="M91.3782 81.978C91.654 81.978 91.8776 81.7353 91.8776 81.4359C91.8776 81.1365 91.654 80.8937 91.3782 80.8937C91.1025 80.8937 90.8789 81.1365 90.8789 81.4359C90.8789 81.7353 91.1025 81.978 91.3782 81.978Z" fill="black"/>
<path d="M91.7581 89.7993C92.0339 89.7993 92.2574 89.5566 92.2574 89.2572C92.2574 88.9577 92.0339 88.715 91.7581 88.715C91.4823 88.715 91.2588 88.9577 91.2588 89.2572C91.2588 89.5566 91.4823 89.7993 91.7581 89.7993Z" fill="#001065"/>
<path d="M139.797 75.0578L138.545 83.5266L134.996 83.5313L136.395 74.3428L139.797 75.0578Z" fill="#365B2F"/>
<path d="M77.8869 96.1733L70.9449 100.266L68.6655 97.0576C70.4854 95.7874 75.6898 92.1787 75.9974 92.08L77.8869 96.1733Z" fill="#365B2F"/>
<path d="M73.4861 61.5096L70.2773 64.9935L70.5294 65.2672L73.7382 61.7833L73.4861 61.5096Z" fill="#365B2F"/>
<path d="M65.5901 68.4208H62.3813V68.8078H65.5901V68.4208Z" fill="#365B2F"/>
<path d="M151.014 70.3992L149.008 68.7847L147.218 71.4058L149.224 73.0203L151.014 70.3992Z" fill="#6B2ECA"/>
<path d="M165.421 59.5025C164.937 57.4384 163.9 55.5764 162.442 54.1522C160.983 52.7279 159.168 51.8052 157.226 51.5009C155.285 51.1965 153.303 51.5241 151.533 52.4422C149.763 53.3603 148.283 54.8277 147.281 56.6589C146.279 58.4901 145.8 60.6027 145.904 62.7298C146.007 64.8568 146.69 66.9026 147.864 68.6086C149.039 70.3145 150.653 71.604 152.503 72.3139C154.353 73.0238 156.355 73.1223 158.256 72.5969C159.518 72.2479 160.705 71.6325 161.748 70.7856C162.792 69.9387 163.671 68.8769 164.336 67.661C165.002 66.4451 165.44 65.0988 165.626 63.6989C165.812 62.2991 165.743 60.8731 165.421 59.5025ZM157.64 69.9695C156.218 70.363 154.719 70.2897 153.335 69.7588C151.951 69.2279 150.743 68.2633 149.864 66.9869C148.984 65.7105 148.474 64.1797 148.396 62.5881C148.318 60.9964 148.676 59.4155 149.426 58.0451C150.176 56.6747 151.283 55.5765 152.607 54.8893C153.932 54.2022 155.415 53.9569 156.868 54.1845C158.32 54.4122 159.679 55.1025 160.77 56.1682C161.862 57.234 162.638 58.6272 163 60.1718C163.486 62.2428 163.194 64.4385 162.189 66.276C161.184 68.1135 159.548 69.4422 157.64 69.9699L157.64 69.9695Z" fill="#365B2F"/>
<path d="M149.896 71.5562L148.346 70.3091C147.985 70.0187 147.476 70.1009 147.209 70.4925L139.562 81.6928C139.294 82.0845 139.37 82.6374 139.731 82.9277L141.28 84.1749C141.641 84.4652 142.15 84.3831 142.418 83.9914L150.065 72.7912C150.332 72.3995 150.256 71.8466 149.896 71.5562Z" fill="#494E6D"/>
<g opacity="0.33">
<g opacity="0.33">
<g opacity="0.33">
<path opacity="0.33" d="M166.784 67.3611L166.755 64.3677L146.212 64.6009L146.241 67.5943L166.784 67.3611Z" fill="white"/>
<path opacity="0.33" d="M166.142 62.0991L166.139 61.7399L145.596 61.9731L145.599 62.3323L166.142 62.0991Z" fill="white"/>
</g>
</g>
</g>
<path d="M110.388 68.4778L107.179 71.9617L107.431 72.2353L110.64 68.7515L110.388 68.4778Z" fill="#365B2F"/>
<path d="M72.1671 82.4634L71.8481 82.6365L73.4526 86.1205L73.7715 85.9473L72.1671 82.4634Z" fill="#365B2F"/>
<path d="M105.879 78.6792H105.522V83.9051H105.879V78.6792Z" fill="#365B2F"/>
<path d="M228.796 213.197H18.6171C18.1741 213.197 17.8149 213.587 17.8149 214.068V214.068C17.8149 214.549 18.1741 214.939 18.6171 214.939H228.796C229.239 214.939 229.598 214.549 229.598 214.068V214.068C229.598 213.587 229.239 213.197 228.796 213.197Z" fill="#5F6386"/>
</g>
</svg>
