<svg width="4267" height="2667" viewBox="0 0 4267 2667" fill="none" xmlns="http://www.w3.org/2000/svg">
<path d="M389.74 2407.91C389.74 2407.91 124.386 2200.68 309.414 1705.31C418.497 1413.28 786.473 1458.12 767.854 933.592C749.24 409.072 1088.41 180.422 1696.43 418.494C1850.47 478.806 2031.51 422.146 2225.16 365.484C2583.12 260.742 2984.11 155.993 3337.09 790.157C3546.87 1167.05 3914 1118.22 4011.74 1807.48C4038.44 1995.88 3998.38 2193.12 3800.42 2407.91H389.74" fill="#EBF3FA"/>
<path d="M2153.58 935.381C2158.33 939.117 2162.94 943.431 2167.28 948.394C2175.56 957.868 2183.17 975.956 2184 988.518C2184.1 989.872 2184.16 991.197 2184.22 992.522C2186.77 1073.49 2092.55 1111.75 2037.82 1050.48C2030.68 1042.46 2024.15 1028.53 2021.52 1016.49C2020.94 1013.68 2020.52 1010.99 2020.39 1008.57C2019.7 997.132 2020.88 986.53 2023.66 976.859C2039.51 921.733 2105.81 898.316 2153.58 935.381V935.381ZM1992.24 1157.87L2023.99 1134.34C2026.65 1132.41 2030.17 1132.13 2033.09 1133.62C2036.83 1135.54 2040.68 1137.3 2044.63 1138.92C2051.96 1141.95 2059.34 1144.38 2066.77 1146.14C2070.26 1146.97 2072.88 1149.78 2073.4 1153.29L2079.66 1194.1C2080.29 1198.47 2084.21 1201.62 2088.67 1201.32L2126.34 1198.83C2130.61 1198.54 2133.94 1195.1 2134.15 1190.86L2135.76 1152.86C2135.83 1149.17 2138.41 1145.98 2142.09 1144.98C2157.58 1140.74 2172.39 1134.02 2185.91 1125.08C2189.16 1122.92 2193.58 1123.3 2196.47 1125.94L2213.54 1141.54C2216.81 1144.48 2221.79 1144.57 2225.14 1141.66L2253.2 1116.8C2253.76 1116.29 2254.27 1115.74 2254.68 1115.12C2256.67 1112.2 2256.63 1108.23 2254.43 1105.32L2236.87 1081.58L2232.59 1075.82C2236.14 1069.77 2239.35 1063.35 2242.09 1056.7C2245.78 1047.73 2248.58 1038.57 2250.46 1029.46C2251.2 1025.99 2253.95 1023.3 2257.46 1022.78L2290.33 1017.77C2294.83 1017.05 2298.06 1013.06 2297.72 1008.55L2295.83 979.749L2295.26 971.501C2294.99 966.99 2291.32 963.395 2286.84 963.225L2255.09 961.844C2251.41 961.731 2248.21 959.292 2247.22 955.81C2244.09 945.433 2239.88 935.395 2234.62 925.963C2234.24 925.103 2233.8 924.356 2233.33 923.566C2233.15 923.298 2233.04 923.016 2232.91 922.735C2231.46 919.576 2232.11 915.883 2234.48 913.303L2259.76 885.528C2260.07 885.246 2260.3 884.88 2260.53 884.556C2262.7 881.341 2262.45 876.942 2259.87 873.968L2235.11 845.968C2232.12 842.584 2227.07 842.049 2223.41 844.741L2190.31 869.287C2187.53 871.402 2183.74 871.529 2180.76 869.696C2174.19 865.734 2167.21 862.195 2159.84 859.164C2155.93 857.557 2152 856.119 2148.04 854.864C2144.84 853.821 2142.46 851.072 2141.96 847.744L2135.93 808.522C2135.29 804.208 2131.4 801.064 2126.99 801.346L2089.74 803.856C2085.23 804.152 2081.65 807.761 2081.45 812.329L2080.17 842.387C2080 846.419 2077.12 849.76 2073.19 850.578C2057.74 853.581 2042.88 859.009 2029.07 866.58C2025.85 868.413 2021.76 867.948 2018.98 865.396L1993.96 842.598C1990.61 839.539 1985.48 839.525 1982.06 842.5L1954.16 867.144C1950.8 870.091 1950.29 875.166 1952.94 878.677L1953.96 880.072L1974.36 907.635C1976.54 910.582 1976.64 914.501 1974.67 917.603V917.645C1969.93 925.075 1965.77 933.012 1962.29 941.457C1960.43 945.969 1958.85 950.48 1957.43 955.076C1956.48 958.277 1953.79 960.617 1950.5 961.125L1917.13 966.214C1912.55 966.905 1909.28 971.008 1909.59 975.562L1912.07 1012.67C1912.14 1013.73 1912.44 1014.74 1912.8 1015.63C1914.13 1018.56 1917.05 1020.65 1920.38 1020.8L1945.74 1021.83C1948.85 1021.99 1951.65 1023.79 1953.06 1026.47C1953.42 1027.19 1953.7 1027.95 1953.89 1028.77C1957.85 1048.59 1965.73 1067.37 1977.07 1084.11C1979.04 1086.93 1979 1090.63 1977.21 1093.5C1976.95 1093.9 1976.64 1094.29 1976.32 1094.67L1955.82 1117.14C1952.84 1120.38 1952.8 1125.36 1955.72 1128.7L1956.28 1129.36L1980.38 1156.67C1983.45 1160.08 1988.56 1160.59 1992.24 1157.87" fill="#DFEBFD"/>
<path d="M2395.24 611.828C2398.54 615.266 2401.63 619.118 2404.47 623.461C2409.84 631.718 2413.75 646.62 2413.02 656.473C2412.95 657.532 2412.85 658.576 2412.75 659.62C2405.79 722.789 2328.36 742.127 2292.62 688.473C2287.97 681.459 2284.44 669.918 2283.71 660.264C2283.56 658.023 2283.53 655.89 2283.71 653.987C2284.44 645.024 2286.52 636.921 2289.75 629.708C2308.13 588.653 2362.23 577.772 2395.24 611.828ZM2245.35 766.882L2272.62 752.102C2274.89 750.89 2277.65 751.059 2279.77 752.548C2282.46 754.435 2285.25 756.246 2288.13 757.934C2293.49 761.096 2298.97 763.797 2304.56 765.992C2307.18 767.02 2308.9 769.476 2308.9 772.269L2309.27 804.667C2309.27 808.136 2311.97 811.021 2315.47 811.266L2345.01 813.492C2348.36 813.737 2351.32 811.435 2351.96 808.166L2357.4 778.822C2357.87 775.968 2360.22 773.773 2363.18 773.405C2375.69 771.809 2387.94 768.217 2399.43 762.769C2402.2 761.464 2405.59 762.232 2407.54 764.595L2419.06 778.607C2421.29 781.247 2425.15 781.876 2428.09 779.989L2452.61 763.766C2453.12 763.429 2453.58 763.076 2453.95 762.631C2455.82 760.59 2456.23 757.49 2454.84 754.988L2443.83 734.607L2441.12 729.649C2444.57 725.352 2447.76 720.717 2450.63 715.852C2454.48 709.284 2457.66 702.485 2460.13 695.609C2461.08 693 2463.51 691.204 2466.3 691.204L2492.41 690.928C2495.97 690.882 2498.91 688.135 2499.16 684.59L2500.86 661.998L2501.34 655.537C2501.62 652.007 2499.18 648.8 2495.69 648.17L2471.18 643.597C2468.34 643.106 2466.12 640.865 2465.75 638.041C2464.46 629.631 2462.28 621.374 2459.26 613.455C2459.04 612.749 2458.78 612.12 2458.5 611.46C2458.4 611.229 2458.34 610.999 2458.27 610.769C2457.51 608.16 2458.4 605.351 2460.52 603.617L2483.24 584.832C2483.51 584.632 2483.74 584.387 2483.95 584.157C2485.99 581.901 2486.28 578.463 2484.6 575.854L2468.45 551.375C2466.52 548.413 2462.65 547.446 2459.5 549.119L2431.08 564.543C2428.68 565.878 2425.74 565.556 2423.62 563.806C2418.95 560 2413.92 556.485 2408.52 553.309C2405.66 551.636 2402.76 550.086 2399.83 548.674C2397.45 547.507 2395.92 545.113 2395.9 542.473L2395.55 511.334C2395.52 507.911 2392.85 505.041 2389.4 504.78L2360.17 502.616C2356.64 502.34 2353.45 504.75 2352.79 508.28L2348.48 531.485C2347.9 534.6 2345.3 536.887 2342.16 537.071C2329.83 537.716 2317.66 540.294 2306.12 544.637C2303.42 545.712 2300.29 544.898 2298.4 542.611L2281.49 522.138C2279.22 519.391 2275.24 518.823 2272.25 520.757L2247.86 536.81C2244.92 538.729 2243.96 542.611 2245.64 545.635L2246.27 546.832L2259.08 570.498C2260.46 573.03 2260.11 576.084 2258.22 578.279V578.309C2253.71 583.558 2249.61 589.267 2245.97 595.437C2244.03 598.737 2242.31 602.082 2240.7 605.489C2239.61 607.868 2237.26 609.388 2234.65 609.418L2208.14 609.695C2204.52 609.725 2201.53 612.549 2201.27 616.125L2199.09 645.224C2199.04 646.053 2199.15 646.866 2199.35 647.603C2200.04 650.027 2202.08 651.961 2204.66 652.468L2224.24 656.059C2226.64 656.519 2228.62 658.238 2229.42 660.479C2229.61 661.062 2229.77 661.691 2229.8 662.351C2230.69 678.174 2234.76 693.645 2241.71 707.902C2242.92 710.296 2242.48 713.182 2240.79 715.208C2240.54 715.484 2240.25 715.76 2239.96 716.006L2221.56 731.2C2218.9 733.41 2218.3 737.262 2220.21 740.178L2220.57 740.761L2236.28 764.626C2238.29 767.619 2242.18 768.586 2245.35 766.882" fill="#DFEBFD"/>
<path d="M3652.08 1787.24C3656.14 1791.47 3659.97 1796.24 3663.45 1801.6C3670.09 1811.8 3674.92 1830.2 3674.01 1842.36C3673.94 1843.66 3673.8 1844.95 3673.69 1846.24C3665.1 1924.25 3569.49 1948.11 3525.37 1881.87C3519.61 1873.2 3515.25 1858.96 3514.34 1847.04C3514.18 1844.28 3514.13 1841.64 3514.34 1839.29C3515.25 1828.22 3517.82 1818.23 3521.82 1809.32C3544.52 1758.61 3611.32 1745.17 3652.08 1787.24V1787.24ZM3467.01 1978.67L3500.65 1960.43C3503.48 1958.93 3506.89 1959.14 3509.49 1960.97C3512.81 1963.32 3516.27 1965.55 3519.82 1967.64C3526.43 1971.53 3533.21 1974.88 3540.11 1977.57C3543.33 1978.84 3545.47 1981.89 3545.47 1985.33L3545.91 2025.34C3545.93 2029.61 3549.25 2033.17 3553.57 2033.49L3590.06 2036.24C3594.19 2036.55 3597.85 2033.71 3598.62 2029.65L3605.35 1993.44C3605.93 1989.89 3608.83 1987.2 3612.5 1986.73C3627.94 1984.77 3643.05 1980.33 3657.23 1973.61C3660.66 1971.98 3664.84 1972.95 3667.23 1975.87L3681.51 1993.16C3684.22 1996.43 3689 1997.2 3692.63 1994.87L3722.92 1974.84C3723.54 1974.43 3724.1 1973.97 3724.56 1973.43C3726.86 1970.91 3727.37 1967.09 3725.65 1964L3712.05 1938.84L3708.73 1932.72C3712.96 1927.4 3716.9 1921.68 3720.43 1915.67C3725.21 1907.57 3729.14 1899.17 3732.2 1890.69C3733.36 1887.45 3736.36 1885.24 3739.81 1885.24L3772.03 1884.91C3776.44 1884.84 3780.08 1881.45 3780.39 1877.07L3782.48 1849.18L3783.08 1841.2C3783.4 1836.84 3780.41 1832.88 3776.12 1832.11L3745.85 1826.47C3742.32 1825.85 3739.58 1823.08 3739.12 1819.6C3737.52 1809.21 3734.85 1799.01 3731.09 1789.25C3730.85 1788.37 3730.53 1787.6 3730.18 1786.77C3730.06 1786.49 3729.97 1786.21 3729.9 1785.93C3728.95 1782.69 3730.06 1779.24 3732.69 1777.09L3760.73 1753.89C3761.05 1753.65 3761.33 1753.35 3761.61 1753.05C3764.12 1750.27 3764.49 1746.03 3762.4 1742.81L3742.46 1712.58C3740.07 1708.93 3735.29 1707.73 3731.41 1709.81L3696.32 1728.85C3693.37 1730.51 3689.72 1730.1 3687.1 1727.95C3681.34 1723.24 3675.12 1718.91 3668.46 1714.98C3664.93 1712.91 3661.36 1711 3657.74 1709.25C3654.81 1707.81 3652.91 1704.86 3652.89 1701.6L3652.45 1663.15C3652.42 1658.92 3649.1 1655.37 3644.83 1655.05L3608.76 1652.38C3604.4 1652.04 3600.48 1655.01 3599.67 1659.39L3594.33 1688.04C3593.61 1691.88 3590.43 1694.69 3586.53 1694.93C3571.3 1695.72 3556.28 1698.91 3542.03 1704.28C3538.69 1705.6 3534.81 1704.59 3532.52 1701.77L3511.63 1676.49C3508.79 1673.09 3503.9 1672.39 3500.21 1674.77L3470.08 1694.61C3466.46 1696.98 3465.27 1701.77 3467.34 1705.51L3468.13 1706.99L3483.96 1736.2C3485.65 1739.33 3485.21 1743.11 3482.89 1745.81L3482.87 1745.85C3477.32 1752.32 3472.26 1759.37 3467.76 1767C3465.37 1771.07 3463.23 1775.2 3461.23 1779.4C3459.89 1782.35 3457.01 1784.23 3453.78 1784.27L3421.06 1784.6C3416.6 1784.63 3412.89 1788.12 3412.56 1792.53L3409.89 1828.47C3409.82 1829.49 3409.96 1830.49 3410.19 1831.41C3411.05 1834.39 3413.56 1836.79 3416.76 1837.4L3440.95 1841.84C3443.9 1842.43 3446.33 1844.53 3447.33 1847.29C3447.59 1848.03 3447.73 1848.8 3447.79 1849.61C3448.89 1869.16 3453.9 1888.24 3462.49 1905.85C3464 1908.81 3463.46 1912.37 3461.35 1914.86C3461.05 1915.23 3460.7 1915.56 3460.33 1915.87L3437.61 1934.64C3434.33 1937.34 3433.61 1942.11 3435.93 1945.72L3436.4 1946.42L3455.78 1975.91C3458.26 1979.6 3463.09 1980.79 3467.01 1978.67" fill="#DFEBFD"/>
<path d="M3765.11 1527.43C3767.27 1529.68 3769.32 1532.24 3771.2 1535.11C3774.75 1540.56 3777.32 1550.4 3776.85 1556.92C3776.8 1557.61 3776.73 1558.29 3776.66 1558.99C3772.07 1600.72 3720.92 1613.5 3697.32 1578.06C3694.24 1573.42 3691.91 1565.79 3691.41 1559.41C3691.34 1557.93 3691.32 1556.52 3691.41 1555.27C3691.91 1549.35 3693.29 1544 3695.41 1539.24C3707.58 1512.11 3743.3 1504.92 3765.11 1527.43ZM3666.09 1629.84L3684.09 1620.08C3685.6 1619.28 3687.44 1619.4 3688.82 1620.38C3690.61 1621.63 3692.45 1622.81 3694.35 1623.93C3697.91 1626.01 3701.51 1627.81 3705.2 1629.25C3706.92 1629.93 3708.07 1631.56 3708.07 1633.4L3708.31 1654.8C3708.31 1657.09 3710.1 1659 3712.4 1659.16L3731.93 1660.64C3734.14 1660.8 3736.1 1659.28 3736.52 1657.11L3740.12 1637.73C3740.43 1635.84 3741.98 1634.4 3743.93 1634.15C3752.19 1633.11 3760.28 1630.73 3767.88 1627.13C3769.7 1626.27 3771.93 1626.78 3773.23 1628.33L3780.85 1637.59C3782.31 1639.33 3784.87 1639.75 3786.8 1638.49L3803.01 1627.79C3803.34 1627.56 3803.63 1627.33 3803.89 1627.03C3805.11 1625.68 3805.39 1623.64 3804.47 1621.99L3797.2 1608.52L3795.41 1605.26C3797.7 1602.42 3799.79 1599.35 3801.7 1596.14C3804.24 1591.8 3806.33 1587.31 3807.98 1582.78C3808.59 1581.04 3810.19 1579.86 3812.05 1579.86L3829.3 1579.68C3831.63 1579.64 3833.6 1577.83 3833.74 1575.48L3834.87 1560.56L3835.18 1556.29C3835.37 1553.96 3833.74 1551.84 3831.46 1551.43L3815.27 1548.41C3813.39 1548.08 3811.93 1546.6 3811.67 1544.73C3810.83 1539.17 3809.39 1533.72 3807.39 1528.49C3807.25 1528.03 3807.09 1527.61 3806.9 1527.17C3806.83 1527.03 3806.78 1526.88 3806.73 1526.72C3806.24 1524.99 3806.83 1523.15 3808.24 1522L3823.23 1509.59C3823.41 1509.45 3823.56 1509.29 3823.7 1509.14C3825.04 1507.64 3825.23 1505.38 3824.12 1503.65L3813.49 1487.48C3812.19 1485.54 3809.63 1484.9 3807.56 1486L3788.78 1496.19C3787.2 1497.07 3785.25 1496.86 3783.84 1495.7C3780.78 1493.19 3777.44 1490.87 3773.88 1488.78C3772 1487.66 3770.07 1486.64 3768.14 1485.71C3766.57 1484.94 3765.55 1483.35 3765.53 1481.62L3765.3 1461.04C3765.3 1458.78 3763.53 1456.88 3761.25 1456.71L3741.93 1455.28C3739.6 1455.1 3737.51 1456.68 3737.06 1459.02L3734.21 1474.35C3733.84 1476.42 3732.12 1477.92 3730.05 1478.04C3721.88 1478.46 3713.86 1480.16 3706.24 1483.04C3704.45 1483.75 3702.38 1483.2 3701.13 1481.7L3689.95 1468.18C3688.47 1466.36 3685.84 1465.98 3683.86 1467.26L3667.74 1477.87C3665.81 1479.14 3665.18 1481.7 3666.28 1483.7L3666.71 1484.5L3675.15 1500.12C3676.07 1501.79 3675.84 1503.81 3674.59 1505.25V1505.28C3671.62 1508.75 3668.89 1512.51 3666.49 1516.6C3665.22 1518.77 3664.07 1520.97 3663.01 1523.23C3662.31 1524.8 3660.75 1525.81 3659.01 1525.83L3641.51 1526.01C3639.13 1526.03 3637.15 1527.89 3636.96 1530.25L3635.55 1549.48C3635.51 1550.03 3635.58 1550.56 3635.69 1551.05C3636.16 1552.65 3637.51 1553.93 3639.2 1554.25L3652.16 1556.64C3653.72 1556.95 3655.04 1558.08 3655.58 1559.55C3655.69 1559.95 3655.79 1560.36 3655.81 1560.79C3656.4 1571.26 3659.08 1581.46 3663.69 1590.88C3664.49 1592.47 3664.19 1594.38 3663.08 1595.71C3662.92 1595.9 3662.73 1596.07 3662.52 1596.24L3650.38 1606.28C3648.61 1607.74 3648.21 1610.28 3649.48 1612.2L3649.72 1612.59L3660.09 1628.36C3661.41 1630.33 3664 1630.96 3666.09 1629.84" fill="#AEC3FF"/>
<path d="M777.559 1521.2C779.937 1523.68 782.184 1526.48 784.232 1529.61C788.129 1535.61 790.961 1546.4 790.431 1553.53C790.379 1554.29 790.305 1555.05 790.232 1555.8C785.196 1601.56 729.12 1615.56 703.228 1576.71C699.852 1571.63 697.292 1563.27 696.771 1556.28C696.672 1554.65 696.645 1553.11 696.773 1551.73C697.293 1545.24 698.813 1539.37 701.147 1534.15C714.468 1504.41 753.641 1496.53 777.559 1521.2V1521.2ZM668.996 1633.49L688.737 1622.79C690.389 1621.92 692.391 1622.04 693.921 1623.11C695.871 1624.48 697.889 1625.79 699.98 1627.01C703.867 1629.31 707.829 1631.27 711.872 1632.85C713.765 1633.59 715.016 1635.39 715.021 1637.4L715.287 1660.87C715.291 1663.37 717.247 1665.45 719.781 1665.64L741.176 1667.25C743.601 1667.44 745.747 1665.77 746.205 1663.4L750.148 1642.15C750.488 1640.08 752.189 1638.49 754.337 1638.21C763.4 1637.07 772.265 1634.47 780.584 1630.52C782.593 1629.57 785.048 1630.13 786.457 1631.84L794.815 1641.99C796.42 1643.91 799.223 1644.36 801.336 1642.99L819.107 1631.24C819.473 1631 819.8 1630.73 820.075 1630.41C821.427 1628.93 821.723 1626.69 820.716 1624.88L812.74 1610.12L810.788 1606.53C813.275 1603.41 815.589 1600.07 817.664 1596.53C820.46 1591.79 822.763 1586.85 824.552 1581.88C825.241 1579.99 826.999 1578.69 829.02 1578.68L847.923 1578.49C850.507 1578.45 852.641 1576.47 852.816 1573.89L854.055 1557.53L854.396 1552.85C854.592 1550.29 852.829 1547.97 850.312 1547.52L832.559 1544.21C830.497 1543.85 828.895 1542.23 828.616 1540.19C827.681 1534.09 826.113 1528.11 823.913 1522.37C823.761 1521.87 823.572 1521.41 823.375 1520.92C823.297 1520.76 823.255 1520.6 823.211 1520.43C822.648 1518.53 823.304 1516.51 824.839 1515.25L841.285 1501.64C841.481 1501.51 841.648 1501.32 841.803 1501.15C843.276 1499.52 843.489 1497.03 842.268 1495.15L830.584 1477.41C829.171 1475.27 826.375 1474.56 824.095 1475.77L803.509 1486.95C801.773 1487.92 799.637 1487.68 798.109 1486.41C794.728 1483.67 791.08 1481.12 787.173 1478.81C785.104 1477.6 783.005 1476.48 780.879 1475.45C779.157 1474.61 778.045 1472.88 778.033 1470.96L777.772 1448.41C777.753 1445.93 775.82 1443.85 773.319 1443.67L752.152 1442.09C749.596 1441.89 747.291 1443.64 746.808 1446.2L743.684 1463.01C743.267 1465.27 741.387 1466.92 739.113 1467.05C730.176 1467.51 721.372 1469.39 713.008 1472.53C711.044 1473.31 708.777 1472.72 707.419 1471.07L695.164 1456.24C693.521 1454.25 690.639 1453.83 688.479 1455.23L670.804 1466.87C668.677 1468.25 667.992 1471.07 669.204 1473.25L669.661 1474.12L678.936 1491.27C679.931 1493.09 679.68 1495.31 678.32 1496.89L678.307 1496.92C675.051 1500.72 672.077 1504.85 669.443 1509.33C668.039 1511.72 666.787 1514.13 665.619 1516.6C664.832 1518.33 663.131 1519.43 661.24 1519.45L642.051 1519.65C639.424 1519.67 637.253 1521.72 637.065 1524.31L635.495 1545.39C635.453 1545.99 635.535 1546.57 635.673 1547.11C636.18 1548.85 637.655 1550.27 639.52 1550.63L653.707 1553.23C655.441 1553.57 656.872 1554.81 657.453 1556.43C657.6 1556.85 657.7 1557.31 657.733 1557.79C658.379 1569.25 661.316 1580.45 666.355 1590.77C667.235 1592.52 666.917 1594.6 665.687 1596.07C665.507 1596.28 665.307 1596.47 665.085 1596.65L651.76 1607.65C649.828 1609.25 649.407 1612.04 650.777 1614.16L651.047 1614.57L662.419 1631.87C663.875 1634.03 666.704 1634.73 668.996 1633.49" fill="#DFEBFD"/>
<path d="M2730.36 955.881C2737.78 961.898 2744.95 968.843 2751.68 976.789C2764.48 991.954 2776.02 1020.73 2777.01 1040.59C2777.12 1042.72 2777.2 1044.82 2777.25 1046.92C2779.15 1174.83 2629.37 1232.77 2544.58 1134.57C2533.51 1121.71 2523.58 1099.56 2519.71 1080.47C2518.9 1076.03 2518.3 1071.77 2518.15 1067.93C2517.35 1049.86 2519.53 1033.15 2524.16 1017.95C2550.62 931.345 2655.91 896.101 2730.36 955.881V955.881ZM2469.78 1302.94L2520.51 1266.62C2524.79 1263.64 2530.34 1263.3 2534.93 1265.72C2540.77 1268.84 2546.79 1271.73 2552.98 1274.4C2564.48 1279.36 2576.08 1283.4 2587.78 1286.37C2593.24 1287.77 2597.32 1292.27 2598.03 1297.84L2606.86 1362.45C2607.75 1369.35 2613.85 1374.44 2620.9 1374.07L2680.45 1371.14C2687.2 1370.79 2692.55 1365.45 2692.98 1358.75L2696.54 1298.81C2696.74 1292.98 2700.89 1288.01 2706.71 1286.53C2731.31 1280.23 2754.85 1270 2776.42 1256.25C2781.64 1252.94 2788.6 1253.64 2793.08 1257.87L2819.62 1282.97C2824.7 1287.68 2832.61 1287.97 2837.94 1283.46L2882.88 1244.94C2883.83 1244.16 2884.62 1243.32 2885.28 1242.33C2888.49 1237.79 2888.52 1231.51 2885.13 1226.85L2858.05 1188.92L2851.43 1179.68C2857.22 1170.24 2862.44 1160.19 2866.94 1149.75C2873.02 1135.69 2877.64 1121.3 2880.87 1106.97C2882.12 1101.5 2886.51 1097.32 2892.1 1096.61L2944.13 1089.56C2951.24 1088.55 2956.45 1082.34 2956.05 1075.2L2953.8 1029.67L2953.15 1016.63C2952.8 1009.51 2947.15 1003.73 2940.04 1003.34L2889.96 1000.34C2884.14 1000.06 2879.17 996.129 2877.7 990.601C2873.02 974.123 2866.63 958.168 2858.58 943.131C2857.98 941.761 2857.31 940.58 2856.6 939.309C2856.33 938.897 2856.15 938.449 2855.97 938.003C2853.77 932.973 2854.88 927.148 2858.67 923.152L2899.33 879.966C2899.82 879.511 2900.21 878.941 2900.59 878.431C2904.07 873.415 2903.81 866.479 2899.79 861.705L2861.46 816.836C2856.82 811.431 2848.88 810.451 2843.02 814.587L2790.11 852.494C2785.65 855.761 2779.68 855.852 2775.02 852.875C2764.75 846.455 2753.82 840.687 2742.24 835.699C2736.13 833.051 2729.96 830.693 2723.74 828.607C2718.7 826.884 2715.04 822.477 2714.35 817.217L2705.84 755.113C2704.95 748.275 2698.89 743.215 2691.91 743.541L2633.02 746.534C2625.91 746.878 2620.16 752.483 2619.71 759.702L2616.89 807.132C2616.51 813.48 2611.91 818.686 2605.68 819.865C2581.2 824.2 2557.57 832.398 2535.6 843.97C2530.45 846.799 2523.99 845.929 2519.68 841.848L2480.79 805.191C2475.56 800.276 2467.48 800.113 2462 804.72L2417.27 842.9C2411.88 847.47 2410.98 855.453 2415.08 861.076L2416.64 863.305L2448.12 907.363C2451.5 912.082 2451.57 918.269 2448.38 923.116L2448.32 923.177C2440.67 934.771 2433.88 947.197 2428.19 960.45C2425.12 967.513 2422.51 974.616 2420.14 981.824C2418.58 986.852 2414.26 990.479 2409.05 991.203L2356.22 998.36C2348.98 999.316 2343.7 1005.71 2344.08 1012.92L2347 1071.58C2347.11 1073.25 2347.53 1074.84 2348.11 1076.27C2350.11 1080.92 2354.66 1084.29 2359.92 1084.63L2399.95 1086.92C2404.85 1087.25 2409.22 1090.18 2411.38 1094.45C2411.92 1095.57 2412.35 1096.8 2412.61 1098.1C2418.34 1129.49 2430.31 1159.34 2447.78 1186.07C2450.79 1190.57 2450.64 1196.43 2447.74 1200.9C2447.32 1201.53 2446.83 1202.14 2446.29 1202.72L2413.35 1237.66C2408.56 1242.72 2408.36 1250.57 2412.88 1255.92L2413.77 1256.97L2451.1 1300.73C2455.85 1306.2 2463.88 1307.14 2469.78 1302.94" fill="#DFEBFD"/>
<path d="M895.083 1195.27C910.963 1114.71 1046.1 1130.08 1046.1 1130.08C1046.1 1130.08 1146.36 1262.09 1172.94 1263.53C1199.53 1264.99 1109.26 1133.93 1109.26 1133.93C1159.97 1125.43 1294.46 1178.91 1294.46 1178.91C1294.46 1178.91 1297.52 1340.88 1323.64 1335.75C1349.76 1330.61 1313.61 1192.45 1313.61 1192.45C1364.07 1203.83 1414.21 1258.24 1414.21 1258.24C1478.43 1348.08 1359.73 1425.91 1359.73 1425.91C1359.73 1425.91 1362.01 1482.01 1401.09 1543.83C1401.09 1543.83 1409.73 1555.15 1419.08 1574.75L1405.6 1575.68C1404.25 1572.15 1402.8 1568.75 1401.21 1565.48L1401.19 1565.43L1401.12 1565.29C1400.05 1563.27 1398.52 1560.4 1396.61 1556.91L1396.6 1556.89L1396.59 1556.88C1391.92 1549.11 1388.72 1543.35 1386.65 1539.19L1386.64 1539.15C1372.55 1514.72 1352.47 1483.01 1340.13 1476.92C1340.13 1476.92 1341.48 1474.72 1342.59 1470.55C1341.81 1472.57 1341 1474.71 1340.13 1476.92C1320.54 1527.95 1205.83 1544.25 1140.67 1535.57C1075.52 1526.89 1102.25 1506.81 1134.78 1474.99C1167.31 1443.16 1240.32 1445.84 1260.92 1432.81C1281.53 1419.79 1249.43 1410.45 1206.83 1416.75C1164.24 1423.03 1145.83 1467.35 1077.12 1478.79C1008.41 1490.21 946.597 1363.79 946.597 1363.79C995.397 1375.27 1079.2 1342.92 1081.34 1326.21C1082.75 1315.21 1028.19 1316.03 985.067 1316.85C962.764 1317.27 943.521 1317.69 936.667 1316.48C916.557 1312.92 879.205 1275.81 895.083 1195.27" fill="#DFEBFD"/>
<path d="M1983.5 1501.71L1912.02 2351.56C1912.02 2351.56 1904.54 2403.08 1942.86 2403.17C2005.86 2403.32 2256.46 2403.17 2256.46 2403.17C2256.46 2403.17 2209.03 2392.45 2209.6 2368.32C2210.29 2339.88 2293.15 1493.67 2293.15 1493.67L1983.5 1501.71Z" fill="#759BE0"/>
<path d="M2276.81 2387.75C2264.4 2387.79 2025.05 2388.53 1963.7 2387.75C1936.97 2387.41 1932.27 2363.97 1932.05 2348.8C1931.94 2341.53 1932.86 2336.15 1932.86 2336.15L1934.72 2314.07L1939.45 2257.76L1943.64 2208.03L1949.02 2144.11L1953.55 2090.16L2004.34 1486.28L2313.99 1478.24C2313.99 1478.24 2279.08 1832.37 2254.41 2090.16C2251.64 2118.88 2249.01 2146.43 2246.6 2172.13C2245.82 2180.33 2245.05 2188.36 2244.33 2196.17C2242.03 2220.56 2239.94 2242.96 2238.13 2262.73C2237.16 2273.16 2236.27 2282.84 2235.47 2291.72C2232.32 2326.48 2230.49 2348.68 2230.46 2352.91C2230.45 2355.36 2230.66 2357.65 2231.06 2359.79C2236.14 2386.87 2272.15 2387.75 2276.81 2387.75" fill="#AEC3FF"/>
<path d="M1231.51 1039.24L1405.62 1738.57L1429.44 1834.34L1510.54 2160.08H3017.02L2718.13 1039.24H1231.51Z" fill="#AEC3FF"/>
<path d="M1231.51 1039.24L1207.38 1047.29L1478.45 2184.4L1510.53 2160.08L1231.51 1039.24Z" fill="#759BE0"/>
<path d="M1478.46 2184.4H2975.67L3017.02 2160.08H1510.54L1478.46 2184.4Z" fill="#759BE0"/>
<path d="M2004.22 2403.49H2328.4V2388.09H2004.22V2403.49Z" fill="#AEC3FF"/>
<path d="M2244.32 2196.17C2244.68 2192.31 2245.05 2188.37 2245.42 2184.4H2245.99L2244.32 2196.17Z" fill="#99B6E8"/>
<path d="M1939.45 2257.76L1943.64 2208.03L1945.62 2184.4H2245.42C2245.05 2188.37 2244.68 2192.31 2244.32 2196.17L1939.45 2257.76Z" fill="#86A7E9"/>
<path d="M2276.81 2387.75C2264.4 2387.79 2025.06 2388.53 1963.7 2387.75C1936.96 2387.41 1932.27 2363.97 1932.06 2348.8L2235.47 2291.72C2232.33 2326.48 2230.49 2348.68 2230.46 2352.91C2230.45 2355.36 2230.65 2357.65 2231.06 2359.79C2236.14 2386.87 2272.15 2387.75 2276.81 2387.75" fill="#94B0ED"/>
<path d="M2172.31 1933.17L1510.53 2160.08L1429.44 1834.35L2172.31 1933.17Z" fill="#94B0ED"/>
<path d="M1231.5 1039.25H2718.14L2957.52 1940.04H1455.84L1231.5 1039.25Z" fill="#D2E0FF"/>
<path d="M2885.51 1891.81H1504.97L1291.42 1071.25L2669.61 1080.7L2885.51 1891.81Z" fill="#C0D1FF"/>
<path d="M2313.34 1562.31V1891.79H1791.15V1562.31H2313.34Z" fill="#ED7D2B"/>
<path d="M2574.44 1562.32V1891.79H2052.26V1562.32H2574.44Z" fill="#F99746"/>
<path d="M2052.25 1610.99L1942.19 1721.05H1791.47V1562.31H2052.25V1610.99Z" fill="#E06D20"/>
<path d="M1791.16 1562.31L1673.76 1675.6H1935.01L2052.25 1562.31H1791.16" fill="#F99746"/>
<path d="M2574.44 1573.98L2052.26 1562.32V1604.05V1610.88L2149.34 1717.33H2574.44V1611.36L2571.74 1608.2H2574.44V1573.98" fill="#ED7D2B"/>
<path d="M2052.25 1562.31L2155.57 1675.6H2670.85L2574.44 1562.31H2052.25Z" fill="#F99746"/>
<path d="M1142.33 1520.61C1142.33 1520.61 1145.96 1481.05 1101.75 1481.05C1101.75 1481.05 1115.14 1484.68 1122.07 1491.95C1122.07 1491.95 1093.88 1475.4 1063.19 1500.83C1032.51 1526.27 1051.57 1590.07 1042.24 1602.17C1032.91 1614.29 996.571 1616.71 1001.01 1655.88C1005.45 1695.04 1116.34 1744.09 1109.22 1776.49C1109.22 1776.49 1152.67 1712.61 1121.6 1683.47C1121.6 1683.47 1136.75 1697.73 1138.29 1714.69C1138.29 1714.69 1142.4 1681.59 1121.33 1670.99C1102.69 1661.61 1087.42 1627.35 1089.03 1621.23C1090.65 1615.09 1142.33 1520.61 1142.33 1520.61" fill="#2C3A64"/>
<path d="M1098.81 1710.6C1098.81 1710.6 1131.83 1847.23 1164.25 1874.55C1183.74 1890.96 1241.69 1928.64 1241.69 1928.64L1217.58 1937.39C1217.58 1937.39 1137.21 1910.25 1119.22 1889.09C1101.23 1867.93 1051.96 1761.93 1051.96 1761.93L1098.81 1710.6" fill="#FFB27D"/>
<path d="M1288.91 1978.59L1281.15 1959.36C1272.83 1938.75 1252.83 1925.25 1230.6 1925.25H1087.42V2016.11V2403.99H1679.71V2016.11H1344.55C1320.08 2016.11 1298.07 2001.27 1288.91 1978.59" fill="#F99746"/>
<path d="M1176.76 2216.37V2181.87L1297.79 2128.85V2164.11L1213.27 2198.87L1297.79 2233.63V2269.39L1176.76 2216.37" fill="white"/>
<path d="M1423.57 2087.59H1455.84L1345.05 2319.16H1312.79L1423.57 2087.59Z" fill="white"/>
<path d="M1590.37 2181.87V2216.37L1469.33 2269.39V2234.13L1553.87 2199.37L1469.33 2164.61V2128.85L1590.37 2181.87" fill="white"/>
<path d="M788.391 1950.64C788.681 1951.17 788.991 1951.71 789.3 1952.25C796.528 1964.81 813.108 1995.59 831.369 2029.28C840.007 2045.25 849.051 2061.89 857.631 2077.55C872.415 2104.56 885.863 2128.63 893.709 2141.33C901.691 2154.27 907.565 2163.35 909.943 2166.99L909.961 2167C910.676 2168.12 910.831 2169.44 910.735 2170.75C909.903 2182.15 910.135 2193.48 911.256 2204.63C922.271 2314.21 996.167 2372.95 996.167 2372.95L1018.14 2376.19C1018.14 2376.19 987.047 2261 977.887 2195.87C976.34 2184.84 975.664 2175.89 976.205 2170.05C977.828 2153.08 974.813 2128.17 969.113 2099.57C958.968 2048.76 940.359 1986.37 924.184 1936.44C923.16 1933.25 892.26 1821.48 892.26 1821.48C866.327 1844.15 771.733 1853.51 771.733 1853.51C771.733 1853.51 755.695 1892.49 788.391 1950.64" fill="#2F539B"/>
<path d="M1064.25 2403.99H972.552C972.552 2403.99 970.353 2390.01 975.144 2379.41C979.733 2369.24 986.275 2368.91 975.979 2352.96C981.805 2358.96 1000.54 2361.44 1013.79 2359.67C1015.42 2362.29 1024.27 2379.96 1029.69 2383.85C1035.69 2388.16 1062.41 2386.63 1064.25 2403.99" fill="#233862"/>
<path d="M788.391 1950.64C788.681 1951.17 788.991 1951.71 789.3 1952.25C796.528 1964.81 835.613 2037 853.875 2070.68C832.715 1983.63 847.432 1896.57 847.432 1896.57L788.391 1950.64Z" fill="#233862"/>
<path d="M1129.82 1515.05C1130.42 1512.64 1077.45 1539 1074.76 1541.97C1049.91 1569.53 1057 1605.49 1071.21 1605.84C1080.33 1606.07 1078.57 1621.23 1078.57 1621.23L1180.14 1578.25C1180.14 1578.25 1167.91 1506.95 1129.82 1515.05" fill="#2C3A64"/>
<path d="M1095.69 1690.08C1095.69 1690.08 1111.15 1720.95 1109.21 1746.01C1109.21 1746.01 1090.58 1775.43 1042.24 1782.88C1042.24 1782.88 1083.8 1690.05 1095.69 1690.08Z" fill="#F99746"/>
<path d="M859.88 1860.33L860.189 1843.17C826.019 1847.49 742.367 1802.35 742.367 1802.35C742.367 1802.35 706.617 1826.12 701.723 1894.03C699.335 1927.17 684.223 2067.33 682.552 2109.19C681.943 2124.36 681.74 2135.19 681.671 2139.51L681.676 2139.55C681.655 2140.87 681.035 2142.04 680.223 2143.08C673.152 2152.07 667.019 2161.59 661.707 2171.47C609.564 2268.48 636.832 2400.31 636.832 2400.31L648.94 2397.23C648.94 2397.23 693.029 2260.57 721.845 2201.45C726.736 2191.43 731.179 2183.64 734.895 2179.12C745.729 2165.96 757.155 2143.61 768.416 2116.72C789.701 2065.87 859.88 1860.33 859.88 1860.33" fill="#2F539B"/>
<path d="M709.753 2403.99H618.053C618.053 2403.99 615.855 2390.01 620.644 2379.41C625.235 2369.24 632.423 2364.61 630.701 2352.29C636.528 2358.29 646.025 2365.01 659.283 2363.24C660.907 2365.87 669.768 2379.96 675.195 2383.85C681.187 2388.16 707.909 2386.63 709.753 2403.99" fill="#233862"/>
<path d="M1036.05 1802.57C1023.73 1804.67 1038.06 1814.47 1021.12 1816.31C997.007 1818.93 972.111 1820.73 959.069 1825.93C954.313 1827.84 951.132 1830.17 950.139 1833.17C944.485 1850.17 908.685 1879.39 908.685 1879.39C749.007 1872.11 738.723 1800.95 738.723 1800.95C842.356 1700.29 930.52 1645.44 1003.39 1638.64C1021.12 1636.99 1045.02 1639.21 1056.24 1644.2C1081.72 1655.55 1095.69 1690.08 1095.69 1690.08C1095.69 1690.08 1082.85 1794.59 1036.05 1802.57" fill="#F99746"/>
<path d="M1021.12 1816.31C997.007 1818.93 972.111 1820.73 959.069 1825.93C953.74 1746.31 991.321 1686.4 991.321 1686.4C991.321 1686.4 1015.84 1786.17 1021.12 1816.31Z" fill="#ED7D2B"/>
<path d="M1041.92 1672.92C1041.92 1672.92 981.285 1669.6 970.511 1707.68C959.736 1745.75 990.724 1897.71 997.403 1913.39C1009.56 1941.95 1068.75 2023.44 1068.75 2023.44L1090.52 2016.81C1090.52 2016.81 1051.05 1892.31 1042.24 1879.99C1028.41 1860.65 1060.07 1689.48 1041.92 1672.92" fill="#FFB27D"/>
<path d="M1090.52 2016.81C1090.52 2016.81 1091.64 2026.47 1095.72 2031.44C1099.8 2036.43 1111.66 2048.49 1111.87 2055.55C1111.87 2055.55 1111.27 2058.68 1108.73 2058.11C1106.18 2057.53 1097.35 2048.79 1092.81 2049.41C1092.81 2049.41 1095.23 2063.56 1097.63 2067.55C1100.03 2071.53 1098.12 2088.43 1096.68 2091.87C1095.24 2095.31 1077.55 2073.4 1070.28 2063.63C1063 2053.84 1070.16 2014.16 1070.16 2014.16L1090.52 2016.81" fill="#FFB27D"/>
<path d="M958.552 1758.59C958.711 1759.48 1015.93 1769.11 1051.72 1750.95C1051.72 1750.95 1081.63 1657.28 1038.9 1661.76C996.167 1666.24 970.864 1679.69 969.788 1700.16C968.712 1720.61 958.552 1758.59 958.552 1758.59" fill="#F99746"/>
<path d="M1054.87 1650.77C1059.43 1665.05 1074.63 1705.73 1095.69 1690.08C1094.97 1687.04 1099.4 1678.21 1104.61 1669.24C1111.28 1657.79 1119.22 1646.07 1119.22 1646.07L1084.9 1616L1082.86 1614.21C1073.88 1629.88 1065.05 1637.43 1057.33 1643.19C1054.98 1644.95 1053.98 1647.97 1054.87 1650.77Z" fill="#FFB27D"/>
<path d="M1119.22 1646.08C1119.22 1646.08 1111.29 1657.77 1104.62 1669.24C1083.29 1656.09 1083.26 1629.68 1084.91 1616L1119.22 1646.08Z" fill="#ED985F"/>
<path d="M1120.17 1661.15C1120.17 1661.15 1068.38 1632.33 1086.82 1600.35C1105.27 1568.37 1111 1543.12 1144.85 1560.16C1178.7 1577.21 1178.03 1593.09 1174.47 1605.27C1170.91 1617.43 1134.12 1667.83 1120.17 1661.15" fill="#FFB27D"/>
<path d="M1183.22 1586.61C1180.85 1572.41 1173.64 1571.05 1168.61 1572C1149.48 1540.37 1118.23 1552.72 1118.23 1552.72C1101.54 1573.67 1077.41 1577.24 1077.41 1577.24C1077.41 1577.24 1083.42 1588.41 1108.18 1595.35C1115.75 1597.45 1124.33 1596.17 1132.61 1593.39C1115.43 1602.97 1097.46 1606.64 1097.46 1606.64C1130.1 1609.63 1161.15 1579.79 1164.37 1576.6C1165.87 1581.23 1168.51 1590.91 1166.93 1597.97C1164.79 1607.6 1156.25 1625.01 1161.46 1627.27C1161.46 1627.27 1186.78 1607.91 1183.22 1586.61" fill="#2C3A64"/>
<path d="M1251.16 1928.71C1251.16 1928.71 1236.71 1939.55 1247.6 1946.64C1258.49 1953.72 1277.94 1955.64 1278.02 1950.99C1278.29 1935.39 1270.51 1924.28 1251.16 1928.71Z" fill="#FFB27D"/>
<path d="M3948.92 2412.31H234.613C232.421 2412.31 230.629 2410.51 230.629 2408.32V2407.48C230.629 2405.29 232.421 2403.49 234.613 2403.49H3948.92C3951.11 2403.49 3952.9 2405.29 3952.9 2407.48V2408.32C3952.9 2410.51 3951.11 2412.31 3948.92 2412.31Z" fill="#2E3552"/>
<path d="M1476.41 1333.65C1475.36 1329.31 1472.41 1326.03 1469.24 1326.03C1466.05 1326.04 1464.75 1329.23 1465.83 1333.67C1466.89 1338.05 1469.79 1341.29 1473 1341.28C1476.21 1341.28 1477.48 1338.07 1476.41 1333.65V1333.65ZM1460.37 1333.68C1458.68 1326.73 1461.72 1321.29 1468.16 1321.28C1474.55 1321.27 1480.17 1326.63 1481.87 1333.64C1483.55 1340.59 1480.55 1346.03 1474.08 1346.04C1467.61 1346.05 1462.07 1340.69 1460.37 1333.68Z" fill="#F99746"/>
<path d="M1367.41 1153.79L1363.44 1154.81L1361.29 1150.51L1367.75 1148.44H1371.39L1377.21 1172.55L1371.96 1172.56L1367.41 1153.79" fill="#94B0ED"/>
<path d="M1402.32 1160.53C1401.27 1156.19 1398.33 1152.91 1395.15 1152.91C1391.97 1152.92 1390.67 1156.11 1391.75 1160.55C1392.8 1164.92 1395.69 1168.17 1398.92 1168.16C1402.13 1168.16 1403.39 1164.95 1402.32 1160.53V1160.53ZM1386.28 1160.56C1384.6 1153.61 1387.64 1148.17 1394.07 1148.16C1400.47 1148.15 1406.09 1153.51 1407.79 1160.52C1409.47 1167.47 1406.47 1172.91 1400 1172.92C1393.53 1172.93 1387.97 1167.57 1386.28 1160.56Z" fill="#94B0ED"/>
<path d="M1809.93 1152.97L1805.96 1154.01L1803.81 1149.71L1810.27 1147.64L1813.89 1147.63L1819.73 1171.75H1814.48L1809.93 1152.97Z" fill="#94B0ED"/>
<path d="M1844.84 1159.72C1843.79 1155.39 1840.84 1152.11 1837.67 1152.11C1834.48 1152.12 1833.19 1155.29 1834.25 1159.75C1835.32 1164.12 1838.21 1167.36 1841.43 1167.36C1844.64 1167.36 1845.91 1164.13 1844.84 1159.72ZM1828.8 1159.75C1827.12 1152.81 1830.16 1147.36 1836.59 1147.36C1842.99 1147.35 1848.6 1152.71 1850.29 1159.72C1851.99 1166.65 1848.97 1172.11 1842.51 1172.12C1836.04 1172.12 1830.49 1166.76 1828.8 1159.75" fill="#94B0ED"/>
<path d="M1876.99 1159.67C1875.93 1155.33 1873 1152.05 1869.81 1152.05C1866.64 1152.05 1865.33 1155.24 1866.41 1159.69C1867.47 1164.07 1870.36 1167.31 1873.59 1167.31C1876.8 1167.31 1878.05 1164.08 1876.99 1159.67ZM1860.95 1159.69C1859.27 1152.76 1862.31 1147.31 1868.73 1147.31C1875.13 1147.29 1880.76 1152.65 1882.45 1159.67C1884.13 1166.6 1881.13 1172.05 1874.67 1172.05C1868.2 1172.07 1862.64 1166.71 1860.95 1159.69Z" fill="#94B0ED"/>
<path d="M2041.44 1159.72C2040.39 1155.39 2037.44 1152.11 2034.27 1152.11C2031.08 1152.12 2029.77 1155.29 2030.85 1159.75C2031.92 1164.12 2034.81 1167.36 2038.03 1167.36C2041.24 1167.36 2042.51 1164.13 2041.44 1159.72ZM2025.39 1159.75C2023.71 1152.81 2026.75 1147.36 2033.19 1147.36C2039.57 1147.35 2045.2 1152.71 2046.89 1159.72C2048.57 1166.65 2045.57 1172.11 2039.11 1172.12C2032.64 1172.12 2027.09 1166.76 2025.39 1159.75" fill="#94B0ED"/>
<path d="M2073.59 1159.67C2072.53 1155.33 2069.6 1152.05 2066.41 1152.05C2063.24 1152.05 2061.93 1155.24 2063.01 1159.69C2064.07 1164.07 2066.96 1167.31 2070.17 1167.31C2073.4 1167.31 2074.65 1164.08 2073.59 1159.67V1159.67ZM2057.55 1159.69C2055.87 1152.76 2058.91 1147.31 2065.33 1147.31C2071.73 1147.29 2077.35 1152.65 2079.05 1159.67C2080.73 1166.6 2077.72 1172.05 2071.25 1172.05C2064.8 1172.07 2059.24 1166.71 2057.55 1159.69Z" fill="#94B0ED"/>
<path d="M2105.75 1159.61C2104.69 1155.28 2101.75 1152 2098.57 1152C2095.39 1152 2094.08 1155.19 2095.16 1159.64C2096.23 1164.01 2099.12 1167.25 2102.33 1167.25C2105.55 1167.24 2106.81 1164.03 2105.75 1159.61ZM2089.69 1159.64C2088.01 1152.71 2091.05 1147.25 2097.49 1147.24C2103.88 1147.24 2109.51 1152.6 2111.2 1159.61C2112.88 1166.55 2109.88 1172 2103.41 1172C2096.95 1172.01 2091.4 1166.65 2089.69 1159.64" fill="#94B0ED"/>
<path d="M2329.28 1159.06C2328.24 1154.73 2325.28 1151.45 2322.12 1151.45C2318.93 1151.45 2317.61 1154.64 2318.7 1159.09C2319.76 1163.46 2322.66 1166.7 2325.87 1166.7C2329.08 1166.7 2330.36 1163.47 2329.28 1159.06ZM2313.24 1159.09C2311.57 1152.15 2314.59 1146.7 2321.04 1146.69C2327.42 1146.69 2333.05 1152.05 2334.74 1159.06C2336.42 1166 2333.42 1171.44 2326.96 1171.46C2320.48 1171.47 2314.93 1166.1 2313.24 1159.09Z" fill="#94B0ED"/>
<path d="M2360.06 1159.01C2359 1154.67 2356.06 1151.39 2352.89 1151.4C2349.69 1151.4 2348.39 1154.58 2349.48 1159.04C2350.54 1163.41 2353.43 1166.65 2356.65 1166.65C2359.86 1166.65 2361.12 1163.43 2360.06 1159.01ZM2344 1159.04C2342.33 1152.1 2345.37 1146.65 2351.8 1146.64C2358.19 1146.64 2363.83 1152 2365.51 1159.01C2367.19 1165.95 2364.19 1171.38 2357.73 1171.4C2351.26 1171.41 2345.72 1166.05 2344 1159.04Z" fill="#94B0ED"/>
<path d="M2393.54 1158.96C2392.47 1154.62 2389.53 1151.33 2386.36 1151.33C2383.17 1151.35 2381.87 1154.53 2382.95 1158.98C2384.01 1163.35 2386.91 1166.59 2390.12 1166.59C2393.33 1166.59 2394.6 1163.37 2393.54 1158.96V1158.96ZM2377.5 1158.98C2375.8 1152.04 2378.84 1146.59 2385.27 1146.59C2391.67 1146.58 2397.29 1151.94 2398.98 1158.95C2400.66 1165.88 2397.66 1171.33 2391.19 1171.35C2384.73 1171.36 2379.19 1165.99 2377.5 1158.98Z" fill="#94B0ED"/>
<path d="M2448.18 1158.87C2447.13 1154.52 2444.19 1151.25 2441 1151.25C2437.83 1151.25 2436.52 1154.44 2437.61 1158.89C2438.66 1163.26 2441.57 1166.51 2444.78 1166.5C2447.99 1166.5 2449.24 1163.28 2448.18 1158.87ZM2432.14 1158.9C2430.45 1151.96 2433.5 1146.51 2439.93 1146.51C2446.33 1146.49 2451.95 1151.85 2453.64 1158.86C2455.32 1165.8 2452.33 1171.25 2445.86 1171.26C2439.39 1171.27 2433.83 1165.91 2432.14 1158.9Z" fill="#94B0ED"/>
<path d="M2466.76 1152.03L2462.78 1153.07L2460.63 1148.76L2467.09 1146.7L2470.72 1146.68L2476.56 1170.8L2471.3 1170.81L2466.76 1152.03" fill="#94B0ED"/>
<path d="M2501.68 1158.78C2500.62 1154.43 2497.68 1151.15 2494.49 1151.16C2491.31 1151.16 2490.02 1154.35 2491.09 1158.79C2492.16 1163.17 2495.05 1166.41 2498.27 1166.41C2501.48 1166.41 2502.74 1163.19 2501.68 1158.78ZM2485.63 1158.8C2483.95 1151.86 2486.98 1146.41 2493.42 1146.41C2499.8 1146.39 2505.44 1151.76 2507.13 1158.77C2508.81 1165.71 2505.81 1171.15 2499.34 1171.16C2492.88 1171.17 2487.32 1165.81 2485.63 1158.8" fill="#94B0ED"/>
<path d="M2555.23 1158.64C2554.18 1154.3 2551.25 1151.02 2548.06 1151.02C2544.88 1151.03 2543.58 1154.21 2544.66 1158.66C2545.72 1163.03 2548.61 1166.28 2551.83 1166.27C2555.06 1166.27 2556.3 1163.05 2555.23 1158.64V1158.64ZM2539.19 1158.67C2537.51 1151.72 2540.56 1146.28 2546.98 1146.27C2553.37 1146.26 2559 1151.62 2560.7 1158.63C2562.38 1165.57 2559.38 1171.02 2552.92 1171.03C2546.44 1171.04 2540.89 1165.68 2539.19 1158.67" fill="#94B0ED"/>
<path d="M1627.99 1212.28C1626.93 1207.93 1624 1204.65 1620.81 1204.67C1617.64 1204.67 1616.33 1207.85 1617.41 1212.29C1618.47 1216.68 1621.36 1219.92 1624.57 1219.92C1627.8 1219.91 1629.05 1216.69 1627.99 1212.28V1212.28ZM1611.95 1212.31C1610.27 1205.36 1613.31 1199.92 1619.73 1199.91C1626.13 1199.89 1631.75 1205.27 1633.45 1212.27C1635.13 1219.21 1632.12 1224.65 1625.67 1224.67C1619.2 1224.68 1613.64 1219.32 1611.95 1212.31Z" fill="#94B0ED"/>
<path d="M1660.15 1212.23C1659.09 1207.88 1656.15 1204.6 1652.97 1204.61C1649.79 1204.61 1648.48 1207.8 1649.56 1212.24C1650.63 1216.63 1653.52 1219.87 1656.73 1219.87C1659.95 1219.85 1661.21 1216.64 1660.15 1212.23V1212.23ZM1644.09 1212.25C1642.41 1205.31 1645.45 1199.87 1651.89 1199.85C1658.28 1199.84 1663.91 1205.21 1665.6 1212.21C1667.28 1219.16 1664.28 1224.6 1657.81 1224.61C1651.35 1224.63 1645.8 1219.27 1644.09 1212.25Z" fill="#94B0ED"/>
<path d="M2460.8 1210.98C2459.74 1206.64 2456.8 1203.36 2453.62 1203.37C2450.44 1203.37 2449.12 1206.56 2450.21 1211C2451.27 1215.38 2454.17 1218.62 2457.38 1218.62C2460.6 1218.61 2461.86 1215.39 2460.8 1210.98ZM2444.75 1211.01C2443.07 1204.07 2446.1 1198.62 2452.55 1198.61C2458.94 1198.6 2464.55 1203.96 2466.25 1210.97C2467.93 1217.92 2464.93 1223.36 2458.47 1223.37C2452 1223.38 2446.44 1218.02 2444.75 1211.01" fill="#94B0ED"/>
<path d="M2479.38 1204.13L2475.41 1205.17L2473.26 1200.86L2479.72 1198.8L2483.35 1198.79L2489.18 1222.9L2483.93 1222.91L2479.38 1204.13" fill="#94B0ED"/>
<path d="M2514.29 1210.88C2513.24 1206.54 2510.3 1203.26 2507.11 1203.27C2503.94 1203.27 2502.64 1206.46 2503.71 1210.9C2504.78 1215.28 2507.67 1218.53 2510.87 1218.52C2514.1 1218.51 2515.36 1215.3 2514.29 1210.88ZM2498.25 1210.91C2496.58 1203.97 2499.61 1198.53 2506.03 1198.51C2512.43 1198.5 2518.05 1203.87 2519.75 1210.88C2521.44 1217.82 2518.42 1223.26 2511.95 1223.27C2505.5 1223.28 2499.95 1217.92 2498.25 1210.91Z" fill="#94B0ED"/>
<path d="M2632.16 1210.64C2631.1 1206.3 2628.16 1203.02 2624.98 1203.03C2621.81 1203.03 2620.5 1206.21 2621.58 1210.66C2622.65 1215.04 2625.53 1218.28 2628.75 1218.28C2631.96 1218.27 2633.22 1215.06 2632.16 1210.64V1210.64ZM2616.13 1210.67C2614.42 1203.73 2617.47 1198.28 2623.91 1198.27C2630.29 1198.26 2635.93 1203.62 2637.61 1210.63C2639.3 1217.58 2636.3 1223.02 2629.82 1223.03C2623.36 1223.04 2617.81 1217.68 2616.13 1210.67Z" fill="#94B0ED"/>
<path d="M2650.76 1203.8L2646.78 1204.83L2644.64 1200.52L2651.08 1198.46L2654.71 1198.45L2660.55 1222.56L2655.3 1222.57L2650.76 1203.8Z" fill="#94B0ED"/>
<path d="M1600.93 1493.61C1599.88 1489.28 1596.95 1486 1593.76 1486C1590.59 1486 1589.28 1489.19 1590.36 1493.64C1591.41 1498.01 1594.32 1501.25 1597.53 1501.25C1600.75 1501.24 1602 1498.03 1600.93 1493.61ZM1584.89 1493.64C1583.21 1486.71 1586.25 1481.25 1592.68 1481.24C1599.08 1481.24 1604.71 1486.6 1606.4 1493.61C1608.08 1500.55 1605.08 1506 1598.61 1506C1592.15 1506.01 1586.59 1500.65 1584.89 1493.64" fill="#94B0ED"/>
<path d="M1633.09 1493.56C1632.04 1489.21 1629.11 1485.95 1625.92 1485.95C1622.73 1485.95 1621.44 1489.13 1622.51 1493.59C1623.57 1497.96 1626.47 1501.2 1629.68 1501.2C1632.89 1501.19 1634.16 1497.97 1633.09 1493.56ZM1617.05 1493.59C1615.37 1486.65 1618.41 1481.2 1624.84 1481.19C1631.24 1481.19 1636.85 1486.55 1638.56 1493.56C1640.24 1500.49 1637.23 1505.95 1630.76 1505.95C1624.29 1505.96 1618.75 1500.6 1617.05 1493.59" fill="#94B0ED"/>
<path d="M1651.67 1486.72L1647.69 1487.76L1645.55 1483.45L1652 1481.39H1655.63L1661.47 1505.49H1656.21L1651.67 1486.72Z" fill="#94B0ED"/>
<path d="M1718.73 1493.41C1717.68 1489.08 1714.75 1485.8 1711.56 1485.8C1708.37 1485.81 1707.08 1488.99 1708.15 1493.44C1709.21 1497.81 1712.11 1501.05 1715.32 1501.05C1718.53 1501.05 1719.8 1497.83 1718.73 1493.41ZM1702.69 1493.44C1701.01 1486.51 1704.05 1481.05 1710.48 1481.05C1716.88 1481.04 1722.49 1486.4 1724.2 1493.41C1725.88 1500.35 1722.87 1505.8 1716.4 1505.81C1709.93 1505.81 1704.39 1500.45 1702.69 1493.44" fill="#94B0ED"/>
<path d="M1750.88 1493.36C1749.84 1489.03 1746.89 1485.75 1743.72 1485.75C1740.53 1485.75 1739.23 1488.93 1740.31 1493.39C1741.36 1497.76 1744.27 1501 1747.48 1501C1750.69 1501 1751.95 1497.77 1750.88 1493.36V1493.36ZM1734.84 1493.39C1733.16 1486.45 1736.2 1481 1742.63 1481C1749.03 1480.99 1754.65 1486.35 1756.35 1493.36C1758.03 1500.29 1755.03 1505.75 1748.56 1505.75C1742.09 1505.76 1736.53 1500.4 1734.84 1493.39Z" fill="#94B0ED"/>
<path d="M1783.04 1493.31C1781.99 1488.97 1779.05 1485.69 1775.87 1485.69C1772.68 1485.69 1771.39 1488.88 1772.45 1493.33C1773.52 1497.71 1776.41 1500.95 1779.63 1500.95C1782.84 1500.95 1784.11 1497.72 1783.04 1493.31ZM1767 1493.33C1765.32 1486.4 1768.36 1480.95 1774.79 1480.95C1781.19 1480.93 1786.8 1486.29 1788.51 1493.31C1790.19 1500.24 1787.17 1505.69 1780.71 1505.69C1774.24 1505.71 1768.69 1500.35 1767 1493.33Z" fill="#94B0ED"/>
<path d="M2184.45 1493.61C2183.4 1489.28 2180.46 1486 2177.28 1486C2174.1 1486 2172.79 1489.19 2173.87 1493.64C2174.93 1498.01 2177.83 1501.25 2181.05 1501.25C2184.26 1501.24 2185.53 1498.03 2184.45 1493.61V1493.61ZM2168.42 1493.64C2166.73 1486.71 2169.77 1481.25 2176.21 1481.24C2182.59 1481.24 2188.21 1486.6 2189.91 1493.61C2191.59 1500.55 2188.59 1506 2182.12 1506C2175.66 1506.01 2170.1 1500.65 2168.42 1493.64Z" fill="#94B0ED"/>
<path d="M2216.61 1493.56C2215.56 1489.21 2212.62 1485.94 2209.43 1485.94C2206.26 1485.94 2204.95 1489.13 2206.03 1493.58C2207.08 1497.96 2209.98 1501.2 2213.21 1501.2C2216.41 1501.18 2217.67 1497.97 2216.61 1493.56ZM2200.56 1493.58C2198.88 1486.65 2201.93 1481.2 2208.35 1481.18C2214.75 1481.18 2220.38 1486.54 2222.08 1493.56C2223.75 1500.49 2220.75 1505.94 2214.29 1505.94C2207.82 1505.96 2202.27 1500.6 2200.56 1493.58" fill="#94B0ED"/>
<path d="M2235.18 1486.72L2231.22 1487.76L2229.07 1483.45L2235.51 1481.39H2239.15L2244.99 1505.49H2239.73L2235.18 1486.72" fill="#94B0ED"/>
<path d="M2400.01 1493.61C2398.97 1489.28 2396.03 1486 2392.84 1486C2389.66 1486 2388.36 1489.18 2389.44 1493.64C2390.49 1498.01 2393.38 1501.25 2396.62 1501.25C2399.82 1501.24 2401.08 1498.02 2400.01 1493.61ZM2383.98 1493.64C2382.29 1486.71 2385.34 1481.25 2391.76 1481.24C2398.17 1481.24 2403.8 1486.6 2405.48 1493.61C2407.16 1500.55 2404.16 1506 2397.7 1506C2391.23 1506.01 2385.68 1500.65 2383.98 1493.64Z" fill="#94B0ED"/>
<path d="M2432.17 1493.56C2431.12 1489.21 2428.17 1485.95 2425 1485.95C2421.81 1485.95 2420.51 1489.13 2421.59 1493.59C2422.65 1497.96 2425.55 1501.2 2428.76 1501.2C2431.97 1501.19 2433.24 1497.97 2432.17 1493.56ZM2416.14 1493.59C2414.43 1486.65 2417.49 1481.2 2423.92 1481.19C2430.31 1481.19 2435.94 1486.55 2437.63 1493.56C2439.31 1500.49 2436.31 1505.95 2429.83 1505.95C2423.37 1505.96 2417.83 1500.6 2416.14 1493.59" fill="#94B0ED"/>
<path d="M2450.74 1486.72L2446.77 1487.76L2444.61 1483.46L2451.07 1481.39H2454.7L2460.54 1505.5H2455.29L2450.74 1486.72" fill="#94B0ED"/>
<path d="M2302.24 1493.41C2301.18 1489.08 2298.25 1485.8 2295.06 1485.8C2291.89 1485.81 2290.58 1488.99 2291.66 1493.44C2292.72 1497.82 2295.61 1501.05 2298.84 1501.05C2302.05 1501.05 2303.31 1497.83 2302.24 1493.41ZM2286.19 1493.44C2284.52 1486.51 2287.55 1481.05 2293.98 1481.05C2300.39 1481.04 2306.01 1486.4 2307.7 1493.41C2309.38 1500.35 2306.38 1505.8 2299.92 1505.81C2293.45 1505.81 2287.89 1500.45 2286.19 1493.44Z" fill="#94B0ED"/>
<path d="M2334.4 1493.36C2333.35 1489.03 2330.4 1485.75 2327.23 1485.75C2324.04 1485.75 2322.73 1488.93 2323.82 1493.39C2324.89 1497.76 2327.77 1501 2330.99 1501C2334.21 1501 2335.47 1497.77 2334.4 1493.36V1493.36ZM2318.36 1493.39C2316.67 1486.45 2319.71 1481 2326.15 1481C2332.54 1480.99 2338.16 1486.34 2339.85 1493.36C2341.55 1500.29 2338.53 1505.75 2332.07 1505.75C2325.6 1505.76 2320.06 1500.4 2318.36 1493.39Z" fill="#94B0ED"/>
<path d="M2366.54 1493.31C2365.49 1488.97 2362.57 1485.69 2359.38 1485.69C2356.2 1485.69 2354.89 1488.88 2355.97 1493.33C2357.03 1497.71 2359.92 1500.95 2363.15 1500.95C2366.35 1500.95 2367.62 1497.72 2366.54 1493.31V1493.31ZM2350.51 1493.33C2348.82 1486.4 2351.86 1480.95 2358.29 1480.95C2364.69 1480.93 2370.31 1486.29 2372.02 1493.31C2373.69 1500.24 2370.69 1505.69 2364.23 1505.69C2357.76 1505.71 2352.2 1500.35 2350.51 1493.33" fill="#94B0ED"/>
<path d="M1893 1492.77C1891.95 1488.43 1889.01 1485.15 1885.83 1485.15C1882.65 1485.16 1881.35 1488.35 1882.43 1492.79C1883.48 1497.16 1886.37 1500.41 1889.6 1500.4C1892.81 1500.4 1894.07 1497.17 1893 1492.77V1492.77ZM1876.96 1492.8C1875.28 1485.85 1878.32 1480.41 1884.75 1480.4C1891.15 1480.39 1896.77 1485.75 1898.47 1492.76C1900.15 1499.71 1897.15 1505.15 1890.68 1505.16C1884.21 1505.17 1878.65 1499.8 1876.96 1492.8Z" fill="#94B0ED"/>
<path d="M1911.59 1485.93L1907.61 1486.96L1905.47 1482.65L1911.92 1480.59H1915.55L1921.39 1504.69L1916.13 1504.71L1911.59 1485.93" fill="#94B0ED"/>
<path d="M1946.49 1492.68C1945.44 1488.33 1942.49 1485.05 1939.32 1485.07C1936.13 1485.07 1934.84 1488.25 1935.91 1492.69C1936.97 1497.08 1939.87 1500.32 1943.08 1500.32C1946.29 1500.31 1947.56 1497.09 1946.49 1492.68V1492.68ZM1930.45 1492.71C1928.77 1485.76 1931.8 1480.32 1938.24 1480.31C1944.64 1480.29 1950.25 1485.65 1951.95 1492.67C1953.64 1499.61 1950.63 1505.05 1944.16 1505.07C1937.69 1505.08 1932.15 1499.72 1930.45 1492.71Z" fill="#94B0ED"/>
<path d="M2582.44 1492.02C2581.39 1487.67 2578.45 1484.39 2575.28 1484.4C2572.1 1484.4 2570.8 1487.59 2571.88 1492.03C2572.93 1496.4 2575.83 1499.66 2579.04 1499.64C2582.25 1499.64 2583.51 1496.43 2582.44 1492.02ZM2566.41 1492.04C2564.73 1485.1 2567.76 1479.66 2574.2 1479.64C2580.6 1479.63 2586.22 1484.99 2587.91 1492C2589.59 1498.95 2586.59 1504.39 2580.12 1504.4C2573.66 1504.42 2568.1 1499.06 2566.41 1492.04Z" fill="#94B0ED"/>
<path d="M2601.04 1485.17L2597.07 1486.2L2594.93 1481.89L2601.38 1479.84L2605 1479.82L2610.85 1503.93L2605.59 1503.94L2601.04 1485.17" fill="#94B0ED"/>
<path d="M2635.94 1491.92C2634.89 1487.58 2631.94 1484.29 2628.78 1484.31C2625.58 1484.31 2624.28 1487.49 2625.35 1491.93C2626.42 1496.32 2629.31 1499.56 2632.54 1499.56C2635.75 1499.55 2637.01 1496.33 2635.94 1491.92V1491.92ZM2619.91 1491.95C2618.22 1485 2621.25 1479.56 2627.69 1479.55C2634.08 1479.55 2639.7 1484.91 2641.39 1491.91C2643.08 1498.85 2640.08 1504.29 2633.61 1504.31C2627.14 1504.32 2621.59 1498.96 2619.91 1491.95" fill="#94B0ED"/>
<path d="M1394.69 1266.43L1390.72 1267.45L1388.57 1263.15L1395.03 1261.08H1398.65L1404.49 1285.19L1399.24 1285.2L1394.69 1266.43" fill="#94B0ED"/>
<path d="M1429.6 1273.17C1428.55 1268.83 1425.61 1265.55 1422.43 1265.56C1419.25 1265.56 1417.95 1268.75 1419.01 1273.19C1420.08 1277.57 1422.97 1280.81 1426.19 1280.81C1429.4 1280.8 1430.67 1277.59 1429.6 1273.17V1273.17ZM1413.56 1273.2C1411.88 1266.25 1414.92 1260.81 1421.35 1260.8C1427.75 1260.79 1433.36 1266.15 1435.07 1273.16C1436.75 1280.11 1433.73 1285.55 1427.27 1285.56C1420.8 1285.57 1415.25 1280.21 1413.56 1273.2Z" fill="#94B0ED"/>
<path d="M1611.71 1272.87C1610.65 1268.52 1607.71 1265.24 1604.53 1265.25C1601.35 1265.25 1600.04 1268.44 1601.12 1272.88C1602.19 1277.27 1605.08 1280.51 1608.29 1280.49C1611.51 1280.49 1612.77 1277.28 1611.71 1272.87ZM1595.65 1272.89C1593.97 1265.95 1597.01 1260.51 1603.45 1260.49C1609.84 1260.48 1615.47 1265.84 1617.16 1272.85C1618.84 1279.8 1615.84 1285.24 1609.37 1285.25C1602.91 1285.27 1597.36 1279.91 1595.65 1272.89Z" fill="#94B0ED"/>
<path d="M1643.85 1272.81C1642.8 1268.47 1639.87 1265.19 1636.68 1265.2C1633.51 1265.2 1632.2 1268.39 1633.28 1272.83C1634.33 1277.21 1637.23 1280.45 1640.44 1280.45C1643.67 1280.44 1644.92 1277.23 1643.85 1272.81V1272.81ZM1627.81 1272.84C1626.13 1265.89 1629.17 1260.45 1635.6 1260.44C1642 1260.43 1647.61 1265.79 1649.32 1272.8C1651 1279.75 1647.99 1285.19 1641.52 1285.2C1635.07 1285.21 1629.51 1279.85 1627.81 1272.84Z" fill="#94B0ED"/>
<path d="M1676.01 1272.76C1674.96 1268.41 1672.01 1265.13 1668.84 1265.15C1665.65 1265.15 1664.35 1268.33 1665.43 1272.77C1666.49 1277.15 1669.39 1280.4 1672.6 1280.39C1675.81 1280.39 1677.08 1277.17 1676.01 1272.76ZM1659.96 1272.79C1658.28 1265.84 1661.32 1260.4 1667.76 1260.39C1674.15 1260.37 1679.77 1265.73 1681.47 1272.75C1683.15 1279.69 1680.15 1285.13 1673.68 1285.15C1667.21 1285.16 1661.67 1279.8 1659.96 1272.79Z" fill="#94B0ED"/>
<path d="M1694.59 1265.92L1690.61 1266.95L1688.47 1262.64L1694.92 1260.59L1698.55 1260.57L1704.39 1284.68L1699.13 1284.69L1694.59 1265.92" fill="#94B0ED"/>
<path d="M1716.09 1265.88L1712.12 1266.92L1709.97 1262.61L1716.43 1260.55L1720.05 1260.53L1725.89 1284.64L1720.64 1284.65L1716.09 1265.88Z" fill="#94B0ED"/>
<path d="M1751 1272.63C1749.95 1268.29 1747.01 1265.01 1743.83 1265.01C1740.65 1265.01 1739.35 1268.2 1740.41 1272.65C1741.48 1277.03 1744.37 1280.27 1747.59 1280.27C1750.8 1280.25 1752.07 1277.04 1751 1272.63ZM1734.96 1272.65C1733.28 1265.72 1736.32 1260.27 1742.75 1260.25C1749.15 1260.25 1754.76 1265.61 1756.47 1272.63C1758.15 1279.56 1755.13 1285.01 1748.67 1285.01C1742.21 1285.03 1736.65 1279.67 1734.96 1272.65" fill="#94B0ED"/>
<path d="M2582.51 1271.28C2581.46 1266.94 2578.52 1263.66 2575.34 1263.67C2572.16 1263.67 2570.86 1266.86 2571.93 1271.3C2572.99 1275.68 2575.88 1278.92 2579.09 1278.92C2582.32 1278.91 2583.57 1275.69 2582.51 1271.28ZM2566.48 1271.31C2564.79 1264.37 2567.83 1258.92 2574.26 1258.91C2580.66 1258.9 2586.27 1264.26 2587.97 1271.28C2589.66 1278.22 2586.64 1283.66 2580.17 1283.67C2573.71 1283.68 2568.16 1278.32 2566.48 1271.31" fill="#F99746"/>
<path d="M2614.68 1271.22C2613.63 1266.88 2610.69 1263.6 2607.52 1263.6C2604.32 1263.61 2603.02 1266.79 2604.1 1271.24C2605.16 1275.61 2608.07 1278.86 2611.27 1278.86C2614.49 1278.85 2615.74 1275.63 2614.68 1271.22V1271.22ZM2598.63 1271.25C2596.95 1264.31 2599.99 1258.86 2606.43 1258.85C2612.81 1258.84 2618.44 1264.2 2620.15 1271.21C2621.82 1278.15 2618.81 1283.6 2612.35 1283.61C2605.88 1283.62 2600.35 1278.26 2598.63 1271.25Z" fill="#F99746"/>
<path d="M2646.82 1271.17C2645.76 1266.83 2642.83 1263.55 2639.65 1263.56C2636.48 1263.56 2635.16 1266.75 2636.23 1271.19C2637.29 1275.57 2640.19 1278.81 2643.4 1278.81C2646.62 1278.8 2647.89 1275.58 2646.82 1271.17ZM2630.78 1271.2C2629.1 1264.26 2632.13 1258.81 2638.56 1258.8C2644.96 1258.79 2650.58 1264.15 2652.29 1271.17C2653.97 1278.11 2650.95 1283.55 2644.49 1283.56C2638.03 1283.57 2632.47 1278.21 2630.78 1271.2" fill="#94B0ED"/>
<path d="M2665.4 1264.33L2661.45 1265.36L2659.28 1261.06L2665.73 1258.99L2669.37 1258.99L2675.2 1283.1L2669.95 1283.11L2665.4 1264.33" fill="#94B0ED"/>
<path d="M1409.35 1326.96L1405.37 1327.99L1403.23 1323.68L1409.68 1321.61H1413.31L1419.15 1345.72L1413.89 1345.73L1409.35 1326.96" fill="#94B0ED"/>
<path d="M1444.25 1333.71C1443.2 1329.36 1440.27 1326.08 1437.08 1326.09C1433.91 1326.09 1432.6 1329.28 1433.68 1333.72C1434.73 1338.11 1437.63 1341.35 1440.84 1341.33C1444.07 1341.33 1445.32 1338.12 1444.25 1333.71V1333.71ZM1428.21 1333.73C1426.53 1326.79 1429.57 1321.35 1436 1321.33C1442.4 1321.32 1448.03 1326.68 1449.72 1333.69C1451.4 1340.64 1448.39 1346.08 1441.93 1346.09C1435.47 1346.11 1429.91 1340.75 1428.21 1333.73Z" fill="#94B0ED"/>
<path d="M1594.2 1333.45C1593.15 1329.11 1590.21 1325.83 1587.03 1325.84C1583.85 1325.84 1582.55 1329.03 1583.63 1333.47C1584.68 1337.85 1587.57 1341.09 1590.8 1341.09C1594.01 1341.08 1595.27 1337.87 1594.2 1333.45V1333.45ZM1578.16 1333.48C1576.48 1326.53 1579.52 1321.09 1585.95 1321.08C1592.35 1321.07 1597.97 1326.43 1599.67 1333.44C1601.35 1340.39 1598.35 1345.83 1591.88 1345.84C1585.41 1345.85 1579.85 1340.49 1578.16 1333.48Z" fill="#94B0ED"/>
<path d="M1626.36 1333.4C1625.31 1329.05 1622.36 1325.77 1619.19 1325.79C1616 1325.79 1614.71 1328.97 1615.77 1333.41C1616.84 1337.8 1619.73 1341.04 1622.95 1341.04C1626.16 1341.03 1627.43 1337.81 1626.36 1333.4V1333.4ZM1610.32 1333.43C1608.64 1326.48 1611.67 1321.04 1618.11 1321.03C1624.51 1321.01 1630.12 1326.37 1631.81 1333.39C1633.51 1340.33 1630.49 1345.77 1624.03 1345.79C1617.56 1345.8 1612.01 1340.44 1610.32 1333.43Z" fill="#94B0ED"/>
<path d="M1504.41 1450.59C1503.36 1446.24 1500.43 1442.96 1497.24 1442.96C1494.07 1442.97 1492.76 1446.15 1493.83 1450.6C1494.89 1454.97 1497.79 1458.23 1501 1458.21C1504.21 1458.21 1505.48 1454.99 1504.41 1450.59V1450.59ZM1488.37 1450.61C1486.69 1443.67 1489.73 1438.23 1496.16 1438.21C1502.56 1438.2 1508.17 1443.56 1509.88 1450.57C1511.56 1457.51 1508.55 1462.96 1502.08 1462.97C1495.61 1462.97 1490.07 1457.61 1488.37 1450.61Z" fill="#F99746"/>
<path d="M1522.99 1443.75L1519.03 1444.77L1516.87 1440.47L1523.32 1438.4H1526.96L1532.79 1462.51L1527.53 1462.52L1522.99 1443.75" fill="#F99746"/>
<path d="M1422.69 1383.35L1418.72 1384.39L1416.57 1380.08L1423.03 1378.01H1426.65L1432.49 1402.12H1427.24L1422.69 1383.35Z" fill="#94B0ED"/>
<path d="M1457.6 1390.11C1456.55 1385.76 1453.61 1382.48 1450.43 1382.48C1447.25 1382.49 1445.95 1385.68 1447.03 1390.12C1448.08 1394.49 1450.97 1397.75 1454.19 1397.73C1457.41 1397.73 1458.67 1394.51 1457.6 1390.11V1390.11ZM1441.56 1390.13C1439.88 1383.19 1442.92 1377.75 1449.35 1377.73C1455.75 1377.72 1461.36 1383.08 1463.07 1390.09C1464.75 1397.04 1461.73 1402.48 1455.28 1402.49C1448.81 1402.51 1443.25 1397.13 1441.56 1390.13Z" fill="#94B0ED"/>
<path d="M1489.76 1390.05C1488.71 1385.71 1485.76 1382.43 1482.59 1382.43C1479.4 1382.44 1478.09 1385.61 1479.17 1390.07C1480.24 1394.44 1483.13 1397.69 1486.35 1397.68C1489.56 1397.68 1490.83 1394.45 1489.76 1390.05V1390.05ZM1473.71 1390.08C1472.03 1383.13 1475.07 1377.69 1481.51 1377.68C1487.89 1377.67 1493.52 1383.03 1495.21 1390.04C1496.89 1396.99 1493.89 1402.43 1487.43 1402.44C1480.96 1402.44 1475.41 1397.08 1473.71 1390.08Z" fill="#94B0ED"/>
<path d="M1508.33 1383.21L1504.36 1384.24L1502.21 1379.93L1508.67 1377.87H1512.29L1518.13 1401.97L1512.88 1401.99L1508.33 1383.21" fill="#94B0ED"/>
<path d="M1543.24 1389.96C1542.19 1385.61 1539.25 1382.33 1536.07 1382.35C1532.89 1382.35 1531.59 1385.53 1532.67 1389.97C1533.72 1394.35 1536.61 1397.6 1539.84 1397.59C1543.05 1397.59 1544.31 1394.37 1543.24 1389.96ZM1527.2 1389.99C1525.52 1383.04 1528.56 1377.6 1534.99 1377.59C1541.39 1377.57 1547.01 1382.93 1548.71 1389.95C1550.39 1396.89 1547.39 1402.33 1540.92 1402.35C1534.45 1402.36 1528.89 1397 1527.2 1389.99Z" fill="#94B0ED"/>
<path d="M1575.4 1389.91C1574.35 1385.56 1571.4 1382.28 1568.23 1382.28C1565.04 1382.29 1563.73 1385.48 1564.81 1389.92C1565.88 1394.29 1568.77 1397.55 1571.99 1397.53C1575.2 1397.53 1576.47 1394.32 1575.4 1389.91V1389.91ZM1559.35 1389.93C1557.67 1382.99 1560.71 1377.55 1567.15 1377.53C1573.53 1377.52 1579.16 1382.88 1580.85 1389.89C1582.53 1396.84 1579.53 1402.28 1573.07 1402.29C1566.6 1402.31 1561.05 1396.95 1559.35 1389.93Z" fill="#94B0ED"/>
<path d="M1607.55 1389.85C1606.49 1385.51 1603.56 1382.23 1600.37 1382.23C1597.2 1382.24 1595.89 1385.43 1596.97 1389.87C1598.03 1394.24 1600.92 1397.49 1604.15 1397.48C1607.36 1397.48 1608.61 1394.27 1607.55 1389.85V1389.85ZM1591.51 1389.88C1589.83 1382.93 1592.87 1377.49 1599.29 1377.48C1605.69 1377.47 1611.32 1382.83 1613.01 1389.84C1614.69 1396.79 1611.69 1402.23 1605.23 1402.24C1598.76 1402.25 1593.2 1396.89 1591.51 1389.88Z" fill="#94B0ED"/>
<path d="M1639.71 1389.8C1638.65 1385.45 1635.71 1382.17 1632.53 1382.17C1629.35 1382.19 1628.05 1385.37 1629.12 1389.81C1630.19 1394.19 1633.08 1397.44 1636.29 1397.43C1639.51 1397.43 1640.77 1394.2 1639.71 1389.8V1389.8ZM1623.67 1389.83C1621.99 1382.88 1625.01 1377.44 1631.45 1377.43C1637.84 1377.41 1643.47 1382.77 1645.16 1389.79C1646.85 1396.73 1643.84 1402.17 1637.37 1402.19C1630.91 1402.2 1625.36 1396.83 1623.67 1389.83Z" fill="#94B0ED"/>
<path d="M1671.85 1389.75C1670.8 1385.4 1667.87 1382.12 1664.68 1382.12C1661.51 1382.13 1660.2 1385.31 1661.28 1389.76C1662.33 1394.13 1665.23 1397.39 1668.45 1397.37C1671.67 1397.37 1672.92 1394.15 1671.85 1389.75V1389.75ZM1655.81 1389.77C1654.13 1382.83 1657.17 1377.39 1663.6 1377.37C1670 1377.36 1675.63 1382.72 1677.32 1389.73C1679 1396.67 1676 1402.12 1669.53 1402.13C1663.07 1402.15 1657.51 1396.77 1655.81 1389.77Z" fill="#94B0ED"/>
<path d="M1704.01 1389.69C1702.96 1385.35 1700.01 1382.07 1696.84 1382.07C1693.65 1382.08 1692.36 1385.25 1693.43 1389.71C1694.49 1394.08 1697.39 1397.33 1700.6 1397.32C1703.81 1397.32 1705.08 1394.09 1704.01 1389.69V1389.69ZM1687.97 1389.72C1686.29 1382.77 1689.33 1377.33 1695.76 1377.32C1702.16 1377.31 1707.77 1382.67 1709.47 1389.68C1711.16 1396.61 1708.15 1402.07 1701.68 1402.08C1695.21 1402.08 1689.67 1396.72 1687.97 1389.72Z" fill="#94B0ED"/>
<path d="M1722.59 1382.85L1718.61 1383.88L1716.47 1379.57L1722.92 1377.51H1726.55L1732.39 1401.61L1727.13 1401.63L1722.59 1382.85" fill="#94B0ED"/>
<path d="M1744.09 1382.81L1740.12 1383.84L1737.97 1379.53L1744.43 1377.48L1748.05 1377.47L1753.89 1401.57L1748.64 1401.59L1744.09 1382.81" fill="#94B0ED"/>
<path d="M1779 1389.56C1777.95 1385.21 1775.01 1381.93 1771.83 1381.95C1768.65 1381.95 1767.35 1385.13 1768.43 1389.57C1769.48 1393.96 1772.37 1397.2 1775.6 1397.2C1778.81 1397.19 1780.07 1393.97 1779 1389.56V1389.56ZM1762.96 1389.59C1761.28 1382.64 1764.32 1377.2 1770.75 1377.19C1777.15 1377.17 1782.77 1382.55 1784.47 1389.55C1786.15 1396.49 1783.15 1401.93 1776.68 1401.95C1770.21 1401.96 1764.65 1396.6 1762.96 1389.59Z" fill="#94B0ED"/>
<path d="M1437.35 1443.88L1433.39 1444.92L1431.23 1440.61L1437.68 1438.55H1441.32L1447.15 1462.65H1441.89L1437.35 1443.88" fill="#94B0ED"/>
<path d="M1472.25 1450.64C1471.2 1446.29 1468.27 1443.01 1465.09 1443.01C1461.91 1443.03 1460.6 1446.21 1461.68 1450.65C1462.73 1455.03 1465.64 1458.28 1468.85 1458.27C1472.07 1458.27 1473.32 1455.04 1472.25 1450.64V1450.64ZM1456.21 1450.67C1454.53 1443.72 1457.57 1438.28 1464 1438.27C1470.4 1438.25 1476.03 1443.61 1477.72 1450.63C1479.4 1457.57 1476.4 1463.01 1469.93 1463.03C1463.47 1463.04 1457.92 1457.67 1456.21 1450.67Z" fill="#94B0ED"/>
<path d="M1557.89 1450.49C1556.85 1446.15 1553.91 1442.87 1550.73 1442.87C1547.55 1442.88 1546.24 1446.07 1547.32 1450.51C1548.37 1454.88 1551.28 1458.13 1554.49 1458.12C1557.71 1458.12 1558.97 1454.91 1557.89 1450.49V1450.49ZM1541.85 1450.52C1540.17 1443.57 1543.21 1438.13 1549.64 1438.12C1556.04 1438.11 1561.67 1443.47 1563.36 1450.48C1565.04 1457.43 1562.04 1462.87 1555.57 1462.88C1549.11 1462.89 1543.56 1457.53 1541.85 1450.52Z" fill="#94B0ED"/>
<path d="M1590.05 1450.44C1589 1446.09 1586.07 1442.81 1582.88 1442.81C1579.71 1442.83 1578.4 1446.01 1579.47 1450.45C1580.53 1454.83 1583.43 1458.08 1586.64 1458.07C1589.85 1458.07 1591.12 1454.85 1590.05 1450.44V1450.44ZM1574.01 1450.47C1572.33 1443.52 1575.37 1438.08 1581.8 1438.07C1588.2 1438.05 1593.81 1443.41 1595.52 1450.43C1597.2 1457.37 1594.19 1462.81 1587.72 1462.83C1581.25 1462.84 1575.71 1457.47 1574.01 1450.47Z" fill="#94B0ED"/>
<path d="M1532.84 1584.8C1531.8 1580.45 1528.85 1577.17 1525.68 1577.19C1522.49 1577.19 1521.19 1580.37 1522.27 1584.81C1523.32 1589.2 1526.23 1592.44 1529.44 1592.44C1532.65 1592.43 1533.92 1589.21 1532.84 1584.8V1584.8ZM1516.8 1584.83C1515.12 1577.88 1518.16 1572.44 1524.59 1572.43C1530.99 1572.41 1536.61 1577.77 1538.31 1584.79C1539.99 1591.73 1536.99 1597.17 1530.52 1597.19C1524.05 1597.2 1518.51 1591.84 1516.8 1584.83" fill="#94B0ED"/>
<path d="M1551.43 1577.96L1547.45 1578.99L1545.31 1574.68L1551.76 1572.63L1555.39 1572.61L1561.23 1596.72L1555.97 1596.73L1551.43 1577.96" fill="#94B0ED"/>
<path d="M1465.79 1578.11L1461.81 1579.13L1459.67 1574.83L1466.12 1572.76H1469.75L1475.59 1596.87L1470.33 1596.88L1465.79 1578.11" fill="#94B0ED"/>
<path d="M1500.69 1584.85C1499.64 1580.51 1496.71 1577.23 1493.52 1577.24C1490.33 1577.24 1489.04 1580.43 1490.11 1584.87C1491.17 1589.25 1494.07 1592.49 1497.28 1592.49C1500.49 1592.48 1501.76 1589.27 1500.69 1584.85V1584.85ZM1484.65 1584.88C1482.97 1577.93 1486.01 1572.49 1492.44 1572.48C1498.84 1572.47 1504.45 1577.84 1506.16 1584.84C1507.84 1591.79 1504.83 1597.23 1498.36 1597.24C1491.89 1597.25 1486.35 1591.89 1484.65 1584.88" fill="#94B0ED"/>
<path d="M1586.33 1584.71C1585.28 1580.36 1582.35 1577.08 1579.16 1577.09C1575.97 1577.09 1574.68 1580.28 1575.75 1584.72C1576.81 1589.11 1579.71 1592.35 1582.92 1592.35C1586.13 1592.33 1587.4 1589.12 1586.33 1584.71V1584.71ZM1570.29 1584.73C1568.61 1577.79 1571.65 1572.35 1578.08 1572.33C1584.48 1572.33 1590.09 1577.69 1591.8 1584.69C1593.48 1591.64 1590.47 1597.08 1584 1597.09C1577.53 1597.11 1571.99 1591.75 1570.29 1584.73Z" fill="#F99746"/>
<path d="M1618.48 1584.65C1617.44 1580.31 1614.49 1577.03 1611.32 1577.04C1608.13 1577.04 1606.83 1580.23 1607.91 1584.67C1608.96 1589.05 1611.87 1592.29 1615.08 1592.29C1618.29 1592.28 1619.56 1589.07 1618.48 1584.65V1584.65ZM1602.44 1584.68C1600.76 1577.73 1603.8 1572.29 1610.23 1572.28C1616.63 1572.28 1622.25 1577.64 1623.95 1584.64C1625.63 1591.59 1622.63 1597.03 1616.16 1597.04C1609.69 1597.05 1604.15 1591.69 1602.44 1584.68" fill="#F99746"/>
<path d="M1493.12 1627.97C1492.07 1623.63 1489.12 1620.35 1485.95 1620.36C1482.76 1620.36 1481.45 1623.55 1482.53 1627.99C1483.6 1632.37 1486.49 1635.61 1489.71 1635.61C1492.92 1635.6 1494.19 1632.39 1493.12 1627.97V1627.97ZM1477.08 1628C1475.39 1621.05 1478.43 1615.61 1484.87 1615.6C1491.25 1615.59 1496.88 1620.95 1498.57 1627.96C1500.25 1634.91 1497.25 1640.35 1490.79 1640.36C1484.32 1640.37 1478.77 1635.01 1477.08 1628Z" fill="#94B0ED"/>
<path d="M1511.69 1621.13L1507.72 1622.17L1505.57 1617.85L1512.03 1615.8L1515.65 1615.79L1521.49 1639.89L1516.24 1639.91L1511.69 1621.13" fill="#94B0ED"/>
<path d="M1546.6 1627.88C1545.55 1623.53 1542.61 1620.27 1539.43 1620.27C1536.25 1620.27 1534.95 1623.45 1536.03 1627.91C1537.08 1632.28 1539.97 1635.52 1543.2 1635.52C1546.41 1635.51 1547.67 1632.29 1546.6 1627.88ZM1530.56 1627.91C1528.88 1620.97 1531.92 1615.52 1538.35 1615.51C1544.75 1615.51 1550.37 1620.87 1552.07 1627.88C1553.75 1634.81 1550.75 1640.27 1544.28 1640.27C1537.81 1640.28 1532.25 1634.92 1530.56 1627.91Z" fill="#94B0ED"/>
<path d="M1578.76 1627.83C1577.71 1623.48 1574.76 1620.2 1571.59 1620.21C1568.4 1620.21 1567.09 1623.4 1568.17 1627.84C1569.24 1632.23 1572.13 1635.47 1575.35 1635.47C1578.56 1635.45 1579.83 1632.24 1578.76 1627.83V1627.83ZM1562.72 1627.85C1561.03 1620.91 1564.07 1615.47 1570.51 1615.45C1576.89 1615.44 1582.52 1620.81 1584.21 1627.81C1585.89 1634.76 1582.89 1640.2 1576.43 1640.21C1569.96 1640.23 1564.41 1634.87 1562.72 1627.85Z" fill="#94B0ED"/>
<path d="M1622.2 1450.39C1621.16 1446.04 1618.21 1442.76 1615.04 1442.76C1611.85 1442.77 1610.55 1445.96 1611.63 1450.4C1612.68 1454.77 1615.59 1458.03 1618.8 1458.01C1622.01 1458.01 1623.28 1454.79 1622.2 1450.39V1450.39ZM1606.16 1450.41C1604.48 1443.47 1607.52 1438.03 1613.96 1438.01C1620.35 1438 1625.97 1443.36 1627.67 1450.37C1629.35 1457.32 1626.35 1462.76 1619.88 1462.77C1613.41 1462.79 1607.87 1457.41 1606.16 1450.41Z" fill="#94B0ED"/>
<path d="M1654.36 1450.33C1653.31 1445.99 1650.37 1442.71 1647.19 1442.71C1644.01 1442.72 1642.71 1445.89 1643.79 1450.35C1644.84 1454.72 1647.73 1457.97 1650.95 1457.96C1654.16 1457.96 1655.43 1454.73 1654.36 1450.33V1450.33ZM1638.32 1450.36C1636.64 1443.41 1639.68 1437.97 1646.11 1437.96C1652.51 1437.95 1658.12 1443.31 1659.83 1450.32C1661.51 1457.27 1658.49 1462.71 1652.03 1462.72C1645.57 1462.72 1640.01 1457.36 1638.32 1450.36Z" fill="#94B0ED"/>
<path d="M1573.68 1740.97C1572.63 1736.63 1569.69 1733.35 1566.51 1733.36C1563.33 1733.36 1562.03 1736.55 1563.11 1740.99C1564.16 1745.37 1567.05 1748.61 1570.27 1748.61C1573.49 1748.6 1574.75 1745.39 1573.68 1740.97V1740.97ZM1557.64 1741C1555.96 1734.05 1559 1728.61 1565.43 1728.6C1571.83 1728.59 1577.44 1733.95 1579.15 1740.96C1580.83 1747.91 1577.81 1753.35 1571.36 1753.36C1564.89 1753.37 1559.33 1748.01 1557.64 1741Z" fill="#F99746"/>
<path d="M1592.27 1734.13L1588.29 1735.16L1586.15 1730.85L1592.59 1728.8L1596.23 1728.79L1602.07 1752.89L1596.8 1752.91L1592.27 1734.13" fill="#F99746"/>
<path d="M1491.96 1673.75L1488 1674.77L1485.84 1670.47L1492.29 1668.4H1495.93L1501.76 1692.51L1496.51 1692.52L1491.96 1673.75" fill="#94B0ED"/>
<path d="M1526.87 1680.49C1525.81 1676.15 1522.88 1672.87 1519.69 1672.88C1516.52 1672.88 1515.21 1676.07 1516.29 1680.51C1517.35 1684.89 1520.24 1688.13 1523.47 1688.13C1526.68 1688.12 1527.93 1684.91 1526.87 1680.49V1680.49ZM1510.83 1680.52C1509.15 1673.57 1512.19 1668.13 1518.61 1668.12C1525.01 1668.11 1530.64 1673.48 1532.33 1680.48C1534.01 1687.43 1531.01 1692.87 1524.55 1692.88C1518.08 1692.89 1512.52 1687.53 1510.83 1680.52Z" fill="#94B0ED"/>
<path d="M1559.03 1680.44C1557.97 1676.09 1555.04 1672.81 1551.85 1672.83C1548.67 1672.83 1547.37 1676.01 1548.44 1680.45C1549.51 1684.84 1552.4 1688.08 1555.61 1688.08C1558.83 1688.07 1560.09 1684.85 1559.03 1680.44V1680.44ZM1542.99 1680.47C1541.31 1673.52 1544.35 1668.08 1550.77 1668.07C1557.17 1668.05 1562.79 1673.41 1564.49 1680.43C1566.17 1687.37 1563.16 1692.81 1556.69 1692.83C1550.23 1692.84 1544.68 1687.48 1542.99 1680.47Z" fill="#94B0ED"/>
<path d="M1577.6 1673.6L1573.64 1674.63L1571.48 1670.32L1577.93 1668.27L1581.57 1668.25L1587.4 1692.36L1582.15 1692.37L1577.6 1673.6" fill="#94B0ED"/>
<path d="M1506.63 1734.28L1502.65 1735.31L1500.51 1731L1506.95 1728.93H1510.59L1516.43 1753.04L1511.16 1753.05L1506.63 1734.28" fill="#94B0ED"/>
<path d="M1541.53 1741.03C1540.48 1736.68 1537.53 1733.4 1534.36 1733.41C1531.17 1733.41 1529.87 1736.6 1530.95 1741.04C1532.01 1745.43 1534.91 1748.67 1538.12 1748.67C1541.33 1748.65 1542.6 1745.44 1541.53 1741.03V1741.03ZM1525.48 1741.05C1523.8 1734.11 1526.84 1728.67 1533.28 1728.65C1539.67 1728.64 1545.29 1734 1546.99 1741.01C1548.67 1747.96 1545.67 1753.4 1539.2 1753.41C1532.73 1753.43 1527.19 1748.07 1525.48 1741.05Z" fill="#94B0ED"/>
<path d="M1627.17 1740.88C1626.12 1736.53 1623.17 1733.25 1620 1733.27C1616.81 1733.27 1615.51 1736.45 1616.59 1740.89C1617.65 1745.28 1620.55 1748.52 1623.76 1748.52C1626.97 1748.51 1628.24 1745.29 1627.17 1740.88V1740.88ZM1611.12 1740.91C1609.44 1733.96 1612.48 1728.52 1618.92 1728.51C1625.31 1728.51 1630.93 1733.87 1632.63 1740.87C1634.31 1747.81 1631.31 1753.25 1624.84 1753.27C1618.37 1753.28 1612.83 1747.92 1611.12 1740.91Z" fill="#94B0ED"/>
<path d="M1659.32 1740.83C1658.27 1736.48 1655.33 1733.2 1652.15 1733.21C1648.97 1733.21 1647.67 1736.4 1648.75 1740.84C1649.8 1745.23 1652.69 1748.47 1655.91 1748.47C1659.13 1748.45 1660.39 1745.24 1659.32 1740.83V1740.83ZM1643.28 1740.85C1641.6 1733.91 1644.64 1728.47 1651.07 1728.45C1657.47 1728.44 1663.08 1733.81 1664.79 1740.81C1666.47 1747.76 1663.45 1753.2 1657 1753.21C1650.53 1753.23 1644.97 1747.87 1643.28 1740.85Z" fill="#94B0ED"/>
<path d="M1586.08 1783.71C1585.03 1779.37 1582.09 1776.09 1578.91 1776.09C1575.73 1776.09 1574.43 1779.28 1575.51 1783.73C1576.56 1788.11 1579.45 1791.35 1582.67 1791.35C1585.89 1791.33 1587.15 1788.12 1586.08 1783.71V1783.71ZM1570.04 1783.73C1568.36 1776.8 1571.4 1771.35 1577.83 1771.33C1584.23 1771.33 1589.84 1776.69 1591.55 1783.71C1593.23 1790.64 1590.21 1796.09 1583.75 1796.09C1577.29 1796.11 1571.73 1790.75 1570.04 1783.73Z" fill="#F99746"/>
<path d="M1604.65 1776.87L1600.69 1777.91L1598.53 1773.6L1604.99 1771.53H1608.63L1614.45 1795.64H1609.2L1604.65 1776.87" fill="#F99746"/>
<path d="M1553.92 1783.76C1552.88 1779.43 1549.93 1776.15 1546.76 1776.15C1543.57 1776.15 1542.27 1779.33 1543.35 1783.79C1544.4 1788.16 1547.31 1791.4 1550.52 1791.4C1553.73 1791.39 1555 1788.17 1553.92 1783.76V1783.76ZM1537.88 1783.79C1536.2 1776.85 1539.24 1771.4 1545.67 1771.39C1552.07 1771.39 1557.69 1776.75 1559.39 1783.76C1561.07 1790.69 1558.07 1796.15 1551.6 1796.15C1545.13 1796.16 1539.59 1790.8 1537.88 1783.79Z" fill="#94B0ED"/>
<path d="M1639.57 1783.61C1638.52 1779.28 1635.57 1776 1632.4 1776C1629.21 1776.01 1627.91 1779.19 1628.99 1783.64C1630.05 1788.01 1632.95 1791.27 1636.16 1791.25C1639.37 1791.25 1640.64 1788.03 1639.57 1783.61ZM1623.52 1783.65C1621.84 1776.71 1624.88 1771.27 1631.32 1771.25C1637.71 1771.24 1643.33 1776.6 1645.03 1783.61C1646.71 1790.55 1643.71 1796 1637.24 1796.01C1630.77 1796.01 1625.23 1790.65 1623.52 1783.65Z" fill="#94B0ED"/>
<path d="M1671.72 1783.56C1670.67 1779.23 1667.73 1775.95 1664.55 1775.95C1661.37 1775.96 1660.07 1779.13 1661.13 1783.59C1662.2 1787.96 1665.09 1791.2 1668.31 1791.2C1671.53 1791.2 1672.79 1787.97 1671.72 1783.56ZM1655.68 1783.59C1654 1776.65 1657.04 1771.2 1663.47 1771.2C1669.87 1771.19 1675.48 1776.55 1677.19 1783.56C1678.87 1790.49 1675.85 1795.95 1669.39 1795.95C1662.93 1795.96 1657.37 1790.6 1655.68 1783.59Z" fill="#94B0ED"/>
<path d="M1691.48 1740.77C1690.43 1736.43 1687.48 1733.15 1684.31 1733.16C1681.12 1733.16 1679.81 1736.35 1680.89 1740.79C1681.96 1745.17 1684.85 1748.41 1688.07 1748.41C1691.28 1748.4 1692.55 1745.19 1691.48 1740.77V1740.77ZM1675.44 1740.8C1673.75 1733.85 1676.79 1728.41 1683.23 1728.4C1689.61 1728.39 1695.24 1733.76 1696.93 1740.76C1698.61 1747.71 1695.61 1753.15 1689.15 1753.16C1682.68 1753.17 1677.13 1747.81 1675.44 1740.8Z" fill="#94B0ED"/>
<path d="M1723.63 1740.72C1722.57 1736.37 1719.64 1733.09 1716.45 1733.11C1713.28 1733.11 1711.97 1736.29 1713.05 1740.73C1714.11 1745.12 1717 1748.36 1720.23 1748.36C1723.44 1748.35 1724.69 1745.13 1723.63 1740.72V1740.72ZM1707.59 1740.75C1705.91 1733.8 1708.95 1728.36 1715.37 1728.35C1721.77 1728.33 1727.4 1733.69 1729.09 1740.71C1730.77 1747.65 1727.77 1753.09 1721.31 1753.11C1714.84 1753.12 1709.28 1747.76 1707.59 1740.75Z" fill="#94B0ED"/>
<path d="M2562.28 1325.06L2558.3 1326.09L2556.15 1321.78L2562.61 1319.72L2566.24 1319.72L2572.07 1343.82L2566.82 1343.84L2562.28 1325.06" fill="#94B0ED"/>
<path d="M2597.19 1331.81C2596.13 1327.46 2593.19 1324.19 2590.01 1324.19C2586.83 1324.2 2585.52 1327.38 2586.61 1331.83C2587.66 1336.2 2590.55 1339.45 2593.77 1339.44C2596.99 1339.44 2598.24 1336.22 2597.19 1331.81ZM2581.14 1331.83C2579.47 1324.89 2582.5 1319.45 2588.92 1319.44C2595.33 1319.43 2600.96 1324.79 2602.65 1331.8C2604.33 1338.74 2601.31 1344.18 2594.85 1344.2C2588.4 1344.21 2582.84 1338.85 2581.14 1331.83" fill="#94B0ED"/>
<path d="M2629.34 1331.76C2628.29 1327.41 2625.34 1324.13 2622.16 1324.14C2618.97 1324.14 2617.68 1327.33 2618.74 1331.77C2619.81 1336.14 2622.71 1339.4 2625.92 1339.38C2629.14 1339.38 2630.41 1336.17 2629.34 1331.76ZM2613.28 1331.78C2611.61 1324.84 2614.65 1319.39 2621.09 1319.38C2627.48 1319.37 2633.09 1324.74 2634.79 1331.75C2636.47 1338.69 2633.48 1344.13 2627.01 1344.14C2620.54 1344.16 2614.99 1338.8 2613.28 1331.78Z" fill="#94B0ED"/>
<path d="M2661.5 1331.7C2660.43 1327.36 2657.5 1324.07 2654.31 1324.08C2651.15 1324.09 2649.84 1327.27 2650.92 1331.72C2651.97 1336.09 2654.87 1339.34 2658.09 1339.33C2661.3 1339.33 2662.56 1336.1 2661.5 1331.7V1331.7ZM2645.45 1331.72C2643.77 1324.78 2646.81 1319.34 2653.23 1319.33C2659.63 1319.32 2665.26 1324.68 2666.95 1331.69C2668.64 1338.64 2665.64 1344.07 2659.17 1344.09C2652.71 1344.1 2647.14 1338.73 2645.45 1331.72Z" fill="#94B0ED"/>
<path d="M2680.07 1324.86L2676.09 1325.89L2673.94 1321.59L2680.4 1319.53L2684.03 1319.52L2689.87 1343.63L2684.62 1343.64L2680.07 1324.86Z" fill="#94B0ED"/>
<path d="M2543.68 1389.63C2542.63 1385.3 2539.69 1382.02 2536.52 1382.02C2533.32 1382.03 2532.02 1385.2 2533.1 1389.66C2534.17 1394.03 2537.06 1397.28 2540.27 1397.27C2543.48 1397.27 2544.75 1394.04 2543.68 1389.63ZM2527.64 1389.67C2525.95 1382.72 2528.99 1377.28 2535.44 1377.27C2541.82 1377.26 2547.44 1382.62 2549.14 1389.63C2550.82 1396.56 2547.81 1402.02 2541.35 1402.03C2534.89 1402.03 2529.33 1396.67 2527.64 1389.67Z" fill="#94B0ED"/>
<path d="M2562.28 1382.78L2558.3 1383.82L2556.15 1379.52L2562.61 1377.45H2566.24L2572.07 1401.56L2566.82 1401.57L2562.28 1382.78Z" fill="#94B0ED"/>
<path d="M2597.19 1389.54C2596.13 1385.2 2593.19 1381.92 2590.01 1381.92C2586.83 1381.93 2585.52 1385.12 2586.61 1389.56C2587.66 1393.93 2590.55 1397.18 2593.77 1397.17C2596.99 1397.17 2598.24 1393.94 2597.19 1389.54ZM2581.14 1389.57C2579.47 1382.62 2582.5 1377.18 2588.92 1377.17C2595.33 1377.16 2600.96 1382.52 2602.65 1389.53C2604.33 1396.48 2601.31 1401.92 2594.85 1401.93C2588.4 1401.94 2582.84 1396.57 2581.14 1389.57" fill="#F99746"/>
<path d="M2629.34 1389.49C2628.29 1385.14 2625.34 1381.86 2622.16 1381.86C2618.97 1381.88 2617.68 1385.05 2618.74 1389.51C2619.81 1393.88 2622.71 1397.13 2625.92 1397.12C2629.14 1397.12 2630.41 1393.89 2629.34 1389.49V1389.49ZM2613.28 1389.52C2611.61 1382.57 2614.65 1377.13 2621.09 1377.12C2627.48 1377.1 2633.09 1382.46 2634.79 1389.48C2636.47 1396.42 2633.48 1401.86 2627.01 1401.88C2620.54 1401.89 2614.99 1396.52 2613.28 1389.52Z" fill="#F99746"/>
<path d="M2661.5 1389.44C2660.43 1385.09 2657.5 1381.81 2654.31 1381.81C2651.15 1381.82 2649.84 1385 2650.92 1389.45C2651.97 1393.82 2654.87 1397.08 2658.09 1397.06C2661.3 1397.06 2662.56 1393.84 2661.5 1389.44V1389.44ZM2645.45 1389.46C2643.77 1382.52 2646.81 1377.08 2653.23 1377.06C2659.63 1377.05 2665.26 1382.41 2666.95 1389.42C2668.64 1396.37 2665.64 1401.81 2659.17 1401.82C2652.71 1401.84 2647.14 1396.46 2645.45 1389.46Z" fill="#F99746"/>
<path d="M2680.07 1382.6L2676.09 1383.63L2673.94 1379.32L2680.4 1377.25H2684.03L2689.87 1401.36L2684.62 1401.37L2680.07 1382.6" fill="#F99746"/>
<path d="M2673.53 1716.17L2669.57 1717.2L2667.41 1712.89L2673.86 1710.82H2677.5L2683.33 1734.93L2678.08 1734.94L2673.53 1716.17" fill="#94B0ED"/>
<path d="M2708.43 1722.92C2707.4 1718.57 2704.45 1715.29 2701.27 1715.3C2698.09 1715.3 2696.79 1718.49 2697.85 1722.93C2698.92 1727.32 2701.82 1730.56 2705.03 1730.56C2708.25 1730.54 2709.52 1727.33 2708.43 1722.92ZM2692.39 1722.94C2690.71 1716 2693.76 1710.56 2700.19 1710.54C2706.58 1710.53 2712.21 1715.89 2713.9 1722.9C2715.58 1729.85 2712.58 1735.29 2706.12 1735.3C2699.65 1735.32 2694.11 1729.96 2692.39 1722.94" fill="#94B0ED"/>
<path d="M2740.58 1722.87C2739.53 1718.52 2736.6 1715.24 2733.41 1715.26C2730.23 1715.26 2728.93 1718.44 2729.99 1722.88C2731.05 1727.26 2733.95 1730.51 2737.17 1730.5C2740.37 1730.5 2741.64 1727.28 2740.58 1722.87V1722.87ZM2724.54 1722.9C2722.86 1715.95 2725.89 1710.51 2732.32 1710.5C2738.72 1710.48 2744.34 1715.84 2746.04 1722.86C2747.72 1729.8 2744.71 1735.24 2738.25 1735.26C2731.78 1735.27 2726.23 1729.91 2724.54 1722.9Z" fill="#94B0ED"/>
<path d="M2641.93 1755.42L2637.95 1756.44L2635.8 1752.13L2642.26 1750.08L2645.89 1750.07L2651.73 1774.17L2646.47 1774.19L2641.93 1755.42" fill="#94B0ED"/>
<path d="M2676.83 1762.16C2675.78 1757.82 2672.85 1754.54 2669.65 1754.55C2666.49 1754.55 2665.18 1757.74 2666.26 1762.18C2667.32 1766.56 2670.21 1769.8 2673.42 1769.8C2676.65 1769.79 2677.9 1766.58 2676.83 1762.16V1762.16ZM2660.8 1762.19C2659.12 1755.24 2662.15 1749.8 2668.58 1749.79C2674.97 1749.78 2680.59 1755.15 2682.3 1762.15C2683.98 1769.1 2680.97 1774.54 2674.5 1774.55C2668.04 1774.56 2662.49 1769.2 2660.8 1762.19" fill="#94B0ED"/>
<path d="M2708.99 1762.11C2707.94 1757.76 2704.99 1754.48 2701.81 1754.5C2698.63 1754.5 2697.33 1757.68 2698.41 1762.12C2699.48 1766.51 2702.36 1769.75 2705.58 1769.75C2708.79 1769.74 2710.06 1766.52 2708.99 1762.11V1762.11ZM2692.94 1762.14C2691.26 1755.19 2694.29 1749.75 2700.74 1749.74C2707.13 1749.72 2712.76 1755.1 2714.44 1762.1C2716.12 1769.04 2713.12 1774.48 2706.66 1774.5C2700.19 1774.51 2694.64 1769.15 2692.94 1762.14Z" fill="#94B0ED"/>
<path d="M2772.74 1722.81C2771.7 1718.46 2768.75 1715.18 2765.58 1715.18C2762.39 1715.2 2761.09 1718.38 2762.17 1722.82C2763.24 1727.2 2766.13 1730.45 2769.35 1730.44C2772.56 1730.44 2773.82 1727.22 2772.74 1722.81ZM2756.69 1722.84C2755.02 1715.89 2758.06 1710.45 2764.51 1710.44C2770.88 1710.42 2776.51 1715.78 2778.2 1722.8C2779.89 1729.74 2776.89 1735.18 2770.42 1735.2C2763.96 1735.21 2758.4 1729.85 2756.69 1722.84" fill="#94B0ED"/>
<path d="M2791.33 1715.97L2787.36 1717L2785.21 1712.69L2791.65 1710.63H2795.28L2801.12 1734.73L2795.86 1734.75L2791.33 1715.97" fill="#94B0ED"/>
<path d="M3224.9 1444.45C3236.84 1443.33 3264.31 1446.54 3282.26 1471.02C3300.18 1495.5 3287.77 1524.37 3332.61 1546.61C3377.45 1568.85 3371 1596.9 3362.03 1632.09C3353.08 1667.28 3315.47 1709.81 3270.63 1707.73C3225.79 1705.66 3149.11 1613.34 3151.88 1582.38C3154.64 1551.44 3167.96 1547.73 3157.39 1527.27C3140.84 1495.2 3171.53 1449.52 3224.9 1444.45" fill="#163560"/>
<path d="M3242.41 1591.29C3242.62 1590.97 3242.74 1590.78 3242.72 1590.77C3237.75 1589 3237.33 1581.74 3241.93 1551.56L3239.54 1551.66L3199.51 1553.58C3199.51 1553.58 3198.58 1565.94 3196.89 1577.48C3196.55 1579.77 3196.19 1582.04 3195.79 1584.16C3165.67 1614.16 3230.51 1627.72 3242.41 1591.29" fill="#FFB27D"/>
<path d="M3160.57 2403.49H3247.06C3247.06 2403.49 3249.13 2390.32 3244.61 2380.32C3240.28 2370.72 3233.55 2364.8 3232.93 2357.45C3227.45 2363.11 3220.69 2366.75 3208.17 2365.07C3206.64 2367.55 3198.28 2380.84 3193.18 2384.52C3187.52 2388.57 3162.32 2387.13 3160.57 2403.49" fill="#143D7A"/>
<path d="M3262.09 2049.99C3254.04 2069.87 3247.83 2087.93 3249.79 2103.86V2103.96C3250.02 2105.72 3250.34 2107.44 3250.77 2109.16C3279.14 2222.62 3238.91 2370.39 3238.91 2370.39C3238.91 2370.39 3228.29 2372.85 3220.59 2373.53C3206.95 2374.75 3204.97 2370.69 3204.97 2370.69C3204.97 2370.69 3191.43 2250.2 3147.62 2019.85C3141.31 1986.58 3138.8 1968.17 3136.53 1938.6C3135.84 1929.74 3135.19 1919.89 3134.45 1908.34C3132.47 1877.31 3137.17 1825.05 3160.47 1811.33C3171.07 1805.06 3185.48 1806.79 3204.88 1822.06C3206.42 1823.28 3207.87 1824.72 3209.58 1825.94C3328.74 1911.72 3286.71 1989.32 3262.09 2049.99" fill="#2F539B"/>
<path d="M3249.78 2103.86C3248.44 2099.2 3205.57 1949.45 3204.85 1938.08C3203.31 1913.61 3259.94 1981.17 3262.09 2049.99C3254.04 2069.87 3247.84 2087.93 3249.78 2103.86Z" fill="#233862"/>
<path d="M3553.03 2221.49L3517.02 2142.85C3517.02 2142.85 3504.18 2146.45 3496.97 2154.72C3490.06 2162.65 3485.04 2161.24 3469.26 2150.29C3475.21 2159.47 3476 2164.87 3479.68 2176.95C3482.58 2177.29 3499.08 2193.25 3515.97 2197.65C3522.69 2199.4 3537.42 2226.72 3553.03 2221.49" fill="#143D7A"/>
<path d="M3175.66 1845.84C3175.66 1845.84 3253.15 2115.24 3281.55 2132.59C3309.92 2149.92 3450.34 2184.41 3491.79 2192.69C3491.79 2192.69 3493.26 2181.48 3491.1 2170.16C3490.61 2167.64 3486.32 2158.6 3486.32 2158.6C3486.32 2158.6 3412.62 2084.84 3340.57 2074.51C3325.5 2072.35 3346.63 1836.77 3244.3 1827.55C3150.82 1819.11 3175.66 1845.84 3175.66 1845.84" fill="#2F539B"/>
<path d="M3060.76 1421.88C3060.76 1421.88 3062.49 1413.26 3064.47 1406.66C3065.31 1403.75 3059.3 1384.59 3055.14 1382.23C3050.98 1379.88 3040.13 1392.78 3043.2 1402.68C3044.78 1407.76 3047.37 1424.32 3047.37 1424.32L3060.76 1421.88" fill="#FFB27D"/>
<path d="M3418.62 1437.89C3419.15 1438.98 3419.89 1440.94 3420.55 1442.78C3420.55 1442.28 3420.55 1441.78 3420.57 1441.31C3420.59 1437.64 3434.27 1417.72 3439.89 1416.46C3445.52 1415.22 3453.45 1433.89 3446.41 1444.2C3442.81 1449.5 3431.92 1468.4 3431.92 1468.4L3419.87 1461.1C3419.87 1461.1 3419.78 1456.02 3416.52 1451.9C3414.89 1449.82 3414.82 1440.05 3414.25 1435.8C3414.25 1435.8 3416.67 1433.86 3418.62 1437.89" fill="#FFB27D"/>
<path d="M3199.5 1553.59C3199.5 1553.59 3198.57 1565.95 3196.88 1577.48C3218.72 1580.11 3233.19 1561.98 3239.53 1551.67L3199.5 1553.59Z" fill="#ED975D"/>
<path d="M3247.04 1546.61C3247.04 1546.61 3262.36 1528.88 3267.82 1512.59C3271.71 1500.96 3272.21 1455.76 3226.74 1455.52C3226.74 1455.52 3213.64 1454.87 3200.27 1461.27C3189.63 1466.36 3173.59 1478.37 3183.42 1519.35L3185.53 1533L3247.04 1546.61" fill="#163560"/>
<path d="M3188.85 1563.33C3188.85 1563.33 3244.64 1572.57 3249.87 1537.73C3255.08 1502.9 3265.8 1480.64 3230.4 1473.27C3195 1465.89 3186.06 1478.15 3181.51 1489.34C3176.94 1500.55 3174.46 1560.03 3188.85 1563.33" fill="#FFB27D"/>
<path d="M3199.48 1468.4C3199.48 1468.4 3214.28 1511.77 3236.9 1521.31C3259.49 1530.85 3270.63 1526.07 3270.63 1526.07C3270.63 1526.07 3254.72 1509.07 3254.72 1483.52C3254.72 1483.52 3213.9 1450.67 3199.48 1468.4" fill="#163560"/>
<path d="M3208.36 1472.51C3208.36 1472.51 3198.09 1475.21 3188.95 1486.25C3182.95 1493.49 3180.84 1503.56 3178.15 1513.51C3178.15 1513.51 3170.75 1484.01 3186.04 1470.23C3202.26 1455.6 3208.36 1472.51 3208.36 1472.51Z" fill="#163560"/>
<path d="M3434.15 1468.56C3434.15 1468.56 3421.89 1568.63 3396.06 1592.55C3378.13 1609.14 3314.65 1635.93 3299.5 1660.61C3297.69 1663.56 3295.48 1671.91 3293.73 1684.29C3288.61 1720.57 3287.34 1791.41 3310.96 1862.55C3312.06 1865.84 3313.2 1869.13 3314.42 1872.43C3317.62 1881.21 3313.3 1890.95 3304.47 1894.08C3293.37 1898.04 3277.04 1903 3257.74 1906.31C3254.08 1906.95 3250.26 1907.51 3246.41 1908C3193.17 1914.76 3157.14 1902.27 3138.83 1893.03C3130.2 1888.67 3124.97 1879.59 3125.52 1869.92C3126.59 1850.17 3136.49 1830.64 3140.94 1783.16C3144.33 1747.13 3119.75 1696.33 3121.05 1677.16C3121.58 1669.59 3125.33 1635.93 3121.52 1630.72C3096.19 1595.95 3053.61 1562.64 3047.06 1530.89C3039.52 1494.28 3044.38 1421.24 3044.38 1421.24C3046.49 1420.51 3052.18 1418.25 3056.22 1418.25C3063.39 1418.24 3068.44 1424.85 3068.44 1424.85C3068.44 1424.85 3087.45 1496.01 3088.4 1500.8C3093.45 1526.32 3141.99 1563.31 3156.7 1570.72C3172.8 1578.87 3185.67 1583.23 3195.8 1584.17C3195.8 1584.17 3183.84 1604.85 3201.53 1607.72C3222.85 1611.17 3239.33 1586.67 3239.33 1586.67C3239.33 1586.67 3252.27 1590.31 3275.59 1586.87C3294.93 1584.02 3363.8 1560.75 3373.75 1543.08C3380.99 1530.23 3419.23 1458.97 3419.23 1458.97C3419.23 1458.97 3422.77 1456.91 3428.48 1459.88C3434.13 1462.81 3434.15 1468.56 3434.15 1468.56" fill="#AEC3FF"/>
<path d="M3205.06 1544.41C3205.06 1544.41 3202.68 1549.22 3199.45 1549.32C3196.25 1549.4 3188.09 1548.62 3187.54 1547.8C3186.99 1546.97 3185.63 1541.93 3185.63 1541.93C3185.63 1541.93 3199.12 1541.4 3205.06 1544.41" fill="white"/>
<path d="M3310.96 1862.54C3310.96 1862.54 3263.07 1854.33 3259.9 1820.25C3256.51 1783.93 3293.7 1684.22 3293.7 1684.22L3293.74 1684.29C3288.6 1720.57 3287.34 1791.41 3310.96 1862.54" fill="#94B0ED"/>
<path d="M3194.23 1023.85L3189.25 1005.54C3183.88 985.912 3167.15 971.5 3146.94 969.114L3016.8 953.74L3007.04 1036.32L2965.41 1388.91L3503.81 1452.5L3545.45 1099.92L3240.78 1063.93C3218.55 1061.31 3200.12 1045.45 3194.23 1023.85" fill="#F99746"/>
<path d="M3066.76 1227.95L3070.47 1196.58L3186.19 1161.39L3182.4 1193.44L3101.83 1215.96L3174.93 1256.63L3171.1 1289.14L3066.76 1227.95" fill="white"/>
<path d="M3304.95 1137.39L3334.28 1140.85L3208.71 1339.45L3179.39 1335.98L3304.95 1137.39" fill="white"/>
<path d="M3446.45 1240.99L3442.75 1272.36L3327.03 1307.56L3330.81 1275.51L3411.39 1252.98L3338.3 1212.31L3342.13 1179.8L3446.45 1240.99Z" fill="white"/>
<path d="M3415.58 1449.24C3415.58 1449.24 3414 1435.37 3412.61 1432.79C3411.24 1430.2 3414.68 1429.45 3417.6 1435.37C3420.55 1441.31 3426.41 1439.52 3429.35 1445.39C3432.28 1451.24 3429.69 1452.8 3426.07 1452.45C3422.45 1452.11 3415.58 1449.24 3415.58 1449.24Z" fill="#FFB27D"/>
<path d="M3061.74 1417.39C3061.74 1417.39 3069.64 1408.84 3069.59 1405.03C3069.55 1401.2 3075.11 1391.75 3073.57 1390.03C3072 1388.3 3069.27 1391.06 3067.79 1393.64C3066.32 1396.23 3060.29 1396.07 3058.91 1403.14C3057.53 1410.2 3061.74 1417.39 3061.74 1417.39" fill="#FFB27D"/>
<path d="M1811.77 1373.55L2016.21 1463.09V1383.41L1909.69 1339.61L2016.21 1295.81V1216.88L1811.77 1306.43V1373.55Z" fill="#2C3A64"/>
<path d="M2204.18 1161.69L2027.53 1530.96H2102.19L2278.85 1161.69H2204.18Z" fill="#2C3A64"/>
<path d="M2292.52 1216.87V1296.55L2399.05 1340.36L2292.52 1384.16V1463.09L2496.96 1373.54V1306.42L2292.52 1216.87" fill="#2C3A64"/>
<path d="M2027.52 1530.96V1509.87H2102.19V1530.96H2027.52Z" fill="#2C3A64"/>
<path d="M2278.85 1140.59V1161.69H2243.97V1140.61L2278.85 1140.59Z" fill="#2C3A64"/>
<path d="M1811.77 1352.47L2016.21 1442.01V1362.33L1909.69 1318.53L2016.21 1274.72V1195.79L1811.77 1285.33V1352.47Z" fill="#2B478B"/>
<path d="M2204.18 1140.59L2027.53 1509.86H2102.19L2278.85 1140.59H2204.18Z" fill="#2B478B"/>
<path d="M2292.52 1195.78V1275.47L2399.05 1319.27L2292.52 1363.08V1442.01L2496.96 1352.46V1285.34L2292.52 1195.78" fill="#2B478B"/>
<path d="M2958.34 1940.04H2945.89L2843.98 1551.19L2712.98 1051.32H1250L1471.61 1940.04L1455.8 1940.2L1231.51 1039.25L2723.27 1037.96L2724.58 1042.93L2855.54 1545.5L2958.34 1940.04" fill="#94B0ED"/>
<path d="M2960.6 1948.71L2948.6 1950.32L2843.99 1551.19L2855.55 1545.49L2960.6 1948.71" fill="#AEC3FF"/>
<path d="M1459.05 1260.68C1456.33 1263.81 1455.97 1267.31 1457.33 1271.05L1457.36 1271.11C1459.85 1278.01 1468.12 1285.72 1477.72 1293.43C1478.93 1294.43 1480.03 1295.32 1480.99 1296.16C1481.23 1296.37 1481.48 1296.59 1481.72 1296.81C1481.91 1296.99 1482.09 1297.16 1482.28 1297.32C1491.23 1305.57 1487.85 1307.45 1503.93 1324.2C1522.27 1343.27 1534.88 1343.61 1538.47 1341.87C1541.51 1340.39 1535.33 1330.28 1528.51 1318.91C1528.17 1318.36 1527.84 1317.8 1527.51 1317.25C1526.6 1315.75 1525.69 1314.2 1524.79 1312.68C1516.77 1299 1518.83 1292.59 1520.73 1272.23C1522.27 1255.68 1546.47 1179.79 1546.47 1179.79L1511.35 1173.73C1511.35 1173.73 1500.77 1234.16 1489.12 1243.48C1482.88 1248.44 1475.91 1248.49 1469.92 1252.17C1469.49 1252.43 1469.08 1252.69 1468.67 1252.96C1465.27 1255.21 1461.8 1257.55 1459.05 1260.68" fill="#FFB27D"/>
<path d="M1459.05 1260.68C1456.33 1263.81 1455.97 1267.31 1457.33 1271.05L1457.36 1271.11C1460.41 1278 1468.47 1285.68 1477.75 1293.36C1478.96 1294.36 1480.03 1295.29 1480.99 1296.16C1481.23 1296.37 1481.48 1296.59 1481.72 1296.81C1481.91 1296.99 1482.09 1297.16 1482.28 1297.32C1491.23 1305.57 1487.85 1307.45 1503.93 1324.2C1522.27 1343.27 1534.88 1343.61 1538.47 1341.87C1541.51 1340.39 1535.33 1330.28 1528.51 1318.91C1524.93 1317.6 1508.36 1310.87 1495.83 1294.84C1484.79 1280.75 1477.43 1262.65 1469.92 1252.17C1469.49 1252.43 1469.08 1252.69 1468.67 1252.96C1465.27 1255.21 1461.8 1257.55 1459.05 1260.68" fill="#233862"/>
<path d="M1742.28 1238.75C1744.45 1249.59 1759.91 1247.79 1777.17 1243.56C1794.44 1239.35 1790.33 1244.36 1814.91 1241.64C1839.48 1238.92 1846.93 1229.76 1847.68 1226.11C1848.35 1222.85 1836.21 1221.72 1823.19 1220.21C1821.55 1220.03 1819.91 1219.83 1818.25 1219.63C1803.55 1217.79 1792.79 1208.29 1779.43 1200.49C1766.77 1193.12 1747.89 1163.04 1747.89 1163.04L1714.19 1165.72C1714.19 1165.72 1731.88 1192.57 1738.72 1204.25C1742.75 1211.12 1742.53 1220.2 1742.03 1227.21C1741.76 1231.03 1741.52 1234.93 1742.28 1238.75" fill="#FFB27D"/>
<path d="M1777.17 1243.56C1794.44 1239.35 1790.33 1244.36 1814.91 1241.64C1839.48 1238.92 1846.93 1229.76 1847.68 1226.11C1848.35 1222.85 1836.21 1221.72 1823.19 1220.21L1823.07 1220.47C1823.07 1220.47 1808.32 1230.92 1787.87 1231.4C1771.2 1231.81 1753.53 1227.03 1742.03 1227.21C1741.76 1231.03 1741.52 1234.93 1742.28 1238.75C1744.45 1249.59 1759.91 1247.79 1777.17 1243.56Z" fill="#233862"/>
<path d="M1613.13 1023.25L1581.63 1108.03L1540.49 1218.72C1540.49 1218.72 1529.33 1219.8 1518.65 1216.72C1508.81 1213.88 1497.52 1206.44 1497.52 1206.44C1497.52 1206.44 1508.93 1087.59 1530.24 1019.36C1535.71 1001.85 1541.83 987.68 1548.57 979.706C1581.6 940.68 1613.13 1023.25 1613.13 1023.25" fill="#2C3A64"/>
<path d="M1581.11 888.627C1560.47 881.96 1501.6 890.507 1442.47 902.093L1430.08 881.667L1302.35 871.693C1302.35 871.693 1260.21 965.16 1283.28 1024.72C1286.67 1033.47 1293.41 1039.08 1304.9 1039.27H1306.76C1306.76 1039.27 1382.79 1039.23 1407.47 1039.23C1470.99 1039.23 1541.89 995.56 1551.07 993.72C1566.09 990.72 1572.09 1020.75 1587.11 1052.28C1602.12 1083.81 1728.24 1191.92 1728.24 1191.92C1728.24 1191.92 1747.63 1192.11 1755.64 1189.11C1764.25 1185.88 1767.4 1181.68 1767.4 1181.68C1767.4 1181.68 1627.65 903.64 1581.11 888.627" fill="#2F539B"/>
<path d="M1387.76 492.837C1369.86 488.226 1345.35 492.81 1341.3 493.211C1292.7 497.995 1276.37 552.216 1283.73 594.274C1290.52 633.085 1270.83 643.831 1248.01 674.489C1202.26 735.967 1232.16 787.795 1268.26 801.159C1289.92 809.178 1320 788.958 1320 788.958C1320.54 789.171 1414.49 727.4 1452.99 692.585C1517.14 667.486 1433.37 504.571 1387.76 492.837" fill="#2B478B"/>
<path d="M1394.93 670.64C1396.21 675.133 1374.96 683.4 1358.73 680.36C1343.47 677.52 1326.35 659.64 1329.88 657.96C1335.72 655.187 1339.65 648.28 1336.45 610.96L1339.36 611.28L1388.21 616.867C1388.21 616.867 1388.36 632.08 1389.49 646.333C1390.44 658.293 1392.85 663.307 1394.93 670.64" fill="#FFB27D"/>
<path d="M1388.21 616.867C1388.21 616.867 1388.36 632.08 1389.49 646.333C1362.53 647.773 1346.31 624.413 1339.36 611.28L1388.21 616.867Z" fill="#ED975D"/>
<path d="M1398.29 629.613C1398.29 629.613 1334.75 635.88 1331.45 596.253C1328.16 556.613 1317.74 530.733 1358.17 525.053C1398.61 519.373 1407.76 533.84 1412.08 546.8C1416.4 559.76 1414.75 626.96 1398.29 629.613Z" fill="#FFB27D"/>
<path d="M1391.49 518.8C1391.49 518.8 1383.48 567.213 1347.29 578.706C1320.89 587.093 1308.93 581.56 1308.93 581.56C1308.93 581.56 1321.64 564.706 1326.16 541.28C1327.49 534.373 1332.4 528.68 1339.08 526.493C1357.84 520.32 1380.57 503.44 1391.49 518.8" fill="#2B478B"/>
<path d="M1379.51 529.12C1379.51 529.12 1391.49 531.786 1402.11 547.24C1407.91 555.693 1414.61 576.973 1413.47 586.413C1413.47 586.413 1424.6 541.587 1408.37 524.92C1391.17 507.24 1379.51 529.12 1379.51 529.12" fill="#2B478B"/>
<path d="M1280.51 800.84C1281.64 805.654 1282.61 810.08 1283.4 814.174C1284.69 820.76 1285.58 826.44 1286.21 831.454C1288.15 847.094 1287.56 856.347 1288.88 866.48C1289.61 872.147 1290.94 878.094 1293.63 885.547C1296.26 892.814 1365.32 899.28 1404.61 896.68C1417.08 895.867 1426.59 894.107 1429.96 891.2C1443.97 879.027 1442.59 905.8 1444.51 777.694C1445.44 715.2 1391.48 659.547 1391.48 659.547C1391.48 659.547 1387.17 686.24 1333.67 654.48C1331.77 653.36 1310.7 684.56 1290.41 722.987C1268.07 765.427 1274.2 774.414 1280.51 800.84Z" fill="#F99746"/>
<path d="M1581.63 1108.03L1540.49 1218.72C1540.49 1218.72 1529.33 1219.8 1518.65 1216.72C1508.81 1213.88 1497.52 1206.44 1497.52 1206.44C1497.52 1206.44 1508.93 1087.59 1530.24 1019.36L1581.63 1108.03Z" fill="#2B478B"/>
<path d="M1391.49 659.547C1391.49 659.547 1446.55 668.88 1453 692.573C1459.47 716.28 1504.13 848.854 1504.13 848.854C1504.13 848.854 1469.53 860.667 1456.6 847.733C1443.67 834.8 1411.61 727.773 1411.61 727.773L1391.49 659.547Z" fill="#F99746"/>
<path d="M1615.92 818.387L1628.96 813.214C1628.96 813.214 1636.8 811.48 1641.04 812.814C1645.28 814.147 1655.88 814 1655.93 815.747C1655.99 817.48 1643.85 822.894 1643.85 822.894L1643.47 822.747C1648.08 833.187 1671.13 839.147 1672.25 842.974C1673.6 847.614 1662.87 850.014 1657.03 851.467C1651.19 852.92 1636.87 852.774 1629.8 845.334C1624.65 839.88 1615.92 832.4 1615.92 832.4V818.387" fill="#FFB27D"/>
<path d="M1383.63 606.24C1383.63 606.24 1386.29 612.76 1393.33 612.76C1400.36 612.76 1402.27 611.707 1403.6 610.214C1404.93 608.734 1406.25 605.854 1406.25 605.854C1406.25 605.854 1394.59 603.56 1383.63 606.24" fill="white"/>
<path d="M1488.79 803.04L1622.08 813.213C1622.08 813.213 1624.87 826.147 1616.27 840.8C1616.27 840.8 1496.03 864.307 1464.64 852.307C1433.27 840.293 1436.8 783.68 1436.8 783.68L1488.79 803.04" fill="#F99746"/>
<path d="M1286.21 831.453C1288.15 847.093 1287.56 856.347 1288.88 866.48C1338.87 866.64 1405.69 827.88 1405.69 827.88L1286.21 831.453" fill="#ED7D2B"/>
<path d="M1405.69 795.093C1405.69 795.093 1327.83 792.773 1314.7 748.507C1300.28 699.88 1284.13 768.507 1284.13 768.507L1292.72 812.307H1378.16L1405.69 795.093" fill="#ED7D2B"/>
<path d="M1541.45 674.987L1537.25 664.56C1532.73 653.387 1521.89 646.08 1509.84 646.08H1432.21V695.334V905.64H1753.35V695.334H1571.63C1558.36 695.334 1546.43 687.28 1541.45 674.987Z" fill="#AEC3FF"/>
<path d="M1480.65 803.92V785.2L1546.28 756.454V775.574L1500.44 794.427L1546.28 813.267V832.667L1480.65 803.92Z" fill="white"/>
<path d="M1614.47 734.094H1631.96L1571.89 859.64H1554.41L1614.47 734.094Z" fill="white"/>
<path d="M1704.91 785.2V803.92L1639.28 832.667V813.547L1685.11 794.694L1639.28 775.854V756.454L1704.91 785.2" fill="white"/>
<path d="M1405.69 805.36L1411.32 796.507C1411.32 796.507 1415.79 795.054 1422.04 790.667C1429.48 785.44 1428.49 777.614 1432.21 778.454L1432.25 795.64L1431.85 795.707C1447.81 799.96 1466.48 795.334 1466.85 799.307C1467.88 810.24 1459.43 815.16 1452.33 818.587C1446.92 821.2 1440.76 825.133 1430.96 822.08C1423.8 819.853 1412.53 817.587 1412.53 817.587L1405.69 805.36Z" fill="#FFB27D"/>
<path d="M1333.67 654.48C1333.67 654.48 1283.11 657.787 1270.47 677.507C1257.84 697.227 1242.17 797.32 1248.74 831.707C1255.31 866.08 1417.19 825.133 1417.19 825.133L1412.03 795.307C1412.03 795.307 1318.6 795.84 1313.28 783.68C1306.2 767.493 1333.67 654.48 1333.67 654.48" fill="#F99746"/>
<path d="M1577.68 695.227C1577.25 696.533 1585.28 709.773 1596.76 707.48C1603.92 706.04 1613.23 690.627 1605.05 687.227C1591.41 681.56 1578.84 691.72 1577.68 695.227" fill="#FFB27D"/>
</svg>
