<svg width="4947" height="4947" viewBox="0 0 4947 4947" fill="none" xmlns="http://www.w3.org/2000/svg">
<defs>
<linearGradient id="paint0_linear" x1="9073.3" y1="4678.55" x2="3606.3" y2="-1222.33" gradientUnits="userSpaceOnUse">
<stop stop-color="#DAE3FE"/>
<stop offset="1" stop-color="#E9EFFD"/>
</linearGradient>
<linearGradient id="paint1_linear" x1="9620.19" y1="-5320.38" x2="8665.99" y2="-3131.33" gradientUnits="userSpaceOnUse">
<stop stop-color="#4F52FF"/>
<stop offset="1" stop-color="#4042E2"/>
</linearGradient>
<linearGradient id="paint2_linear" x1="6936.95" y1="-840.713" x2="7352.69" y2="-3209.16" gradientUnits="userSpaceOnUse">
<stop stop-color="#4F52FF"/>
<stop offset="1" stop-color="#4042E2"/>
</linearGradient>
<linearGradient id="paint3_linear" x1="3442.84" y1="-2081.55" x2="2121.52" y2="481.025" gradientUnits="userSpaceOnUse">
<stop stop-color="#4F52FF"/>
<stop offset="1" stop-color="#4042E2"/>
</linearGradient>
<linearGradient id="paint4_linear" x1="1942.83" y1="-70.2404" x2="2260.81" y2="-1881.8" gradientUnits="userSpaceOnUse">
<stop stop-color="#4F52FF"/>
<stop offset="1" stop-color="#4042E2"/>
</linearGradient>
<linearGradient id="paint5_linear" x1="2801.74" y1="3029.37" x2="3262.15" y2="3029.37" gradientUnits="userSpaceOnUse">
<stop stop-color="#4F52FF"/>
<stop offset="1" stop-color="#4042E2"/>
</linearGradient>
<linearGradient id="paint6_linear" x1="6925.23" y1="-6209.56" x2="6366.49" y2="-4629.68" gradientUnits="userSpaceOnUse">
<stop stop-color="#4F52FF"/>
<stop offset="1" stop-color="#4042E2"/>
</linearGradient>
<linearGradient id="paint7_linear" x1="5496.26" y1="-6407.93" x2="5155.86" y2="-3514.53" gradientUnits="userSpaceOnUse">
<stop stop-color="#4F52FF"/>
<stop offset="1" stop-color="#4042E2"/>
</linearGradient>
<linearGradient id="paint8_linear" x1="6174.31" y1="3783.59" x2="5916.61" y2="3783.59" gradientUnits="userSpaceOnUse">
<stop stop-color="#09005D"/>
<stop offset="1" stop-color="#1A0F91"/>
</linearGradient>
<linearGradient id="paint9_linear" x1="6098.64" y1="3491.18" x2="6147.83" y2="3920.5" gradientUnits="userSpaceOnUse">
<stop stop-color="#A22B25"/>
<stop offset="1" stop-color="#C0423C"/>
</linearGradient>
<linearGradient id="paint10_linear" x1="5414.39" y1="3863.67" x2="5067.02" y2="3863.67" gradientUnits="userSpaceOnUse">
<stop stop-color="#09005D"/>
<stop offset="1" stop-color="#1A0F91"/>
</linearGradient>
<linearGradient id="paint11_linear" x1="5330.28" y1="3629.06" x2="5350.92" y2="4032.3" gradientUnits="userSpaceOnUse">
<stop stop-color="#A22B25"/>
<stop offset="1" stop-color="#C0423C"/>
</linearGradient>
<linearGradient id="paint12_linear" x1="5884.87" y1="3875.76" x2="6403.95" y2="1400.6" gradientUnits="userSpaceOnUse">
<stop stop-color="#09005D"/>
<stop offset="1" stop-color="#1A0F91"/>
</linearGradient>
<linearGradient id="paint13_linear" x1="-25694.7" y1="-24439.6" x2="-24630" y2="-23555.9" gradientUnits="userSpaceOnUse">
<stop stop-color="#FF928E"/>
<stop offset="1" stop-color="#FE7062"/>
</linearGradient>
<linearGradient id="paint14_linear" x1="6144.29" y1="1177.47" x2="5935.43" y2="2229.52" gradientUnits="userSpaceOnUse">
<stop stop-color="#FEBBBA"/>
<stop offset="1" stop-color="#FF928E"/>
</linearGradient>
<linearGradient id="paint15_linear" x1="5561.52" y1="1125.97" x2="5693.2" y2="457.78" gradientUnits="userSpaceOnUse">
<stop stop-color="#A22B25"/>
<stop offset="1" stop-color="#C0423C"/>
</linearGradient>
<linearGradient id="paint16_linear" x1="1920.01" y1="-13070.3" x2="2367.39" y2="-11444.8" gradientUnits="userSpaceOnUse">
<stop stop-color="#FF928E"/>
<stop offset="1" stop-color="#FE7062"/>
</linearGradient>
<linearGradient id="paint17_linear" x1="1846.91" y1="-12907.7" x2="2290.66" y2="-11295.5" gradientUnits="userSpaceOnUse">
<stop stop-color="#FF928E"/>
<stop offset="1" stop-color="#FE7062"/>
</linearGradient>
<linearGradient id="paint18_linear" x1="-3637" y1="-22477.1" x2="-3443.86" y2="-21984.6" gradientUnits="userSpaceOnUse">
<stop stop-color="#A22B25"/>
<stop offset="1" stop-color="#C0423C"/>
</linearGradient>
<linearGradient id="paint19_linear" x1="5726.88" y1="465.788" x2="5423.22" y2="856.746" gradientUnits="userSpaceOnUse">
<stop stop-color="#09005D"/>
<stop offset="1" stop-color="#1A0F91"/>
</linearGradient>
<linearGradient id="paint20_linear" x1="-3542.72" y1="-22494.2" x2="-3349.71" y2="-22002.1" gradientUnits="userSpaceOnUse">
<stop stop-color="#A22B25"/>
<stop offset="1" stop-color="#C0423C"/>
</linearGradient>
<linearGradient id="paint21_linear" x1="4043.92" y1="1407.37" x2="4629.64" y2="1913.32" gradientUnits="userSpaceOnUse">
<stop stop-color="#A22B25"/>
<stop offset="1" stop-color="#C0423C"/>
</linearGradient>
<linearGradient id="paint22_linear" x1="4870.6" y1="1191.8" x2="4714.32" y2="2452.46" gradientUnits="userSpaceOnUse">
<stop stop-color="#A22B25"/>
<stop offset="1" stop-color="#C0423C"/>
</linearGradient>
<linearGradient id="paint23_linear" x1="3945.22" y1="1499.76" x2="4519.72" y2="1996.02" gradientUnits="userSpaceOnUse">
<stop stop-color="#A22B25"/>
<stop offset="1" stop-color="#C0423C"/>
</linearGradient>
<linearGradient id="paint24_linear" x1="4038.93" y1="-216.989" x2="4477.73" y2="2527.42" gradientUnits="userSpaceOnUse">
<stop stop-color="#E1473D"/>
<stop offset="1" stop-color="#E9605A"/>
</linearGradient>
<linearGradient id="paint25_linear" x1="2934.87" y1="1918.87" x2="4248.44" y2="2255.63" gradientUnits="userSpaceOnUse">
<stop stop-color="#FF928E"/>
<stop offset="1" stop-color="#FE7062"/>
</linearGradient>
<linearGradient id="paint26_linear" x1="3740.72" y1="865.6" x2="5814.38" y2="2178.45" gradientUnits="userSpaceOnUse">
<stop stop-color="#FF9085"/>
<stop offset="1" stop-color="#FB6FBB"/>
</linearGradient>
<linearGradient id="paint27_linear" x1="3787.67" y1="1207.9" x2="4954.05" y2="2192.68" gradientUnits="userSpaceOnUse">
<stop stop-color="#FEBBBA"/>
<stop offset="1" stop-color="#FF928E"/>
</linearGradient>
<linearGradient id="paint28_linear" x1="4205.11" y1="673.678" x2="3713.99" y2="3840.12" gradientUnits="userSpaceOnUse">
<stop stop-color="#FF928E"/>
<stop offset="1" stop-color="#FE7062"/>
</linearGradient>
<linearGradient id="paint29_linear" x1="6516.51" y1="322.534" x2="5867.31" y2="831.071" gradientUnits="userSpaceOnUse">
<stop stop-color="#A22B25"/>
<stop offset="1" stop-color="#C0423C"/>
</linearGradient>
<linearGradient id="paint30_linear" x1="7463.48" y1="-241.524" x2="9205.04" y2="1662.96" gradientUnits="userSpaceOnUse">
<stop stop-color="#09005D"/>
<stop offset="1" stop-color="#1A0F91"/>
</linearGradient>
<linearGradient id="paint31_linear" x1="9271.39" y1="-668.153" x2="8027.83" y2="363.997" gradientUnits="userSpaceOnUse">
<stop stop-color="#FF928E"/>
<stop offset="1" stop-color="#FE7062"/>
</linearGradient>
<linearGradient id="paint32_linear" x1="6884.92" y1="837.659" x2="7000.94" y2="568.498" gradientUnits="userSpaceOnUse">
<stop stop-color="#FEBBBA"/>
<stop offset="1" stop-color="#FF928E"/>
</linearGradient>
<linearGradient id="paint33_linear" x1="6873.32" y1="184.832" x2="7126.21" y2="709.958" gradientUnits="userSpaceOnUse">
<stop stop-color="#FEBBBA"/>
<stop offset="1" stop-color="#FF928E"/>
</linearGradient>
<linearGradient id="paint34_linear" x1="7036.89" y1="63.4681" x2="8750.67" y2="1937.57" gradientUnits="userSpaceOnUse">
<stop stop-color="#09005D"/>
<stop offset="1" stop-color="#1A0F91"/>
</linearGradient>
<linearGradient id="paint35_linear" x1="7043.43" y1="91.2764" x2="7298.35" y2="620.606" gradientUnits="userSpaceOnUse">
<stop stop-color="#FEBBBA"/>
<stop offset="1" stop-color="#FF928E"/>
</linearGradient>
<linearGradient id="paint36_linear" x1="7854.88" y1="4129.45" x2="6903.14" y2="2474.98" gradientUnits="userSpaceOnUse">
<stop stop-color="#FEBBBA"/>
<stop offset="1" stop-color="#FF928E"/>
</linearGradient>
<linearGradient id="paint37_linear" x1="7753.07" y1="3523.99" x2="7474.23" y2="3525.84" gradientUnits="userSpaceOnUse">
<stop stop-color="#09005D"/>
<stop offset="1" stop-color="#1A0F91"/>
</linearGradient>
<linearGradient id="paint38_linear" x1="6709.95" y1="2929.22" x2="8105.2" y2="3365.25" gradientUnits="userSpaceOnUse">
<stop stop-color="#FEBBBA"/>
<stop offset="1" stop-color="#FF928E"/>
</linearGradient>
<linearGradient id="paint39_linear" x1="7244.36" y1="3621.88" x2="6923.06" y2="3624.01" gradientUnits="userSpaceOnUse">
<stop stop-color="#09005D"/>
<stop offset="1" stop-color="#1A0F91"/>
</linearGradient>
<linearGradient id="paint40_linear" x1="7229.72" y1="2093.12" x2="7698.18" y2="1320.79" gradientUnits="userSpaceOnUse">
<stop stop-color="#E1473D"/>
<stop offset="1" stop-color="#E9605A"/>
</linearGradient>
<linearGradient id="paint41_linear" x1="7969.73" y1="1447.8" x2="6569.33" y2="-558.065" gradientUnits="userSpaceOnUse">
<stop stop-color="#FEBBBA"/>
<stop offset="1" stop-color="#FF928E"/>
</linearGradient>
<linearGradient id="paint42_linear" x1="4449.83" y1="2723.9" x2="4717.12" y2="3093.37" gradientUnits="userSpaceOnUse">
<stop stop-color="#FEBBBA"/>
<stop offset="1" stop-color="#FF928E"/>
</linearGradient>
<linearGradient id="paint43_linear" x1="4213.52" y1="2875.58" x2="4488.39" y2="3255.53" gradientUnits="userSpaceOnUse">
<stop stop-color="#FEBBBA"/>
<stop offset="1" stop-color="#FF928E"/>
</linearGradient>
<linearGradient id="paint44_linear" x1="4066.88" y1="2747.49" x2="4118.09" y2="2747.49" gradientUnits="userSpaceOnUse">
<stop stop-color="#FF928E"/>
<stop offset="1" stop-color="#FE7062"/>
</linearGradient>
<linearGradient id="paint45_linear" x1="4542" y1="2326.14" x2="4754.31" y2="2513.47" gradientUnits="userSpaceOnUse">
<stop stop-color="#09005D"/>
<stop offset="1" stop-color="#1A0F91"/>
</linearGradient>
<linearGradient id="paint46_linear" x1="5607.05" y1="2325.1" x2="5422.74" y2="2291.97" gradientUnits="userSpaceOnUse">
<stop stop-color="#09005D"/>
<stop offset="1" stop-color="#1A0F91"/>
</linearGradient>
<linearGradient id="paint47_linear" x1="-3043.4" y1="-5802.12" x2="-2189.8" y2="-4945.63" gradientUnits="userSpaceOnUse">
<stop stop-color="#09005D"/>
<stop offset="1" stop-color="#1A0F91"/>
</linearGradient>
<linearGradient id="paint48_linear" x1="4703.63" y1="3942.74" x2="4539.51" y2="3942.74" gradientUnits="userSpaceOnUse">
<stop stop-color="#E1473D"/>
<stop offset="1" stop-color="#E9605A"/>
</linearGradient>
<linearGradient id="paint49_linear" x1="5128.22" y1="3953.98" x2="5032.9" y2="3953.98" gradientUnits="userSpaceOnUse">
<stop stop-color="#E1473D"/>
<stop offset="1" stop-color="#E9605A"/>
</linearGradient>
<linearGradient id="paint50_linear" x1="4961.85" y1="2895.68" x2="4948.22" y2="2757.11" gradientUnits="userSpaceOnUse">
<stop stop-color="#FEBBBA"/>
<stop offset="1" stop-color="#FF928E"/>
</linearGradient>
<linearGradient id="paint51_linear" x1="4446.97" y1="1389.61" x2="3863.69" y2="-396.678" gradientUnits="userSpaceOnUse">
<stop stop-color="#FEBBBA"/>
<stop offset="1" stop-color="#FF928E"/>
</linearGradient>
<linearGradient id="paint52_linear" x1="4135.88" y1="1558.52" x2="3571.26" y2="-170.619" gradientUnits="userSpaceOnUse">
<stop stop-color="#FEBBBA"/>
<stop offset="1" stop-color="#FF928E"/>
</linearGradient>
<linearGradient id="paint53_linear" x1="5937.86" y1="3334.04" x2="5442.79" y2="2653.82" gradientUnits="userSpaceOnUse">
<stop stop-color="#FEBBBA"/>
<stop offset="1" stop-color="#FF928E"/>
</linearGradient>
<linearGradient id="paint54_linear" x1="7950.4" y1="423.845" x2="6905.66" y2="1290.98" gradientUnits="userSpaceOnUse">
<stop stop-color="#FF928E"/>
<stop offset="1" stop-color="#FE7062"/>
</linearGradient>
<linearGradient id="paint55_linear" x1="8343.94" y1="589.585" x2="7276.35" y2="1475.68" gradientUnits="userSpaceOnUse">
<stop stop-color="#FF928E"/>
<stop offset="1" stop-color="#FE7062"/>
</linearGradient>
<linearGradient id="paint56_linear" x1="7966.44" y1="500.89" x2="6925.97" y2="1364.47" gradientUnits="userSpaceOnUse">
<stop stop-color="#E1473D"/>
<stop offset="1" stop-color="#E9605A"/>
</linearGradient>
<linearGradient id="paint57_linear" x1="4964.11" y1="2679.59" x2="4993.84" y2="2393.53" gradientUnits="userSpaceOnUse">
<stop stop-color="#FEBBBA"/>
<stop offset="1" stop-color="#FF928E"/>
</linearGradient>
<linearGradient id="paint58_linear" x1="4592.59" y1="2763.4" x2="4621.39" y2="2504.38" gradientUnits="userSpaceOnUse">
<stop stop-color="#FEBBBA"/>
<stop offset="1" stop-color="#FF928E"/>
</linearGradient>
<linearGradient id="paint59_linear" x1="5110.64" y1="2668.55" x2="5141.07" y2="2394.86" gradientUnits="userSpaceOnUse">
<stop stop-color="#FEBBBA"/>
<stop offset="1" stop-color="#FF928E"/>
</linearGradient>
<linearGradient id="paint60_linear" x1="-2963.32" y1="-5621.81" x2="-2125.84" y2="-4781.48" gradientUnits="userSpaceOnUse">
<stop stop-color="#09005D"/>
<stop offset="1" stop-color="#1A0F91"/>
</linearGradient>
<linearGradient id="paint61_linear" x1="1685.41" y1="5777.56" x2="1631.88" y2="4745.8" gradientUnits="userSpaceOnUse">
<stop stop-color="#09005D"/>
<stop offset="1" stop-color="#1A0F91"/>
</linearGradient>
<linearGradient id="paint62_linear" x1="1633.49" y1="4092.55" x2="1605.06" y2="4340.68" gradientUnits="userSpaceOnUse">
<stop stop-color="#FEBBBA"/>
<stop offset="1" stop-color="#FF928E"/>
</linearGradient>
<linearGradient id="paint63_linear" x1="1966.47" y1="4751.25" x2="2020" y2="3719.49" gradientUnits="userSpaceOnUse">
<stop stop-color="#09005D"/>
<stop offset="1" stop-color="#1A0F91"/>
</linearGradient>
<linearGradient id="paint64_linear" x1="1933" y1="4124.29" x2="1906.4" y2="4356.41" gradientUnits="userSpaceOnUse">
<stop stop-color="#FEBBBA"/>
<stop offset="1" stop-color="#FF928E"/>
</linearGradient>
<linearGradient id="paint65_linear" x1="2220.36" y1="2472.24" x2="1621.68" y2="4224.47" gradientUnits="userSpaceOnUse">
<stop stop-color="#E1473D"/>
<stop offset="1" stop-color="#E9605A"/>
</linearGradient>
<linearGradient id="paint66_linear" x1="1977.42" y1="2711.6" x2="1239.02" y2="3072.35" gradientUnits="userSpaceOnUse">
<stop stop-color="#09005D"/>
<stop offset="1" stop-color="#1A0F91"/>
</linearGradient>
<linearGradient id="paint67_linear" x1="1921.59" y1="2126.44" x2="2069.74" y2="2126.44" gradientUnits="userSpaceOnUse">
<stop stop-color="#FEBBBA"/>
<stop offset="1" stop-color="#FF928E"/>
</linearGradient>
<linearGradient id="paint68_linear" x1="15081.5" y1="-10044" x2="15288.4" y2="-10233.9" gradientUnits="userSpaceOnUse">
<stop stop-color="#FEBBBA"/>
<stop offset="1" stop-color="#FF928E"/>
</linearGradient>
<linearGradient id="paint69_linear" x1="2033.16" y1="1733.61" x2="2285.09" y2="1594.71" gradientUnits="userSpaceOnUse">
<stop stop-color="#09005D"/>
<stop offset="1" stop-color="#1A0F91"/>
</linearGradient>
<linearGradient id="paint70_linear" x1="14470.3" y1="-9491.52" x2="14669.1" y2="-9674.04" gradientUnits="userSpaceOnUse">
<stop stop-color="#FEBBBA"/>
<stop offset="1" stop-color="#FF928E"/>
</linearGradient>
<linearGradient id="paint71_linear" x1="1924.32" y1="2644.01" x2="1190.75" y2="3002.4" gradientUnits="userSpaceOnUse">
<stop stop-color="#09005D"/>
<stop offset="1" stop-color="#1A0F91"/>
</linearGradient>
<linearGradient id="paint72_linear" x1="1684.79" y1="3170.15" x2="1457.89" y2="3363.95" gradientUnits="userSpaceOnUse">
<stop stop-color="#FEBBBA"/>
<stop offset="1" stop-color="#FF928E"/>
</linearGradient>
<linearGradient id="paint73_linear" x1="1963.2" y1="2715.02" x2="1228.62" y2="3073.9" gradientUnits="userSpaceOnUse">
<stop stop-color="#09005D"/>
<stop offset="1" stop-color="#1A0F91"/>
</linearGradient>
<linearGradient id="paint74_linear" x1="2510.91" y1="2542.49" x2="3068.2" y2="2351.56" gradientUnits="userSpaceOnUse">
<stop stop-color="#FEBBBA"/>
<stop offset="1" stop-color="#FF928E"/>
</linearGradient>
<linearGradient id="paint75_linear" x1="2645.92" y1="2410.13" x2="3233.36" y2="2208.88" gradientUnits="userSpaceOnUse">
<stop stop-color="#FEBBBA"/>
<stop offset="1" stop-color="#FF928E"/>
</linearGradient>
</defs>
<path d="M2186.33 4323.73C2127.81 4323.73 2070.2 4321.4 2013.64 4316.73C1800.64 4299.2 1372.1 4263.9 1037.5 3949.01C1025.89 3938.09 1014.5 3926.92 1003.37 3915.57C1309.8 4141.64 1748.06 4278.71 2208.73 4323.61C2201.26 4323.69 2193.76 4323.73 2186.33 4323.73V4323.73ZM3392.12 3366.71L3122.51 3361.72C3219.4 3323.7 3309.07 3283.08 3392.12 3240.14V3366.71V3366.71ZM3073.73 3360.83L1592.4 3333.48V2974.94C1639.4 2965.6 1685.77 2950.35 1730.37 2928.99C1869.18 2862.52 1990.37 2741.83 1990.37 2523.04C1990.37 2456.35 1988.02 2399.55 1983.49 2350.48H3233.38C3121.73 2856.67 3081.88 3266.93 3073.73 3360.83ZM875.617 3320.24L681.704 3316.67C681.201 3316.66 680.703 3316.66 680.205 3316.66C676.299 3316.66 672.473 3316.93 668.761 3317.48C562.128 2938.83 581.179 2498.68 707.938 2091.16C707.699 2151.12 700.781 2210.85 690.485 2270.86C658.577 2456.88 594.648 2658.82 621.349 2834.72C661.593 3099.84 770.067 3233.85 875.617 3301.26V3320.24V3320.24ZM4108.88 3247.99V2616.02C4211.6 2453.7 4274.26 2283.48 4307.75 2113.26C4350.01 2454.44 4301.39 2812.99 4166.45 3126.88C4148.61 3168.39 4129.41 3208.72 4108.88 3247.99V3247.99ZM1112.19 1747.74C1104.36 1736 1096.17 1724.66 1087.59 1713.74C1044.58 1659.08 989.812 1612.35 933.44 1584.9C986.167 1497.2 1044.78 1413.8 1109.02 1336.08C1121.55 1320.93 1145.83 1292.1 1181.17 1254.34C1204.14 1322.4 1217.58 1392.48 1212.5 1464.82C1207.37 1537.85 1185.37 1604.92 1154.62 1668.99C1141.8 1695.69 1127.46 1721.86 1112.19 1747.74V1747.74ZM3514.49 1398.68L2489.97 618.228L1600.77 1297.4C1609.13 1201.49 1617.27 1106.81 1606.1 1020.3C1601.75 986.488 1591.7 952.94 1577.09 920.377C1825.94 755.883 2164.37 606.672 2574.04 606.672C2579.7 606.672 2585.36 606.699 2591.04 606.752C3175.44 612.636 3597.08 919.898 3693.63 996.047C3627.33 1125.69 3567.87 1261.05 3514.49 1398.68" fill="url(#paint0_linear)"/>
<path d="M612.395 3396.16C973.162 4578.65 3820.74 4674.16 4334.52 3545.91C4369.75 3468.59 4307.55 3383.6 4214.5 3381.88L681.705 3316.66C634.871 3315.8 600.023 3355.6 612.395 3396.16" fill="#BDD0FB"/>
<path d="M3072.03 3381.04C3072.03 3381.04 3198.79 1688.9 3882.81 672.738C3928.82 604.438 4035.5 611.947 4070.79 686.207C4306.74 1182.82 4857.31 2714.15 3072.03 3381.04Z" fill="#BDD0FB"/>
<path d="M3227.47 3257.48C3224.05 3257.48 3221.01 3253.64 3223.63 3250.24C3284.35 3171.66 3340.4 3088.72 3392.12 3002.9V3061.41C3323.82 3156.37 3266.06 3221.36 3230.77 3256.05C3229.74 3257.06 3228.59 3257.48 3227.47 3257.48ZM3728.09 2438.95H3664.04C3874.59 1892.84 3955.46 1359.38 3979.4 1167.71C3979.62 1165.88 3981.06 1165.02 3982.53 1165.02C3984.24 1165.02 3985.98 1166.17 3985.91 1168.32C3968.28 1685.96 3859.6 2109.94 3728.09 2438.95Z" fill="#DEE8FD"/>
<path d="M1154.62 1668.99C1185.37 1604.9 1207.37 1537.84 1212.5 1464.83C1225.43 1280.82 1118.47 1111.38 1039.89 952.954C967.667 807.353 913.991 590.394 1157.68 609.69C1351.83 625.084 1580.07 818.551 1606.1 1020.3C1636.92 1259.1 1520.68 1560.21 1658.49 1777.09C1851.3 2080.53 1990.37 2010.99 1990.37 2523.04C1990.37 2741.83 1869.19 2862.52 1730.37 2928.99C1511.28 3033.91 1250.03 2991.52 1075.46 2822.58C921.247 2673.34 829.552 2458.78 860.564 2243.4C891.887 2025.83 1062.52 1860.85 1154.62 1668.99Z" fill="#BDD0FB"/>
<path d="M1317.51 3315.27C1320.55 3315.27 1323.32 3313.2 1324.1 3310.12C1444.88 2828.03 1510.61 2391.02 1519.5 2011.24C1526.61 1707.12 1497.49 1438.74 1432.94 1213.54C1322.69 828.909 1149.77 705.364 1142.47 700.307C1139.39 698.17 1135.15 698.926 1133.01 702.001C1130.87 705.077 1131.63 709.325 1134.71 711.462C1136.47 712.687 1311.67 838.266 1420.4 1219.07C1520.88 1571.04 1583.45 2218.95 1310.91 3306.82C1310 3310.46 1312.21 3314.15 1315.85 3315.06C1316.41 3315.2 1316.96 3315.27 1317.51 3315.27" fill="#7D97F4"/>
<path d="M961.168 1129.17C970.556 1126.64 980.868 1125.84 991.85 1127.1C1052.58 1134.09 1077.52 1198.13 1095.37 1248.2C1110.65 1291.09 1128.65 1343.13 1119.63 1389.62C1109.87 1439.83 1056.53 1480.8 1017.83 1429.82C973.831 1371.82 907.812 1282.84 907.414 1206.01C907.212 1167.84 928.651 1138 961.168 1129.17" fill="#BDD0FB"/>
<path d="M621.353 2834.71C594.653 2658.81 658.58 2456.88 690.488 2270.87C707.359 2172.51 715.161 2074.92 699.366 1975.83C683.662 1877.32 637.372 1770.79 680.052 1672.64C766.049 1474.9 970.488 1564.89 1087.59 1713.75C1223.49 1886.46 1260.64 2168.74 1312.25 2386.1C1343.36 2517.13 1390.24 2651.55 1406.66 2785.05C1433.85 3006.26 1383.83 3159.83 1278.02 3263.54C1176.53 3363.01 1021.96 3383.64 897.804 3314.5C785.649 3252.04 664.424 3118.48 621.353 2834.71" fill="#91B3FA"/>
<path d="M1089.05 3650.82C1088.68 3650.82 1088.3 3650.8 1087.92 3650.73C1084.25 3650.12 1081.77 3646.64 1082.39 3642.96C1082.83 3640.3 1127.12 3372.97 1128.26 3003.85C1129.31 2663.38 1092.82 2164.22 913.028 1719.65C911.631 1716.2 913.298 1712.27 916.753 1710.88C920.201 1709.49 924.137 1711.15 925.537 1714.61C1106.18 2161.28 1142.82 2662.41 1141.75 3004.16C1140.59 3374.32 1096.14 3642.53 1095.69 3645.2C1095.14 3648.5 1092.28 3650.82 1089.05 3650.82" fill="#7D97F4"/>
<path d="M4081.63 3821.3H3392.14V2438.94H4108.9V3794.02C4108.9 3809.09 4096.7 3821.3 4081.63 3821.3" fill="#7D97F4"/>
<path d="M3955.92 3445.85H3549.35C3548.52 3445.85 3547.84 3445.19 3547.84 3444.36V2815.91C3547.84 2815.08 3548.52 2814.42 3549.35 2814.42H3955.92C3956.77 2814.42 3957.42 2815.08 3957.42 2815.91V3444.36C3957.42 3445.19 3956.77 3445.85 3955.92 3445.85V3445.85ZM3769.36 2848.54C3768.9 2848.54 3768.53 2848.91 3768.53 2849.38V3410.9C3768.53 3411.35 3768.9 3411.72 3769.36 3411.72H3926.73C3927.17 3411.72 3927.56 3411.35 3927.56 3410.9V2849.38C3927.56 2848.91 3927.17 2848.54 3926.73 2848.54H3769.36ZM3578.55 2848.54C3578.07 2848.54 3577.7 2848.91 3577.7 2849.38V3410.9C3577.7 3411.35 3578.07 3411.72 3578.55 3411.72H3735.9C3736.37 3411.72 3736.73 3411.35 3736.73 3410.9V2849.38C3736.73 2848.91 3736.37 2848.54 3735.9 2848.54H3578.55Z" fill="#CAD5FA"/>
<path d="M3926.74 3411.72H3769.37C3768.92 3411.72 3768.55 3411.35 3768.55 3410.89V2849.37C3768.55 2848.91 3768.92 2848.53 3769.37 2848.53H3926.74C3927.2 2848.53 3927.56 2848.91 3927.56 2849.37V3410.89C3927.56 3411.35 3927.2 3411.72 3926.74 3411.72" fill="#7D97F4"/>
<path d="M3735.92 3411.72H3578.56C3578.08 3411.72 3577.71 3411.34 3577.71 3410.89V2849.37C3577.71 2848.9 3578.08 2848.53 3578.56 2848.53H3735.92C3736.38 2848.53 3736.74 2848.9 3736.74 2849.37V3410.89C3736.74 3411.34 3736.38 3411.72 3735.92 3411.72Z" fill="#7D97F4"/>
<path d="M4243.83 2548.1H3358.09L3321.93 1910.5L4054.2 1896.63L4278.72 2493.45C4290.57 2518.94 4271.94 2548.1 4243.83 2548.1" fill="url(#paint1_linear)"/>
<path d="M4057.2 1925.92L3353.34 1918.05L3357.77 1846.81L4015.64 1851.81C4041.04 1853.41 4060.41 1874.03 4058.94 1897.88L4057.2 1925.92" fill="url(#paint2_linear)"/>
<path d="M905.367 3816.51H1592.4V2434.16H875.618V3786.76C875.618 3803.19 888.938 3816.51 905.367 3816.51Z" fill="#7D97F4"/>
<path d="M1435.17 3441.05H1028.58C1027.75 3441.05 1027.08 3440.39 1027.08 3439.56V2811.11C1027.08 2810.28 1027.75 2809.61 1028.58 2809.61H1435.17C1436 2809.61 1436.67 2810.28 1436.67 2811.11V3439.56C1436.67 3440.39 1436 3441.05 1435.17 3441.05ZM1248.61 2843.75C1248.15 2843.75 1247.77 2844.12 1247.77 2844.57V3406.09C1247.77 3406.55 1248.15 3406.92 1248.61 3406.92H1405.97C1406.43 3406.92 1406.8 3406.55 1406.8 3406.09V2844.57C1406.8 2844.12 1406.43 2843.75 1405.97 2843.75H1248.61ZM1057.78 2843.75C1057.32 2843.75 1056.94 2844.12 1056.94 2844.57V3406.09C1056.94 3406.55 1057.32 3406.92 1057.78 3406.92H1215.14C1215.6 3406.92 1215.97 3406.55 1215.97 3406.09V2844.57C1215.97 2844.12 1215.6 2843.75 1215.14 2843.75H1057.78Z" fill="#CAD5FA"/>
<path d="M1215.14 3406.92H1057.78C1057.32 3406.92 1056.94 3406.55 1056.94 3406.09V2844.57C1056.94 2844.12 1057.32 2843.75 1057.78 2843.75H1215.14C1215.6 2843.75 1215.97 2844.12 1215.97 2844.57V3406.09C1215.97 3406.55 1215.6 3406.92 1215.14 3406.92Z" fill="#7D97F4"/>
<path d="M1405.97 3406.92H1248.61C1248.15 3406.92 1247.77 3406.55 1247.77 3406.09V2844.57C1247.77 2844.12 1248.15 2843.75 1248.61 2843.75H1405.97C1406.43 2843.75 1406.8 2844.12 1406.8 2844.57V3406.09C1406.8 3406.55 1406.43 3406.92 1405.97 3406.92Z" fill="#7D97F4"/>
<path d="M740.666 2543.3H1626.43L1662.56 1905.7L930.317 1891.81L705.775 2488.67C693.951 2514.14 712.567 2543.3 740.666 2543.3" fill="url(#paint3_linear)"/>
<path d="M927.311 1921.14L1631.17 1913.27L1626.75 1842.02L968.885 1847.03C943.484 1848.61 924.092 1869.23 925.57 1893.08L927.311 1921.14" fill="url(#paint4_linear)"/>
<path d="M1493.34 2350.48V3765.09C1493.34 3827.18 1543.67 3877.52 1605.76 3877.52H3449.02C3468.88 3877.52 3484.98 3861.42 3484.98 3841.56V2350.48H1493.34Z" fill="#91B3FA"/>
<path d="M2677.98 3778.17H2271.52V2990C2271.52 2987.39 2273.66 2985.25 2276.27 2985.25H2673.23C2675.86 2985.25 2677.98 2987.39 2677.98 2990V3778.17" fill="#7D97F4"/>
<path d="M2662.66 3748.28H2286.87V3019.9C2286.87 3017.27 2288.97 3015.16 2291.6 3015.16H2657.91C2660.52 3015.16 2662.66 3017.27 2662.66 3019.9V3748.28Z" fill="url(#paint5_linear)"/>
<path d="M2649.3 2931.89H2300.24C2284.38 2931.89 2271.52 2919.04 2271.52 2903.19V2878.12C2271.52 2863.03 2283.2 2850.53 2298.25 2849.5L2647.31 2825.23C2663.88 2824.08 2677.98 2837.24 2677.98 2853.87V2903.19C2677.98 2919.04 2665.13 2931.89 2649.3 2931.89" fill="#BDD0FB"/>
<path d="M2675.24 3827.29H2279.06C2261.08 3827.29 2246.48 3812.7 2246.48 3794.72V3766.26C2246.48 3749.14 2259.52 3701.81 2276.6 3700.62L2673 3706.24C2691.82 3704.93 2707.82 3719.86 2707.82 3738.74V3794.72C2707.82 3812.7 2693.24 3827.29 2675.24 3827.29" fill="#BDD0FB"/>
<path d="M2676.29 3889.25H2280.1C2262.12 3889.25 2247.53 3874.67 2247.53 3856.68V3828.23C2247.53 3811.11 2251.28 3779.36 2268.35 3778.17L2674.03 3768.2C2692.88 3766.89 2708.86 3781.83 2708.86 3800.71V3856.68C2708.86 3874.67 2694.29 3889.25 2676.29 3889.25" fill="#7D97F4"/>
<path d="M3379.19 3705.38H2807.67C2805.36 3705.38 2803.49 3703.52 2803.49 3701.2V2781.51C2803.49 2779.21 2805.36 2777.34 2807.67 2777.34H3379.19C3381.51 2777.34 3383.38 2779.21 3383.38 2781.51V3701.2C3383.38 3703.52 3381.51 3705.38 3379.19 3705.38Z" fill="white"/>
<path d="M3346.16 3671.12H2839.52C2837.36 3671.12 2835.61 3669.37 2835.61 3667.21V2820.18C2835.61 2818.02 2837.36 2816.27 2839.52 2816.27H3346.16C3348.32 2816.27 3350.06 2818.02 3350.06 2820.18V3667.21C3350.06 3669.37 3348.32 3671.12 3346.16 3671.12Z" fill="#7D97F4"/>
<path d="M3097 3705.39H3067.51V2804.53H3097V3705.39Z" fill="white"/>
<path d="M2168.11 3705.39H1596.59C1594.27 3705.39 1592.4 3703.52 1592.4 3701.2V2781.52C1592.4 2779.21 1594.27 2777.33 1596.59 2777.33H2168.11C2170.41 2777.33 2172.29 2779.21 2172.29 2781.52V3701.2C2172.29 3703.52 2170.41 3705.39 2168.11 3705.39Z" fill="white"/>
<path d="M2135.05 3671.12H1628.44C1626.28 3671.12 1624.52 3669.37 1624.52 3667.21V2820.19C1624.52 2818.03 1626.28 2816.28 1628.44 2816.28H2135.05C2137.21 2816.28 2138.97 2818.03 2138.97 2820.19V3667.21C2138.97 3669.37 2137.21 3671.12 2135.05 3671.12Z" fill="#7D97F4"/>
<path d="M1885.91 3705.39H1856.41V2804.53H1885.91V3705.39Z" fill="white"/>
<path d="M3508.26 1496.36L3491.33 1483.59V1465.78H3467.79L2489.14 726.119L1499.68 1465.78V2350.49H3491.33V1587.6L3508.26 1496.36" fill="#91B3FA"/>
<path d="M3090.77 1080.38H2926.05V812.139H3090.77V1080.38Z" fill="#7D97F4"/>
<path d="M3145.08 855.604H2878.8V781.353C2878.8 776.872 2882.43 773.237 2886.91 773.237H3132.68C3139.52 773.237 3145.08 778.767 3145.08 785.603V855.604" fill="url(#paint6_linear)"/>
<path d="M1433.09 1606.64L1392.15 1506.9C1382.89 1484.38 1389.92 1458.46 1409.27 1443.67L1462.94 1402.67L1475.24 1393.27L1600.77 1297.38L2489.97 618.213L3514.52 1398.69L3606.45 1468.71L3592.38 1537.54C3586.08 1568.37 3559.18 1587.39 3531.17 1587.39C3518.29 1587.39 3505.2 1583.4 3493.73 1574.69C3493.54 1574.56 3493.35 1574.4 3493.2 1574.27L2489.97 796.104L1499.68 1555.58L1486.93 1565.35L1433.09 1606.64" fill="url(#paint7_linear)"/>
<path d="M2684.66 2219.4H2278.09C2277.26 2219.4 2276.58 2218.71 2276.58 2217.87V1589.42C2276.58 1588.59 2277.26 1587.93 2278.09 1587.93H2684.66C2685.5 1587.93 2686.18 1588.59 2686.18 1589.42V2217.87C2686.18 2218.71 2685.5 2219.4 2684.66 2219.4ZM2498.12 1622.06C2497.66 1622.06 2497.29 1622.45 2497.29 1622.9V2184.41C2497.29 2184.88 2497.66 2185.25 2498.12 2185.25H2655.46C2655.93 2185.25 2656.31 2184.88 2656.31 2184.41V1622.9C2656.31 1622.45 2655.93 1622.06 2655.46 1622.06H2498.12ZM2307.29 1622.06C2306.83 1622.06 2306.46 1622.45 2306.46 1622.9V2184.41C2306.46 2184.88 2306.83 2185.25 2307.29 2185.25H2464.63C2465.1 2185.25 2465.48 2184.88 2465.48 2184.41V1622.9C2465.48 1622.45 2465.1 1622.06 2464.63 1622.06H2307.29Z" fill="#F3F7FE"/>
<path d="M2464.62 2185.26H2307.27C2306.82 2185.26 2306.45 2184.89 2306.45 2184.42V1622.91C2306.45 1622.44 2306.82 1622.08 2307.27 1622.08H2464.62C2465.09 1622.08 2465.48 1622.44 2465.48 1622.91V2184.42C2465.48 2184.89 2465.09 2185.26 2464.62 2185.26Z" fill="#7F9AF5"/>
<path d="M2655.45 2185.26H2498.09C2497.65 2185.26 2497.28 2184.89 2497.28 2184.42V1622.91C2497.28 1622.44 2497.65 1622.08 2498.09 1622.08H2655.45C2655.92 1622.08 2656.31 1622.44 2656.31 1622.91V2184.42C2656.31 2184.89 2655.92 2185.26 2655.45 2185.26Z" fill="#7F9AF5"/>
<path d="M2109.87 2223.85H1703.28C1702.45 2223.85 1701.78 2223.19 1701.78 2222.37V1593.91C1701.78 1593.09 1702.45 1592.41 1703.28 1592.41H2109.87C2110.69 1592.41 2111.37 1593.09 2111.37 1593.91V2222.37C2111.37 2223.19 2110.69 2223.85 2109.87 2223.85ZM1923.3 1626.55C1922.85 1626.55 1922.47 1626.92 1922.47 1627.39V2188.89C1922.47 2189.34 1922.85 2189.73 1923.3 2189.73H2080.67C2081.12 2189.73 2081.49 2189.34 2081.49 2188.89V1627.39C2081.49 1626.92 2081.12 1626.55 2080.67 1626.55H1923.3V1626.55ZM1732.48 1626.55C1732.01 1626.55 1731.63 1626.92 1731.63 1627.39V2188.89C1731.63 2189.34 1732.01 2189.73 1732.48 2189.73H1889.84C1890.29 2189.73 1890.66 2189.34 1890.66 2188.89V1627.39C1890.66 1626.92 1890.29 1626.55 1889.84 1626.55H1732.48Z" fill="#F3F7FE"/>
<path d="M1889.84 2189.71H1732.48C1732.02 2189.71 1731.64 2189.34 1731.64 2188.88V1627.37C1731.64 1626.9 1732.02 1626.53 1732.48 1626.53H1889.84C1890.29 1626.53 1890.67 1626.9 1890.67 1627.37V2188.88C1890.67 2189.34 1890.29 2189.71 1889.84 2189.71Z" fill="#7F9AF5"/>
<path d="M2080.67 2189.71H1923.31C1922.86 2189.71 1922.48 2189.34 1922.48 2188.88V1627.37C1922.48 1626.9 1922.86 1626.53 1923.31 1626.53H2080.67C2081.13 1626.53 2081.5 1626.9 2081.5 1627.37V2188.88C2081.5 2189.34 2081.13 2189.71 2080.67 2189.71" fill="#7F9AF5"/>
<path d="M3234.57 2229.56H2827.97C2827.15 2229.56 2826.47 2228.89 2826.47 2228.04V1599.6C2826.47 1598.78 2827.15 1598.1 2827.97 1598.1H3234.57C3235.39 1598.1 3236.07 1598.78 3236.07 1599.6V2228.04C3236.07 2228.89 3235.39 2229.56 3234.57 2229.56ZM3047.99 1632.25C3047.54 1632.25 3047.17 1632.62 3047.17 1633.07V2194.6C3047.17 2195.05 3047.54 2195.42 3047.99 2195.42H3205.36C3205.83 2195.42 3206.2 2195.05 3206.2 2194.6V1633.07C3206.2 1632.62 3205.83 1632.25 3205.36 1632.25H3047.99ZM2857.17 1632.25C2856.71 1632.25 2856.34 1632.62 2856.34 1633.07V2194.6C2856.34 2195.05 2856.71 2195.42 2857.17 2195.42H3014.53C3014.98 2195.42 3015.37 2195.05 3015.37 2194.6V1633.07C3015.37 1632.62 3014.98 1632.25 3014.53 1632.25H2857.17Z" fill="#F3F7FE"/>
<path d="M3014.54 2195.43H2857.17C2856.7 2195.43 2856.34 2195.07 2856.34 2194.6V1633.08C2856.34 1632.61 2856.7 1632.25 2857.17 1632.25H3014.54C3014.98 1632.25 3015.35 1632.61 3015.35 1633.08V2194.6C3015.35 2195.07 3014.98 2195.43 3014.54 2195.43Z" fill="#7F9AF5"/>
<path d="M3205.35 2195.43H3047.99C3047.54 2195.43 3047.17 2195.07 3047.17 2194.6V1633.08C3047.17 1632.61 3047.54 1632.25 3047.99 1632.25H3205.35C3205.82 1632.25 3206.2 1632.61 3206.2 1633.08V2194.6C3206.2 2195.07 3205.82 2195.43 3205.35 2195.43Z" fill="#7F9AF5"/>
<path d="M3531.1 2446.38H1447.21C1441.39 2446.38 1436.67 2441.66 1436.67 2435.82V2342.86C1436.67 2337.04 1441.39 2332.33 1447.21 2332.33H3531.1C3536.93 2332.33 3541.64 2337.04 3541.64 2342.86V2435.82C3541.64 2441.66 3536.93 2446.38 3531.1 2446.38Z" fill="#7D97F4"/>
<path d="M3510.26 4311.07C3510.24 4309.93 3510.31 4308.77 3510.6 4307.61C3527.84 4239.35 3613.31 4196.83 3613.31 4196.83L3647.17 4199.48C3666.64 4259.65 3664.14 4296.56 3661.02 4312.99C3660.93 4313.45 3660.79 4313.89 3660.66 4314.33C3632.72 4316.84 3575.21 4318.47 3510.26 4311.07Z" fill="url(#paint8_linear)"/>
<path d="M3660.68 4314.33C3659.17 4319.82 3655.11 4324.1 3649.92 4325.19C3610.19 4333.54 3547.01 4326.82 3520.49 4323.36C3514.65 4322.58 3510.36 4317.17 3510.27 4311.07C3575.24 4318.47 3632.74 4316.84 3660.68 4314.33" fill="#7D97F4"/>
<path d="M3660.78 4149.04L3646.43 4218.09C3645.4 4223.15 3641.51 4226.93 3636.8 4227.37C3631.03 4227.92 3622.83 4228.24 3614.56 4227.03C3607.18 4225.93 3602.03 4218.41 3603.33 4210.35L3613.31 4149.04H3660.78Z" fill="url(#paint9_linear)"/>
<path d="M3363.59 4313.46C3401.01 4312.41 3420.35 4308.01 3430.35 4303.92C3430.37 4307.64 3430.35 4311.43 3430.24 4315.34C3430.09 4319.53 3427 4322.88 3423.19 4322.85L3217.81 4321.53C3211.27 4321.49 3207.41 4313.89 3210.26 4307.88C3237.19 4310.11 3305.78 4315.08 3363.59 4313.46" fill="#7D97F4"/>
<path d="M3210.26 4307.88C3210.51 4307.36 3210.72 4306.83 3211.06 4306.33C3229.22 4280.99 3275.39 4230.52 3366.68 4208.64L3410.48 4207.25C3410.48 4207.25 3429.97 4241.15 3430.35 4303.92C3420.35 4308.01 3401.01 4312.41 3363.59 4313.47C3305.78 4315.08 3237.19 4310.11 3210.26 4307.88" fill="url(#paint10_linear)"/>
<path d="M3420.54 4142.92C3419.85 4146.16 3410.74 4195.28 3407.22 4214.33C3406.38 4218.87 3402.85 4222.19 3398.66 4222.43C3391.16 4222.84 3379.06 4222.89 3368.67 4220.07C3363.05 4218.55 3359.27 4212.83 3359.69 4206.48L3364.58 4128.76L3420.54 4142.92" fill="url(#paint11_linear)"/>
<path d="M3453.73 3235.72C3453.73 3235.72 3393.49 3649.65 3350.01 4142.21C3349.21 4151.39 3356.51 4159.37 3365.54 4161.27C3378.81 4164.07 3398.34 4167.39 3414.51 4166.93C3423.12 4166.69 3430.33 4160.29 3431.8 4151.79C3446.59 4064.95 3552.27 3598.84 3580 3496.25C3580 3496.25 3611.85 3932.01 3601.68 4158.08C3601.43 4163.71 3605.53 4168.58 3611.14 4169.23C3619.61 4170.21 3633.19 4170.95 3650.45 4169.12C3657 4168.42 3662.29 4163.47 3663.23 4156.94C3673.76 4083.44 3734.48 3645.93 3731.89 3330.77C3731.75 3313 3711.05 3166.97 3711.05 3166.97L3453.73 3235.72" fill="url(#paint12_linear)"/>
<path d="M3430.39 2539.63L3422.33 2756.23C3399.41 2764.12 3377.61 2770.24 3356.84 2774.83C3343.85 2732.99 3315.25 2681.68 3291.83 2643.51C3377.88 2613.1 3430.39 2539.63 3430.39 2539.63Z" fill="url(#paint13_linear)"/>
<path d="M3720.09 3259.58C3726.28 3257.38 3730.6 3251.76 3731.28 3245.23C3739.29 3167.51 3778.07 2685.64 3533.22 2487.42C3533.22 2487.42 3519.16 2450.68 3403.75 2541C3288.32 2631.29 3350.11 2725.96 3377.77 2856.52C3411.2 3014.52 3469.87 3143.67 3443.91 3240.9C3442.12 3247.6 3445.63 3254.66 3452.17 3257.05C3541.82 3290.1 3631.13 3291.19 3720.09 3259.58" fill="url(#paint14_linear)"/>
<path d="M3437.71 2343.02C3437.78 2349.88 3535.56 2488.76 3535.56 2488.76C3535.56 2488.76 3518.01 2523.34 3434.22 2551.4L3361.9 2402.69L3437.71 2343.02" fill="url(#paint15_linear)"/>
<path d="M3486.15 2818.25C3486.75 2818.25 3487.37 2818.08 3487.92 2817.7C3566.02 2764.93 3602.77 2679.75 3603.12 2678.89C3603.83 2677.25 3603.05 2675.42 3601.44 2674.73C3599.83 2674.05 3597.97 2674.78 3597.28 2676.41C3596.93 2677.25 3560.87 2760.74 3484.36 2812.44C3482.9 2813.42 3482.53 2815.4 3483.52 2816.85C3484.12 2817.76 3485.13 2818.25 3486.15 2818.25" fill="url(#paint16_linear)"/>
<path d="M3369.79 2700.18C3370.82 2700.18 3371.85 2699.68 3372.47 2698.71C3372.69 2698.36 3396.57 2661.22 3442.02 2579.82C3455.99 2554.8 3474.36 2538.95 3496.6 2532.72C3533.46 2522.44 3568.96 2542.2 3569.31 2542.39C3570.84 2543.23 3572.77 2542.72 3573.65 2541.21C3574.51 2539.67 3573.98 2537.72 3572.44 2536.87C3570.91 2535.99 3534.38 2515.55 3494.95 2526.61C3470.99 2533.29 3451.3 2550.16 3436.47 2576.73C3391.13 2657.91 3367.36 2694.92 3367.12 2695.29C3366.18 2696.76 3366.59 2698.71 3368.06 2699.68C3368.61 2700.03 3369.2 2700.18 3369.79 2700.18" fill="url(#paint17_linear)"/>
<path d="M3360.72 2263.45C3360.72 2263.45 3325.91 2343.37 3323.57 2385.33C3321.25 2427.27 3312.21 2454.48 3360.72 2462.94C3409.21 2471.38 3450.08 2447.22 3472.22 2405.43C3472.22 2405.43 3506.9 2341.05 3499.1 2314.68C3491.33 2288.31 3360.72 2263.45 3360.72 2263.45" fill="url(#paint18_linear)"/>
<path d="M3455.64 2375.39L3452.89 2374.16C3449.37 2372.61 3447.86 2368.44 3449.63 2365.03C3456.47 2351.8 3469.81 2321.53 3452.58 2314.45C3430.37 2305.36 3342.44 2287.41 3323.47 2256.22C3305.24 2226.23 3321.39 2187.52 3345.68 2176.53C3347.29 2175.78 3349.22 2176.37 3350.05 2177.95L3352.08 2181.77C3353.46 2184.4 3357.33 2184 3358.16 2181.16C3358.96 2178.43 3362.59 2177.88 3364.08 2180.31C3369.94 2189.64 3385.67 2204.77 3427.77 2212.55C3487.62 2223.59 3527.16 2247.78 3528.17 2289.14C3528.21 2291.76 3531.01 2293.23 3533.26 2291.85C3537.67 2289.16 3544.73 2287.91 3554.2 2295.85C3570.61 2309.66 3563.9 2345.51 3527.88 2375C3526.18 2376.39 3526.18 2379.08 3528.03 2380.26C3534.55 2384.53 3544.3 2394.65 3519.07 2408.13C3492.97 2422.08 3473.5 2420.92 3466 2419.69C3464.12 2419.39 3462.92 2417.57 3463.34 2415.72L3471.34 2379.39C3471.79 2377.33 3470.22 2375.39 3468.12 2375.39H3455.64" fill="url(#paint19_linear)"/>
<path d="M3454.14 2383.05C3454.14 2383.05 3467.4 2332.02 3490.3 2346.31C3513.19 2360.65 3478.41 2403.52 3460.02 2405.43L3454.14 2383.05Z" fill="url(#paint20_linear)"/>
<path d="M3003.63 2523.33C3003.63 2523.33 3021.06 2492.43 3019.97 2477.39C3018.85 2462.37 3028.22 2440.32 3018.26 2441.95C3008.3 2443.59 3006.22 2442.25 3003.53 2460.28C3000.83 2478.3 2969.39 2557.03 3003.63 2523.33" fill="url(#paint21_linear)"/>
<path d="M3000.36 2474.18L3000.75 2535.94C3118.8 2663.4 3214.35 2670.89 3291.83 2643.5C3315.24 2681.68 3343.85 2733 3356.84 2774.83C3041.61 2844.31 2967.37 2554.51 2967.37 2554.51C2924.68 2536.84 2916.07 2526.49 2917.9 2514.91L3000.36 2474.18" fill="url(#paint22_linear)"/>
<path d="M2909.56 2412.91C2919.64 2408.81 2939.35 2371.23 2943.12 2383.6C2946.9 2395.97 2941.54 2412.91 2943.12 2418.16C2944.72 2423.44 2969.3 2483.92 2964.38 2497.37C2960.84 2507.06 2941.34 2505.64 2938.35 2521.5C2937.37 2526.76 2933.17 2530.55 2928.28 2530.55C2923.38 2530.55 2919.18 2526.76 2918.2 2521.5C2917.8 2519.39 2899.48 2417 2909.56 2412.91Z" fill="url(#paint23_linear)"/>
<path d="M2881.94 2151.87C2917.66 2151.3 2947.1 2179.79 2947.67 2215.51C2948.22 2251.22 2919.75 2280.65 2884.02 2281.22C2848.3 2281.79 2818.88 2253.3 2818.29 2217.58C2817.72 2181.87 2846.23 2152.44 2881.94 2151.87ZM2565.88 2364.96C2568.2 2508.33 2664.6 2628.1 2795.35 2666.42L2795.84 2697.57L2797 2770.27L2829.15 2769.76L2829.97 2821.49L2797.85 2822.02L2798.26 2847.88L2830.39 2847.37L2830.86 2877.21L2798.73 2877.74L2799.42 2919.52L2814.62 2919.29L2815.48 2973.02L2800.28 2973.26L2800.66 2997.14L2830.21 2996.66L2831.23 3060.75L2801.68 3061.23L2802.49 3110.56L2834.61 3110.04L2835.46 3162.77L2803.31 3163.3L2804.3 3224.68C2804.43 3231.93 2807.19 3238.88 2812.06 3244.24L2891.1 3330.95C2898.57 3339.15 2909.74 3342.29 2920.02 3339.81H2920.06C2921.04 3339.57 2921.99 3339.28 2922.93 3338.95C2923.19 3338.87 2923.42 3338.77 2923.68 3338.67C2924.41 3338.39 2925.13 3338.08 2925.86 3337.73C2926.14 3337.61 2926.39 3337.49 2926.67 3337.35C2927.59 3336.87 2928.52 3336.36 2929.42 3335.76L2981.44 3301.56C2989.96 3295.98 2995.01 3286.41 2994.85 3276.24L2985 2663.36C3114.45 2620.89 3206.98 2498.06 3204.68 2354.69C3201.83 2178.29 3056.55 2037.6 2880.15 2040.43C2703.77 2043.26 2563.07 2188.55 2565.88 2364.96" fill="url(#paint24_linear)"/>
<path d="M2773.26 2481.41L2777.92 2771.95L2810.05 2771.44L2810.87 2823.18L2778.76 2823.69L2779.16 2849.56L2811.29 2849.05L2811.77 2878.9L2779.65 2879.41L2780.31 2921.2L2795.52 2920.97L2796.39 2974.68L2781.19 2974.93L2781.55 2998.81L2811.11 2998.34L2812.13 3062.44L2782.59 3062.89L2783.38 3112.24L2815.51 3111.73L2816.35 3164.46L2784.22 3164.98L2785.2 3226.36C2785.33 3233.61 2788.09 3240.57 2792.96 3245.91L2872.01 3332.63C2881.85 3343.43 2898.1 3345.47 2910.32 3337.44L2962.35 3303.24C2970.86 3297.64 2975.91 3288.1 2975.75 3277.91L2963.88 2538.07L2773.26 2481.41Z" fill="url(#paint25_linear)"/>
<path d="M2864.94 2282.88C2829.21 2283.47 2799.79 2254.97 2799.23 2219.25C2798.66 2183.54 2827.16 2154.12 2862.86 2153.54C2898.57 2152.97 2928.01 2181.47 2928.57 2217.17C2929.16 2252.88 2900.66 2282.32 2864.94 2282.88ZM2861.07 2042.1C2684.68 2044.93 2543.98 2190.22 2546.81 2366.61C2549.65 2543.02 2694.94 2683.7 2871.33 2680.88C3047.71 2678.05 3188.41 2532.76 3185.58 2356.37C3182.77 2179.96 3037.47 2039.28 2861.07 2042.1Z" fill="url(#paint26_linear)"/>
<path d="M2862.86 2153.54C2898.57 2152.97 2928.01 2181.47 2928.57 2217.17C2929.16 2252.88 2900.66 2282.32 2864.94 2282.88C2829.21 2283.47 2799.79 2254.97 2799.23 2219.25C2798.66 2183.54 2827.16 2154.12 2862.86 2153.54ZM3185.58 2356.37C3182.77 2179.96 3037.47 2039.28 2861.07 2042.1C2684.68 2044.93 2543.98 2190.22 2546.81 2366.61C2549.12 2509.99 2645.53 2629.78 2776.26 2668.08L2776.77 2699.22C2817.01 2697.77 2837.18 2708.77 2848.05 2721.07C2878.64 2755.6 2857.76 3272.3 2884.58 3340.74C2892.98 3343.55 2902.48 3342.6 2910.32 3337.44L2962.36 3303.24C2970.87 3297.64 2975.93 3288.09 2975.77 3277.9L2965.92 2665.03C3095.36 2622.56 3187.89 2499.73 3185.58 2356.37" fill="url(#paint27_linear)"/>
<path d="M2864.93 2282.9C2829.2 2283.48 2799.79 2254.97 2799.22 2219.26C2798.64 2183.55 2827.15 2154.12 2862.84 2153.54C2898.58 2152.99 2928 2181.48 2928.56 2217.17C2929.13 2252.9 2900.64 2282.33 2864.93 2282.9ZM2862.08 2104.78C2720.3 2107.06 2607.2 2223.84 2609.48 2365.61C2611.76 2507.39 2728.54 2620.47 2870.32 2618.21C3012.09 2615.93 3125.17 2499.15 3122.91 2357.38C3120.63 2215.6 3003.85 2102.5 2862.08 2104.78Z" fill="url(#paint28_linear)"/>
<path d="M3486.13 2818.25C3486.13 2818.25 3185.32 2918.94 3017.07 2790.84C3006.63 2782.89 2993.46 2779.42 2980.52 2781.54L2916.23 2792.02C2889.26 2796.41 2863.55 2778.91 2857.73 2752.22C2854.42 2736.97 2852.81 2720.31 2856.19 2706L2977.54 2698.69L2974.08 2682.92C2974.08 2682.92 3027.7 2696.06 3028.79 2738.02C3028.79 2738.02 3154.61 2820.43 3384.07 2692.51C3384.07 2692.51 3473.45 2762.44 3486.13 2818.25" fill="url(#paint29_linear)"/>
<path d="M3754.96 2647.29C3767.33 2621.33 3788.88 2604.28 3801.9 2578.84C3818.3 2546.78 3818.86 2504.34 3808.11 2468.64C3799.2 2439.01 3783.33 2413.44 3774.24 2383.89C3762.02 2344.14 3761.78 2327.04 3767.36 2287.13C3772.26 2251.98 3783.01 2214.54 3809.55 2194.35C3842.38 2169.41 3882.52 2164.69 3920.1 2173.7C3959.09 2183.09 3996.91 2204.14 4025.45 2239.23C4053.99 2274.31 4072.58 2323.54 4072.1 2374.01C4071.78 2408.16 4063.14 2443.34 4071.75 2475.69C4078.45 2500.85 4095.83 2520.91 4116.16 2526.96C4138.77 2533.66 4162.27 2523.85 4185.45 2524.22C4208.47 2524.61 4231.27 2535.45 4248.82 2554.36C4264.37 2571.1 4275.89 2594.58 4278.53 2620.28C4281.14 2645.97 4274.1 2673.61 4258.58 2690.38C4247.97 2701.85 4233 2709.62 4229.08 2726.62C4224.71 2745.65 4237.56 2764.76 4251.94 2772.48C4266.29 2780.21 4282.45 2780.86 4297.07 2787.78C4329.76 2803.25 4349.55 2850.1 4346.99 2894.34C4344.46 2938.57 4322.43 2978.62 4293.57 3003.53C4264.71 3028.42 4229.7 3039.61 4194.92 3043.21C4160.16 3046.82 4125.2 3043.29 4090.37 3041.21C4050.52 3038.82 4009.87 3038.16 3972.08 3021.89C3933.86 3005.45 3900.84 2974 3870.04 2940.85C3855.48 2925.16 3840.68 2907.98 3834.14 2885.16C3829.37 2868.58 3829.37 2850.18 3823.9 2833.97C3812.19 2799.18 3779.68 2784.38 3760.88 2755.05C3741.81 2725.3 3739.33 2680.12 3754.96 2647.29" fill="url(#paint30_linear)"/>
<path d="M4187.35 2709.81L4187.56 2709.78C4204.04 2705.93 4218.58 2690.58 4224.57 2670.69C4230.57 2650.78 4227.84 2627.02 4217.62 2610.14C4202.43 2585.06 4175.7 2578.58 4149.59 2574.08L4102.33 2565.93C4075.65 2561.33 4048.29 2554.74 4032.98 2529.66C4016.6 2502.91 4019.87 2466.38 4023.01 2431.05C4023.37 2427.01 4023.74 2423 4024.05 2419.04C4028.2 2368.56 4024.05 2324.68 4011.72 2288.6C3996.67 2244.61 3968.61 2212.21 3936.71 2202.01C3936.04 2201.78 3935.39 2202.3 3935.23 2203.1C3935.08 2203.94 3935.47 2204.77 3936.11 2204.97C3967.31 2214.97 3994.75 2246.68 4009.51 2289.82C4021.66 2325.4 4025.76 2368.77 4021.69 2418.72C4021.35 2422.66 4020.98 2426.68 4020.62 2430.7C4017.4 2466.65 4014.08 2503.82 4031.06 2531.54C4046.97 2557.53 4074.81 2564.28 4101.99 2568.97L4149.28 2577.12C4174.87 2581.53 4201.08 2587.86 4215.69 2612.01C4225.43 2628.06 4228.02 2650.66 4222.34 2669.58C4216.63 2688.5 4202.8 2703.1 4187.12 2706.77C4186.47 2706.93 4186.03 2707.72 4186.16 2708.56C4186.26 2709.29 4186.76 2709.81 4187.35 2709.81" fill="#BDD0FB"/>
<path d="M4172.44 2691.36C4173.03 2691.36 4173.59 2691.08 4174.06 2690.53C4179.85 2683.65 4186.41 2675.84 4190.27 2665.94C4193.83 2656.96 4195.58 2643.62 4189.91 2633.13C4186.23 2626.29 4180.24 2622.37 4174.29 2619.16C4159.85 2611.34 4144.66 2605.75 4129.17 2602.54C4119.1 2600.44 4108.78 2599.36 4098.8 2598.29C4085.93 2596.93 4072.59 2595.52 4059.85 2591.94C4044.61 2587.66 4017.25 2575.94 4005.36 2545.5C3995.76 2520.89 3999.31 2493.45 4003.09 2464.41C4006.16 2440.85 4009.32 2416.49 4005 2393.34C4004.66 2391.7 4003.38 2390.68 4002.09 2391.08C4000.78 2391.48 3999.98 2393.13 4000.29 2394.77C4004.41 2416.72 4001.34 2440.45 3998.33 2463.41C3994.6 2492.13 3990.74 2521.85 4001.04 2548.23C4013.85 2580.96 4042.73 2593.41 4058.82 2597.93C4071.87 2601.6 4085.36 2603.03 4098.41 2604.41C4108.29 2605.45 4118.51 2606.53 4128.4 2608.59C4143.51 2611.72 4158.31 2617.17 4172.39 2624.79C4177.3 2627.45 4182.81 2630.77 4185.95 2636.59C4189.63 2643.42 4189.63 2653.88 4185.98 2663.2C4182.48 2672.12 4176.53 2679.21 4170.79 2686.05C4169.81 2687.21 4169.76 2689.16 4170.66 2690.39C4171.12 2691.04 4171.77 2691.36 4172.44 2691.36" fill="#BDD0FB"/>
<path d="M3800.58 2595.72C3828.73 2586.78 3910.83 2569.8 3990.32 2640.83C4003.79 2652.88 4009.55 2671.41 4005.07 2688.93C3985.29 2766.73 3933.47 2996.47 3983.74 3094.69C3983.74 3094.69 3899.47 3190.62 3804.69 3115.93C3804.69 3115.93 3759.76 2933.62 3703.47 2854.18C3664.6 2799.33 3760.64 2644.95 3784.98 2607.64C3788.66 2601.99 3794.17 2597.76 3800.58 2595.72" fill="url(#paint31_linear)"/>
<path d="M3876.2 2440.59C3876.2 2440.59 3919.91 2558.23 3923.91 2610.37C3923.91 2610.37 3878.03 2632.14 3833.88 2597.35C3833.88 2597.35 3827.4 2479.25 3820.47 2458.21L3876.2 2440.59Z" fill="url(#paint32_linear)"/>
<path d="M3815.5 2280.18C3815.5 2280.18 3708.56 2435.06 3774.67 2478.47C3840.8 2521.9 3916.92 2411.83 3916.92 2411.83C3916.92 2411.83 3940.94 2327.64 3913.94 2299.62C3886.95 2271.62 3815.5 2280.18 3815.5 2280.18Z" fill="url(#paint33_linear)"/>
<path d="M3865.54 2242.79C3865.54 2242.79 3815.48 2255.51 3808.78 2278.37C3802.11 2301.21 3880.78 2321.05 3902.75 2321.73L3921.9 2413.21C3921.9 2413.21 3972.78 2326.05 3951.27 2276.5C3929.77 2226.98 3865.54 2242.79 3865.54 2242.79Z" fill="url(#paint34_linear)"/>
<path d="M3895.54 2400.92C3895.54 2400.92 3937.31 2350.92 3954.77 2382.78C3972.23 2414.66 3917.35 2439.7 3897.97 2424.23L3895.54 2400.92Z" fill="url(#paint35_linear)"/>
<path d="M3701.62 3501.88C3702.07 3510.18 3688.56 3576.31 3681.18 3611.58C3678.23 3625.78 3680.69 3640.54 3688.09 3653L3970.42 4111.23C3973.85 4116.78 3976.35 4122.8 3977.94 4129.11C3983.33 4150.75 3994.61 4203.79 3989.94 4252.28L3976.2 4282.04L4037.47 4267.08L4048.2 4101.71L4030.62 4091.38C4015.42 4082.44 4003.5 4068.92 3996.52 4052.74C3970.69 3992.76 3906.49 3840.07 3889.38 3765.42C3869.93 3680.59 3774.29 3612.96 3774.29 3612.96L3790.26 3573.44L3701.62 3501.88" fill="url(#paint36_linear)"/>
<path d="M4104.93 4209.14C4104.93 4209.14 4070.88 4157.02 4066.62 4136.6C4062.39 4116.16 4050.93 4080.14 4030.63 4091.37C4030.63 4091.37 4022.6 4191.09 4026.53 4229.94C4030.51 4268.8 3983.16 4268.31 3983.16 4268.31C3983.16 4268.31 3970.17 4270.35 3960.78 4280.05C3954.28 4286.75 3959.19 4298.11 3968.48 4298.56C3983.99 4299.3 4008.57 4299.17 4034.34 4293.76C4043.3 4291.88 4049.87 4284.09 4050.28 4274.9L4055.24 4160.2L4098 4212.43L4104.93 4209.14" fill="url(#paint37_linear)"/>
<path d="M3867.02 3572.93C3867.02 3572.93 3883.38 3986.61 3885.64 4045.37C3887.91 4104.12 3879.4 4234.55 3821.11 4274.43L3847.06 4293C3847.06 4293 3878.67 4265.25 3909.14 4212.33C3943.35 4152.89 3953.8 4141.96 3953.8 4141.96L3941.75 4118.25C3936.47 4107.88 3934.77 4096.07 3936.94 4084.63C3948.68 4022.79 3987.86 3817.14 3998.72 3772.8C4011.55 3720.48 4011.4 3650.87 3962.89 3593.39C3914.37 3535.91 3867.02 3572.93 3867.02 3572.93" fill="url(#paint38_linear)"/>
<path d="M3933.33 4310.27C3935.15 4310.25 3936.69 4308.92 3936.91 4307.11C3938.66 4293.28 3945.91 4237.84 3952.39 4223.4C3959.76 4206.88 3983.64 4137.44 3950.88 4132.11C3950.88 4132.11 3871.6 4252.03 3856.29 4268.28C3840.95 4284.52 3821.11 4274.43 3821.11 4274.43C3821.11 4274.43 3806 4279.16 3794.8 4293.99C3789.44 4301.04 3794.68 4311.17 3803.54 4311.12L3858.23 4310.76C3874.11 4310.66 3888.25 4300.77 3893.92 4285.94C3903.15 4261.74 3919.11 4226.2 3938.15 4210.25L3929.68 4306.31C3929.48 4308.44 3931.19 4310.28 3933.33 4310.27" fill="url(#paint39_linear)"/>
<path d="M3790.99 3071.52C3790.99 3071.52 3803.96 3110.61 3786.06 3175.6L3675.22 3587.63C3673.49 3594.1 3677.1 3600.79 3683.43 3602.95C3718.74 3614.99 3834.82 3648.78 3992.28 3635.36C4000.22 3634.68 4006.77 3628.96 4008.37 3621.16C4018.01 3574.24 4050.89 3414.15 4057.65 3381.26C4083.45 3255.91 4112.33 3120.71 3974.44 3041.47C3911.92 3069.44 3853.46 3086.28 3790.99 3071.52" fill="url(#paint40_linear)"/>
<path d="M4001.79 2656.1C4001.79 2656.1 4137.21 2765 4172.8 2916.21C4208.42 3067.42 3980.24 3087.24 3980.24 3087.24C3980.24 3087.24 3948.67 3053.11 3912.05 3066.05C3875.44 3079 3908.23 3005.67 3951.31 3005.16C3994.38 3004.65 3974.98 3039.04 4035.46 3010.45C4094.39 2982.61 4129.75 2898.87 3976.27 2775.25C3967.37 2768.09 3960.22 2758.89 3955.82 2748.33C3925.22 2674.75 3947.77 2625.83 4001.79 2656.1Z" fill="url(#paint41_linear)"/>
<path d="M2985.53 3337.33C2985.53 3337.33 3062.31 3544.19 3179.07 3518.8C3179.07 3518.8 3191.1 3589.19 3171.46 3597.49C3171.46 3597.49 2996.31 3602.57 2978.91 3362.03L2985.53 3337.33Z" fill="url(#paint42_linear)"/>
<path d="M2988.83 3385.81C2988.51 3389.38 3001.83 3391.86 3006.09 3376.58C3004.91 3369.94 3002.84 3340.89 2997.75 3336.37C2970.66 3312.33 2922.34 3285.27 2922.34 3285.27C2916.92 3293.53 2924.02 3298.97 2924.02 3298.97L2948.14 3315.23C2945.62 3323.58 2941.95 3330.94 2941.54 3340.46C2941.23 3347.66 2943.88 3354.72 2948.66 3360.18C2953.46 3365.68 2959.93 3372.76 2965.76 3378.13C2976.78 3388.3 2988.83 3385.81 2988.83 3385.81" fill="url(#paint43_linear)"/>
<path d="M2975.51 3374.05C2972.24 3366.12 2962.88 3344.58 2958.68 3340.2C2955.67 3337.05 2954.29 3334.16 2954.46 3331.36C2954.6 3329 2955.83 3326.9 2958.2 3324.96L2959.36 3324.01L2982.43 3336.34L2991.66 3350.78L2987.86 3353.21L2979.27 3339.76L2960 3329.45C2959.34 3330.18 2958.99 3330.9 2958.95 3331.64C2958.86 3333.06 2959.91 3334.96 2961.94 3337.09C2967.47 3342.88 2978.43 3369.34 2979.65 3372.34L2975.51 3374.05" fill="url(#paint44_linear)"/>
<path fill-rule="evenodd" clip-rule="evenodd" d="M3177.95 3250.89C3177.95 3250.89 3215.01 3217.41 3167.34 3181.11C3122.57 3147 3089.84 3192.78 3104.68 3222.23C3105.74 3224.31 3104.54 3226.84 3102.27 3227.35C3098.34 3228.2 3094.95 3232.1 3101.13 3245.85C3101.66 3247.04 3101.5 3248.41 3100.71 3249.45C3095.23 3256.83 3076.92 3286.32 3132.15 3290.84C3133.14 3290.92 3134.12 3290.57 3134.87 3289.91L3177.95 3250.89" fill="url(#paint45_linear)"/>
<path fill-rule="evenodd" clip-rule="evenodd" d="M3372.68 3300.03C3372.68 3300.03 3376.26 3257.3 3399.11 3243.38C3421.98 3229.45 3466.37 3217.61 3484.98 3264.06C3493.85 3286.22 3490.91 3296.77 3485.41 3301.73C3480.39 3306.26 3479.83 3313.3 3483.13 3319.22C3486.93 3325.94 3487.42 3334.26 3476.06 3341.81C3472.69 3344.04 3470.44 3347.31 3469.74 3351.04C3466.78 3366.53 3450.94 3403.69 3366.21 3363.06L3372.68 3300.03" fill="url(#paint46_linear)"/>
<path fill-rule="evenodd" clip-rule="evenodd" d="M3274.73 3223.21C3291.4 3216.07 3326.73 3208.79 3354.18 3256.83C3356.11 3260.19 3358.89 3262.96 3362.27 3264.83C3378.62 3273.84 3426 3306.64 3382.87 3365.83C3380.89 3368.55 3379.59 3371.68 3379.13 3375C3377.66 3385.03 3372.89 3407.24 3358.55 3412.73C3354.26 3414.36 3350.67 3417.39 3348.27 3421.31C3338.65 3437.17 3311.15 3470.57 3264.87 3435.69C3262.54 3433.92 3259.81 3432.65 3256.93 3432.01L3193.05 3417.95C3189.65 3417.2 3186.14 3417.35 3182.8 3418.32C3174.98 3420.6 3159.19 3422.6 3153.33 3404.23C3152.13 3400.48 3149.9 3397.16 3146.92 3394.61C3136.22 3385.51 3113.46 3360.81 3130.67 3326.2C3132.6 3322.32 3133.3 3317.97 3132.65 3313.69C3130.61 3300.73 3129.56 3271.95 3156.46 3259.52C3160.52 3257.65 3163.88 3254.61 3165.94 3250.65C3174.91 3233.39 3204.15 3189.15 3255.69 3221.59C3261.4 3225.2 3268.53 3225.88 3274.73 3223.21" fill="url(#paint47_linear)"/>
<path fill-rule="evenodd" clip-rule="evenodd" d="M3187.98 4238.4L3197.28 4249.14L3190.88 4272.48C3189.22 4278.6 3184.19 4283.2 3177.96 4284.33C3157.2 4288.15 3110.11 4295.01 3085.88 4284.59C3085.88 4284.59 3078.35 4234.11 3161.81 4249.14L3187.98 4238.4Z" fill="url(#paint48_linear)"/>
<path fill-rule="evenodd" clip-rule="evenodd" d="M3333.5 4265.22L3338.46 4277.36L3336.45 4321.12C3336.18 4327.27 3331.23 4332.43 3324.53 4333.46C3315.4 4334.87 3302.12 4336.28 3289.65 4335.32C3279.86 4334.56 3273.74 4325.39 3277.57 4317.19L3292.29 4285.63C3294.5 4280.91 3298.52 4277.28 3303.43 4275.59L3333.5 4265.22Z" fill="url(#paint49_linear)"/>
<path fill-rule="evenodd" clip-rule="evenodd" d="M3291.17 3412.34L3300.66 3506.46C3300.66 3506.46 3249.49 3523.82 3215.8 3504.24L3224.91 3409.73L3291.17 3412.34Z" fill="url(#paint50_linear)"/>
<path fill-rule="evenodd" clip-rule="evenodd" d="M3373.21 3927.68C3373.21 3927.68 3348.93 4198.44 3332.9 4281.29C3332.9 4281.29 3320.89 4290.03 3302.93 4278.76L3281.14 3917.42L3373.21 3927.68" fill="url(#paint51_linear)"/>
<path fill-rule="evenodd" clip-rule="evenodd" d="M3265.3 3943.93L3198.77 4247.16C3198.77 4247.16 3180.67 4265.93 3157.15 4247.16L3168.61 3928.38L3265.3 3943.93" fill="url(#paint52_linear)"/>
<path fill-rule="evenodd" clip-rule="evenodd" d="M3349.48 3513.56L3366.12 3515.41C3398.35 3549.97 3457.47 3787.45 3478.79 3837.94L3565.56 3823.77C3568.96 3823.08 3571.74 3826.46 3570.43 3829.68C3566.59 3839.09 3552.13 3866.25 3495.82 3866.25C3469.5 3866.25 3510.56 3886.66 3494.83 3893.68C3494.83 3893.68 3460.25 3881.22 3460.19 3859.33C3460.19 3859.33 3361.05 3633.52 3340.67 3609.76C3320.3 3585.98 3349.48 3513.56 3349.48 3513.56" fill="url(#paint53_linear)"/>
<path fill-rule="evenodd" clip-rule="evenodd" d="M3366.1 3515.42C3366.1 3515.42 3277.92 3482.75 3167.83 3516.56C3167.83 3516.56 3155.48 3599.91 3161.84 3639.57L3351.54 3646.44L3366.1 3515.42Z" fill="url(#paint54_linear)"/>
<path fill-rule="evenodd" clip-rule="evenodd" d="M3164.45 3665.62C3164.45 3665.62 3103.82 3860.24 3094.83 3989.91C3094.37 3996.58 3099.37 4002.33 3106.04 4002.81C3118.68 4003.72 3140.92 4006.83 3171.14 4016.89C3220.16 4033.21 3260.74 4027.82 3297.4 4017.3C3326.16 4009.05 3398.08 4001.82 3427.68 3999.11C3434.73 3998.45 3439.71 3991.92 3438.47 3984.94C3429.86 3936.96 3397.15 3766.68 3347.54 3650.93L3164.45 3665.62Z" fill="url(#paint55_linear)"/>
<path fill-rule="evenodd" clip-rule="evenodd" d="M3161.22 3635.08L3164.45 3665.62C3164.45 3665.62 3222.77 3665.85 3351.66 3661.52L3352.32 3639.43C3352.32 3639.43 3209.55 3642.21 3161.22 3635.08Z" fill="url(#paint56_linear)"/>
<path fill-rule="evenodd" clip-rule="evenodd" d="M3161.65 3321.1C3147 3377.69 3151.28 3442.72 3217.87 3457.32C3263.93 3467.42 3312.33 3420.48 3326.97 3363.88C3341.63 3307.29 3316.56 3264.19 3270.9 3252.37C3225.23 3240.55 3176.29 3264.5 3161.65 3321.1" fill="url(#paint57_linear)"/>
<path fill-rule="evenodd" clip-rule="evenodd" d="M3166.66 3338.55C3166.66 3338.55 3164.47 3304.32 3147.41 3314.88C3130.35 3325.44 3153.99 3366.45 3164.57 3368.85C3175.11 3371.25 3166.66 3338.55 3166.66 3338.55" fill="url(#paint58_linear)"/>
<path fill-rule="evenodd" clip-rule="evenodd" d="M3312.69 3378.01C3312.69 3378.01 3317.77 3351.9 3336.28 3363.97C3354.78 3376.04 3319.48 3418.69 3297.75 3409.21L3312.69 3378.01Z" fill="url(#paint59_linear)"/>
<path fill-rule="evenodd" clip-rule="evenodd" d="M3340.04 3357.27C3340.04 3357.27 3287.08 3414.59 3259.57 3295.64C3259.57 3295.64 3232.13 3331.17 3219.61 3299.73C3219.61 3299.73 3164.96 3318.47 3158.92 3295.48C3152.88 3272.5 3232.79 3210.16 3297.09 3254.89C3361.34 3299.63 3340.04 3357.27 3340.04 3357.27Z" fill="url(#paint60_linear)"/>
<path d="M1537.8 4307.39C1537.79 4306.31 1537.87 4305.23 1538.13 4304.13C1554.36 4239.84 1620.67 4206.88 1620.67 4206.88L1652.56 4209.39C1670.89 4266.05 1682.72 4293.72 1679.77 4309.2C1679.69 4309.63 1679.56 4310.04 1679.44 4310.45C1653.13 4312.81 1598.99 4314.35 1537.8 4307.39" fill="url(#paint61_linear)"/>
<path d="M1679.44 4310.45C1678.03 4315.63 1674.21 4319.65 1669.32 4320.68C1631.89 4328.55 1572.41 4322.21 1547.44 4318.95C1541.93 4318.23 1537.89 4313.13 1537.8 4307.39C1598.99 4314.35 1653.13 4312.81 1679.44 4310.45Z" fill="#7D97F4"/>
<path d="M1594.4 4157.25L1608.36 4224.48C1609.39 4229.4 1613.17 4233.09 1617.76 4233.52C1623.37 4234.05 1631.36 4234.36 1639.39 4233.17C1646.6 4232.12 1651.61 4224.8 1650.33 4216.95L1640.63 4157.25H1594.4Z" fill="url(#paint62_linear)"/>
<path d="M1950.44 4309.91C1916.39 4308.95 1898.76 4304.93 1889.65 4301.21C1889.63 4304.6 1889.65 4308.05 1889.76 4311.61C1889.88 4315.44 1892.71 4318.48 1896.17 4318.45L2083.21 4317.25C2089.17 4317.21 2092.67 4310.29 2090.08 4304.81C2065.56 4306.84 2003.11 4311.37 1950.44 4309.91Z" fill="#7D97F4"/>
<path d="M2090.08 4304.81C2089.85 4304.35 2089.67 4303.85 2089.35 4303.4C2072.83 4280.33 2030.76 4234.37 1947.63 4214.44L1907.75 4213.17C1907.75 4213.17 1889.99 4244.04 1889.65 4301.21C1898.76 4304.93 1916.39 4308.95 1950.44 4309.91C2003.11 4311.37 2065.56 4306.84 2090.08 4304.81" fill="url(#paint63_linear)"/>
<path d="M1900.35 4152.75C1900.79 4155.72 1906.25 4200.89 1908.37 4218.41C1908.88 4222.57 1911.89 4225.8 1915.69 4226.25C1922.48 4227.05 1933.48 4227.8 1943.09 4225.83C1948.28 4224.76 1952.03 4219.79 1952.03 4213.99V4143.07L1900.35 4152.75Z" fill="url(#paint64_linear)"/>
<path d="M1621.04 3274.49C1621.04 3274.49 1557.23 3841.72 1592.68 4196.25C1592.68 4196.25 1635.23 4196.25 1656.49 4189.16C1656.49 4189.16 1722.81 3634.55 1744.27 3475.84C1745.07 3469.85 1753.61 3469.59 1754.79 3475.51C1781.25 3609.03 1885.21 4132.63 1897.57 4182.07C1897.57 4182.07 1933.03 4196.25 1961.39 4182.07C1961.39 4182.07 1904.67 3423.39 1862.12 3288.67L1621.04 3274.49" fill="url(#paint65_linear)"/>
<path d="M1493.42 2615.08C1493.42 2615.08 1762.85 2572.53 1975.58 2629.24L1961.39 2849.05C1961.39 2849.05 1904.68 3153.94 1862.13 3288.66C1862.13 3288.66 1699.04 3317.03 1621.04 3274.49C1621.04 3274.49 1557.23 2891.6 1521.8 2834.87C1521.8 2834.87 1486.33 2685.97 1493.42 2615.08" fill="url(#paint66_linear)"/>
<path d="M1680.58 2421.34L1653.75 2602.85C1653.75 2602.85 1728.75 2637.29 1781.25 2601.38L1769.94 2473.27L1680.58 2421.34Z" fill="url(#paint67_linear)"/>
<path d="M1796.16 2303.12C1797.01 2304.66 1813.2 2396.19 1823.15 2452.84C1827.25 2476.25 1810.05 2498.01 1786.32 2499.41L1764.61 2500.7C1724.67 2503.06 1689.52 2474.64 1683.48 2435.09L1667.76 2332.48C1667.76 2332.48 1775.65 2265.89 1796.16 2303.12Z" fill="url(#paint68_linear)"/>
<path d="M1644.33 2332.74C1636 2322.37 1628.73 2305.63 1646.48 2288.01C1664.44 2270.17 1684.81 2274.64 1697.73 2280.61C1703.45 2283.26 1710.5 2282.09 1714.57 2277.27C1716.39 2275.12 1719.07 2273.67 1723.06 2274.12C1730.58 2274.97 1737.28 2270 1738.16 2262.5C1739.7 2249.63 1746.55 2234.47 1769.33 2230.07C1811.06 2222 1831.88 2263.78 1831.13 2293.13C1830.38 2322.49 1784.63 2328.67 1758.67 2323.81C1739.61 2320.22 1723.12 2336.98 1715.72 2346.11C1713.02 2349.45 1712.02 2353.78 1713 2357.95L1719.59 2386.31C1715.02 2395.13 1710.54 2404.14 1704.12 2411.66C1699.5 2417.08 1694.43 2420.06 1689.04 2421.33C1681.26 2406.84 1659.5 2404.39 1649.39 2404.07C1645.52 2403.94 1641.9 2402.24 1639.36 2399.32C1631.73 2390.57 1619.78 2371.04 1642.64 2351.87C1648.33 2347.1 1648.97 2338.53 1644.33 2332.74" fill="url(#paint69_linear)"/>
<path d="M1696.57 2451.69C1696.57 2451.69 1695.68 2400.48 1674.94 2395.68C1654.22 2390.85 1631.85 2405.85 1649.59 2436.51C1671.63 2474.66 1696.57 2451.69 1696.57 2451.69Z" fill="url(#paint70_linear)"/>
<path d="M1493.42 2615.07C1493.42 2615.07 1075.09 3068.86 1567.88 3242.59V3207.12C1567.88 3207.12 1383.53 3051.12 1525.32 2838.42C1525.32 2838.42 1507.61 2636.34 1493.42 2615.07Z" fill="url(#paint71_linear)"/>
<path d="M1571.41 3210.68C1571.41 3210.68 1635.23 3168.13 1663.59 3182.31C1691.95 3196.49 1691.95 3217.76 1691.95 3217.76C1691.95 3217.76 1677.77 3246.12 1656.49 3239.04C1635.23 3231.95 1585.6 3246.12 1564.32 3239.04C1564.32 3239.04 1557.23 3210.68 1571.41 3210.68" fill="url(#paint72_linear)"/>
<path d="M2301.77 2775.37C2166.73 2795.64 2090.84 2703.42 2025.25 2651.73C1938.65 2583.47 1859.08 2623.68 1859.08 2623.68L1944.31 2822.59C2082.25 2952.64 2230.78 2901.12 2319.95 2858.96C2321.33 2824.92 2312.23 2796.43 2301.77 2775.37Z" fill="url(#paint73_linear)"/>
<path d="M2491.61 2694.79L2446.83 2718.88C2393.12 2751.59 2345.05 2768.88 2301.79 2775.37C2312.23 2796.42 2321.32 2824.92 2319.96 2858.96C2376.72 2832.14 2412.29 2799.94 2412.29 2799.94C2513.75 2739.43 2491.61 2694.79 2491.61 2694.79" fill="url(#paint74_linear)"/>
<path d="M2623.57 2757.9C2620.68 2748.28 2613.57 2740.51 2604.27 2736.75L2513.36 2700.21C2513.36 2700.21 2511.99 2688.55 2532.57 2680.62C2553.15 2672.7 2548.34 2649.65 2548.34 2649.65C2548.34 2649.65 2520.23 2662.48 2479.06 2682.83C2455.52 2694.45 2442.33 2715 2435.33 2730.45L2458.73 2761.22C2514.73 2778.05 2571.43 2781.28 2628.6 2774.6L2623.57 2757.9" fill="url(#paint75_linear)"/>

</svg>
