<svg width="296" height="170" viewBox="0 0 296 170" fill="none" xmlns="http://www.w3.org/2000/svg">
<g filter="url(#filter0_d)">
<rect x="158" y="16" width="108" height="43" rx="10" fill="white"/>
</g>
<path fill-rule="evenodd" clip-rule="evenodd" d="M175.84 38.472L173.008 40.56L172 38.832L175.264 37.464L172.024 36.144L172.96 34.464L175.864 36.552L175.456 33H177.376L176.968 36.552L179.848 34.464L180.76 36.12L177.52 37.488L180.784 38.832L179.8 40.536L176.968 38.472L177.352 42H175.456L175.84 38.472ZM190.052 38.472L187.22 40.56L186.212 38.832L189.476 37.464L186.236 36.144L187.172 34.464L190.076 36.552L189.669 33H191.589L191.181 36.552L194.061 34.464L194.972 36.12L191.733 37.488L194.997 38.832L194.013 40.536L191.181 38.472L191.565 42H189.669L190.052 38.472ZM204.265 38.472L201.433 40.56L200.425 38.832L203.689 37.464L200.449 36.144L201.385 34.464L204.289 36.552L203.881 33H205.801L205.393 36.552L208.273 34.464L209.185 36.12L205.945 37.488L209.209 38.832L208.225 40.536L205.393 38.472L205.777 42H203.881L204.265 38.472ZM218.478 38.472L215.646 40.56L214.638 38.832L217.902 37.464L214.662 36.144L215.597 34.464L218.502 36.552L218.094 33H220.014L219.606 36.552L222.486 34.464L223.398 36.12L220.158 37.488L223.422 38.832L222.438 40.536L219.606 38.472L219.99 42H218.094L218.478 38.472ZM232.69 38.472L229.858 40.56L228.85 38.832L232.114 37.464L228.874 36.144L229.81 34.464L232.714 36.552L232.306 33H234.226L233.818 36.552L236.698 34.464L237.61 36.12L234.37 37.488L237.634 38.832L236.65 40.536L233.818 38.472L234.202 42H232.306L232.69 38.472ZM246.902 38.472L244.07 40.56L243.062 38.832L246.326 37.464L243.086 36.144L244.022 34.464L246.926 36.552L246.518 33H248.438L248.03 36.552L250.91 34.464L251.822 36.12L248.582 37.488L251.846 38.832L250.862 40.536L248.03 38.472L248.414 42H246.518L246.902 38.472Z" fill="#2B2B43"/>
<path d="M58.6666 138C58.6666 142.48 57.36 147.093 55.0666 151.307C54.64 152 54.5866 152.88 54.88 153.707L56.6666 159.68C57.0666 161.12 55.84 162.187 54.48 161.76L49.0933 160.16C47.6266 159.68 46.48 160.293 45.1173 161.12C41.224 163.413 36.3733 164.587 32 164.587C18.7733 164.587 5.3333 154.373 5.3333 137.92C5.3333 123.733 16.8 111.333 31.9466 111.333C47.44 111.333 58.6666 123.973 58.6666 138Z" fill="#2B2B43" stroke="#FFFAFC" stroke-width="2"/>
<path fill-rule="evenodd" clip-rule="evenodd" d="M35.4651 138C35.4651 136.134 33.9185 134.587 32.0518 134.614C30.1585 134.614 28.6385 136.134 28.6385 138.027C28.6385 139.894 30.1585 141.44 32.0518 141.44C33.9451 141.414 35.4651 139.894 35.4651 138ZM47.7596 138.027C47.7596 136.134 46.2396 134.614 44.3462 134.614C42.4529 134.614 40.9329 136.134 40.9329 138.027C40.9329 139.894 42.4529 141.414 44.3462 141.44C46.2129 141.44 47.7596 139.894 47.7596 138.027ZM19.759 134.614C21.6523 134.614 23.1723 136.134 23.1723 138.027C23.1723 139.894 21.6523 141.44 19.759 141.44C17.8656 141.44 16.3456 139.894 16.3456 138.027C16.3456 136.134 17.8656 134.614 19.759 134.614Z" fill="white"/>
<path fill-rule="evenodd" clip-rule="evenodd" d="M123.969 121.421C121.002 121.421 118.591 119.063 118.591 116.101V102.681C118.591 99.779 121.002 97.4213 123.969 97.4213C126.998 97.4213 129.409 99.779 129.409 102.681V116.101C129.409 119.063 126.998 121.421 123.969 121.421ZM98.2604 69.0088C83.9193 69.0088 72.2919 80.3798 72.2919 94.4046V124.437C72.2919 138.462 83.9193 149.833 98.2604 149.833H149.74C164.081 149.833 175.709 138.462 175.709 124.437V94.4046C175.709 80.3798 164.081 69.0088 149.74 69.0088V69.0088H98.2604Z" fill="#1B1839"/>
<path opacity="0.4" d="M157.597 69.9385C155.434 69.334 153.147 69.0317 150.798 69.0317H146.78V60.9916C146.78 48.7199 136.58 38.7453 124.032 38.7453C111.483 38.7453 101.284 48.6594 101.222 60.8707V69.0317H97.2659C94.8551 69.0317 92.5679 69.334 90.4044 69.999V60.9916C90.4662 42.8561 105.487 28.1663 123.908 28.1663C142.576 28.1663 157.597 42.8561 157.597 60.9916V69.9385Z" fill="#1B1839"/>
<defs>
<filter id="filter0_d" x="128" y="0" width="168" height="103" filterUnits="userSpaceOnUse" color-interpolation-filters="sRGB">
<feFlood flood-opacity="0" result="BackgroundImageFix"/>
<feColorMatrix in="SourceAlpha" type="matrix" values="0 0 0 0 0 0 0 0 0 0 0 0 0 0 0 0 0 0 127 0" result="hardAlpha"/>
<feOffset dy="14"/>
<feGaussianBlur stdDeviation="15"/>
<feColorMatrix type="matrix" values="0 0 0 0 0 0 0 0 0 0 0 0 0 0 0 0 0 0 0.05 0"/>
<feBlend mode="normal" in2="BackgroundImageFix" result="effect1_dropShadow"/>
<feBlend mode="normal" in="SourceGraphic" in2="effect1_dropShadow" result="shape"/>
</filter>
</defs>
</svg>
