<svg width="3699" height="3700" viewBox="0 0 3699 3700" fill="none" xmlns="http://www.w3.org/2000/svg">
<defs>
<linearGradient id="paint0_linear" x1="8828.73" y1="5182.8" x2="2357.86" y2="-2853.63" gradientUnits="userSpaceOnUse">
<stop stop-color="#DAE3FE"/>
<stop offset="1" stop-color="#E9EFFD"/>
</linearGradient>
<linearGradient id="paint1_linear" x1="1017.21" y1="1466.94" x2="1343.43" y2="1466.94" gradientUnits="userSpaceOnUse">
<stop stop-color="#DAE3FE"/>
<stop offset="1" stop-color="#E9EFFD"/>
</linearGradient>
<linearGradient id="paint2_linear" x1="654.428" y1="1466.91" x2="979.976" y2="1466.91" gradientUnits="userSpaceOnUse">
<stop stop-color="#DAE3FE"/>
<stop offset="1" stop-color="#E9EFFD"/>
</linearGradient>
<linearGradient id="paint3_linear" x1="292.01" y1="1466.86" x2="616.881" y2="1466.86" gradientUnits="userSpaceOnUse">
<stop stop-color="#DAE3FE"/>
<stop offset="1" stop-color="#E9EFFD"/>
</linearGradient>
<linearGradient id="paint4_linear" x1="880.551" y1="1917.59" x2="1179.82" y2="1917.59" gradientUnits="userSpaceOnUse">
<stop stop-color="#DAE3FE"/>
<stop offset="1" stop-color="#E9EFFD"/>
</linearGradient>
<linearGradient id="paint5_linear" x1="547.792" y1="1917.34" x2="846.46" y2="1917.34" gradientUnits="userSpaceOnUse">
<stop stop-color="#DAE3FE"/>
<stop offset="1" stop-color="#E9EFFD"/>
</linearGradient>
<linearGradient id="paint6_linear" x1="215.334" y1="1917.09" x2="513.394" y2="1917.09" gradientUnits="userSpaceOnUse">
<stop stop-color="#DAE3FE"/>
<stop offset="1" stop-color="#E9EFFD"/>
</linearGradient>
<linearGradient id="paint7_linear" x1="780.906" y1="2274.71" x2="1060.56" y2="2274.71" gradientUnits="userSpaceOnUse">
<stop stop-color="#DAE3FE"/>
<stop offset="1" stop-color="#E9EFFD"/>
</linearGradient>
<linearGradient id="paint8_linear" x1="469.909" y1="2274.47" x2="748.981" y2="2274.47" gradientUnits="userSpaceOnUse">
<stop stop-color="#DAE3FE"/>
<stop offset="1" stop-color="#E9EFFD"/>
</linearGradient>
<linearGradient id="paint9_linear" x1="159.223" y1="2274.24" x2="437.716" y2="2274.24" gradientUnits="userSpaceOnUse">
<stop stop-color="#DAE3FE"/>
<stop offset="1" stop-color="#E9EFFD"/>
</linearGradient>
<linearGradient id="paint10_linear" x1="777.453" y1="2476.41" x2="1056.61" y2="2476.41" gradientUnits="userSpaceOnUse">
<stop stop-color="#DAE3FE"/>
<stop offset="1" stop-color="#E9EFFD"/>
</linearGradient>
<linearGradient id="paint11_linear" x1="466.993" y1="2476.08" x2="745.578" y2="2476.08" gradientUnits="userSpaceOnUse">
<stop stop-color="#DAE3FE"/>
<stop offset="1" stop-color="#E9EFFD"/>
</linearGradient>
<linearGradient id="paint12_linear" x1="156.845" y1="2475.75" x2="434.853" y2="2475.75" gradientUnits="userSpaceOnUse">
<stop stop-color="#DAE3FE"/>
<stop offset="1" stop-color="#E9EFFD"/>
</linearGradient>
<linearGradient id="paint13_linear" x1="774.013" y1="2677.41" x2="1052.69" y2="2677.41" gradientUnits="userSpaceOnUse">
<stop stop-color="#DAE3FE"/>
<stop offset="1" stop-color="#E9EFFD"/>
</linearGradient>
<linearGradient id="paint14_linear" x1="464.088" y1="2676.99" x2="742.187" y2="2676.99" gradientUnits="userSpaceOnUse">
<stop stop-color="#DAE3FE"/>
<stop offset="1" stop-color="#E9EFFD"/>
</linearGradient>
<linearGradient id="paint15_linear" x1="154.476" y1="2676.55" x2="432" y2="2676.55" gradientUnits="userSpaceOnUse">
<stop stop-color="#DAE3FE"/>
<stop offset="1" stop-color="#E9EFFD"/>
</linearGradient>
<linearGradient id="paint16_linear" x1="770.573" y1="2877.73" x2="1048.76" y2="2877.73" gradientUnits="userSpaceOnUse">
<stop stop-color="#DAE3FE"/>
<stop offset="1" stop-color="#E9EFFD"/>
</linearGradient>
<linearGradient id="paint17_linear" x1="461.192" y1="2877.2" x2="738.807" y2="2877.2" gradientUnits="userSpaceOnUse">
<stop stop-color="#DAE3FE"/>
<stop offset="1" stop-color="#E9EFFD"/>
</linearGradient>
<linearGradient id="paint18_linear" x1="152.116" y1="2876.67" x2="429.157" y2="2876.67" gradientUnits="userSpaceOnUse">
<stop stop-color="#DAE3FE"/>
<stop offset="1" stop-color="#E9EFFD"/>
</linearGradient>
<linearGradient id="paint19_linear" x1="767.16" y1="3077.35" x2="1044.86" y2="3077.35" gradientUnits="userSpaceOnUse">
<stop stop-color="#DAE3FE"/>
<stop offset="1" stop-color="#E9EFFD"/>
</linearGradient>
<linearGradient id="paint20_linear" x1="458.307" y1="3076.72" x2="735.437" y2="3076.72" gradientUnits="userSpaceOnUse">
<stop stop-color="#DAE3FE"/>
<stop offset="1" stop-color="#E9EFFD"/>
</linearGradient>
<linearGradient id="paint21_linear" x1="149.763" y1="3076.09" x2="426.324" y2="3076.09" gradientUnits="userSpaceOnUse">
<stop stop-color="#DAE3FE"/>
<stop offset="1" stop-color="#E9EFFD"/>
</linearGradient>
<linearGradient id="paint22_linear" x1="763.747" y1="3276.29" x2="1040.97" y2="3276.29" gradientUnits="userSpaceOnUse">
<stop stop-color="#DAE3FE"/>
<stop offset="1" stop-color="#E9EFFD"/>
</linearGradient>
<linearGradient id="paint23_linear" x1="455.432" y1="3275.56" x2="732.083" y2="3275.56" gradientUnits="userSpaceOnUse">
<stop stop-color="#DAE3FE"/>
<stop offset="1" stop-color="#E9EFFD"/>
</linearGradient>
<linearGradient id="paint24_linear" x1="147.419" y1="3274.84" x2="423.501" y2="3274.84" gradientUnits="userSpaceOnUse">
<stop stop-color="#DAE3FE"/>
<stop offset="1" stop-color="#E9EFFD"/>
</linearGradient>
<linearGradient id="paint25_linear" x1="760.36" y1="3474.55" x2="1037.1" y2="3474.55" gradientUnits="userSpaceOnUse">
<stop stop-color="#DAE3FE"/>
<stop offset="1" stop-color="#E9EFFD"/>
</linearGradient>
<linearGradient id="paint26_linear" x1="452.565" y1="3473.72" x2="728.737" y2="3473.72" gradientUnits="userSpaceOnUse">
<stop stop-color="#DAE3FE"/>
<stop offset="1" stop-color="#E9EFFD"/>
</linearGradient>
<linearGradient id="paint27_linear" x1="145.083" y1="3472.89" x2="420.688" y2="3472.89" gradientUnits="userSpaceOnUse">
<stop stop-color="#DAE3FE"/>
<stop offset="1" stop-color="#E9EFFD"/>
</linearGradient>
<linearGradient id="paint28_linear" x1="4367.63" y1="-1589.28" x2="5064.08" y2="-3196.47" gradientUnits="userSpaceOnUse">
<stop stop-color="#09005D"/>
<stop offset="1" stop-color="#1A0F91"/>
</linearGradient>
<linearGradient id="paint29_linear" x1="4492.07" y1="-607.214" x2="2905.76" y2="10387.6" gradientUnits="userSpaceOnUse">
<stop stop-color="#FEBBBA"/>
<stop offset="1" stop-color="#FF928E"/>
</linearGradient>
<linearGradient id="paint30_linear" x1="4420.24" y1="-583.708" x2="2843.38" y2="10345.6" gradientUnits="userSpaceOnUse">
<stop stop-color="#FEBBBA"/>
<stop offset="1" stop-color="#FF928E"/>
</linearGradient>
<linearGradient id="paint31_linear" x1="3953.69" y1="1063.34" x2="6014.71" y2="-3034.44" gradientUnits="userSpaceOnUse">
<stop stop-color="#FE7062"/>
<stop offset="1" stop-color="#FF928E"/>
</linearGradient>
<linearGradient id="paint32_linear" x1="626.109" y1="3624.81" x2="784.244" y2="3624.81" gradientUnits="userSpaceOnUse">
<stop stop-color="#09005D"/>
<stop offset="1" stop-color="#1A0F91"/>
</linearGradient>
<linearGradient id="paint33_linear" x1="670.084" y1="3444.77" x2="639.878" y2="3708.39" gradientUnits="userSpaceOnUse">
<stop stop-color="#FEBBBA"/>
<stop offset="1" stop-color="#FF928E"/>
</linearGradient>
<linearGradient id="paint34_linear" x1="866.906" y1="3628.83" x2="1094.54" y2="3628.83" gradientUnits="userSpaceOnUse">
<stop stop-color="#09005D"/>
<stop offset="1" stop-color="#1A0F91"/>
</linearGradient>
<linearGradient id="paint35_linear" x1="912.013" y1="3472.63" x2="898.449" y2="3737.63" gradientUnits="userSpaceOnUse">
<stop stop-color="#FEBBBA"/>
<stop offset="1" stop-color="#FF928E"/>
</linearGradient>
<linearGradient id="paint36_linear" x1="870.307" y1="3693.48" x2="557.647" y2="2202.63" gradientUnits="userSpaceOnUse">
<stop stop-color="#09005D"/>
<stop offset="1" stop-color="#1A0F91"/>
</linearGradient>
<linearGradient id="paint37_linear" x1="1452.84" y1="1267.3" x2="661.734" y2="2140.07" gradientUnits="userSpaceOnUse">
<stop stop-color="#4042E2"/>
<stop offset="1" stop-color="#4F52FF"/>
</linearGradient>
<linearGradient id="paint38_linear" x1="1346.78" y1="1240.74" x2="164.964" y2="3409.9" gradientUnits="userSpaceOnUse">
<stop stop-color="#4042E2"/>
<stop offset="1" stop-color="#4F52FF"/>
</linearGradient>
<linearGradient id="paint39_linear" x1="1128.25" y1="1328.39" x2="1215.15" y2="1091.08" gradientUnits="userSpaceOnUse">
<stop stop-color="#FEBBBA"/>
<stop offset="1" stop-color="#FF928E"/>
</linearGradient>
<linearGradient id="paint40_linear" x1="970.777" y1="1044.04" x2="935.544" y2="1313.09" gradientUnits="userSpaceOnUse">
<stop stop-color="#4042E2"/>
<stop offset="1" stop-color="#4F52FF"/>
</linearGradient>
<linearGradient id="paint41_linear" x1="1142.66" y1="833.391" x2="1105.08" y2="1120.35" gradientUnits="userSpaceOnUse">
<stop stop-color="#4042E2"/>
<stop offset="1" stop-color="#4F52FF"/>
</linearGradient>
<linearGradient id="paint42_linear" x1="1401.95" y1="869.532" x2="868.346" y2="1294.53" gradientUnits="userSpaceOnUse">
<stop stop-color="#FEBBBA"/>
<stop offset="1" stop-color="#FF928E"/>
</linearGradient>
<linearGradient id="paint43_linear" x1="1255.15" y1="612.347" x2="1507.68" y2="937.48" gradientUnits="userSpaceOnUse">
<stop stop-color="#09005D"/>
<stop offset="1" stop-color="#1A0F91"/>
</linearGradient>
<linearGradient id="paint44_linear" x1="1289.17" y1="950.807" x2="1034.43" y2="1145.72" gradientUnits="userSpaceOnUse">
<stop stop-color="#FEBBBA"/>
<stop offset="1" stop-color="#FF928E"/>
</linearGradient>
<linearGradient id="paint45_linear" x1="1797.25" y1="1202.39" x2="1278.22" y2="1650.73" gradientUnits="userSpaceOnUse">
<stop stop-color="#FEBBBA"/>
<stop offset="1" stop-color="#FF928E"/>
</linearGradient>
<linearGradient id="paint46_linear" x1="1776.68" y1="1284.12" x2="1277.97" y2="1714.91" gradientUnits="userSpaceOnUse">
<stop stop-color="#FEBBBA"/>
<stop offset="1" stop-color="#FF928E"/>
</linearGradient>
<linearGradient id="paint47_linear" x1="1875.74" y1="1149.01" x2="1344.11" y2="1608.24" gradientUnits="userSpaceOnUse">
<stop stop-color="#FEBBBA"/>
<stop offset="1" stop-color="#FF928E"/>
</linearGradient>
<linearGradient id="paint48_linear" x1="1398.71" y1="-227.917" x2="2885.82" y2="1735.09" gradientUnits="userSpaceOnUse">
<stop stop-color="#E1473D"/>
<stop offset="1" stop-color="#E9605A"/>
</linearGradient>
<linearGradient id="paint49_linear" x1="2953.16" y1="161.625" x2="2679.64" y2="1503.07" gradientUnits="userSpaceOnUse">
<stop stop-color="#FE7062"/>
<stop offset="1" stop-color="#FF928E"/>
</linearGradient>
<linearGradient id="paint50_linear" x1="1573.36" y1="739.69" x2="3918.89" y2="915.055" gradientUnits="userSpaceOnUse">
<stop stop-color="#FF9085"/>
<stop offset="1" stop-color="#FB6FBB"/>
</linearGradient>
<linearGradient id="paint51_linear" x1="2640.02" y1="650.66" x2="3207.37" y2="-791.853" gradientUnits="userSpaceOnUse">
<stop stop-color="#FE7062"/>
<stop offset="1" stop-color="#FF928E"/>
</linearGradient>
<linearGradient id="paint52_linear" x1="2874" y1="-769.392" x2="2779.55" y2="-586.396" gradientUnits="userSpaceOnUse">
<stop stop-color="#FE7062"/>
<stop offset="1" stop-color="#FF928E"/>
</linearGradient>
<linearGradient id="paint53_linear" x1="1284.35" y1="1856.76" x2="1061.28" y2="2969.53" gradientUnits="userSpaceOnUse">
<stop stop-color="#FEBBBA"/>
<stop offset="1" stop-color="#FF928E"/>
</linearGradient>
<linearGradient id="paint54_linear" x1="8632.39" y1="5165.25" x2="2295.91" y2="-2704.26" gradientUnits="userSpaceOnUse">
<stop stop-color="#C4D5FD"/>
<stop offset="1" stop-color="#CEDDFC"/>
</linearGradient>
<linearGradient id="paint55_linear" x1="7879.54" y1="5097.94" x2="2058.43" y2="-2131.52" gradientUnits="userSpaceOnUse">
<stop stop-color="#C4D5FD"/>
<stop offset="1" stop-color="#CEDDFC"/>
</linearGradient>
<linearGradient id="paint56_linear" x1="5432.64" y1="-5605.12" x2="4097.91" y2="2180.77" gradientUnits="userSpaceOnUse">
<stop stop-color="#5864E9"/>
<stop offset="1" stop-color="#636FFD"/>
</linearGradient>
<linearGradient id="paint57_linear" x1="4235.79" y1="-1432.74" x2="4913.85" y2="-2997.49" gradientUnits="userSpaceOnUse">
<stop stop-color="#32368C"/>
<stop offset="1" stop-color="#3E41B1"/>
</linearGradient>
<linearGradient id="paint58_linear" x1="5225.49" y1="-5265.01" x2="3936.43" y2="2254.55" gradientUnits="userSpaceOnUse">
<stop stop-color="#5864E9"/>
<stop offset="1" stop-color="#636FFD"/>
</linearGradient>
<linearGradient id="paint59_linear" x1="4340.02" y1="-1556.5" x2="5032.62" y2="-3154.8" gradientUnits="userSpaceOnUse">
<stop stop-color="#32368C"/>
<stop offset="1" stop-color="#3E41B1"/>
</linearGradient>
<linearGradient id="paint60_linear" x1="5382.54" y1="-5522.84" x2="4058.86" y2="2198.62" gradientUnits="userSpaceOnUse">
<stop stop-color="#5864E9"/>
<stop offset="1" stop-color="#636FFD"/>
</linearGradient>
<linearGradient id="paint61_linear" x1="7437.01" y1="5058.39" x2="1918.82" y2="-1794.86" gradientUnits="userSpaceOnUse">
<stop stop-color="#C4D5FD"/>
<stop offset="1" stop-color="#CEDDFC"/>
</linearGradient>
<linearGradient id="paint62_linear" x1="5524.3" y1="-5755.6" x2="4169.37" y2="2148.13" gradientUnits="userSpaceOnUse">
<stop stop-color="#5864E9"/>
<stop offset="1" stop-color="#636FFD"/>
</linearGradient>
<linearGradient id="paint63_linear" x1="7680.97" y1="5080.17" x2="1995.83" y2="-1980.47" gradientUnits="userSpaceOnUse">
<stop stop-color="#C4D5FD"/>
<stop offset="1" stop-color="#CEDDFC"/>
</linearGradient>
<linearGradient id="paint64_linear" x1="5556.39" y1="-5808.29" x2="4194.39" y2="2136.7" gradientUnits="userSpaceOnUse">
<stop stop-color="#5864E9"/>
<stop offset="1" stop-color="#636FFD"/>
</linearGradient>
<linearGradient id="paint65_linear" x1="6236.06" y1="-6924.04" x2="4724.27" y2="1894.66" gradientUnits="userSpaceOnUse">
<stop stop-color="#5864E9"/>
<stop offset="1" stop-color="#636FFD"/>
</linearGradient>
<linearGradient id="paint66_linear" x1="8478.21" y1="5151.47" x2="2247.27" y2="-2586.96" gradientUnits="userSpaceOnUse">
<stop stop-color="#C4D5FD"/>
<stop offset="1" stop-color="#CEDDFC"/>
</linearGradient>
<linearGradient id="paint67_linear" x1="6292.02" y1="-7015.89" x2="4767.91" y2="1874.73" gradientUnits="userSpaceOnUse">
<stop stop-color="#5864E9"/>
<stop offset="1" stop-color="#636FFD"/>
</linearGradient>
</defs>
<path d="M51.1661 2461.07C-25.6503 2148.67 -12.9256 1811.15 69.2917 1496.39C87.9675 1549.26 111.851 1598.27 139.771 1642.65C152.681 1663.15 164.591 1684.18 175.475 1705.65H115.525C89.6682 1705.65 68.5723 1722.55 68.0856 1743.1L51.1661 2461.07ZM3677.88 1760.21C3668.41 1753.97 3656.3 1750.09 3644.05 1750.09H3488.32V1131.68C3488.61 1131.6 3488.88 1131.49 3489.17 1131.36C3502.1 1125.7 3514.82 1119.17 3526.94 1111.98C3527.07 1111.9 3527.23 1111.79 3527.36 1111.71C3612.84 1318.7 3661.72 1539.76 3677.88 1760.21V1760.21ZM3488.32 1113.96V1023.63C3499.83 1047.89 3510.8 1072.38 3521.22 1097.06C3520.35 1097.22 3519.48 1097.56 3518.69 1098.04C3508.87 1103.83 3498.72 1109.17 3488.32 1113.96V1113.96ZM926.746 1017.29H795.973C695.871 871.737 551.186 782.101 407.939 780.646C493.124 662.153 639.679 484.785 854.373 331.988C822.721 430.167 812.012 542.973 828 660.223C837.16 727.483 854.412 790.987 878.172 849.149C900.439 903.661 916.706 960.051 926.746 1017.29V1017.29ZM3276.15 681.805H2223.79C2222.73 678.208 2221.72 674.584 2220.77 670.961C2219.21 665.063 2213.87 661.201 2208.07 661.201C2206.96 661.201 2205.83 661.333 2204.72 661.651C2197.71 663.502 2193.53 670.696 2195.38 677.705C2195.75 679.054 2196.12 680.43 2196.49 681.805H1743.05C1738.83 655.541 1735.96 628.96 1734.49 602.14C1733.32 580.796 1731.28 559.239 1728.32 537.525C1699.72 327.65 1592.49 154.302 1454.07 65.1157C1498.01 55.6204 1543.39 47.7385 1590.12 41.7345C1669.03 31.578 1750.16 26.4466 1832.32 26.4466C2251.13 26.4466 2698.73 159.618 3038.29 439.61C3127.37 513.086 3206.56 594.443 3276.15 681.805V681.805ZM2191.25 549.956C2191.07 549.956 2190.88 549.956 2190.7 549.956C2183.34 550.114 2177.82 556.383 2178.11 563.63C2178.27 567.492 2178.48 571.353 2178.74 575.241C2179.4 585.953 2180.44 596.824 2181.78 607.509C2182.6 614.148 2188.26 618.988 2194.77 618.988C2195.06 618.988 2195.33 618.988 2195.62 618.962C2195.88 618.962 2196.15 618.935 2196.41 618.883C2203.6 617.983 2208.71 611.424 2207.81 604.23C2206.54 594.073 2205.56 583.784 2204.93 573.575C2204.69 569.898 2204.5 566.196 2204.35 562.519C2204.05 555.484 2198.24 549.956 2191.25 549.956V549.956ZM2195.51 459.341C2189.03 459.341 2183.45 464.128 2182.52 470.687C2181.55 477.802 2180.73 484.997 2180.04 492.085C2179.35 499.306 2184.64 505.706 2191.86 506.394C2192.28 506.447 2192.68 506.473 2193.1 506.473C2193.4 506.473 2193.69 506.447 2193.95 506.447C2200.27 506.024 2205.56 501.104 2206.2 494.598C2206.83 487.853 2207.63 481.003 2208.55 474.285C2209.53 467.091 2204.53 460.452 2197.34 459.473C2196.73 459.394 2196.12 459.341 2195.51 459.341V459.341ZM2401.18 116.004C2398.48 116.004 2395.78 116.823 2393.46 118.516C2387.66 122.748 2381.9 127.139 2376.34 131.556C2370.66 136.052 2369.71 144.331 2374.2 149.991C2376.79 153.27 2380.63 154.963 2384.52 154.963C2384.78 154.963 2385.05 154.964 2385.34 154.937C2387.93 154.778 2390.47 153.853 2392.66 152.134C2397.95 147.902 2403.43 143.749 2408.93 139.729C2414.78 135.47 2416.07 127.245 2411.79 121.399C2409.22 117.855 2405.23 116.004 2401.18 116.004" fill="url(#paint0_linear)"/>
<path d="M704.871 1049.35C705.213 1031.59 720.147 1017.29 738.442 1017.29H1848.11C1866.65 1017.29 1886.35 1032.02 1886.35 1050.03V3565.16C1886.35 3578.6 1878.5 3591.49 1868.71 3600.99C1858.91 3610.47 1844.46 3615.79 1830.61 3615.75L708.788 3612.77C694.829 3612.73 681.178 3607.27 671.413 3597.57C661.649 3587.88 656.151 3574.76 656.412 3561.2L704.871 1049.35Z" fill="#BDD0FB"/>
<path d="M885.414 1197.07C880.32 1181.99 874.813 1167.23 868.893 1152.77L938.799 1152.56C938.84 1167.35 938.467 1182.12 937.679 1196.9L885.414 1197.07" fill="#DFE9FD"/>
<path d="M920.435 1322.7C919.649 1320.19 918.876 1317.69 918.128 1315.19L922.076 1315.17C921.542 1317.67 920.982 1320.19 920.435 1322.7Z" fill="#DFE9FD"/>
<path d="M68.0875 1743.1C68.5719 1722.54 89.6684 1705.65 115.525 1705.65H1092.88C1119.09 1705.65 1144.81 1723.45 1144.81 1744.24V3605.47C1144.81 3615.48 1137.56 3625.09 1128.63 3632.16C1119.7 3639.24 1106.48 3643.2 1093.87 3643.17L71.9968 3640.96C59.2807 3640.93 46.8311 3636.84 37.9372 3629.63C29.0432 3622.4 24.0295 3612.41 24.2669 3602.32L68.0875 1743.1" fill="#BDD0FB"/>
<path d="M787.848 1924.98L1066.28 1924.67L1068.48 1811.28H789.795L787.848 1924.98Z" fill="url(#paint1_linear)"/>
<path d="M475.768 1924.92L753.916 1924.62L755.822 1811.28H477.403L475.768 1924.92" fill="url(#paint2_linear)"/>
<path d="M163.997 1924.85L441.864 1924.58L443.467 1811.28H165.331L163.997 1924.85" fill="url(#paint3_linear)"/>
<path d="M784.375 2128.53L1062.32 2128.67L1064.52 2016.02L786.309 2015.92L784.375 2128.53Z" fill="url(#paint4_linear)"/>
<path d="M472.838 2128.37L750.496 2128.51L752.404 2015.91L474.469 2015.81L472.838 2128.37Z" fill="url(#paint5_linear)"/>
<path d="M161.61 2128.21L438.994 2128.35L440.592 2015.8L162.939 2015.7L161.61 2128.21" fill="url(#paint6_linear)"/>
<path d="M780.906 2330.71L1058.36 2330.93L1060.56 2218.65L782.826 2218.47L780.906 2330.71Z" fill="url(#paint7_linear)"/>
<path d="M469.909 2330.44L747.093 2330.67L748.987 2218.45L471.533 2218.27L469.909 2330.44" fill="url(#paint8_linear)"/>
<path d="M159.223 2330.19L436.124 2330.41L437.715 2218.24L160.547 2218.07L159.223 2330.19" fill="url(#paint9_linear)"/>
<path d="M777.453 2532.16L1054.43 2532.48L1056.61 2420.6L779.373 2420.33L777.453 2532.16Z" fill="url(#paint10_linear)"/>
<path d="M466.993 2531.81L743.693 2532.12L745.573 2420.29L468.612 2420.03L466.993 2531.81" fill="url(#paint11_linear)"/>
<path d="M156.845 2531.44L433.267 2531.77L434.853 2419.99L158.164 2419.72L156.845 2531.44" fill="url(#paint12_linear)"/>
<path d="M774.013 2732.93L1050.51 2733.35L1052.68 2621.84L775.92 2621.48L774.013 2732.93" fill="url(#paint13_linear)"/>
<path d="M464.088 2732.48L740.306 2732.89L742.187 2621.44L465.701 2621.08L464.088 2732.48Z" fill="url(#paint14_linear)"/>
<path d="M154.476 2732.01L430.42 2732.43L432 2621.04L155.791 2620.68L154.476 2732.01" fill="url(#paint15_linear)"/>
<path d="M770.573 2933.01L1046.6 2933.51L1048.76 2822.4L772.48 2821.95L770.573 2933.01" fill="url(#paint16_linear)"/>
<path d="M461.192 2932.45L736.933 2932.95L738.813 2821.89L462.8 2821.44L461.192 2932.45" fill="url(#paint17_linear)"/>
<path d="M152.116 2931.89L427.583 2932.4L429.157 2821.39L153.427 2820.93L152.116 2931.89" fill="url(#paint18_linear)"/>
<path d="M767.16 3132.4L1042.69 3132.99L1044.87 3022.25L769.053 3021.72L767.16 3132.4" fill="url(#paint19_linear)"/>
<path d="M458.307 3131.75L733.573 3132.33L735.44 3021.65L459.908 3021.11L458.307 3131.75" fill="url(#paint20_linear)"/>
<path d="M149.763 3131.09L424.755 3131.68L426.325 3021.05L151.069 3020.51L149.763 3131.09" fill="url(#paint21_linear)"/>
<path d="M763.747 3331.11L1038.81 3331.77L1040.97 3221.43L765.64 3220.8L763.747 3331.11Z" fill="url(#paint22_linear)"/>
<path d="M455.432 3330.35L730.227 3331.03L732.08 3220.72L457.028 3220.11L455.432 3330.35" fill="url(#paint23_linear)"/>
<path d="M147.417 3329.6L421.937 3330.27L423.5 3220.03L148.72 3219.4L147.417 3329.6" fill="url(#paint24_linear)"/>
<path d="M760.36 3529.13L1034.95 3529.89L1037.09 3419.91L762.24 3419.2L760.36 3529.13Z" fill="url(#paint25_linear)"/>
<path d="M452.565 3528.28L726.88 3529.04L728.733 3419.11L454.156 3418.4L452.565 3528.28Z" fill="url(#paint26_linear)"/>
<path d="M145.083 3527.43L419.128 3528.19L420.688 3418.32L146.378 3417.6L145.083 3527.43Z" fill="url(#paint27_linear)"/>
<path d="M2619.26 1787.55C2619.74 1767 2640.86 1750.09 2666.7 1750.09H3644.05C3670.27 1750.09 3696 1767.88 3696 1788.71V3649.92C3696 3659.93 3688.74 3669.53 3679.81 3676.61C3670.87 3683.68 3657.65 3687.64 3645.06 3687.61L2623.18 3685.4C2610.46 3685.37 2598 3681.29 2589.13 3674.07C2580.22 3666.85 2575.21 3656.87 2575.45 3646.76L2619.26 1787.55" fill="#BDD0FB"/>
<path d="M3488.33 1969.25V1855.7H3619.67L3617.46 1969.12L3488.33 1969.25" fill="#DEE8FD"/>
<path d="M3613.48 2173.12L3488.32 2173.05V2060.41L3615.7 2060.45L3613.48 2173.12Z" fill="#DEE8FD"/>
<path d="M3609.56 2375.37L3488.33 2375.28V2263.01L3611.74 2263.09L3609.56 2375.37" fill="#DEE8FD"/>
<path d="M3605.6 2576.94L3488.33 2576.8V2464.92L3607.78 2465.04L3605.6 2576.94Z" fill="#DEE8FD"/>
<path d="M3601.69 2777.78L3488.34 2777.62V2666.13L3603.87 2666.29L3601.69 2777.78Z" fill="#DEE8FD"/>
<path d="M3597.76 2977.96L3488.33 2977.76V2866.66L3599.94 2866.84L3597.76 2977.96" fill="#DEE8FD"/>
<path d="M3593.9 3177.43L3488.35 3177.21V3066.49L3596.05 3066.69L3593.9 3177.43Z" fill="#DEE8FD"/>
<path d="M3589.99 3376.23L3488.31 3375.98V3265.64L3592.14 3265.87L3589.99 3376.23Z" fill="#DEE8FD"/>
<path d="M3586.12 3574.33L3488.34 3574.07V3464.09L3588.27 3464.36L3586.12 3574.33" fill="#DEE8FD"/>
<path d="M1647.64 2293.86C1567.89 2043.41 1413.57 1843.82 1230.76 1726.51C1067.35 1621.61 949.597 1458.27 906.012 1269.57C901.424 1249.75 895.986 1229.86 889.651 1209.97C793.718 908.788 530.604 723.653 301.964 796.465C73.3229 869.3 -34.2615 1172.5 61.6695 1473.68C81.2827 1535.28 107.893 1591.99 139.77 1642.65C241.508 1804.29 281.317 1998.16 243.885 2185.67C210.427 2353.24 219.507 2541.92 279.306 2729.68C368.497 3009.71 550.912 3226.17 762.132 3335.15C842.024 3376.36 914.065 3431.79 973.718 3498.77C1072.85 3610.07 1212.57 3662.39 1340.93 3621.51C1479.41 3577.4 1565.92 3437.17 1572.14 3273.56C1575.68 3180.99 1597.44 3090.24 1632.92 3004.45C1716.68 2801.92 1728.3 2547.06 1647.64 2293.86" fill="#91B3FA"/>
<path d="M1256.71 3049.77C1251.5 3034.32 1246.12 3018.9 1240.96 3003.42C1223.92 2953.53 1207.28 2903.52 1189.92 2853.74C1160.48 2771.04 1130.58 2688.5 1100.11 2606.17C1113.44 2620.8 1127.11 2634.85 1141.14 2648.36C1146.99 2664.56 1152.75 2680.78 1158.3 2697.09L1210 2846.85C1225.88 2894.4 1241.47 2942.02 1256.71 2989.78V3049.77V3049.77ZM816.869 1886.82L789.551 1821.58C769.217 1772.9 748.882 1724.25 728.056 1675.79C687.231 1578.52 645.704 1481.55 603.383 1384.92C561.57 1288.07 518.832 1191.6 475.812 1095.28L484.079 1091.38C577.349 1280.92 664.423 1473.31 749.484 1666.61C770.762 1714.93 791.269 1763.58 811.922 1812.18L815.67 1820.98C815.469 1842.77 815.869 1864.69 816.869 1886.82Z" fill="#D0DEFD"/>
<path d="M2314.93 1796.05C2277.66 1522.54 2154.43 1288.13 1987.15 1133.63C1837.59 995.512 1745.57 805.211 1734.5 602.153C1733.32 580.794 1731.28 559.221 1728.32 537.514C1683.49 208.58 1445.6 -30.6025 1196.99 3.27166C948.376 37.1726 783.175 331.294 828.002 660.227C837.162 727.493 854.415 790.98 878.175 849.135C954.001 1034.77 960.267 1242.55 888.08 1429.71C823.561 1596.99 799.094 1793.8 827.043 1998.85C868.721 2304.67 1017.84 2561.64 1215.92 2712.65C1290.84 2769.76 1355.12 2840.16 1404.58 2920.25C1486.76 3053.34 1621.32 3132.79 1760.9 3113.76C1911.47 3093.24 2025.75 2963.88 2061.49 2795.77C2081.73 2700.64 2120.43 2610.72 2172.36 2528.41C2294.97 2334.1 2352.64 2072.58 2314.93 1796.05" fill="#7D97F4"/>
<path d="M1425.49 681.814H1405.72C1404.48 676.739 1403.25 671.664 1402.01 666.613C1376.31 558.835 1349.57 451.302 1322.52 343.891L1331.74 341.341C1364.69 454.366 1395.72 567.931 1425.49 681.814" fill="#C7D2FA"/>
<path d="M3457.63 3675.88H2591.52H1287.43C1270.46 3675.88 1256.71 3662.13 1256.71 3645.17V3635.29V3049.77V2989.79V2745.97V712.502C1256.71 695.548 1270.46 681.798 1287.43 681.798H1405.72H1425.5H1743.06H2196.51C2200.02 694.564 2204.03 707.305 2208.47 719.743C2210.38 725.091 2215.46 728.447 2220.83 728.447C2221.11 728.447 2221.38 728.447 2221.66 728.422C2222.85 728.346 2224.06 728.093 2225.24 727.665C2232.08 725.217 2235.64 717.724 2233.19 710.887C2229.79 701.351 2226.61 691.612 2223.78 681.798H3276.16H3457.63C3474.59 681.798 3488.34 695.548 3488.34 712.502V1023.63V1113.95C3486.45 1114.83 3484.55 1115.69 3482.64 1116.52C3478.55 1118.31 3476.68 1123.11 3478.47 1127.19C3479.81 1130.25 3482.79 1132.06 3485.92 1132.06C3486.07 1132.06 3486.24 1132.06 3486.42 1132.04C3487.05 1131.99 3487.71 1131.88 3488.34 1131.68V1750.1V1855.7V1969.25V2060.41V2173.05V2263.01V2375.28V2464.92V2576.8V2666.13V2777.62V2866.65V2977.76V3066.49V3177.21V3265.64V3375.97V3464.09V3574.07V3645.17C3488.34 3662.13 3474.59 3675.88 3457.63 3675.88V3675.88ZM3323.92 1143.77C3319.71 1143.77 3316.07 1147 3315.77 1151.31C3315.47 1155.78 3318.82 1159.66 3323.29 1159.96C3331.49 1160.54 3339.79 1160.85 3348.06 1160.85C3353.97 1160.85 3359.87 1160.7 3365.75 1160.39H3365.85C3370.27 1160.09 3373.65 1156.31 3373.42 1151.89C3373.19 1147.55 3369.63 1144.17 3365.35 1144.17C3365.19 1144.17 3365.07 1144.17 3364.92 1144.2C3359.32 1144.47 3353.67 1144.63 3348.04 1144.63C3340.14 1144.63 3332.25 1144.35 3324.45 1143.79C3324.27 1143.79 3324.1 1143.77 3323.92 1143.77ZM3446.94 1130.14C3446.18 1130.14 3445.4 1130.25 3444.64 1130.47C3431.75 1134.33 3418.48 1137.44 3405.18 1139.73C3400.77 1140.49 3397.82 1144.68 3398.57 1149.09C3399.25 1153.03 3402.68 1155.83 3406.54 1155.83C3406.72 1155.83 3406.9 1155.83 3407.07 1155.8C3407.35 1155.8 3407.65 1155.75 3407.93 1155.7C3421.86 1153.3 3435.76 1150.05 3449.28 1146.01C3453.57 1144.73 3455.99 1140.21 3454.73 1135.92C3453.67 1132.39 3450.44 1130.14 3446.94 1130.14V1130.14ZM3242.61 1127.9C3239.18 1127.9 3236 1130.07 3234.89 1133.5C3233.5 1137.74 3235.82 1142.3 3240.11 1143.69C3253.48 1148.08 3267.31 1151.66 3281.18 1154.39C3281.71 1154.49 3282.24 1154.54 3282.75 1154.54C3282.92 1154.54 3283.1 1154.54 3283.25 1154.52C3286.86 1154.29 3289.99 1151.66 3290.69 1147.98C3291.58 1143.59 3288.7 1139.35 3284.31 1138.47C3271.06 1135.87 3257.9 1132.44 3245.1 1128.3C3244.27 1128.02 3243.44 1127.9 3242.61 1127.9V1127.9ZM3167.63 1092.88C3164.9 1092.88 3162.25 1094.24 3160.71 1096.72C3158.34 1100.53 3159.5 1105.52 3163.31 1107.87C3175.3 1115.36 3187.83 1122.15 3200.63 1128.13C3201.74 1128.63 3202.9 1128.88 3204.06 1128.88C3204.21 1128.88 3204.38 1128.88 3204.56 1128.86C3207.41 1128.68 3210.11 1126.99 3211.4 1124.22C3213.29 1120.15 3211.55 1115.31 3207.49 1113.42C3195.28 1107.74 3183.32 1101.26 3171.89 1094.12C3170.55 1093.28 3169.06 1092.88 3167.63 1092.88V1092.88ZM3103.11 1040.96C3101.07 1040.96 3099.03 1041.74 3097.46 1043.26C3094.26 1046.38 3094.18 1051.51 3097.31 1054.71C3107.13 1064.8 3117.7 1074.44 3128.72 1083.29C3130.21 1084.5 3132 1085.11 3133.79 1085.11C3133.97 1085.11 3134.12 1085.08 3134.3 1085.08C3136.49 1084.93 3138.61 1083.92 3140.1 1082.08C3142.9 1078.6 3142.37 1073.48 3138.89 1070.68C3128.37 1062.2 3118.3 1053.04 3108.92 1043.41C3107.33 1041.79 3105.23 1040.96 3103.11 1040.96V1040.96ZM2751.65 1038.18C2751.19 1038.18 2750.77 1038.18 2750.31 1038.26C2736.36 1039.6 2722.33 1040.4 2708.53 1040.61C2701.29 1040.71 2695.49 1046.66 2695.62 1053.9C2695.69 1061.09 2701.57 1066.84 2708.71 1066.84C2708.78 1066.84 2708.83 1066.84 2708.91 1066.84C2717.46 1066.72 2726.14 1066.39 2734.75 1065.84C2740.78 1065.46 2746.8 1064.98 2752.86 1064.37C2760.08 1063.67 2765.37 1057.26 2764.67 1050.04C2764.01 1043.26 2758.28 1038.18 2751.65 1038.18V1038.18ZM2596.74 1029.76C2590.66 1029.76 2585.19 1034.02 2583.9 1040.18C2582.41 1047.29 2586.93 1054.25 2594.04 1055.74C2608.37 1058.75 2622.98 1061.19 2637.49 1062.96C2638.04 1063.03 2638.57 1063.08 2639.1 1063.08C2639.38 1063.08 2639.66 1063.06 2639.93 1063.06C2646.12 1062.66 2651.34 1057.91 2652.12 1051.56C2653 1044.37 2647.91 1037.81 2640.69 1036.92C2626.94 1035.23 2613.07 1032.91 2599.44 1030.06C2598.53 1029.86 2597.63 1029.76 2596.74 1029.76V1029.76ZM2861.77 1015.07C2860.41 1015.07 2859.02 1015.3 2857.66 1015.76C2844.49 1020.07 2830.94 1023.88 2817.4 1027.08C2810.33 1028.77 2805.97 1035.84 2807.63 1042.9C2809.07 1048.93 2814.47 1052.99 2820.4 1052.99C2820.68 1052.99 2820.95 1052.99 2821.23 1052.97C2821.96 1052.92 2822.72 1052.82 2823.45 1052.64C2837.71 1049.26 2851.96 1045.25 2865.84 1040.68C2872.75 1038.44 2876.51 1031.02 2874.24 1024.13C2872.42 1018.61 2867.27 1015.07 2861.77 1015.07V1015.07ZM2489.95 994.588C2484.95 994.588 2480.21 997.414 2478.01 1002.26C2474.99 1008.84 2477.89 1016.64 2484.47 1019.64C2497.79 1025.72 2511.52 1031.32 2525.27 1036.24C2526.73 1036.77 2528.22 1037.05 2529.71 1037.05C2529.99 1037.05 2530.26 1037.02 2530.52 1037C2535.59 1036.67 2540.23 1033.42 2542.05 1028.32C2544.49 1021.51 2540.96 1013.99 2534.12 1011.54C2521.08 1006.87 2508.06 1001.55 2495.4 995.774C2493.63 994.967 2491.76 994.588 2489.95 994.588V994.588ZM3052.93 975.061C3051.55 975.061 3050.16 975.414 3048.85 976.146C3044.99 978.416 3043.7 983.387 3045.95 987.247C3053.06 999.407 3061.01 1011.29 3069.59 1022.54C3071.18 1024.64 3073.6 1025.75 3076.04 1025.75C3076.2 1025.75 3076.37 1025.72 3076.55 1025.72C3078.09 1025.62 3079.63 1025.09 3080.94 1024.08C3084.52 1021.38 3085.2 1016.29 3082.48 1012.73C3074.3 1002.01 3066.73 990.652 3059.95 979.072C3058.43 976.499 3055.73 975.061 3052.93 975.061V975.061ZM2964.15 968.426C2961.88 968.426 2959.54 969.031 2957.44 970.268C2945.51 977.407 2933.15 984.093 2920.63 990.198C2914.12 993.377 2911.42 1001.25 2914.6 1007.76C2916.87 1012.43 2921.54 1015.12 2926.41 1015.12C2926.69 1015.12 2926.97 1015.12 2927.24 1015.1C2928.91 1015 2930.57 1014.57 2932.16 1013.79C2945.31 1007.38 2958.35 1000.32 2970.89 992.797C2977.12 989.088 2979.14 981.04 2975.43 974.834C2972.98 970.696 2968.62 968.426 2964.15 968.426V968.426ZM2399.3 970.621C2406.62 975.793 2414.08 980.788 2421.63 985.582C2423.8 986.944 2426.22 987.6 2428.64 987.6C2428.92 987.6 2429.2 987.6 2429.47 987.574C2433.51 987.322 2437.4 985.203 2439.74 981.52C2443.63 975.389 2441.81 967.265 2435.68 963.405C2430.53 960.15 2425.44 956.795 2420.39 953.313C2429.68 941.859 2435.23 927.252 2435.23 911.383C2435.23 874.523 2405.33 844.627 2368.44 844.627C2350.13 844.627 2333.55 851.994 2321.49 863.952C2318.89 861 2315.29 859.512 2311.65 859.512C2308.65 859.512 2305.62 860.521 2303.15 862.615C2297.63 867.308 2296.95 875.583 2301.64 881.108C2303.23 882.975 2304.79 884.842 2306.41 886.684C2303.38 894.328 2301.69 902.654 2301.69 911.383C2301.69 948.242 2331.58 978.139 2368.44 978.139C2379.6 978.139 2390.07 975.414 2399.3 970.621V970.621ZM3037.8 914.94C3034.74 914.94 3031.67 916 3029.17 918.169C3024.02 922.66 3018.77 927.075 3013.5 931.289C3007.85 935.83 3006.94 944.08 3011.46 949.731C3014.06 952.96 3017.87 954.651 3021.7 954.651C3021.98 954.651 3022.28 954.651 3022.56 954.625C3025.16 954.474 3027.73 953.541 3029.93 951.775C3035.48 947.334 3041.03 942.667 3046.43 937.949C3051.9 933.181 3052.46 924.906 3047.69 919.431C3045.09 916.454 3041.46 914.94 3037.8 914.94V914.94ZM2248.78 766.114C2246.74 766.114 2244.67 766.593 2242.73 767.603C2236.32 770.958 2233.82 778.905 2237.18 785.338C2243.94 798.281 2251.36 811.123 2259.23 823.485C2261.73 827.421 2265.96 829.565 2270.3 829.565C2270.58 829.565 2270.86 829.565 2271.14 829.54C2273.28 829.414 2275.4 828.758 2277.34 827.521C2283.45 823.636 2285.26 815.537 2281.38 809.407C2273.91 797.675 2266.87 785.465 2260.46 773.178C2258.12 768.687 2253.53 766.114 2248.78 766.114Z" fill="#1F244B"/>
<path d="M3108.43 3281.48H1631.87C1575.9 3281.48 1530.52 3236.1 1530.52 3180.13V1232.96C1530.52 1176.98 1575.9 1131.61 1631.87 1131.61H3108.43C3164.41 1131.61 3209.78 1176.98 3209.78 1232.96V3180.13C3209.78 3236.1 3164.41 3281.48 3108.43 3281.48" fill="#7D97F4"/>
<path d="M3052.56 3131.92H1689.08C1672.3 3131.92 1658.67 3118.3 1658.67 3101.52V1338.87C1658.67 1322.08 1672.3 1308.46 1689.08 1308.46H3052.56C3069.34 1308.46 3082.97 1322.08 3082.97 1338.87V3101.52C3082.97 3118.3 3069.34 3131.92 3052.56 3131.92Z" fill="#1F286F"/>
<path d="M2368.47 978.149C2331.59 978.149 2301.69 948.255 2301.69 911.374C2301.69 902.652 2303.39 894.316 2306.41 886.666C2314.45 895.88 2322.87 904.881 2331.48 913.496C2334.05 916.046 2337.4 917.331 2340.76 917.331C2341.04 917.331 2341.32 917.331 2341.6 917.31C2344.68 917.117 2347.7 915.831 2350.06 913.474C2355.18 908.331 2355.16 900.038 2350.04 894.916C2340.18 885.08 2330.62 874.729 2321.67 864.143C2321.6 864.078 2321.56 864.014 2321.5 863.95C2333.56 851.992 2350.15 844.62 2368.47 844.62C2405.33 844.62 2435.22 874.515 2435.22 911.374C2435.22 927.253 2429.67 941.869 2420.42 953.312C2413.92 948.855 2407.54 944.269 2401.3 939.533C2398.92 937.733 2396.14 936.875 2393.37 936.875C2389.43 936.875 2385.51 938.654 2382.91 942.083C2378.52 947.869 2379.68 956.098 2385.44 960.469C2389.98 963.92 2394.61 967.284 2399.31 970.606C2390.07 975.428 2379.59 978.149 2368.47 978.149Z" fill="url(#paint28_linear)"/>
<path d="M2799.77 1989.12L1940.87 2003.42C1875.5 2004.5 1822.32 2055.34 1822.32 2116.94V2657.85C1822.32 2719.47 1875.5 2767.28 1940.87 2764.65L2799.77 2730.16C2861.45 2727.68 2911.3 2677.41 2911.3 2617.86V2095.1C2911.3 2035.54 2861.45 1988.1 2799.77 1989.12" fill="url(#paint29_linear)"/>
<path d="M2843.26 1891.31C2817.24 1891.69 2796.11 1871.6 2796.11 1846.46V1728.08C2796.11 1609.3 2695.66 1512.98 2571.28 1513.34L2291.48 1514.14C2163.93 1514.51 2059.39 1613.68 2059.39 1735.23V1856.38C2059.39 1882.12 2037.25 1903.31 2009.89 1903.72C1982.46 1904.13 1960.21 1883.52 1960.21 1857.72V1736.18C1960.21 1562.74 2109.67 1421.58 2291.48 1421.58H2571.28C2747.96 1421.58 2890.24 1558.68 2890.24 1727.15V1845.19C2890.24 1870.26 2869.22 1890.92 2843.26 1891.31" fill="url(#paint30_linear)"/>
<path d="M2509.27 2288.91C2509.27 2228.8 2456.8 2181.61 2393 2185.93C2336.6 2189.78 2289.94 2234.95 2286.89 2288.89C2284.52 2330.76 2307.53 2366.92 2342.5 2385.23C2357.36 2393 2364.76 2409.42 2361.86 2425.63L2337.35 2563.26C2334.21 2580.78 2348.3 2596.18 2366.83 2595.51L2429.86 2593.26C2448.3 2592.59 2462.29 2576.26 2459.2 2559.02L2434.69 2422.67C2431.77 2406.42 2440.23 2390.25 2455.12 2381.33C2487.57 2361.96 2509.27 2327.57 2509.27 2288.91" fill="url(#paint31_linear)"/>
<path d="M784.24 3681.12C784.253 3679.93 784.187 3678.75 783.88 3677.55C766.067 3606.93 677.668 3562.95 677.668 3562.95L642.639 3565.69C622.499 3627.93 625.087 3666.11 628.321 3683.11C628.411 3683.59 628.556 3684.04 628.683 3684.49C657.579 3687.08 717.053 3688.76 784.24 3681.12Z" fill="url(#paint32_linear)"/>
<path d="M628.683 3684.49C630.243 3690.17 634.433 3694.59 639.799 3695.72C680.903 3704.36 746.24 3697.41 773.667 3693.83C779.72 3693.03 784.147 3687.44 784.24 3681.12C717.053 3688.76 657.579 3687.08 628.683 3684.49Z" fill="#91B3FA"/>
<path d="M628.555 3513.52L643.391 3584.95C644.477 3590.17 648.499 3594.09 653.369 3594.55C659.332 3595.11 667.819 3595.44 676.355 3594.19C684.008 3593.07 689.337 3585.28 687.981 3576.93L677.668 3513.52H628.555Z" fill="url(#paint33_linear)"/>
<path d="M935.946 3683.59C897.266 3682.51 877.253 3677.95 866.906 3673.72C866.88 3677.57 866.906 3681.48 867.026 3685.55C867.16 3689.88 870.373 3693.33 874.32 3693.31L1086.73 3691.93C1093.52 3691.89 1097.48 3684.03 1094.53 3677.81C1066.69 3680.12 995.746 3685.27 935.946 3683.59" fill="#91B3FA"/>
<path d="M1094.53 3677.81C1094.28 3677.28 1094.07 3676.72 1093.69 3676.21C1074.93 3650 1027.16 3597.8 932.746 3575.17L887.453 3573.73C887.453 3573.73 867.293 3608.79 866.906 3673.72C877.253 3677.95 897.266 3682.51 935.946 3683.59C995.746 3685.27 1066.69 3680.12 1094.53 3677.81" fill="url(#paint34_linear)"/>
<path d="M877.04 3507.2C877.76 3510.55 887.173 3561.36 890.827 3581.07C891.693 3585.75 895.347 3589.19 899.68 3589.43C907.44 3589.85 919.947 3589.91 930.707 3586.99C936.507 3585.41 940.4 3579.49 939.987 3572.93L934.92 3492.55L877.04 3507.2Z" fill="url(#paint35_linear)"/>
<path d="M842.72 2568.88C842.72 2568.88 905.027 2997 949.987 3506.47C950.827 3515.96 943.267 3524.21 933.947 3526.17C920.2 3529.07 900.013 3532.51 883.307 3532.04C874.373 3531.79 866.92 3525.17 865.413 3516.37C850.107 3426.55 740.8 2944.45 712.12 2838.35C712.12 2838.35 679.163 3289.05 689.695 3522.88C689.957 3528.69 685.7 3533.73 679.919 3534.4C671.149 3535.41 657.119 3536.19 639.263 3534.29C632.485 3533.57 627.017 3528.45 626.049 3521.71C615.139 3445.68 552.34 2993.16 555.009 2667.19C555.161 2648.8 576.579 2497.77 576.579 2497.77L842.72 2568.88Z" fill="url(#paint36_linear)"/>
<path d="M866.86 1848.92L875.193 2072.95C898.887 2081.1 921.452 2087.44 942.919 2092.19C956.371 2048.92 985.946 1995.83 1010.16 1956.36C921.162 1924.89 866.86 1848.92 866.86 1848.92" fill="url(#paint37_linear)"/>
<path d="M567.217 2593.54C560.811 2591.28 556.345 2585.46 555.647 2578.7C547.362 2498.32 507.246 1999.92 760.508 1794.89C760.508 1794.89 775.029 1756.88 894.416 1850.3C1013.8 1943.71 949.885 2041.62 921.295 2176.66C886.71 2340.1 826.029 2473.66 852.883 2574.23C854.736 2581.18 851.082 2588.45 844.349 2590.92C751.602 2625.11 659.225 2626.26 567.217 2593.54" fill="url(#paint38_linear)"/>
<path d="M859.294 1645.56C859.214 1652.64 758.094 1796.3 758.094 1796.3C758.094 1796.3 776.241 1832.06 862.894 1861.08L937.707 1707.28L859.294 1645.56" fill="url(#paint39_linear)"/>
<path d="M809.198 2137.08C808.571 2137.08 807.931 2136.91 807.357 2136.52C726.572 2081.94 688.569 1993.83 688.193 1992.95C687.488 1991.28 688.268 1989.35 689.934 1988.64C691.609 1987.93 693.53 1988.71 694.242 1990.38C694.61 1991.25 731.905 2077.61 811.038 2131.08C812.544 2132.09 812.945 2134.14 811.918 2135.64C811.291 2136.58 810.251 2137.08 809.198 2137.08" fill="url(#paint40_linear)"/>
<path d="M929.533 2014.97C928.457 2014.97 927.396 2014.45 926.766 2013.46C926.52 2013.09 901.847 1974.68 854.835 1890.48C840.382 1864.61 821.381 1848.22 798.368 1841.78C760.261 1831.13 723.527 1851.56 723.167 1851.77C721.581 1852.64 719.581 1852.11 718.688 1850.53C717.795 1848.96 718.342 1846.96 719.915 1846.07C721.501 1845.16 759.274 1824.03 800.075 1835.43C824.861 1842.35 845.221 1859.8 860.567 1887.29C907.461 1971.25 932.054 2009.53 932.285 2009.91C933.268 2011.43 932.838 2013.46 931.316 2014.45C930.747 2014.82 930.148 2014.97 929.533 2014.97" fill="url(#paint41_linear)"/>
<path d="M938.918 1563.25C938.918 1563.25 974.905 1645.93 977.319 1689.31C979.746 1732.7 989.092 1760.83 938.918 1769.58C888.759 1778.31 846.493 1753.33 823.6 1710.11C823.6 1710.11 787.733 1643.51 795.772 1616.24C803.826 1588.96 938.918 1563.25 938.918 1563.25" fill="url(#paint42_linear)"/>
<path d="M840.748 1679.02L843.603 1677.78C847.242 1676.18 848.789 1671.84 846.963 1668.32C839.896 1654.63 826.095 1623.31 843.922 1616C866.882 1606.6 957.829 1588.06 977.442 1555.79C996.309 1524.77 979.602 1484.74 954.483 1473.35C952.803 1472.57 950.815 1473.19 949.963 1474.81L947.87 1478.78C946.428 1481.48 942.428 1481.08 941.576 1478.13C940.762 1475.3 937.003 1474.75 935.443 1477.25C929.402 1486.9 913.123 1502.56 869.576 1510.59C807.682 1522.03 766.775 1547.06 765.749 1589.81C765.682 1592.54 762.801 1594.05 760.481 1592.64C755.908 1589.87 748.589 1588.55 738.815 1596.77C721.828 1611.06 728.775 1648.13 766.042 1678.62C767.815 1680.08 767.789 1682.84 765.882 1684.09C759.121 1688.5 749.056 1698.94 775.149 1712.89C802.135 1727.32 822.283 1726.12 830.042 1724.84C831.975 1724.54 833.216 1722.66 832.803 1720.76L824.522 1683.17C824.042 1681.05 825.669 1679.02 827.842 1679.02H840.748" fill="url(#paint43_linear)"/>
<path d="M842.302 1686.98C842.302 1686.98 828.569 1634.17 804.902 1648.97C781.222 1663.78 817.183 1708.14 836.209 1710.11L842.302 1686.98" fill="url(#paint44_linear)"/>
<path d="M1308.25 1832.05C1308.25 1832.05 1290.23 1800.07 1291.38 1784.54C1292.52 1768.99 1282.85 1746.17 1293.14 1747.87C1303.44 1749.56 1305.57 1748.17 1308.36 1766.81C1311.16 1785.46 1343.67 1866.89 1308.25 1832.05" fill="url(#paint45_linear)"/>
<path d="M1311.65 1781.22L1311.23 1845.1C1189.15 1976.92 1090.31 1984.68 1010.17 1956.36C985.951 1995.83 956.371 2048.91 942.93 2092.18C1268.98 2164.06 1345.75 1864.31 1345.75 1864.31C1389.92 1846.02 1398.82 1835.33 1396.93 1823.34L1311.65 1781.22" fill="url(#paint46_linear)"/>
<path d="M1405.55 1717.85C1395.12 1713.62 1374.72 1674.73 1370.82 1687.53C1366.91 1700.32 1372.48 1717.85 1370.82 1723.28C1369.17 1728.73 1343.75 1791.28 1348.83 1805.19C1352.49 1815.22 1372.67 1813.74 1375.75 1830.14C1376.77 1835.6 1381.12 1839.5 1386.18 1839.5C1391.23 1839.5 1395.59 1835.61 1396.61 1830.16C1397.02 1827.98 1415.96 1722.08 1405.55 1717.85Z" fill="url(#paint47_linear)"/>
<path d="M1265.52 1607.29C1298.48 1623.94 1311.69 1664.21 1295.02 1697.17C1278.36 1730.15 1238.12 1743.37 1205.14 1726.68C1172.17 1710.03 1158.94 1669.78 1175.62 1636.8C1192.29 1603.84 1232.54 1590.62 1265.52 1607.29ZM1072.74 1584.79C990.411 1747.63 1055.68 1946.37 1218.52 2028.71C1350.88 2095.62 1506.94 2065.04 1604.96 1963.8L2170.73 2249.86C2180.11 2254.61 2191.31 2254.22 2200.34 2248.83L2255.68 2215.87C2256.63 2215.3 2257.53 2214.67 2258.4 2214.02C2258.65 2213.84 2258.87 2213.64 2259.12 2213.44C2259.75 2212.94 2260.38 2212.4 2260.97 2211.84C2261.17 2211.66 2261.39 2211.48 2261.57 2211.26C2262.32 2210.54 2263.01 2209.79 2263.65 2209L2263.69 2208.96C2270.64 2200.52 2272.76 2188.71 2268.5 2178.05L2223.55 2065.32C2220.77 2058.36 2215.54 2052.65 2208.84 2049.27L2152.19 2020.61L2137.18 2050.28L2088.5 2025.67L2103.49 1996L2057.95 1972.98L2044.16 2000.27L1984.99 1970.35L1998.78 1943.08L1976.75 1931.93L1969.63 1945.96L1920.04 1920.9L1927.15 1906.84L1888.57 1887.34L1873.56 1917.01L1846.02 1903.08L1861.01 1873.41L1837.12 1861.33L1822.13 1891L1774.37 1866.84L1789.37 1837.19L1722.24 1803.24L1693.47 1788.71C1716.91 1649.76 1649.03 1505.94 1516.66 1439.01C1353.82 1356.69 1155.08 1421.95 1072.74 1584.79" fill="url(#paint48_linear)"/>
<path d="M1531.36 1684.56L1799.56 1820.17L1784.57 1849.82L1832.33 1873.97L1847.32 1844.32L1871.2 1856.4L1856.21 1886.04L1883.77 1899.97L1898.77 1870.32L1937.34 1889.83L1930.23 1903.88L1979.83 1928.95L1986.94 1914.91L2008.98 1926.05L1995.19 1953.33L2054.36 1983.26L2068.15 1955.97L2113.7 1979L2098.7 2008.65L2147.39 2033.28L2162.37 2003.61L2219.05 2032.27C2225.75 2035.65 2230.95 2041.35 2233.75 2048.3L2278.7 2161.03C2284.31 2175.07 2278.86 2191.11 2265.88 2198.84L2210.55 2231.81C2201.51 2237.21 2190.32 2237.59 2180.93 2232.83L1497.94 1887.52L1531.36 1684.56" fill="url(#paint49_linear)"/>
<path d="M1215.32 1709.67C1182.36 1693.01 1169.14 1652.76 1185.82 1619.77C1202.48 1586.8 1242.73 1573.6 1275.7 1590.27C1308.68 1606.93 1321.89 1647.18 1305.22 1680.15C1288.56 1713.13 1248.29 1726.34 1215.32 1709.67ZM1228.72 2011.68C1391.55 2094.01 1590.3 2028.76 1672.63 1865.91C1754.96 1703.08 1689.71 1504.32 1526.86 1422.01C1364.03 1339.66 1165.27 1404.94 1082.94 1567.77C1000.61 1730.6 1065.87 1929.35 1228.72 2011.68" fill="url(#paint50_linear)"/>
<path d="M1275.7 1590.27C1308.68 1606.93 1321.89 1647.18 1305.22 1680.15C1288.56 1713.13 1248.29 1726.34 1215.32 1709.67C1182.36 1693.01 1169.14 1652.76 1185.82 1619.77C1202.48 1586.8 1242.73 1573.6 1275.7 1590.27ZM1615.15 1946.77L2180.93 2232.83C2190.31 2237.6 2201.5 2237.2 2210.54 2231.8L2265.87 2198.85C2274.22 2193.89 2279.4 2185.49 2280.57 2176.4C2229.02 2120.52 1738.87 1906.48 1720.52 1862.43C1714.01 1846.77 1712.88 1823.03 1732.42 1786.22L1703.67 1771.68C1727.1 1632.73 1659.22 1488.91 1526.86 1422.01C1364.03 1339.66 1165.27 1404.94 1082.94 1567.77C1000.61 1730.6 1065.87 1929.35 1228.72 2011.68C1361.06 2078.6 1517.14 2048.02 1615.15 1946.77" fill="url(#paint51_linear)"/>
<path d="M1215.32 1709.68C1182.37 1693.02 1169.14 1652.77 1185.82 1619.79C1202.49 1586.82 1242.72 1573.61 1275.69 1590.27C1308.67 1606.95 1321.9 1647.19 1305.21 1680.16C1288.55 1713.13 1248.3 1726.35 1215.32 1709.68ZM1257.97 1953.83C1388.84 2019.99 1548.59 1967.54 1614.76 1836.67C1680.94 1705.79 1628.49 1546.05 1497.6 1479.87C1366.72 1413.71 1206.97 1466.17 1140.8 1597.04C1074.63 1727.92 1127.08 1887.65 1257.97 1953.83Z" fill="url(#paint52_linear)"/>
<path d="M809.202 2137.08C809.202 2137.08 1120.34 2241.24 1294.36 2108.73C1305.16 2100.52 1318.77 2096.93 1332.18 2099.11L1398.65 2109.94C1426.57 2114.49 1453.14 2096.4 1459.16 2068.77C1462.59 2053.02 1464.24 2035.79 1460.75 2020.98L1335.24 2013.41L1338.83 1997.12C1338.83 1997.12 1283.35 2010.69 1282.23 2054.09C1282.23 2054.09 1152.1 2139.33 914.76 2007.03C914.76 2007.03 822.33 2079.35 809.202 2137.08" fill="url(#paint53_linear)"/>
<path d="M3212.86 577.238C3212.67 577.238 3212.48 577.211 3212.33 577.211C3205.09 576.919 3199.45 570.798 3199.74 563.563C3200.32 549.492 3200.29 535.182 3199.66 521.031C3199.34 513.876 3204.83 507.807 3211.95 507.357L3212.19 507.331C3212.41 507.331 3212.59 507.331 3212.8 507.331C3219.77 507.331 3225.6 512.816 3225.89 519.865C3226.56 534.758 3226.58 549.81 3225.97 564.65C3225.71 571.408 3220.33 576.787 3213.7 577.211C3213.44 577.211 3213.15 577.238 3212.86 577.238V577.238ZM3204.8 463.155C3198.57 463.155 3193.06 458.729 3191.89 452.396C3189.32 438.457 3186.17 424.518 3182.46 410.923C3180.55 403.927 3184.69 396.719 3191.68 394.811C3192.85 394.493 3194.01 394.361 3195.13 394.361C3200.93 394.361 3206.2 398.177 3207.79 404.033C3211.69 418.317 3215.03 432.998 3217.73 447.653C3219 454.781 3214.29 461.618 3207.16 462.943C3206.65 463.023 3206.12 463.102 3205.62 463.128C3205.33 463.128 3205.06 463.155 3204.8 463.155V463.155ZM3171.78 353.683C3166.69 353.683 3161.84 350.715 3159.72 345.733C3154.16 332.775 3147.96 319.896 3141.28 307.441C3137.86 301.054 3140.27 293.078 3146.66 289.659C3148.62 288.626 3150.74 288.123 3152.83 288.123C3157.52 288.123 3162.08 290.613 3164.44 295.039C3171.46 308.156 3177.98 321.724 3183.84 335.372C3186.7 342.05 3183.63 349.761 3176.97 352.623C3175.54 353.233 3174.06 353.577 3172.63 353.657C3172.34 353.683 3172.07 353.683 3171.78 353.683V353.683ZM3115.12 254.335C3111.07 254.335 3107.09 252.48 3104.5 248.956C3096.18 237.561 3087.25 226.377 3077.97 215.724C3073.2 210.265 3073.78 201.971 3079.24 197.201C3081.73 195.054 3084.81 193.994 3087.86 193.994C3091.51 193.994 3095.17 195.505 3097.77 198.473C3107.52 209.683 3116.93 221.449 3125.7 233.453C3129.96 239.31 3128.72 247.525 3122.86 251.818C3120.77 253.355 3118.36 254.149 3115.95 254.308C3115.68 254.335 3115.39 254.335 3115.12 254.335V254.335ZM3037.72 170.118C3034.67 170.118 3031.6 169.058 3029.1 166.911C3018.48 157.636 3007.3 148.706 2995.87 140.358C2990.02 136.092 2988.75 127.877 2993.01 122.021C2995.58 118.496 2999.58 116.641 3003.61 116.641C3006.31 116.641 3009.02 117.463 3011.35 119.185C3023.38 127.957 3035.15 137.364 3046.33 147.089C3051.82 151.833 3052.4 160.128 3047.63 165.613C3045.22 168.369 3041.93 169.879 3038.54 170.091C3038.27 170.118 3038.01 170.118 3037.72 170.118V170.118ZM2943.64 105.14C2941.55 105.14 2939.4 104.637 2937.44 103.55C2925.01 96.872 2912.13 90.6446 2899.15 85.0531C2892.5 82.1646 2889.42 74.4529 2892.31 67.8014C2894.46 62.8459 2899.28 59.8781 2904.37 59.8781C2906.12 59.8781 2907.87 60.2226 2909.56 60.9381C2923.21 66.8476 2936.78 73.393 2949.84 80.442C2956.23 83.8605 2958.64 91.8369 2955.22 98.2234C2952.97 102.357 2948.84 104.822 2944.46 105.113C2944.2 105.113 2943.91 105.14 2943.64 105.14V105.14ZM2461.58 104.398C2456.89 104.398 2452.36 101.881 2450 97.455C2446.58 91.0685 2448.99 83.092 2455.41 79.7C2468.5 72.704 2482.09 66.185 2495.79 60.355C2497.46 59.6395 2499.21 59.295 2500.93 59.295C2506.05 59.295 2510.9 62.2894 2513.02 67.2714C2515.88 73.9229 2512.78 81.6344 2506.1 84.4964C2493.09 90.0349 2480.21 96.2094 2467.76 102.861C2466.03 103.762 2464.23 104.265 2462.43 104.371C2462.14 104.398 2461.87 104.398 2461.58 104.398V104.398ZM2837.56 62.6339C2836.4 62.6339 2835.23 62.475 2834.06 62.157C2820.44 58.394 2806.53 55.2139 2792.65 52.6434C2785.52 51.3184 2780.8 44.4816 2782.12 37.3531C2783.29 31.0196 2788.83 26.6206 2795.06 26.6206C2795.83 26.6206 2796.62 26.6735 2797.42 26.8325C2812.02 29.5355 2826.7 32.901 2841.03 36.8495C2848 38.7575 2852.11 45.9921 2850.2 52.9881C2848.69 58.5266 2843.82 62.263 2838.38 62.6075C2838.12 62.6075 2837.85 62.6339 2837.56 62.6339V62.6339ZM2567.93 62.3159C2562.15 62.3159 2556.85 58.4735 2555.26 52.617C2553.35 45.621 2557.51 38.413 2564.51 36.505C2578.84 32.636 2593.52 29.3234 2608.18 26.6734C2608.97 26.5409 2609.77 26.4614 2610.56 26.4614C2616.76 26.4614 2622.28 30.94 2623.42 37.247C2624.71 44.3755 2620 51.2124 2612.84 52.5109C2598.93 55.0284 2584.96 58.1821 2571.34 61.8656C2570.47 62.1041 2569.62 62.2365 2568.75 62.2895C2568.48 62.316 2568.19 62.3159 2567.93 62.3159V62.3159ZM2724.59 44.8789C2724.41 44.8789 2724.22 44.8789 2724.04 44.8789C2716.93 44.5874 2709.78 44.4284 2702.62 44.4284C2695.58 44.4284 2688.53 44.5609 2681.53 44.8789C2681.35 44.8789 2681.16 44.8789 2680.97 44.8789C2673.98 44.8789 2668.17 39.3671 2667.86 32.3181C2667.57 25.1631 2673.02 19.0944 2680.13 18.6439H2680.42C2687.81 18.3259 2695.26 18.167 2702.7 18.167C2710.2 18.167 2717.73 18.3259 2725.18 18.6439C2732.41 18.9619 2738.03 25.0836 2737.71 32.3181C2737.42 39.1021 2732.07 44.455 2725.47 44.8525C2725.18 44.879 2724.88 44.8789 2724.59 44.8789" fill="#DEE8FD"/>
<path d="M2384.5 154.968C2380.64 154.968 2376.81 153.258 2374.22 149.995C2369.71 144.323 2370.65 136.061 2376.34 131.554C2381.91 127.125 2387.66 122.748 2393.46 118.527C2395.79 116.817 2398.49 115.988 2401.18 115.988C2405.25 115.988 2409.24 117.853 2411.8 121.376C2416.07 127.229 2414.78 135.439 2408.93 139.713C2403.44 143.753 2397.97 147.897 2392.66 152.119C2390.49 153.854 2387.92 154.761 2385.33 154.942C2385.05 154.942 2384.79 154.968 2384.5 154.968" fill="url(#paint54_linear)"/>
<path d="M2193.08 506.464C2192.7 506.464 2192.27 506.441 2191.87 506.417C2184.64 505.703 2179.35 499.302 2180.04 492.093C2180.71 485.003 2181.57 477.793 2182.54 470.703C2183.45 464.112 2189.04 459.354 2195.51 459.354C2196.13 459.354 2196.72 459.401 2197.34 459.473C2204.53 460.472 2209.52 467.086 2208.55 474.272C2207.62 481.006 2206.84 487.858 2206.19 494.591C2205.55 501.087 2200.27 506.036 2193.96 506.441C2193.68 506.464 2193.39 506.464 2193.08 506.464" fill="url(#paint55_linear)"/>
<path d="M2708.72 1066.85C2701.56 1066.85 2695.71 1061.08 2695.6 1053.9C2695.51 1046.66 2701.3 1040.71 2708.55 1040.58C2722.33 1040.38 2736.36 1039.61 2750.33 1038.24C2750.77 1038.19 2751.21 1038.17 2751.65 1038.17C2758.28 1038.17 2764 1043.25 2764.67 1050.04C2765.37 1057.26 2760.09 1063.67 2752.87 1064.38C2746.81 1064.97 2740.76 1065.46 2734.75 1065.83C2726.13 1066.39 2717.47 1066.72 2708.92 1066.85C2708.86 1066.85 2708.79 1066.85 2708.72 1066.85V1066.85ZM2639.1 1063.07C2638.57 1063.07 2638.04 1063.03 2637.49 1062.96C2623 1061.17 2608.37 1058.74 2594.05 1055.74C2586.94 1054.24 2582.41 1047.28 2583.89 1040.18C2585.19 1034 2590.65 1029.75 2596.75 1029.75C2597.63 1029.75 2598.54 1029.84 2599.45 1030.04C2613.06 1032.91 2626.95 1035.21 2640.7 1036.91C2647.9 1037.8 2653 1044.36 2652.14 1051.54C2651.34 1057.9 2646.11 1062.65 2639.94 1063.05C2639.66 1063.05 2639.39 1063.07 2639.1 1063.07V1063.07ZM2820.41 1053C2814.47 1053 2809.07 1048.93 2807.66 1042.88C2805.98 1035.83 2810.33 1028.76 2817.4 1027.08C2830.95 1023.88 2844.49 1020.06 2857.68 1015.75C2859.03 1015.28 2860.42 1015.06 2861.77 1015.06C2867.29 1015.06 2872.44 1018.6 2874.23 1024.12C2876.51 1031.01 2872.75 1038.44 2865.86 1040.69C2851.96 1045.22 2837.71 1049.26 2823.46 1052.62C2822.71 1052.8 2821.98 1052.91 2821.23 1052.95C2820.96 1052.98 2820.7 1053 2820.41 1053V1053ZM2529.69 1037.02C2528.24 1037.02 2526.73 1036.78 2525.25 1036.25C2511.53 1031.32 2497.81 1025.73 2484.49 1019.64C2477.88 1016.63 2474.99 1008.85 2478.02 1002.25C2480.2 997.409 2484.98 994.581 2489.95 994.581C2491.78 994.581 2493.64 994.957 2495.4 995.774C2508.06 1001.54 2521.1 1006.87 2534.14 1011.53C2540.96 1013.98 2544.5 1021.49 2542.07 1028.32C2540.23 1033.42 2535.59 1036.67 2530.53 1037C2530.27 1037.02 2529.98 1037.02 2529.69 1037.02V1037.02ZM2926.42 1015.13C2921.56 1015.13 2916.89 1012.41 2914.62 1007.75C2911.44 1001.25 2914.13 993.366 2920.65 990.206C2933.13 984.086 2945.51 977.414 2957.44 970.278C2959.54 969.018 2961.88 968.422 2964.15 968.422C2968.62 968.422 2972.99 970.697 2975.44 974.807C2979.16 981.038 2977.12 989.08 2970.91 992.814C2958.36 1000.3 2945.31 1007.37 2932.16 1013.78C2930.59 1014.55 2928.91 1015 2927.26 1015.11C2926.97 1015.13 2926.68 1015.13 2926.42 1015.13ZM2428.66 987.599C2426.23 987.599 2423.82 986.959 2421.63 985.567C2414.1 980.794 2406.63 975.779 2399.29 970.609C2407.47 966.345 2414.67 960.424 2420.42 953.309C2425.45 956.778 2430.54 960.136 2435.68 963.384C2441.8 967.273 2443.62 975.381 2439.75 981.501C2437.39 985.191 2433.52 987.334 2429.48 987.577C2429.19 987.599 2428.92 987.599 2428.66 987.599Z" fill="url(#paint56_linear)"/>
<path d="M2399.3 970.615C2394.61 967.298 2390 963.918 2385.45 960.475C2379.67 956.094 2378.52 947.874 2382.9 942.073C2385.49 938.673 2389.41 936.878 2393.38 936.878C2396.13 936.878 2398.93 937.755 2401.3 939.549C2407.52 944.264 2413.93 948.875 2420.39 953.319C2414.66 960.433 2407.46 966.338 2399.3 970.615" fill="url(#paint57_linear)"/>
<path d="M2306.4 886.671C2304.8 884.836 2303.22 882.98 2301.62 881.123C2296.95 875.597 2297.63 867.317 2303.16 862.623C2305.63 860.51 2308.64 859.508 2311.63 859.508C2315.28 859.508 2318.89 861.023 2321.49 863.946C2315.02 870.348 2309.84 878.072 2306.4 886.671" fill="url(#paint58_linear)"/>
<path d="M2340.77 917.326C2337.4 917.326 2334.04 916.047 2331.48 913.511C2322.85 904.88 2314.45 895.887 2306.42 886.68C2309.85 878.07 2315.03 870.334 2321.48 863.941C2321.55 864.005 2321.61 864.069 2321.68 864.133C2330.63 874.725 2340.17 885.082 2350.02 894.906C2355.16 900.042 2355.18 908.332 2350.06 913.468C2347.7 915.834 2344.67 917.113 2341.58 917.304C2341.3 917.326 2341.03 917.326 2340.77 917.326" fill="url(#paint59_linear)"/>
<path d="M2270.31 829.575C2265.95 829.575 2261.72 827.427 2259.22 823.483C2251.36 811.125 2243.95 798.285 2237.18 785.336C2233.81 778.916 2236.31 770.984 2242.73 767.61C2244.68 766.602 2246.76 766.12 2248.79 766.12C2253.53 766.12 2258.11 768.683 2260.45 773.175C2266.87 785.489 2273.93 797.672 2281.38 809.416C2285.28 815.53 2283.46 823.637 2277.32 827.515C2275.4 828.764 2273.27 829.421 2271.14 829.553C2270.86 829.553 2270.6 829.575 2270.31 829.575" fill="url(#paint60_linear)"/>
<path d="M2223.78 681.806H2196.49C2196.13 680.431 2195.74 679.055 2195.38 677.679C2193.53 670.687 2197.71 663.492 2204.72 661.642C2205.83 661.326 2206.95 661.191 2208.08 661.191C2213.88 661.191 2219.2 665.07 2220.76 670.957C2221.73 674.566 2222.74 678.198 2223.78 681.806Z" fill="url(#paint61_linear)"/>
<path d="M2220.81 728.467C2215.43 728.467 2210.38 725.125 2208.45 719.742C2204.01 707.34 2200 694.6 2196.48 681.816H2223.77C2226.6 691.617 2229.76 701.351 2233.17 710.906C2235.62 717.724 2232.07 725.238 2225.25 727.682C2224.06 728.108 2222.85 728.355 2221.64 728.445C2221.37 728.445 2221.1 728.467 2220.81 728.467Z" fill="url(#paint62_linear)"/>
<path d="M2194.79 618.977C2188.26 618.977 2182.61 614.12 2181.78 607.498C2180.43 596.808 2179.43 585.956 2178.73 575.244C2178.48 571.34 2178.29 567.482 2178.13 563.602C2177.83 556.375 2183.36 550.124 2190.7 549.961C2190.89 549.938 2191.07 549.938 2191.26 549.938C2198.25 549.938 2204.06 555.468 2204.34 562.509C2204.5 566.204 2204.69 569.876 2204.95 573.571C2205.57 583.772 2206.55 594.066 2207.83 604.221C2208.73 611.425 2203.62 617.978 2196.42 618.884C2196.16 618.907 2195.88 618.954 2195.63 618.954C2195.35 618.977 2195.07 618.977 2194.79 618.977" fill="url(#paint63_linear)"/>
<path d="M3021.71 954.654C3017.86 954.654 3014.05 952.963 3011.46 949.739C3006.92 944.103 3007.85 935.829 3013.48 931.297C3018.76 927.059 3024.04 922.662 3029.18 918.176C3031.66 916.011 3034.72 914.929 3037.79 914.929C3041.46 914.929 3045.09 916.462 3047.69 919.438C3052.44 924.917 3051.9 933.191 3046.42 937.971C3041.01 942.683 3035.47 947.327 3029.92 951.769C3027.73 953.527 3025.14 954.474 3022.55 954.632C3022.28 954.654 3021.98 954.654 3021.71 954.654" fill="url(#paint64_linear)"/>
<path d="M3047.34 730.944C3048.86 728.808 3048.86 725.951 3047.37 723.815L3004.11 662.951C3017.41 630.704 3025.65 596.116 3028.02 560.292L3093.62 524.752C3095.93 523.516 3097.19 520.943 3096.76 518.369L3082.11 429.993C3081.68 427.42 3079.67 425.387 3077.07 424.949L3003.49 412.493C2989.7 379.372 2970.73 349.287 2947.75 323.063L2969.03 251.492C2969.78 248.97 2968.85 246.268 2966.72 244.75L2893.88 192.609C2891.75 191.091 2888.89 191.091 2886.76 192.609L2825.87 235.845C2793.64 222.565 2759.06 214.33 2723.23 211.963L2687.69 146.337C2686.46 144.047 2683.88 142.786 2681.28 143.223L2592.93 157.867C2590.33 158.304 2588.33 160.311 2587.89 162.885L2575.43 236.488C2542.29 250.257 2512.2 269.25 2486 292.232L2414.41 270.948C2411.91 270.202 2409.18 271.128 2407.66 273.264L2355.55 346.096C2354.03 348.232 2354.03 351.089 2355.55 353.225L2398.79 414.089C2385.51 446.336 2377.24 480.924 2374.9 516.748L2309.28 552.288C2306.99 553.524 2305.73 556.097 2306.14 558.671L2320.78 647.047C2321.24 649.62 2323.25 651.653 2325.82 652.091L2399.4 664.547C2413.2 697.668 2432.16 727.753 2455.15 754.003L2433.86 825.573C2433.12 828.07 2434.07 830.772 2436.18 832.29L2509.04 884.43C2511.15 885.949 2514.03 885.949 2516.16 884.43L2577.03 841.195C2609.28 854.474 2643.86 862.735 2679.66 865.077L2715.2 930.703C2716.46 932.993 2719.04 934.254 2721.61 933.842L2809.99 919.173C2812.56 918.736 2814.59 916.728 2815.03 914.129L2827.49 840.577C2860.61 826.783 2890.69 807.816 2916.92 784.808L2988.49 806.092C2991.01 806.838 2993.71 805.937 2995.23 803.801L3047.34 730.944Z" fill="#91B3FA"/>
<path d="M2656.83 485.841C2642.77 497.752 2634.17 514.438 2632.64 532.818C2629.49 570.748 2657.78 604.19 2695.71 607.341C2733.66 610.492 2767.08 582.182 2770.23 544.252C2773.38 506.322 2745.1 472.903 2707.14 469.753C2703.71 469.466 2700.29 469.418 2696.9 469.633C2682.22 470.564 2668.28 476.174 2656.83 485.841V485.841ZM2693.99 628.251C2644.51 624.145 2607.6 580.558 2611.71 531.075C2613.69 507.11 2624.91 485.34 2643.27 469.824C2661.62 454.285 2684.92 446.813 2708.91 448.819C2758.37 452.924 2795.27 496.511 2791.17 545.994C2787.42 591.014 2751.02 625.602 2707.22 628.395C2702.87 628.657 2698.43 628.633 2693.99 628.251Z" fill="#BDD0FB"/>
<path d="M2713.6 758.289C2721.13 757.794 2728.66 756.952 2736.2 755.688C2738.57 755.316 2740.95 754.87 2743.31 754.399C2754.95 752.095 2766.37 748.849 2777.43 744.761C2777.57 744.687 2777.72 744.637 2777.87 744.587C2778.29 744.414 2778.71 744.265 2779.14 744.092C2779.98 743.77 2780.82 743.448 2781.64 743.126C2783.79 742.283 2785.08 740.128 2784.93 737.922C2784.91 737.377 2784.78 736.857 2784.59 736.312C2783.52 733.611 2780.47 732.298 2777.77 733.363C2763.9 738.864 2749.33 742.878 2734.49 745.331C2660.77 757.571 2589.51 729.795 2542.93 677.936C2517.01 649.095 2498.75 612.796 2491.94 571.814C2490.75 564.604 2489.93 557.419 2489.49 550.233C2486.41 501.942 2499.94 454.468 2528.49 414.601C2561.27 368.788 2609.9 338.485 2665.48 329.268C2780.25 310.239 2889 388.089 2908.03 502.809C2909.19 509.87 2910.01 516.982 2910.46 524.093C2912.41 554.891 2907.61 585.789 2896.26 614.506C2895.96 615.249 2895.84 616.017 2895.91 616.785C2896.01 618.743 2897.25 620.551 2899.23 621.319C2901.91 622.385 2904.98 621.072 2906.05 618.371C2917.94 588.192 2922.99 555.758 2920.94 523.424C2920.47 515.966 2919.62 508.508 2918.38 501.099C2898.41 380.656 2784.16 298.94 2663.77 318.911C2605.45 328.574 2554.35 360.388 2519.94 408.481C2489.98 450.355 2475.78 500.183 2479.01 550.877C2479.48 558.41 2480.34 565.967 2481.58 573.524C2491.27 631.85 2523.08 682.941 2571.18 717.357C2613.03 747.313 2662.9 761.511 2713.6 758.289Z" fill="#BDD0FB"/>
<path d="M3682.17 894.06C3681.59 894.06 3681.01 894.007 3680.4 893.875C3676.02 892.894 3673.29 888.549 3674.28 884.204C3675.71 877.792 3677 871.247 3678.04 864.756C3678.7 860.808 3682.12 857.973 3686.01 857.973C3686.46 857.973 3686.91 858 3687.36 858.079C3691.79 858.794 3694.78 862.981 3694.04 867.406C3692.95 874.188 3691.6 881.051 3690.09 887.754C3689.27 891.358 3686.2 893.848 3682.7 894.06C3682.54 894.06 3682.36 894.06 3682.17 894.06" fill="#DEE8FD"/>
<path d="M3690.26 832.253C3690.15 832.253 3690.05 832.253 3689.97 832.253C3685.49 832.068 3682.01 828.302 3682.17 823.82C3682.59 812.522 3682.46 801.092 3681.72 789.821C3681.59 787.434 3681.4 785.047 3681.19 782.66C3680.82 778.205 3684.13 774.28 3688.59 773.882C3688.72 773.882 3688.83 773.882 3688.96 773.882C3693.07 773.882 3697 776.958 3697.37 781.308C3697.58 783.8 3697.76 786.293 3697.92 788.786C3698.67 800.614 3698.83 812.602 3698.37 824.456C3698.22 828.647 3694.9 831.988 3690.79 832.227C3690.6 832.253 3690.42 832.253 3690.26 832.253ZM3683.18 748.369C3679.41 748.369 3676.04 745.744 3675.25 741.898C3672.44 728.506 3668.78 715.139 3664.35 702.224C3662.92 697.981 3665.17 693.366 3669.41 691.934C3670.26 691.616 3671.14 691.483 3672.01 691.483C3675.38 691.483 3678.54 693.605 3679.7 696.973C3684.32 710.525 3688.16 724.527 3691.11 738.583C3692.04 742.986 3689.22 747.256 3684.85 748.184C3684.45 748.263 3684.05 748.316 3683.68 748.343C3683.5 748.369 3683.34 748.369 3683.18 748.369V748.369ZM3655.94 668.702C3652.92 668.702 3650.03 667.031 3648.65 664.167C3642.63 651.862 3635.79 639.821 3628.31 628.338C3625.87 624.599 3626.93 619.56 3630.67 617.12C3632.05 616.218 3633.59 615.794 3635.12 615.794C3637.75 615.794 3640.35 617.093 3641.91 619.48C3649.74 631.494 3656.92 644.144 3663.21 657.033C3665.17 661.064 3663.5 665.918 3659.47 667.88C3658.49 668.357 3657.45 668.622 3656.45 668.702C3656.26 668.702 3656.1 668.702 3655.94 668.702V668.702ZM3609.93 598.184C3607.62 598.184 3605.34 597.203 3603.72 595.32C3594.89 584.844 3585.32 574.82 3575.27 565.564C3571.98 562.514 3571.79 557.396 3574.82 554.108C3576.43 552.384 3578.61 551.508 3580.78 551.508C3582.75 551.508 3584.71 552.198 3586.27 553.657C3596.8 563.363 3606.83 573.865 3616.11 584.844C3619 588.266 3618.57 593.384 3615.15 596.275C3613.77 597.442 3612.13 598.052 3610.46 598.158C3610.27 598.184 3610.11 598.184 3609.93 598.184V598.184ZM3548.11 541.033C3546.47 541.033 3544.82 540.529 3543.39 539.521C3532.28 531.512 3520.56 524.139 3508.57 517.562C3504.64 515.414 3503.21 510.481 3505.33 506.556C3506.82 503.851 3509.6 502.34 3512.47 502.34C3513.79 502.34 3515.12 502.658 3516.37 503.347C3528.91 510.216 3541.19 517.96 3552.86 526.341C3556.49 528.966 3557.31 534.032 3554.71 537.665C3553.23 539.707 3550.97 540.874 3548.61 541.006C3548.45 541.033 3548.3 541.033 3548.11 541.033V541.033ZM3474.3 500.616C3473.32 500.616 3472.31 500.43 3471.31 500.059C3458.6 494.993 3445.45 490.697 3432.24 487.276C3427.89 486.162 3425.29 481.733 3426.43 477.384C3427.36 473.75 3430.65 471.311 3434.26 471.311C3434.95 471.311 3435.64 471.39 3436.3 471.576C3450.17 475.183 3463.96 479.691 3477.3 484.969C3481.46 486.64 3483.51 491.334 3481.86 495.497C3480.64 498.521 3477.86 500.404 3474.83 500.616C3474.65 500.616 3474.49 500.616 3474.3 500.616V500.616ZM3267.21 486.427C3263.55 486.427 3260.23 483.961 3259.33 480.248C3258.27 475.899 3260.92 471.523 3265.27 470.462C3277.34 467.518 3289.72 465.185 3302.13 463.54C3304.02 463.275 3305.9 463.036 3307.78 462.824C3308.15 462.771 3308.52 462.745 3308.87 462.745C3312.85 462.745 3316.3 465.874 3316.75 469.958C3317.28 474.387 3314.09 478.418 3309.64 478.922C3307.89 479.134 3306.11 479.346 3304.31 479.612C3292.45 481.176 3280.63 483.404 3269.12 486.215C3268.66 486.321 3268.16 486.401 3267.71 486.427C3267.52 486.427 3267.36 486.427 3267.21 486.427ZM3392.89 479.479C3392.54 479.479 3392.2 479.479 3391.83 479.426C3378.3 477.649 3364.48 476.721 3350.77 476.641C3346.29 476.615 3342.68 472.955 3342.71 468.473C3342.74 463.991 3346.4 460.464 3350.88 460.411C3365.25 460.517 3379.76 461.498 3393.92 463.355C3398.38 463.912 3401.51 467.996 3400.92 472.425C3400.42 476.35 3397.21 479.24 3393.39 479.479C3393.23 479.479 3393.05 479.479 3392.89 479.479" fill="#DEE8FD"/>
<path d="M3348.06 1160.85C3339.77 1160.85 3331.49 1160.55 3323.28 1159.98C3318.83 1159.65 3315.45 1155.77 3315.78 1151.32C3316.08 1147.01 3319.68 1143.78 3323.91 1143.78C3324.08 1143.78 3324.26 1143.78 3324.43 1143.81C3332.24 1144.36 3340.12 1144.64 3348.03 1144.64C3353.66 1144.64 3359.29 1144.49 3364.92 1144.21C3365.05 1144.18 3365.2 1144.18 3365.32 1144.18C3369.63 1144.18 3373.21 1147.56 3373.41 1151.89C3373.63 1156.32 3370.25 1160.1 3365.85 1160.38L3365.73 1160.4C3359.87 1160.7 3353.96 1160.85 3348.06 1160.85V1160.85ZM3406.54 1155.82C3402.69 1155.82 3399.26 1153.04 3398.58 1149.09C3397.81 1144.69 3400.76 1140.51 3405.19 1139.73C3418.45 1137.45 3431.74 1134.33 3444.63 1130.47C3445.4 1130.25 3446.18 1130.15 3446.93 1130.15C3450.43 1130.15 3453.66 1132.4 3454.71 1135.93C3455.99 1140.21 3453.56 1144.74 3449.28 1146.01C3435.77 1150.07 3421.86 1153.32 3407.94 1155.7C3407.64 1155.77 3407.37 1155.8 3407.07 1155.82C3406.89 1155.82 3406.72 1155.82 3406.54 1155.82V1155.82ZM3282.74 1154.55C3282.24 1154.55 3281.72 1154.5 3281.19 1154.39C3267.3 1151.67 3253.49 1148.09 3240.1 1143.71C3235.82 1142.33 3233.49 1137.75 3234.89 1133.5C3236 1130.07 3239.17 1127.89 3242.6 1127.89C3243.43 1127.89 3244.28 1128.02 3245.11 1128.29C3257.87 1132.45 3271.06 1135.88 3284.29 1138.48C3288.7 1139.36 3291.55 1143.61 3290.7 1147.99C3289.97 1151.69 3286.85 1154.29 3283.24 1154.52C3283.09 1154.55 3282.92 1154.55 3282.74 1154.55" fill="url(#paint65_linear)"/>
<path d="M3527.36 1111.71C3525.35 1106.84 3523.28 1101.92 3521.22 1097.05C3521.73 1096.95 3522.26 1096.9 3522.8 1096.9C3525.55 1096.9 3528.26 1098.32 3529.79 1100.85C3531.98 1104.57 3530.88 1109.34 3527.36 1111.71Z" fill="#DEE8FD"/>
<path d="M3488.33 1131.68V1113.98C3498.7 1109.19 3508.86 1103.84 3518.66 1098.04C3519.48 1097.55 3520.34 1097.25 3521.21 1097.07C3523.27 1101.91 3525.34 1106.85 3527.35 1111.71C3527.22 1111.81 3527.07 1111.89 3526.94 1111.99C3514.79 1119.17 3502.08 1125.72 3489.15 1131.37C3488.87 1131.5 3488.61 1131.6 3488.33 1131.68" fill="url(#paint66_linear)"/>
<path d="M3485.92 1132.06C3482.79 1132.06 3479.81 1130.25 3478.47 1127.19C3476.68 1123.11 3478.55 1118.31 3482.64 1116.52C3484.55 1115.69 3486.45 1114.83 3488.34 1113.95V1131.68C3487.71 1131.88 3487.05 1131.99 3486.42 1132.04C3486.24 1132.06 3486.07 1132.06 3485.92 1132.06ZM3204.06 1128.88C3202.9 1128.88 3201.74 1128.63 3200.63 1128.13C3187.83 1122.15 3175.3 1115.36 3163.31 1107.87C3159.5 1105.52 3158.34 1100.53 3160.71 1096.72C3162.25 1094.24 3164.9 1092.88 3167.63 1092.88C3169.06 1092.88 3170.55 1093.28 3171.89 1094.12C3183.32 1101.26 3195.28 1107.74 3207.49 1113.42C3211.55 1115.31 3213.29 1120.15 3211.4 1124.22C3210.11 1126.99 3207.41 1128.68 3204.56 1128.86C3204.38 1128.88 3204.21 1128.88 3204.06 1128.88V1128.88ZM3133.79 1085.11C3132 1085.11 3130.21 1084.5 3128.72 1083.29C3117.7 1074.44 3107.13 1064.8 3097.31 1054.71C3094.18 1051.51 3094.26 1046.38 3097.46 1043.26C3099.03 1041.74 3101.07 1040.96 3103.12 1040.96C3105.23 1040.96 3107.33 1041.79 3108.92 1043.41C3118.3 1053.04 3128.37 1062.2 3138.89 1070.68C3142.37 1073.48 3142.9 1078.6 3140.1 1082.08C3138.61 1083.92 3136.49 1084.93 3134.3 1085.08C3134.12 1085.08 3133.97 1085.11 3133.79 1085.11V1085.11ZM3076.04 1025.75C3073.6 1025.75 3071.18 1024.64 3069.59 1022.54C3061.01 1011.29 3053.06 999.407 3045.95 987.247C3043.7 983.387 3044.99 978.417 3048.85 976.146C3050.16 975.414 3051.55 975.061 3052.93 975.061C3055.74 975.061 3058.43 976.499 3059.95 979.072C3066.74 990.653 3074.3 1002.01 3082.48 1012.73C3085.2 1016.29 3084.52 1021.38 3080.94 1024.08C3079.63 1025.09 3078.09 1025.62 3076.55 1025.72C3076.37 1025.72 3076.2 1025.75 3076.04 1025.75" fill="url(#paint67_linear)"/>
<path d="M3557.44 1089.6C3555.02 1089.6 3552.62 1088.49 3551.02 1086.45C3548.28 1082.89 3548.93 1077.81 3552.46 1075.07C3557.7 1071.02 3562.84 1066.79 3567.74 1062.5C3569.29 1061.19 3571.2 1060.52 3573.08 1060.52C3575.33 1060.52 3577.6 1061.47 3579.2 1063.3C3582.14 1066.68 3581.78 1071.79 3578.42 1074.74C3573.26 1079.23 3567.89 1083.64 3562.4 1087.9C3561.06 1088.93 3559.51 1089.47 3557.96 1089.57C3557.78 1089.57 3557.6 1089.6 3557.44 1089.6" fill="#DEE8FD"/>
<path d="M3579.48 936.717C3580.49 935.287 3580.49 933.364 3579.48 931.934L3550.55 891.204C3559.44 869.63 3564.95 846.496 3566.53 822.531L3610.43 798.747C3611.99 797.915 3612.83 796.2 3612.54 794.458L3602.74 735.325C3602.43 733.609 3601.1 732.257 3599.36 731.972L3550.13 723.628C3540.9 701.456 3528.22 681.312 3512.83 663.767L3527.08 615.888C3527.57 614.198 3526.95 612.379 3525.52 611.365L3476.78 576.483C3475.35 575.469 3473.43 575.469 3472.02 576.483L3431.27 605.439C3409.72 596.523 3386.56 591.013 3362.59 589.427L3338.81 545.525C3337.98 543.992 3336.26 543.16 3334.52 543.446L3275.39 553.245C3273.67 553.531 3272.32 554.883 3272.03 556.598L3263.69 605.828C3241.52 615.082 3221.37 627.767 3203.83 643.154L3155.95 628.91C3154.26 628.416 3152.44 629.014 3151.43 630.444L3116.57 679.206C3115.53 680.61 3115.53 682.533 3116.55 683.963L3145.5 724.694C3136.61 746.268 3131.08 769.401 3129.52 793.367L3085.59 817.15C3084.05 818.008 3083.22 819.723 3083.48 821.439L3093.31 880.572C3093.59 882.314 3094.92 883.666 3096.66 883.951L3145.92 892.269C3155.14 914.441 3167.83 934.585 3183.19 952.131L3168.95 1000.04C3168.45 1001.7 3169.08 1003.52 3170.51 1004.53L3219.24 1039.41C3220.67 1040.43 3222.6 1040.43 3224.03 1039.41L3264.76 1010.48C3286.33 1019.37 3309.49 1024.88 3333.43 1026.47L3357.21 1070.4C3358.04 1071.93 3359.76 1072.76 3361.5 1072.48L3420.64 1062.68C3422.35 1062.39 3423.73 1061.01 3424.01 1059.3L3432.36 1010.07C3454.53 1000.84 3474.65 988.157 3492.19 972.769L3540.1 987.013C3541.76 987.507 3543.58 986.883 3544.59 985.479L3579.48 936.717" fill="#91B3FA"/>
<path d="M3303.05 804.228C3302.04 816.237 3305.8 827.924 3313.58 837.11C3321.35 846.296 3332.24 851.916 3344.28 852.931C3356.29 853.897 3367.95 850.183 3377.16 842.384C3386.35 834.609 3391.97 823.689 3392.96 811.705C3395.04 786.92 3376.54 765.082 3351.76 763.002C3349.5 762.829 3347.3 762.804 3345.12 762.953C3323.18 764.339 3304.93 781.671 3303.05 804.228V804.228ZM3342.94 869.075C3326.6 867.738 3311.77 860.087 3301.2 847.583C3290.62 835.079 3285.52 819.208 3286.88 802.891C3289.68 769.192 3319.34 744.11 3353.09 746.858C3386.79 749.656 3411.92 779.344 3409.13 813.043C3407.76 829.36 3400.14 844.191 3387.63 854.764C3377.48 863.38 3365.08 868.332 3352.03 869.174C3349.01 869.347 3345.99 869.323 3342.94 869.075" fill="#BDD0FB"/>
<path d="M3356.6 959.576C3361.72 959.247 3366.88 958.64 3372.04 957.805C3382.29 956.11 3392.39 953.351 3402.08 949.631C3402.51 949.454 3402.94 949.277 3403.37 949.125C3406.74 947.784 3408.71 944.494 3408.48 941.078C3408.43 940.243 3408.25 939.408 3407.92 938.598C3406.28 934.448 3401.57 932.423 3397.4 934.043C3388.41 937.611 3378.97 940.217 3369.38 941.786C3368.85 941.888 3368.35 941.963 3367.81 942.039C3345.09 945.582 3322.34 943.33 3301.23 935.789C3289.8 931.689 3278.84 926.046 3268.61 918.859L3268.36 918.682C3268.11 918.505 3267.86 918.328 3267.63 918.151C3237.94 896.919 3218.33 865.438 3212.38 829.453C3211.6 824.796 3211.07 820.14 3210.79 815.509C3208.79 784.23 3217.55 753.509 3236.02 727.696C3257.25 698.038 3288.73 678.425 3324.72 672.453C3360.68 666.506 3396.84 674.883 3426.47 696.089C3456.13 717.321 3475.77 748.827 3481.72 784.787C3482.48 789.368 3483.01 793.973 3483.31 798.579C3484.58 818.52 3481.46 838.512 3474.13 857.112C3473.67 858.251 3473.49 859.44 3473.57 860.604C3473.75 863.616 3475.67 866.425 3478.68 867.614C3482.86 869.259 3487.56 867.209 3489.21 863.059C3497.41 842.232 3500.9 819.861 3499.48 797.567C3499.18 792.404 3498.57 787.267 3497.74 782.13C3491.06 741.893 3469.09 706.642 3435.94 682.905C3402.74 659.167 3362.32 649.754 3322.06 656.46C3281.82 663.115 3246.57 685.056 3222.84 718.257C3202.16 747.132 3192.37 781.523 3194.59 816.496C3194.92 821.683 3195.51 826.897 3196.39 832.11C3209.3 910.027 3279.42 964.461 3356.6 959.576" fill="#BDD0FB"/>

</svg>
