<svg width="4261" height="2667" viewBox="0 0 4261 2667" fill="none" xmlns="http://www.w3.org/2000/svg">
<path d="M491.862 2282.91C491.862 2282.91 42.2401 1804.91 348.134 1248.14C584.118 818.611 1155 895.143 1447.92 1076.82C1572.68 1154.2 1840.73 1012.29 2180.68 581.37C2575.33 81.1139 4103.24 386.34 3839.34 1342.16C3711.67 1804.71 4227.98 1821.52 3964.91 2283.88L491.862 2282.91" fill="#EBF3FA"/>
<path d="M2587.59 1125.94H3656.08V1084.76C3656.08 790.171 3416.43 550.512 3121.84 550.512C2827.24 550.512 2587.59 790.171 2587.59 1084.76V1125.94ZM3692.18 2279.08H2551.49C2437.3 2279.08 2344.75 2186.52 2344.75 2072.33V1084.76C2344.75 979.904 2365.31 878.123 2405.87 782.241C2445 689.693 2501.02 606.601 2572.35 535.272C2643.68 463.946 2726.78 407.933 2819.32 368.786C2901.94 333.842 2882.18 312.663 2971.76 307.772C2986.14 306.99 3107.32 307.669 3121.84 307.669C3226.7 307.669 3328.48 328.233 3424.35 368.786C3516.89 407.933 3599.99 463.946 3671.32 535.272C3742.65 606.601 3798.67 689.693 3837.8 782.241C3878.35 878.123 3898.92 979.904 3898.92 1084.76V2072.33C3898.92 2186.52 3806.35 2279.08 3692.18 2279.08" fill="#4F75BA"/>
<path d="M2449.97 1125.95H3518.45V1084.76C3518.45 790.179 3278.79 550.519 2984.21 550.519C2689.63 550.519 2449.97 790.179 2449.97 1084.76V1125.95ZM3554.54 2279.08H2413.88C2299.69 2279.08 2207.13 2186.52 2207.13 2072.33V1084.76C2207.13 979.91 2227.69 878.131 2268.25 782.25C2307.4 689.701 2363.41 606.609 2434.74 535.283C2506.06 463.956 2589.16 407.941 2681.69 368.795C2777.57 328.245 2879.36 307.685 2984.21 307.685C3089.07 307.685 3190.85 328.245 3286.73 368.795C3379.26 407.941 3462.36 463.956 3533.71 535.283C3605.01 606.609 3661.04 689.701 3700.17 782.25C3740.74 878.131 3761.3 979.91 3761.3 1084.76V2072.33C3761.3 2186.52 3668.75 2279.08 3554.54 2279.08" fill="#739AF0"/>
<path d="M3080.37 1512.97C3080.37 1488.99 3071.57 1467.05 3057.03 1450.21C3043.69 1430.43 3016.1 1416.83 2984.22 1416.83C2952.34 1416.83 2924.75 1430.43 2911.41 1450.21C2896.87 1467.05 2888.07 1488.99 2888.07 1512.97C2888.07 1556.08 2916.43 1592.56 2955.51 1604.76V1750.39C2955.51 1762.13 2968.37 1771.65 2984.22 1771.65C3000.08 1771.65 3012.93 1762.13 3012.93 1750.39V1604.76C3052.01 1592.56 3080.37 1556.08 3080.37 1512.97Z" fill="#4F75BA"/>
<path d="M1706.23 1389.96C1704.4 1402.31 1690.31 1416.6 1675.27 1427.32C1659.08 1438.85 1652.59 1450.69 1646.85 1456.61C1644.72 1459.04 1643.41 1460.37 1643.41 1460.37L1626.13 1440.28C1626.13 1440.28 1626.43 1440.09 1626.93 1439.52C1630.8 1435.31 1640.6 1424.92 1647.13 1412.95C1661.45 1386.72 1681.47 1382.85 1681.47 1382.85C1681.47 1382.85 1700.61 1385.68 1706.23 1389.96Z" fill="#FFB27D"/>
<path d="M813.541 1642.12L825.221 1651.6C825.221 1651.6 857.168 1640.15 864.377 1678.11C864.377 1678.11 866.297 1694.29 856.048 1694.32C845.8 1694.35 850.028 1692.55 835.515 1692.97C821.001 1693.4 808.973 1685.75 806.848 1673.97L799.905 1664L813.541 1642.12" fill="#EA8E50"/>
<path d="M812.219 1662.48C821.536 1652.75 820.785 1645.56 820.785 1645.56C820.785 1645.56 712.895 1557.23 701.953 1550.03C694.497 1545.12 619.319 1473.11 577.899 1431.73C557.973 1411.84 536.655 1418.71 510.547 1426.2L489.044 1432.36C463.083 1439.81 456.329 1476.12 477.632 1493.77C537.628 1543.47 637.433 1599.36 656.108 1611.11C702.467 1640.27 793.209 1674.92 793.209 1674.92C793.209 1674.92 804.219 1670.83 812.219 1662.48" fill="#992525"/>
<path d="M935.343 2205.17C935.343 2205.17 961.527 2224.79 1001.65 2214.43C1001.65 2214.43 1033.99 2207.05 1041.09 2223.19C1041.09 2223.19 991.477 2248.39 978.925 2255.28C969.463 2260.48 959.589 2268.68 952.611 2275.01C947.084 2280.03 938.481 2279.36 933.772 2273.56C931.588 2270.88 929.092 2267.68 926.356 2263.97C918.705 2253.61 900.883 2220.12 900.883 2220.12L935.343 2205.17" fill="#233862"/>
<path d="M950.713 2195.21C950.713 2195.21 934.769 2231.97 897.968 2225.21C897.968 2225.21 822.869 2163.19 771.356 2098.76C754.625 2077.84 740.381 2056.67 732.009 2037.28C697.849 1958.19 605.652 1840.23 547.031 1780.44L693.695 1727.39C693.695 1727.39 740.672 1821.89 803.177 1937.96C848.223 2021.6 901.317 2116.44 950.713 2195.21" fill="#2B478B"/>
<path d="M803.177 1937.96L771.356 2098.76C754.625 2077.84 740.381 2056.67 732.009 2037.28C697.849 1958.19 605.652 1840.23 547.031 1780.44L693.695 1727.39C693.695 1727.39 740.672 1821.89 803.177 1937.96" fill="#233862"/>
<path d="M683.293 2226.51C683.293 2226.51 681.695 2255.84 717.257 2259.76C717.257 2259.76 737.579 2259.87 737.636 2278.53L634.278 2278.87C634.278 2278.87 631.279 2271.33 630.552 2255.2C629.992 2242.81 642.556 2210.43 642.556 2210.43L683.293 2226.51" fill="#233862"/>
<path d="M645.589 1727.39C645.589 1727.39 710.927 1799.19 752.401 1928.52C774.968 1998.89 711.041 2175.84 698.579 2237.31C698.579 2237.31 655.695 2240.95 626.373 2229.61C626.373 2229.61 624.145 2102.64 641.293 2004.77C650.891 1950.01 555.267 1887.64 513.484 1788.68C485.057 1721.36 519.639 1722.49 562.136 1720.88L645.589 1727.39" fill="#2B478B"/>
<path d="M570.165 1407.08C533.815 1427.61 459.393 1408.68 459.393 1408.68C459.393 1408.68 489.616 1374.13 475.883 1318.48L504.425 1332.97L535.083 1348.55C535.083 1348.55 537.065 1358.37 538.444 1376.03C538.795 1380.57 539.109 1385.65 539.327 1391.2C557.992 1396.85 570.165 1407.08 570.165 1407.08Z" fill="#FFB07B"/>
<path d="M703.463 1723.68C703.463 1730.07 696.101 1733.13 694.539 1733.44C679.876 1736.12 638.937 1752.04 602.059 1755.69C571.005 1758.95 542.176 1755.85 510.5 1749.49C506.305 1748.65 496.46 1746 495.76 1741.99C494.888 1737.6 373.587 1494.71 467.883 1390.37C470.097 1387.92 488.711 1392.33 505.733 1396.37C521.455 1400.09 535.873 1398.01 548.749 1392.85L564.713 1401.25C584.319 1412.17 621.412 1450.99 625.751 1481.44C627.956 1496.93 636.812 1508.4 639.376 1522.01C640.327 1527.05 641.297 1531.99 642.288 1536.77C644.22 1546.19 646.211 1555.15 648.26 1563.65C653.805 1586.69 659.66 1606.52 665.409 1623.64C671.527 1641.83 677.527 1656.96 682.888 1669.61C689.839 1686.03 695.713 1698.29 699.384 1707.68C701.977 1714.29 703.463 1719.48 703.463 1723.68" fill="#BC3F3F"/>
<path d="M699.384 1707.68C528.153 1627 468.855 1472.09 468.855 1472.09C468.855 1472.09 607.973 1523.41 642.288 1536.77C644.22 1546.19 646.211 1555.15 648.26 1563.65C653.805 1586.69 659.66 1606.52 665.409 1623.64C671.527 1641.83 677.527 1656.96 682.888 1669.61C689.839 1686.03 695.713 1698.29 699.384 1707.68" fill="#992525"/>
<path d="M822.068 1128.12C784.952 1128.12 754.756 1158.32 754.756 1195.44V1503.44C754.756 1540.55 784.952 1570.75 822.068 1570.75H916.6C953.716 1570.75 983.912 1540.55 983.912 1503.44V1195.44C983.912 1158.32 953.716 1128.12 916.6 1128.12H822.068ZM916.6 1667.88H822.068C731.392 1667.88 657.624 1594.11 657.624 1503.44V1195.44C657.624 1104.76 731.392 1030.99 822.068 1030.99H916.6C1007.27 1030.99 1081.04 1104.76 1081.04 1195.44V1503.44C1081.04 1594.11 1007.27 1667.88 916.6 1667.88" fill="#F99746"/>
<path d="M1907.96 1406.17H1041.09V1292.71H1907.96C1939.29 1292.71 1964.69 1318.11 1964.69 1349.44C1964.69 1380.77 1939.29 1406.17 1907.96 1406.17Z" fill="#F99746"/>
<path d="M1844.72 1651.2C1819.57 1651.2 1799.19 1630.81 1799.19 1605.67V1383.32H1890.25V1605.67C1890.25 1630.81 1869.87 1651.2 1844.72 1651.2Z" fill="#F99746"/>
<path d="M799.565 1660.92L814.361 1666.35C814.361 1666.35 843.992 1645.4 862.441 1679.48C862.441 1679.48 869.113 1694.36 858.551 1697.6C847.988 1700.83 851.831 1697.79 836.983 1702.72C822.136 1707.67 807.511 1704.11 801.903 1693.51L791.845 1686.12L799.565 1660.92" fill="#FFB07B"/>
<path d="M811.744 1681.85C817.215 1667.57 819.712 1661.11 819.712 1661.11C819.712 1661.11 707.907 1569.99 696.515 1562.16C688.752 1556.84 611.468 1499.07 573.789 1454.05C555.097 1431.72 525.628 1421.51 497.128 1427.48L473.656 1432.4C445.316 1438.35 436.109 1474.23 458.093 1493.07C520.008 1546.15 624.437 1607.71 643.909 1620.52C692.247 1652.31 799.159 1696.85 799.159 1696.85C799.159 1696.85 807.447 1693.07 811.744 1681.85Z" fill="#BC3F3F"/>
<path d="M538.444 1376.03C502.696 1378.04 479.449 1348.52 479.449 1348.52C479.449 1348.52 495.613 1339.57 504.425 1332.97L535.083 1348.55C535.083 1348.55 537.065 1358.37 538.444 1376.03Z" fill="#EA8E50"/>
<path d="M553.673 1339.33C553.673 1339.33 499.511 1378.2 475.824 1344.09C452.137 1309.99 429.193 1292.04 462.775 1265.79C496.356 1239.52 512.185 1247.81 522.86 1257.28C533.535 1266.73 567.155 1328.33 553.673 1339.33" fill="#FFB07B"/>
<path d="M528.583 1226.48C526.639 1213.37 522.271 1204.15 522.271 1204.15C522.271 1204.15 518.872 1218.23 493.14 1216.28C467.408 1214.35 426.624 1218.81 413.029 1248.13C412.167 1250 411.393 1251.92 410.708 1253.89C408.248 1247.39 407.655 1237.64 407.655 1237.64C402.765 1250.27 407.655 1266.05 407.655 1266.05H407.657C407.583 1266.52 407.523 1266.97 407.457 1267.44C401.777 1272.24 397.008 1287.16 397.008 1287.16C398.723 1283 402.903 1280.29 406.628 1278.61C406.512 1301.43 415.765 1323.73 432.005 1330.37C455.755 1340.09 455.565 1332.68 479.449 1348.52C479.449 1348.52 485.857 1340.57 481.487 1335.23C477.117 1329.89 460.611 1322.12 469.835 1314.36C479.06 1306.59 482.457 1315.32 485.857 1309.99C489.255 1304.64 472.261 1289.11 494.111 1274.55C515.957 1259.97 530.524 1239.59 528.583 1226.48" fill="#233862"/>
<path d="M1477.31 2248.16L1457.35 2255.6C1457.35 2255.6 1370.67 2135.37 1360 2029.61C1358.09 2010.72 1358.72 1992.43 1362.85 1975.53C1362.85 1975.53 1362 1970.69 1360.52 1962.13C1359.84 1958.15 1358.99 1953.33 1358.03 1947.84C1355.21 1931.69 1351.33 1909.6 1346.89 1884.44C1336.69 1826.55 1323.49 1752.55 1313.22 1698.15L1318.6 1696.43L1376.77 1677.65L1388.8 1639.47L1432.12 1628.05C1432.12 1628.05 1441.8 1646.99 1450.45 1736.41C1452.05 1748.15 1453.51 1761.08 1454.59 1775.12C1457.96 1817.93 1458.21 1871.04 1450.47 1931.77C1448.48 1947.31 1445.97 1963.36 1442.87 1979.85C1440.59 1991.93 1440.24 2008.41 1441.2 2027.32C1445.56 2113.79 1477.31 2248.16 1477.31 2248.16" fill="#BC3F3F"/>
<path d="M1454.59 1775.12L1360.52 1962.13C1359.84 1958.15 1358.99 1953.33 1358.03 1947.84C1355.21 1931.69 1351.33 1909.6 1346.89 1884.44C1336.69 1826.55 1323.49 1752.55 1313.22 1698.15L1318.6 1696.43L1376.77 1677.65L1388.8 1639.47L1432.12 1628.05C1432.12 1628.05 1441.8 1646.99 1450.45 1736.41C1452.05 1748.15 1453.51 1761.08 1454.59 1775.12" fill="#992525"/>
<path d="M1413.2 1652.05L1411.03 1633.39C1374.55 1643.07 1277.06 1606.31 1277.06 1606.31C1277.06 1606.31 1241.71 1637.37 1246.35 1711.85C1248.62 1748.2 1252.76 1902.67 1257.08 1948.37C1258.64 1964.95 1260.01 1976.73 1260.57 1981.44C1260.58 1981.47 1260.58 1981.48 1260.58 1981.49C1260.75 1982.92 1260.25 1984.28 1259.52 1985.53C1253.16 1996.33 1247.89 2007.57 1243.57 2019.08C1201.15 2132.11 1250.1 2271.29 1250.1 2271.29L1262.8 2266.17C1262.8 2266.17 1290.66 2111.27 1313.29 2042.84C1317.13 2031.23 1320.81 2022.11 1324.19 2016.65C1334.03 2000.77 1343.16 1974.83 1351.45 1943.96C1367.12 1885.61 1379.72 1809.69 1388.12 1751.11C1389.28 1751.16 1413.2 1652.05 1413.2 1652.05Z" fill="#BC3F3F"/>
<path d="M1635.8 1420.32C1646.83 1424.71 1657.61 1433.36 1668.28 1444.13C1668.28 1444.13 1606.05 1552.67 1570.24 1568.44C1550.57 1577.11 1489.05 1511.39 1476.35 1474.55C1473.24 1465.55 1484.71 1435.44 1480.95 1429.11C1475.99 1420.76 1473.57 1412.59 1472.59 1405.56C1472.35 1404.49 1472.12 1403.43 1472.2 1402.25C1471.01 1391.05 1473.32 1383.43 1473.32 1383.43C1474.75 1379.77 1478.77 1378.2 1484.76 1378.29L1486.87 1378.28C1519.09 1397.25 1561.44 1490.37 1568.41 1492.56C1586.63 1469.49 1635.8 1420.32 1635.8 1420.32" fill="#2C3A64"/>
<path d="M1482.91 1425.53C1471.45 1430.85 1457.63 1434.47 1440.89 1435.39C1378.16 1438.81 1363.92 1383.83 1361.33 1347.33C1370.37 1344.05 1378.29 1344.37 1382.85 1344.61C1387.31 1344.85 1391.95 1345.32 1395.77 1345.79C1403.45 1341.77 1417.23 1322.31 1425.2 1289.75L1427.91 1291L1473.16 1312.28C1473.16 1312.28 1468.36 1327 1464.8 1341.09C1462.04 1352.12 1460.05 1362.77 1461.71 1365.76C1465.28 1367.21 1467.41 1368.12 1467.41 1368.12C1467.41 1368.12 1467.41 1368.15 1467.43 1368.17C1467.88 1369.33 1477.73 1394.4 1482.91 1425.53" fill="#FFB27D"/>
<path d="M1498.6 1466.69C1498.12 1467.95 1497.6 1469.17 1497.04 1470.43C1481.15 1504.64 1451.75 1646.37 1451.75 1646.37C1455.93 1671.85 1260.24 1641.37 1259.73 1618.17C1252.84 1593.56 1284.19 1554.04 1301.86 1534.21C1304.08 1531.72 1306.07 1529.05 1307.79 1526.23C1312.16 1519.16 1314.93 1511.17 1315.81 1502.83C1319.28 1469.95 1306.36 1394.09 1309.85 1379.44C1311.21 1373.71 1337.12 1406.49 1340.21 1403.2C1343.63 1399.61 1345.76 1395.95 1346 1391.81C1346.19 1388.68 1346.08 1385.48 1345.76 1382.27C1345.61 1380.75 1345.41 1379.24 1345.19 1377.72C1342.75 1361.8 1312.3 1368.6 1312.3 1368.6C1323.46 1341.75 1382.87 1343.88 1382.85 1344.61C1382.84 1345.35 1382.83 1346.28 1382.8 1349C1382.71 1359.93 1382.8 1388 1386.31 1393.31C1390.69 1399.93 1470.87 1428.91 1475.11 1419.93C1479.28 1411.11 1467.85 1369.73 1467.43 1368.17C1467.41 1368.15 1467.41 1368.12 1467.41 1368.12C1476.19 1371.68 1486.87 1378.28 1486.87 1378.28C1496.93 1398.47 1511.11 1433.51 1498.6 1466.69" fill="#2B478B"/>
<path d="M1444.59 1171.05C1444.49 1168.33 1442.39 1139.03 1397.75 1137.49C1397.75 1137.49 1419.71 1140.12 1423.49 1149.76C1423.49 1149.76 1408.55 1137.84 1396.37 1141.68C1384.21 1145.51 1377.05 1166.84 1376.99 1173.85C1376.92 1180.87 1383.68 1203.47 1391.4 1205.4C1394.33 1206.12 1397.69 1205.93 1400.76 1205.41C1398.71 1208.61 1396.69 1212.16 1394.76 1216.11C1376.95 1252.67 1395.32 1288.4 1410.4 1284.45C1420.07 1281.92 1422.8 1298.43 1422.8 1298.43L1516.76 1222.36C1516.76 1222.36 1482.25 1150.96 1444.59 1171.05" fill="#BC3F3F"/>
<path d="M1473.16 1312.28C1473.16 1312.28 1468.36 1327 1464.81 1341.11C1438.35 1333.72 1430.32 1305.91 1427.91 1291L1473.16 1312.28" fill="#ED985F"/>
<path d="M1478.73 1327.87C1478.73 1327.87 1415.44 1313.21 1425.17 1273.93C1434.91 1234.67 1433.28 1206.32 1474.11 1214.01C1514.93 1221.71 1519.04 1238.63 1518.99 1252.52C1518.92 1266.43 1495.45 1330.67 1478.73 1327.87Z" fill="#FFB27D"/>
<path d="M1522.55 1230.23C1515.73 1215.99 1507.73 1216.75 1502.72 1219.28C1472.97 1191.76 1443.8 1214.24 1443.8 1214.24C1432.57 1241.36 1408.24 1252.44 1408.24 1252.44C1408.24 1252.44 1417.97 1262.4 1446.15 1262.19C1454.76 1262.12 1463.41 1258.16 1471.29 1252.72C1456.09 1268.01 1438.28 1277.33 1438.28 1277.33C1473.56 1270.59 1497.23 1229.73 1499.64 1225.4C1502.64 1229.81 1508.35 1239.21 1508.83 1247.15C1509.48 1257.92 1505.77 1278.85 1511.95 1279.65C1511.95 1279.65 1532.75 1251.57 1522.55 1230.23" fill="#BC3F3F"/>
<path d="M1323.95 2281.67H1223.43C1223.43 2281.67 1221.03 2266.35 1226.28 2254.73C1231.31 2243.57 1239.19 2238.51 1237.3 2225.01C1243.69 2231.59 1254.09 2238.96 1268.63 2237C1270.41 2239.89 1280.12 2255.33 1286.07 2259.61C1292.63 2264.33 1321.92 2262.65 1323.95 2281.67" fill="#233862"/>
<path d="M1539.76 2281.67H1439.24C1439.24 2281.67 1435.49 2265.64 1442.08 2254.73C1447.93 2245.08 1445.69 2239.57 1441.36 2231.6C1445.92 2233.45 1451.8 2235.15 1458.29 2234.79C1463.29 2234.49 1468.6 2232.23 1473.24 2229.52C1477.56 2234.45 1496.09 2255.45 1501.88 2259.61C1508.44 2264.33 1537.73 2262.65 1539.76 2281.67Z" fill="#233862"/>
<path d="M1676.48 1406.17H1829.47L1820.96 1346.84L1684.37 1352.32L1676.48 1406.17Z" fill="#F99746"/>
<path d="M1703.35 1292.71C1696.21 1299.81 1696.37 1322.59 1681.33 1333.31C1665.15 1344.84 1658.65 1356.68 1652.92 1362.6C1650.8 1365.03 1649.49 1366.36 1649.49 1366.36L1632.21 1346.27C1632.21 1346.27 1632.49 1346.08 1633 1345.51C1636.87 1341.29 1646.68 1330.89 1653.2 1318.93C1667.52 1292.71 1687.55 1288.84 1687.55 1288.84C1687.55 1288.84 1697.72 1288.43 1703.35 1292.71" fill="#FFB27D"/>
<path d="M1642.79 1330.47L1668.28 1359C1668.28 1359 1600.15 1418.32 1585.92 1430.64C1575.81 1439.24 1566.27 1446.25 1558.49 1450.28C1557.72 1450.69 1557.03 1450.99 1556.12 1451.33C1536.11 1460.09 1492.92 1459.12 1449.76 1452.73C1443.79 1451.87 1437.89 1450.87 1432.13 1449.93C1410.85 1446.23 1390.61 1441.36 1373.92 1435.77C1363.92 1432.55 1355.07 1429.11 1348.27 1425.48C1345.85 1424.24 1343.56 1423.07 1341.55 1421.72C1307.79 1401.49 1309.43 1382.71 1310.07 1375.97C1310.71 1369.23 1315.57 1360.32 1326.84 1356.67C1353.63 1347.97 1443.48 1382.6 1456.72 1385.11C1464.65 1386.79 1485.33 1394.11 1492.28 1395.39C1505.6 1397.76 1516.59 1399.29 1524.11 1399.32C1528.97 1399.37 1537.57 1396.36 1547.96 1391.77C1566.08 1383.84 1642.79 1330.47 1642.79 1330.47" fill="#253D78"/>
<path d="M1652.8 1416.52C1650.68 1413.04 1650.47 1407.39 1650.47 1407.39C1653.41 1399.83 1659.93 1391.33 1662.36 1389.67C1664.79 1387.99 1667.97 1383.89 1668.73 1386.63C1669.49 1389.36 1665.85 1403.63 1661.6 1409.24C1657.36 1414.85 1652.8 1416.52 1652.8 1416.52" fill="#FFB27D"/>
<path d="M3168.41 1074.21C3189.86 1111.54 3216.84 1125.95 3216.84 1125.95H3329.05C3329.05 1125.95 3152.06 1045.74 3168.41 1074.21Z" fill="#ED7D2B"/>
<path d="M3247.92 1364.95C3250.84 1368.29 3253.37 1368.11 3251.91 1372.11C3251.91 1372.12 3251.26 1374.09 3251.26 1374.11C3248.58 1381.51 3243.51 1386.69 3233.25 1394.95C3231.94 1396 3230.6 1396.88 3229.58 1397.77C3229.32 1398.01 3227.5 1398.37 3227.24 1398.61C3227.04 1398.79 3225.45 1402.09 3225.25 1402.27C3215.67 1411.09 3217.62 1408.53 3200.42 1426.44C3180.8 1446.85 3181.38 1444.75 3177.53 1442.89C3174.27 1441.31 3172.94 1437.51 3180.26 1425.33C3180.62 1424.75 3180.96 1424.15 3181.32 1423.56C3182.3 1421.95 3183.27 1420.29 3184.23 1418.67C3192.81 1404.03 3190.6 1397.16 3188.56 1375.36C3186.93 1357.64 3161.02 1276.41 3161.02 1276.41L3198.6 1269.93C3198.6 1269.93 3209.94 1334.61 3222.41 1344.59C3229.1 1349.89 3236.57 1349.96 3242.95 1353.89C3243.41 1354.17 3243.87 1354.45 3244.29 1354.73C3247.94 1357.16 3244.99 1361.59 3247.92 1364.95" fill="#FFB27D"/>
<path d="M3254.57 1363C3257.49 1366.36 3257.87 1370.11 3256.43 1374.11C3256.43 1374.12 3256.41 1374.15 3256.41 1374.16C3253.13 1381.55 3244.5 1389.76 3234.58 1397.99C3233.27 1399.07 3232.13 1400.06 3231.11 1400.98C3230.85 1401.22 3230.57 1401.44 3230.33 1401.68C3230.13 1401.87 3229.93 1402.06 3229.73 1402.23C3220.15 1411.06 3223.75 1413.08 3206.54 1430.99C3186.92 1451.4 3173.42 1451.78 3169.57 1449.92C3166.33 1448.34 3172.93 1437.51 3180.24 1425.34C3184.08 1423.94 3201.81 1416.72 3215.22 1399.56C3227.03 1384.5 3234.9 1365.12 3242.94 1353.9C3243.4 1354.18 3243.86 1354.46 3244.28 1354.74C3247.94 1357.16 3251.63 1359.66 3254.57 1363" fill="#BC3F3F"/>
<path d="M2944.43 1337.28C2942.11 1348.88 2934.59 1345.62 2916.1 1341.1C2897.6 1336.58 2901.9 1341.02 2875.6 1338.1C2849.3 1335.2 2846.9 1331.02 2846.09 1327.11C2845.38 1323.63 2850.87 1321.29 2864.83 1319.68C2866.56 1319.48 2868.32 1319.27 2870.09 1319.05C2885.84 1317.08 2897.35 1306.92 2911.67 1298.58C2925.19 1290.68 2945.4 1258.48 2945.4 1258.48L2981.49 1261.34C2981.49 1261.34 2962.56 1290.09 2955.24 1302.6C2950.92 1309.95 2951.16 1319.67 2951.69 1327.18C2951.97 1331.26 2945.25 1333.19 2944.43 1337.28" fill="#FFB27D"/>
<path d="M2914.05 1344.68C2895.58 1340.16 2899.98 1345.53 2873.68 1342.61C2847.37 1339.7 2839.4 1329.89 2838.6 1325.98C2837.88 1322.51 2850.88 1321.29 2864.83 1319.68L2864.93 1319.95C2864.93 1319.95 2880.73 1331.14 2902.63 1331.66C2920.47 1332.09 2939.37 1326.98 2951.69 1327.18C2951.96 1331.26 2952.23 1335.44 2951.42 1339.52C2949.08 1351.13 2932.55 1349.18 2914.05 1344.68" fill="#BC3F3F"/>
<path d="M3089.66 1108.85L3123.39 1199.6L3167.41 1318.08C3167.41 1318.08 3179.36 1319.24 3190.79 1315.95C3201.34 1312.9 3213.43 1304.94 3213.43 1304.94C3213.43 1304.94 3201.2 1177.71 3178.39 1104.68C3172.54 1085.94 3165.99 1070.77 3158.78 1062.24C3123.41 1020.46 3089.66 1108.85 3089.66 1108.85" fill="#ED7D2B"/>
<path d="M3123.96 964.726C3146.04 957.6 3209.05 966.751 3272.36 979.14L3285.63 957.281L3422.35 946.604C3422.35 946.604 3467.38 1046.63 3442.75 1110.41C3436.77 1125.94 3417.18 1125.94 3417.18 1125.94C3417.18 1125.94 3336.24 1125.94 3309.82 1125.94C3241.83 1125.94 3165.91 1079.2 3156.1 1077.23C3140.02 1074.02 3133.6 1106.17 3117.54 1139.92C3101.45 1173.67 2966.44 1289.39 2966.44 1289.39C2966.44 1289.39 2945.68 1289.6 2937.13 1286.38C2927.89 1282.92 2924.53 1278.43 2924.53 1278.43C2924.53 1278.43 3074.12 980.799 3123.96 964.726Z" fill="#F99746"/>
<path d="M3286.43 768.989C3335.11 795.798 3433.86 851.372 3434.39 851.013C3434.39 851.013 3470.7 864.691 3491.29 851.013C3525.62 828.216 3544.03 766.861 3481.24 714.061C3449.93 687.729 3427.69 681.317 3424.32 639.269C3422.49 616.459 3391.29 541.173 3339.48 548.135C3335.15 548.716 3330.78 549.133 3326.43 548.992C3320.39 548.796 3310.39 549.681 3300.15 555.782C3270.82 573.239 3213.44 758.612 3286.43 768.989" fill="#233862"/>
<path d="M3327.23 746.175C3327 746.313 3351.18 754.567 3367.34 747.408C3382.54 740.69 3394.05 715.674 3393.84 715.662C3386.91 715.341 3379.31 709.297 3373.48 669.619L3370.52 670.675L3321.01 688.493C3321.01 688.493 3324.59 704.383 3326.92 719.51C3328.88 732.212 3329.92 744.378 3327.23 746.175" fill="#FFB27D"/>
<path d="M3321.01 688.491C3321.01 688.491 3324.61 704.38 3326.93 719.506C3355.36 714.388 3366.52 686.051 3370.54 670.673L3321.01 688.491Z" fill="#ED975D"/>
<path d="M3313.63 704.267C3313.63 704.267 3381.38 695.172 3375.07 653.069C3368.75 610.966 3373.25 581.434 3329.73 585.458C3286.2 589.483 3280.23 606.808 3278.92 621.375C3277.62 635.942 3295.85 705.547 3313.63 704.267Z" fill="#FFB27D"/>
<path d="M3281.39 598.289C3281.39 598.289 3324.77 635.662 3354.27 638.676C3383.78 641.69 3394.94 632.219 3394.94 632.219C3394.94 632.219 3377.55 617.784 3367.1 594.484C3364.01 587.614 3357.49 582.901 3349.97 582.255C3328.92 580.443 3288.99 579.61 3281.39 598.289" fill="#233862"/>
<path d="M3308.51 594.952C3308.51 594.952 3294 608.977 3289.43 619.37C3285.02 629.417 3283.71 653.433 3287.2 662.973C3287.2 662.973 3264.61 619.024 3277.39 597.651C3290.97 575.019 3308.51 594.952 3308.51 594.952Z" fill="#233862"/>
<path d="M3270.17 845.978C3272.22 983.121 3270.72 954.464 3285.72 967.475C3289.35 970.609 3299.49 972.477 3312.88 973.361C3354.92 976.152 3428.86 969.223 3431.66 961.45C3441.36 934.561 3434.52 926.206 3442.61 885.037C3443.46 880.661 3444.5 875.921 3445.73 870.76C3452.48 842.483 3459.03 832.865 3435.1 787.437C3413.39 746.29 3390.83 712.892 3388.81 714.099C3331.54 748.098 3326.91 719.521 3326.91 719.521C3326.91 719.521 3269.17 779.085 3270.17 845.978" fill="#BC3F3F"/>
<path d="M3123.39 1199.6L3167.41 1318.08C3167.41 1318.08 3179.36 1319.24 3190.79 1315.95C3201.34 1312.9 3213.43 1304.94 3213.43 1304.94C3213.43 1304.94 3201.2 1177.71 3178.39 1104.68L3123.39 1199.6" fill="#F99746"/>
<path d="M3326.92 719.51C3326.92 719.51 3267.99 729.501 3261.07 754.875C3254.15 780.252 3213.43 929.418 3213.43 929.418C3213.43 929.418 3243.38 934.802 3257.21 920.962C3271.07 907.122 3305.38 792.551 3305.38 792.551L3326.92 719.51Z" fill="#BC3F3F"/>
<path d="M3312.88 973.362C3354.93 976.152 3428.85 969.224 3431.66 961.452C3441.36 934.562 3434.51 926.207 3442.6 885.039L3422.33 827.926C3422.33 827.926 3425.69 891.527 3406.93 908.257C3388.2 924.984 3330.12 940.545 3321.01 954.525C3316.62 961.233 3313.73 967.959 3312.88 973.362Z" fill="#992525"/>
<path d="M3361.06 946.61C3361.06 946.61 3319.57 937.373 3312.89 941.053C3306.19 944.736 3289.82 958.143 3287.78 962.809C3285.73 967.476 3302.68 959.269 3308.19 957.791C3311.76 956.832 3321.16 960.098 3325.82 961.649C3345.39 968.175 3357.39 964.818 3357.39 964.818L3361.06 946.61Z" fill="#FFB27D"/>
<path d="M3388.84 714.066C3388.84 714.066 3444.56 717.498 3463.83 744.395C3490.99 782.255 3544.84 943.613 3513.98 965.134C3479.22 989.367 3355.79 971.473 3355.79 971.473C3355.79 971.473 3351.7 952.275 3357.4 942.989C3363.12 933.702 3455.98 918.699 3460.26 914.415C3464.57 910.128 3406.7 830.833 3406.7 817.973C3406.7 805.116 3388.84 714.066 3388.84 714.066" fill="#BC3F3F"/>
<path d="M3310.88 952.599C3310.88 952.599 3302.18 963.811 3299.34 965.152C3296.48 966.488 3294.63 966.155 3294.63 966.155L3300.5 955.611L3310.88 952.599Z" fill="#FFB27D"/>
<path d="M3312.9 941.047L3287.62 953.321C3287.62 953.321 3288.69 955.081 3291.8 954.938C3294.91 954.796 3302.76 951.927 3302.76 951.927L3312.9 941.047" fill="#FFB27D"/>
<path d="M3299.34 982.325H3099.41L3039.28 832.774H3238.9L3299.34 982.325Z" fill="#163560"/>
<path d="M3097.06 976.503H3361.06V982.33H3099.41L3097.06 976.503Z" fill="#11294A"/>
<path d="M3149.9 907.545C3148.38 902.29 3151.41 898.026 3156.69 898.026C3161.94 898.026 3167.42 902.29 3168.94 907.545C3170.44 912.803 3167.4 917.064 3162.15 917.064C3156.88 917.064 3151.39 912.803 3149.9 907.545Z" fill="white"/>
<path d="M4096.28 2287.71H265.104C262.301 2287.71 260.011 2285.41 260.011 2282.61C260.011 2279.81 262.301 2277.52 265.104 2277.52H4096.28C4099.07 2277.52 4101.36 2279.81 4101.36 2282.61C4101.36 2285.41 4099.07 2287.71 4096.28 2287.71" fill="#2E3552"/>
</svg>
