<svg width="1266" height="1258" viewBox="0 0 1266 1258" fill="none" xmlns="http://www.w3.org/2000/svg">
<path d="M1240.46 1182.35C1234.42 1185.26 1227.95 1187.44 1221.5 1189.38C1156.18 1208.96 1087.28 1207.12 1019.72 1205.49C985.8 1204.68 951.822 1203.76 917.929 1205.76C884.678 1207.72 853.103 1218.36 820.645 1225.19C764.317 1237.04 706.246 1236.53 649.035 1232.32C617.441 1230.01 536.788 1248.05 527.069 1204.47C525.302 1196.55 526.475 1187.47 521.222 1181.15C516.904 1175.96 509.56 1174.35 502.781 1173.14C456.704 1164.95 409.027 1159.18 362.128 1159.64C312.085 1160.11 261.538 1166.35 211.927 1157.07C203.928 1155.58 195.444 1153.36 190.181 1147.35C172.358 1126.97 210.274 1118.21 223.475 1117.42C460.661 1103.31 698.451 1134.26 936.004 1128.25C976.38 1127.22 1016.95 1125.04 1057.3 1128.25C1092.92 1131.1 1128.37 1140.79 1164.26 1139.31C1188.68 1138.3 1212.57 1130.68 1237.14 1131.13C1267.21 1131.68 1276.34 1155.99 1252.23 1175.08C1248.59 1177.93 1244.64 1180.37 1240.46 1182.35Z" fill="#E1E7FF"/>
<path d="M3.36012 603.102C3.6768 606.146 4.02674 609.187 4.40993 612.227C5.04329 617.336 5.73996 622.432 6.49999 627.518C6.95601 630.565 7.43897 633.605 7.94883 636.639C14.8414 677.965 26.3321 718.456 42.7488 757.108C52.6331 780.412 64.4667 802.84 78.1234 824.153C79.4187 826.176 80.7313 828.187 82.0614 830.185C86.2225 836.446 90.5214 842.574 94.9581 848.569C96.4497 850.602 97.9697 852.611 99.4993 854.611C163.351 938.005 253.529 995.079 353.549 1027.92C357.238 1029.14 360.94 1030.32 364.655 1031.45C372.217 1033.79 379.832 1035.99 387.499 1038.05C475.506 1061.73 569.46 1067.57 658.778 1056.91C727.993 1048.66 806.912 1033.21 867.881 997.924C950.245 950.251 1021.63 881.207 1076.09 803.418C1160.17 683.3 1142.05 546.988 1064.31 439.33C1045.34 413.215 1023.54 389.284 999.295 367.977C912.932 291.779 806.889 243.783 713.946 176.791C683.707 154.993 659.443 125.518 629.868 103.387C599.438 80.5858 558.487 66.6915 522.067 57.2481C446.947 37.7723 366.085 39.7389 292.476 64.6916C217.964 89.9532 157.57 135.631 111.494 193.579C104.048 202.933 96.9833 212.592 90.2982 222.555C87.8281 226.238 85.4086 229.957 83.0399 233.713C54.6147 278.773 33.5476 329.192 19.9145 382.024C18.8695 386.08 17.8688 390.15 16.9124 394.232C16.5657 395.657 16.2332 397.124 15.9006 398.573C15.3085 401.192 14.7321 403.813 14.1716 406.435C13.3039 410.498 12.4758 414.57 11.6872 418.652C-0.0410023 479.289 -3.18564 541.82 3.36012 603.102Z" fill="#E1E7FF"/>
<path d="M1135.47 41.582H982.77V194.282H1135.47V41.582Z" fill="#F2F4FF"/>
<path d="M968.79 41.582H816.09V194.282H968.79V41.582Z" fill="#F2F4FF"/>
<path d="M802.105 41.582H649.406V194.282H802.105V41.582Z" fill="#F2F4FF"/>
<path d="M635.421 41.582H482.721V194.282H635.421V41.582Z" fill="#F2F4FF"/>
<path d="M468.741 41.582H316.042V194.282H468.741V41.582Z" fill="#F2F4FF"/>
<path d="M1135.47 208.262H982.77V360.961H1135.47V208.262Z" fill="#F2F4FF"/>
<path d="M968.79 208.262H816.09V360.961H968.79V208.262Z" fill="#F2F4FF"/>
<path d="M802.105 208.262H649.406V360.961H802.105V208.262Z" fill="#F2F4FF"/>
<path d="M635.421 208.262H482.721V360.961H635.421V208.262Z" fill="#F2F4FF"/>
<path d="M468.741 208.262H316.042V360.961H468.741V208.262Z" fill="#F2F4FF"/>
<path d="M1135.47 374.946H982.77V527.646H1135.47V374.946Z" fill="#F2F4FF"/>
<path d="M968.79 374.946H816.09V527.646H968.79V374.946Z" fill="#F2F4FF"/>
<path d="M802.105 374.946H649.406V527.646H802.105V374.946Z" fill="#F2F4FF"/>
<path d="M635.421 374.946H482.721V527.646H635.421V374.946Z" fill="#F2F4FF"/>
<path d="M468.741 374.946H316.042V527.646H468.741V374.946Z" fill="#F2F4FF"/>
<path d="M1135.47 541.625H982.77V694.325H1135.47V541.625Z" fill="#F2F4FF"/>
<path d="M968.79 541.625H816.09V694.325H968.79V541.625Z" fill="#F2F4FF"/>
<path d="M802.105 541.625H649.406V694.325H802.105V541.625Z" fill="#F2F4FF"/>
<path d="M635.421 541.625H482.721V694.325H635.421V541.625Z" fill="#F2F4FF"/>
<path d="M468.741 541.625H316.042V694.325H468.741V541.625Z" fill="#F2F4FF"/>
<path d="M1135.47 708.31H982.77V861.009H1135.47V708.31Z" fill="#F2F4FF"/>
<path d="M968.79 708.31H816.09V861.009H968.79V708.31Z" fill="#F2F4FF"/>
<path d="M802.105 708.31H649.406V861.009H802.105V708.31Z" fill="#F2F4FF"/>
<path d="M635.421 708.31H482.721V861.009H635.421V708.31Z" fill="#F2F4FF"/>
<path d="M468.741 708.31H316.042V861.009H468.741V708.31Z" fill="#F2F4FF"/>
<path d="M1135.47 874.994H982.77V1027.69H1135.47V874.994Z" fill="#F2F4FF"/>
<path d="M968.79 874.994H816.09V1027.69H968.79V874.994Z" fill="#F2F4FF"/>
<path d="M802.105 874.994H649.406V1027.69H802.105V874.994Z" fill="#F2F4FF"/>
<path d="M635.421 874.994H482.721V1027.69H635.421V874.994Z" fill="#F2F4FF"/>
<path d="M468.741 874.994H316.042V1027.69H468.741V874.994Z" fill="#F2F4FF"/>
<path d="M929.581 38.7793C960.206 57.8846 986.954 83.1651 1007.22 113.191C1016.5 126.967 1024.61 142.167 1026.11 158.674C1028.49 184.672 1013.29 210.409 991.381 224.602C893.19 288.179 779.309 165.253 754.304 78.5431C736.59 17.1516 775.034 -7.35935 831.884 1.89403C866.569 7.60653 899.776 20.1436 929.581 38.7793Z" fill="#E1E7FF"/>
<path d="M11.7206 418.666C-0.0409146 479.288 -3.18553 541.82 3.36024 603.102C3.67692 606.145 4.02686 609.187 4.41004 612.227C5.0434 617.335 5.74008 622.432 6.50011 627.518C6.95613 630.564 7.43909 633.604 7.94894 636.638C14.8415 677.965 26.3322 718.456 42.7489 757.108C52.6332 780.411 64.4668 802.839 78.1236 824.152C79.4188 826.176 80.7314 828.187 82.0615 830.185C86.2226 836.446 90.5215 842.573 94.9582 848.568C96.4498 850.601 97.9699 852.611 99.4994 854.61C163.352 938.005 253.529 995.078 353.549 1027.92C357.239 1029.14 360.941 1030.32 364.655 1031.45C372.218 1033.79 379.832 1035.99 387.499 1038.05V193.578H111.513C104.068 202.933 97.0024 212.592 90.3173 222.554C87.8472 226.237 85.4278 229.957 83.059 233.713C54.6338 278.773 33.5667 329.191 19.9337 382.023C18.8886 386.08 17.8879 390.149 16.9316 394.231C16.5848 395.656 16.2523 397.124 15.9198 398.573C15.3276 401.192 14.7512 403.812 14.1907 406.434C13.3325 410.507 12.5091 414.584 11.7206 418.666Z" fill="white"/>
<path d="M3.36024 603.103C3.67692 606.146 4.02686 609.188 4.41004 612.228C5.0434 617.336 5.74008 622.433 6.50011 627.519C6.95613 630.565 7.43909 633.605 7.94894 636.639C14.8415 677.966 26.3322 718.456 42.7489 757.109C52.6332 780.412 64.4668 802.84 78.1235 824.153C79.4188 826.176 80.7314 828.187 82.0615 830.186C86.2226 836.446 90.5215 842.574 94.9582 848.569C96.4498 850.602 97.9698 852.611 99.4994 854.611C163.352 938.006 253.529 995.079 353.549 1027.92C357.239 1029.14 360.941 1030.32 364.655 1031.45V222.569H90.3315C87.8614 226.252 85.442 229.972 83.0733 233.728C54.6481 278.788 33.581 329.206 19.9479 382.038C18.9029 386.095 17.9022 390.164 16.9458 394.246C16.599 395.671 16.2665 397.139 15.934 398.588C15.3418 401.207 14.7654 403.827 14.2049 406.449C13.3372 410.512 12.5091 414.585 11.7206 418.667C-0.0409146 479.289 -3.18553 541.82 3.36024 603.103Z" fill="#B6C7FF"/>
<path d="M3.36024 603.103C3.67692 606.146 4.02686 609.188 4.41004 612.228C5.0434 617.336 5.74008 622.433 6.50011 627.519C6.95613 630.565 7.43909 633.605 7.94894 636.639C14.8415 677.966 26.3322 718.456 42.7489 757.109C52.6332 780.412 64.4668 802.84 78.1235 824.153C79.4188 826.176 80.7314 828.187 82.0615 830.186C86.2226 836.446 90.5215 842.574 94.9582 848.569C96.4498 850.602 97.9698 852.611 99.4994 854.611C163.352 938.006 253.529 995.079 353.549 1027.92V233.728H83.0733C54.6481 278.788 33.581 329.206 19.9479 382.038C18.9029 386.095 17.9022 390.164 16.9458 394.246C16.599 395.671 16.2665 397.139 15.934 398.588C15.3418 401.207 14.7654 403.827 14.2049 406.449C13.3372 410.512 12.5091 414.585 11.7206 418.667C-0.0409146 479.289 -3.18553 541.82 3.36024 603.103Z" fill="#D1DBFF"/>
<path d="M353.549 418.666V406.449H367.648V394.26H16.9459C16.5992 395.685 16.2666 397.153 15.9341 398.601C15.3419 401.22 14.7656 403.841 14.205 406.463C13.3373 410.526 12.5092 414.599 11.7207 418.681L353.549 418.666Z" fill="#B6C7FF"/>
<path d="M4.41016 612.228C5.04352 617.336 5.74019 622.433 6.50022 627.518C6.95624 630.565 7.4392 633.605 7.94906 636.639H353.549V627.518H367.648V612.228H4.41016Z" fill="#B6C7FF"/>
<path d="M82.0615 830.199C86.2227 836.46 90.5216 842.588 94.9583 848.583C96.4498 850.616 97.9699 852.625 99.4995 854.625H353.549L364.655 849.874L367.648 848.597V830.213L82.0615 830.199Z" fill="#B6C7FF"/>
<path d="M15.9532 398.588C15.361 401.207 14.7846 403.827 14.2241 406.449H367.667V382.038H19.9529C18.9078 386.095 17.9071 390.164 16.9507 394.246C16.5992 395.685 16.2667 397.139 15.9532 398.588Z" fill="white"/>
<path d="M3.36035 603.103C3.67703 606.146 4.02697 609.188 4.41015 612.228C5.04351 617.336 5.74019 622.433 6.50022 627.519H367.648V603.103H3.36035Z" fill="white"/>
<path d="M78.1235 824.152C79.4188 826.176 80.7314 828.187 82.0615 830.185C86.2226 836.446 90.5215 842.574 94.9582 848.568H367.648V824.152H78.1235Z" fill="white"/>
<path d="M346.875 1108.65C346.875 1108.65 316.892 1100.31 310.033 1104.96C303.173 1109.61 304.057 1089.09 308.897 1082.16C313.738 1075.22 325.932 1074.73 325.932 1074.73C325.932 1074.73 335.703 1079.98 352.48 1079.9C369.258 1079.83 346.875 1108.65 346.875 1108.65Z" fill="#FFC890"/>
<path d="M892.036 1070.6C892.036 1070.6 891.404 1092.01 897.261 1097.85C903.118 1103.7 881.015 1116.38 873.287 1112.95C865.558 1109.51 862.732 1097.65 862.732 1097.65C862.732 1097.65 866.019 1087.05 862.732 1070.6C859.445 1054.15 892.036 1070.6 892.036 1070.6Z" fill="#FFC890"/>
<path d="M850.614 1127.87C850.632 1129.61 850.954 1131.33 851.564 1132.96L968.495 1134.62C968.495 1134.62 971.464 1133.67 972.609 1128.58C972.91 1127.18 973.058 1125.74 973.051 1124.31C973.103 1115.47 929.216 1107.37 914.718 1101.06C895.979 1092.89 897.29 1097.83 897.29 1097.83C897.29 1097.83 880.916 1103.59 862.76 1097.63C862.76 1097.63 856.329 1087.27 851.655 1117.61C850.918 1120.98 850.569 1124.42 850.614 1127.87Z" fill="#454B6B"/>
<path d="M850.614 1127.87C850.632 1129.61 850.954 1131.33 851.564 1132.96L968.495 1134.62C968.495 1134.62 971.464 1133.67 972.609 1128.58L850.614 1127.87Z" fill="#20307B"/>
<path d="M914.504 1111.23C914.7 1111.24 914.893 1111.18 915.045 1111.06C915.196 1110.93 915.295 1110.76 915.321 1110.56C915.543 1107.68 916.568 1104.91 918.281 1102.59C918.342 1102.51 918.386 1102.42 918.41 1102.33C918.434 1102.24 918.437 1102.14 918.419 1102.05C918.401 1101.95 918.362 1101.86 918.305 1101.78C918.249 1101.71 918.175 1101.64 918.091 1101.6C917.911 1101.49 917.699 1101.44 917.49 1101.47C917.282 1101.5 917.091 1101.61 916.951 1101.76C915.053 1104.3 913.922 1107.32 913.692 1110.48C913.692 1110.58 913.712 1110.67 913.751 1110.77C913.79 1110.86 913.847 1110.94 913.918 1111.01C913.99 1111.08 914.075 1111.14 914.168 1111.17C914.262 1111.21 914.361 1111.23 914.461 1111.23L914.504 1111.23Z" fill="white"/>
<path d="M925.582 1112.96C925.777 1112.98 925.97 1112.92 926.123 1112.79C926.275 1112.67 926.375 1112.49 926.404 1112.3C926.708 1107.72 928.779 1105.78 928.779 1105.76C928.851 1105.7 928.908 1105.62 928.946 1105.53C928.985 1105.45 929.003 1105.35 929 1105.26C928.997 1105.16 928.974 1105.07 928.93 1104.98C928.887 1104.9 928.826 1104.82 928.75 1104.76C928.588 1104.63 928.385 1104.55 928.175 1104.55C927.966 1104.55 927.762 1104.63 927.601 1104.76C927.496 1104.85 925.112 1107.04 924.75 1112.2C924.752 1112.3 924.773 1112.39 924.812 1112.49C924.851 1112.58 924.908 1112.66 924.98 1112.73C925.051 1112.8 925.136 1112.85 925.229 1112.89C925.321 1112.93 925.42 1112.95 925.52 1112.95L925.582 1112.96Z" fill="white"/>
<path d="M903.289 1108.24C903.486 1108.25 903.679 1108.19 903.83 1108.07C903.982 1107.94 904.08 1107.76 904.106 1107.57C904.581 1099.83 909.598 1099.58 909.65 1099.58C909.75 1099.59 909.85 1099.57 909.943 1099.54C910.037 1099.5 910.123 1099.45 910.196 1099.38C910.269 1099.31 910.327 1099.23 910.368 1099.14C910.409 1099.05 910.431 1098.95 910.434 1098.85C910.409 1098.65 910.307 1098.46 910.149 1098.33C909.991 1098.21 909.79 1098.15 909.588 1098.16C909.317 1098.16 903.004 1098.47 902.463 1107.49C902.464 1107.59 902.485 1107.69 902.525 1107.78C902.565 1107.87 902.622 1107.96 902.694 1108.03C902.766 1108.1 902.851 1108.15 902.945 1108.19C903.038 1108.22 903.137 1108.24 903.237 1108.24L903.289 1108.24Z" fill="white"/>
<path d="M504.382 459.015C507.608 466.682 517.265 470.211 529.083 470.33C552.231 470.567 583.711 457.775 591.786 437.511C603.961 406.891 575.778 383.981 551.661 390.992C551.661 390.992 549.124 393.016 545.21 396.426C530.613 409.143 496.848 441.135 504.382 459.015Z" fill="#6192DE"/>
<path d="M510.353 458.549C511.507 462.236 518.904 466.739 529.088 470.33C552.236 470.567 583.715 457.775 591.79 437.511C603.965 406.891 575.782 383.981 551.666 390.992C551.666 390.992 549.129 393.016 545.215 396.426C545.215 396.426 551.903 402.915 540.203 415.071C528.504 427.227 506.534 446.394 510.353 458.549Z" fill="#307AC4"/>
<path d="M607.39 515.542C627.008 514.468 654.692 505.87 662.753 489.743C666.117 483.027 666.482 476.395 665.713 470.268C664.644 461.717 661.343 454.117 660.868 448.635C660.065 439.235 566.277 422.837 566.277 422.837C566.154 423.312 561.527 433.216 556.121 443.875C549.894 456.178 542.659 469.527 540.213 470.671C535.624 472.818 587.777 516.62 607.39 515.542Z" fill="#FFBB7D"/>
<path d="M387.846 619.006C387.846 619.006 517.099 691.295 538.603 686.459C545.699 684.863 571.925 676.032 603.913 664.888C668.81 642.306 757.425 610.232 758.147 609.871C759.221 609.335 769.168 657.706 769.168 657.706C769.168 657.706 816.465 668.456 846.833 644.006C846.833 644.006 844.506 638.715 840.444 630.055C824.294 595.588 780.82 507.619 748.058 486.205C746.57 485.219 745.013 484.342 743.398 483.583C733.199 478.833 723.419 474.861 714.493 471.536H714.455C687.426 461.48 668.155 457.533 668.155 457.533L665.461 468.335C665.461 468.335 649.078 498.114 619.783 498.916C590.489 499.719 527.074 467.698 551.257 453.348L553.419 449.234C553.419 449.234 548.303 444.636 535.135 455.652C533.273 457.21 530.551 458.744 527.164 460.34H527.131C521.583 462.948 514.244 465.727 505.974 469.057L505.594 469.213C498.977 471.883 491.775 474.914 484.412 478.472H484.37C466.965 486.917 448.686 498.422 435.177 515.556C404.234 554.783 384.62 614.436 387.846 619.006Z" fill="#FEBD57"/>
<path d="M484.322 478.476H484.365L505.546 469.218L505.926 469.061L527.083 460.345H527.116C527.116 460.345 562.315 499.14 576.927 542.998C591.538 586.857 602.811 594.462 640.266 594.153C677.721 593.844 721.874 597.507 720.953 573.143C720.031 548.779 714.407 471.55 714.407 471.55H714.445L748.01 486.219C748.319 486.879 768.288 528.814 771.176 577.684C774.084 626.939 804.062 632.786 817.158 635.537C830.255 638.287 840.396 630.069 840.396 630.069C844.458 638.729 846.785 644.02 846.785 644.02C842.634 647.339 838.086 650.13 833.247 652.329C812.261 661.948 788.215 660.504 776.425 658.946C771.851 658.342 769.12 657.72 769.12 657.72C769.12 657.72 759.173 609.349 758.099 609.886C757.377 610.247 668.762 642.32 603.865 664.902C546.141 661.938 500.786 656.827 499.318 649.659C499.318 649.659 510.115 604.176 514.428 613.006C518.742 621.837 535.529 623.053 541.291 614.835C547.053 606.617 544.616 575.841 538.232 549.971C531.847 524.102 499.831 473.712 484.322 478.476Z" fill="#FF8C3E"/>
<path d="M556.121 443.871C556.629 444.346 589.263 473.887 610.231 481.26C628.913 487.824 652.598 479.873 658.236 477.46C658.635 477.289 658.949 477.141 659.158 477.027L658.987 477.136C659.219 477.041 662.787 475.46 665.713 470.272C664.644 461.722 661.343 454.122 660.868 448.64C660.065 439.239 566.277 422.842 566.277 422.842C566.154 423.331 561.513 433.211 556.121 443.871Z" fill="#FF8C5A"/>
<path d="M707.472 339.2C709.206 349.413 710.906 358.462 709.486 368.998C707.819 381.306 703.439 392.925 699.211 404.515C695.069 415.883 695.772 428.456 691.065 439.667C686.861 449.68 678.743 457.485 670.449 464.491C653.253 479.022 631.103 481.806 610.563 472.724C599.276 467.738 589.045 460.644 580.418 451.823C571.502 442.674 561.289 431.264 562.928 417.512C563.242 414.876 563.992 412.092 563.156 409.508C562.206 406.534 559.66 403.964 558.002 401.371C550.454 389.538 553.01 374.295 559.632 362.59C566.833 349.865 579.397 341.091 592.579 335.362C606.274 329.41 621.888 324.912 636.732 323.192C652.655 321.335 669.409 322.328 685.184 325.092C691.535 326.213 698.195 329.439 700.489 335.471C701.672 338.578 701.534 342.012 702.061 345.295C704.148 343.295 705.936 341.006 707.372 338.497L707.472 339.2Z" fill="#FFC890"/>
<path d="M699.211 404.515C699.211 404.515 692.723 374.618 687.669 362.59C682.614 350.563 674.05 344.573 667.005 349.803C659.961 355.033 645.002 363.607 632.604 367.891C621.08 371.872 595.648 386.118 590.594 393.614C585.539 401.109 586.409 386.118 586.409 386.118C586.409 386.118 586.062 372.314 577.521 370.152C568.98 367.991 562.705 371.155 560.791 376.722C558.876 382.289 558.202 394.397 563.166 409.498C563.166 409.498 540.93 388.716 555.395 368.324C569.859 347.931 579.853 354.98 586.594 352.648C593.334 350.316 687.773 314.304 695.345 330.37C702.917 346.435 701.264 373.012 700.931 380.009C700.599 387.006 700.627 399.96 699.211 404.515Z" fill="#FF8C5A"/>
<path d="M684.229 344.787C684.229 344.787 699.549 376.527 700.233 412.966C700.917 449.405 711.211 376 709.481 368.994C707.752 361.987 717.652 336.882 704.361 331.381C691.07 325.881 684.229 344.787 684.229 344.787Z" fill="#361029"/>
<path d="M667.005 341.495C667.005 341.495 650.555 353.598 620.453 367.032C590.351 380.465 588.959 397.827 586.413 394.82C583.867 391.813 586.161 373.658 586.161 373.658C586.161 373.658 592.664 337.851 609.798 329.282C626.932 320.713 667.005 341.495 667.005 341.495Z" fill="#361029"/>
<path d="M562.544 408.036C562.544 408.036 557.242 398.948 556.459 388.56C555.784 379.682 559.147 369.559 563.859 367.184C574.068 362.082 586.161 373.635 586.161 373.635C586.161 373.635 615.451 337.623 663.02 341.12C710.588 344.616 709.481 368.97 709.481 368.97C712.099 372.827 715.372 369.578 716.478 362.172C718.431 349.109 713.628 323.131 686.661 300.42C672.568 288.544 639.316 272.018 602.992 286.939C577.374 297.465 553.247 318.765 548.321 337.794C548.022 338.963 547.737 340.112 547.476 341.243C535.695 391.885 562.544 408.036 562.544 408.036Z" fill="#6192DE"/>
<path d="M348.115 1120.56L409.003 1133.06C421.211 1135.56 462.1 1140.84 474.555 1141.51L606.331 1146.53L767.158 914.624L775.357 902.797C775.357 902.797 823.186 903.609 840.121 896.621C840.121 896.621 839.983 966.112 843.987 1018.58C845.693 1040.93 848.144 1060.2 851.673 1069.68C851.673 1069.68 890.91 1078.55 908.106 1070.48C908.106 1070.48 924.157 1021.53 938.892 975.37C948.349 945.743 957.265 917.261 961.047 903.609C970.723 868.671 991.681 781.605 978.247 764.946C965.555 749.204 906.348 733.946 863.359 733.894C860.825 733.894 858.363 733.943 855.972 734.041C833.646 734.991 812.94 714.907 798.272 695.265C784.553 676.882 776.103 658.898 776.483 658.945C777.276 659.05 769.709 560.711 757.354 522.548C744.998 484.385 743.378 481.435 734.781 475.255C729.555 471.488 722.126 466.733 716.312 465.631C712.588 464.919 709.514 465.707 708.08 469.218L710.023 469.911C710.023 469.911 717.58 460.207 720.535 482.514C723.489 504.82 733.432 583.821 728.871 591.345C724.392 598.722 599.699 601.971 591.368 591.953C591.216 591.78 591.099 591.58 591.021 591.364C587.254 580.615 545.823 463.437 520.343 459.689C507.46 457.789 497.371 460.781 491.072 465.137C484.897 469.384 482.37 474.937 484.35 478.519C484.35 478.519 484.322 467.75 494.141 470.975C503.959 474.201 566.049 564.222 553.409 611.253C540.768 658.285 499.385 649.678 499.385 649.678C499.385 649.678 492.392 664.731 489.979 664.997C487.566 665.263 486.806 660.964 483.685 658.276C483.685 658.276 449.132 683.537 446.449 694.287C443.765 705.036 458.001 756.899 458.001 756.899C458.001 756.899 440.53 851.49 451.55 910.33C462.571 969.171 482.726 1062.43 485.41 1073.99C484.935 1073.73 462.523 1068.12 418.237 1076.95C369.899 1086.58 349.359 1074.1 349.359 1074.1C347.332 1082.06 346.003 1090.19 345.388 1098.38C344.847 1106.35 345.288 1114.69 348.115 1120.56Z" fill="#1A4EA2"/>
<path d="M591.358 591.934C602.08 607.7 720.953 606.769 732.914 595.63C745.008 584.339 728.074 499.676 724.316 481.26C722.022 470.021 718.616 466.586 716.326 465.612C712.602 464.9 709.529 465.688 708.094 469.199L710.037 469.892C710.037 469.892 717.595 460.188 720.549 482.495C723.504 504.801 733.446 583.802 728.886 591.326C724.383 598.703 599.69 601.952 591.358 591.934Z" fill="#20307B"/>
<path d="M457.982 756.861C457.982 756.861 440.511 851.452 451.531 910.292C462.552 969.133 482.707 1062.39 485.391 1073.95C490.554 1086.09 509.617 1110.4 511.099 1112.27C510.429 1111.35 505.912 1104.72 497.755 1081.47C488.882 1056.21 516.281 951.139 523.283 885.843C530.285 820.547 616.8 801.461 624.054 762.499C631.307 723.538 534.033 711.706 529.729 700.961C525.425 690.216 534.033 662.798 557.679 626.52C581.326 590.243 542.897 525.208 517.906 488.475C505.774 470.638 496.934 465.579 491.053 465.09C484.878 469.337 482.351 474.89 484.331 478.471C484.331 478.471 484.303 467.702 494.122 470.928C503.94 474.153 566.03 564.174 553.39 611.206C540.749 658.237 499.366 649.63 499.366 649.63C499.366 649.63 492.373 664.683 489.96 664.949C487.547 665.216 486.787 660.917 483.666 658.228C483.666 658.228 449.113 683.49 446.43 694.239C443.746 704.989 457.982 756.861 457.982 756.861Z" fill="#20307B"/>
<path d="M348.115 1120.56L409.003 1133.06C421.211 1135.56 462.101 1140.84 474.556 1141.51L606.331 1146.53C606.331 1146.53 607.685 931.274 588.755 934.238C586.727 934.557 580.96 1110.2 549.803 1126.62C521.91 1141.3 375.761 1105.96 345.398 1098.38C344.847 1106.35 345.289 1114.69 348.115 1120.56Z" fill="#20307B"/>
<path d="M694.281 866.861C694.281 866.861 730.582 897.562 767.172 914.605L775.371 902.777C775.371 902.777 823.201 903.59 840.135 896.602C856.581 816.889 892.093 810.999 892.093 810.999C924.57 780.783 694.281 866.861 694.281 866.861Z" fill="#20307B"/>
<path d="M843.978 1018.56C845.683 1040.91 848.135 1060.18 851.664 1069.66C851.664 1069.66 890.901 1078.53 908.096 1070.46C908.096 1070.46 924.147 1021.51 938.882 975.352C917.943 1010.13 885.105 1044.31 843.978 1018.56Z" fill="#20307B"/>
<path d="M653.523 696.755L496.826 802.608L504.946 814.63L661.644 708.777L653.523 696.755Z" fill="#361029"/>
<path d="M643.701 682.312L646.247 686.07L653.52 696.848L661.642 708.875L671.461 723.406C672.432 724.843 673.935 725.836 675.638 726.167C677.341 726.497 679.105 726.138 680.543 725.168L697.022 714.029C698.459 713.06 699.451 711.559 699.782 709.858C700.112 708.156 699.753 706.393 698.784 704.956L671.005 663.858C670.524 663.146 669.908 662.536 669.191 662.062C668.474 661.589 667.671 661.261 666.828 661.098C665.984 660.934 665.117 660.939 664.276 661.111C663.434 661.283 662.634 661.619 661.923 662.1L645.444 673.234C644.01 674.208 643.021 675.711 642.695 677.413C642.368 679.115 642.73 680.877 643.701 682.312Z" fill="#D03E48"/>
<path d="M643.701 682.312L646.247 686.07C650.18 679.524 658.598 673.999 665.59 672.859C674.055 671.482 697.022 714.029 697.022 714.029C698.459 713.06 699.451 711.559 699.782 709.858C700.112 708.156 699.753 706.393 698.784 704.956L671.005 663.858C670.524 663.146 669.908 662.536 669.191 662.062C668.474 661.589 667.671 661.261 666.828 661.098C665.984 660.934 665.117 660.939 664.276 661.111C663.434 661.283 662.634 661.619 661.923 662.1L645.444 673.234C644.01 674.208 643.021 675.711 642.695 677.413C642.368 679.115 642.73 680.877 643.701 682.312Z" fill="#E86471"/>
<path d="M746.086 793.656C754.024 800.71 841.347 805.66 855.925 769.834C860.58 758.381 862.666 745.75 863.35 733.875C860.816 733.875 858.354 733.924 855.963 734.022C833.637 734.972 812.931 714.888 798.262 695.246L788.434 696.609C788.434 696.609 760.199 726.165 751.815 745.133C743.431 764.1 738.144 786.597 746.086 793.656Z" fill="#20307B"/>
<path d="M345.355 754.182C351.336 776.983 496.625 765.017 517.92 759.037C538.821 753.166 541.263 757.023 541.339 757.165C550.198 776.589 567.213 787.419 571.692 787.044C576.172 786.669 575.055 780.698 583.644 781.819C592.232 782.94 593.358 774.727 599.704 774.351C606.05 773.976 613.898 771.734 617.152 763.146C617.817 761.398 617.261 759.274 615.959 757.004C610.858 748.092 594.251 736.872 594.251 736.872L602.83 731.077C601.921 730.514 600.951 730.058 599.937 729.719C591.458 726.75 577.298 728.697 568.329 725.049C558.249 720.936 465.25 698.154 465.25 698.154C467.863 694.387 479.339 674.716 484.336 666.114C485.761 663.639 486.678 662.076 486.678 662.076C470.01 624.497 387.846 619.006 387.846 619.006C387.846 619.006 383.632 628.763 377.846 643.123C366.508 671.272 349.103 717.074 345.512 741.532C344.719 746.929 344.6 751.28 345.355 754.182Z" fill="#FFC890"/>
<path d="M465.255 698.154C465.255 698.154 442.097 693.342 422.299 703.032C402.5 712.723 417.819 692.776 432.749 686.687C447.679 680.597 470.565 689.537 470.565 689.537L465.255 698.154Z" fill="#FF8C5A"/>
<path d="M377.846 643.123C387.204 639.84 398.837 637.218 412.888 636.525C458.386 634.282 484.336 666.114 484.336 666.114C485.761 663.639 486.678 662.076 486.678 662.076C470.009 624.497 387.845 619.006 387.845 619.006C387.845 619.006 383.618 628.763 377.846 643.123Z" fill="#FF8C5A"/>
<path d="M345.355 754.183C351.336 776.983 496.625 765.018 517.92 759.037C538.821 753.166 541.263 757.023 541.339 757.166C541.239 756.876 538.013 748.696 511.493 752.444C484.517 756.244 366.726 767.687 345.517 741.519C344.719 746.929 344.6 751.28 345.355 754.183Z" fill="#FF8C5A"/>
<path d="M590.612 736.687C590.612 739.936 615.969 757.004 615.969 757.004C610.867 748.093 594.26 736.873 594.26 736.873L602.839 731.077C601.931 730.514 600.96 730.058 599.946 729.719C599.946 729.719 590.612 733.424 590.612 736.687Z" fill="#FF8C5A"/>
<path d="M811.202 785.153H588.157V1209.6H811.202V785.153Z" fill="#FF8C3E"/>
<path opacity="0.39" d="M536.935 860.572L537.215 926.072L536.503 954.906V816.832L536.935 860.572ZM536.712 1257.85H536.503V1254.52L536.712 1257.85ZM553.841 1119.04L558.639 1078.72L557.594 1043.31L557.57 1023.66L561.028 980.909L563.674 950.982L559.37 920.396L553.974 900.393L552.772 866.068L557.598 836.474L555.057 778.85L556.24 757.17H557.95L556.758 778.869L559.309 836.493V836.641L554.482 866.244L555.622 899.842L561.009 919.854L565.389 950.911L562.719 981.146L559.261 1023.76L559.29 1043.26L560.325 1078.84L555.499 1119.5L552.444 1132.7L553.233 1166.28L555.504 1207.35L557.323 1257.84H555.646L553.827 1207.48L551.552 1166.4L550.763 1132.61V1132.44L553.841 1119.04ZM539.899 1137.28L543.391 1103.86L549.998 1064.39L545.039 1026.92L550.53 987.616L552.102 955.139L548.663 911.323L543.438 880.732V880.58L545.528 839.391L543.419 814.481L547.504 783.13L543.775 757.194H545.481L549.186 782.925L549.21 783.111L545.115 814.557L547.2 839.362L545.129 880.433L550.354 910.995L553.813 955.115L552.231 987.891L546.778 1026.94L551.746 1064.47L545.096 1104.25L541.638 1137.38L545.771 1214.53L545.324 1257.6V1257.88H543.638V1257.67L544.084 1214.59L539.899 1137.28ZM583.44 1024.66L585.734 966.169L588.161 936.604L584.751 912.61L582.238 889.097L579.682 872.248L583.311 834.669L591.933 783.21L591.8 757.179H593.472L593.615 783.429L584.969 835.025L581.383 872.172L583.891 888.745L586.413 912.278L589.833 936.366V936.523L587.387 966.335L585.097 1024.67L587.995 1122.27L583.777 1147.24L585.805 1173.2L588.385 1214.71L591.8 1238.56L592.85 1257.27V1257.85H591.163V1257.37L590.128 1238.81L586.708 1214.96L584.124 1173.37L582.062 1147.1L586.294 1122.07L583.44 1024.66ZM573.754 968.705L575.065 930.229L573.816 914.002L570.015 901.405L570.419 870.015L571.222 849.528L577.036 817.73L579.107 773.748L580.57 757.203H582.261L580.784 773.933L578.694 818.039L572.889 849.803L572.115 870.058L571.716 901.001L575.436 913.351L576.751 930.153L575.431 968.967L572.609 987.611L572.386 1000.35L574.884 1068.56L575.934 1105.51L573.412 1130.28L577.487 1157.04V1236L577.929 1257.85H576.248L575.811 1236.03V1157.24L571.702 1130.35L574.257 1105.41L573.198 1068.66L571.54 1024.75L570.695 1000.37L570.932 987.383L573.754 968.705ZM658.041 1212L661.157 1208.17L667.129 1173.8L671.152 1063.92L672.197 980.486L669.912 943.159L669.062 904.488L665.851 874.595L661.756 859.214L661.428 833.268L659.856 807.394L660.568 766.713L660.782 757.179H662.469L662.25 766.765L661.538 807.337L663.11 833.168L663.39 858.686L667.475 874.096L670.734 904.307L671.584 943.045L673.869 980.419L672.829 1063.98L668.791 1174.08L662.692 1209.27L659.709 1212.93L659.424 1234.39L660.649 1257.85H658.925L657.742 1234.45L658.041 1212ZM559.893 1125.24L565.959 1080.99L567.626 1081.18L567.469 1118.85L568.866 1150.92L569.341 1178.37L569.816 1196.1L569.113 1216.52L573.136 1257.85H571.46L567.441 1216.61L568.139 1196.1L567.664 1178.44L567.189 1151.01L565.788 1118.91L565.897 1093.93L561.555 1125.46L561.299 1141.47L562.8 1201.53L564.064 1226.74L566.757 1257.85H565.075L562.391 1226.93L561.123 1201.64L559.636 1141.47L559.893 1125.24ZM742.657 1074.32L749.696 1000.91L749.986 953.842L750.646 904.217V861.304L751.938 815.939L750.632 774.308L750.817 757.179H752.494L752.314 774.28L753.615 815.934L752.323 861.337V904.236L751.658 953.866L751.364 1001.05L744.305 1074.68L737.455 1113.66L737.74 1174.52L737.978 1242.56L738.177 1257.84H736.496L736.296 1242.58L736.063 1174.53L735.774 1113.55V1113.44L742.657 1074.32ZM621.831 1098.07L620.662 1041.95L620.306 1001.01L624.918 960.193L627.768 841.642L629.193 795.048L631.687 757.165H633.374L630.875 795.167L629.45 841.718L626.6 960.378L621.987 1001.15L622.353 1041.91L623.517 1098.16L620.743 1129.94L623.36 1163.81L626.467 1238.58L627.892 1257.83H626.201L624.804 1238.74L621.698 1163.97L619.075 1130.03V1129.92L621.831 1098.07ZM612.734 1132.82L611.846 1068.99L611.803 1033.22L610.957 1001.56L612.383 980.614L617.133 953.277L619.223 890.812L617.893 828.204L619.427 802.496L620.971 757.165H622.676L621.845 782.151L621.109 802.634L619.57 828.252L620.9 890.826L618.795 953.557L614.045 980.942L612.62 1001.62L613.466 1033.18L613.504 1068.96L614.392 1132.79L614.639 1178.54L613.442 1201.58L614.658 1222.04L615.788 1251.93L616.13 1257.83H614.477L614.145 1252.06L613.014 1222.18L611.803 1201.59L612.995 1178.48L612.734 1132.82ZM594.208 1080.02L590.921 1035.71L591.467 1009.79L592.18 998.028L595.838 967.299L604.117 988.889L605.495 1025.35L606.692 1050.52L605.941 1090.5L607.11 1117.9L605.77 1145.81L604.977 1204.49L607.955 1245.53L609.442 1257.85H607.742L606.288 1245.8L603.295 1204.57L604.131 1145.74L605.476 1117.9L604.298 1090.55L605.053 1050.57L603.861 1025.48L602.569 989.649L596.726 974.42L593.876 998.29L593.173 1009.91L592.622 1035.65L595.909 1079.83L598.398 1119.59L595.282 1153.69L597.206 1218.24L599.419 1244.09L600.702 1257.85H599.011L597.733 1244.35L595.515 1218.41L593.586 1153.62L596.707 1119.56L594.208 1080.02ZM691.905 1219.06L690.637 1195.91L691.421 1170.79L693.677 1068.3L695.216 1005.2L699.449 965.518L707.766 1017.1L709.742 1064.12L712.65 1118.27L713.771 1171.48L713.367 1195.99L714.516 1217.15L713.566 1257.86H711.89L712.84 1217.19L711.69 1196.04L712.099 1171.48L710.973 1118.36L708.056 1064.24L706.094 1017.37L699.772 978.215L696.879 1005.38L695.345 1068.36L693.093 1170.86L692.305 1195.88L693.568 1219.05L692.067 1257.6L690.385 1257.49L691.905 1219.06ZM632.918 1051.62L631.968 998.565L633.621 964.787L637.217 926.395L643.273 856.325L642.921 808.163L642.043 771.929L642.204 757.203H643.89L643.724 771.929L644.598 808.139L644.945 856.449L638.884 926.661L635.297 965L633.644 998.627L634.594 1051.64L633.312 1126.25L634.547 1158.82L637.654 1193.49L642.057 1230.74L641.734 1257.86H640.062L640.39 1230.88L635.991 1193.77L632.875 1158.99L631.63 1126.27L632.918 1051.62ZM709.125 830.627L711.025 757.179H712.702L710.802 830.674L710.327 870.79L711.471 912.501L715.547 945.125L718.568 970.91L717.965 997.107L719.485 1025.61L723.437 1077.48L725.095 1143.45L723.67 1187.21L724.915 1216.87L725.437 1242.21L724.06 1257.83H722.378L723.76 1242.12L723.233 1216.94L721.988 1187.21L723.414 1143.42L721.76 1077.6L717.808 1025.77L716.284 997.121L716.896 970.995L713.885 945.411L709.799 912.667L708.645 870.775L709.125 830.627ZM675.356 1233.73L678.258 1221.55L677.636 1192.27L678.543 1167.23L681.18 1139.57L682.058 1077.87L683.588 1043.99L682.59 1013.93L683.588 981.521L691.544 945.458L695.563 885.349L699.249 816.153L700.674 757.179H702.356L700.931 816.257L697.24 885.515L693.193 945.843L685.255 981.735L684.262 1013.92L685.26 1044L683.735 1077.96L682.856 1139.71L680.21 1167.39L679.308 1192.28L679.935 1221.83L677.023 1233.94L676.23 1257.85H674.548L675.356 1233.73ZM640.679 1042.37L641.458 1018.48L640.542 998.85L643.192 975.052L646.342 953.158L649.249 900.041L652.536 811.094L651.515 779.448V757.175H653.201V779.396L654.222 811.094L650.911 900.155L647.995 953.405L644.831 975.384L642.214 998.921L643.126 1018.44L642.342 1042.43L641.002 1099.19L642.537 1132.94L646.337 1177.68L651.937 1231.58L654.122 1245.32L654.925 1256.72L653.253 1256.91L652.469 1245.61L650.284 1231.91L644.674 1177.93L640.846 1133.1L639.307 1099.2L640.679 1042.37ZM698.703 1176.19L699.705 1127.05L700.765 1080.86L702.437 1080.76L706.432 1122.84L708.032 1150.98L708.08 1182.49L708.731 1250.37H707.049L706.398 1182.48L706.351 1151.03L704.769 1123.01L702.118 1095.16L701.392 1127.07L700.389 1176.15L701.168 1211.82L700.399 1243.21L698.722 1243.14L699.492 1211.79L698.703 1176.19ZM655.329 1015.44L659.485 1037.18L658.725 1066.96L656.474 1100.01H654.802L651.477 1042.71V1042.58L655.329 1015.44ZM655.709 1086.52L657.053 1066.83L657.799 1037.41L655.576 1025.77L653.201 1042.68L655.709 1086.52ZM655.329 1015.44L659.485 1037.18L658.725 1066.96L656.474 1100.01H654.802L651.477 1042.71V1042.58L655.329 1015.44ZM655.709 1086.52L657.053 1066.83L657.799 1037.41L655.576 1025.77L653.201 1042.68L655.709 1086.52ZM655.329 1015.44L659.485 1037.18L658.725 1066.96L656.474 1100.01H654.802L651.477 1042.71V1042.58L655.329 1015.44ZM655.709 1086.52L657.053 1066.83L657.799 1037.41L655.576 1025.77L653.201 1042.68L655.709 1086.52ZM655.329 1015.44L659.485 1037.18L658.725 1066.96L656.474 1100.01H654.802L651.477 1042.71V1042.58L655.329 1015.44ZM655.709 1086.52L657.053 1066.83L657.799 1037.41L655.576 1025.77L653.201 1042.68L655.709 1086.52ZM647.467 1012.53L649.738 980.149L656.498 923.555L660.255 878.428L663.328 907.798L664.521 962.164L664.25 995.155L666.098 1038.97L666.497 1074.26L665.547 1104.66L663.509 1136.46L662.469 1161.92L661.01 1186.21L653.59 1167.75L647.448 1114.13L645.449 1059.76L647.467 1012.53ZM649.135 1113.94L655.172 1166.95L659.813 1178.5L660.815 1161.81L661.856 1136.34L663.894 1104.55L664.82 1074.24L664.421 1039.05L662.573 995.207L662.844 962.183L661.656 907.979L660.44 896.403L658.16 923.83L651.41 980.434L649.144 1012.74L647.125 1059.8L649.135 1113.94ZM659.485 1037.18L658.725 1066.96L656.474 1100.01H654.802L651.477 1042.71V1042.58L655.315 1015.45L659.485 1037.18ZM655.685 1086.52L657.03 1066.83L657.775 1037.41L655.552 1025.77L653.177 1042.68L655.685 1086.52ZM655.305 1015.44L659.462 1037.18L658.702 1066.96L656.45 1100.01H654.778L651.453 1042.71V1042.58L655.305 1015.44ZM655.685 1086.52L657.03 1066.83L657.775 1037.41L655.552 1025.77L653.177 1042.68L655.685 1086.52ZM655.305 1015.44L659.462 1037.18L658.702 1066.96L656.45 1100.01H654.778L651.453 1042.71V1042.58L655.305 1015.44ZM655.685 1086.52L657.03 1066.83L657.775 1037.41L655.552 1025.77L653.177 1042.68L655.685 1086.52ZM655.305 1015.44L659.462 1037.18L658.702 1066.96L656.45 1100.01H654.778L651.453 1042.71V1042.58L655.305 1015.44ZM655.685 1086.52L657.03 1066.83L657.775 1037.41L655.552 1025.77L653.177 1042.68L655.685 1086.52ZM655.305 1015.44L659.462 1037.18L658.702 1066.96L656.45 1100.01H654.778L651.453 1042.71V1042.58L655.305 1015.44ZM655.685 1086.52L657.03 1066.83L657.775 1037.41L655.552 1025.77L653.177 1042.68L655.685 1086.52ZM722.083 847.675L722.829 805.988L724.154 782.949L724.763 757.179H726.444L725.831 783.058L724.501 806.092L723.76 847.637L728.197 947.733L729.147 991.853L728.644 1022.15L730.99 1056.5L737.308 994.49L741.108 922.88L740.457 853.238L741.958 757.179H743.683L742.191 853.247L742.842 922.937L739.042 994.699L730.724 1076.36L727.024 1022.21L727.532 991.858L726.582 947.819L722.083 847.675ZM602.174 793.21L605.585 763.611L605.827 757.179H607.499L607.252 763.83L603.813 793.685L593.719 837.12L594.085 890.589L600.037 934.97L604.255 950.536L608.421 962.844L613.309 937.606L614.734 908.478L612.506 847.804V819.545L611.893 792.511L612.625 771.477V757.175H614.306V771.506L613.57 792.506L614.188 819.497V847.732L616.411 908.473L614.986 937.924L608.886 969.508L602.711 951.296L598.436 935.483L592.441 890.759L592.056 836.964V836.797L602.174 793.21ZM671.005 757.175H672.686L670.629 786.284L672.634 839.799L673.693 864.201L676.41 885.715L681.688 930.4L687.706 906.801L689.174 876.737L691.169 846.934L691.046 812.101L692.647 779.139L691.697 759.621L691.896 757.175H693.573L693.369 759.664L694.319 779.139L692.723 812.163L692.837 847.024L690.841 876.894L689.369 907.072L681.085 939.691L674.748 886.043L672.021 864.434L670.952 839.913L668.953 786.236L671.005 757.175ZM599.011 866.762L603.124 822.751L607.727 849.224L609.271 901.656L606.663 924.035L600.398 899.267L598.384 886.883L599.011 866.762ZM602.018 898.721L606.06 914.677L607.599 901.542L606.074 849.594L603.623 835.51L600.683 866.933L600.065 886.703L602.018 898.721ZM732.078 775.216L731.907 757.165H733.584L733.755 775.216L731.299 885.316L731.674 898.802L732.847 891.477L734.538 846.611L736.809 805.65L738.605 764.461L738.381 757.165H740.063L740.281 764.476L738.481 805.802L736.215 846.749L734.51 891.757L730.496 916.895L729.617 885.335L732.078 775.216ZM562.786 757.165H564.477L563.109 767.582L564.059 803.973L565.835 833.192L571.341 792.502L573.44 757.165H575.117L573.003 792.763L565.204 850.468L562.353 804.097L561.403 767.44L562.786 757.165ZM679.868 757.165H681.55L680.629 810.191L682.429 835.415L685.407 828.052L686.481 792.592L687.554 764.091L687.155 757.175H688.832L689.207 764.096L688.139 792.692L687.056 828.38L681.265 842.944L678.928 810.272L679.868 757.165Z" fill="#BA4B00"/>
<path d="M684.975 1209.6H811.207V785.154H684.975V1209.6Z" fill="#FEBD57"/>
<path d="M708.341 1192.35H791.346V804.568H708.341V1192.35Z" fill="#ED7720"/>
<path d="M563.176 409.517C563.176 409.517 556.725 396.155 556.141 385.201C555.703 376.988 559.504 369.393 563.879 367.207C574.087 362.106 586.181 373.658 586.181 373.658C586.181 373.658 615.47 337.647 663.039 341.143C710.607 344.639 709.501 368.993 709.501 368.993C712.118 372.851 715.391 369.601 716.498 362.196C714.626 357.113 709.819 350.482 698.395 343.414C673.727 328.161 627.702 334.768 608.616 345.96C592.071 355.664 556.198 348.335 547.486 341.243C535.696 391.885 563.176 409.517 563.176 409.517Z" fill="#4686D3"/>
<path d="M577.72 386.075C577.644 388.607 576.666 391.21 574.666 392.764C572.666 394.317 569.564 394.531 567.659 392.864C566.391 391.752 565.816 390.013 565.717 388.346C565.531 385.182 567.569 379.164 571.084 378.166C575.412 376.936 577.825 382.741 577.72 386.075Z" fill="#FF8C5A"/>
<path d="M657.704 312.253C657.704 312.253 688.067 310.353 690.438 317.758C692.808 325.164 693.763 328.978 690.913 329.287C688.063 329.596 654.906 324.385 654.906 324.385L657.704 312.253Z" fill="#2D80D3"/>
<path d="M690.956 327.282C690.956 327.282 690.367 319.083 687.022 317.15C683.678 315.216 657.096 310.381 654.555 313.003C650.964 316.689 653.177 323.563 654.949 324.403C656.721 325.244 689.36 328.835 690.956 327.282Z" fill="#361029"/>
<path d="M752.309 776.441C754.404 784.807 766.597 778.185 766.597 778.185C771.481 784.807 779.143 781.671 779.143 781.671C783.328 790.032 791.346 785.153 791.346 785.153C791.346 785.153 793.783 788.64 800.404 788.692C807.026 788.744 811.202 782.042 811.202 782.042C833.157 781.344 847.104 766.708 853.374 743.385C857.45 728.217 847.735 694.273 840.439 672.388C840.316 672.018 840.197 671.657 840.073 671.296C839.841 670.593 839.598 669.899 839.375 669.22C839.014 668.159 838.663 667.141 838.321 666.166C838.002 665.249 837.694 664.361 837.394 663.515C837.382 663.473 837.366 663.431 837.347 663.392C837.161 662.845 836.976 662.323 836.791 661.815C836.782 661.768 836.766 661.723 836.743 661.681C836.568 661.183 836.397 660.708 836.231 660.256C835.47 658.152 834.805 656.399 834.33 655.088L834.155 654.613L834.055 654.338L833.86 653.834C833.741 653.511 833.642 653.245 833.556 653.022C833.471 652.799 833.442 652.727 833.404 652.623C833.391 652.597 833.382 652.57 833.376 652.542C833.356 652.506 833.34 652.468 833.328 652.428C833.328 652.381 833.3 652.352 833.295 652.338C812.308 661.957 788.263 660.513 776.473 658.955C775.713 666.641 776.397 675.832 777.661 684.744C779.467 696.826 782.058 708.777 785.418 720.522C778.801 721.04 773.224 736.046 773.224 736.046C767.647 736.017 750.219 768.1 752.309 776.441Z" fill="#FFC890"/>
<g opacity="0.48">
<path opacity="0.48" d="M777.661 684.716C784.017 679.106 797.583 673.344 812.399 672.109C822.626 671.253 832.051 671.956 840.425 672.365C840.302 671.994 840.183 671.634 840.06 671.272C839.827 670.569 839.585 669.876 839.361 669.197C839 668.136 838.649 667.118 838.307 666.142C837.989 665.216 837.68 664.337 837.381 663.492C837.368 663.449 837.352 663.408 837.333 663.368C837.148 662.822 836.963 662.299 836.777 661.791C836.768 661.745 836.752 661.7 836.73 661.658C836.554 661.159 836.383 660.684 836.217 660.233C835.457 658.129 834.792 656.376 834.317 655.065L834.141 654.59L834.041 654.314C833.97 654.134 833.908 653.963 833.846 653.811C833.728 653.488 833.628 653.222 833.542 652.998C833.457 652.775 833.433 652.704 833.39 652.599C833.377 652.574 833.368 652.547 833.362 652.519C833.343 652.482 833.327 652.444 833.314 652.405C833.314 652.357 833.286 652.329 833.281 652.314C812.295 661.934 788.249 660.49 776.459 658.931C775.714 666.613 776.398 675.804 777.661 684.716Z" fill="#FF8C5A"/>
</g>
<path d="M785.418 720.494C785.418 720.494 801.602 720.195 813.349 725.634C825.096 731.073 807.041 716.936 797.037 715.183C787.033 713.43 783.608 713.863 783.608 713.863L785.418 720.494Z" fill="#FF8C5A"/>
<path d="M775.153 755.246C775.049 757.289 774.73 759.316 774.203 761.293C773.729 763.239 773.133 765.152 772.417 767.022C771.713 768.895 770.895 770.722 769.966 772.494C769.046 774.321 767.943 776.05 766.674 777.653L766.498 777.586C767.166 775.705 767.852 773.831 768.555 771.962L770.64 766.347L772.787 760.761C773.493 758.893 774.219 757.032 774.963 755.18L775.153 755.246Z" fill="#FF8C5A"/>
<path d="M788.629 759.075C788.395 761.1 787.98 763.1 787.389 765.051C786.263 768.906 784.693 772.617 782.71 776.109C781.725 777.908 780.561 779.601 779.233 781.163L779.057 781.087C779.795 779.225 780.55 777.371 781.323 775.525L783.622 769.977L785.997 764.457C786.795 762.619 787.565 760.79 788.472 758.966L788.629 759.075Z" fill="#FF8C5A"/>
<path d="M801.688 764.699C801.421 766.6 800.943 768.466 800.262 770.261C799.629 772.025 798.877 773.744 798.011 775.406C797.158 777.074 796.195 778.683 795.127 780.222C794.067 781.823 792.832 783.301 791.446 784.631L791.28 784.545C792.103 782.864 792.939 781.193 793.788 779.534L796.325 774.536L798.918 769.568C799.773 767.91 800.652 766.243 801.535 764.613L801.688 764.699Z" fill="#FF8C5A"/>
<path d="M811.202 782.019C811.202 782.019 815.368 773.273 817.187 773.273C819.006 773.273 825.652 775.364 833.205 775.174C833.205 775.188 822.536 783.368 811.202 782.019Z" fill="#FF8C5A"/>
<path d="M773.224 736.017C773.224 736.017 783.57 735.637 800.395 740.616L773.224 736.017Z" fill="#FF8C5A"/>
<path d="M317.22 1049.94C315.882 1048.83 314.361 1047.96 312.726 1047.38L236.001 1135.64C236.001 1135.64 234.813 1138.52 237.953 1142.67C238.828 1143.8 239.82 1144.83 240.913 1145.75C247.634 1151.5 282.14 1123.19 296.324 1116.19C314.65 1107.16 310.033 1104.96 310.033 1104.96C310.033 1104.96 316.208 1088.73 332.468 1078.71C332.468 1078.71 344.529 1080.48 324.393 1057.34C322.29 1054.61 319.884 1052.13 317.22 1049.94Z" fill="#454B6B"/>
<path d="M317.22 1049.94C315.882 1048.83 314.361 1047.96 312.726 1047.38L236.001 1135.64C236.001 1135.64 234.813 1138.52 237.953 1142.67L317.22 1049.94Z" fill="#20307B"/>
<path d="M288.7 1109.49C288.567 1109.63 288.494 1109.82 288.494 1110.02C288.494 1110.21 288.567 1110.4 288.7 1110.55C290.76 1112.57 292.21 1115.14 292.885 1117.95C292.904 1118.04 292.943 1118.13 293 1118.21C293.056 1118.28 293.129 1118.35 293.213 1118.39C293.297 1118.44 293.389 1118.46 293.485 1118.47C293.58 1118.47 293.675 1118.46 293.763 1118.42C293.964 1118.36 294.135 1118.22 294.246 1118.04C294.358 1117.87 294.402 1117.65 294.371 1117.44C293.662 1114.36 292.081 1111.55 289.816 1109.34C289.74 1109.27 289.651 1109.22 289.556 1109.19C289.461 1109.16 289.36 1109.15 289.261 1109.16C289.161 1109.17 289.064 1109.2 288.976 1109.25C288.888 1109.29 288.81 1109.36 288.747 1109.44L288.7 1109.49Z" fill="white"/>
<path d="M280.239 1116.84C280.107 1116.99 280.033 1117.17 280.033 1117.37C280.033 1117.57 280.107 1117.76 280.239 1117.9C283.564 1121.08 283.697 1123.9 283.697 1123.93C283.699 1124.02 283.722 1124.12 283.764 1124.2C283.806 1124.29 283.867 1124.37 283.942 1124.43C284.016 1124.49 284.104 1124.53 284.197 1124.55C284.29 1124.57 284.387 1124.57 284.481 1124.55C284.687 1124.51 284.872 1124.4 285.006 1124.24C285.139 1124.08 285.212 1123.88 285.213 1123.67C285.213 1123.53 285.075 1120.29 281.356 1116.71C281.279 1116.64 281.191 1116.59 281.096 1116.56C281 1116.53 280.9 1116.52 280.8 1116.53C280.701 1116.54 280.604 1116.57 280.516 1116.62C280.428 1116.67 280.35 1116.73 280.287 1116.81L280.239 1116.84Z" fill="white"/>
<path d="M298.224 1102.84C298.09 1102.99 298.016 1103.18 298.016 1103.37C298.016 1103.57 298.09 1103.76 298.224 1103.9C303.839 1109.25 300.78 1113.25 300.746 1113.29C300.679 1113.37 300.628 1113.45 300.595 1113.55C300.561 1113.64 300.547 1113.74 300.552 1113.84C300.558 1113.94 300.583 1114.04 300.626 1114.13C300.669 1114.22 300.729 1114.3 300.803 1114.37C300.974 1114.48 301.18 1114.52 301.379 1114.48C301.578 1114.44 301.754 1114.33 301.872 1114.16C302.038 1113.95 305.886 1108.94 299.335 1102.7C299.178 1102.58 298.977 1102.52 298.776 1102.54C298.575 1102.56 298.39 1102.66 298.262 1102.81L298.224 1102.84Z" fill="white"/>
<path d="M688.718 404.236C686.191 403.514 683.921 402.664 683.156 402.445C681.46 401.97 679.712 401.604 678.106 400.863C673.622 398.797 672.534 392.531 678.79 392.788C685.711 393.068 693.274 395.994 697.259 401.927C697.593 402.342 697.788 402.85 697.82 403.381C697.725 406.255 692.856 405.423 688.718 404.236Z" fill="#361029"/>
<path d="M626.134 388.085C628.723 388.56 631.131 388.778 631.915 388.921C633.654 389.23 635.383 389.676 637.14 389.714C642.076 389.828 645.8 384.674 640.071 382.157C633.73 379.364 625.65 378.68 619.465 382.261C618.981 382.485 618.581 382.856 618.32 383.32C617.156 385.947 621.887 387.33 626.134 388.085Z" fill="#361029"/>
<path d="M682.329 412.025C683.911 413.835 682.804 418.709 681.854 420.053C678.89 424.143 673.874 420.927 676.097 416.334C676.807 415.016 677.687 413.798 678.714 412.709C679.308 412.03 680.039 411.284 680.942 411.351C681.207 411.364 681.466 411.431 681.704 411.546C681.943 411.662 682.155 411.825 682.329 412.025Z" fill="#361029"/>
<path d="M631.037 398.022C632.69 399.765 631.806 404.672 630.885 406.059C628.087 410.268 622.942 407.256 624.98 402.577C625.638 401.232 626.47 399.98 627.455 398.853C628.016 398.145 628.719 397.371 629.621 397.404C629.887 397.406 630.149 397.461 630.392 397.568C630.636 397.674 630.855 397.828 631.037 398.022Z" fill="#361029"/>
<path d="M657.462 450.787C657.462 450.787 657.338 454.435 643.757 451.904C630.177 449.372 619.223 440.574 617.156 434.109" stroke="#FF6029" stroke-width="3" stroke-miterlimit="10" stroke-linecap="round"/>
<path d="M656.08 418.182L654.479 433.002L647.073 430.347L656.08 418.182Z" fill="#FF6029"/>
<g opacity="0.28">
<path opacity="0.28" d="M682.405 436.661C685.461 436.661 687.939 434.183 687.939 431.127C687.939 428.07 685.461 425.593 682.405 425.593C679.349 425.593 676.871 428.07 676.871 431.127C676.871 434.183 679.349 436.661 682.405 436.661Z" fill="#FF8C5A"/>
</g>
<g opacity="0.28">
<path opacity="0.28" d="M613.332 415.051C616.389 415.051 618.866 412.574 618.866 409.517C618.866 406.461 616.389 403.983 613.332 403.983C610.276 403.983 607.798 406.461 607.798 409.517C607.798 412.574 610.276 415.051 613.332 415.051Z" fill="#FF8C5A"/>
</g>
<path d="M1127.56 846.198H1052.37V1135.28H1127.56V846.198Z" fill="#FF8C3E"/>
<path d="M1052.37 1135.28L1037.05 1125.19V832.936H1119.24L1127.56 846.198H1052.37V1135.28Z" fill="#FEBD57"/>
<g opacity="0.49">
<path opacity="0.49" d="M1052.37 846.198L1037.05 832.936H1119.24L1127.56 846.198H1052.37Z" fill="#FF8C3E"/>
</g>
<path opacity="0.39" d="M1016.56 1095.5L1016.77 1053.31L1016.25 1034.73V1123.68L1016.56 1095.5ZM1016.4 839.567H1016.25V841.705L1016.4 839.567ZM1028.75 928.99L1032.2 954.959L1031.45 977.76V990.419L1033.94 1017.97L1035.84 1037.26L1032.74 1056.96L1028.86 1069.85L1027.99 1091.96L1031.47 1111.03L1029.64 1148.14L1030.49 1162.11H1031.7L1030.85 1148.14L1032.68 1111.01V1110.92L1029.2 1091.85L1030.02 1070.2L1033.91 1057.31L1037.06 1037.3L1035.14 1017.82L1032.65 990.372V977.807L1033.39 954.888L1029.92 928.695L1027.72 920.188L1028.29 898.555L1029.92 872.101L1031.23 839.572H1030.02L1028.71 872.021L1027.07 898.489L1026.5 920.259V920.373L1028.75 928.99ZM1018.72 917.257L1021.24 938.785L1025.99 964.208L1022.41 988.353L1026.37 1013.67L1027.5 1034.57L1025.02 1062.8L1021.27 1082.51V1082.61L1022.77 1109.14L1021.25 1125.19L1024.2 1145.4L1021.51 1162.11H1022.74L1025.4 1145.53V1145.41L1022.46 1125.15L1023.94 1109.16L1022.45 1082.71L1026.2 1063.02L1028.69 1034.59L1027.56 1013.47L1023.63 988.296L1027.21 964.127L1022.41 938.5L1019.92 917.152L1022.89 867.451L1022.57 839.705V839.529H1021.36V839.662L1021.68 867.413L1018.72 917.257ZM1050.07 989.806L1051.72 1027.49L1053.47 1046.53L1051.01 1061.99L1049.2 1077.14L1047.36 1087.99L1049.98 1112.22L1056.18 1145.37L1056.09 1162.14H1057.3L1057.4 1145.23L1051.17 1111.98L1048.58 1088.04L1050.39 1077.37L1052.21 1062.2L1054.67 1046.69V1046.59L1052.92 1027.37L1051.27 989.783L1053.36 926.904L1050.32 910.82L1051.79 894.1L1053.64 867.361L1056.1 851.994L1056.86 839.943V839.567H1055.65V839.862L1054.91 851.818L1052.44 867.18L1050.58 893.976L1049.1 910.901L1052.14 927.052L1050.07 989.806ZM1043.09 1025.86L1044.04 1050.66L1043.14 1061.11L1040.4 1069.22L1040.7 1089.45L1041.27 1102.64L1045.46 1123.13L1046.95 1151.46L1048 1162.12H1049.22L1048.16 1151.34L1046.66 1122.93L1042.47 1102.45L1041.9 1089.4L1041.62 1069.45L1044.3 1061.5L1045.25 1050.67L1044.3 1025.67L1042.27 1013.66L1042.1 1005.45L1043.9 961.505L1044.66 937.702L1042.85 921.741L1045.78 904.507V853.637L1046.1 839.558H1044.85L1044.53 853.618V904.379L1041.57 921.698L1043.41 937.768L1042.65 961.443L1041.45 989.73L1040.85 1005.43L1041.01 1013.8L1043.09 1025.86ZM1103.8 869.099L1106.04 871.569L1110.34 893.715L1113.23 964.493L1113.98 1018.25L1112.34 1042.29L1111.73 1067.21L1109.41 1086.46L1106.47 1096.37L1106.23 1113.09L1105.1 1129.76L1105.61 1155.96L1105.77 1162.11H1106.98L1106.83 1155.93L1106.31 1129.8L1107.44 1113.18L1107.64 1096.74L1110.59 1086.81L1112.93 1067.33L1113.55 1042.38L1115.19 1018.3L1114.44 964.459L1111.53 893.539L1107.14 870.866L1104.99 868.491L1104.79 854.668L1105.67 839.558H1104.43L1103.58 854.635L1103.8 869.099ZM1033.11 924.995L1037.48 953.496L1038.68 953.372L1038.57 929.104L1039.57 908.445L1039.92 890.755L1040.28 879.355L1039.77 866.202L1042.66 839.601H1041.46L1038.57 866.168L1039.07 879.383L1038.71 890.784L1038.36 908.455L1037.36 929.132L1037.43 945.226L1034.31 924.914L1034.12 914.601L1035.21 875.906L1036.11 859.665L1038.05 839.624H1036.84L1034.91 859.547L1034 875.84L1032.91 914.592L1033.11 924.995ZM1164.73 957.8L1169.8 1005.09L1170.01 1035.41L1170.48 1067.39V1095.03L1171.43 1124.26L1170.48 1151.08L1170.62 1162.11H1171.82L1171.69 1151.09L1172.64 1124.26L1171.69 1095.01V1067.37L1171.22 1035.4L1171.01 1005L1165.92 957.562L1160.98 932.457L1161.19 893.249L1161.36 849.414L1161.5 839.572H1160.27L1160.13 849.405L1159.97 893.24L1159.76 932.529V932.609L1164.73 957.8ZM1077.72 942.49L1076.88 978.648L1076.61 1005.02L1079.94 1031.31L1081.99 1107.69L1083.03 1137.71L1084.82 1162.11H1086.03L1084.23 1137.62L1083.19 1107.64L1081.14 1031.19L1077.82 1004.93L1078.08 978.672L1078.92 942.433L1076.92 921.959L1078.82 900.142L1081.06 851.97L1082.07 839.567H1080.86L1079.85 851.87L1077.62 900.037L1075.72 921.888V921.959L1077.72 942.49ZM1071.16 920.107L1070.52 961.225L1070.5 984.268L1069.89 1004.67L1070.92 1018.16L1074.34 1035.77L1075.85 1076.01L1074.9 1116.35L1076.01 1132.91L1077.12 1162.11H1078.35L1077.75 1146.01L1077.22 1132.82L1076.11 1116.31L1077.06 1076L1075.54 1035.59L1072.11 1017.96L1071.09 1004.66L1071.7 984.329L1071.73 961.277L1072.37 920.159L1072.54 890.684L1071.68 875.84L1072.56 862.653L1073.37 843.401L1073.62 839.601H1072.4L1072.15 843.315L1071.34 862.568L1070.47 875.83L1071.33 890.722L1071.16 920.107ZM1057.82 954.123L1055.45 982.667L1055.84 999.364L1056.36 1006.96L1058.99 1026.76L1064.95 1012.85L1065.95 989.365L1066.81 973.147L1066.27 947.392L1067.11 929.74L1066.16 911.761L1065.56 873.964L1067.71 847.524L1068.78 839.591H1067.55L1066.51 847.353L1064.32 873.887L1064.92 911.794L1065.87 929.721L1065.02 947.344L1065.57 973.1L1064.71 989.251L1063.76 1012.33L1059.55 1022.15L1057.5 1006.77L1057 999.278L1056.6 982.7L1058.97 954.228L1060.77 928.614L1058.52 906.645L1059.91 865.057L1061.5 848.431L1062.45 839.577H1061.24L1060.32 848.27L1058.72 864.981L1057.33 906.721L1059.58 928.667L1057.82 954.123ZM1128.15 864.553L1127.24 879.464L1127.81 895.648L1129.43 961.676L1130.54 1002.33L1133.59 1027.89L1139.58 994.666L1141 964.379L1143.09 929.503L1143.9 895.216L1143.61 879.426L1144.44 865.793L1143.77 839.567H1142.56L1143.23 865.765L1142.4 879.393L1142.69 895.216L1141.89 929.417L1139.79 964.274L1138.37 994.471L1133.82 1019.69L1131.73 1002.19L1130.63 961.619L1129 895.591L1128.44 879.469L1129.35 864.549L1128.26 839.71L1127.06 839.781L1128.15 864.553ZM1085.67 972.421L1084.98 1006.62L1086.17 1028.38L1088.76 1053.11L1093.12 1098.24L1092.86 1129.26L1092.23 1152.61L1092.35 1162.11H1093.56L1093.44 1152.61L1094.08 1129.28L1094.32 1098.16L1089.96 1052.93L1087.37 1028.23L1086.17 1006.56L1086.87 972.407L1085.95 924.382L1086.85 903.4L1089.08 881.075L1092.25 857.081L1092.02 839.61H1090.82L1091.05 856.986L1087.89 880.894L1085.64 903.305L1084.75 924.382L1085.67 972.421ZM1140.56 1114.79L1141.92 1162.11H1143.13L1141.77 1114.76L1141.42 1088.92L1142.24 1062.05L1145.17 1041.03L1147.35 1024.41L1146.92 1007.52L1148.01 989.156L1150.86 955.738L1152.06 913.238L1151.02 885.046L1151.92 865.936L1152.29 849.614L1151.31 839.553H1150.09L1151.09 849.676L1150.71 865.883L1149.82 885.05L1150.86 913.262L1149.67 955.662L1146.82 989.051L1145.72 1007.51L1146.16 1024.34L1143.99 1040.82L1141.05 1061.91L1140.22 1088.91L1140.56 1114.79ZM1116.24 855.105L1118.33 862.948L1117.88 881.811L1118.53 897.961L1120.43 915.779L1121.07 955.529L1122.17 977.38L1121.45 996.747L1122.17 1017.62L1127.9 1040.85L1130.8 1079.58L1133.45 1124.16L1134.48 1162.16H1135.69L1134.66 1124.1L1132 1079.48L1129.09 1040.61L1123.38 1017.49L1122.67 996.756L1123.39 977.38L1122.29 955.529L1121.66 915.732L1119.76 897.9L1119.1 881.868L1119.58 862.829L1117.48 855.029L1116.9 839.639H1115.68L1116.24 855.105ZM1091.27 978.387L1091.83 993.773L1091.17 1006.42L1093.07 1021.75L1095.34 1035.85L1097.43 1070.06L1099.8 1127.36L1099.07 1147.75V1162.09H1100.28V1147.77L1101.02 1127.35L1098.64 1069.97L1096.54 1035.66L1094.26 1021.5L1092.36 1006.34L1093.02 993.763L1092.45 978.316L1091.5 941.739L1092.61 919.998L1095.36 891.173L1099.39 856.454L1100.96 847.6L1101.54 840.242L1100.34 840.118L1099.77 847.396L1098.2 856.221L1094.16 891.002L1091.4 919.879L1090.29 941.73L1091.27 978.387ZM1133.07 892.176L1133.79 923.831L1134.55 953.586L1135.76 953.653L1138.64 926.548L1139.79 908.417L1139.82 888.114L1140.3 844.384H1139.08L1138.61 888.119L1138.58 908.379L1137.44 926.429L1135.54 944.371L1135.01 923.812L1134.29 892.195L1134.85 869.218L1134.3 848.987L1133.08 849.034L1133.64 869.218L1133.07 892.176ZM1101.85 995.73L1104.84 981.726L1104.29 962.54L1102.67 941.25H1101.47L1099.09 978.159V978.249L1101.85 995.73ZM1102.12 949.943L1103.07 962.626L1103.61 981.579L1102.01 989.075L1100.29 978.183L1102.12 949.943ZM1101.85 995.73L1104.84 981.726L1104.29 962.54L1102.67 941.25H1101.47L1099.09 978.159V978.249L1101.85 995.73ZM1102.12 949.943L1103.07 962.626L1103.61 981.579L1102.01 989.075L1100.29 978.183L1102.12 949.943ZM1101.85 995.73L1104.84 981.726L1104.29 962.54L1102.67 941.25H1101.47L1099.09 978.159V978.249L1101.85 995.73ZM1102.12 949.943L1103.07 962.626L1103.61 981.579L1102.01 989.075L1100.29 978.183L1102.12 949.943ZM1101.85 995.73L1104.84 981.726L1104.29 962.54L1102.67 941.25H1101.47L1099.09 978.159V978.249L1101.85 995.73ZM1102.12 949.943L1103.07 962.626L1103.61 981.579L1102.01 989.075L1100.29 978.183L1102.12 949.943ZM1096.15 997.606L1097.79 1018.46L1102.65 1054.93L1105.35 1084L1107.57 1065.07L1108.43 1030.05L1108.23 1008.8L1109.57 980.567L1109.85 957.838L1109.18 938.238L1107.71 917.756L1106.96 901.348L1105.91 885.701L1100.57 897.577L1096.15 932.12L1094.69 967.162L1096.15 997.606ZM1097.35 932.272L1101.7 898.128L1105.02 890.684L1105.74 901.439L1106.49 917.85L1107.96 938.324L1108.63 957.852L1108.34 980.52L1107.01 1008.77L1107.2 1030.04L1106.35 1064.96L1105.47 1072.42L1103.83 1054.75L1099 1018.3L1097.37 997.506L1095.91 967.181L1097.35 932.272ZM1104.8 981.726L1104.26 962.54L1102.63 941.25H1101.43L1099.05 978.159V978.249L1101.82 995.72L1104.8 981.726ZM1102.09 949.943L1103.04 962.626L1103.57 981.579L1101.97 989.075L1100.25 978.183L1102.09 949.943ZM1101.81 995.73L1104.8 981.726L1104.26 962.54L1102.63 941.25H1101.43L1099.05 978.159V978.249L1101.81 995.73ZM1102.09 949.943L1103.04 962.626L1103.57 981.579L1101.97 989.075L1100.25 978.183L1102.09 949.943ZM1101.81 995.73L1104.8 981.726L1104.26 962.54L1102.63 941.25H1101.43L1099.05 978.159V978.249L1101.81 995.73ZM1102.09 949.943L1103.04 962.626L1103.57 981.579L1101.97 989.075L1100.25 978.183L1102.09 949.943ZM1101.81 995.73L1104.8 981.726L1104.26 962.54L1102.63 941.25H1101.43L1099.05 978.159V978.249L1101.81 995.73ZM1102.09 949.943L1103.04 962.626L1103.57 981.579L1101.97 989.075L1100.25 978.183L1102.09 949.943ZM1101.81 995.73L1104.8 981.726L1104.26 962.54L1102.63 941.25H1101.43L1099.05 978.159V978.249L1101.81 995.73ZM1102.09 949.943L1103.04 962.626L1103.57 981.579L1101.97 989.075L1100.25 978.183L1102.09 949.943ZM1149.9 1103.81L1150.44 1130.67L1151.39 1145.51L1151.82 1162.11H1153.04L1152.59 1145.44L1151.64 1130.6L1151.11 1103.83L1154.31 1039.35L1154.98 1010.93L1154.62 991.412L1156.31 969.276L1160.86 1009.23L1163.61 1055.36L1163.13 1100.23L1164.22 1162.11H1165.41L1164.34 1100.22L1164.82 1055.33L1162.07 1009.09L1156.08 956.489L1153.41 991.369L1153.78 1010.92L1153.1 1039.29L1149.9 1103.81ZM1063.55 1138.9L1066 1157.97L1066.18 1162.11H1067.38L1067.2 1157.84L1064.72 1138.6L1057.46 1110.62L1057.72 1076.17L1062 1047.58L1065.03 1037.56L1068.04 1029.63L1071.56 1045.88L1072.56 1064.65L1070.96 1103.74V1121.94L1070.52 1139.36L1071.04 1152.91V1162.11H1072.25V1152.87L1071.73 1139.33L1072.17 1121.95V1103.75L1073.77 1064.63L1072.75 1045.66L1068.35 1025.3L1063.9 1037.04L1060.83 1047.22L1056.51 1076.04L1056.23 1110.71V1110.82L1063.55 1138.9ZM1113.1 1162.11H1114.3L1112.83 1143.36L1114.25 1108.88L1115.02 1093.16L1116.98 1079.3L1120.78 1050.51L1125.11 1065.71L1126.16 1085.08L1127.59 1104.28L1127.5 1126.72L1128.65 1147.95L1127.96 1160.53L1128.1 1162.11H1129.31L1129.17 1160.5L1129.86 1147.95L1128.71 1126.68L1128.79 1104.22L1127.37 1084.98L1126.3 1065.54L1120.37 1044.53L1115.81 1079.09L1113.85 1093.01L1113.08 1108.81L1111.65 1143.38L1113.1 1162.11ZM1061.25 1091.51L1064.21 1119.87L1067.54 1102.81L1068.65 1069.03L1066.75 1054.61L1062.24 1070.57L1060.79 1078.55L1061.25 1091.51ZM1063.41 1070.93L1066.33 1060.64L1067.43 1069.11L1066.34 1102.57L1064.57 1111.64L1062.45 1091.4L1062.01 1078.66L1063.41 1070.93ZM1157.1 1150.49L1156.97 1162.11H1158.18L1158.3 1150.48L1156.53 1079.55L1156.8 1070.86L1157.65 1075.58L1158.87 1104.48L1160.5 1130.87L1161.79 1157.4L1161.63 1162.11H1162.84L1163.01 1157.39L1161.71 1130.79L1160.08 1104.41L1158.85 1075.43L1155.96 1059.24L1155.33 1079.57L1157.1 1150.49ZM1035.18 1162.11H1036.4L1035.41 1155.39L1036.1 1131.95L1037.39 1113.13L1041.35 1139.34L1042.86 1162.11H1044.07L1042.55 1139.17L1036.93 1102L1034.9 1131.87L1034.21 1155.48L1035.18 1162.11ZM1119.5 1162.11H1120.71L1120.04 1127.95L1121.34 1111.7L1123.48 1116.45L1124.26 1139.29L1125.03 1157.64L1124.76 1162.11H1125.96L1126.24 1157.65L1125.47 1139.23L1124.69 1116.24L1120.52 1106.86L1118.83 1127.91L1119.5 1162.11Z" fill="#BA4B00"/>
<path d="M1045.99 886.38H1000.27V1135.14H1045.99V886.38Z" fill="#FF8C3E"/>
<path d="M1000.27 1135.14L990.949 1126.46V874.965H1040.94L1045.99 886.38H1000.27V1135.14Z" fill="#FEBD57"/>
<g opacity="0.49">
<path opacity="0.49" d="M1000.27 886.38L990.949 874.965H1040.94L1045.99 886.38H1000.27Z" fill="#FF8C3E"/>
</g>
<path opacity="0.39" d="M978.494 1100.91L978.618 1064.6L978.304 1048.61V1125.16L978.494 1100.91ZM978.395 880.675H978.304V882.514L978.395 880.675ZM985.895 957.628L987.995 979.978L987.52 999.611V1010.51L989.035 1034.2L990.194 1050.79L988.294 1067.75L985.919 1078.83L985.392 1097.86L987.505 1114.27L986.418 1146.22L986.94 1158.23H987.676L987.154 1146.21L988.27 1114.26V1114.18L986.161 1097.77L986.66 1079.14L989.035 1068.05L990.935 1050.83L989.766 1034.07L988.251 1010.45V999.634L988.726 979.912L986.612 957.372L985.278 950.033L985.62 931.412L986.617 908.649L987.41 880.661H986.679L985.881 908.578L984.883 931.355L984.537 950.09V950.19L985.895 957.628ZM979.796 947.515L981.325 966.041L984.218 987.92L982.047 1008.69L984.451 1030.48L985.14 1048.49L983.634 1072.78L981.349 1089.74V1089.82L982.261 1112.66L981.34 1126.46L983.13 1143.86L981.496 1158.23H982.242L983.862 1143.98V1143.88L982.066 1126.45L982.983 1112.69L982.076 1089.92L984.356 1072.98L985.867 1048.52L985.178 1030.35L982.803 1008.71L984.978 987.906L982.057 965.851L980.542 947.487L982.351 904.735L982.157 880.86V880.709H981.416V880.818L981.61 904.702L979.796 947.515ZM998.863 1009.95L999.87 1042.38L1000.93 1058.76L999.438 1072.07L998.336 1085.1L997.22 1094.44L998.811 1115.28L1002.59 1143.78L1002.53 1158.21H1003.26L1003.32 1143.66L999.519 1115.05L997.946 1094.46L999.048 1085.28L1000.15 1072.23L1001.65 1058.87V1058.79L1000.58 1042.26L999.576 1009.92L1000.85 955.814L998.996 941.967L999.889 927.579L1001.01 904.569L1002.51 891.349L1002.99 880.975V880.656H1002.25V880.908L1001.8 891.197L1000.3 904.412L999.167 927.474L998.265 942.038L1000.12 955.918L998.863 1009.95ZM994.621 1040.97L995.196 1062.31L994.65 1071.31L992.987 1078.29L993.163 1095.7L993.514 1107.06L996.06 1124.68L996.968 1149.07L997.609 1158.23H998.35L997.699 1148.96L996.787 1124.51L994.236 1106.89L993.899 1095.66L993.723 1078.5L995.353 1071.66L995.927 1062.35L995.353 1040.83L994.113 1030.5L994.018 1023.43L995.11 985.617L995.585 965.134L994.479 951.401L996.265 936.571V892.793L996.459 880.68H995.723L995.528 892.779V936.457L993.733 951.363L994.849 965.191L994.374 985.564L993.647 1009.9L993.277 1023.42L993.381 1030.62L994.621 1040.97ZM1031.54 906.089L1032.91 908.212L1035.53 927.265L1037.29 988.182L1037.76 1034.43L1036.76 1055.13L1036.39 1076.57L1034.96 1093.14L1033.17 1101.66L1033.03 1116.05L1032.34 1130.39L1032.65 1152.95L1032.75 1158.23H1033.48L1033.39 1152.92L1033.07 1130.43L1033.76 1116.1L1033.89 1101.96L1035.68 1093.41L1037.1 1076.66L1037.48 1055.19L1038.47 1034.47L1038 988.139L1036.23 927.108L1033.56 907.599L1032.25 905.566L1032.12 893.667L1032.67 880.671H1031.91L1031.39 893.643L1031.54 906.089ZM988.56 954.185L991.22 978.719L991.947 978.615L991.88 957.714L992.493 939.939L992.707 924.738L992.921 914.91L992.612 903.585L994.374 880.68H993.643L991.88 903.538L992.184 914.91L991.971 924.7L991.757 939.901L991.144 957.695L991.192 971.542L989.291 954.066L989.177 945.188L989.838 911.889L990.389 897.914L991.567 880.671H990.831L989.657 897.809L989.101 911.832L988.441 945.178L988.56 954.185ZM1068.6 982.415L1071.68 1023.11L1071.81 1049.21L1072.1 1076.72V1100.5L1072.67 1125.65L1072.1 1148.73L1072.17 1158.23H1072.91L1072.83 1148.76L1073.4 1125.66L1072.83 1100.49V1076.71L1072.54 1049.19L1072.42 1023.03L1069.32 982.215L1066.32 960.607L1066.44 926.88L1066.55 889.164L1066.64 880.694H1065.9L1065.81 889.15L1065.71 926.876L1065.58 960.683V960.749L1068.6 982.415ZM1015.69 969.243L1015.18 1000.36L1015.02 1023.05L1017.04 1045.68L1018.28 1111.4L1018.91 1137.23L1020.01 1158.23H1020.75L1019.65 1137.16L1019.02 1111.36L1017.77 1045.57L1015.75 1022.97L1015.91 1000.38L1016.42 969.19L1015.2 951.577L1016.35 932.799L1017.71 891.344L1018.33 880.675H1017.59L1016.98 891.259L1015.62 932.709L1014.47 951.52V951.581L1015.69 969.243ZM1011.7 949.981L1011.31 985.365V1005.19L1010.94 1022.77L1011.57 1034.38L1013.66 1049.54L1014.57 1084.16L1013.99 1118.87L1014.66 1133.12L1015.34 1158.25H1016.08L1015.72 1144.4L1015.4 1133.05L1014.72 1118.85L1015.31 1084.17L1014.39 1049.39L1012.3 1034.19L1011.68 1022.73L1012.05 1005.23V985.398L1012.44 950.014L1012.54 924.653L1012.02 911.875L1012.55 900.531L1013.05 883.962L1013.2 880.694H1012.46L1012.32 883.891L1011.84 900.455L1011.31 911.855L1011.83 924.681L1011.7 949.981ZM1003.59 979.251L1002.16 1003.81L1002.4 1018.18L1002.72 1024.7L1004.32 1041.74L1007.94 1029.77L1008.55 1009.56L1009.07 995.601L1008.74 973.437L1009.25 958.236L1008.67 942.765L1008.3 910.236L1009.61 887.482L1010.26 880.661H1009.51L1008.88 887.335L1007.57 910.193L1007.93 942.813L1008.52 958.236L1008.01 973.404L1008.33 995.568L1007.81 1009.48L1007.22 1029.36L1004.67 1037.8L1003.42 1024.57L1003.11 1018.13L1002.87 1003.88L1004.3 979.38L1005.39 957.339L1004.02 938.428L1004.87 902.645L1005.82 888.314L1006.39 880.713H1005.65L1005.09 888.19L1004.14 902.569L1003.29 938.49L1004.65 957.372L1003.59 979.251ZM1046.34 902.17L1045.79 914.995L1046.13 928.923L1047.12 985.745L1047.79 1020.73L1049.65 1042.72L1053.29 1014.13L1054.16 988.068L1055.43 958.056L1055.9 928.552L1055.73 914.962L1056.23 903.234L1055.82 880.666H1055.09L1055.49 903.205L1054.99 914.934L1055.17 928.548L1054.69 957.999L1053.42 987.996L1052.56 1013.98L1049.79 1035.68L1048.53 1020.63L1047.85 985.707L1046.87 928.885L1046.52 915.014L1047.07 902.189L1046.42 880.813L1045.68 880.875L1046.34 902.17ZM1020.51 994.998L1020.09 1024.41L1020.81 1043.14L1022.38 1064.42L1025.04 1103.26L1024.88 1129.97L1024.5 1150.05L1024.57 1158.23H1025.31L1025.23 1150.06L1025.62 1129.99L1025.77 1103.21L1023.11 1064.28L1021.54 1043.03L1020.82 1024.39L1021.25 994.998L1020.68 953.638L1021.22 935.588L1022.59 916.359L1024.51 895.714L1024.37 880.68H1023.64L1023.78 895.634L1021.85 916.207L1020.49 935.488L1019.94 953.629L1020.51 994.998ZM1053.88 1117.52L1054.72 1158.23H1055.45L1054.62 1117.49L1054.41 1095.25L1054.88 1072.12L1056.72 1054.06L1058.05 1039.77L1057.78 1025.24L1058.44 1009.43L1060.17 980.676L1060.9 944.1L1060.27 919.836L1060.82 903.395L1061.05 889.349L1060.43 880.68H1059.69L1060.29 889.387L1060.06 903.334L1059.52 919.817L1060.15 944.095L1059.42 980.581L1057.69 1009.32L1057.02 1025.2L1057.3 1039.68L1055.97 1053.86L1054.19 1072.01L1053.68 1095.24L1053.88 1117.52ZM1039.1 894.042L1040.37 900.792L1040.09 917.024L1040.49 930.909L1041.64 946.237L1042.03 980.439L1042.7 999.226L1042.26 1015.89L1042.7 1033.85L1046.18 1053.85L1047.94 1087.17L1049.56 1125.53L1050.18 1158.22H1050.93L1050.29 1125.48L1048.68 1087.08L1046.91 1053.63L1043.43 1033.74L1043 1015.89L1043.43 999.221L1042.76 980.396L1042.38 946.152L1041.23 930.804L1040.83 917.029L1041.1 900.64L1039.83 893.928L1039.48 880.69H1038.74L1039.1 894.042ZM1023.9 1000.13L1024.24 1013.37L1023.83 1024.25L1024.99 1037.45L1026.38 1049.59L1027.65 1079.04L1029.07 1128.35L1028.63 1145.9V1158.25H1029.36V1145.93L1029.81 1128.36L1028.39 1078.98L1027.11 1049.45L1025.72 1037.27L1024.58 1024.22L1024.97 1013.4L1024.63 1000.1L1024.04 968.635L1024.71 949.924L1026.39 925.123L1028.84 895.244L1029.79 887.644L1030.14 881.317L1029.41 881.207L1029.07 887.473L1028.12 895.073L1025.66 924.999L1023.99 949.848L1023.31 968.644L1023.9 1000.13ZM1049.31 925.94L1049.75 953.182L1050.22 978.791L1050.96 978.843L1052.71 955.519L1053.4 939.92L1053.43 922.448L1053.71 884.817H1052.98L1052.69 922.453V939.886L1051.99 955.42L1050.83 970.858L1050.52 953.163L1050.08 925.954L1050.42 906.184L1050.07 888.755L1049.33 888.793L1049.67 906.165L1049.31 925.94ZM1030.3 1015.06L1032.12 1003L1031.8 986.495L1030.81 968.174H1030.12L1028.69 999.938V1000.01L1030.3 1015.06ZM1030.47 975.632L1031.06 986.557L1031.39 1002.87L1030.41 1009.32L1029.37 999.948L1030.47 975.632ZM1030.3 1015.06L1032.12 1003L1031.8 986.495L1030.81 968.174H1030.12L1028.69 999.938V1000.01L1030.3 1015.06ZM1030.47 975.632L1031.06 986.557L1031.39 1002.87L1030.41 1009.32L1029.37 999.948L1030.47 975.632ZM1030.3 1015.06L1032.12 1003L1031.8 986.495L1030.81 968.174H1030.12L1028.69 999.938V1000.01L1030.3 1015.06ZM1030.47 975.632L1031.06 986.557L1031.39 1002.87L1030.41 1009.32L1029.37 999.948L1030.47 975.632ZM1030.3 1015.06L1032.12 1003L1031.8 986.495L1030.81 968.174H1030.12L1028.69 999.938V1000.01L1030.3 1015.06ZM1030.47 975.632L1031.06 986.557L1031.39 1002.87L1030.41 1009.32L1029.37 999.948L1030.47 975.632ZM1026.87 1016.65L1027.86 1034.6L1030.82 1065.95L1032.46 1090.97L1033.81 1074.68L1034.33 1044.55L1034.21 1026.26L1035.02 1001.97L1035.2 982.405L1034.79 965.542L1033.9 947.914L1033.42 933.797L1032.78 920.33L1029.54 930.567L1026.85 960.293L1025.96 990.452L1026.87 1016.65ZM1027.59 960.431L1030.24 931.046L1032.27 924.638L1032.71 933.896L1033.18 948.019L1034.08 965.637L1034.48 982.443L1034.3 1001.95L1033.5 1026.25L1033.62 1044.56L1033.1 1074.61L1032.57 1081.03L1031.56 1065.83L1028.61 1034.48L1027.62 1016.58L1026.73 990.49L1027.59 960.431ZM1032.12 1002.98L1031.8 986.476L1030.81 968.155H1030.12L1028.69 999.919V999.995L1030.38 1015.03L1032.12 1002.98ZM1030.47 975.632L1031.06 986.557L1031.39 1002.87L1030.41 1009.32L1029.37 999.948L1030.47 975.632ZM1030.3 1015.06L1032.12 1003L1031.8 986.495L1030.81 968.174H1030.12L1028.69 999.938V1000.01L1030.3 1015.06ZM1030.47 975.632L1031.06 986.557L1031.39 1002.87L1030.41 1009.32L1029.37 999.948L1030.47 975.632ZM1030.3 1015.06L1032.12 1003L1031.8 986.495L1030.81 968.174H1030.12L1028.69 999.938V1000.01L1030.3 1015.06ZM1030.47 975.632L1031.06 986.557L1031.39 1002.87L1030.41 1009.32L1029.37 999.948L1030.47 975.632ZM1030.3 1015.06L1032.12 1003L1031.8 986.495L1030.81 968.174H1030.12L1028.69 999.938V1000.01L1030.3 1015.06ZM1030.47 975.632L1031.06 986.557L1031.39 1002.87L1030.41 1009.32L1029.37 999.948L1030.47 975.632ZM1030.3 1015.06L1032.12 1003L1031.8 986.495L1030.81 968.174H1030.12L1028.69 999.938V1000.01L1030.3 1015.06ZM1030.47 975.632L1031.06 986.557L1031.39 1002.87L1030.41 1009.32L1029.37 999.948L1030.47 975.632ZM1059.57 1108.06L1059.89 1131.17L1060.48 1143.95L1060.74 1158.23H1061.48L1061.21 1143.88L1060.63 1131.11L1060.3 1108.08L1062.25 1052.59L1062.66 1028.14L1062.44 1011.34L1063.47 992.291L1066.23 1026.67L1067.9 1066.37L1067.62 1104.98L1068.28 1158.23H1069L1068.35 1104.97L1068.64 1066.34L1066.97 1026.55L1063.32 981.284L1061.7 1011.3L1061.92 1028.13L1061.51 1052.54L1059.57 1108.06ZM1007.06 1138.25L1008.55 1154.67L1008.66 1158.23H1009.39L1009.28 1154.55L1007.77 1138L1003.35 1113.92L1003.51 1084.28L1006.12 1059.68L1007.97 1051.05L1009.79 1044.22L1011.94 1058.21L1012.54 1074.36L1011.57 1108.01V1123.68L1011.3 1138.67L1011.62 1150.32V1158.24H1012.35V1150.3L1012.04 1138.66L1012.31 1123.7V1108.04L1013.28 1074.37L1012.66 1058.05L1009.98 1040.53L1007.28 1050.63L1005.42 1059.38L1002.8 1084.17L1002.63 1114V1114.09L1007.06 1138.25ZM1037.19 1158.23H1037.92L1037.03 1142.08L1037.9 1112.41L1038.38 1098.88L1039.57 1086.96L1041.88 1062.18L1044.51 1075.27L1045.15 1091.94L1046.03 1108.46L1045.98 1127.77L1046.67 1146.04L1046.26 1156.86L1046.34 1158.21H1047.08L1046.99 1156.84L1047.41 1146.04L1046.71 1127.73L1046.76 1108.4L1045.89 1091.85L1045.24 1075.12L1041.61 1057.03L1038.84 1086.78L1037.64 1098.76L1037.17 1112.35L1036.29 1142.1L1037.19 1158.23ZM1005.66 1097.48L1007.46 1121.88L1009.48 1107.2L1010.15 1078.13L1009.01 1065.73L1006.26 1079.46L1005.39 1086.33L1005.66 1097.48ZM1006.98 1079.76L1008.75 1070.92L1009.42 1078.2L1008.75 1107L1007.68 1114.8L1006.39 1097.38L1006.12 1086.43L1006.98 1079.76ZM1063.94 1148.23L1063.86 1158.21H1064.6L1064.67 1148.21L1063.59 1087.17L1063.76 1079.69L1064.27 1083.75L1065.01 1108.63L1066.01 1131.33L1066.79 1154.17L1066.7 1158.21H1067.43L1067.53 1154.16L1066.74 1131.26L1065.75 1108.56L1065 1083.6L1063.24 1069.67L1062.86 1087.17L1063.94 1148.23ZM989.795 1158.21H990.536L989.937 1152.44L990.355 1132.26L991.134 1116.07L993.548 1138.62L994.464 1158.21H995.201L994.251 1138.48L990.835 1106.49L989.6 1132.19L989.182 1152.51L989.795 1158.21ZM1041.07 1158.21H1041.8L1041.4 1128.82L1042.19 1114.83L1043.5 1118.91L1043.97 1138.57L1044.45 1154.36L1044.28 1158.21H1045.01L1045.18 1154.37L1044.7 1138.52L1044.23 1118.74L1041.7 1110.66L1040.67 1128.77L1041.07 1158.21Z" fill="#BA4B00"/>
<path d="M1200.7 1116.08L951.946 1118.16L952.329 1163.88L1201.08 1161.8L1200.7 1116.08Z" fill="#FF8C3E"/>
<path d="M952.045 1118.04L960.648 1108.65L1212.13 1106.52L1212.56 1156.5L1201.19 1161.66L1200.8 1115.94L952.045 1118.04Z" fill="#FEBD57"/>
<g opacity="0.49">
<path opacity="0.49" d="M1200.8 1115.94L1212.13 1106.52L1212.56 1156.5L1201.19 1161.66L1200.8 1115.94Z" fill="#FF8C3E"/>
</g>
<path opacity="0.39" d="M986.09 1095.98L1022.4 1095.79L1038.38 1095.35L961.84 1095.99L986.09 1095.98ZM1206.32 1094.02V1093.93H1204.48L1206.32 1094.02ZM1129.44 1102.17L1107.11 1104.46L1087.47 1104.17L1076.58 1104.25L1052.9 1105.96L1036.29 1107.26L1019.32 1105.52L1008.22 1103.25L989.182 1102.88L972.794 1105.14L940.844 1104.3L928.826 1104.92V1105.65L940.854 1105.03L972.808 1105.88H972.889L989.282 1103.63L1007.91 1103.97L1019.03 1106.23L1036.26 1108.01L1053.01 1106.69L1076.62 1104.98L1087.43 1104.9L1107.15 1105.19L1129.68 1102.88L1136.98 1101.46L1155.61 1101.65L1178.38 1102.45L1206.38 1103.01V1102.28L1178.45 1101.72L1155.65 1100.91L1136.91 1100.72H1136.81L1129.44 1102.17ZM1139.5 1095.99L1120.97 1097.68L1099.12 1100.76L1078.32 1098.76L1056.56 1101.35L1038.56 1102.19L1014.26 1100.89L997.281 1098.75H997.196L974.371 1099.85L960.553 1099.05L943.181 1100.98L928.788 1099.47V1100.22L943.062 1101.72H943.167L960.586 1099.78L974.362 1100.58L997.124 1099.48L1014.09 1101.62L1038.56 1102.92L1056.72 1102.08L1078.34 1099.51L1099.16 1101.51L1121.19 1098.4L1139.54 1096.73L1182.32 1098.15L1206.2 1097.75H1206.35V1097.01H1206.24L1182.36 1097.41L1139.5 1095.99ZM1077.23 1115.59L1044.81 1116.87L1028.43 1118.07L1015.13 1116.69L1002.08 1115.7L992.731 1114.66L971.91 1116.42L943.409 1120.44L928.978 1120.5V1121.23L943.533 1121.17L972.1 1117.14L992.683 1115.4L1001.88 1116.42L1014.93 1117.42L1028.3 1118.8H1028.39L1044.9 1117.59L1077.24 1116.31L1131.35 1117.13L1145.18 1115.16L1159.58 1115.93L1182.6 1116.88L1195.83 1118.26L1206.2 1118.64H1206.52V1117.9H1206.27L1195.98 1117.53L1182.75 1116.15L1159.68 1115.2L1145.11 1114.42L1131.25 1116.39L1077.23 1115.59ZM1046.17 1111.61L1024.83 1112.37L1015.83 1111.89L1008.84 1110.29L991.434 1110.61L980.081 1111.06L962.477 1113.75L938.103 1114.87L928.935 1115.59V1116.33L938.208 1115.6L962.647 1114.48L980.247 1111.78L991.476 1111.35L1008.63 1111.03L1015.48 1112.6L1024.8 1113.1L1046.31 1112.34L1056.64 1111.01L1063.7 1110.86L1101.52 1111.63L1122.01 1111.92L1135.74 1110.69L1150.58 1112.36L1194.35 1111.98L1206.47 1112.07V1111.34L1194.37 1111.24L1150.69 1111.63L1135.77 1109.95L1121.95 1111.19L1101.58 1110.89L1077.23 1110.38L1063.71 1110.12L1056.52 1110.29L1046.17 1111.61ZM1181.36 1147.38L1179.24 1148.76L1160.21 1151.54L1099.32 1153.82L1053.07 1154.66L1032.37 1153.84L1010.92 1153.65L994.341 1152.38L985.79 1150.66L971.407 1150.64L957.056 1150.07L934.507 1150.57L929.225 1150.71V1151.44L934.541 1151.3L957.023 1150.8L971.355 1151.37H985.501L994.051 1153.08L1010.81 1154.37L1032.29 1154.56L1053.02 1155.38L1099.33 1154.54L1160.35 1152.25L1179.83 1149.4L1181.85 1148.08L1193.74 1147.85L1206.75 1148.28V1147.52L1193.77 1147.11L1181.36 1147.38ZM1132.9 1104.8L1108.39 1107.65L1108.5 1108.39L1129.4 1108.14L1147.18 1108.61L1162.38 1108.7L1172.22 1108.83L1183.53 1108.43L1206.46 1110V1109.26L1183.58 1107.7L1172.21 1108.1L1162.42 1107.96L1147.22 1107.88L1129.42 1107.4L1115.58 1107.57L1133.04 1105.52L1141.91 1105.33L1175.21 1105.71L1189.19 1106.14L1206.45 1107.17V1106.44L1189.29 1105.41L1175.27 1104.97L1141.92 1104.59L1132.9 1104.8ZM1105.35 1185.08L1064.69 1188.51L1038.59 1188.85L1011.09 1189.38L987.296 1189.59L962.153 1190.36L939.072 1189.99L929.572 1190.15V1190.87L939.072 1190.71L962.172 1191.08L987.348 1190.3L1011.13 1190.09L1038.64 1189.57L1064.79 1189.22L1105.59 1185.79L1127.17 1182.6L1160.9 1182.44L1198.61 1182.23H1207.09V1181.49H1198.63L1160.91 1181.7L1127.1 1181.87H1127.02L1105.35 1185.08ZM1118.08 1132.06L1086.96 1131.81L1064.27 1131.84L1041.66 1134.06L975.967 1135.85L950.14 1136.7L929.149 1137.96V1138.71L950.216 1137.43L976.01 1136.58L1041.78 1134.78L1064.36 1132.56L1086.96 1132.54L1118.15 1132.78L1135.75 1131.42L1154.54 1132.41L1196 1133.41L1206.68 1133.94V1133.21L1196.09 1132.68L1154.63 1131.67L1135.81 1130.68H1135.75L1118.08 1132.06ZM1137.31 1127.91L1101.92 1127.82L1082.1 1127.97L1064.52 1127.75L1052.92 1128.48L1037.78 1130.69L1003.16 1131.89L968.443 1131.6L954.192 1132.4L929.068 1133.29V1134.03L942.915 1133.56L954.268 1133.14L968.466 1132.35L1003.14 1132.64L1037.91 1131.42L1053.07 1129.21L1064.53 1128.49L1082.03 1128.71L1101.87 1128.56L1137.25 1128.65L1162.62 1128.55L1175.38 1127.91L1186.73 1128.35L1203.31 1128.7L1206.58 1128.83V1128.08L1203.38 1127.97L1186.81 1127.61L1175.41 1127.18L1162.59 1127.81L1137.31 1127.91ZM1107.97 1120.04L1083.4 1118.81L1069.03 1119.17L1062.52 1119.54L1045.49 1121.29L1057.49 1124.81L1077.71 1125.24L1091.66 1125.65L1113.82 1125.13L1129.02 1125.51L1144.49 1124.8L1177.01 1124.16L1199.78 1125.27L1206.6 1125.87V1125.12L1199.92 1124.54L1177.05 1123.42L1144.44 1124.07L1129.02 1124.78L1113.85 1124.4L1091.69 1124.92L1077.77 1124.51L1057.91 1124.11L1049.44 1121.63L1062.66 1120.27L1069.11 1119.91L1083.36 1119.54L1107.87 1120.78L1129.92 1121.68L1148.82 1120.16L1184.61 1120.7L1198.95 1121.54L1206.57 1122.05V1121.31L1199.08 1120.81L1184.7 1119.96L1148.77 1119.42L1129.9 1120.95L1107.97 1120.04ZM1185.4 1162.16L1172.57 1161.72L1158.65 1162.19L1101.85 1163.63L1066.87 1164.58L1044.89 1166.63L1073.51 1170.03L1099.58 1170.67L1129.6 1171.69L1159.11 1171.93L1172.7 1171.64L1184.43 1172.04L1207 1171.44V1170.71L1184.46 1171.31L1172.72 1170.9L1159.12 1171.2L1129.66 1170.96L1099.66 1169.94L1073.67 1169.3L1051.94 1166.71L1066.99 1165.32L1101.9 1164.37L1158.71 1162.9L1172.58 1162.42L1185.4 1162.87L1206.78 1162.03L1206.71 1161.29L1185.4 1162.16ZM1092.35 1137.11L1062.93 1136.93L1044.21 1137.81L1022.94 1139.57L984.118 1142.55L957.422 1142.62L937.329 1142.41L929.154 1142.54V1143.29L937.319 1143.14L957.398 1143.36L984.18 1143.28L1023.08 1140.3L1044.32 1138.54L1062.96 1137.67L1092.35 1137.84L1133.7 1136.93L1151.75 1137.32L1170.99 1138.52L1191.65 1140.27L1206.68 1140V1139.27L1191.73 1139.54L1171.14 1137.78L1151.85 1136.58L1133.71 1136.19L1092.35 1137.11ZM970.12 1171.52L929.41 1172.69V1173.43L970.148 1172.25L992.384 1171.85L1015.51 1172.16L1033.61 1173.79L1047.91 1174.99L1062.43 1174.6L1078.25 1175.14L1107.02 1176.62L1143.6 1177.04L1167.86 1176.2L1184.3 1176.61L1198.35 1176.72L1207 1176.05V1175.31L1198.3 1175.99L1184.35 1175.88L1167.87 1175.47L1143.6 1176.3L1107.1 1175.89L1078.36 1174.4L1062.46 1173.87L1047.99 1174.26L1033.8 1173.06L1015.63 1171.43L992.398 1171.12L970.12 1171.52ZM1193.45 1154.84L1186.72 1156.16L1170.48 1156.03L1156.6 1156.54L1141.28 1157.83L1107.08 1158.5L1088.3 1159.33L1071.64 1159.04L1053.67 1159.63L1033.72 1163.28L1000.41 1165.32L962.068 1167.26L929.382 1168.16V1168.9L962.125 1167.99L1000.51 1166.05L1033.94 1164L1053.8 1160.36L1071.64 1159.77L1088.32 1160.07L1107.14 1159.24L1141.38 1158.56L1156.72 1157.28L1170.49 1156.77L1186.88 1156.9L1193.58 1155.57L1206.82 1155.09V1154.36L1193.45 1154.84ZM1087.25 1140.55L1074.01 1141.02L1063.12 1140.72L1049.94 1141.98L1037.81 1143.47L1008.36 1144.99L959.061 1146.85L941.514 1146.55L929.163 1146.65V1147.39L941.481 1147.28L959.056 1147.58L1008.42 1145.72L1037.93 1144.2L1050.1 1142.71L1063.14 1141.45L1073.97 1141.76L1087.27 1141.29L1118.72 1140.44L1137.44 1140.94L1162.25 1142.41L1192.15 1144.61L1199.78 1145.5L1206.11 1145.8L1206.21 1145.07L1199.94 1144.77L1192.34 1143.88L1162.39 1141.68L1137.54 1140.21L1118.73 1139.7L1087.25 1140.55ZM1161.64 1165.33L1134.41 1166.01L1108.81 1166.68L1108.76 1167.42L1132.1 1168.97L1147.71 1169.53L1165.17 1169.41L1202.8 1169.38V1168.64L1165.17 1168.67L1147.73 1168.8L1132.2 1168.24L1116.75 1167.21L1134.44 1166.73L1161.64 1166.06L1181.42 1166.24L1198.82 1165.76L1198.77 1165.03L1181.41 1165.5L1161.64 1165.33ZM1072.4 1147.1L1084.47 1148.82L1100.97 1148.34L1119.28 1147.2V1146.47L1087.5 1145.29H1087.43L1072.4 1147.1ZM1111.82 1146.93L1100.9 1147.62L1084.59 1148.09L1078.1 1147.17L1087.46 1146.04L1111.82 1146.93ZM1072.4 1147.1L1084.47 1148.82L1100.97 1148.34L1119.28 1147.2V1146.47L1087.5 1145.29H1087.43L1072.4 1147.1ZM1111.82 1146.93L1100.9 1147.62L1084.59 1148.09L1078.1 1147.17L1087.46 1146.04L1111.82 1146.93ZM1072.4 1147.1L1084.47 1148.82L1100.97 1148.34L1119.28 1147.2V1146.47L1087.5 1145.29H1087.43L1072.4 1147.1ZM1111.82 1146.93L1100.9 1147.62L1084.59 1148.09L1078.1 1147.17L1087.46 1146.04L1111.82 1146.93ZM1072.4 1147.1L1084.47 1148.82L1100.97 1148.34L1119.28 1147.2V1146.47L1087.5 1145.29H1087.43L1072.4 1147.1ZM1111.82 1146.93L1100.9 1147.62L1084.59 1148.09L1078.1 1147.17L1087.46 1146.04L1111.82 1146.93ZM1070.78 1143.67L1052.83 1144.82L1021.48 1148.04L996.488 1149.9L1012.78 1151.11L1042.92 1151.37L1061.21 1151.1L1085.51 1151.71H1105.07L1121.93 1151.16L1139.55 1150.12L1153.62 1149.54L1167.08 1148.79L1156.82 1145.62L1127.07 1143.19L1096.91 1142.55L1070.78 1143.67ZM1127 1143.93L1156.41 1146.3L1162.83 1148.28L1153.58 1148.8L1139.46 1149.37L1121.85 1150.42L1105.05 1150.96H1085.54L1061.23 1150.36L1042.93 1150.63L1012.87 1150.37L1006.45 1149.89L1021.65 1148.76L1053 1145.54L1070.89 1144.4L1096.97 1143.29L1127 1143.93ZM1084.49 1148.82L1100.99 1148.34L1119.3 1147.2V1146.47L1087.53 1145.29H1087.45L1072.43 1147.1L1084.49 1148.82ZM1111.82 1146.92L1100.9 1147.6L1084.59 1148.08L1078.1 1147.17L1087.46 1146.04L1111.82 1146.92ZM1072.4 1147.09L1084.47 1148.8L1100.97 1148.33L1119.28 1147.19V1146.45L1087.5 1145.28H1087.43L1072.4 1147.09ZM1111.82 1146.92L1100.9 1147.6L1084.59 1148.08L1078.1 1147.17L1087.46 1146.04L1111.82 1146.92ZM1072.4 1147.09L1084.47 1148.8L1100.97 1148.33L1119.28 1147.19V1146.45L1087.5 1145.28H1087.43L1072.4 1147.09ZM1111.82 1146.92L1100.9 1147.6L1084.59 1148.08L1078.1 1147.17L1087.46 1146.04L1111.82 1146.92ZM1072.4 1147.09L1084.47 1148.8L1100.97 1148.33L1119.28 1147.19V1146.45L1087.5 1145.28H1087.43L1072.4 1147.09ZM1111.82 1146.92L1100.9 1147.6L1084.59 1148.08L1078.1 1147.17L1087.46 1146.04L1111.82 1146.92ZM1072.4 1147.09L1084.47 1148.8L1100.97 1148.33L1119.28 1147.19V1146.45L1087.5 1145.28H1087.43L1072.4 1147.09ZM1111.82 1146.92L1100.9 1147.6L1084.59 1148.08L1078.1 1147.17L1087.46 1146.04L1111.82 1146.92ZM979.663 1177.12L956.558 1177.64L943.794 1178.33L929.51 1178.72V1179.47L943.856 1179.08L956.615 1178.39L979.648 1177.87L1035.15 1179.34L1059.61 1179.55L1076.4 1179.19L1095.46 1180.05L1061.1 1183.11L1021.42 1185.12L982.812 1185.16L929.567 1186.26V1187L982.817 1185.89L1021.45 1185.85L1061.22 1183.84L1106.46 1179.81L1076.43 1178.45L1059.61 1178.81L1035.19 1178.61L979.663 1177.12ZM949.029 1124.86L932.631 1126.5L929.068 1126.64V1127.37L932.75 1127.23L949.285 1125.58L973.326 1120.95L1002.97 1120.87L1027.59 1123.27L1036.24 1125.04L1043.07 1126.81L1029.1 1129.07L1012.95 1129.81L979.292 1129.12L963.617 1129.25L948.63 1129.11L936.973 1129.53L929.054 1129.6V1130.33L937.001 1130.26L948.639 1129.84L963.602 1129.98L979.278 1129.85L1012.96 1130.54L1029.27 1129.78L1046.76 1126.93L1036.65 1124.31L1027.86 1122.52L1003.05 1120.1L973.226 1120.18H973.131L949.029 1124.86ZM929.311 1155.17V1155.9L945.438 1154.87L975.112 1155.49L988.645 1155.84L1000.58 1156.93L1025.37 1159.03L1012.31 1161.78L995.652 1162.56L979.135 1163.57L959.831 1163.68L941.561 1164.54L930.736 1164.21L929.382 1164.31V1165.05L930.764 1164.94L941.561 1165.27L959.864 1164.42L979.188 1164.3L995.737 1163.29L1012.46 1162.5L1030.51 1158.73L1000.75 1156.2L988.759 1155.11L975.16 1154.76L945.4 1154.13L929.311 1155.17ZM989.743 1123.13L965.36 1125.14L980.057 1127.04L1009.13 1127.47L1021.52 1126.23L1007.75 1123.6L1000.87 1122.77L989.743 1123.13ZM1007.47 1124.3L1016.33 1125.99L1009.06 1126.73L980.252 1126.3L972.438 1125.3L989.847 1123.88L1000.81 1123.51L1007.47 1124.3ZM939.49 1181.84H929.515V1182.57H939.524L1000.55 1180.98L1008.03 1181.08L1003.97 1181.63L979.107 1182.58L956.406 1183.77L933.581 1184.75L929.534 1184.68V1185.42L933.586 1185.49L956.477 1184.5L979.169 1183.32L1004.12 1182.36L1018.03 1180.49L1000.54 1180.26L939.49 1181.84ZM928.869 1107.79V1108.53L934.636 1107.89L954.814 1108.13L971.017 1108.78L948.482 1111.38L928.902 1112.46V1113.2L948.625 1112.1L980.589 1108.42L954.871 1107.4L934.545 1107.16L928.869 1107.79ZM929.306 1159.07V1159.8L958.695 1159.15L972.685 1159.82L968.619 1161.16L948.962 1161.8L933.177 1162.4L929.325 1162.26V1163L933.163 1163.13L949.01 1162.53L968.789 1161.89L976.841 1159.28L958.724 1158.41L929.306 1159.07Z" fill="#BA4B00"/>
<path d="M248.18 552.095C248.18 552.095 230.605 540.343 229.469 512.193C228.334 484.043 233.516 460.416 233.516 460.416C233.516 460.416 261.243 484.495 263.761 506.574C266.279 528.653 248.18 552.095 248.18 552.095Z" fill="#A9C4FF"/>
<path d="M269.342 552.095C269.342 552.095 286.918 540.343 288.053 512.193C289.189 484.043 284.006 460.416 284.006 460.416C284.006 460.416 256.279 484.495 253.762 506.574C251.244 528.653 269.342 552.095 269.342 552.095Z" fill="#A9C4FF"/>
<path d="M263.842 551.915C263.842 551.915 279.289 537.503 275.907 509.514C272.525 481.526 263.619 459.067 263.619 459.067C263.619 459.067 240.11 487.284 241.164 509.481C242.219 531.679 263.842 551.915 263.842 551.915Z" fill="#BBCEFF"/>
<path d="M258.797 551.914C258.797 551.914 279.223 546.48 289.426 520.206C299.63 493.933 302.356 469.921 302.356 469.921C302.356 469.921 268.326 483.725 258.797 503.799C249.268 523.874 258.797 551.914 258.797 551.914Z" fill="#C7D8FF"/>
<path d="M258.726 551.914C258.726 551.914 238.3 546.48 228.097 520.206C217.893 493.933 215.167 469.921 215.167 469.921C215.167 469.921 249.197 483.725 258.726 503.799C268.255 523.874 258.726 551.914 258.726 551.914Z" fill="#C7D8FF"/>
<path d="M256.146 548.366C256.146 548.366 239.473 549.559 225.075 532.529C216.244 522.01 208.657 510.507 202.464 498.247C202.464 498.247 231.469 499.815 243.763 512.379C256.056 524.943 256.146 548.366 256.146 548.366Z" fill="#DCE8FF"/>
<path d="M261.376 548.366C261.376 548.366 278.05 549.559 292.447 532.529C301.279 522.01 308.866 510.507 315.058 498.247C315.058 498.247 286.054 499.815 273.76 512.379C261.467 524.943 261.376 548.366 261.376 548.366Z" fill="#DCE8FF"/>
<path d="M227.317 603.102H280.971L288.823 547.439H219.465L227.317 603.102Z" fill="#F2F4FF"/>
<path d="M214.962 550.902H293.326C294.551 550.902 295.544 549.909 295.544 548.684V538.59C295.544 537.365 294.551 536.372 293.326 536.372H214.962C213.737 536.372 212.744 537.365 212.744 538.59V548.684C212.744 549.909 213.737 550.902 214.962 550.902Z" fill="white"/>
</svg>
