<svg width="375" height="385" viewBox="0 0 375 385" fill="none" xmlns="http://www.w3.org/2000/svg">
<defs>
<linearGradient id="paint0_linear" x1="-379.209" y1="25.3399" x2="-382.692" y2="366.871" gradientUnits="userSpaceOnUse">
<stop stop-color="#FFF4ED"/>
<stop offset="1" stop-color="#FFCCE2"/>
</linearGradient>
<linearGradient id="paint1_linear" x1="-263.594" y1="228.273" x2="-266.718" y2="353.459" gradientUnits="userSpaceOnUse">
<stop stop-color="#FFF4ED"/>
<stop offset="1" stop-color="#FFCCE2"/>
</linearGradient>
</defs>
<mask id="mask0" mask-type="alpha" maskUnits="userSpaceOnUse" x="0" y="32" width="366" height="320">
<path fill-rule="evenodd" clip-rule="evenodd" d="M174.303 33.8945C163.675 34.8261 153.597 36.4065 144.437 38.5096C140.739 39.3566 137.041 40.3021 133.343 41.3328C92.7629 52.6459 52.0404 73.9647 0.520508 86.1574V335.882C32.0094 336.016 65.7026 339.878 99.4124 343.741C175.492 352.457 251.704 361.174 303.109 327.019C303.49 326.765 303.871 326.511 304.252 326.243C307.245 324.21 310.153 322.023 312.961 319.68C330.152 305.368 343.941 285.199 353.215 257.196C355.388 250.633 357.308 243.632 358.973 236.166C381.288 135.87 344.802 80.8104 292.467 54.1202C262.835 38.9781 228.12 32.9497 196.135 32.9497C188.677 32.9504 181.364 33.2783 174.303 33.8945Z" fill="white"/>
</mask>
<g mask="url(#mask0)">
<path fill-rule="evenodd" clip-rule="evenodd" d="M174.303 33.8945C163.675 34.8261 153.597 36.4065 144.437 38.5096C140.739 39.3566 137.041 40.3021 133.343 41.3328C92.7629 52.6459 52.0404 73.9647 0.520508 86.1574V335.882C32.0094 336.016 65.7026 339.878 99.4124 343.741C175.492 352.457 251.704 361.174 303.109 327.019C303.49 326.765 303.871 326.511 304.252 326.243C307.245 324.21 310.153 322.023 312.961 319.68C330.152 305.368 343.941 285.199 353.215 257.196C355.388 250.633 357.308 243.632 358.973 236.166C381.288 135.87 344.802 80.8104 292.467 54.1202C262.835 38.9781 228.12 32.9497 196.135 32.9497C188.677 32.9504 181.364 33.2783 174.303 33.8945Z" fill="url(#paint0_linear)"/>
</g>
<mask id="mask1" mask-type="alpha" maskUnits="userSpaceOnUse" x="0" y="54" width="366" height="298">
<path fill-rule="evenodd" clip-rule="evenodd" d="M127.401 184.522C93.4699 210.318 48.5552 228.179 0.520508 235.31V335.882C32.0094 336.015 65.7026 339.878 99.4124 343.741C175.492 352.457 251.704 361.174 303.109 327.019C303.49 326.765 303.871 326.511 304.252 326.243C304.845 325.847 305.438 325.439 306.017 325.015C308.162 323.505 310.251 321.909 312.283 320.23C312.509 320.046 312.735 319.863 312.961 319.68C330.152 305.368 343.941 285.198 353.215 257.196C355.388 250.633 357.308 243.632 358.973 236.166C381.288 135.869 344.802 80.8103 292.467 54.1201C222.403 56.6744 183.816 141.614 127.401 184.522Z" fill="white"/>
</mask>
<g mask="url(#mask1)">
<path fill-rule="evenodd" clip-rule="evenodd" d="M127.401 184.522C93.4699 210.318 48.5552 228.179 0.520508 235.31V335.882C32.0094 336.015 65.7026 339.878 99.4124 343.741C175.492 352.457 251.704 361.174 303.109 327.019C303.49 326.765 303.871 326.511 304.252 326.243C304.845 325.847 305.438 325.439 306.017 325.015C308.162 323.505 310.251 321.909 312.283 320.23C312.509 320.046 312.735 319.863 312.961 319.68C330.152 305.368 343.941 285.198 353.215 257.196C355.388 250.633 357.308 243.632 358.973 236.166C381.288 135.869 344.802 80.8103 292.467 54.1201C222.403 56.6744 183.816 141.614 127.401 184.522Z" fill="url(#paint1_linear)"/>
</g>
<path fill-rule="evenodd" clip-rule="evenodd" d="M194.895 66.3568C194.895 86.1736 178.848 102.221 159.031 102.221C139.215 102.221 123.167 86.1736 123.167 66.3568C123.167 56.6179 127.034 47.7968 133.343 41.3324C137.041 40.3023 140.739 39.3562 144.437 38.5098C153.597 36.4068 163.675 34.8257 174.303 33.894C186.483 39.6244 194.895 52.0029 194.895 66.3568Z" fill="white"/>
<path fill-rule="evenodd" clip-rule="evenodd" d="M131.396 66.3568C131.396 81.6195 143.769 93.9924 159.031 93.9924C174.294 93.9924 186.667 81.6195 186.667 66.3568C186.667 51.0941 174.294 38.7212 159.031 38.7212C143.769 38.7212 131.396 51.0941 131.396 66.3568Z" fill="white"/>
<path fill-rule="evenodd" clip-rule="evenodd" d="M139.624 66.3568C139.624 77.0745 148.313 85.7639 159.031 85.7639C169.749 85.7639 178.438 77.0745 178.438 66.3568C178.438 55.6385 169.749 46.9497 159.031 46.9497C148.313 46.9497 139.624 55.6385 139.624 66.3568Z" fill="white"/>
<path fill-rule="evenodd" clip-rule="evenodd" d="M101.084 234.984L120.804 325.012H110.401L92.0886 234.984H101.084Z" fill="#FFB3DD"/>
<path fill-rule="evenodd" clip-rule="evenodd" d="M64.7571 234.984L47.8051 325.012H37.0798L56.1078 234.984H64.7571Z" fill="#FFB3DD"/>
<path fill-rule="evenodd" clip-rule="evenodd" d="M92.034 170.047L80.696 229.573H67.8115L79.9224 170.047H92.034Z" fill="#FFB3DD"/>
<path fill-rule="evenodd" clip-rule="evenodd" d="M312.283 320.23C310.251 321.909 308.162 323.504 306.017 325.015H302.925L284.605 234.979H293.596L312.283 320.23Z" fill="#FFB3DD"/>
<path fill-rule="evenodd" clip-rule="evenodd" d="M257.276 234.984L240.324 325.012H229.599L248.627 234.984H257.276Z" fill="#FFB3DD"/>
<path fill-rule="evenodd" clip-rule="evenodd" d="M302.957 170.047L291.619 229.573H278.734L290.845 170.047H302.957Z" fill="#FFB3DD"/>
<mask id="mask2" mask-type="alpha" maskUnits="userSpaceOnUse" x="0" y="0" width="375" height="385">
<path fill-rule="evenodd" clip-rule="evenodd" d="M0.520508 384.87H374.827V0.693359H0.520508V384.87Z" fill="white"/>
</mask>
<g mask="url(#mask2)">
<path fill-rule="evenodd" clip-rule="evenodd" d="M58.8707 197.62H317.592V186.797H58.8707V197.62Z" fill="#FFC5E8"/>
<path fill-rule="evenodd" clip-rule="evenodd" d="M58.8707 174.44H325.37V163.617H58.8707V174.44Z" fill="#FFC5E8"/>
<path fill-rule="evenodd" clip-rule="evenodd" d="M54.7478 218.234H313.469V207.411H54.7478V218.234Z" fill="#FFC5E8"/>
<path fill-rule="evenodd" clip-rule="evenodd" d="M37.0798 240.396H313.323V229.573H37.0798V240.396Z" fill="#FFC5E8"/>
<path fill-rule="evenodd" clip-rule="evenodd" d="M114.85 121.078C114.85 121.713 114.766 122.306 114.624 122.871C113.82 126.385 110.842 128.883 108.852 132.454C108.188 133.612 107.638 134.896 107.299 136.364V136.378C107.172 136.914 107.073 137.479 107.017 138.043C106.875 139.483 106.678 140.88 106.494 142.249C106.255 144 106.043 145.693 106 147.316C103.615 148.177 100.27 149.151 97.0942 149.208C95.8382 149.236 94.6383 149.123 93.5091 148.813C95.5983 142.687 96.4731 136.095 92.9303 129.504C91.9987 127.782 91.0533 125.087 90.6582 121.967C90.0371 117.183 90.7289 111.41 94.709 106.681C101.315 98.8484 104.928 99.2151 104.928 99.2151C105.52 101.417 106.184 103.28 106.875 104.903C107.68 106.753 108.527 108.276 109.36 109.603C112.013 113.837 114.512 116.082 114.822 120.358C114.836 120.612 114.85 120.852 114.85 121.078Z" fill="#FFB48D"/>
<path fill-rule="evenodd" clip-rule="evenodd" d="M114.85 121.078C114.85 121.713 114.766 122.305 114.624 122.87C113.467 118.707 110.207 114.063 109.36 109.603C112.013 113.837 114.512 116.082 114.822 120.358C114.836 120.612 114.85 120.852 114.85 121.078Z" fill="#FFCCB6"/>
<path fill-rule="evenodd" clip-rule="evenodd" d="M108.851 132.454C108.188 133.612 107.638 134.896 107.299 136.364V136.378C107.172 136.915 107.073 137.479 107.017 138.043C106.875 139.483 106.678 140.88 106.495 142.249C104.434 141.445 103.347 135.235 103.347 135.235C103.347 135.235 106.339 134.67 108.851 132.454Z" fill="#FFA780"/>
<path fill-rule="evenodd" clip-rule="evenodd" d="M131.307 229.758C129.204 229.024 125.747 226.37 123.319 223.957C122.401 223.04 121.625 222.164 121.131 221.444C121.131 221.444 119.438 218.438 117.038 213.738C111.66 203.209 102.74 184.155 101.343 171.297C99.3241 152.694 106.297 138.905 106.015 141.967C105.718 145.044 110.955 146.681 119.606 154.119C127.115 160.584 127.412 186.879 125.45 199.906C125.153 201.896 124.801 203.562 124.405 204.818C124.278 205.241 124.165 205.65 124.095 206.06C123.855 207.161 123.784 208.219 123.841 209.25V209.264C124.264 216.462 130.898 221.967 132.86 227.528C133.664 229.842 132.846 230.308 131.307 229.758Z" fill="#FFB48D"/>
<path fill-rule="evenodd" clip-rule="evenodd" d="M131.307 229.758C129.501 226.455 124.956 221.444 123.403 217.182C121.992 213.343 122.062 211.028 123.841 209.264C124.264 216.462 130.898 221.967 132.86 227.528C133.664 229.842 132.846 230.308 131.307 229.758Z" fill="#FFCCB6"/>
<path fill-rule="evenodd" clip-rule="evenodd" d="M125.45 199.906C125.153 201.896 124.8 203.561 124.405 204.818C124.278 205.241 124.165 205.65 124.095 206.06C122.853 206.045 121.583 206.159 120.806 207.556C119.168 210.548 120.411 219.412 123.319 223.957C123.445 224.14 123.558 224.324 123.686 224.493C121.244 223.124 118.872 218.664 117.038 213.738C115.005 208.247 113.636 202.164 113.565 199.087C113.453 193.272 124.49 199.087 124.49 199.087C124.49 199.087 124.913 199.384 125.45 199.906Z" fill="#FBB26B"/>
<path fill-rule="evenodd" clip-rule="evenodd" d="M150.968 245.198C150.884 246.201 149.741 247.782 147.821 249.786C147.27 250.365 146.65 250.971 145.972 251.621C144.787 252.736 143.432 253.95 141.936 255.234C137.362 259.157 131.477 263.758 125.28 268.445C108.47 281.133 89.3033 294.443 87.567 296.56C82.9374 300.893 80.0164 306.892 79.7481 310.448C79.536 313.116 76.9533 311.691 75.4859 309.094C75.0055 308.233 74.6527 307.245 74.5397 306.228C74.3283 304.225 74.4551 301.712 74.7234 299.467C75.0055 297.139 75.4283 295.106 75.7534 294.26C76.3884 292.58 75.4997 293.074 76.7842 292.651C78.0686 292.227 83.9965 289.193 84.4339 288.924C85.9581 288.148 112.31 262.686 121.202 251.465C122.895 249.32 123.954 247.697 124.094 246.864C124.97 241.6 110.813 232.99 117.164 230.505C122.98 228.233 132.521 231.663 134.102 232.27C134.243 232.326 134.328 232.355 134.328 232.355C134.963 232.821 135.613 233.258 136.262 233.653C138.209 234.853 140.199 235.756 142.049 236.546C147.214 238.762 151.363 240.202 150.968 245.198Z" fill="#FFB48D"/>
<path fill-rule="evenodd" clip-rule="evenodd" d="M150.968 245.198C150.884 246.201 149.741 247.782 147.821 249.786C147.877 248.219 147.778 245.848 146.804 243.971C145.436 241.331 142.105 239.017 142.049 236.546C147.214 238.762 151.363 240.202 150.968 245.198Z" fill="#FFCCB6"/>
<path fill-rule="evenodd" clip-rule="evenodd" d="M145.972 251.621C144.787 252.735 143.432 253.949 141.936 255.233C136.939 251.409 128.399 240.795 126.593 236.547C124.871 232.467 130.616 232.114 134.102 232.27C134.243 232.327 134.328 232.355 134.328 232.355C134.962 232.82 135.613 233.258 136.261 233.653C135.795 236.293 137.87 238.621 141.215 240.611C143.869 242.206 145.675 247.428 145.972 251.621Z" fill="#FFA780"/>
<path fill-rule="evenodd" clip-rule="evenodd" d="M76.2619 314.683C75.471 314.02 74.7937 313.13 74.2572 312.114C73.7207 311.14 73.2979 310.053 72.9728 308.938C72.1258 305.975 71.9851 302.883 72.4079 301.5C73.1426 299.044 71.66 298.098 70.4178 297.026C69.1625 295.939 72.5784 290.858 77.2212 291.549C78.2096 291.62 76.7131 293.06 77.0382 294.725C77.1089 295.12 77.0521 295.685 76.9113 296.363C76.9113 296.376 76.8968 296.376 76.8968 296.376C76.4733 298.508 75.3018 301.796 75.2734 304.944C75.2734 306.144 75.6262 307.005 76.1489 307.64C77.4187 309.235 79.6348 309.531 79.7478 310.448C79.903 311.733 79.8885 317.703 76.2619 314.683Z" fill="#7F2489"/>
<path fill-rule="evenodd" clip-rule="evenodd" d="M125.281 268.445C108.47 281.134 89.3036 294.443 87.5673 296.561C82.9376 300.894 80.016 306.892 79.7484 310.449C79.5363 313.116 76.9529 311.691 75.4855 309.094C76.8967 305.89 78.8584 302.207 80.6939 299.566C83.9677 294.895 97.1079 285.283 102.839 280.344C108.245 275.699 118.351 268.953 125.281 268.445Z" fill="#FFCCB6"/>
<path fill-rule="evenodd" clip-rule="evenodd" d="M76.2619 314.683C75.471 314.02 74.7938 313.13 74.2573 312.114C74.7377 310.801 75.3865 309.249 76.149 307.64C77.4188 309.235 79.6349 309.531 79.7479 310.448C79.9031 311.733 79.8886 317.703 76.2619 314.683Z" fill="#AD32BF"/>
<path fill-rule="evenodd" clip-rule="evenodd" d="M127.807 258.198C125.576 259.256 116.756 258.085 112.718 264.309C108.682 270.548 82.5851 292.368 79.7903 293.949C77.7295 295.121 75.9793 297.266 74.7233 299.468C75.0054 297.139 75.4289 295.107 75.7533 294.26C76.3882 292.58 75.4996 293.074 76.784 292.651C78.0685 292.227 83.9964 289.193 84.4338 288.924C85.958 288.148 112.31 262.686 121.202 251.465C126.424 252.834 129.303 257.492 127.807 258.198Z" fill="#FFA780"/>
<path fill-rule="evenodd" clip-rule="evenodd" d="M77.0384 294.726C77.1091 295.121 77.0522 295.685 76.9108 296.363C76.9108 296.377 76.8969 296.377 76.8969 296.377C75.4711 298 74.3135 299.977 73.5802 301.783C72.7477 303.844 73.3119 307.09 72.973 308.938C72.1259 305.975 71.9852 302.884 72.408 301.5C73.1428 299.044 71.6601 298.099 70.418 297.026C69.1627 295.94 72.5779 290.858 77.2213 291.55C78.2091 291.621 76.7133 293.06 77.0384 294.726Z" fill="#761584"/>
<path fill-rule="evenodd" clip-rule="evenodd" d="M144.8 325.029C143.897 325.014 142.966 324.845 142.119 324.507C139.493 323.434 136.29 321.246 134.187 319.553C133.255 318.79 132.535 318.141 132.183 317.718C131.011 316.363 131.011 317.393 131.265 316.052C131.491 314.782 131.645 308.614 131.645 307.64V307.541C131.688 303.378 131.589 272.326 128.866 262.192C126.043 251.677 84.6596 256.207 77.3627 245.834C77.3627 245.834 74.7377 237.958 83.0507 227.527C91.3784 217.097 101.018 223.053 126.142 233.271C126.297 233.328 126.438 233.399 126.593 233.47H126.608C127.821 233.978 128.95 234.5 130.023 235.022C131.406 235.714 132.676 236.434 133.848 237.168C150.305 247.542 146.889 262.559 144.829 276.207C143.051 287.979 141.06 300.146 140.242 305.551C140.072 306.666 140.058 307.795 140.199 308.911C140.327 309.884 140.566 310.83 140.947 311.747C142.839 316.461 145.873 320.371 148.315 321.952C150.63 323.448 147.906 325.099 144.8 325.029Z" fill="#FFB48D"/>
<path fill-rule="evenodd" clip-rule="evenodd" d="M134.511 297.831C133.58 305.156 131.646 315.078 134.187 319.552C133.255 318.791 132.535 318.141 132.183 317.718C131.011 316.362 131.011 317.393 131.264 316.053C131.491 314.782 131.646 308.614 131.646 307.64V307.541C131.689 303.377 131.589 272.327 128.865 262.192C126.043 251.677 84.6597 256.208 77.3628 245.834C77.3628 245.834 74.7378 237.958 83.0509 227.528C91.3778 217.097 101.018 223.053 126.142 233.272C126.296 233.329 126.438 233.399 126.593 233.469H126.608C127.821 233.977 128.951 234.5 130.023 235.022C128.316 239.017 124.885 242.065 120.51 240.089C113.227 236.801 101.935 239.383 104.632 245.142C107.341 250.901 132.747 249.969 135.457 259.609C138.153 269.25 135.457 290.421 134.511 297.831Z" fill="#FFA780"/>
<path fill-rule="evenodd" clip-rule="evenodd" d="M144.8 325.029C140.933 319.976 137.334 310.138 138.407 302.418C139.719 293.018 145.62 271.07 143.925 260.4C142.218 249.743 127.694 242.206 126.593 233.47H126.608C151.195 243.717 147.157 260.837 144.829 276.207C143.051 287.979 141.06 300.146 140.242 305.551C140.072 306.666 140.058 307.795 140.199 308.911C140.327 309.884 140.566 310.83 140.947 311.747C142.839 316.461 145.873 320.371 148.315 321.952C150.63 323.448 147.906 325.099 144.8 325.029Z" fill="#FFCCB6"/>
<path fill-rule="evenodd" clip-rule="evenodd" d="M150.375 327.033C149.458 327.4 148.399 327.555 147.299 327.569C146.805 327.569 146.296 327.555 145.789 327.499C142.076 327.146 138.195 325.396 136.953 324.125C135.146 322.305 133.608 323.152 132.055 323.73C130.502 324.323 127.68 318.889 130.502 315.134C131.039 314.302 131.589 316.306 133.199 316.829C133.227 316.842 133.255 316.842 133.297 316.871C134.935 317.478 137.772 321.274 141.343 323.251C142.317 323.786 143.177 323.914 143.939 323.801C146.057 323.547 147.44 321.6 148.315 321.952C149.515 322.432 154.765 325.297 150.375 327.033Z" fill="#7F2489"/>
<path fill-rule="evenodd" clip-rule="evenodd" d="M150.375 327.033C149.458 327.4 148.399 327.555 147.299 327.569C146.198 326.793 145.041 325.481 143.939 323.801C146.057 323.547 147.44 321.599 148.315 321.952C149.515 322.432 154.765 325.297 150.375 327.033Z" fill="#AD32BF"/>
<path fill-rule="evenodd" clip-rule="evenodd" d="M145.788 327.499C142.077 327.146 138.195 325.396 136.953 324.125C135.146 322.305 133.608 323.152 132.056 323.73C130.502 324.323 127.68 318.889 130.502 315.135C131.039 314.302 131.59 316.306 133.199 316.828C133.227 316.842 133.255 316.842 133.297 316.87C133.664 318.367 133.99 319.186 134.187 319.552C136.219 323.518 141.399 325.438 143.643 326.482C144.349 326.807 145.139 327.16 145.788 327.499Z" fill="#761584"/>
<path fill-rule="evenodd" clip-rule="evenodd" d="M137.136 234.881C130.319 234.5 129.543 241.119 120.171 236.913C120.001 236.829 119.832 236.758 119.663 236.673C116.572 235.248 113.932 233.682 111.462 232.354C106.664 229.814 102.458 228.233 96.7839 230.506C88.0189 234.006 93.029 248.078 87.0027 247.88C80.9618 247.683 73.03 251.197 69.3319 257.817C65.6339 264.436 61.3994 257.28 62.8959 248.713C64.9844 226.708 73.1284 209.461 78.1392 200.23C83.1494 190.986 90.2065 160.118 88.0757 153.64C85.9304 147.175 86.5085 146.088 92.3525 145.735C98.1952 145.368 97.0237 157.196 97.0237 163.223C97.0237 169.263 100.919 172.764 106.015 171.79C111.096 170.816 109.487 159.144 108.767 154.938C108.062 150.732 117.32 148.784 116.939 154.938C116.6 160.358 116.812 197.436 118.35 211.635C118.435 212.411 118.52 213.117 118.605 213.738C118.731 214.67 118.872 215.431 119.028 215.996C121.173 223.985 143.953 235.276 137.136 234.881Z" fill="#FFB858"/>
<path fill-rule="evenodd" clip-rule="evenodd" d="M88.0471 211.028C87.3414 218.678 96.5161 225.495 103.572 227.146C107.892 228.163 109.29 229.955 111.462 232.355C106.663 229.814 102.458 228.233 96.7837 230.506C88.0187 234.006 93.0288 248.078 87.0025 247.88C80.9616 247.683 73.0297 251.197 69.3317 257.817C65.6337 264.436 61.3999 257.28 62.8957 248.713C64.9849 226.709 73.1289 209.461 78.139 200.23C83.1499 190.986 90.2063 160.118 88.0755 153.64C85.9302 147.175 86.5083 146.088 92.3523 145.735C98.1956 145.368 97.0235 157.196 97.0235 163.223C97.0235 169.264 100.919 172.764 106.014 171.791C111.095 170.816 109.487 159.144 108.767 154.938C108.061 150.732 117.32 148.784 116.939 154.938C116.6 160.358 116.812 197.436 118.351 211.635C114.892 210.915 109.572 206.977 109.346 203.067C108.993 197.153 109.811 190.336 105.93 193.512C93.5799 199.158 88.7534 203.392 88.0471 211.028Z" fill="#FCA547"/>
<path fill-rule="evenodd" clip-rule="evenodd" d="M137.136 234.881C130.319 234.5 129.543 241.119 120.171 236.913C120.001 236.829 119.832 236.758 119.663 236.674C120.313 236.674 120.877 236.631 121.286 236.547C124.18 235.954 117.165 230.506 114.85 224.211C112.535 217.901 101.23 215.389 100.975 210.915C100.722 206.441 108.823 216.716 117.433 219.384C118.971 219.864 116.869 216.095 117.433 214.091C117.518 213.781 117.941 213.668 118.605 213.738C118.731 214.67 118.872 215.432 119.028 215.997C121.173 223.985 143.953 235.276 137.136 234.881Z" fill="#FCC37E"/>
<path fill-rule="evenodd" clip-rule="evenodd" d="M122.467 164.211L123.025 162.177C123.025 162.177 127.313 160.976 126.987 159.796C126.66 158.617 129.382 158.413 129.008 157.144C128.633 155.876 126.101 155.207 127.863 153.408C129.624 151.608 132.362 147.947 130.107 146.145C127.853 144.343 125.794 146.391 125.878 144.642C125.962 142.892 126.673 138.373 124.119 138.034C121.566 137.695 121.852 141.236 122.717 142.555C123.581 143.874 121.182 142.282 119.293 143.742C115.9 146.363 121.182 147.466 121.946 147.915C122.711 148.363 118.313 149.407 117.68 152.164C117.049 154.922 117.188 157.503 119.426 159.805C121.665 162.107 122.467 164.211 122.467 164.211Z" fill="#FF64B2"/>
<path fill-rule="evenodd" clip-rule="evenodd" d="M124.972 163.009C128.864 161.761 135.277 157.939 134.062 156.186C132.847 154.433 130.866 153.122 133.325 151.83C135.783 150.537 139.306 148.718 136.932 147.094C134.558 145.469 130.055 149.488 130.133 151.571C130.211 153.654 128.229 152.35 126.927 153.945C125.624 155.539 127.33 157.199 126.794 158.267C126.257 159.335 121.767 161.705 123.045 162.648C124.323 163.591 124.972 163.009 124.972 163.009Z" fill="white"/>
<path fill-rule="evenodd" clip-rule="evenodd" d="M119.898 161.699C124.688 160.72 125.962 157.534 125.253 155.108C124.541 152.683 120.136 153.461 120.136 153.461C120.136 153.461 124.015 148.252 122.538 144.793C121.059 141.333 116.971 142.006 116.296 144.985C115.62 147.963 116.525 148.574 116.525 148.574C116.525 148.574 116.034 145.468 113.8 146.56C111.565 147.651 113.612 151.222 115.561 152.56C115.561 152.56 112.674 151.435 111.941 153.046C111.21 154.657 112.387 158.942 114.998 160.263C117.608 161.583 119.898 161.699 119.898 161.699Z" fill="#F61070"/>
<path fill-rule="evenodd" clip-rule="evenodd" d="M126.09 184.202C124.96 187.279 126.555 199.911 125.568 201.943C124.608 203.962 123.478 202.903 123.07 201.577C122.956 201.125 122.279 201.139 121.418 201.266C121.319 201.28 121.206 201.295 121.108 201.308C119.442 201.591 117.296 202.112 117.014 200.589C116.986 200.461 116.972 200.348 116.901 200.25C116.111 198.669 112.032 202.804 112.004 199.262C111.947 195.522 117.593 186.601 117.155 182.804C116.717 178.993 109.943 165.416 108.955 162.028C107.981 158.641 111.341 158.542 112.794 159.347C114.587 159.742 117.014 159.954 120.571 159.177C120.656 159.177 120.727 159.149 120.797 159.135C124.453 158.288 126.824 156.961 129.844 158.57C129.858 158.585 129.887 158.585 129.901 158.599C132.892 160.094 136.802 151.951 137.79 156.594C138.779 161.267 127.233 181.125 126.09 184.202Z" fill="#FFB3DD"/>
<path fill-rule="evenodd" clip-rule="evenodd" d="M122.836 182.847C120.168 185.67 121.087 195.438 118.334 198.726C117.882 199.262 117.402 199.784 116.908 200.25C116.104 198.669 112.039 202.804 111.997 199.262C111.954 195.522 117.586 186.602 117.148 182.805C116.725 178.994 109.95 165.416 108.962 162.029C107.974 158.641 111.347 158.543 112.801 159.347C114.593 159.742 117.021 159.954 120.578 159.178C115.892 162.805 116.4 167.674 118.588 170.144C120.988 172.868 124.262 171.048 126.619 172.77C128.99 174.506 125.518 180.024 122.836 182.847Z" fill="#FFA4DA"/>
<path fill-rule="evenodd" clip-rule="evenodd" d="M126.09 184.202C124.96 187.279 126.555 199.911 125.568 201.943C124.608 203.962 123.478 202.903 123.07 201.577C122.956 201.125 122.279 201.139 121.418 201.266C122.279 198.966 123.831 196.029 123.987 192.501C124.226 187.208 126.64 181.379 127.811 179.841C128.984 178.288 130.931 171.555 129.421 168.267C128.108 165.416 127.911 162.113 129.901 158.599C132.892 160.094 136.802 151.951 137.79 156.594C138.779 161.267 127.233 181.125 126.09 184.202Z" fill="#FFCFEC"/>
<path fill-rule="evenodd" clip-rule="evenodd" d="M117.152 183.713C118.242 185.02 124.975 185.402 126.138 185.022C127.3 184.643 131.218 192.187 128.449 194.736C125.679 197.284 125.303 193.539 125.986 190.872C126.67 188.204 125.355 186.094 123.794 186.42C122.234 186.745 116.069 186.77 116.27 185.139C116.471 183.508 117.152 183.713 117.152 183.713Z" fill="white"/>
<path fill-rule="evenodd" clip-rule="evenodd" d="M126.748 180.146C125.281 181.247 123.219 182.475 120.75 183.731C114.228 187.048 104.857 190.661 95.9227 193.173C84.4904 196.406 73.7776 197.845 70.7429 194.571C63.3469 186.597 67.2286 169.843 74.7376 158.947C74.7376 158.947 81.1591 154.557 83.3044 154.938C85.4359 155.319 88.1461 162.151 87.7933 164.959C87.2845 169.024 81.0606 183.28 91.7734 181.586C95.9788 180.909 102.33 179.13 108.612 177.563C111.646 176.816 114.653 176.11 117.405 175.616C123.474 174.5 128.273 174.36 129.162 176.759C129.486 177.62 128.569 178.791 126.748 180.146Z" fill="#FFB48D"/>
<path fill-rule="evenodd" clip-rule="evenodd" d="M95.9229 193.173C84.4906 196.406 73.7778 197.845 70.7432 194.571C63.3471 186.596 67.2288 169.842 74.7379 158.947C74.7379 158.947 81.1593 154.557 83.3046 154.938C85.4361 155.319 88.1457 162.15 87.7928 164.959C87.2848 169.024 81.0609 183.279 91.7737 181.586C95.9791 180.908 102.331 179.13 108.612 177.563L108.625 177.577C96.9959 181.74 89.699 185.75 83.2339 184.564C76.7556 183.392 72.2252 187.585 78.1676 191.72C81.3146 193.894 89.1903 193.78 95.9229 193.173Z" fill="#FFA780"/>
<path fill-rule="evenodd" clip-rule="evenodd" d="M126.748 180.146C125.803 178.128 119.282 176.293 117.405 175.616C123.474 174.5 128.273 174.36 129.162 176.759C129.486 177.619 128.569 178.791 126.748 180.146Z" fill="#FFCCB6"/>
<path fill-rule="evenodd" clip-rule="evenodd" d="M114.836 163.181C115.048 176.618 100.467 180.019 91.8867 179.144C91.2934 179.101 90.7291 179.017 90.1919 178.918C88.414 178.593 87.045 178.057 86.3248 177.394C81.7236 173.131 67.1152 176.674 61.0182 166.695C60.0159 165.058 59.3109 163.604 58.859 162.305C56.5722 155.672 60.8629 152.835 66.1559 147.698C72.4928 141.544 62.5147 139.159 70.2774 134.119C77.8987 129.194 75.1746 122.984 73.6358 116.209C73.5942 116.067 73.5658 115.927 73.5374 115.799C72.8033 112.496 73.8063 110.718 75.7679 108.418C77.3768 106.526 79.649 104.268 82.1478 100.527C82.9657 99.2852 83.8273 97.8739 84.6882 96.2651C89.5715 87.1334 98.5057 89.9275 102.74 94.5003C104.279 96.1382 105.196 98.0015 105.112 99.6241C105.606 99.6526 106.128 99.7371 106.636 99.8785C109.882 100.782 112.747 103.886 109.092 110.619C108.597 111.551 107.976 112.538 107.214 113.611C99.2543 124.719 104.476 130.026 113.283 155.234C114.328 158.213 114.807 160.852 114.836 163.181Z" fill="#FF64B2"/>
<path fill-rule="evenodd" clip-rule="evenodd" d="M114.836 163.181C113.735 159.116 111.816 153.808 108.625 149.631C102.613 141.755 100.411 128.572 100.679 122.616C100.948 116.66 106.367 112.511 108.175 108.276C109.995 104.042 107.821 100.739 105.112 99.624C105.606 99.6524 106.128 99.737 106.636 99.8784C109.882 100.782 112.747 103.886 109.092 110.619C108.597 111.551 107.976 112.538 107.214 113.611C99.2543 124.719 104.476 130.026 113.283 155.234C114.328 158.213 114.807 160.852 114.836 163.181Z" fill="#FF92CE"/>
<path fill-rule="evenodd" clip-rule="evenodd" d="M102.74 94.5007C95.6408 91.509 87.0165 94.3593 84.7159 98.3539C84.2085 99.2433 83.2769 99.9773 82.1477 100.528C82.9663 99.2856 83.8272 97.8743 84.6881 96.2648C89.5715 87.1331 98.5063 89.9279 102.74 94.5007Z" fill="#FF92CE"/>
<path fill-rule="evenodd" clip-rule="evenodd" d="M91.8864 179.144C91.2938 179.101 90.7289 179.017 90.1924 178.918C88.4137 178.594 87.0454 178.057 86.3252 177.394C81.724 173.132 67.1156 176.674 61.0186 166.696C60.0156 165.058 59.3107 163.604 58.8594 162.306C56.5727 155.672 60.8626 152.835 66.1556 147.698C72.4925 141.544 62.5144 139.158 70.2772 134.119C77.8985 129.194 75.175 122.984 73.6362 116.209C73.5939 116.067 73.5655 115.926 73.5371 115.799C72.8037 112.497 73.806 110.718 75.7677 108.417C76.1344 119.779 88.4137 116.308 87.6942 131.396C86.8756 148.813 81.2298 166.54 89.4583 175.672C90.5729 176.9 91.3638 178.057 91.8864 179.144Z" fill="#FC3D9D"/>
<path fill-rule="evenodd" clip-rule="evenodd" d="M201.046 207.88C196.811 226.948 183.728 216.546 172.747 218.861C168.244 219.807 166.663 219.299 166.96 218.17C167.341 216.561 171.603 213.695 176.599 212.1C183.487 209.885 187.834 195.742 192.944 178.325C194.116 174.317 195.329 170.153 196.628 165.918C196.628 165.918 205.28 188.826 201.046 207.88Z" fill="#FFB48D"/>
<path fill-rule="evenodd" clip-rule="evenodd" d="M192.944 178.325C192.873 189.165 192.069 200.131 188.23 205.735C184.066 211.818 172.944 214.528 171.025 215.883C169.98 216.617 168.287 217.506 166.96 218.169C167.341 216.561 171.603 213.695 176.6 212.101C183.487 209.885 187.834 195.742 192.944 178.325Z" fill="#FFCCB6"/>
<path fill-rule="evenodd" clip-rule="evenodd" d="M170.822 293.288L194.302 277.442C195.183 276.847 195.521 275.732 195.095 274.82C194.591 273.742 193.185 271.448 191.191 269.807C190.85 269.138 189.312 266.129 186.967 261.56C183.278 264.846 179.595 268.187 175.762 271.319L177.533 273.93L180.001 277.569C180.001 277.569 178.666 280.8 176.363 284.207C174.569 286.861 172.189 289.622 169.392 291.05C169.035 291.23 168.768 291.568 168.743 291.954C168.71 292.473 168.889 293.153 169.918 293.452C170.22 293.54 170.554 293.47 170.822 293.288Z" fill="#FCAC88"/>
<path fill-rule="evenodd" clip-rule="evenodd" d="M173.736 292.961C173.736 292.961 179.02 289.398 184.488 285.562C190.328 281.464 196.382 277.056 196.436 276.342C196.544 274.962 192.394 270.859 192.394 270.859C190.685 274.49 187.868 277.068 184.848 279.584C182.952 281.166 180.972 282.722 179.141 284.499C177.82 285.781 175.787 286.289 174.088 285.764C172.516 287.276 171.217 288.867 169.648 290.377C169.32 290.691 168.99 291.01 168.765 291.398C168.54 291.786 168.433 292.26 168.583 292.661C168.773 293.161 169.306 293.438 169.832 293.581C171.115 293.929 172.574 293.696 173.736 292.961Z" fill="#761584"/>
<path fill-rule="evenodd" clip-rule="evenodd" d="M176.363 284.207C180.625 281.824 184.036 278.295 184.462 276.157C184.92 273.853 183.088 270.922 179.722 272.806C178.917 273.257 178.177 273.614 177.533 273.93L180.001 277.569C180.001 277.569 178.666 280.8 176.363 284.207Z" fill="#FFBE9D"/>
<path fill-rule="evenodd" clip-rule="evenodd" d="M173.736 292.961C173.736 292.961 179.02 289.398 184.488 285.562C184.468 283.718 184.513 281.352 184.848 279.584C182.952 281.166 180.972 282.722 179.141 284.499C177.82 285.781 175.787 286.289 174.088 285.764C172.516 287.276 171.217 288.867 169.648 290.377C169.32 290.691 168.99 291.01 168.765 291.398C168.54 291.786 168.433 292.26 168.583 292.661C168.773 293.161 169.306 293.438 169.832 293.581C171.115 293.929 172.574 293.697 173.736 292.961Z" fill="#AD32BF"/>
<path fill-rule="evenodd" clip-rule="evenodd" d="M163.077 327.942L191.388 328.896C192.45 328.932 193.378 328.228 193.568 327.24C193.793 326.07 194.001 323.388 193.35 320.89C193.467 320.147 193.988 316.809 194.773 311.733C189.857 312.228 184.914 312.771 179.972 313.057L179.873 316.21L179.735 320.605C179.735 320.605 176.758 322.437 172.893 323.842C169.883 324.939 166.335 325.776 163.233 325.29C162.838 325.227 162.423 325.343 162.176 325.642C161.845 326.043 161.591 326.698 162.249 327.544C162.441 327.793 162.753 327.932 163.077 327.942Z" fill="#FCAC88"/>
<path fill-rule="evenodd" clip-rule="evenodd" d="M165.628 329.388C165.628 329.388 171.997 329.606 178.676 329.709C185.81 329.82 193.298 329.805 193.761 329.259C194.658 328.205 193.707 322.447 193.707 322.447C190.192 324.383 186.398 324.818 182.476 325.082C180.012 325.249 177.497 325.347 174.971 325.71C173.148 325.973 171.204 325.191 170.138 323.768C167.978 324.07 165.992 324.595 163.834 324.897C163.386 324.958 162.93 325.022 162.521 325.205C162.112 325.387 161.746 325.707 161.632 326.12C161.492 326.637 161.762 327.174 162.103 327.599C162.937 328.633 164.256 329.301 165.628 329.388Z" fill="#761584"/>
<path fill-rule="evenodd" clip-rule="evenodd" d="M172.893 323.843C177.742 324.416 182.576 323.561 184.175 322.08C185.899 320.484 186.136 317.036 182.305 316.584C181.389 316.477 180.58 316.332 179.873 316.209L179.735 320.605C179.735 320.605 176.758 322.437 172.893 323.843Z" fill="#FFBE9D"/>
<path fill-rule="evenodd" clip-rule="evenodd" d="M165.628 329.388C165.628 329.388 171.997 329.606 178.676 329.709C179.742 328.205 181.167 326.316 182.476 325.082C180.012 325.249 177.497 325.347 174.971 325.71C173.148 325.973 171.204 325.191 170.138 323.769C167.978 324.07 165.992 324.595 163.834 324.897C163.386 324.958 162.93 325.022 162.521 325.205C162.112 325.387 161.746 325.707 161.632 326.12C161.492 326.637 161.762 327.174 162.103 327.599C162.937 328.633 164.256 329.301 165.628 329.388Z" fill="#AD32BF"/>
<path fill-rule="evenodd" clip-rule="evenodd" d="M215.193 204.685L203.043 227.711C203.043 227.711 200.651 228.2 197.212 228.92C193.847 229.622 189.482 230.544 185.382 231.443C178.999 232.841 173.252 234.179 172.895 234.54C172.074 235.371 191.511 266.608 191.511 266.608L179.841 273.594L177.017 275.286C177.017 275.286 156.098 242.597 153.075 231.659C151.823 227.121 157.661 222.723 164.978 219.118C175.464 213.947 188.979 210.402 188.979 210.402L215.193 204.685Z" fill="#FFB858"/>
<path fill-rule="evenodd" clip-rule="evenodd" d="M215.193 204.685L203.043 227.711C203.043 227.711 200.651 228.2 197.212 228.92C199.08 225.768 201.248 221.393 199.668 220.271C197.339 218.62 177.747 217.772 164.978 219.118C175.464 213.947 188.979 210.402 188.979 210.402L215.193 204.685Z" fill="#FCA547"/>
<path fill-rule="evenodd" clip-rule="evenodd" d="M191.511 266.608L179.841 273.594C178.395 266.693 168.997 234.136 168.956 233.469C168.918 232.783 175.242 232.313 185.382 231.443C178.999 232.841 173.252 234.179 172.896 234.541C172.074 235.371 191.511 266.608 191.511 266.608Z" fill="#FCA547"/>
<path fill-rule="evenodd" clip-rule="evenodd" d="M224.024 234.701C223.15 235.982 222.246 237.304 221.315 238.666C208.781 246.248 202.233 266.205 202.021 266.912L202.006 266.926L196.149 315.984L184.053 314.969L177.01 314.369C177.01 314.369 182.824 263.938 183.334 259.903C185.193 245.22 194.638 239.172 200.694 228.2C202.528 224.876 204.011 222.193 204.802 220.751C208.188 214.57 210.926 207.776 213.721 206.601C213.82 206.561 213.933 206.521 214.06 206.494C214.201 206.454 214.342 206.441 214.483 206.414C218.309 205.906 229.233 208.83 229.233 208.83C229.825 212.328 233.171 221.312 224.024 234.701Z" fill="#FFB858"/>
<path fill-rule="evenodd" clip-rule="evenodd" d="M226.551 236.396C224.702 236.89 222.952 237.678 221.314 238.666C208.781 246.248 202.232 266.205 202.02 266.912L202.006 266.926L196.149 315.984L184.053 314.969C184.053 314.969 186.819 265.885 196.996 254.578C207.172 243.257 225.309 227.439 219.819 221.873C214.808 216.8 212.013 218.588 200.694 228.2C202.528 224.876 204.01 222.193 204.801 220.751C208.189 214.571 210.927 207.776 213.721 206.601C213.82 206.561 213.933 206.521 214.06 206.494C214.201 206.454 214.343 206.441 214.483 206.414C218.633 205.747 232.549 207.842 232.549 207.842C241.258 225.196 236.318 233.767 226.551 236.396Z" fill="#FCA547"/>
<path fill-rule="evenodd" clip-rule="evenodd" d="M206.288 104.64V124.532C206.288 127.856 209.076 130.846 212.634 131.167V138.397C212.634 140.386 213.441 142.186 214.743 143.489C214.937 143.682 215.14 143.865 215.354 144.032C216.584 145.015 218.141 145.6 219.836 145.6C223.814 145.6 227.039 142.374 227.039 138.397V110.616L225.127 108.773L223.774 107.469L221.816 104.401L208.793 104.603L206.288 104.64Z" fill="#FFBE9D"/>
<path fill-rule="evenodd" clip-rule="evenodd" d="M212.635 131.167V134.197L218.984 130.128C218.984 130.128 216.099 131.167 212.635 131.167Z" fill="#FFA780"/>
<path fill-rule="evenodd" clip-rule="evenodd" d="M215.354 144.032C216.583 145.014 218.141 145.6 219.836 145.6C223.814 145.6 227.038 142.375 227.038 138.397V117.382L226.064 118.431C226.082 118.746 227.167 126.352 221.291 130.968C216.042 135.093 214.607 141.145 215.354 144.032Z" fill="#FFA780"/>
<path fill-rule="evenodd" clip-rule="evenodd" d="M240.735 117.959C241.385 121.445 241.638 127.853 235.456 130.323C226.747 133.823 223.008 128.319 223.008 128.319C219.578 129.137 218.039 128.7 218.124 125.326C218.194 121.953 223.431 118.904 219.691 115.94C219.464 115.757 219.253 115.616 219.041 115.503C215.795 113.697 214.454 119.046 213.946 117.507C213.424 115.856 201.624 113.287 200.397 106.795C199.352 101.191 206.705 99.554 206.705 99.554C206.126 91.7629 214.44 92.6945 214.44 92.6945C216.642 88.1356 225.52 88.7421 227.524 92.4124C240.778 92.341 236.458 103.605 236.458 103.605C236.458 103.605 240.749 104.974 241.695 108.63C242.64 112.285 240.114 115.588 240.114 115.588C240.114 115.588 240.452 116.533 240.735 117.959Z" fill="#FFB858"/>
<path fill-rule="evenodd" clip-rule="evenodd" d="M215.17 93.5252C214.345 93.1766 213.398 93.1086 212.486 93.2895C211.573 93.4719 210.698 93.9099 209.99 94.5386C209.282 95.1652 208.737 95.9832 208.46 96.885C208.186 97.7792 208.184 98.7842 208.596 99.5904C208.752 98.7073 209.048 97.9712 209.442 97.3036C209.836 96.6396 210.329 96.056 210.891 95.5534C211.458 95.0509 212.096 94.6322 212.807 94.3036C213.518 93.9688 214.296 93.738 215.17 93.5252Z" fill="#FCC37E"/>
<path fill-rule="evenodd" clip-rule="evenodd" d="M206.658 101.528C202.304 101.188 199.702 106.391 203.831 109.276C207.959 112.159 212.936 114.422 213.615 115.609C213.615 115.609 212.275 112.03 207.685 108.56C203.095 105.09 204.226 101.867 206.658 101.528Z" fill="#FCC37E"/>
<path fill-rule="evenodd" clip-rule="evenodd" d="M235.767 210.774C233.508 213.032 206.987 213.498 195.724 210.873C194.144 210.492 192.859 210.054 191.985 209.56C190.7 208.826 189.966 207.26 189.627 205.128C188.272 196.984 192.577 180.612 193.523 171.254C193.593 170.464 193.65 169.716 193.678 169.038C193.72 168.262 193.72 167.57 193.664 166.963C193.382 163.491 193.042 158.961 193.734 154.472C194.369 150.309 195.866 146.173 199.084 142.955C199.183 142.857 199.281 142.771 199.38 142.687C201.836 140.33 205.252 138.495 209.952 137.549C210.037 137.521 210.135 137.493 210.249 137.464C211.688 137.083 214.116 136.575 216.91 136.265C223.389 135.545 231.772 135.898 233.875 141.275C236.952 149.137 238.336 208.205 235.767 210.774Z" fill="#7F2489"/>
<path fill-rule="evenodd" clip-rule="evenodd" d="M196.402 190.45C195.696 197.493 192.181 200.358 189.627 205.128C188.667 199.399 190.53 189.574 192.041 181.007C192.097 180.683 192.154 180.358 192.21 180.034C192.775 176.802 193.268 173.767 193.523 171.254C193.593 170.464 193.65 169.716 193.678 169.038C194.115 168.671 194.341 168.629 194.284 169.024C193.932 171.254 197.334 180.922 196.402 190.45Z" fill="#AD32BF"/>
<path fill-rule="evenodd" clip-rule="evenodd" d="M182.358 175.982C163.431 182.927 137.715 188.388 130.39 188.388C129.359 188.388 128.696 188.276 128.47 188.05C127.411 186.991 126.763 185.763 127.397 184.521C128.245 182.828 131.477 181.106 139.253 179.779C147.355 178.396 164.222 168.092 178.322 158.41C178.449 159.765 178.66 161.331 178.929 162.983C179.493 166.497 180.354 170.421 181.47 173.639C181.737 174.472 182.048 175.262 182.358 175.982Z" fill="#FFBE9D"/>
<path fill-rule="evenodd" clip-rule="evenodd" d="M201.032 166.483H201.017C200.848 166.653 200.665 166.808 200.467 166.963C198.731 168.403 196.345 169.842 193.523 171.254C190.304 172.877 186.494 174.458 182.359 175.983C182.048 175.263 181.737 174.472 181.469 173.64C180.355 170.421 179.493 166.498 178.929 162.983C178.66 161.332 178.449 159.765 178.322 158.41C187.426 152.143 195.386 146.131 199.084 142.955C199.183 142.856 199.281 142.772 199.38 142.687C199.38 142.687 200.834 143.901 202.414 145.919C205.887 150.337 210.008 158.594 201.032 166.483Z" fill="#7F2489"/>
<path fill-rule="evenodd" clip-rule="evenodd" d="M178.929 162.983C169.133 168.417 157.419 174.896 150.107 179.102C141.103 184.282 133.325 183.759 127.397 184.522C128.244 182.827 131.477 181.106 139.254 179.779C147.355 178.395 164.222 168.092 178.322 158.41C178.449 159.765 178.66 161.332 178.929 162.983Z" fill="#FFCCB6"/>
<path fill-rule="evenodd" clip-rule="evenodd" d="M235.767 210.774C233.508 213.032 206.987 213.498 195.724 210.873C195.273 208.389 195.809 206.441 197.404 206.046C202.528 204.775 215.033 190.732 213.622 177.266C212.224 163.872 211.519 151.043 216.91 136.265C223.389 135.545 231.772 135.898 233.875 141.275C236.952 149.137 238.336 208.205 235.767 210.774Z" fill="#761584"/>
<path fill-rule="evenodd" clip-rule="evenodd" d="M210.248 137.465C207.877 139.37 205.323 142.574 202.414 145.919C199.832 148.926 196.967 152.045 193.735 154.472C192.803 155.15 191.857 155.785 190.869 156.335C187.75 158.086 183.558 160.415 178.929 162.983C178.66 161.332 178.449 159.765 178.321 158.41C187.425 152.143 195.386 146.131 199.084 142.955C199.183 142.856 199.281 142.772 199.38 142.687C201.836 140.33 205.251 138.495 209.952 137.549C210.036 137.521 210.135 137.493 210.248 137.465Z" fill="#AD32BF"/>
<path fill-rule="evenodd" clip-rule="evenodd" d="M213.171 160.983C213.528 162.094 213.607 163.204 213.623 164.315C213.609 165.425 213.53 166.536 213.171 167.646C212.813 166.536 212.733 165.425 212.72 164.315C212.735 163.204 212.815 162.094 213.171 160.983Z" fill="white"/>
<path fill-rule="evenodd" clip-rule="evenodd" d="M205.235 141.797C205.591 142.907 205.671 144.018 205.686 145.128C205.673 146.239 205.594 147.349 205.235 148.46C204.877 147.349 204.797 146.239 204.784 145.128C204.799 144.018 204.879 142.907 205.235 141.797Z" fill="white"/>
<path fill-rule="evenodd" clip-rule="evenodd" d="M197.262 148.405C196.691 149.423 195.933 150.238 195.13 151.005C194.308 151.752 193.44 152.45 192.384 152.944C192.953 151.925 193.711 151.11 194.516 150.344C195.339 149.599 196.206 148.901 197.262 148.405Z" fill="white"/>
<path fill-rule="evenodd" clip-rule="evenodd" d="M232.306 142.269C232.662 143.379 232.742 144.489 232.757 145.6C232.744 146.71 232.664 147.821 232.306 148.931C231.947 147.821 231.867 146.71 231.854 145.6C231.869 144.489 231.949 143.379 232.306 142.269Z" fill="white"/>
<path fill-rule="evenodd" clip-rule="evenodd" d="M195.57 189.262C195.927 190.372 196.007 191.483 196.021 192.593C196.009 193.703 195.929 194.814 195.57 195.924C195.212 194.814 195.132 193.703 195.119 192.593C195.134 191.483 195.214 190.372 195.57 189.262Z" fill="white"/>
<path fill-rule="evenodd" clip-rule="evenodd" d="M216.5 201.228C216.857 202.338 216.937 203.448 216.952 204.559C216.939 205.669 216.859 206.78 216.5 207.89C216.142 206.78 216.062 205.669 216.049 204.559C216.064 203.448 216.144 202.338 216.5 201.228Z" fill="white"/>
<path fill-rule="evenodd" clip-rule="evenodd" d="M204.12 177.264C205.15 177.809 205.984 178.547 206.772 179.329C207.54 180.132 208.259 180.982 208.78 182.025C207.747 181.483 206.913 180.745 206.127 179.961C205.361 179.156 204.642 178.307 204.12 177.264Z" fill="white"/>
<path fill-rule="evenodd" clip-rule="evenodd" d="M195.301 183.731C194.257 183.195 193.424 182.447 192.648 181.67C192.436 181.459 192.224 181.233 192.041 181.007C192.097 180.683 192.154 180.358 192.21 180.033C192.591 180.358 192.944 180.683 193.283 181.036C194.059 181.84 194.779 182.687 195.301 183.731Z" fill="white"/>
<path fill-rule="evenodd" clip-rule="evenodd" d="M227.645 171.021C228.677 171.565 229.51 172.303 230.298 173.085C231.066 173.888 231.785 174.738 232.306 175.782C231.272 175.239 230.439 174.502 229.653 173.717C228.887 172.913 228.167 172.063 227.645 171.021Z" fill="white"/>
<path fill-rule="evenodd" clip-rule="evenodd" d="M225.315 158.603C226.346 159.147 227.18 159.885 227.968 160.668C228.735 161.471 229.455 162.32 229.975 163.364C228.942 162.821 228.109 162.083 227.323 161.299C226.557 160.495 225.837 159.646 225.315 158.603Z" fill="white"/>
<path fill-rule="evenodd" clip-rule="evenodd" d="M214.622 145.128C215.653 145.673 216.487 146.41 217.275 147.193C218.042 147.996 218.762 148.845 219.283 149.889C218.249 149.347 217.416 148.608 216.629 147.824C215.864 147.02 215.144 146.17 214.622 145.128Z" fill="white"/>
<path fill-rule="evenodd" clip-rule="evenodd" d="M195.829 160.983C196.861 161.528 197.695 162.265 198.482 163.048C199.25 163.851 199.97 164.701 200.49 165.745C199.457 165.201 198.624 164.464 197.837 163.68C197.072 162.876 196.352 162.026 195.829 160.983Z" fill="white"/>
<path fill-rule="evenodd" clip-rule="evenodd" d="M187.426 160.382C187.249 161.535 186.825 162.564 186.344 163.565C185.837 164.554 185.27 165.512 184.454 166.346C184.629 165.192 185.052 164.163 185.535 163.163C186.045 162.176 186.611 161.218 187.426 160.382Z" fill="white"/>
<path fill-rule="evenodd" clip-rule="evenodd" d="M195.396 203.351C196.427 203.895 197.261 204.633 198.048 205.416C198.816 206.219 199.536 207.068 200.056 208.112C199.023 207.569 198.189 206.831 197.403 206.047C196.637 205.243 195.917 204.394 195.396 203.351Z" fill="white"/>
<path fill-rule="evenodd" clip-rule="evenodd" d="M233.941 203.351C232.91 203.895 232.076 204.633 231.288 205.416C230.52 206.219 229.801 207.068 229.28 208.112C230.313 207.569 231.147 206.831 231.933 206.047C232.699 205.243 233.419 204.394 233.941 203.351Z" fill="white"/>
<path fill-rule="evenodd" clip-rule="evenodd" d="M222.687 180.467C222.473 181.614 222.015 182.629 221.501 183.614C220.962 184.584 220.364 185.523 219.522 186.33C219.734 185.183 220.191 184.167 220.707 183.184C221.248 182.215 221.845 181.276 222.687 180.467Z" fill="white"/>
<path fill-rule="evenodd" clip-rule="evenodd" d="M210.363 194.793C210.148 195.939 209.691 196.954 209.178 197.939C208.638 198.91 208.04 199.849 207.198 200.656C207.409 199.509 207.867 198.493 208.383 197.509C208.924 196.54 209.521 195.601 210.363 194.793Z" fill="white"/>
<path fill-rule="evenodd" clip-rule="evenodd" d="M232.044 186.33C231.829 187.477 231.372 188.492 230.858 189.476C230.319 190.447 229.721 191.386 228.879 192.193C229.091 191.046 229.548 190.03 230.064 189.047C230.605 188.078 231.202 187.138 232.044 186.33Z" fill="white"/>
<path fill-rule="evenodd" clip-rule="evenodd" d="M182.358 175.982C163.431 182.927 137.715 188.388 130.39 188.388C138.533 186.54 149.36 185.171 157.532 182.023C162.415 180.132 172.21 176.815 181.47 173.639C181.737 174.472 182.048 175.263 182.358 175.982Z" fill="#FFA780"/>
<path fill-rule="evenodd" clip-rule="evenodd" d="M201.017 166.483C200.848 166.653 200.664 166.808 200.467 166.963C198.731 168.403 196.345 169.842 193.522 171.254C190.305 172.877 186.494 174.458 182.358 175.982C182.048 175.263 181.738 174.472 181.469 173.64C189.74 170.774 197.573 168.022 201.017 166.483Z" fill="#761584"/>
<path fill-rule="evenodd" clip-rule="evenodd" d="M235.456 130.323C226.748 133.823 223.008 128.319 223.008 128.319C219.578 129.137 218.039 128.7 218.124 125.327C218.195 121.953 223.43 118.905 219.691 115.94C219.465 115.757 219.253 115.616 219.041 115.503C223.417 115.376 226.974 120.358 229.923 119.045C233 117.676 236.754 124.042 240.735 117.959C241.385 121.445 241.638 127.853 235.456 130.323Z" fill="#FCA547"/>
<path fill-rule="evenodd" clip-rule="evenodd" d="M96.0509 77.5248C93.5528 75.7718 90.8363 77.5685 90.8363 79.8039C90.8363 77.5685 88.1191 75.7718 85.6202 77.5248C83.1228 79.2778 87.3296 84.7559 90.8363 85.7637C94.3416 84.7559 98.5491 79.2778 96.0509 77.5248Z" fill="#F61070"/>
<path fill-rule="evenodd" clip-rule="evenodd" d="M108.934 57.3252C104.892 54.4888 100.496 57.3966 100.496 61.0122C100.496 57.3966 96.0994 54.4888 92.0575 57.3252C88.0157 60.1617 94.8233 69.0251 100.496 70.6561C106.169 69.0251 112.976 60.1617 108.934 57.3252Z" fill="#F61070"/>
<path fill-rule="evenodd" clip-rule="evenodd" d="M87.5698 44.0861C83.528 41.2497 79.1313 44.1568 79.1313 47.773C79.1313 44.1568 74.7352 41.2497 70.6934 44.0861C66.6516 46.9225 73.4591 55.786 79.1313 57.417C84.8041 55.786 91.6116 46.9225 87.5698 44.0861Z" fill="#F61070"/>
<path fill-rule="evenodd" clip-rule="evenodd" d="M246.826 60.6489H216.882C214.833 60.6489 213.172 62.3097 213.172 64.3587V79.5958C213.172 81.6455 214.833 83.3063 216.882 83.3063H227.753L231.307 89.4615C231.904 90.495 233.395 90.495 233.991 89.4615L237.545 83.3063H246.826C248.875 83.3063 250.537 81.6455 250.537 79.5958V64.3587C250.537 62.3097 248.875 60.6489 246.826 60.6489Z" fill="#FF64B2"/>
<path fill-rule="evenodd" clip-rule="evenodd" d="M239.451 67.2298C236.361 65.0623 233.001 67.2839 233.001 70.0482C233.001 67.2839 229.641 65.0623 226.552 67.2298C223.462 69.398 228.665 76.173 233.001 77.4193C237.337 76.173 242.54 69.398 239.451 67.2298Z" fill="white"/>
<path fill-rule="evenodd" clip-rule="evenodd" d="M353.215 257.196C343.942 285.198 330.153 305.367 312.961 319.679C310.152 322.022 307.245 324.21 304.252 326.243C302.008 320.498 302.601 307.767 293.455 288.558C280.908 262.178 291.521 263.462 299.891 259.92C301.26 259.341 302.234 258.169 302.898 256.574C304.506 252.763 304.393 246.497 303.885 239.793C303.66 236.716 303.335 233.54 303.053 230.478C302.629 225.89 302.29 221.557 302.46 218.113C303.109 205.241 307.287 211.677 316.617 212.312C325.946 212.962 302.785 169.857 325.621 163.745C348.458 157.633 341.712 202.672 343.631 208.134C345.565 213.611 348.458 204.606 359.072 208.134C369.686 211.677 344.916 249.63 341.937 256.701C339.524 262.446 341.937 258.678 353.215 257.196Z" fill="#FF64B2"/>
<path fill-rule="evenodd" clip-rule="evenodd" d="M317.901 305.128C315.148 310.914 313.78 315.784 312.961 319.679C310.152 322.023 307.245 324.21 304.252 326.243C303.871 326.511 303.49 326.765 303.109 327.019C290.59 318.367 261.585 285.057 273.864 284.845C286.144 284.648 288.924 289.362 287.019 284.845C285.127 280.343 269.348 256.179 276.109 253.921C282.87 251.663 284.719 257.407 285.946 253.921C287.174 250.435 282.87 221.769 297.421 225.651C300.356 226.426 302.107 228.176 303.053 230.478C304.153 233.088 304.225 236.405 303.885 239.793C303.081 247.88 299.962 256.349 302.897 256.575C302.968 256.589 303.067 256.589 303.152 256.589C309.094 256.179 311.747 252.072 312.157 260.273C312.579 268.459 308.472 284.648 313.808 286.892C319.128 289.15 325.89 288.332 317.901 305.128Z" fill="white"/>
<path fill-rule="evenodd" clip-rule="evenodd" d="M260.72 191.1C260.565 191.534 260.718 191.984 261.062 192.108L263.426 192.956C263.77 193.08 264.175 192.829 264.331 192.396C264.486 191.963 264.333 191.512 263.989 191.389L261.625 190.54C261.281 190.417 260.876 190.667 260.72 191.1Z" fill="#761584"/>
<path fill-rule="evenodd" clip-rule="evenodd" d="M261.938 189.395C261.505 189.24 261.048 189.407 260.918 189.769L260.027 192.254C259.897 192.616 260.142 193.035 260.576 193.191C261.008 193.347 261.464 193.179 261.595 192.817L262.487 190.332C262.617 189.969 262.371 189.55 261.938 189.395Z" fill="#761584"/>
<path fill-rule="evenodd" clip-rule="evenodd" d="M258.923 196.498C258.767 196.931 258.921 197.383 259.264 197.507L261.628 198.355C261.973 198.478 262.378 198.227 262.533 197.794C262.689 197.361 262.535 196.91 262.192 196.787L259.828 195.938C259.483 195.815 259.078 196.066 258.923 196.498Z" fill="#761584"/>
<path fill-rule="evenodd" clip-rule="evenodd" d="M260.14 194.793C259.707 194.638 259.251 194.805 259.121 195.167L258.229 197.652C258.099 198.015 258.345 198.434 258.778 198.589C259.211 198.744 259.667 198.577 259.797 198.215L260.689 195.73C260.819 195.368 260.573 194.948 260.14 194.793Z" fill="#761584"/>
<path fill-rule="evenodd" clip-rule="evenodd" d="M257.181 201.742C257.025 202.176 257.178 202.627 257.523 202.75L259.886 203.599C260.231 203.722 260.636 203.471 260.792 203.038C260.947 202.605 260.794 202.154 260.449 202.031L258.086 201.182C257.742 201.059 257.336 201.31 257.181 201.742Z" fill="#761584"/>
<path fill-rule="evenodd" clip-rule="evenodd" d="M258.398 200.037C257.965 199.882 257.509 200.049 257.378 200.411L256.487 202.896C256.357 203.258 256.603 203.677 257.036 203.833C257.469 203.989 257.925 203.821 258.055 203.459L258.947 200.974C259.077 200.612 258.831 200.192 258.398 200.037Z" fill="#761584"/>
<path fill-rule="evenodd" clip-rule="evenodd" d="M256.857 290.207C259.422 283.058 261.45 285.929 263.96 278.935C267.839 268.127 251.304 259.895 251.304 259.895C251.304 259.895 230.752 258.197 227.899 266.145C225.398 273.115 229.465 274.86 227.205 280.588C224.557 287.299 211.555 314.283 211.555 314.283C211.555 314.283 216.879 320.612 227.332 324.363C240.78 329.189 256.753 324.091 258.442 311.415C259.814 301.119 254.291 297.355 256.857 290.207Z" fill="#FCA547"/>
<path fill-rule="evenodd" clip-rule="evenodd" d="M251.446 286.356C254.01 279.208 256.038 282.079 258.548 275.085C261.401 267.136 254.733 260.359 244.788 256.79C234.844 253.221 225.34 254.346 222.487 262.295C219.986 269.264 224.053 271.009 221.793 276.737C219.146 283.449 211.083 281.33 206.44 291.049C200.69 303.085 208.473 315.687 221.92 320.513C235.368 325.338 251.342 320.24 253.03 307.564C254.402 297.269 248.88 293.505 251.446 286.356Z" fill="white"/>
<path fill-rule="evenodd" clip-rule="evenodd" d="M252.603 260.712L270.097 208.858L264.155 206.726L244.781 257.905L243.38 276.464L250.585 259.988L252.603 260.712Z" fill="#FCA547"/>
<path fill-rule="evenodd" clip-rule="evenodd" d="M266.589 207.6L260.648 205.467L234.506 274.523L242.984 277.566L266.589 207.6Z" fill="#F7902B"/>
<path fill-rule="evenodd" clip-rule="evenodd" d="M244.488 284.226C242.923 288.587 238.119 290.853 233.759 289.288C229.397 287.723 227.131 282.92 228.697 278.559C230.262 274.198 235.065 271.932 239.425 273.497C243.786 275.062 246.053 279.865 244.488 284.226Z" fill="#FCA547"/>
<path fill-rule="evenodd" clip-rule="evenodd" d="M238.477 287.317C234.116 285.752 231.85 280.948 233.414 276.587C233.928 275.158 234.793 273.959 235.872 273.041C232.71 273.316 229.839 275.375 228.697 278.559C227.132 282.92 229.397 287.723 233.759 289.288C236.69 290.34 239.818 289.655 242.03 287.772C240.861 287.873 239.653 287.739 238.477 287.317Z" fill="#F7902B"/>
<path fill-rule="evenodd" clip-rule="evenodd" d="M236.89 303.33L222.414 298.134L223.776 294.338L238.253 299.533L236.89 303.33Z" fill="#F7902B"/>
<path fill-rule="evenodd" clip-rule="evenodd" d="M226.021 297.193C225.851 297.664 225.333 297.908 224.862 297.74C224.392 297.571 224.148 297.052 224.316 296.582C224.485 296.111 225.004 295.866 225.474 296.036C225.945 296.205 226.189 296.722 226.021 297.193Z" fill="#761584"/>
<path fill-rule="evenodd" clip-rule="evenodd" d="M229.518 298.448C229.349 298.919 228.831 299.164 228.36 298.995C227.889 298.826 227.645 298.308 227.814 297.837C227.983 297.366 228.501 297.122 228.972 297.291C229.443 297.459 229.687 297.978 229.518 298.448Z" fill="#761584"/>
<path fill-rule="evenodd" clip-rule="evenodd" d="M233.016 299.704C232.847 300.174 232.329 300.419 231.858 300.251C231.388 300.082 231.143 299.562 231.312 299.092C231.48 298.622 231.999 298.377 232.47 298.546C232.94 298.715 233.185 299.233 233.016 299.704Z" fill="#761584"/>
<path fill-rule="evenodd" clip-rule="evenodd" d="M236.514 300.959C236.345 301.429 235.827 301.674 235.356 301.506C234.885 301.336 234.641 300.818 234.81 300.347C234.978 299.877 235.497 299.632 235.968 299.801C236.439 299.97 236.683 300.488 236.514 300.959Z" fill="#761584"/>
<path fill-rule="evenodd" clip-rule="evenodd" d="M236.923 301.105L223.677 296.352L224.18 294.949L237.427 299.702L236.923 301.105Z" fill="white"/>
<path fill-rule="evenodd" clip-rule="evenodd" d="M270.365 211.191C270.06 211.952 269.283 212.386 268.64 212.155L261.272 209.511C260.628 209.28 260.303 208.45 260.548 207.668L266.136 190.202C266.382 189.42 267.109 188.968 267.753 189.2L276.493 192.336C277.136 192.567 277.413 193.379 277.108 194.139L270.365 211.191Z" fill="#F7902B"/>
<path fill-rule="evenodd" clip-rule="evenodd" d="M267.248 210.072C266.946 210.835 266.228 211.289 265.652 211.083L259.072 208.721C258.497 208.515 258.23 207.707 258.479 206.926L264.131 189.482C264.38 188.701 265.054 188.231 265.629 188.438L273.436 191.239C274.01 191.445 274.233 192.238 273.931 193L267.248 210.072Z" fill="#FCA547"/>
<path fill-rule="evenodd" clip-rule="evenodd" d="M277.83 197.24C277.674 197.673 277.269 197.924 276.925 197.801L274.561 196.952C274.217 196.828 274.064 196.377 274.219 195.944C274.375 195.511 274.78 195.261 275.124 195.385L277.488 196.232C277.832 196.356 277.985 196.807 277.83 197.24Z" fill="#761584"/>
<path fill-rule="evenodd" clip-rule="evenodd" d="M277.974 195.149C278.408 195.304 278.653 195.725 278.523 196.086L277.631 198.571C277.501 198.933 277.045 199.101 276.612 198.946C276.179 198.79 275.934 198.37 276.063 198.009L276.955 195.524C277.085 195.162 277.542 194.994 277.974 195.149Z" fill="#761584"/>
<path fill-rule="evenodd" clip-rule="evenodd" d="M275.785 202.55C275.629 202.983 275.224 203.234 274.879 203.11L272.516 202.262C272.172 202.139 272.019 201.687 272.174 201.254C272.33 200.821 272.735 200.571 273.079 200.694L275.442 201.542C275.787 201.666 275.941 202.117 275.785 202.55Z" fill="#761584"/>
<path fill-rule="evenodd" clip-rule="evenodd" d="M275.929 200.459C276.362 200.614 276.608 201.034 276.478 201.396L275.586 203.881C275.456 204.243 275 204.41 274.567 204.255C274.134 204.1 273.889 203.681 274.018 203.318L274.91 200.834C275.04 200.471 275.496 200.304 275.929 200.459Z" fill="#761584"/>
<path fill-rule="evenodd" clip-rule="evenodd" d="M273.795 207.704C273.639 208.138 273.234 208.389 272.89 208.265L270.526 207.417C270.182 207.293 270.029 206.841 270.184 206.409C270.34 205.976 270.745 205.725 271.089 205.849L273.453 206.697C273.797 206.821 273.95 207.272 273.795 207.704Z" fill="#761584"/>
<path fill-rule="evenodd" clip-rule="evenodd" d="M273.939 205.614C274.373 205.77 274.619 206.189 274.488 206.552L273.597 209.036C273.467 209.398 273.01 209.566 272.577 209.41C272.145 209.255 271.899 208.835 272.028 208.473L272.92 205.989C273.051 205.627 273.507 205.459 273.939 205.614Z" fill="#761584"/>
<path fill-rule="evenodd" clip-rule="evenodd" d="M230.83 298.128C230.83 298.128 233.097 291.637 236.497 281.9C238.216 277.04 240.223 271.368 242.372 265.291C244.538 259.221 246.849 252.746 249.16 246.271C251.494 239.804 253.827 233.337 256.015 227.275C258.219 221.218 260.276 215.565 262.04 210.719C265.607 201.044 267.986 194.592 267.986 194.592C267.986 194.592 265.719 201.084 262.32 210.82C260.599 215.681 258.593 221.352 256.444 227.429C254.277 233.499 251.966 239.974 249.655 246.448C247.322 252.916 244.989 259.383 242.801 265.446C240.596 271.502 238.538 277.155 236.775 282C233.208 291.676 230.83 298.128 230.83 298.128Z" fill="#761584"/>
<path fill-rule="evenodd" clip-rule="evenodd" d="M232.91 298.874C232.91 298.874 235.03 292.598 238.209 283.184C239.819 278.484 241.697 273.001 243.708 267.125C245.738 261.256 247.902 254.996 250.066 248.735C252.253 242.483 254.44 236.231 256.49 230.368C258.557 224.513 260.486 219.047 262.141 214.363C265.487 205.007 267.719 198.77 267.719 198.77C267.719 198.77 265.6 205.046 262.42 214.46C260.811 219.16 258.933 224.644 256.921 230.518C254.892 236.388 252.727 242.648 250.562 248.908C248.375 255.161 246.189 261.413 244.139 267.275C242.072 273.131 240.142 278.596 238.488 283.281C235.141 292.636 232.91 298.874 232.91 298.874Z" fill="#761584"/>
<path fill-rule="evenodd" clip-rule="evenodd" d="M234.088 299.296C234.088 299.296 236.145 293.188 239.231 284.024C240.794 279.449 242.617 274.112 244.57 268.393C246.541 262.68 248.643 256.587 250.745 250.493C252.869 244.407 254.993 238.321 256.985 232.616C258.993 226.917 260.868 221.597 262.475 217.038C265.728 207.932 267.898 201.862 267.898 201.862C267.898 201.862 265.841 207.971 262.754 217.135C261.192 221.71 259.369 227.047 257.416 232.765C255.446 238.479 253.343 244.572 251.241 250.666C249.117 256.752 246.992 262.837 245.001 268.542C242.992 274.241 241.117 279.561 239.51 284.12C236.257 293.226 234.088 299.296 234.088 299.296Z" fill="#761584"/>
<path fill-rule="evenodd" clip-rule="evenodd" d="M228.82 297.406C228.82 297.406 231.07 291.155 234.445 281.778C236.153 277.097 238.145 271.636 240.278 265.784C242.43 259.939 244.724 253.704 247.019 247.469C249.336 241.243 251.653 235.016 253.825 229.178C256.014 223.347 258.058 217.905 259.809 213.24C263.35 203.925 265.712 197.715 265.712 197.715C265.712 197.715 263.462 203.966 260.086 213.343C258.379 218.024 256.387 223.485 254.252 229.337C252.101 235.182 249.806 241.417 247.512 247.652C245.195 253.878 242.878 260.105 240.706 265.942C238.516 271.774 236.473 277.216 234.723 281.881C231.18 291.196 228.82 297.406 228.82 297.406Z" fill="#761584"/>
<path fill-rule="evenodd" clip-rule="evenodd" d="M227.64 296.983C227.64 296.983 229.822 290.918 233.095 281.819C234.751 277.277 236.683 271.978 238.752 266.3C240.84 260.63 243.065 254.58 245.291 248.53C247.54 242.489 249.788 236.449 251.895 230.785C254.02 225.127 256.003 219.848 257.703 215.322C261.142 206.285 263.435 200.261 263.435 200.261C263.435 200.261 261.253 206.326 257.981 215.424C256.325 219.967 254.393 225.266 252.323 230.944C250.237 236.615 248.01 242.663 245.785 248.713C243.536 254.754 241.287 260.795 239.179 266.458C237.055 272.116 235.072 277.396 233.372 281.921C229.933 290.959 227.64 296.983 227.64 296.983Z" fill="#761584"/>
</g>

</svg>
