<svg width="722" height="600" viewBox="0 0 722 600" fill="none" xmlns="http://www.w3.org/2000/svg">
<defs>
<linearGradient id="paint0_linear" x1="899.403" y1="298.225" x2="772.665" y2="37.9616" gradientUnits="userSpaceOnUse">
<stop stop-color="white"/>
<stop offset="1" stop-color="#FFD866"/>
</linearGradient>
<linearGradient id="paint1_linear" x1="632.799" y1="132.689" x2="562.122" y2="250.417" gradientUnits="userSpaceOnUse">
<stop stop-color="white"/>
<stop offset="0.3236" stop-color="#FFF0C3"/>
<stop offset="0.6349" stop-color="#FFE391"/>
<stop offset="0.8693" stop-color="#FFDB72"/>
<stop offset="1" stop-color="#FFD866"/>
</linearGradient>
</defs>
<path d="M716.328 369.875C712.545 378.784 707.003 387.138 701.835 395.53C694.431 407.55 687.792 419.647 688.161 433.565C688.396 442.407 691.533 450.699 694.608 459.043C696.145 463.208 697.664 467.377 698.803 471.633C705.782 497.763 696.94 527.66 676.987 545.35C653.691 566.006 619.915 568.69 589.453 564.329C558.992 559.967 529.373 549.629 498.668 547.942C442.237 544.846 388.791 570.933 334.626 587.496C280.461 604.07 215.802 609.145 173.108 571.048C167.523 566.059 162.36 560.274 159.563 553.224C150.875 531.35 167.279 507.022 164.855 483.529C164.702 482.029 164.472 480.557 164.175 479.119C159.256 455.17 135.376 439.057 112.19 431.499C87.6048 423.486 60.7786 420.927 39.0245 406.683C2.23121 382.599 -9.11522 328.581 7.41828 287.067C23.9518 245.552 63.0728 216.744 105 204.426C146.54 192.229 186.044 199.265 228.068 197.875C263.142 196.715 293.048 177.012 317.307 152.43C352.979 116.289 387.536 77.7651 430.982 52.1626C448.195 42.0165 467.253 34.19 486.794 29.8383C487.359 29.7041 487.929 29.589 488.499 29.4692C517.749 23.2627 547.976 24.9066 574.62 38.2973C618.612 60.406 642.67 108.908 650.578 159.758C652.695 173.384 653.657 187.182 653.528 200.688C653.47 206.938 653.264 213.336 653.442 219.653C653.748 230.312 655.147 240.765 660.181 249.943C669.132 266.252 687.289 274.414 700.398 287.412C705.595 292.559 709.91 298.564 713.277 305.092C723.465 324.8 725.05 349.338 716.328 369.875Z" fill="#F7C7C6"/>
<path d="M190.649 474.951C155.183 447.382 121.215 412.678 105.998 365.814C90.7814 318.951 100.148 257.964 136.379 231.792C153.456 219.455 174.188 216.077 194.184 216.859C268.975 219.8 334.664 275.643 407.695 294.943C428.743 300.504 451.025 302.928 471.681 295.567C512.566 280.998 538.048 232.306 576.226 209.68C586.927 203.341 599.106 199.104 610.84 201.853C621.56 204.363 630.836 212.487 638.097 222.147C666.708 260.2 665.746 319.075 650.339 366.645C627.234 437.986 575.743 494.208 515.666 522.256C413.11 570.142 281.269 545.395 190.649 474.951Z" fill="#F7DFDF"/>
<path d="M113.845 279.499C114.873 279.389 115.724 278.693 116.542 278.065C128.799 268.624 147.411 268.648 159.644 278.118C161.322 279.417 163.163 280.961 165.271 280.722C166.356 280.597 167.322 280.002 168.273 279.465C174.068 276.176 180.698 274.378 187.358 274.296C190.704 274.258 194.142 274.67 197.11 276.214C200.079 277.763 202.522 280.602 202.938 283.934C203.56 288.921 199.415 293.548 194.624 295.029C189.834 296.511 184.647 295.542 179.833 294.161C176.133 293.102 172.122 291.807 168.56 293.274C166.571 294.094 165.018 295.681 163.349 297.038C156.465 302.624 146.736 304.47 138.294 301.785C136.673 301.272 135.096 300.601 133.432 300.251C130.932 299.723 128.34 299.944 125.797 300.165C118.956 300.754 112.115 301.349 105.279 301.939C96.0327 302.739 77.5794 298.798 84.5304 284.96C86.4714 281.096 90.97 279.413 94.8519 278.286C97.8542 277.413 100.947 276.823 104.083 277.034C107.253 277.236 110.867 279.825 113.845 279.499Z" fill="#FFFEFF"/>
<path d="M296.612 431.29C296.684 431.826 296.741 432.356 296.789 432.887C297 435.21 297.019 437.537 296.736 439.855C296.631 440.706 296.506 441.494 296.348 442.231C296.291 442.498 296.233 442.756 296.166 443.01C295.725 444.721 295.092 446.14 294.153 447.431C294.047 447.579 293.937 447.717 293.822 447.861C292.969 448.926 291.886 449.911 290.51 450.91C290.328 451.044 290.146 451.173 289.954 451.307C289.945 451.307 289.94 451.307 289.93 451.307C272.038 451.541 253.225 444.955 242.627 430.578C234.268 419.232 231.958 404.736 228.392 391.115C223.876 373.861 217.027 357.305 209.488 341.132C209.483 341.127 209.483 341.122 209.478 341.122C209.344 340.831 209.21 340.544 209.071 340.252V340.247C209.027 340.152 208.979 340.056 208.936 339.956C208.893 339.856 208.845 339.76 208.797 339.66C208.754 339.569 208.711 339.478 208.668 339.387C208.63 339.306 208.591 339.225 208.553 339.143H208.558C208.711 339.22 208.864 339.296 209.018 339.373C209.085 339.406 209.152 339.44 209.219 339.473C209.411 339.569 209.598 339.66 209.789 339.755C211.127 340.415 212.454 341.074 213.773 341.734C227.073 348.334 239.852 354.786 252.165 363.342C260.381 369.048 268.409 375.171 275 382.689C280.028 388.429 284.121 394.886 287.414 401.763C290.74 408.703 293.252 416.063 295.092 423.529C295.72 426.086 296.276 428.681 296.612 431.29Z" fill="#579D5E"/>
<path opacity="0.35" d="M296.612 431.29C296.684 431.826 296.741 432.356 296.789 432.887C297 435.21 297.019 437.537 296.736 439.855C296.631 440.706 296.506 441.494 296.348 442.231C296.291 442.498 296.233 442.756 296.166 443.01C295.725 444.721 295.092 446.14 294.153 447.431C294.047 447.579 293.937 447.717 293.822 447.861C292.969 448.926 291.886 449.911 290.51 450.91C290.328 451.044 290.146 451.173 289.954 451.307C289.945 451.307 289.94 451.307 289.93 451.307C272.038 451.541 253.225 444.955 242.627 430.578C234.268 419.232 231.958 404.736 228.392 391.115C223.876 373.861 217.027 357.305 209.488 341.132C209.483 341.127 209.483 341.122 209.478 341.122C209.344 340.831 209.21 340.544 209.071 340.252V340.247C209.027 340.152 208.979 340.056 208.936 339.956C208.893 339.856 208.845 339.76 208.797 339.66C208.754 339.569 208.711 339.478 208.668 339.387C208.63 339.306 208.591 339.225 208.553 339.143H208.558C208.711 339.22 208.864 339.296 209.018 339.373C209.085 339.406 209.152 339.44 209.219 339.473C209.411 339.569 209.598 339.66 209.789 339.755C213.197 343.88 216.207 348.506 216.864 349.596C226.134 364.971 234.091 381.131 240.628 397.844C242.157 401.754 243.648 405.768 246.275 409.052C248.896 412.331 252.923 414.816 257.117 414.453C259 414.29 260.812 413.568 262.701 413.511C267.22 413.377 270.854 416.904 274.52 419.538C278.187 422.167 283.752 423.868 286.863 420.599C289.067 418.276 288.823 414.644 288.43 411.47C288.114 408.875 287.792 406.275 287.476 403.68C287.404 403.078 287.375 402.418 287.409 401.763C290.735 408.703 293.247 416.063 295.088 423.529C295.72 426.086 296.276 428.681 296.612 431.29Z" fill="#255029"/>
<g opacity="0.68">
<path d="M290.505 450.91C290.323 451.044 290.141 451.173 289.949 451.307C289.94 451.307 289.935 451.307 289.925 451.307C285.765 450.174 280.152 448.315 274.252 445.423C267.297 442.011 261.315 437.843 256.46 433.04C250.387 427.027 246.078 419.992 243.658 412.13C234.527 382.497 214.501 349.218 209.488 341.132C209.483 341.127 209.483 341.122 209.478 341.122C209.344 340.831 209.21 340.544 209.071 340.252V340.247C209.027 340.152 208.979 340.056 208.936 339.956C208.893 339.856 208.845 339.76 208.797 339.66C208.754 339.569 208.711 339.478 208.668 339.387C208.63 339.306 208.591 339.225 208.553 339.143H208.558C208.711 339.22 208.864 339.296 209.018 339.373C209.08 339.473 209.152 339.588 209.238 339.722C209.286 339.798 209.334 339.879 209.392 339.965C209.531 340.185 209.684 340.439 209.861 340.725C210.005 340.96 210.168 341.213 210.336 341.495C215.953 350.609 235.241 383.018 244.161 411.972C249.587 429.584 263.645 439.621 274.482 444.94C280.564 447.928 286.34 449.796 290.505 450.91Z" fill="#4E6A54"/>
</g>
<g opacity="0.68">
<path d="M294.153 447.431C294.047 447.579 293.937 447.717 293.822 447.861C290.874 444.783 287.553 441.963 284.284 439.191C281.303 436.662 278.216 434.043 275.46 431.271C266.77 422.539 260.697 411.542 254.825 400.903C252.462 396.625 250.023 392.204 247.449 387.989C237.062 371.012 223.574 355.986 210.345 341.495C210.02 341.136 209.694 340.783 209.368 340.424C209.224 340.267 209.08 340.114 208.941 339.956C208.898 339.856 208.85 339.76 208.802 339.66C208.759 339.569 208.716 339.478 208.673 339.387C208.634 339.306 208.596 339.225 208.558 339.143H208.562C208.716 339.22 208.869 339.296 209.023 339.373C209.09 339.406 209.157 339.44 209.224 339.473C209.387 339.65 209.545 339.827 209.708 340.004C209.78 340.085 209.857 340.161 209.928 340.243C210.293 340.639 210.657 341.036 211.021 341.437C224.178 355.852 237.57 370.817 247.909 387.717C250.488 391.937 252.937 396.367 255.3 400.65C261.152 411.255 267.206 422.219 275.843 430.899C278.585 433.656 281.662 436.261 284.639 438.785C287.888 441.547 291.2 444.357 294.153 447.431Z" fill="#4E6A54"/>
</g>
<g opacity="0.68">
<path d="M296.348 442.231C296.291 442.498 296.233 442.756 296.166 443.01C288.852 429.665 279.836 417.234 271.045 405.128C254.715 382.631 236.291 357.248 211.012 341.438C210.633 341.199 210.25 340.96 209.861 340.73C209.694 340.625 209.526 340.525 209.358 340.429C209.257 340.367 209.162 340.31 209.066 340.252V340.247C209.023 340.152 208.975 340.056 208.932 339.956C208.888 339.856 208.84 339.76 208.793 339.66C208.749 339.569 208.706 339.478 208.663 339.387C208.855 339.497 209.042 339.607 209.233 339.722C209.387 339.813 209.54 339.903 209.698 339.999C210.187 340.29 210.676 340.592 211.16 340.893C211.165 340.897 211.165 340.897 211.17 340.897C236.602 356.756 255.089 382.23 271.482 404.803C280.167 416.775 289.077 429.054 296.348 442.231Z" fill="#4E6A54"/>
</g>
<g opacity="0.68">
<path d="M296.612 431.29C296.684 431.826 296.741 432.356 296.789 432.887C293.007 425.015 288.689 417.406 284.437 409.922C281.509 404.76 278.475 399.421 274.841 394.604C269.569 387.616 262.974 381.637 256.599 375.854C242.584 363.146 228.123 350.036 211.175 340.907C211.17 340.907 211.17 340.907 211.165 340.902C210.753 340.682 210.341 340.462 209.924 340.247C209.746 340.152 209.569 340.061 209.396 339.97C209.2 339.865 208.999 339.765 208.802 339.664C208.759 339.573 208.716 339.483 208.673 339.392C208.634 339.311 208.596 339.229 208.558 339.148H208.562C208.716 339.225 208.869 339.301 209.023 339.378C209.09 339.411 209.157 339.444 209.224 339.478C210.753 340.233 212.268 340.988 213.782 341.739C229.782 350.815 243.576 363.318 256.963 375.457C263.362 381.26 269.976 387.258 275.278 394.283C278.93 399.13 281.974 404.483 284.912 409.664C288.914 416.718 292.983 423.892 296.612 431.29Z" fill="#4E6A54"/>
</g>
<path d="M158.288 369.994C171.646 373.684 183.044 376.514 194.255 385.48C206.698 395.426 216.557 410.108 225.046 423.462C233.194 436.28 239.952 460.268 254.269 468.589" stroke="#1D5260" stroke-width="1.2964" stroke-linecap="round" stroke-linejoin="round"/>
<path d="M214.285 406.676C211.961 404.272 209.9 401.649 207.355 399.407C204.172 396.611 199.24 394.723 195.228 392.936C192.534 391.736 189.984 390.422 187.032 390.078C184.031 389.729 181.347 390.732 178.385 390.866C174.498 391.038 170.965 389.576 167.275 389.155C175.811 396.989 184.932 404.65 197.054 405.874C202.691 406.442 208.951 405.854 214.285 406.676Z" fill="#E8B338"/>
<path d="M227.903 428.872C225.578 426.468 223.517 423.844 220.972 421.603C217.789 418.807 212.857 416.919 208.845 415.131C206.152 413.932 203.602 412.617 200.649 412.273C197.649 411.924 194.964 412.928 192.002 413.062C188.115 413.239 184.583 411.771 180.892 411.351C189.428 419.184 198.55 426.846 210.671 428.069C216.308 428.633 222.568 428.045 227.903 428.872Z" fill="#ADBF60"/>
<path d="M242.478 455.685C240.154 453.28 238.093 450.657 235.548 448.415C232.365 445.619 227.433 443.731 223.421 441.944C220.727 440.744 218.177 439.43 215.225 439.086C212.224 438.737 209.54 439.74 206.578 439.874C202.691 440.046 199.158 438.584 195.468 438.163C204.004 445.997 213.125 453.658 225.247 454.882C230.884 455.45 237.144 454.858 242.478 455.685Z" fill="#30736D"/>
<path d="M206.305 397.973C203.827 395.722 201.143 393.743 198.828 391.268C195.933 388.175 193.905 383.31 192.002 379.362C190.727 376.714 189.337 374.205 188.906 371.271C188.47 368.288 189.404 365.588 189.452 362.629C189.519 358.748 187.952 355.269 187.425 351.603C195.516 359.896 203.448 368.771 205.016 380.82C205.744 386.426 205.327 392.682 206.305 397.973Z" fill="#ADBF60"/>
<path d="M224.188 422.405C222.395 419.581 220.33 416.967 218.753 413.97C216.783 410.223 216.116 404.999 215.326 400.688C214.798 397.796 214.122 395.01 214.487 392.071C214.856 389.079 216.471 386.718 217.305 383.883C218.398 380.16 217.808 376.389 218.273 372.714C223.876 382.842 229.178 393.495 227.495 405.529C226.709 411.117 224.653 417.043 224.188 422.405Z" fill="#30736D"/>
<path d="M235.917 446.565C234.795 443.416 233.362 440.41 232.494 437.136C231.406 433.049 231.919 427.801 232.106 423.424C232.231 420.489 232.192 417.621 233.204 414.835C234.23 412.001 236.329 410.056 237.772 407.475C239.665 404.086 239.929 400.282 241.199 396.797C244.41 407.914 247.209 419.471 242.895 430.832C240.882 436.118 237.561 441.442 235.917 446.565Z" fill="#1D5260"/>
<path opacity="0.76" fill-rule="evenodd" clip-rule="evenodd" d="M623.765 354.893C616.18 355.666 610.261 362.08 610.261 369.875C610.261 377.671 616.185 384.08 623.765 384.872C621.74 394.49 617.811 403.408 612.376 411.204C609.699 408.777 606.154 407.299 602.254 407.299C593.935 407.299 587.19 414.039 587.19 422.358C587.19 425.917 588.428 429.194 590.496 431.775C583.64 435.944 576.037 439.004 567.929 440.712C567.157 433.123 560.743 427.203 552.947 427.203C545.152 427.203 538.742 433.123 537.97 440.712C530.04 439.043 522.59 436.078 515.855 432.048C518.056 429.429 519.385 426.037 519.385 422.353C519.385 414.034 512.645 407.294 504.327 407.294C500.225 407.294 496.507 408.935 493.792 411.593C488.217 403.696 484.183 394.648 482.125 384.862C489.714 384.09 495.634 377.68 495.634 369.885C495.634 362.089 489.714 355.675 482.125 354.903C484.183 345.121 488.222 336.064 493.792 328.177C496.507 330.835 500.22 332.476 504.327 332.476C512.645 332.476 519.385 325.735 519.385 317.417C519.385 313.723 518.056 310.341 515.855 307.721C522.59 303.687 530.04 300.727 537.97 299.058C538.742 306.642 545.152 312.562 552.947 312.562C560.743 312.562 567.157 306.642 567.929 299.058C576.032 300.765 583.64 303.826 590.496 307.995C588.428 310.571 587.19 313.848 587.19 317.412C587.19 325.731 593.935 332.471 602.254 332.471C606.149 332.471 609.699 330.988 612.376 328.566C617.807 336.361 621.74 345.275 623.765 354.893ZM520.978 369.87C520.978 387.52 535.293 401.835 552.942 401.835C570.601 401.835 584.907 387.525 584.907 369.87C584.907 352.212 570.596 337.906 552.942 337.906C535.293 337.906 520.978 352.216 520.978 369.87Z" fill="#D04950"/>
<path fill-rule="evenodd" clip-rule="evenodd" d="M580.085 397.019C595.078 382.026 595.078 357.718 580.085 342.724C565.092 327.731 540.783 327.731 525.79 342.724C510.797 357.718 510.797 382.026 525.79 397.019C540.783 412.013 565.092 412.013 580.085 397.019Z" stroke="white" stroke-width="2.99997"/>
<path d="M700.453 499.211C698.983 511.337 694.602 523.123 687.74 533.093C684.614 537.645 680.961 541.824 676.828 545.477C653.539 566.085 619.773 568.763 589.321 564.412C558.869 560.06 529.259 549.747 498.563 548.064C442.149 544.975 388.719 571.001 334.57 587.526C280.422 604.06 215.782 609.124 173.101 571.115C167.518 566.138 162.357 560.366 159.56 553.333C153.058 536.999 160.614 519.293 163.803 501.592C164.88 495.644 165.459 489.695 164.851 483.8C164.698 482.303 164.468 480.835 164.171 479.401C195.902 466.041 238.248 451.902 291.07 442.009C337.898 433.245 392.956 427.808 456.164 429.223C581.373 432.016 653.802 446.317 694.453 459.366C695.99 463.521 697.508 467.681 698.648 471.927C701.013 480.802 701.554 490.102 700.453 499.211Z" fill="#8A92AD"/>
<path d="M688 532.917C684.872 537.481 681.217 541.671 677.083 545.333C653.782 565.996 620 568.681 589.532 564.318C559.065 559.955 529.441 549.614 498.73 547.927C442.289 544.83 388.832 570.924 334.657 587.493C280.482 604.071 215.811 609.148 173.109 571.039C167.523 566.049 162.359 560.262 159.562 553.21C153.056 536.833 160.616 519.081 163.806 501.333C180.759 506.784 196.927 512.748 216.415 513.414C243.313 514.335 270.245 510.255 296.381 504.171C317.507 499.257 338.633 493.092 360.319 493.001C363.673 492.982 367.457 493.317 369.594 495.901C373.656 500.825 368.157 507.767 363.117 511.679C354.921 518.04 346.715 524.407 338.513 530.769C334.609 533.799 330.24 538.089 331.572 542.855C332.238 545.237 334.24 547.011 336.343 548.32C344.051 553.105 353.68 553.272 362.743 552.989C416.995 551.302 470.27 538.981 523.903 530.644C577.532 522.302 633.111 518.026 685.509 532.178C686.333 532.404 687.162 532.643 688 532.917Z" fill="#3C4A77"/>
<path d="M700.96 492.398C700.84 496.007 697.698 498.772 694.093 498.424C687.881 497.823 681.717 497.113 675.687 496.483C610.887 489.704 545.222 496.488 481.561 510.304C463.705 514.18 445.084 518.585 427.233 516.435C421.744 515.772 419.788 508.783 424.13 505.37C441.488 491.721 465.278 486.129 483.397 472.727C484.913 471.607 486.481 470.287 486.888 468.451C487.729 464.647 483.34 461.906 479.624 460.699C460.506 454.459 439.958 454.678 419.845 454.95C396.481 455.269 373.112 455.589 349.747 455.908C340.303 456.037 320.764 456.166 306.237 451.284C300.073 449.215 300.828 440.281 307.246 439.227C350.498 432.128 400.259 427.971 456.475 429.22C578.552 431.938 650.391 445.592 691.511 458.344C693.38 458.926 694.858 460.351 695.527 462.187C696.68 465.362 697.775 468.556 698.645 471.798C700.443 478.506 701.189 485.466 700.96 492.398Z" fill="#B4B7C0"/>
<rect x="355" y="365" width="44" height="75" fill="#162857"/>
<path opacity="0.76" fill-rule="evenodd" clip-rule="evenodd" d="M243.649 176.198C239.604 176.612 236.448 180.032 236.448 184.188C236.448 188.344 239.608 191.764 243.649 192.172C242.571 197.3 240.474 202.057 237.578 206.213C236.15 204.919 234.259 204.13 232.182 204.13C227.747 204.13 224.149 207.724 224.149 212.158C224.149 214.058 224.812 215.805 225.914 217.18C222.258 219.398 218.203 221.033 213.884 221.942C213.47 217.897 210.05 214.742 205.894 214.742C201.738 214.742 198.323 217.897 197.909 221.942C193.681 221.052 189.713 219.475 186.12 217.325C187.293 215.93 188.001 214.126 188.001 212.158C188.001 207.724 184.407 204.13 179.972 204.13C177.784 204.13 175.802 205.006 174.354 206.425C171.382 202.216 169.231 197.391 168.135 192.172C172.18 191.759 175.335 188.344 175.335 184.188C175.335 180.032 172.18 176.612 168.135 176.198C169.231 170.984 171.382 166.154 174.354 161.95C175.802 163.369 177.784 164.245 179.972 164.245C184.407 164.245 188.001 160.652 188.001 156.217C188.001 154.249 187.293 152.446 186.12 151.051C189.708 148.901 193.681 147.323 197.909 146.433C198.323 150.478 201.738 153.634 205.894 153.634C210.05 153.634 213.47 150.478 213.884 146.433C218.203 147.342 222.258 148.973 225.914 151.195C224.808 152.571 224.149 154.317 224.149 156.217C224.149 160.652 227.747 164.245 232.182 164.245C234.259 164.245 236.15 163.456 237.578 162.162C240.474 166.318 242.571 171.07 243.649 176.198ZM188.852 184.188C188.852 193.601 196.486 201.23 205.894 201.23C215.303 201.23 222.932 193.596 222.936 184.188C222.936 174.774 215.308 167.145 205.894 167.145C196.481 167.145 188.852 174.774 188.852 184.188Z" fill="#D04950"/>
<path fill-rule="evenodd" clip-rule="evenodd" d="M217.658 201.02C226.952 194.534 229.229 181.742 222.743 172.448C216.257 163.154 203.465 160.878 194.171 167.363C184.877 173.849 182.6 186.641 189.086 195.935C195.572 205.229 208.364 207.506 217.658 201.02Z" stroke="white" stroke-width="2.00009"/>
<path opacity="0.27" d="M314.41 526.278C327.877 525.925 341.306 528.033 354.778 527.887C368.422 527.741 382.043 525.271 394.839 520.609C397.385 519.682 400.386 517.88 399.959 515.25C387.312 508.282 371.179 519.804 357.271 515.777C353.579 514.709 350.266 512.583 346.546 511.623C339.729 509.868 332.614 512.216 325.753 513.811C308.23 517.88 280.102 510.865 265 522.368C278.529 531.74 299.092 526.678 314.41 526.278Z" fill="#0F131E"/>
<path opacity="0.2" d="M541.283 489.947C530.369 491.935 519.257 493.752 508.213 492.683C504.426 492.318 500.495 491.533 497.538 489.176C494.582 486.819 492.95 482.475 494.755 479.171C499.468 470.535 512.456 472.073 522.387 471.491C543.731 470.237 565.92 470.899 585.431 479.347C586.276 479.711 586.151 480.932 585.244 481.112L541.283 489.947Z" fill="#0F131E"/>
<path d="M547.639 370H210.357C207.41 370 205 367.583 205 364.629V133.371C205 130.417 207.41 128 210.357 128H547.643C550.59 128 553 130.417 553 133.371V364.629C552.995 367.583 550.585 370 547.639 370Z" fill="#0F2661"/>
<path d="M541.635 365H209.365C206.414 365 204 362.589 204 359.643V134.357C204 131.411 206.414 129 209.365 129H541.635C544.586 129 547 131.411 547 134.357V359.638C547.005 362.584 544.586 365 541.635 365Z" fill="#68A3D0"/>
<path d="M538 138.132V317.868C538 319.037 537.041 320 535.866 320H212.134C210.959 320 210 319.042 210 317.868V138.132C210 136.958 210.959 136 212.134 136H535.866C537.041 136.005 538 136.963 538 138.132Z" fill="#6F7DA0"/>
<path d="M538 139.005V317.869C538 319.042 537.043 320 535.87 320H213V141.131C213 139.962 213.957 139 215.13 139H538V139.005Z" fill="#ECE9E8"/>
<path d="M383 348.005C383 352.421 379.421 356 375 356C373.134 356 371.416 355.36 370.052 354.282C368.191 352.82 367 350.55 367 348C367 343.579 370.579 340 374.995 340C375.453 340 375.906 340.039 376.344 340.113C376.349 340.113 376.354 340.118 376.354 340.118C380.13 340.758 383 344.047 383 348.005Z" fill="#C1C1CC"/>
<path d="M381 347.325C381 351.566 377.634 355 373.475 355C372.202 355 371.005 354.679 369.956 354.11C368.154 352.665 367 350.423 367 347.904C367 343.536 370.467 340 374.744 340C375.187 340 375.626 340.039 376.05 340.112C376.055 340.112 376.06 340.117 376.06 340.117C378.945 341.192 381 344.008 381 347.325Z" fill="#F5F5F7"/>
<path d="M538 274.656V317.873C538 319.039 537.043 320 535.87 320H213V303.266C226.695 296.178 252.472 281.945 267.014 268.294C288.507 248.109 302.552 213.476 340.214 209.227C382.094 204.5 388.671 274.88 440.225 297.617C475.044 312.964 515.445 290.72 538 274.656Z" fill="white"/>
<path d="M527.471 114.169C520.917 114.428 514.029 118.736 513.108 125.254C512.917 126.6 512.95 128.071 512.153 129.174C510.864 130.956 508.23 130.808 506.191 131.618C502.029 133.266 500.917 139.18 503.079 143.109C505.241 147.044 509.604 149.239 513.905 150.47C522.669 152.976 532.283 152.387 540.679 148.822C543.319 147.7 545.887 146.282 548.717 145.86C556.856 144.638 564.288 151.817 572.503 151.366C578.169 151.055 583.081 147.164 588.699 146.325C592.947 145.692 597.224 146.857 601.405 147.844C605.582 148.831 610.021 149.636 614.112 148.323C618.203 147.015 621.711 142.894 620.876 138.662C620.169 135.078 616.69 132.658 613.177 131.699C609.663 130.741 605.95 130.846 602.37 130.18C599.907 129.72 597.186 128.565 596.475 126.15C596.169 125.119 596.293 124.017 596.274 122.939C596.183 118.353 593.171 114.016 589.009 112.128C584.847 110.24 579.744 110.781 575.93 113.311C574.274 114.409 572.823 115.861 570.98 116.594C566.918 118.204 562.484 115.923 558.526 114.069C551.82 110.92 549.638 113.034 544.044 115.775C539.075 118.209 533.17 113.944 527.471 114.169Z" fill="white"/>
<path d="M312.662 90.4356C306.714 91.7403 301.518 96.0328 299.18 101.578C293.936 100.117 288.501 99.3326 283.057 99.2475C278.245 99.1718 272.536 100.226 270.571 104.556C268.4 109.331 272.757 115.009 277.909 116.261C283.061 117.514 288.42 115.694 293.361 113.789C294.353 113.406 295.365 113.014 296.424 112.981C298.715 112.9 300.689 114.446 302.525 115.803C309.211 120.748 318.413 124.199 325.804 120.351C328.598 118.895 331.009 116.455 334.148 116.087C336.472 115.817 338.739 116.753 340.91 117.614C346.322 119.755 352.011 121.551 357.843 121.495C363.676 121.438 369.725 119.292 373.319 114.763C373.89 114.044 374.412 113.26 375.179 112.749C377.729 111.066 380.964 113.264 383.538 114.909C393.31 121.145 408.264 118.554 414.092 108.617C416.239 104.953 416.958 99.9566 414.212 96.7041C412.673 94.8793 410.325 93.9339 408.019 93.2484C401.674 91.3574 394.877 90.9556 388.35 92.076C384.213 92.7851 380.039 94.104 375.898 93.4091C372.72 92.8749 369.447 91.1825 366.451 92.3549C364.256 93.2153 362.627 95.5223 360.264 95.5837C358.936 95.6168 357.719 94.9077 356.607 94.1986C353.242 92.0523 349.95 89.6319 346.101 88.5257C342.252 87.4242 337.589 87.9631 335.015 91.0076C329.015 98.1224 321.471 88.5068 312.662 90.4356Z" fill="#FFF1F3"/>
<path d="M260 165.279V299.726C260 301.536 258.521 303 256.698 303H232.302C230.479 303 229 301.536 229 299.726V165.279C229 163.469 230.479 162 232.302 162H256.698C258.526 162 260 163.469 260 165.279Z" fill="#B2A1A1"/>
<path d="M502 246.081C501.927 248.855 492.94 255.064 473.541 257.374C454.137 259.685 456.992 258.855 456.992 258.855L451.803 255.303L448 252.698L489.869 247.037L482.74 245.04L488.579 241.245L492.035 239C492.035 238.995 502.067 243.302 502 246.081Z" fill="#FFC3C4"/>
<path opacity="0.33" d="M493.626 246.791C493.339 247.179 492.924 247.445 492.513 247.692C491.563 248.271 490.588 248.831 489.566 249.269C487.379 250.217 485.001 250.637 482.651 251.052C479.17 251.668 475.679 252.289 472.155 252.625C467.962 253.017 463.735 253.017 459.557 253.549C456.935 253.885 454.351 254.431 451.773 255L448 252.405L489.538 246.768L482.465 244.78L488.258 241C488.864 241.28 489.471 241.541 490.087 241.803C491.185 242.265 492.341 242.717 493.153 243.581C493.97 244.444 494.328 245.839 493.626 246.791Z" fill="#FE8568"/>
<path d="M467.282 235.4C467.282 235.4 472.052 240.02 487.162 248C489.603 240.402 492 238.846 492 238.846C492 238.846 480.356 232.403 472.741 229.568C465.125 226.738 467.282 235.4 467.282 235.4Z" fill="#832126"/>
<path d="M449.328 204.284C450.526 206.833 454.271 215.522 451.236 218.514C456.075 222.293 460.539 225.37 469.65 220.465C471.67 218.396 472.774 213.039 471.369 207.803C469.964 202.564 462.752 196.787 455.662 196.047C450.118 195.467 449.159 200.401 449.009 202.578C448.966 203.162 449.079 203.746 449.328 204.284Z" fill="#FFC3C4"/>
<path d="M344 194L394 248" stroke="white"/>
<path d="M531 278.342C521.258 284.077 509.574 293.353 501.394 293.989C493.219 294.625 472 267.221 472 267.221L486.856 262.246L493.571 260C493.571 260 501.355 280.254 503.356 284.221C506.6 281.941 516.428 278.414 518.14 277.563C519.856 276.713 529.284 273.033 529.284 273.033C529.284 273.033 529.872 273.229 530.855 277.688C530.908 277.898 530.957 278.113 531 278.342Z" fill="#58A7A5"/>
<path opacity="0.44" d="M531 278.282C521.809 279.801 512.868 282.804 504.619 287.156C503.677 287.657 502.624 288.188 501.585 287.935C500.637 287.701 499.966 286.874 499.381 286.08C496.994 282.843 489.986 271.809 487 262.244L493.746 260C493.746 260 501.406 280.687 503.382 284.737C506.649 282.439 516.527 278.915 518.252 278.059C519.977 277.207 529.454 273.527 529.454 273.527C529.454 273.527 530.043 273.731 531 278.282Z" fill="#0F4443"/>
<path d="M531 303.483C531 303.483 495.842 311.528 489.291 311.952C482.744 312.376 479.281 309.975 477.668 304.754C476.054 299.529 472 266.512 472 266.512L489.771 261.181L493.705 260C493.705 260 496.337 270.799 493.705 282.022C491.068 293.245 491.923 302.563 491.923 302.563C491.923 302.563 503.239 297.833 513.916 296.704C524.593 295.575 529.29 294.584 529.29 294.584L530.438 300.567L531 303.483Z" fill="#34B0B2"/>
<path d="M475 229.533L469.373 230.873L468.839 231L467 221.623L470.35 220L470.646 220.619L475 229.533Z" fill="#FFC3C4"/>
<path d="M470 262.733L466.561 269.401L462.64 277L389 239.272L392.077 233.297L396.355 225L470 262.733Z" fill="#1D5260"/>
<path opacity="0.56" d="M469.581 230.873L469.001 231L467 221.623L470.639 220L470.966 220.619C470.971 220.673 470.976 220.721 470.976 220.775C471.11 223.953 470.678 227.671 469.581 230.873Z" fill="#FE8568"/>
<path d="M394 228.752L392.14 232.291V232.296L389.917 236.527L386.326 234.716C386.326 234.716 383.051 235.643 376.763 237C376.046 230.83 368.927 222.302 367.32 220.448C367.115 220.209 367 220.083 367 220.083C367 220.083 380.483 221.408 386.732 218C389.267 223.795 390.4 226.945 390.4 226.945L394 228.752Z" fill="#1D5260"/>
<path d="M393 232.163L390.761 236.514L387.144 234.654C387.144 234.654 383.845 235.606 377.512 237C376.789 230.663 369.618 221.904 368 220L393 232.163Z" fill="#1D5260"/>
<path d="M393 230.303L390.801 234.528L387.251 232.722C387.251 232.722 384.012 233.646 377.794 235C377.085 228.847 368.584 220.849 367 219L393 230.303Z" fill="#F0ECEC"/>
<path opacity="0.25" d="M530 300.841C524.7 299.858 518.836 300.611 513.426 301.574C505.607 302.974 497.687 304.657 490.741 308.522C489.658 309.126 488.57 309.792 487.344 309.965C486.118 310.138 484.701 309.673 484.19 308.536C483.99 308.095 483.947 307.601 483.904 307.122C483.68 304.552 483.456 301.982 483.231 299.412C482.998 296.732 482.769 293.98 483.47 291.381C484.128 288.926 485.569 286.769 486.685 284.486C490.283 277.146 490.216 269.129 489.61 261.189L493.517 260C493.517 260 496.132 270.869 493.517 282.166C490.898 293.462 491.747 302.84 491.747 302.84C491.747 302.84 502.987 298.079 513.593 296.943C524.199 295.806 528.865 294.809 528.865 294.809L530 300.841Z" fill="#174947"/>
<path d="M368 220L380 226" stroke="#1D5260"/>
<path d="M449.33 255.791C440.431 262.999 434.148 266.171 431.417 266.914C430.826 267.075 430.206 267.007 429.653 266.738C421.374 262.765 411.702 256.07 406.928 251.183C405.303 249.517 404.245 248.07 404 247C411.663 247.591 427.35 259.202 430.244 257.868C433.133 256.534 443.349 248.407 443.349 248.407C443.349 248.407 446.065 248.505 448.032 249.732C449.666 250.763 450.777 252.576 449.33 255.791Z" fill="#FFC3C4"/>
<path opacity="0.33" d="M449.331 255.969C440.447 263.063 434.175 266.184 431.448 266.915C430.858 267.074 430.239 267.007 429.687 266.742C421.422 262.832 411.766 256.243 407 251.433C408.181 251.924 409.462 252.203 410.643 252.713C412.054 253.323 413.302 254.266 414.564 255.146C418.063 257.589 421.821 259.653 425.761 261.298C427.57 262.053 429.481 262.736 431.434 262.62C434.112 262.466 436.478 260.86 438.532 259.133C441.897 256.31 444.853 253.04 448.026 250C449.667 251.02 450.776 252.804 449.331 255.969Z" fill="#FE8568"/>
<path d="M493 260.556C485.819 263.288 471.381 268 471.381 268C471.381 268 465.113 245.461 464.41 245.601C462.58 247.183 448.917 256.674 448.917 256.674C448.917 256.674 447.676 254.685 446.308 252.778C445.02 250.987 443.613 249.27 443 249.338C443 249.338 457.367 234.382 464.41 230.355C471.453 226.327 477.084 227.337 480.748 234.382C483.785 240.234 488.48 250.255 491.436 256.941C492.04 258.305 492.568 259.537 493 260.556Z" fill="#D04950"/>
<path d="M354.196 347.753C356.178 348.372 358.291 349.073 358.858 351.68C359.186 353.181 358.815 354.745 357.963 356.017C357.617 356.538 357.218 356.991 356.78 357.4C355.375 358.696 353.561 359.476 351.708 360.061C350.756 360.358 349.788 360.611 348.869 360.85C347.508 361.206 346.05 360.928 344.962 360.027C336.936 353.366 355.779 342.159 361.091 339.08C361.481 338.856 361.957 339.129 361.996 339.577C362.101 341.024 360.287 341.896 358.791 343.061C357.011 344.445 355.168 345.716 354.196 347.753Z" fill="#FFC3C4"/>
<path opacity="0.56" d="M357 357.347C355.573 358.639 353.73 359.417 351.848 360C351.276 359.976 350.704 359.893 350.147 359.762C349.819 359.684 349.477 359.577 349.277 359.31C349.14 359.135 349.091 358.902 349.057 358.683C348.93 357.867 349.003 356.997 349.414 356.273C349.819 355.554 350.587 355.01 351.423 355C351.506 355 351.599 355.005 351.662 355.063C351.731 355.126 351.74 355.238 351.735 355.33C351.731 355.918 351.687 356.56 352.029 357.036C352.488 357.687 353.432 357.741 354.238 357.707C354.883 357.677 356.179 357.245 357 357.347Z" fill="#FE8568"/>
<path d="M474.896 216.046C474.48 216.686 474.004 217.336 473.475 217.924C472.579 218.911 471.513 219.721 470.276 220L469.271 212.616C470.574 211.393 470.918 209.119 469.786 207.732C468.658 206.345 466.101 206.48 465.341 208.103C463.652 204.105 459.948 201.056 455.758 200.223C453.574 199.784 451.342 200.069 449.587 201.465C448.455 200.059 447.336 198.383 448.478 196.991C448.723 196.687 449.025 196.403 449.115 196.023C449.181 195.743 449.125 195.449 449.139 195.16C449.167 194.717 449.37 194.332 449.658 193.985C449.884 193.701 450.167 193.455 450.455 193.234C455.249 189.491 462.227 188.937 467.53 191.885C469.743 191.538 472.107 192.829 473.669 194.472C476.321 197.265 477.83 201.114 477.986 204.996C478.142 208.893 476.986 212.789 474.896 216.046Z" fill="#8B2920"/>
<path d="M411 251.008C411 251.168 410.991 251.333 410.972 251.493C410.277 256.608 403.368 252.677 401.782 250.411C400.294 248.276 399.768 245.509 400.092 242.898C400.153 242.384 400.312 241.806 400.627 241.423C400.801 241.21 401.021 241.054 401.308 241.011C401.8 240.938 402.265 241.253 402.641 241.593C404.279 243.088 405.199 245.344 407.006 246.611C407.851 247.198 408.85 247.538 409.639 248.208C410.446 248.887 410.981 249.94 411 251.008Z" fill="#FFC3C4"/>
<path opacity="0.33" d="M411 250.145C411 250.298 410.991 250.455 410.972 250.608C410.277 255.489 403.368 251.738 401.782 249.575C400.294 247.538 399.768 244.899 400.092 242.408C400.153 241.917 400.312 241.366 400.627 241C400.613 241.06 400.608 241.125 400.603 241.185C400.35 243.7 400.641 246.422 402.218 248.418C403.79 250.409 406.94 251.33 409.024 249.858C409.357 249.622 409.719 249.321 410.127 249.395C410.348 249.437 410.531 249.594 410.686 249.751C410.798 249.872 410.906 250.006 411 250.145Z" fill="#FE8568"/>
<path d="M410.415 251.248C409.335 249.889 408.833 248.139 409.049 246.455C409.064 246.323 409.094 246.182 409.195 246.088C409.436 245.872 409.827 246.093 410.048 246.323C411.067 247.391 411.58 248.76 411.906 250.133C412.222 251.474 411.745 252.918 410.415 251.248Z" fill="#FFDBDC"/>
<path d="M531.057 302.904C534.357 306.853 537.218 311.195 539.561 315.81C539.804 316.29 540.094 316.817 540.598 316.961C541.417 317.2 542.108 316.299 542.403 315.48C543.198 313.265 543.029 310.821 542.852 308.468C542.712 306.623 542.562 304.734 541.809 303.052C541.51 302.386 540.454 300.21 540.304 299.491C540.07 298.37 540.309 297.119 540.304 295.978C540.295 293.812 539.369 292.355 535.998 292C532.815 292.077 530.823 292.522 529 295.197C529.771 297.066 530.776 300.895 531.057 302.904Z" fill="#502626"/>
<path d="M306 378.463C305.692 378.767 305.359 379.056 304.999 379.322C302.669 381.109 299.423 382.19 296.599 381.972C296.12 378.392 295.636 374.812 295.157 371.233C295.104 370.844 295.052 370.46 295 370.071C296.77 369.398 298.54 368.952 300.438 369.004C300.709 369.009 301.003 369.028 301.212 369.203C301.383 369.346 301.468 369.564 301.549 369.768C302.74 372.812 304.235 375.723 306 378.463Z" fill="#FFC3C4"/>
<path opacity="0.56" d="M306 378.168C305.692 378.462 305.359 378.743 304.999 379C301.501 376.799 297.781 374.202 295.157 371.164C295.104 370.787 295.052 370.415 295 370.038C296.77 369.385 298.54 368.953 300.438 369.004C300.709 369.009 301.003 369.027 301.212 369.197C301.383 369.335 301.468 369.546 301.549 369.744C302.74 372.69 304.235 375.512 306 378.168Z" fill="#FE8568"/>
<path d="M538.358 283.984C539.507 285.384 540.526 287.012 542.151 287.8C542.564 287.999 543.103 288.121 543.439 287.814C543.612 287.654 543.689 287.421 543.742 287.187C544.131 285.413 544.141 283.401 543.343 281.772C542.29 279.629 539.872 278.19 538.82 276.046C538.373 275.137 538.464 273.737 538.161 272.77C537.911 271.963 537.752 271.103 537.281 270.408C536.262 268.901 534.041 268.672 532.388 269.397C530.729 270.126 529.504 271.565 528.34 272.96C528.196 273.135 528.042 273.324 528.009 273.548C527.874 274.462 529.345 276.28 529.835 277.062C530.354 277.893 530.811 278.316 531.672 278.802C534.215 280.241 536.455 281.699 538.358 283.984Z" fill="#361A19"/>
<path d="M305.129 341C305.129 341 306.642 352.901 312.478 352.691C313.991 357.585 312.911 369.511 299.721 371C296.01 371 290.208 368.447 288.262 362.058C286.317 355.67 295.83 343.112 295.83 343.112L305.129 341Z" fill="#FFC3C4"/>
<path opacity="0.13" d="M303.247 359.112C304.909 357.449 304.909 354.751 303.247 353.087C301.585 351.424 298.89 351.424 297.227 353.087C295.565 354.751 295.565 357.449 297.227 359.112C298.89 360.776 301.585 360.776 303.247 359.112Z" fill="#E34635"/>
<path d="M289.592 362.857C289.772 363.717 290.416 364.41 291.118 364.936C292.738 366.144 293.956 366.431 295.961 366.211C295.961 366.211 295.089 370.024 294.293 370C292.383 369.986 290.497 369.751 288.729 369.255C285.189 368.275 282.099 366.269 280.128 362.972C279.356 361.677 278.408 359.432 277.844 358.027C276.801 355.457 276.891 353.727 277.232 350.97C277.408 349.532 277.967 348.171 278.559 346.847C279.564 344.611 280.706 342.423 282.242 340.522C286.834 334.846 294.184 333.79 300.87 336.241C301.78 336.57 302.676 336.967 303.553 337.43C305.382 345.944 301.472 355.404 294.188 360.091C293.662 360.43 293.094 360.755 292.468 360.789C291.876 360.822 291.265 360.578 290.686 360.736C289.848 360.961 289.412 361.992 289.592 362.857Z" fill="#502626"/>
<rect x="305" y="439" width="144" height="5" fill="#0F2661"/>
<path d="M305.626 381.056C305.451 381.426 305.233 381.791 305.015 382.132C299.337 391.043 291.545 398.557 282.479 403.87C282.043 404.124 281.559 404.432 281.46 404.936C281.351 405.455 281.706 405.95 282.038 406.358C286.536 411.911 291.214 417.316 296.048 422.561C297.09 423.69 298.157 424.833 298.806 426.227C299.465 427.625 299.65 429.335 298.906 430.685C298.119 432.121 296.872 431.568 296.081 433C295.683 432.745 295.285 432.481 294.891 432.212C285.014 425.578 276.692 416.585 270.815 406.156C270.403 405.431 269.995 404.653 270 403.817C270.014 402.529 270.981 401.487 271.901 400.603C278.986 393.714 286.512 386.989 294.678 381.849C296.114 380.946 297.569 380.091 299.043 379.288C299.327 379.135 299.621 378.981 299.906 378.832C300.991 378.265 302.289 377.953 303.507 378.006C304.73 378.059 305.669 377.881 305.939 379.091C306.1 379.759 305.925 380.422 305.626 381.056Z" fill="#9B7316"/>
<path d="M285.983 367.209C285.829 368.559 284.699 369.602 283.493 370.199C281.335 371.269 278.667 371.288 276.555 370.128C276.513 370.104 276.467 370.08 276.425 370.052C274.383 368.872 272.986 366.565 273 364.182C273.009 363.286 273.206 362.377 273.71 361.642C273.93 361.32 274.21 361.041 274.518 360.809C275.121 360.363 275.859 360.088 276.602 360.022C279.513 359.747 283.498 362.088 285.11 364.452C285.666 365.262 286.091 366.228 285.983 367.209Z" fill="#6B3332"/>
<path opacity="0.51" d="M281.194 405.005C281.082 405.522 281.447 406.016 281.788 406.423C286.406 411.963 291.21 417.354 296.174 422.587C297.245 423.713 298.34 424.853 299.006 426.243C299.683 427.638 299.873 429.344 299.109 430.69C298.301 432.123 297.021 431.572 296.208 433C295.799 432.746 295.39 432.482 294.986 432.214C291.701 423.833 286.854 416.098 280.775 409.552C279.311 407.971 277.636 406.059 278.07 403.922C278.352 402.522 279.471 401.492 280.498 400.524C285.209 396.062 288.173 390.911 291.619 385.486C292.427 384.212 293.522 382.999 294.767 381.974C296.145 380.833 297.707 379.923 299.25 379.419C301.834 378.59 304.379 378.897 306 381.183C305.82 381.552 305.596 381.916 305.372 382.256C299.542 391.146 291.541 398.641 282.231 403.941C281.788 404.195 281.296 404.501 281.194 405.005Z" fill="#4E3803"/>
<path d="M294.619 528.992C290.02 529.125 285.286 527.571 282.556 523.982C281.193 522.189 280.398 520.003 278.881 518.339C277.827 517.179 276.473 516.318 275.303 515.272C274.128 514.227 273.093 512.872 273.006 511.312C272.91 509.653 273.94 508.08 275.298 507.091C275.332 507.067 275.361 507.043 275.395 507.024C276.266 506.406 277.258 505.983 278.279 505.651C278.823 505.465 279.377 505.313 279.926 505.166C280.355 505.047 280.808 504.937 281.241 505.042C281.756 505.175 282.137 505.584 282.488 505.974C283.601 507.219 285.368 508.598 286.177 510.038C286.923 511.374 286.894 513.228 287.415 514.697C288.469 517.687 290.256 520.43 292.326 522.85C292.582 523.15 292.847 523.444 293.111 523.739C293.554 524.229 294.012 524.714 294.45 525.208C294.898 525.707 295.331 526.216 295.726 526.753C296.396 527.671 295.765 528.959 294.619 528.992Z" fill="#6BBCC0"/>
<path d="M348 363.169C345.966 365.74 340.361 369.234 336.554 371.762C329.383 376.53 322.208 381.297 315.038 386.065C314.69 386.296 314.323 386.546 314.158 386.93C313.941 387.444 314.139 388.031 314.337 388.554C317.971 398.104 320.039 408.245 320.43 418.448C320.459 419.236 320.464 420.072 320.039 420.736C319.724 421.216 319.212 421.543 318.719 421.846C315.989 423.528 313.173 425.109 310.187 426.301C309.998 426.373 309.781 426.464 309.534 426.551C305.833 427.969 296.054 431.28 295.807 426.532C295.479 420.048 297.276 413.709 296.44 407.106C295.967 403.367 294.995 399.695 294.638 395.941C294.261 391.996 293.502 387.954 294.478 384.114C294.788 382.893 295.237 382.018 296.073 381.072C297.257 379.711 299.813 378.616 301.528 378.058C317.449 372.945 330.354 361.28 344.241 352C344.338 352.245 344.429 352.481 344.516 352.711C346.038 356.575 346.898 358.959 348 363.169Z" fill="#E8B338"/>
<path d="M337.403 513.454C337.394 513.464 337.384 513.474 337.375 513.483C336.402 514.386 335.129 514.869 333.889 515.332C331.768 516.129 329.618 516.935 327.372 517.249C325.637 517.495 323.868 517.437 322.166 517.852C319.891 518.412 317.889 519.769 315.672 520.527C312.878 521.473 309.207 521.217 308.206 517.746C307.958 516.882 307.944 515.974 308.111 515.091C308.144 514.878 308.192 514.666 308.249 514.454C308.649 513.034 309.269 511.683 310.089 510.461C310.528 509.805 311.024 509.187 311.562 508.612C313.655 508.883 316.182 507.937 318.075 507C321.465 508.453 325.055 509.419 328.716 509.877C330.385 510.09 332.073 510.191 333.761 510.186C334.49 510.186 335.22 510.167 335.949 510.123C337.723 510.017 338.705 512.228 337.403 513.454Z" fill="#6BBCC0"/>
<path d="M329 510.776C326.632 511.461 324.22 512.02 321.783 512.449C319.468 512.859 317.085 513.138 314.732 512.929C312.84 512.761 311.031 512.286 310 511.34C310.447 510.707 310.953 510.11 311.503 509.556C313.638 509.817 316.215 508.904 318.146 508C321.603 509.398 325.265 510.329 329 510.776Z" fill="#FFC3C4"/>
<path d="M292 523C287.93 521.144 285.055 517.289 282.559 513.525C280.88 510.979 279.584 508.236 278 505.656C278.542 505.469 279.094 505.316 279.641 505.167C280.069 505.047 280.52 504.937 280.952 505.042C281.465 505.177 281.844 505.589 282.195 505.982C283.303 507.239 285.065 508.629 285.871 510.082C286.615 511.429 286.586 513.3 287.105 514.781C288.156 517.797 289.936 520.559 292 523Z" fill="#FFC3C4"/>
<path opacity="0.39" d="M348 363.481C345.961 366.057 340.343 369.559 336.527 372.092C329.34 376.87 322.149 381.648 314.962 386.426C314.613 386.657 314.245 386.908 314.08 387.293C313.862 387.809 314.061 388.396 314.26 388.921C317.901 398.491 319.974 408.654 320.366 418.879C320.396 419.669 320.4 420.507 319.974 421.172C319.659 421.654 319.146 421.981 318.652 422.285C315.916 423.97 313.092 425.555 310.1 426.75C309.911 426.822 309.693 426.913 309.446 427C307.964 426.624 306.477 426.249 305 425.868C306.017 421.928 310.986 420.488 313.276 417.121C315.252 414.212 314.928 410.383 314.521 406.901C314.022 402.629 313.475 398.202 311.242 394.523C310.012 392.495 308.216 390.323 308.913 388.054C309.199 387.134 309.867 386.388 310.531 385.689C316.458 379.452 323.621 374.39 331.486 370.864C335.801 368.928 340.871 366.891 342.266 362.387C343.176 359.444 341.767 355.124 344.513 353C346.034 356.872 346.896 359.261 348 363.481Z" fill="#9B7316"/>
<path d="M314 425C314 425 306.363 458.194 304.44 474.309C302.516 483.64 286.911 511 286.911 511L280.423 506.306L279 505.275L292.898 467.501C292.898 467.501 293.326 461.801 293.538 448.228C293.643 441.42 294.48 435.972 295.288 432.237C296.082 428.525 296.856 426.498 296.856 426.498L314 425Z" fill="#832126"/>
<path d="M313 425C313 425 305.494 458.194 303.604 474.309C301.713 483.64 286.376 511 286.376 511L280 506.306C285.738 501.177 291.013 495.519 294.709 488.783C299.435 480.158 301.316 469.968 299.983 460.202C299.137 454.024 297.062 448.095 295.711 442.012C295.011 438.859 294.576 435.514 294.609 432.237C295.389 428.525 296.15 426.498 296.15 426.498L313 425Z" fill="#62191C"/>
<path d="M321.016 491.009C320.192 500.559 319.426 508.311 319.426 508.311C319.426 508.311 313.685 512.147 309.238 510.656C310.719 502.342 310.719 500.64 310.719 498.296C310.719 495.952 308.391 465.263 309.238 463.346C306.063 455.032 294.223 442.476 296.227 427.014C297.474 423.84 301.673 422.292 306.21 421.573C312.794 420.528 320.097 421.232 320.097 421.232C320.097 421.232 322.782 447.577 322.992 458.872C323.106 465.067 322.021 479.373 321.016 491.009Z" fill="#D04950"/>
<path opacity="0.37" d="M355 365L399 427V365H355Z" fill="#265550"/>
<path opacity="0.39" d="M716.325 369.375C712.539 378.26 706.994 386.59 701.823 394.959C687.902 395.198 563.529 395.924 498.517 346.959C427.664 293.602 418.635 266.331 383 250.019C383 250.019 403.65 248.69 437.632 268.505C453.451 277.725 562.244 349.215 713.277 304.767C723.465 324.424 725.051 348.895 716.325 369.375Z" fill="url(#paint0_linear)"/>
<path opacity="0.39" d="M652.989 200.933C652.932 207.184 652.726 213.582 652.903 219.9C577.536 241.656 520.728 235.506 499.259 228.46C497.297 227.818 497.723 225.757 499.881 225.431C563.784 215.682 613.207 189.257 650.041 160C652.152 173.627 653.114 187.426 652.989 200.933Z" fill="url(#paint1_linear)"/>
<path d="M582.237 193.826C583.352 189.097 580.427 184.358 575.702 183.241C570.977 182.124 566.243 185.053 565.127 189.782C564.012 194.511 566.937 199.25 571.662 200.367C576.387 201.483 581.121 198.555 582.237 193.826Z" fill="white"/>
<path fill-rule="evenodd" clip-rule="evenodd" d="M233 188V179L239 185.054L235.301 184.948L233 188Z" stroke="white"/>
<path d="M250 188V179L256 185.054L252.301 184.948L250 188Z" fill="white"/>
<path d="M256 239L248 247" stroke="white"/>
<path d="M254 202L248 208" stroke="white"/>
<rect x="232" y="200" width="8" height="7" stroke="white"/>
<path d="M233 242V240H239V242" stroke="white"/>
<path d="M236 240V247" stroke="white"/>
<path d="M234 247H237" stroke="white"/>
<path d="M249 200.081C249.532 199.934 250.037 200.007 250.538 200.14C251.039 200.287 251.531 200.493 252 200.919C251.468 201.066 250.963 200.993 250.462 200.86C249.966 200.713 249.474 200.507 249 200.081Z" fill="white"/>
<path d="M250.988 199C251.038 199.545 250.926 200.055 250.769 200.559C250.601 201.059 250.388 201.545 250.012 202C249.962 201.455 250.074 200.945 250.231 200.441C250.399 199.945 250.612 199.455 250.988 199Z" fill="white"/>
<path d="M254 199.105C254.533 198.934 255.042 198.996 255.54 199.12C256.038 199.26 256.532 199.461 257 199.895C256.467 200.066 255.958 200.004 255.46 199.88C254.962 199.74 254.468 199.539 254 199.105Z" fill="white"/>
<path d="M255.976 198C256.049 198.553 255.945 199.061 255.793 199.563C255.628 200.061 255.415 200.548 255.024 201C254.951 200.447 255.055 199.939 255.207 199.437C255.372 198.939 255.585 198.452 255.976 198Z" fill="white"/>
<path d="M254 202.105C254.533 201.934 255.042 201.996 255.54 202.12C256.038 202.26 256.532 202.461 257 202.895C256.467 203.066 255.958 203.004 255.46 202.88C254.962 202.733 254.468 202.531 254 202.105Z" fill="white"/>
<path d="M255.976 201C256.049 201.553 255.945 202.061 255.793 202.563C255.628 203.061 255.415 203.548 255.024 204C254.951 203.447 255.055 202.939 255.207 202.437C255.372 201.939 255.585 201.447 255.976 201Z" fill="white"/>
<path fill-rule="evenodd" clip-rule="evenodd" d="M249 224.114L252.821 228L257 224.114L252.998 220L249 224.114Z" stroke="white"/>
<path fill-rule="evenodd" clip-rule="evenodd" d="M249.415 225L248 226.533L250.453 229L252 227.595L249.415 225Z" stroke="white"/>
<path fill-rule="evenodd" clip-rule="evenodd" d="M231 223.5C231 221.568 232.577 220 234.503 220C236.428 220 237.995 221.568 238 223.5C238 224.254 237.762 224.957 237.348 225.528C237.085 225.902 236.747 226.216 236.362 226.459C235.822 226.803 235.185 227 234.503 227C232.572 227 231 225.432 231 223.5ZM236.277 225.968C236.494 225.811 236.691 225.629 236.863 225.417C237.292 224.891 237.55 224.228 237.55 223.495C237.55 221.811 236.186 220.445 234.503 220.445C232.819 220.445 231.45 221.811 231.45 223.495C231.45 225.179 232.819 226.545 234.503 226.545C235.165 226.545 235.776 226.332 236.277 225.968Z" fill="#B2A1A1"/>
<path d="M238 223.5H238.5L238.5 223.499L238 223.5ZM237.348 225.528L236.943 225.235L236.939 225.241L237.348 225.528ZM236.362 226.459L236.095 226.036L236.094 226.037L236.362 226.459ZM236.863 225.417L236.476 225.101L236.474 225.102L236.863 225.417ZM236.277 225.968L235.984 225.563L235.982 225.564L236.277 225.968ZM234.503 219.5C232.302 219.5 230.5 221.291 230.5 223.5H231.5C231.5 221.845 232.852 220.5 234.503 220.5V219.5ZM238.5 223.499C238.494 221.293 236.705 219.5 234.503 219.5V220.5C236.151 220.5 237.496 221.843 237.5 223.501L238.5 223.499ZM237.753 225.822C238.229 225.165 238.5 224.36 238.5 223.5H237.5C237.5 224.147 237.296 224.748 236.943 225.235L237.753 225.822ZM236.63 226.881C237.066 226.606 237.454 226.248 237.757 225.816L236.939 225.241C236.717 225.557 236.428 225.826 236.095 226.036L236.63 226.881ZM234.503 227.5C235.283 227.5 236.012 227.274 236.631 226.881L236.094 226.037C235.631 226.331 235.087 226.5 234.503 226.5V227.5ZM230.5 223.5C230.5 225.709 232.296 227.5 234.503 227.5V226.5C232.847 226.5 231.5 225.155 231.5 223.5H230.5ZM236.474 225.102C236.332 225.278 236.168 225.43 235.984 225.563L236.569 226.374C236.819 226.193 237.05 225.981 237.252 225.731L236.474 225.102ZM237.05 223.495C237.05 224.107 236.836 224.659 236.476 225.101L237.25 225.733C237.749 225.122 238.05 224.349 238.05 223.495H237.05ZM234.503 220.945C235.909 220.945 237.05 222.086 237.05 223.495H238.05C238.05 221.535 236.462 219.945 234.503 219.945V220.945ZM231.95 223.495C231.95 222.088 233.095 220.945 234.503 220.945V219.945C232.544 219.945 230.95 221.534 230.95 223.495H231.95ZM234.503 226.045C233.095 226.045 231.95 224.902 231.95 223.495H230.95C230.95 225.456 232.544 227.045 234.503 227.045V226.045ZM235.982 225.564C235.565 225.868 235.056 226.045 234.503 226.045V227.045C235.274 227.045 235.988 226.797 236.571 226.372L235.982 225.564Z" fill="white"/>
<path d="M240.999 230C240.657 230.004 240.36 229.959 240.069 229.914L239.567 229.412L238.564 228.406L237.561 227.401C237.397 227.239 237.246 227.077 237.078 226.92C237.068 226.916 237.059 226.907 237.055 226.902C237.036 226.768 237.018 226.633 237 226.489C237.201 226.35 237.378 226.184 237.529 226C237.666 226.018 237.798 226.036 237.926 226.054C237.939 226.067 237.948 226.081 237.962 226.094C238.113 226.256 238.272 226.4 238.423 226.561L239.426 227.567L240.429 228.572L240.93 229.075C240.967 229.376 241.008 229.668 240.999 230Z" fill="white"/>
<path fill-rule="evenodd" clip-rule="evenodd" d="M242 293V279H256V293H242ZM246.059 288.936H251.931V283.064H246.059V288.936Z" fill="white"/>
<rect x="234" y="272" width="14" height="14" fill="#595050" stroke="white" stroke-width="0.75"/>
<path d="M253 273H254.356C254.711 273 255 273.323 255 273.72V275" stroke="#595050"/>
<path d="M254 272V274L252 272.998L254 272Z" fill="#595050"/>
<path d="M254 275H256L255.002 277L254 275Z" fill="#595050"/>
<path fill-rule="evenodd" clip-rule="evenodd" d="M241 259.151V263H235V258H239.829L241 259.151Z" stroke="white" stroke-width="0.75"/>
<path d="M235 257V255" stroke="white" stroke-width="0.75"/>
<path d="M234 258H232" stroke="white" stroke-width="0.75"/>
<path fill-rule="evenodd" clip-rule="evenodd" d="M241 258.499V259H239V257C239 257 239.551 257.018 239.571 257.041L239.653 257.124L240.837 258.333L241 258.499Z" stroke="white" stroke-width="0.75"/>
<path opacity="0.49" d="M494 259.548C486.772 262.283 472.239 267 472.239 267C472.239 267 465.929 244.435 465.221 244.575C463.379 246.159 449.626 255.661 449.626 255.661C449.626 255.661 448.378 253.67 447 251.76C447.512 251.45 448.062 251.129 448.641 250.784C452.63 248.394 456.252 245.299 459.304 241.767C460.552 240.315 461.753 238.751 463.399 237.789C465.044 236.827 467.297 236.618 468.737 237.881C469.742 238.76 470.139 240.135 470.493 241.432C471.368 244.668 472.248 247.898 473.129 251.129C473.387 252.081 473.76 253.16 474.674 253.49C475.444 253.767 476.334 253.393 477.099 253.679C477.874 253.971 478.257 254.826 478.73 255.516C480.625 258.251 484.538 258.659 487.719 257.784C489.345 257.337 490.886 256.638 492.426 255.933C493.034 257.294 493.565 258.528 494 259.548Z" fill="#832126"/>
<path fill-rule="evenodd" clip-rule="evenodd" d="M251.85 255L246 263L250.772 260.803L254 257.079L251.85 255Z" stroke="white" stroke-width="0.75"/>
<path fill-rule="evenodd" clip-rule="evenodd" d="M250 256.425L252.782 259L255 256.201L251.802 254L250 256.425Z" stroke="white" stroke-width="0.75"/>
<path d="M260 165.457V171H229V165.457C229 163.549 230.479 162 232.302 162H256.698C258.526 162 260 163.549 260 165.457Z" fill="#595050"/>
<path d="M368 219C368 219.552 367.552 220 367 220C366.448 220 366 219.552 366 219C366 218.448 366.448 218 367 218C367.552 218 368 218.448 368 219Z" fill="#1D5260"/>
<path d="M256 279L242 293" stroke="#DA0016"/>
<path d="M489 29V262H487V29.3692C487.669 29.2349 488.337 29.1151 489 29Z" fill="#595050"/>
<path d="M472 268L494 260" stroke="#595050" stroke-width="4"/>
<path d="M489 261.5C489 262.33 488.326 263 487.5 263C486.669 263 486 262.326 486 261.5C486 260.67 486.674 260 487.5 260C488.331 259.996 489 260.67 489 261.5Z" fill="#595050"/>
<path d="M490.007 478.686C489.911 481.544 490.853 484.463 492.763 486.605C495.306 489.449 499.213 490.656 502.982 491.326C510.259 492.613 518.135 492.25 524.504 488.529C524.97 488.255 525.44 487.954 525.716 487.491C526.115 486.822 526.011 485.987 525.897 485.218C525.654 483.586 525.407 481.959 525.165 480.327C525.065 479.672 524.96 479.002 524.661 478.408C524.053 477.205 522.75 476.526 521.486 476.03C514.475 473.3 506.428 474.045 499.498 471.116C497.554 470.295 494.817 469.234 492.939 470.819C490.933 472.507 490.087 476.238 490.007 478.686Z" fill="#ECE9E8"/>
<path d="M524.953 480.011C520.032 481.28 515.082 482.549 510.045 482.906C505.008 483.262 499.83 482.654 495.374 480.329C493.083 479.131 490.792 477.016 491.015 474.331C491.146 472.743 492.148 471.36 493.229 470.2C495.437 467.823 498.537 466.188 501.492 465C502.683 465.917 503.821 465.67 505.284 465.979C513.707 467.771 522.159 470.804 528.368 476.878C528.746 477.244 529.143 477.762 528.949 478.271C528.814 478.632 528.431 478.818 528.082 478.965C527.094 479.388 525.995 479.74 524.953 480.011Z" fill="white"/>
<path d="M521.954 480.145L563 468L561.087 475.96L521 490L521.954 480.145Z" fill="#F4D242"/>
<path d="M540.274 456L562 468.116L521.34 480L501 464.341L540.274 456Z" fill="#F8E48E"/>
<path opacity="0.56" d="M321 490.104C320.177 499.609 319.411 507.324 319.411 507.324C319.411 507.324 313.673 511.141 309.23 509.657C310.709 501.384 310.709 499.69 310.709 497.357C310.709 495.024 308.383 464.482 309.23 462.573C306.056 454.3 294.224 441.803 296.227 426.416C297.473 423.257 301.67 421.716 306.204 421C306.213 421.019 306.218 421.033 306.223 421.052C307.26 424.645 305.362 429.565 305.657 433.396C306.032 438.23 307.431 442.987 309.824 447.205C311.38 449.943 313.335 452.486 314.425 455.445C315.733 458.98 315.705 462.845 315.886 466.61C316.261 474.659 317.684 482.78 321 490.104Z" fill="#832126"/>
<path d="M337.403 513.374C337.394 513.384 337.384 513.394 337.375 513.404C336.402 514.316 335.129 514.804 333.889 515.272C331.768 516.077 329.618 516.892 327.372 517.209C325.637 517.458 323.868 517.399 322.166 517.819C319.892 518.385 317.889 519.756 315.672 520.522C312.878 521.478 309.207 521.219 308.206 517.711C307.958 516.838 307.944 515.921 308.111 515.028C309.012 514.897 310.199 515.116 311.624 515.526C319.362 517.775 327.534 516.433 333.432 510.394C333.537 510.286 333.646 510.179 333.756 510.067C334.485 510.067 335.215 510.047 335.944 510.003C337.723 509.901 338.705 512.135 337.403 513.374Z" fill="#259797"/>
<path d="M294.617 528.992C290.018 529.125 285.285 527.569 282.555 523.976C281.192 522.182 280.398 519.993 278.881 518.327C277.826 517.166 276.473 516.304 275.303 515.257C274.128 514.21 273.093 512.854 273.006 511.293C272.91 509.632 273.94 508.057 275.298 507.067C275.332 507.043 275.361 507.019 275.395 507C276.021 508.147 276.44 509.47 276.878 510.503C278.014 513.163 279.266 515.324 281.105 517.603C283.205 520.216 285.502 522.962 288.723 523.952C290.558 524.514 292.725 524.542 294.453 525.204C294.901 525.704 295.334 526.213 295.729 526.751C296.394 527.669 295.763 528.959 294.617 528.992Z" fill="#259797"/>
<path d="M300.841 341.524C299.829 347.897 295.516 353.839 289.462 356.182C287.574 356.917 285.531 357.348 283.897 358.548C282.264 359.743 281.176 362.072 282.165 363.85C282.975 365.296 284.745 365.794 286.228 366.51C287.282 367.018 288.342 367.947 288.652 369C285.135 368.028 282.066 366.036 280.107 362.764C279.34 361.479 278.399 359.25 277.838 357.856C276.803 355.305 276.892 353.588 277.231 350.852C277.405 349.424 277.961 348.073 278.549 346.759C279.547 344.54 280.682 342.368 282.207 340.481C286.769 334.847 294.071 333.799 300.714 336.232C301.058 338.114 301.081 340.011 300.841 341.524Z" fill="#6B3332"/>
<path d="M285.983 367.209C285.821 368.559 284.64 369.602 283.38 370.199C281.124 371.269 278.336 371.288 276.129 370.128C276.085 370.104 276.036 370.08 275.992 370.052C276.925 369.905 277.853 369.758 278.79 369.606C279.625 369.474 280.646 369.171 280.782 368.36C280.919 367.527 279.972 366.825 279.996 365.987C280.006 365.641 280.172 365.324 280.255 364.987C281.158 361.192 275.68 362.443 274 360.809C274.63 360.363 275.401 360.088 276.178 360.022C279.22 359.747 283.385 362.088 285.069 364.452C285.651 365.262 286.095 366.228 285.983 367.209Z" fill="#502626"/>
<path opacity="0.56" d="M473.669 209.958C473.311 212.163 473.169 214.406 473.25 216.645C473.268 217.073 473.301 217.526 473.443 217.925C472.547 218.912 471.482 219.721 470.248 220L469.244 212.62C470.545 211.398 470.889 209.125 469.758 207.739C468.632 206.353 466.078 206.487 465.319 208.11C463.632 204.114 459.933 201.067 455.748 200.234C453.567 199.796 451.338 200.08 449.585 201.476C448.454 200.07 447.337 198.395 448.478 197.004C448.723 196.701 449.024 196.417 449.114 196.036C449.18 195.757 449.123 195.463 449.137 195.175C449.165 194.732 449.368 194.347 449.656 194C449.707 194.058 449.755 194.116 449.811 194.173C451.946 196.402 454.17 196.325 457.073 196.306C460.725 196.277 465.215 196.701 467.34 200.224C468.113 201.5 468.66 203.252 470.107 203.527C470.597 203.623 471.105 203.512 471.605 203.58C472.83 203.748 473.697 204.971 473.914 206.208C474.14 207.45 473.872 208.721 473.669 209.958Z" fill="#461510"/>
<path d="M306 361.251C306.875 361.657 307.842 361.806 308.718 361.549C309.153 361.414 309.564 361.204 309.936 360.933C310.13 360.803 310.294 360.639 310.483 360.495C310.657 360.336 310.816 360.163 311 360C310.884 360.205 310.749 360.406 310.618 360.607C310.454 360.784 310.309 360.98 310.12 361.143C309.757 361.479 309.308 361.731 308.819 361.885C307.833 362.175 306.716 361.899 306 361.251Z" fill="#BA2025"/>
<path opacity="0.61" d="M309.974 360.643C310.127 361.156 309.592 361.736 308.777 361.933C307.962 362.131 307.18 361.874 307.026 361.357C306.873 360.844 307.408 360.264 308.223 360.067C309.038 359.869 309.82 360.126 309.974 360.643Z" fill="#E34635"/>
<path opacity="0.13" d="M463.802 210.78C464.342 208.49 462.926 206.196 460.638 205.655C458.35 205.114 456.058 206.532 455.518 208.822C454.978 211.112 456.394 213.407 458.682 213.947C460.97 214.488 463.262 213.07 463.802 210.78Z" fill="#E34635"/>
<path d="M456 220.776C456.675 220.819 457.305 220.714 457.805 220.386C458.055 220.22 458.27 220.016 458.465 219.779C458.565 219.66 458.645 219.527 458.74 219.404C458.83 219.271 458.9 219.133 459 219C458.98 219.161 458.94 219.318 458.905 219.48C458.845 219.632 458.795 219.788 458.705 219.935C458.545 220.23 458.3 220.491 458.01 220.69C457.41 221.075 456.59 221.099 456 220.776Z" fill="#BA2025"/>
<path d="M489 66C507.225 66 522 51.2254 522 33C522 14.7746 507.225 0 489 0C470.775 0 456 14.7746 456 33C456 51.2254 470.775 66 489 66Z" fill="#E39EA6"/>
<rect x="343" y="192" width="2" height="2" stroke="white"/>
<rect x="394" y="247" width="2" height="2" stroke="white"/>

</svg>
