<svg width="219" height="253" viewBox="0 0 219 253" fill="none" xmlns="http://www.w3.org/2000/svg">
<defs>
<linearGradient id="paint0_linear" x1="125.751" y1="111.866" x2="90.2427" y2="7.67851" gradientUnits="userSpaceOnUse">
<stop stop-color="#ADC3F4"/>
<stop offset="1" stop-color="#F1E4FF"/>
</linearGradient>
<linearGradient id="paint1_linear" x1="102.333" y1="31.1506" x2="103.311" y2="9.3449" gradientUnits="userSpaceOnUse">
<stop stop-color="#A5FECB"/>
<stop offset="1" stop-color="#20BDFF"/>
</linearGradient>
<linearGradient id="paint2_linear" x1="133.528" y1="68.9904" x2="103.186" y2="15.7985" gradientUnits="userSpaceOnUse">
<stop stop-color="#C9DAFF"/>
<stop offset="1" stop-color="#F1E4FF"/>
</linearGradient>
<linearGradient id="paint3_linear" x1="130.367" y1="33.6926" x2="132.029" y2="6.7988" gradientUnits="userSpaceOnUse">
<stop stop-color="#A5FECB"/>
<stop offset="1" stop-color="#20BDFF"/>
</linearGradient>
<linearGradient id="paint4_linear" x1="105.143" y1="-24.5613" x2="43.1182" y2="103.819" gradientUnits="userSpaceOnUse">
<stop stop-color="#038BF9"/>
<stop offset="1" stop-color="#04C9E1"/>
</linearGradient>
<linearGradient id="paint5_linear" x1="63.0508" y1="3.63409" x2="63.0508" y2="135.227" gradientUnits="userSpaceOnUse">
<stop stop-color="#FFF2F2" stop-opacity="0.139408"/>
<stop offset="1" stop-color="#FEFAF9"/>
</linearGradient>
<linearGradient id="paint6_linear" x1="64.1515" y1="42.3485" x2="64.1515" y2="197.023" gradientUnits="userSpaceOnUse">
<stop stop-color="#FB65BC"/>
<stop offset="1" stop-color="#FCAFA9"/>
</linearGradient>
<linearGradient id="paint7_linear" x1="20.3594" y1="54.1332" x2="20.3594" y2="296.293" gradientUnits="userSpaceOnUse">
<stop stop-color="#FFF2F2" stop-opacity="0.139408"/>
<stop offset="1" stop-color="#FEFAF9"/>
</linearGradient>
<linearGradient id="paint8_linear" x1="-4.16762" y1="189.045" x2="-4.16762" y2="215.584" gradientUnits="userSpaceOnUse">
<stop stop-color="#5174D0"/>
<stop offset="1" stop-color="#1F2480"/>
</linearGradient>
<linearGradient id="paint9_linear" x1="30.2625" y1="184.895" x2="28.017" y2="205.543" gradientUnits="userSpaceOnUse">
<stop stop-color="#038BF9"/>
<stop offset="1" stop-color="#04C9E1"/>
</linearGradient>
<linearGradient id="paint10_linear" x1="-12.997" y1="178.439" x2="-12.997" y2="204.977" gradientUnits="userSpaceOnUse">
<stop stop-color="#5174D0"/>
<stop offset="1" stop-color="#1F2480"/>
</linearGradient>
<linearGradient id="paint11_linear" x1="21.4331" y1="174.289" x2="19.1876" y2="194.937" gradientUnits="userSpaceOnUse">
<stop stop-color="#038BF9"/>
<stop offset="1" stop-color="#04C9E1"/>
</linearGradient>
<linearGradient id="paint12_linear" x1="-4.16762" y1="166.949" x2="-4.16762" y2="193.487" gradientUnits="userSpaceOnUse">
<stop stop-color="#5174D0"/>
<stop offset="1" stop-color="#1F2480"/>
</linearGradient>
<linearGradient id="paint13_linear" x1="30.2625" y1="162.799" x2="28.017" y2="183.447" gradientUnits="userSpaceOnUse">
<stop stop-color="#038BF9"/>
<stop offset="1" stop-color="#04C9E1"/>
</linearGradient>
<linearGradient id="paint14_linear" x1="62.9358" y1="188.898" x2="62.9358" y2="215.436" gradientUnits="userSpaceOnUse">
<stop stop-color="#5174D0"/>
<stop offset="1" stop-color="#1F2480"/>
</linearGradient>
<linearGradient id="paint15_linear" x1="97.3659" y1="184.748" x2="95.1204" y2="205.396" gradientUnits="userSpaceOnUse">
<stop stop-color="#038BF9"/>
<stop offset="1" stop-color="#04C9E1"/>
</linearGradient>
<linearGradient id="paint16_linear" x1="27.0423" y1="89.1058" x2="-0.662933" y2="161.147" gradientUnits="userSpaceOnUse">
<stop stop-color="#17B7BD"/>
<stop offset="1" stop-color="#9DEB93"/>
</linearGradient>
</defs>
<path fill-rule="evenodd" clip-rule="evenodd" d="M179.919 36.4561C179.919 37.2697 180.579 37.9292 181.394 37.9292C182.804 37.9292 184.201 38.0373 185.579 38.2511C186.383 38.376 187.137 37.8256 187.262 37.0217C187.387 36.2178 186.836 35.4648 186.031 35.3399C184.504 35.1028 182.955 34.983 181.394 34.983C180.579 34.983 179.919 35.6426 179.919 36.4561ZM38.9911 51.2932C38.1817 51.3839 37.452 50.8019 37.3612 49.9934C37.2705 49.1849 37.853 48.456 38.6625 48.3654C39.4021 48.2826 40.1492 48.2408 40.9012 48.2408H43.2114C44.0258 48.2408 44.6861 48.9003 44.6861 49.7139C44.6861 50.5275 44.0258 51.187 43.2114 51.187H40.9012C40.259 51.187 39.6217 51.2226 38.9911 51.2932ZM27.1929 55.7966C27.7577 56.3827 28.6913 56.4005 29.2781 55.8363C30.2549 54.8973 31.3471 54.0787 32.5288 53.4015C33.2353 52.9966 33.4794 52.0964 33.0741 51.3907C32.6688 50.685 31.7675 50.4411 31.0611 50.846C29.6696 51.6434 28.3835 52.6073 27.2327 53.7137C26.6459 54.2779 26.6281 55.2104 27.1929 55.7966ZM24.4637 65.325C24.3598 66.1319 23.6207 66.7019 22.8129 66.5981C22.005 66.4944 21.4344 65.7561 21.5383 64.9492C21.7442 63.3496 22.1542 61.7933 22.7555 60.3097C23.0611 59.5556 23.9209 59.1917 24.6759 59.497C25.4308 59.8023 25.7951 60.6611 25.4894 61.4152C24.9827 62.6657 24.6373 63.9768 24.4637 65.325ZM22.8586 78.3902C23.6731 78.3902 24.3333 77.7306 24.3333 76.9171V72.4978C24.3333 71.6842 23.6731 71.0247 22.8586 71.0247C22.0441 71.0247 21.3839 71.6842 21.3839 72.4978V76.9171C21.3839 77.7306 22.0441 78.3902 22.8586 78.3902ZM24.3333 88.7018C24.3333 89.5153 23.6731 90.1749 22.8586 90.1749C22.0441 90.1749 21.3839 89.5153 21.3839 88.7018V84.2825C21.3839 83.4689 22.0441 82.8094 22.8586 82.8094C23.6731 82.8094 24.3333 83.4689 24.3333 84.2825V88.7018ZM22.8586 101.96C23.6731 101.96 24.3333 101.3 24.3333 100.486V96.0672C24.3333 95.2537 23.6731 94.5941 22.8586 94.5941C22.0441 94.5941 21.3839 95.2537 21.3839 96.0672V100.486C21.3839 101.3 22.0441 101.96 22.8586 101.96ZM24.3333 112.271C24.3333 113.085 23.6731 113.744 22.8586 113.744C22.0441 113.744 21.3839 113.085 21.3839 112.271V107.852C21.3839 107.038 22.0441 106.379 22.8586 106.379C23.6731 106.379 24.3333 107.038 24.3333 107.852V112.271ZM23.7634 125.44C24.5525 125.238 25.0286 124.436 24.8269 123.648C24.5002 122.371 24.3333 121.053 24.3333 119.711V119.637C24.3333 118.823 23.6731 118.164 22.8586 118.164C22.0441 118.164 21.3839 118.823 21.3839 119.637V119.711C21.3839 121.299 21.5817 122.863 21.9693 124.377C22.171 125.166 22.9743 125.641 23.7634 125.44ZM30.7516 132.499C31.4004 132.991 31.5272 133.915 31.0348 134.563C30.5425 135.211 29.6174 135.338 28.9686 134.846C27.69 133.877 26.5374 132.756 25.5392 131.509C25.0304 130.874 25.1335 129.947 25.7695 129.439C26.4055 128.93 27.3336 129.033 27.8424 129.669C28.6886 130.725 29.6663 131.677 30.7516 132.499ZM40.9012 135.89C41.7157 135.89 42.376 136.549 42.376 137.363C42.376 138.176 41.7157 138.836 40.9012 138.836C39.2867 138.836 37.6968 138.643 36.1569 138.266C35.3659 138.073 34.8817 137.275 35.0756 136.485C35.2694 135.695 36.0678 135.211 36.8589 135.405C38.1694 135.726 39.5236 135.89 40.9012 135.89ZM49.1104 49.7139C49.1104 50.5275 49.7706 51.187 50.5851 51.187H55.0093C55.8238 51.187 56.4841 50.5275 56.4841 49.7139C56.4841 48.9003 55.8238 48.2408 55.0093 48.2408H50.5851C49.7706 48.2408 49.1104 48.9003 49.1104 49.7139ZM62.3831 51.187C61.5686 51.187 60.9083 50.5275 60.9083 49.7139C60.9083 48.9003 61.5686 48.2408 62.3831 48.2408H66.8073C67.6218 48.2408 68.2821 48.9003 68.2821 49.7139C68.2821 50.5275 67.6218 51.187 66.8073 51.187H62.3831ZM192.296 40.2C191.549 39.876 191.206 39.0084 191.531 38.2621C191.855 37.5158 192.724 37.1735 193.471 37.4975C194.884 38.1105 196.257 38.8305 197.579 39.6515C198.27 40.0811 198.482 40.9894 198.052 41.6803C197.622 42.3712 196.713 42.5831 196.021 42.1535C194.821 41.4082 193.577 40.7553 192.296 40.2ZM201.522 44.448C200.946 45.0227 200.945 45.9554 201.52 46.5312C202.511 47.5221 203.442 48.5851 204.309 49.7126C204.805 50.3579 205.731 50.4794 206.377 49.9839C207.023 49.4885 207.145 48.5637 206.649 47.9184C205.704 46.6902 204.689 45.5313 203.608 44.4499C203.033 43.8741 202.099 43.8732 201.522 44.448ZM208.036 55.785C207.684 55.0515 207.994 54.1716 208.728 53.8198C209.463 53.468 210.343 53.7775 210.696 54.511C211.355 55.8854 211.936 57.3056 212.434 58.7638C212.697 59.5338 212.285 60.3709 211.514 60.6334C210.743 60.8959 209.905 60.4844 209.642 59.7144C209.182 58.3665 208.646 57.0543 208.036 55.785ZM212.521 64.8831C211.714 64.9952 211.151 65.7393 211.263 66.5451C211.458 67.9419 211.575 69.3573 211.613 70.7856C211.634 71.5989 212.312 72.2407 213.126 72.2192C213.94 72.1977 214.583 71.5209 214.561 70.7076C214.52 69.1696 214.394 67.6448 214.185 66.1392C214.073 65.3334 213.328 64.7711 212.521 64.8831ZM211.143 77.8766C211.273 77.0734 212.029 76.5272 212.834 76.6567C213.638 76.7861 214.185 77.5422 214.055 78.3454C213.81 79.865 213.479 81.3612 213.066 82.8271C212.845 83.6101 212.03 84.0661 211.246 83.8455C210.462 83.625 210.006 82.8113 210.227 82.0282C210.61 80.6709 210.916 79.2849 211.143 77.8766ZM209.624 87.9935C208.899 87.6233 208.011 87.9104 207.64 88.6348C206.991 89.9018 206.271 91.1206 205.482 92.2835C205.025 92.9572 205.202 93.8731 205.876 94.3292C206.551 94.7854 207.468 94.6091 207.924 93.9355C208.781 92.6725 209.563 91.3499 210.266 89.9756C210.637 89.2512 210.349 88.3638 209.624 87.9935ZM200.932 97.6627C201.522 97.102 202.456 97.1253 203.017 97.7147C203.579 98.3042 203.555 99.2366 202.965 99.7973C201.839 100.867 200.649 101.853 199.405 102.748C198.743 103.223 197.822 103.072 197.346 102.412C196.871 101.751 197.021 100.831 197.682 100.356C198.817 99.5405 199.903 98.6406 200.932 97.6627ZM193.487 104.543C193.183 103.788 192.325 103.421 191.569 103.724C190.264 104.247 188.927 104.668 187.564 104.985C186.771 105.169 186.277 105.961 186.462 106.754C186.647 107.546 187.439 108.039 188.233 107.854C189.742 107.504 191.223 107.037 192.667 106.458C193.423 106.155 193.79 105.298 193.487 104.543ZM180.539 105.691C181.353 105.691 182.014 106.351 182.014 107.164C182.014 107.978 181.353 108.637 180.539 108.637H176.115C175.3 108.637 174.64 107.978 174.64 107.164C174.64 106.351 175.3 105.691 176.115 105.691H180.539ZM170.216 107.164C170.216 106.351 169.555 105.691 168.741 105.691H164.317C163.502 105.691 162.842 106.351 162.842 107.164C162.842 107.978 163.502 108.637 164.317 108.637H168.741C169.555 108.637 170.216 107.978 170.216 107.164Z" fill="#D4DFFF"/>
<path fill-rule="evenodd" clip-rule="evenodd" d="M23.8323 52.2428L71.1906 24.9313L117.801 38.3305L163.255 116.971C167.327 124.017 164.911 133.026 157.857 137.094L94.1213 173.85C87.0677 177.918 78.0483 175.504 73.9759 168.458L18.4343 72.3656C14.3619 65.3199 16.7787 56.3107 23.8323 52.2428Z" fill="url(#paint0_linear)"/>
<path d="M71.3329 10.2948L117.971 22.7774L101.931 32.0278C94.4599 36.3363 84.907 33.7795 80.5937 26.317L71.3329 10.2948Z" fill="url(#paint1_linear)"/>
<path fill-rule="evenodd" clip-rule="evenodd" d="M49.6389 21.9334L102.46 7.7959L144.01 32.7886L167.539 120.5C169.647 128.359 164.978 136.436 157.111 138.542L86.0232 157.569C78.1559 159.674 70.0693 155.011 67.9613 147.152L39.2109 39.975C37.1028 32.1166 41.7716 24.0391 49.6389 21.9334Z" fill="url(#paint2_linear)"/>
<path d="M102.573 7.92395L144.388 32.0385L126.497 36.8269C118.165 39.0571 109.6 34.1177 107.367 25.7944L102.573 7.92395Z" fill="url(#paint3_linear)"/>
<path fill-rule="evenodd" clip-rule="evenodd" d="M83.3232 0.365479H138.074L171.764 35.313V126.314C171.764 134.45 165.161 141.045 157.016 141.045H83.3232C75.1784 141.045 68.5757 134.45 68.5757 126.314V15.0964C68.5757 6.96072 75.1784 0.365479 83.3232 0.365479Z" fill="url(#paint4_linear)"/>
<path opacity="0.965588" fill-rule="evenodd" clip-rule="evenodd" d="M92.4184 71.4869C87.8852 71.4869 84.2103 67.8128 84.2103 63.2806C84.2103 58.7484 87.8852 55.0743 92.4184 55.0743C96.9517 55.0743 100.627 58.7484 100.627 63.2806C100.627 67.8128 96.9517 71.4869 92.4184 71.4869ZM109.137 29.283H131.203C132.017 29.283 132.677 29.9425 132.677 30.756V31.7176C132.677 32.5312 132.017 33.1907 131.203 33.1907H109.137C108.322 33.1907 107.662 32.5312 107.662 31.7176V30.756C107.662 29.9425 108.322 29.283 109.137 29.283ZM109.137 36.317H154.654C155.469 36.317 156.129 36.9765 156.129 37.79V38.7516C156.129 39.5652 155.469 40.2247 154.654 40.2247H109.137C108.322 40.2247 107.662 39.5652 107.662 38.7516V37.79C107.662 36.9765 108.322 36.317 109.137 36.317ZM109.137 43.3509H139.02C139.834 43.3509 140.495 44.0105 140.495 44.824V45.7856C140.495 46.5992 139.834 47.2587 139.02 47.2587H109.137C108.322 47.2587 107.662 46.5992 107.662 45.7856V44.824C107.662 44.0105 108.322 43.3509 109.137 43.3509ZM145.096 43.3509H154.654C155.469 43.3509 156.129 44.0105 156.129 44.824V45.7856C156.129 46.5992 155.469 47.2587 154.654 47.2587H145.096C144.282 47.2587 143.622 46.5992 143.622 45.7856V44.824C143.622 44.0105 144.282 43.3509 145.096 43.3509ZM109.137 55.8558H131.203C132.017 55.8558 132.677 56.5154 132.677 57.3289V58.2905C132.677 59.1041 132.017 59.7636 131.203 59.7636H109.137C108.322 59.7636 107.662 59.1041 107.662 58.2905V57.3289C107.662 56.5154 108.322 55.8558 109.137 55.8558ZM109.137 62.8898H154.654C155.469 62.8898 156.129 63.5493 156.129 64.3629V65.3245C156.129 66.1381 155.469 66.7976 154.654 66.7976H109.137C108.322 66.7976 107.662 66.1381 107.662 65.3245V64.3629C107.662 63.5493 108.322 62.8898 109.137 62.8898ZM109.137 69.9238H154.654C155.469 69.9238 156.129 70.5833 156.129 71.3969V72.3585C156.129 73.1721 155.469 73.8316 154.654 73.8316H109.137C108.322 73.8316 107.662 73.1721 107.662 72.3585V71.3969C107.662 70.5833 108.322 69.9238 109.137 69.9238ZM109.137 76.1763H154.654C155.469 76.1763 156.129 76.8358 156.129 77.6493V78.6109C156.129 79.4245 155.469 80.084 154.654 80.084H109.137C108.322 80.084 107.662 79.4245 107.662 78.6109V77.6493C107.662 76.8358 108.322 76.1763 109.137 76.1763ZM109.137 94.152H131.203C132.017 94.152 132.677 94.8115 132.677 95.6251V96.5867C132.677 97.4003 132.017 98.0598 131.203 98.0598H109.137C108.322 98.0598 107.662 97.4003 107.662 96.5867V95.6251C107.662 94.8115 108.322 94.152 109.137 94.152ZM109.137 101.186H154.654C155.469 101.186 156.129 101.846 156.129 102.659V103.621C156.129 104.434 155.469 105.094 154.654 105.094H109.137C108.322 105.094 107.662 104.434 107.662 103.621V102.659C107.662 101.846 108.322 101.186 109.137 101.186ZM109.137 108.22H139.02C139.834 108.22 140.495 108.88 140.495 109.693V110.655C140.495 111.468 139.834 112.128 139.02 112.128H109.137C108.322 112.128 107.662 111.468 107.662 110.655V109.693C107.662 108.88 108.322 108.22 109.137 108.22ZM145.096 108.22H154.654C155.469 108.22 156.129 108.88 156.129 109.693V110.655C156.129 111.468 155.469 112.128 154.654 112.128H145.096C144.282 112.128 143.622 111.468 143.622 110.655V109.693C143.622 108.88 144.282 108.22 145.096 108.22ZM92.4184 46.4772C87.8852 46.4772 84.2103 42.8031 84.2103 38.2708C84.2103 33.7386 87.8852 30.0645 92.4184 30.0645C96.9517 30.0645 100.627 33.7386 100.627 38.2708C100.627 42.8031 96.9517 46.4772 92.4184 46.4772Z" fill="url(#paint5_linear)"/>
<ellipse opacity="0.5" cx="92.4184" cy="63.2806" rx="5.86295" ry="5.86166" fill="white"/>
<ellipse opacity="0.5" cx="91.2458" cy="88.7999" rx="7.03554" ry="7.03399" fill="white"/>
<ellipse opacity="0.5" cx="92.4184" cy="38.2708" rx="5.86295" ry="5.86166" fill="white"/>
<path d="M138.149 0.518677L172.323 34.6849H153.784C145.149 34.6849 138.149 27.6866 138.149 19.0538V0.518677Z" fill="#04C9E1"/>
<path d="M180.657 15.8329H190.242C191.057 15.8329 191.717 16.4924 191.717 17.306V18.2676C191.717 19.0811 191.057 19.7407 190.242 19.7407H180.657C179.842 19.7407 179.182 19.0811 179.182 18.2676V17.306C179.182 16.4924 179.842 15.8329 180.657 15.8329Z" fill="#FFE988"/>
<path d="M180.657 23.1984H204.99C205.804 23.1984 206.465 23.8579 206.465 24.6715V25.6331C206.465 26.4466 205.804 27.1061 204.99 27.1061H180.657C179.842 27.1061 179.182 26.4466 179.182 25.6331V24.6715C179.182 23.8579 179.842 23.1984 180.657 23.1984Z" fill="#A5FECB"/>
<path d="M96.596 107.164H106.182C106.996 107.164 107.657 107.824 107.657 108.637V109.599C107.657 110.413 106.996 111.072 106.182 111.072H96.596C95.7815 111.072 95.1212 110.413 95.1212 109.599V108.637C95.1212 107.824 95.7815 107.164 96.596 107.164Z" fill="#FFE988"/>
<path d="M96.596 114.53H120.929C121.744 114.53 122.404 115.189 122.404 116.003V116.964C122.404 117.778 121.744 118.438 120.929 118.438H96.596C95.7815 118.438 95.1212 117.778 95.1212 116.964V116.003C95.1212 115.189 95.7815 114.53 96.596 114.53Z" fill="#A5FECB"/>
<ellipse cx="147.106" cy="107.533" rx="3.31818" ry="3.31445" fill="#FFE77D"/>
<path fill-rule="evenodd" clip-rule="evenodd" d="M141.576 197.023C98.8155 197.023 64.1515 162.398 64.1515 119.686C64.1515 76.9735 98.8155 42.3485 141.576 42.3485C184.336 42.3485 219 76.9735 219 119.686C219 162.398 184.336 197.023 141.576 197.023Z" fill="url(#paint6_linear)"/>
<path opacity="0.965588" fill-rule="evenodd" clip-rule="evenodd" d="M141.576 185.238C177.82 185.238 207.202 155.889 207.202 119.686C207.202 83.482 177.82 54.1332 141.576 54.1332C105.331 54.1332 75.9495 83.482 75.9495 119.686C75.9495 155.889 105.331 185.238 141.576 185.238Z" fill="url(#paint7_linear)"/>
<path fill-rule="evenodd" clip-rule="evenodd" d="M141.576 67.391C139.54 67.391 137.889 65.7421 137.889 63.7082C137.889 61.6743 139.54 60.0255 141.576 60.0255C143.612 60.0255 145.263 61.6743 145.263 63.7082C145.263 65.7421 143.612 67.391 141.576 67.391ZM141.576 177.873C139.54 177.873 137.889 176.224 137.889 174.19C137.889 172.156 139.54 170.507 141.576 170.507C143.612 170.507 145.263 172.156 145.263 174.19C145.263 176.224 143.612 177.873 141.576 177.873ZM197.247 115.635C195.211 115.635 193.561 117.283 193.561 119.317C193.561 121.351 195.211 123 197.247 123C199.284 123 200.934 121.351 200.934 119.317C200.934 117.283 199.284 115.635 197.247 115.635ZM82.2172 119.317C82.2172 117.283 83.8678 115.635 85.904 115.635C87.9402 115.635 89.5909 117.283 89.5909 119.317C89.5909 121.351 87.9402 123 85.904 123C83.8678 123 82.2172 121.351 82.2172 119.317ZM165.909 116.739H145.263V81.3853C145.263 79.7582 143.942 78.4391 142.313 78.4391C140.684 78.4391 139.364 79.7582 139.364 81.3853V120.422C139.364 122.049 140.684 123.368 142.313 123.368C143.061 123.368 143.744 123.09 144.264 122.632H165.909C167.538 122.632 168.859 121.313 168.859 119.686C168.859 118.058 167.538 116.739 165.909 116.739Z" fill="white"/>
<path fill-rule="evenodd" clip-rule="evenodd" d="M16.7759 200.033C22.3041 198.183 30.2457 197.023 39.0701 197.023C47.8945 197.023 55.8361 198.183 61.3643 200.033V197.465H69.3108V206.303C69.3108 211.429 55.7715 215.584 39.0701 215.584C22.3686 215.584 8.82941 211.429 8.82941 206.303V197.465H16.7759V200.033Z" fill="url(#paint8_linear)"/>
<ellipse cx="39.0701" cy="197.465" rx="30.2407" ry="9.28045" fill="url(#paint9_linear)"/>
<path fill-rule="evenodd" clip-rule="evenodd" d="M7.94646 189.427C13.4747 187.576 21.4163 186.417 30.2407 186.417C39.0651 186.417 47.0067 187.576 52.5349 189.427V186.858H60.4813V195.697C60.4813 200.822 46.9421 204.977 30.2407 204.977C13.5392 204.977 0 200.822 0 195.697V186.858H7.94646V189.427Z" fill="url(#paint10_linear)"/>
<ellipse cx="30.2407" cy="186.858" rx="30.2407" ry="9.28045" fill="url(#paint11_linear)"/>
<path fill-rule="evenodd" clip-rule="evenodd" d="M16.7759 177.936C22.3041 176.086 30.2457 174.926 39.0701 174.926C47.8945 174.926 55.8361 176.086 61.3643 177.936V175.368H69.3108V184.207C69.3108 189.332 55.7715 193.487 39.0701 193.487C22.3686 193.487 8.82941 189.332 8.82941 184.207V175.368H16.7759V177.936Z" fill="url(#paint12_linear)"/>
<ellipse cx="39.0701" cy="175.368" rx="30.2407" ry="9.28045" fill="url(#paint13_linear)"/>
<path fill-rule="evenodd" clip-rule="evenodd" d="M83.8793 199.886C89.4075 198.035 97.3491 196.875 106.173 196.875C114.998 196.875 122.939 198.035 128.468 199.886V197.317H136.414V206.156C136.414 211.281 122.875 215.436 106.173 215.436C89.472 215.436 75.9328 211.281 75.9328 206.156V197.317H83.8793V199.886Z" fill="url(#paint14_linear)"/>
<ellipse cx="106.173" cy="197.317" rx="30.2407" ry="9.28045" fill="url(#paint15_linear)"/>
<path fill-rule="evenodd" clip-rule="evenodd" d="M41.8016 134.789C41.8079 134.858 41.8111 134.932 41.8111 135.012V143.918C44.0144 127.493 58.1288 114.824 75.2121 114.824C75.2121 133.274 60.2854 148.25 41.8111 148.41V173.447C41.8111 175.077 40.4876 175.663 38.8549 175.663C37.2223 175.663 35.8988 175.077 35.8988 173.447V135.08C20.106 132.294 8.11111 118.548 8.11111 102.009C26.4529 102.009 41.3723 116.612 41.8016 134.789Z" fill="url(#paint16_linear)"/>
<ellipse opacity="0.2" cx="109.5" cy="245.634" rx="79.2677" ry="7.36544" fill="#B6A0D1"/>
</svg>
