<svg width="1266" height="1266" viewBox="0 0 1266 1266" fill="none" xmlns="http://www.w3.org/2000/svg">
<path d="M857.36 605.667C857.36 605.667 906.139 696.439 934.472 716.315C965.236 737.837 950.019 614.58 950.019 614.58" stroke="#99DDD2" stroke-width="50" stroke-miterlimit="10"/>
<path d="M825.559 722.506C825.559 722.506 1046.08 781.894 1042.78 855.714C1039.47 929.535 943.828 1066.35 943.828 1066.35" stroke="#124A9B" stroke-width="80" stroke-miterlimit="10"/>
<path d="M850.385 493.031C850.385 493.031 855.348 490.499 858.855 519.984C860.88 536.986 856.728 573.675 860.032 579.03C863.336 584.385 827.445 579.03 827.445 579.03L818.786 578.207" fill="#3A3144"/>
<path d="M650.028 107.154H325.59C273.388 107.154 231.07 149.472 231.07 201.674V1013.84C231.07 1066.04 273.388 1108.36 325.59 1108.36H650.028C702.229 1108.36 744.547 1066.04 744.547 1013.84V201.674C744.547 149.472 702.229 107.154 650.028 107.154Z" fill="#FFECE5"/>
<path d="M683.805 113.396C672.914 109.761 661.508 107.91 650.028 107.914H325.603C314.122 107.909 302.716 109.76 291.826 113.396C273.95 120.231 258.57 132.332 247.719 148.097C236.869 163.862 231.059 182.549 231.058 201.687V1013.84C231.058 1033.89 237.437 1053.43 249.271 1069.62C261.105 1085.81 277.781 1097.82 296.89 1103.91C281.284 1098.05 267.836 1087.58 258.336 1073.88C248.836 1060.18 243.737 1043.91 243.718 1027.25V215.094C243.718 193.383 252.342 172.562 267.694 157.21C283.045 141.859 303.867 133.234 325.577 133.234H372.723C376.091 133.234 379.364 134.353 382.027 136.415C384.69 138.478 386.592 141.367 387.434 144.628V144.628C388.782 149.751 391.789 154.284 395.985 157.518C400.181 160.752 405.33 162.505 410.627 162.504H571.029C576.325 162.502 581.471 160.748 585.664 157.514C589.857 154.28 592.862 149.749 594.21 144.628V144.628C595.052 141.367 596.954 138.478 599.617 136.415C602.28 134.353 605.552 133.234 608.921 133.234H650.015C671.726 133.234 692.547 141.859 707.898 157.21C723.25 172.562 731.875 193.383 731.875 215.094V1027.25C731.857 1043.91 726.758 1060.18 717.258 1073.88C707.758 1087.58 694.309 1098.06 678.703 1103.91C697.81 1097.82 714.485 1085.81 726.319 1069.62C738.153 1053.43 744.532 1033.89 744.535 1013.84V201.687C744.535 182.553 738.729 163.87 727.886 148.106C717.043 132.342 701.672 120.239 683.805 113.396V113.396Z" fill="#FFD8C5"/>
<path d="M650.028 107.154H325.59C273.388 107.154 231.07 149.472 231.07 201.674V1013.84C231.07 1066.04 273.388 1108.36 325.59 1108.36H650.028C702.229 1108.36 744.547 1066.04 744.547 1013.84V201.674C744.547 149.472 702.229 107.154 650.028 107.154Z" stroke="#3A3144" stroke-width="20" stroke-miterlimit="10"/>
<path d="M571.042 136.374H410.64C408.138 136.375 405.706 135.546 403.725 134.019C401.743 132.491 400.324 130.35 399.689 127.93L394.422 107.914H587.259L581.98 127.93C581.347 130.348 579.931 132.489 577.951 134.017C575.972 135.545 573.542 136.374 571.042 136.374V136.374Z" fill="#3A3144" stroke="#3A3144" stroke-width="20" stroke-miterlimit="10"/>
<path d="M225.196 304.105H231.07V407.917H225.196C224.662 407.917 224.15 407.705 223.773 407.328C223.395 406.95 223.183 406.438 223.183 405.905V306.118C223.183 305.585 223.395 305.073 223.773 304.695C224.15 304.318 224.662 304.105 225.196 304.105V304.105Z" fill="#3A3144" stroke="#3A3144" stroke-width="20" stroke-miterlimit="10"/>
<path d="M225.196 442.694H231.07V546.506H225.196C224.662 546.506 224.15 546.294 223.773 545.917C223.395 545.539 223.183 545.027 223.183 544.493V444.707C223.183 444.173 223.395 443.661 223.773 443.284C224.15 442.906 224.662 442.694 225.196 442.694V442.694Z" fill="#3A3144" stroke="#3A3144" stroke-width="20" stroke-miterlimit="10"/>
<path d="M752.726 442.694H746.852V338.882H752.726C753.26 338.882 753.772 339.094 754.149 339.472C754.527 339.849 754.739 340.361 754.739 340.895V440.681C754.739 441.215 754.527 441.727 754.149 442.105C753.772 442.482 753.26 442.694 752.726 442.694V442.694Z" fill="#3A3144" stroke="#3A3144" stroke-width="20" stroke-miterlimit="10"/>
<path d="M324.729 138.804H318.753V144.779H324.729V138.804Z" fill="#F99192"/>
<path d="M337.136 138.804H331.16V144.779H337.136V138.804Z" fill="#F99192"/>
<path d="M349.542 138.804H343.567V144.779H349.542V138.804Z" fill="#F99192"/>
<path d="M626.721 144.78H659.156V138.045L626.721 144.78Z" fill="#F99192"/>
<path d="M363.874 378.433H652.522C660.405 378.433 667.966 381.564 673.541 387.139C679.116 392.714 682.247 400.275 682.247 408.158V683.184C682.247 694.677 677.682 705.7 669.555 713.827C661.428 721.954 650.405 726.519 638.912 726.519H363.874C359.97 726.519 356.105 725.75 352.498 724.257C348.892 722.763 345.615 720.573 342.854 717.813C340.094 715.053 337.905 711.776 336.411 708.169C334.917 704.563 334.148 700.697 334.148 696.794V408.146C334.151 400.264 337.285 392.706 342.859 387.135C348.433 381.563 355.992 378.433 363.874 378.433V378.433Z" fill="#FFD8C5"/>
<path d="M633.266 361.531H344.63C328.213 361.531 314.905 374.84 314.905 391.257V679.892C314.905 696.309 328.213 709.618 344.63 709.618H633.266C649.683 709.618 662.991 696.309 662.991 679.892V391.257C662.991 374.84 649.683 361.531 633.266 361.531Z" fill="#FFA97F"/>
<path d="M537.29 448.417C535.902 448.49 534.542 448.839 533.29 449.443C532.038 450.048 530.919 450.895 529.998 451.936C522.795 459.127 513.907 464.483 503.893 466.255C494.013 467.977 483.909 467.977 474.028 466.255C464.014 464.483 455.114 459.127 447.911 451.936C446.985 450.888 445.858 450.036 444.596 449.432C443.335 448.827 441.965 448.482 440.568 448.417C427.908 448.417 430.959 478.598 430.959 515.819C430.959 553.039 427.959 583.221 440.568 583.221C442.978 583.128 445.271 582.155 447.012 580.486H530.808C532.544 582.156 534.833 583.129 537.24 583.221C549.9 583.221 546.849 553.052 546.849 515.819C546.849 478.586 549.9 448.417 537.29 448.417Z" fill="#FFECE5"/>
<path d="M547.153 539.873C543.174 545.003 540.092 550.768 538.038 556.926C536.355 561.723 533.228 565.881 529.086 568.828C524.944 571.775 519.991 573.367 514.908 573.384H463.002C457.917 573.368 452.961 571.777 448.817 568.83C444.673 565.883 441.544 561.724 439.859 556.926C437.809 550.766 434.727 545 430.744 539.873C430.44 565.193 430.871 583.221 440.606 583.221C443.016 583.128 445.309 582.155 447.05 580.486H530.847C532.582 582.156 534.871 583.13 537.278 583.221C547.026 583.221 547.457 565.218 547.153 539.873Z" fill="#FFD8C5"/>
<path d="M433.554 653.256H433.39C432 653.256 430.666 652.704 429.684 651.721C428.701 650.738 428.148 649.405 428.148 648.015V616.985H447.075L438.631 649.357C438.336 650.477 437.678 651.468 436.759 652.174C435.84 652.88 434.713 653.261 433.554 653.256V653.256Z" fill="#3A3144"/>
<path d="M544.38 653.256H544.545C545.935 653.256 547.268 652.704 548.251 651.721C549.234 650.738 549.786 649.405 549.786 648.015V616.985H530.834L539.316 649.357C539.612 650.474 540.269 651.463 541.185 652.168C542.101 652.873 543.224 653.256 544.38 653.256V653.256Z" fill="#3A3144"/>
<path d="M546.76 627.075C587.095 620.277 583.272 536.24 561.231 538.987C549.394 540.468 542.241 552.913 538.038 564.535C536.355 569.332 533.228 573.49 529.086 576.437C524.944 579.384 519.991 580.976 514.908 580.993H463.002C457.917 580.976 452.961 579.385 448.817 576.438C444.673 573.491 441.544 569.333 439.859 564.535C435.681 552.862 428.465 540.481 416.679 538.987C394.625 536.24 390.814 620.277 431.136 627.075H431.25C431.656 627.151 432.061 627.214 432.516 627.265C433.547 627.426 434.588 627.511 435.631 627.518H542.342C543.381 627.511 544.417 627.426 545.444 627.265C545.861 627.265 546.267 627.151 546.71 627.075H546.76Z" fill="white"/>
<path d="M327.299 829.85L329.299 833.901C329.421 834.148 329.599 834.363 329.819 834.528C330.039 834.693 330.294 834.804 330.565 834.851L335.034 835.497C335.355 835.545 335.657 835.682 335.904 835.892C336.152 836.103 336.336 836.378 336.436 836.687C336.536 836.996 336.548 837.326 336.47 837.642C336.392 837.957 336.228 838.244 335.996 838.472L332.755 841.624C332.554 841.822 332.403 842.066 332.317 842.335C332.231 842.604 332.212 842.89 332.262 843.169L333.021 847.612C333.08 847.934 333.046 848.265 332.924 848.569C332.803 848.872 332.598 849.135 332.333 849.327C332.068 849.519 331.755 849.632 331.429 849.653C331.102 849.675 330.777 849.604 330.489 849.448L326.489 847.346C326.239 847.216 325.961 847.147 325.679 847.147C325.396 847.147 325.118 847.216 324.868 847.346L320.931 849.486C320.644 849.642 320.318 849.713 319.992 849.691C319.666 849.67 319.352 849.557 319.087 849.365C318.823 849.173 318.618 848.91 318.496 848.607C318.374 848.303 318.341 847.972 318.399 847.65L319.159 843.207C319.208 842.928 319.189 842.642 319.103 842.373C319.017 842.104 318.867 841.86 318.665 841.662L315.424 838.51C315.192 838.282 315.028 837.995 314.951 837.68C314.873 837.364 314.885 837.033 314.985 836.724C315.085 836.415 315.269 836.14 315.516 835.93C315.764 835.72 316.065 835.583 316.386 835.535L320.855 834.889C321.126 834.841 321.382 834.731 321.602 834.566C321.822 834.401 322 834.186 322.121 833.939L324.121 829.888C324.253 829.578 324.472 829.312 324.752 829.124C325.032 828.936 325.361 828.834 325.698 828.83C326.035 828.826 326.366 828.921 326.65 829.102C326.935 829.283 327.16 829.543 327.299 829.85V829.85Z" fill="#F99192"/>
<path d="M365.595 829.85L367.596 833.902C367.715 834.15 367.893 834.365 368.113 834.53C368.333 834.696 368.59 834.806 368.862 834.851L373.331 835.497C373.652 835.545 373.953 835.682 374.201 835.892C374.448 836.103 374.632 836.378 374.732 836.687C374.832 836.996 374.844 837.326 374.766 837.642C374.689 837.957 374.525 838.245 374.293 838.472L371.065 841.624C370.861 841.821 370.709 842.065 370.621 842.334C370.533 842.603 370.511 842.89 370.558 843.169L371.33 847.612C371.384 847.933 371.347 848.262 371.224 848.562C371.1 848.863 370.896 849.123 370.633 849.314C370.37 849.505 370.059 849.618 369.735 849.642C369.411 849.666 369.086 849.598 368.798 849.448L364.798 847.347C364.55 847.216 364.274 847.147 363.994 847.147C363.714 847.147 363.438 847.216 363.19 847.347L359.227 849.486C358.94 849.636 358.615 849.704 358.291 849.68C357.967 849.656 357.656 849.543 357.393 849.352C357.13 849.161 356.926 848.901 356.802 848.6C356.679 848.3 356.642 847.971 356.695 847.65L357.468 843.207C357.515 842.927 357.493 842.641 357.405 842.372C357.317 842.103 357.165 841.859 356.961 841.662L353.733 838.51C353.501 838.283 353.337 837.995 353.26 837.68C353.182 837.364 353.194 837.034 353.294 836.725C353.394 836.416 353.578 836.141 353.825 835.93C354.073 835.72 354.374 835.583 354.695 835.535L359.164 834.889C359.436 834.844 359.692 834.734 359.913 834.568C360.133 834.403 360.31 834.188 360.43 833.94L362.43 829.888C362.568 829.586 362.788 829.329 363.066 829.147C363.344 828.965 363.669 828.866 364.001 828.862C364.333 828.858 364.66 828.949 364.942 829.124C365.224 829.299 365.451 829.551 365.595 829.85V829.85Z" fill="#F99192"/>
<path d="M403.854 829.85L405.854 833.902C405.976 834.148 406.153 834.363 406.373 834.528C406.593 834.693 406.849 834.804 407.12 834.851L411.589 835.497C411.91 835.545 412.211 835.682 412.459 835.892C412.707 836.103 412.891 836.378 412.991 836.687C413.09 836.996 413.102 837.326 413.025 837.642C412.947 837.957 412.783 838.245 412.551 838.472L409.31 841.624C409.128 841.83 408.998 842.076 408.929 842.343C408.861 842.609 408.857 842.888 408.918 843.156L409.677 847.6C409.736 847.921 409.702 848.253 409.581 848.556C409.459 848.86 409.254 849.122 408.989 849.314C408.724 849.506 408.411 849.619 408.085 849.641C407.759 849.662 407.433 849.591 407.145 849.435L403.145 847.334C402.895 847.203 402.617 847.135 402.335 847.135C402.052 847.135 401.774 847.203 401.524 847.334L397.524 849.486C397.236 849.642 396.911 849.713 396.585 849.691C396.258 849.67 395.945 849.557 395.68 849.365C395.416 849.173 395.211 848.91 395.089 848.607C394.967 848.304 394.933 847.972 394.992 847.65L395.751 843.207C395.801 842.928 395.782 842.642 395.696 842.373C395.61 842.104 395.46 841.86 395.258 841.662L392.017 838.51C391.785 838.283 391.621 837.995 391.543 837.68C391.466 837.364 391.478 837.034 391.577 836.725C391.677 836.416 391.861 836.141 392.109 835.93C392.357 835.72 392.658 835.583 392.979 835.535L397.448 834.889C397.719 834.842 397.975 834.731 398.195 834.566C398.415 834.401 398.592 834.186 398.714 833.94L400.714 829.888C400.851 829.589 401.069 829.334 401.345 829.154C401.621 828.974 401.943 828.876 402.272 828.872C402.601 828.868 402.925 828.958 403.205 829.131C403.485 829.305 403.71 829.554 403.854 829.85V829.85Z" fill="#F99192"/>
<path d="M442.176 829.85L444.176 833.902C444.296 834.15 444.473 834.365 444.693 834.53C444.914 834.696 445.17 834.806 445.442 834.851L449.911 835.497C450.232 835.545 450.533 835.682 450.781 835.892C451.028 836.103 451.212 836.378 451.312 836.687C451.412 836.996 451.424 837.326 451.346 837.642C451.269 837.957 451.105 838.245 450.873 838.472L447.645 841.624C447.443 841.823 447.292 842.066 447.204 842.335C447.116 842.604 447.093 842.89 447.138 843.169L447.91 847.612C447.964 847.933 447.927 848.262 447.804 848.562C447.68 848.863 447.476 849.123 447.213 849.314C446.95 849.505 446.639 849.618 446.315 849.642C445.991 849.666 445.666 849.598 445.378 849.448L441.378 847.347C441.13 847.216 440.854 847.147 440.574 847.147C440.294 847.147 440.018 847.216 439.77 847.347L435.808 849.486C435.52 849.636 435.195 849.704 434.871 849.68C434.547 849.656 434.236 849.543 433.973 849.352C433.71 849.161 433.506 848.901 433.382 848.6C433.259 848.3 433.222 847.971 433.276 847.65L434.048 843.207C434.095 842.927 434.073 842.641 433.985 842.372C433.897 842.103 433.745 841.859 433.541 841.662L430.313 838.51C430.081 838.283 429.917 837.995 429.84 837.68C429.762 837.364 429.774 837.034 429.874 836.725C429.974 836.416 430.158 836.141 430.405 835.93C430.653 835.72 430.954 835.583 431.275 835.535L435.744 834.889C436.016 834.844 436.273 834.734 436.493 834.568C436.713 834.403 436.891 834.188 437.01 833.94L439.011 829.888C439.148 829.586 439.368 829.329 439.646 829.147C439.925 828.965 440.249 828.866 440.581 828.862C440.913 828.858 441.24 828.949 441.522 829.124C441.805 829.299 442.031 829.551 442.176 829.85V829.85Z" fill="#F99192"/>
<path d="M480.46 829.85L482.46 833.901C482.581 834.148 482.759 834.363 482.979 834.528C483.199 834.693 483.455 834.804 483.726 834.851L488.195 835.497C488.516 835.545 488.817 835.682 489.065 835.892C489.312 836.103 489.497 836.378 489.596 836.687C489.696 836.996 489.708 837.326 489.631 837.642C489.553 837.957 489.389 838.244 489.157 838.472L485.916 841.624C485.714 841.822 485.564 842.066 485.478 842.335C485.392 842.604 485.373 842.89 485.422 843.169L486.182 847.612C486.241 847.934 486.207 848.265 486.085 848.569C485.963 848.872 485.758 849.135 485.494 849.327C485.229 849.519 484.916 849.632 484.589 849.653C484.263 849.675 483.938 849.604 483.65 849.448L479.649 847.346C479.399 847.216 479.121 847.147 478.839 847.147C478.557 847.147 478.279 847.216 478.029 847.346L474.092 849.486C473.804 849.642 473.479 849.713 473.152 849.691C472.826 849.67 472.513 849.557 472.248 849.365C471.983 849.173 471.778 848.91 471.657 848.607C471.535 848.303 471.501 847.972 471.56 847.65L472.319 843.207C472.369 842.928 472.35 842.642 472.264 842.373C472.178 842.104 472.027 841.86 471.826 841.662L468.585 838.51C468.353 838.282 468.189 837.995 468.111 837.68C468.034 837.364 468.045 837.033 468.145 836.724C468.245 836.415 468.429 836.14 468.677 835.93C468.924 835.72 469.226 835.583 469.547 835.535L474.016 834.889C474.287 834.841 474.542 834.731 474.762 834.566C474.982 834.401 475.16 834.186 475.282 833.939L477.282 829.888C477.414 829.578 477.633 829.312 477.913 829.124C478.193 828.936 478.521 828.834 478.858 828.83C479.196 828.826 479.527 828.921 479.811 829.102C480.095 829.283 480.321 829.543 480.46 829.85V829.85Z" fill="white"/>
<path d="M321.741 200.041H288.116V204.168H321.741V200.041Z" fill="#F99192"/>
<path d="M321.741 211.954H288.116V216.081H321.741V211.954Z" fill="#F99192"/>
<path d="M321.741 223.867H288.116V227.994H321.741V223.867Z" fill="#F99192"/>
<path d="M653.104 233.919C655.341 233.919 657.155 232.105 657.155 229.868C657.155 227.63 655.341 225.816 653.104 225.816C650.867 225.816 649.053 227.63 649.053 229.868C649.053 232.105 650.867 233.919 653.104 233.919Z" fill="#F99192"/>
<path d="M671.803 233.919C674.041 233.919 675.854 232.105 675.854 229.868C675.854 227.63 674.041 225.816 671.803 225.816C669.566 225.816 667.752 227.63 667.752 229.868C667.752 232.105 669.566 233.919 671.803 233.919Z" fill="#F99192"/>
<path d="M678.766 201.889H646.799L644.558 195.394C644.423 195.023 644.177 194.702 643.853 194.475C643.529 194.249 643.143 194.127 642.748 194.128H639.646C638.934 194.128 638.252 194.411 637.749 194.914C637.245 195.417 636.962 196.1 636.962 196.812C636.962 197.524 637.245 198.206 637.749 198.71C638.252 199.213 638.934 199.496 639.646 199.496H641.862L643.773 205.041C643.772 205.07 643.772 205.1 643.773 205.129L648.394 218.511C648.561 218.986 648.871 219.398 649.281 219.691C649.692 219.983 650.182 220.141 650.686 220.144H674.778C675.3 220.147 675.809 219.981 676.229 219.671C676.649 219.36 676.957 218.922 677.107 218.422L681.108 205.016C681.217 204.652 681.239 204.267 681.172 203.893C681.106 203.519 680.952 203.166 680.725 202.862C680.497 202.558 680.201 202.312 679.861 202.142C679.521 201.973 679.146 201.886 678.766 201.889V201.889Z" fill="#F99192"/>
<path d="M680.247 211.321C685.526 211.321 689.806 207.041 689.806 201.762C689.806 196.483 685.526 192.204 680.247 192.204C674.968 192.204 670.689 196.483 670.689 201.762C670.689 207.041 674.968 211.321 680.247 211.321Z" fill="#3A3144"/>
<path d="M488.954 761.651H314.905V765.044H488.954V761.651Z" fill="#FFA97F"/>
<path d="M488.954 777.603H314.905V780.995H488.954V777.603Z" fill="#FFA97F"/>
<path d="M420.413 793.566H314.905V796.959H420.413V793.566Z" fill="#FFA97F"/>
<path d="M657.889 269.202H320.007C317.189 269.202 314.905 271.486 314.905 274.304V306.169C314.905 308.987 317.189 311.271 320.007 311.271H657.889C660.707 311.271 662.991 308.987 662.991 306.169V274.304C662.991 271.486 660.707 269.202 657.889 269.202Z" fill="#F99192"/>
<path d="M652.826 761.651H578.98C574.428 761.651 570.738 765.341 570.738 769.893V804.569C570.738 809.12 574.428 812.81 578.98 812.81H652.826C657.377 812.81 661.067 809.12 661.067 804.569V769.893C661.067 765.341 657.377 761.651 652.826 761.651Z" fill="#FFA97F"/>
<path d="M586.411 804.974V821.748C586.413 822.198 586.547 822.637 586.797 823.01C587.048 823.384 587.403 823.675 587.819 823.847C588.234 824.019 588.691 824.064 589.133 823.976C589.574 823.889 589.979 823.673 590.298 823.356L607.68 805.999" fill="#FFA97F"/>
<path d="M599.843 790.338C601.563 790.338 602.958 788.944 602.958 787.224C602.958 785.504 601.563 784.109 599.843 784.109C598.123 784.109 596.729 785.504 596.729 787.224C596.729 788.944 598.123 790.338 599.843 790.338Z" fill="#FFECE5"/>
<path d="M615.909 790.338C617.629 790.338 619.024 788.944 619.024 787.224C619.024 785.504 617.629 784.109 615.909 784.109C614.189 784.109 612.795 785.504 612.795 787.224C612.795 788.944 614.189 790.338 615.909 790.338Z" fill="#FFECE5"/>
<path d="M631.975 790.338C633.695 790.338 635.089 788.944 635.089 787.224C635.089 785.504 633.695 784.109 631.975 784.109C630.255 784.109 628.86 785.504 628.86 787.224C628.86 788.944 630.255 790.338 631.975 790.338Z" fill="#FFECE5"/>
<path d="M488.954 1020.12C519.922 1020.12 545.026 995.014 545.026 964.047C545.026 933.079 519.922 907.976 488.954 907.976C457.987 907.976 432.883 933.079 432.883 964.047C432.883 995.014 457.987 1020.12 488.954 1020.12Z" fill="#3A3144"/>
<path d="M495.285 939.562H482.637V988.506H495.285V939.562Z" fill="#F99192"/>
<path d="M513.439 970.364V957.717H464.495V970.364H513.439Z" fill="#F99192"/>
<path d="M747.776 761.651H929.244C952.697 761.651 975.19 770.968 991.774 787.552C1008.36 804.136 1017.67 826.628 1017.67 850.081V1142.95C1017.67 1147.16 1016 1151.21 1013.02 1154.19C1010.03 1157.17 1005.99 1158.85 1001.77 1158.85H710.504C706.287 1158.85 702.243 1157.17 699.261 1154.19C696.279 1151.21 694.604 1147.16 694.604 1142.95V814.823C694.604 800.721 700.206 787.197 710.177 777.225C720.149 767.253 733.673 761.651 747.776 761.651V761.651Z" fill="#1BA591"/>
<path d="M703.58 1157.24C705.737 1158.29 708.104 1158.84 710.505 1158.85H1001.77C1005.99 1158.85 1010.03 1157.17 1013.02 1154.19C1016 1151.21 1017.67 1147.16 1017.67 1142.94V883.972L814.038 1032.52L703.58 1157.24Z" fill="#158C8C"/>
<path d="M825.559 1020.12L776.185 1073.29C775.519 1074.01 775.004 1074.85 774.669 1075.77C774.334 1076.69 774.186 1077.66 774.235 1078.64C774.283 1079.62 774.526 1080.57 774.95 1081.46C775.374 1082.34 775.971 1083.12 776.704 1083.77L830.205 1131.02C831.521 1132.18 833.211 1132.83 834.967 1132.86C836.723 1132.88 838.429 1132.27 839.776 1131.15C846.903 1125.23 857.905 1112.75 849.258 1096.96C837.117 1074.72 878.363 1034.32 878.363 1034.32" fill="#D18C3D"/>
<path d="M800.112 1047.6C805.408 1055.83 812.687 1062.6 821.281 1067.29C829.874 1071.98 839.508 1074.43 849.296 1074.43H849.917C857.627 1054.65 878.389 1034.3 878.389 1034.3L825.584 1020.12L800.112 1047.6Z" fill="#B77430"/>
<path d="M840.13 1080.05C843.384 1079.15 846.83 1079.25 850.03 1080.32C851.588 1080.82 852.246 1078.38 850.701 1077.87C847.06 1076.69 843.153 1076.6 839.459 1077.61C839.299 1077.65 839.149 1077.73 839.017 1077.83C838.886 1077.93 838.776 1078.06 838.694 1078.2C838.611 1078.35 838.558 1078.51 838.538 1078.67C838.517 1078.84 838.529 1079 838.573 1079.16C838.617 1079.32 838.692 1079.47 838.794 1079.61C838.897 1079.74 839.024 1079.85 839.168 1079.93C839.313 1080.01 839.472 1080.06 839.637 1080.08C839.802 1080.11 839.97 1080.09 840.13 1080.05V1080.05Z" fill="#3A3144"/>
<path d="M840.232 1089.2C843.332 1087.88 846.813 1087.77 849.992 1088.89C851.55 1089.41 852.208 1086.96 850.663 1086.44C846.826 1085.16 842.648 1085.37 838.953 1087.01C837.459 1087.66 838.738 1089.84 840.219 1089.2H840.232Z" fill="#3A3144"/>
<path d="M843.397 1099.98C844.446 1098.96 845.722 1098.22 847.119 1097.8C848.515 1097.39 849.991 1097.31 851.423 1097.58C853.018 1097.89 853.702 1095.44 852.094 1095.14C850.231 1094.77 848.306 1094.85 846.481 1095.38C844.657 1095.91 842.986 1096.87 841.612 1098.18C840.422 1099.31 842.219 1101.09 843.397 1099.98Z" fill="#3A3144"/>
<path d="M833.686 1090.87L833.889 1090.66C834.125 1090.42 834.258 1090.1 834.257 1089.76C834.255 1089.43 834.121 1089.1 833.882 1088.87C833.644 1088.63 833.321 1088.5 832.985 1088.5C832.649 1088.5 832.328 1088.64 832.091 1088.87L831.888 1089.08C831.65 1089.32 831.516 1089.64 831.516 1089.98C831.516 1090.31 831.65 1090.64 831.888 1090.87C832.127 1091.11 832.45 1091.25 832.787 1091.25C833.124 1091.25 833.448 1091.11 833.686 1090.87V1090.87Z" fill="#3A3144"/>
<path d="M833.193 1080.1C833.528 1080.1 833.85 1079.97 834.088 1079.73C834.325 1079.49 834.459 1079.17 834.459 1078.83C834.459 1078.5 834.325 1078.18 834.088 1077.94C833.85 1077.7 833.528 1077.57 833.193 1077.57C832.857 1077.57 832.535 1077.7 832.298 1077.94C832.06 1078.18 831.927 1078.5 831.927 1078.83C831.927 1079.17 832.06 1079.49 832.298 1079.73C832.535 1079.97 832.857 1080.1 833.193 1080.1Z" fill="#3A3144"/>
<path d="M835.674 1102.17C836.01 1102.17 836.332 1102.03 836.569 1101.8C836.807 1101.56 836.94 1101.24 836.94 1100.9C836.94 1100.56 836.807 1100.24 836.569 1100.01C836.332 1099.77 836.01 1099.63 835.674 1099.63C835.338 1099.63 835.016 1099.77 834.779 1100.01C834.542 1100.24 834.408 1100.56 834.408 1100.9C834.408 1101.24 834.542 1101.56 834.779 1101.8C835.016 1102.03 835.338 1102.17 835.674 1102.17Z" fill="#3A3144"/>
<path d="M817.305 765.854C848.272 765.854 873.376 740.75 873.376 709.783C873.376 678.816 848.272 653.712 817.305 653.712C786.337 653.712 761.233 678.816 761.233 709.783C761.233 740.75 786.337 765.854 817.305 765.854Z" fill="#2E60B8"/>
<path d="M809.582 714.112C809.582 714.112 956.083 811.721 977.884 846.511C999.684 881.3 843.688 1053.82 843.688 1053.82" stroke="#2E60B8" stroke-width="80" stroke-miterlimit="10"/>
<path d="M869.033 688.185L781.578 756.372C781.578 756.372 745.142 734.647 763.474 672.183" fill="#3A3144"/>
<path d="M817.342 540.24C814.215 551.735 813.304 571.991 809.582 583.284" stroke="#3EB7B2" stroke-width="30" stroke-miterlimit="10"/>
<path d="M839.535 555.458L837.472 568.713C837.472 568.713 825.786 565.953 823.634 548.103C823.634 548.103 825.432 557.547 839.535 555.458Z" fill="#3A3144"/>
<path d="M833.796 561.184C824.18 561.232 814.939 557.459 808.105 550.694C801.271 543.928 797.404 534.726 797.355 525.109L797.311 516.399C797.273 508.932 800.203 501.756 805.457 496.449C810.71 491.142 817.857 488.139 825.324 488.101V488.101C829.023 488.081 832.689 488.79 836.113 490.186C839.538 491.583 842.654 493.641 845.283 496.243C847.912 498.844 850.003 501.938 851.436 505.348C852.869 508.757 853.616 512.416 853.635 516.114L853.761 541.016C853.788 546.338 851.699 551.453 847.955 555.235C844.211 559.017 839.118 561.157 833.796 561.184V561.184Z" fill="#3EB7B2"/>
<path d="M843.611 527.415C844.737 527.415 845.65 526.503 845.65 525.377C845.65 524.251 844.737 523.339 843.611 523.339C842.486 523.339 841.573 524.251 841.573 525.377C841.573 526.503 842.486 527.415 843.611 527.415Z" fill="#3A3144"/>
<path d="M846.498 516.401C845.233 516.448 843.981 516.67 842.776 517.059C841.232 517.553 841.89 519.997 843.447 519.49C844.434 519.166 845.46 518.979 846.498 518.933C848.131 518.857 848.131 516.325 846.498 516.401V516.401Z" fill="#3A3144"/>
<path d="M856.107 534.632C855.753 537.556 852.309 541.215 848.891 540.114L850.474 532.1C850.575 531.568 853.347 531.34 853.791 531.429C854.16 531.47 854.517 531.589 854.839 531.776C855.16 531.964 855.439 532.216 855.657 532.518C855.875 532.819 856.028 533.163 856.106 533.527C856.183 533.891 856.184 534.268 856.107 534.632V534.632Z" fill="#3EB7B2"/>
<path d="M801.606 574.548L857.943 575.118C862.361 575.162 866.723 576.107 870.762 577.896C874.802 579.684 878.433 582.279 881.434 585.521C884.436 588.763 886.743 592.583 888.216 596.748C889.688 600.914 890.295 605.335 889.998 609.743L885.048 682.526C884.863 685.294 883.694 687.904 881.754 689.887C879.813 691.869 877.228 693.093 874.464 693.337L756.385 703.896C753.411 704.162 750.45 703.277 748.11 701.423C745.771 699.569 744.233 696.888 743.813 693.932L737.293 647.938C735.98 638.763 736.667 629.413 739.306 620.528C741.945 611.643 746.474 603.434 752.583 596.463C758.691 589.492 766.235 583.925 774.697 580.142C783.158 576.359 792.338 574.451 801.606 574.548V574.548Z" fill="#B2EEE6"/>
<path d="M986.834 613.225L1007.29 513.084C1007.5 512.07 1007.48 511.022 1007.23 510.016C1006.99 509.01 1006.52 508.072 1005.87 507.27C1005.21 506.467 1004.39 505.82 1003.45 505.377C1002.51 504.933 1001.49 504.703 1000.46 504.703H952.88C951.271 504.7 949.711 505.255 948.464 506.273C947.218 507.291 946.363 508.709 946.044 510.286L925.573 610.427C925.366 611.44 925.388 612.487 925.635 613.491C925.883 614.495 926.351 615.432 927.006 616.233C927.66 617.034 928.484 617.679 929.419 618.122C930.353 618.565 931.375 618.795 932.409 618.795H979.998C981.604 618.794 983.161 618.239 984.406 617.224C985.651 616.21 986.508 614.797 986.834 613.225V613.225Z" fill="#4F8AE0"/>
<path d="M951.336 536.467H962.16C962.462 536.472 962.755 536.368 962.987 536.176C963.219 535.983 963.375 535.714 963.426 535.417L967.224 516.642C967.271 516.452 967.273 516.254 967.231 516.064C967.189 515.873 967.103 515.695 966.981 515.543C966.858 515.391 966.702 515.269 966.525 515.187C966.347 515.106 966.153 515.066 965.958 515.072H955.096C954.796 515.067 954.504 515.169 954.272 515.359C954.04 515.549 953.884 515.815 953.83 516.11L950.032 534.897C949.984 535.09 949.982 535.292 950.026 535.485C950.07 535.679 950.159 535.86 950.286 536.012C950.413 536.165 950.574 536.286 950.757 536.365C950.939 536.444 951.137 536.479 951.336 536.467V536.467Z" fill="#3A3144"/>
<path d="M928.624 575.169C928.624 577.549 923.838 588.627 926.649 605.047" stroke="#3EB7B2" stroke-width="8" stroke-miterlimit="10" stroke-linecap="round"/>
<path d="M949.221 643.761L917.432 611.035C917.432 611.035 938.853 566.358 961.248 579.246C983.644 592.133 949.221 643.761 949.221 643.761Z" fill="#3EB7B2"/>
<path d="M970.072 567.573C970.072 567.573 948.55 566.598 931.776 592.653" stroke="#3EB7B2" stroke-width="6" stroke-miterlimit="10" stroke-linecap="round"/>
<path d="M954.994 583.309C955.197 583.082 968.236 576.878 977.883 578.347" stroke="#3EB7B2" stroke-width="6" stroke-miterlimit="10" stroke-linecap="round"/>
<path d="M963.186 593.336C963.426 593.146 971.794 587.006 981.061 590.07" stroke="#3EB7B2" stroke-width="6" stroke-miterlimit="10" stroke-linecap="round"/>
<path d="M963.337 607.781C963.54 607.553 970.769 600.109 980.416 601.577" stroke="#3EB7B2" stroke-width="6" stroke-miterlimit="10" stroke-linecap="round"/>
<path d="M767.386 633L821.495 692.882L817.418 698.465L756.384 703.896C753.411 704.163 750.45 703.277 748.11 701.423C745.771 699.569 744.233 696.888 743.813 693.933L739.699 664.891C739.135 660.926 739.429 656.886 740.562 653.045C741.695 649.204 743.64 645.651 746.265 642.627C748.891 639.603 752.135 637.179 755.779 635.518C759.423 633.857 763.381 632.998 767.386 633Z" fill="#99DDD2"/>
<path d="M769.323 615.2C769.323 615.2 864.336 748.206 890.061 725.114C915.786 702.022 943.828 612.225 943.828 612.225" stroke="#B2EEE6" stroke-width="50" stroke-miterlimit="10"/>
<path d="M844.08 537.429C843.295 536.924 842.612 536.276 842.067 535.517C841.892 535.242 841.617 535.045 841.3 534.967C840.983 534.889 840.648 534.937 840.365 535.101C840.083 535.264 839.874 535.53 839.783 535.844C839.692 536.158 839.726 536.494 839.877 536.784C840.666 537.9 841.658 538.858 842.801 539.607C844.169 540.493 845.447 538.341 844.067 537.417L844.08 537.429Z" fill="#3A3144"/>
<path d="M852.512 489.739C839.484 476.813 823.267 482.143 817.988 484.384C816.94 484.847 815.803 485.072 814.658 485.042C811.063 484.928 801.796 486.004 791.351 497.993C777.931 513.388 785.717 544.456 765.639 561.749C759.418 567.224 755.063 574.505 753.181 582.575C752.375 585.771 752.31 589.11 752.991 592.335C753.671 595.561 755.079 598.589 757.108 601.187C759.136 603.786 761.731 605.887 764.695 607.33C767.659 608.774 770.913 609.521 774.209 609.515H813.455C814.266 609.521 815.067 609.339 815.796 608.985C816.525 608.631 817.163 608.114 817.66 607.474C818.157 606.833 818.5 606.087 818.662 605.293C818.824 604.499 818.801 603.678 818.595 602.894C817.038 597.172 816.38 587.702 821.52 574.751C829.825 553.697 821.735 533.923 820.254 530.631C820.114 530.326 819.859 530.09 819.545 529.973C812.202 526.846 812.303 516.933 817.355 515.717C818.269 515.505 819.22 515.496 820.138 515.69C821.057 515.885 821.922 516.279 822.672 516.844C822.901 517.011 823.174 517.107 823.457 517.119C823.74 517.132 824.021 517.061 824.264 516.915C824.507 516.769 824.702 516.555 824.824 516.299C824.946 516.044 824.99 515.758 824.951 515.477C824.903 515.12 824.989 514.758 825.193 514.462C825.396 514.165 825.702 513.954 826.052 513.869L833.37 512.135C833.555 512.093 833.73 512.015 833.885 511.905C834.04 511.794 834.171 511.655 834.271 511.493C834.372 511.332 834.439 511.152 834.468 510.964C834.498 510.777 834.491 510.585 834.446 510.4L832.926 503.868L836.395 510.54C836.535 510.808 836.756 511.026 837.026 511.162C837.296 511.299 837.603 511.347 837.902 511.299L857.854 508.033C858.411 507.943 858.942 507.733 859.412 507.42C859.881 507.106 860.277 506.695 860.574 506.215C860.871 505.735 861.06 505.196 861.131 504.636C861.201 504.076 861.15 503.507 860.981 502.969C859.264 497.941 856.359 493.403 852.512 489.739V489.739Z" fill="#3A3144"/>
<path d="M843.612 651.635C853.537 662.734 863.813 673.491 874.439 683.906C875.021 684.475 875.92 683.589 875.338 683.02C864.703 672.596 854.423 661.839 844.498 650.749C843.954 650.142 843.067 651.04 843.612 651.635Z" fill="#99DDD2"/>
<path d="M878.87 689.78L880.136 688.109C880.617 687.451 879.516 686.843 879.047 687.476L877.781 689.134C877.3 689.805 878.402 690.4 878.87 689.78V689.78Z" fill="#99DDD2"/>
</svg>
