<svg width="232" height="245" viewBox="0 0 232 245" fill="none" xmlns="http://www.w3.org/2000/svg">
<defs>
<linearGradient id="paint0_linear" x1="185.912" y1="122.891" x2="185.912" y2="134.872" gradientUnits="userSpaceOnUse">
<stop stop-color="#9D61F7"/>
<stop offset="1" stop-color="#00DEFC"/>
</linearGradient>
<linearGradient id="paint1_linear" x1="77.0613" y1="-13.7121" x2="55.928" y2="68.7553" gradientUnits="userSpaceOnUse">
<stop stop-color="#17B7BD"/>
<stop offset="1" stop-color="#9DEB93"/>
</linearGradient>
<linearGradient id="paint2_linear" x1="144.512" y1="25.8307" x2="144.512" y2="113.498" gradientUnits="userSpaceOnUse">
<stop stop-color="#FB65BC"/>
<stop offset="1" stop-color="#FCAFA9"/>
</linearGradient>
<linearGradient id="paint3_linear" x1="134.654" y1="14.9117" x2="134.654" y2="122.336" gradientUnits="userSpaceOnUse">
<stop stop-color="#FFF2F2" stop-opacity="0.139408"/>
<stop offset="1" stop-color="#FEFAF9"/>
</linearGradient>
<linearGradient id="paint4_linear" x1="157.01" y1="38.3546" x2="157.01" y2="100.974" gradientUnits="userSpaceOnUse">
<stop stop-color="#FB65BC"/>
<stop offset="1" stop-color="#FCAFA9"/>
</linearGradient>
<linearGradient id="paint5_linear" x1="161.762" y1="23.7351" x2="161.762" y2="114.162" gradientUnits="userSpaceOnUse">
<stop stop-color="#FFF2F2" stop-opacity="0.139408"/>
<stop offset="1" stop-color="#FEFAF9"/>
</linearGradient>
<linearGradient id="paint6_linear" x1="10.1549" y1="92.3643" x2="10.1549" y2="204.297" gradientUnits="userSpaceOnUse">
<stop stop-color="#9D61F7"/>
<stop offset="1" stop-color="#00DEFC"/>
</linearGradient>
<linearGradient id="paint7_linear" x1="-46.5479" y1="100.192" x2="-46.5479" y2="278.024" gradientUnits="userSpaceOnUse">
<stop stop-color="#FFF2F2" stop-opacity="0.139408"/>
<stop offset="1" stop-color="#FEFAF9"/>
</linearGradient>
<linearGradient id="paint8_linear" x1="51.0909" y1="137.221" x2="51.0909" y2="188.197" gradientUnits="userSpaceOnUse">
<stop stop-color="#FFF2F2" stop-opacity="0.139408"/>
<stop offset="1" stop-color="#FEFAF9"/>
</linearGradient>
<linearGradient id="paint9_linear" x1="43.4163" y1="119.973" x2="43.4163" y2="157.691" gradientUnits="userSpaceOnUse">
<stop stop-color="#FFF2F2" stop-opacity="0.139408"/>
<stop offset="1" stop-color="#FEFAF9"/>
</linearGradient>
<linearGradient id="paint10_linear" x1="19.6178" y1="110.497" x2="19.6178" y2="141.96" gradientUnits="userSpaceOnUse">
<stop stop-color="#FFF2F2" stop-opacity="0.139408"/>
<stop offset="1" stop-color="#FEFAF9"/>
</linearGradient>
<linearGradient id="paint11_linear" x1="-40.7906" y1="192.433" x2="-40.7906" y2="205.863" gradientUnits="userSpaceOnUse">
<stop stop-color="#5174D0"/>
<stop offset="1" stop-color="#1F2480"/>
</linearGradient>
</defs>
<ellipse opacity="0.2" cx="116" cy="237.172" rx="111.313" ry="7.82748" fill="#B6A0D1"/>
<path fill-rule="evenodd" clip-rule="evenodd" d="M20.167 56.3579C20.167 57.2225 20.8665 57.9233 21.7293 57.9233H26.4162C27.279 57.9233 27.9785 57.2225 27.9785 56.3579C27.9785 55.4933 27.279 54.7924 26.4162 54.7924H21.7293C20.8665 54.7924 20.167 55.4933 20.167 56.3579ZM11.1228 61.4624C10.4529 62.0073 9.46901 61.905 8.92515 61.2338C8.38129 60.5625 8.48342 59.5766 9.15327 59.0317C10.5018 57.9345 11.9548 57.0318 13.4849 56.3456C14.2725 55.9924 15.1966 56.3459 15.5491 57.135C15.9016 57.9242 15.5488 58.8503 14.7613 59.2034C13.4834 59.7765 12.2627 60.5349 11.1228 61.4624ZM2.62015 71.9537C3.43326 72.243 4.32642 71.8169 4.61509 71.0022C5.11502 69.5911 5.7334 68.2509 6.4584 67.0027C6.89244 66.2555 6.63977 65.2972 5.89406 64.8622C5.14835 64.4273 4.19197 64.6805 3.75794 65.4277C2.93488 66.8447 2.23499 68.3616 1.67057 69.9547C1.3819 70.7694 1.80704 71.6644 2.62015 71.9537ZM3.12458 82.8349C3.12458 83.6995 2.42512 84.4004 1.56229 84.4004C0.699461 84.4004 0 83.6995 0 82.8349V79.8457C0 79.2439 0.0174866 78.6446 0.0523013 78.0485C0.10271 77.1854 0.841841 76.5266 1.7032 76.5771C2.56455 76.6277 3.22195 77.3683 3.17154 78.2314C3.14029 78.7666 3.12458 79.3049 3.12458 79.8457V82.8349ZM1.56229 96.9243C2.42512 96.9243 3.12458 96.2234 3.12458 95.3588V90.6624C3.12458 89.7978 2.42512 89.0969 1.56229 89.0969C0.699461 89.0969 0 89.7978 0 90.6624V95.3588C0 96.2234 0.699461 96.9243 1.56229 96.9243ZM3.12458 107.883C3.12458 108.747 2.42512 109.448 1.56229 109.448C0.699461 109.448 0 108.747 0 107.883V103.186C0 102.322 0.699461 101.621 1.56229 101.621C2.42512 101.621 3.12458 102.322 3.12458 103.186V107.883ZM1.56229 121.972C2.42512 121.972 3.12458 121.271 3.12458 120.407V115.71C3.12458 114.846 2.42512 114.145 1.56229 114.145C0.699461 114.145 0 114.846 0 115.71V120.407C0 121.271 0.699461 121.972 1.56229 121.972ZM3.12458 132.931C3.12458 133.795 2.42512 134.496 1.56229 134.496C0.699461 134.496 0 133.795 0 132.931V128.234C0 127.37 0.699461 126.669 1.56229 126.669C2.42512 126.669 3.12458 127.37 3.12458 128.234V132.931ZM1.56229 147.02C2.42512 147.02 3.12458 146.319 3.12458 145.455V140.758C3.12458 139.894 2.42512 139.193 1.56229 139.193C0.699461 139.193 0 139.894 0 140.758V145.455C0 146.319 0.699461 147.02 1.56229 147.02ZM198.801 159.681C194.271 159.681 190.599 156.001 190.599 151.462C190.599 146.923 194.271 143.243 198.801 143.243C203.331 143.243 207.003 146.923 207.003 151.462C207.003 156.001 203.331 159.681 198.801 159.681ZM204.66 151.462C204.66 154.704 202.037 157.332 198.801 157.332C195.566 157.332 192.943 154.704 192.943 151.462C192.943 148.219 195.566 145.591 198.801 145.591C202.037 145.591 204.66 148.219 204.66 151.462ZM195.286 151.462C195.286 153.407 196.86 154.984 198.801 154.984C200.743 154.984 202.316 153.407 202.316 151.462C202.316 149.516 200.743 147.939 198.801 147.939C196.86 147.939 195.286 149.516 195.286 151.462ZM199.148 164.828C198.285 164.828 197.586 165.529 197.586 166.394V169.009C197.586 169.563 197.511 170.112 197.361 170.654C197.131 171.487 197.619 172.35 198.451 172.58C199.283 172.81 200.143 172.321 200.373 171.488C200.597 170.676 200.71 169.847 200.71 169.009V166.394C200.71 165.529 200.011 164.828 199.148 164.828ZM193.202 175.901C193.91 175.407 194.884 175.582 195.376 176.292C195.869 177.002 195.694 177.978 194.986 178.471C193.679 179.383 192.185 180.181 190.547 180.848C189.747 181.173 188.836 180.788 188.511 179.987C188.187 179.185 188.572 178.272 189.371 177.947C190.801 177.365 192.09 176.676 193.202 175.901ZM183.94 181.118C183.837 180.26 183.058 179.648 182.202 179.751C180.905 179.908 179.577 179.988 178.23 179.988H177.728C176.865 179.988 176.165 180.689 176.165 181.554C176.165 182.418 176.865 183.119 177.728 183.119H178.23C179.701 183.119 181.155 183.032 182.576 182.86C183.433 182.756 184.043 181.976 183.94 181.118ZM170.127 179.713C170.982 179.825 171.585 180.611 171.474 181.468C171.362 182.326 170.578 182.93 169.723 182.818C168.053 182.6 166.437 182.265 164.901 181.822C164.072 181.582 163.594 180.714 163.833 179.884C164.072 179.053 164.937 178.574 165.767 178.813C167.15 179.213 168.612 179.515 170.127 179.713ZM159.535 177.914C160.041 177.214 159.884 176.235 159.186 175.728C157.949 174.831 156.965 173.839 156.268 172.793C155.788 172.074 154.818 171.88 154.101 172.361C153.383 172.841 153.19 173.813 153.669 174.532C154.582 175.902 155.828 177.158 157.353 178.264C158.052 178.771 159.029 178.615 159.535 177.914ZM20.6759 171.422C21.5388 171.422 22.2382 172.123 22.2382 172.987C22.2382 173.852 21.5388 174.553 20.6759 174.553C18.9425 174.553 17.2359 174.295 15.5852 173.789C14.76 173.537 14.2954 172.662 14.5474 171.835C14.7995 171.008 15.6727 170.542 16.4979 170.795C17.8545 171.21 19.2535 171.422 20.6759 171.422ZM10.4476 169.423C11.0285 168.784 10.9823 167.794 10.3443 167.212C9.29731 166.256 8.33564 165.158 7.47885 163.938C6.98222 163.231 6.00764 163.062 5.30207 163.559C4.5965 164.057 4.42712 165.033 4.92376 165.74C5.91037 167.145 7.02288 168.415 8.24059 169.527C8.87855 170.109 9.86666 170.062 10.4476 169.423ZM4.28414 157.342C4.53832 158.169 4.07595 159.045 3.25141 159.299C2.42687 159.554 1.55239 159.091 1.29822 158.265C0.816891 156.7 0.465433 155.077 0.250549 153.414C0.139707 152.557 0.743517 151.772 1.5992 151.661C2.45488 151.55 3.2384 152.155 3.34924 153.012C3.54137 154.499 3.85516 155.948 4.28414 157.342ZM34.2276 57.9233C33.3648 57.9233 32.6653 57.2225 32.6653 56.3579C32.6653 55.4933 33.3648 54.7924 34.2276 54.7924H38.9145C39.7773 54.7924 40.4768 55.4933 40.4768 56.3579C40.4768 57.2225 39.7773 57.9233 38.9145 57.9233H34.2276ZM45.1636 56.3579C45.1636 57.2225 45.8631 57.9233 46.7259 57.9233H51.4128C52.2756 57.9233 52.9751 57.2225 52.9751 56.3579C52.9751 55.4933 52.2756 54.7924 51.4128 54.7924H46.7259C45.8631 54.7924 45.1636 55.4933 45.1636 56.3579Z" fill="#D4DFFF"/>
<path fill-rule="evenodd" clip-rule="evenodd" d="M187.475 122.891H197.63C198.492 122.891 199.192 123.592 199.192 124.457V125.479C199.192 126.343 198.492 127.044 197.63 127.044H187.475C186.612 127.044 185.912 126.343 185.912 125.479V124.457C185.912 123.592 186.612 122.891 187.475 122.891ZM187.475 130.719H213.253C214.115 130.719 214.815 131.42 214.815 132.284V133.306C214.815 134.171 214.115 134.872 213.253 134.872H187.475C186.612 134.872 185.912 134.171 185.912 133.306V132.284C185.912 131.42 186.612 130.719 187.475 130.719Z" fill="url(#paint0_linear)"/>
<path fill-rule="evenodd" clip-rule="evenodd" d="M49.9933 35.0606H66.3973C68.123 35.0606 69.5219 36.4624 69.5219 38.1916V75.1438C69.5219 76.873 68.123 78.2748 66.3973 78.2748H49.9933C48.2676 78.2748 46.8687 76.873 46.8687 75.1438V38.1916C46.8687 36.4624 48.2676 35.0606 49.9933 35.0606ZM78.1145 23.6455H94.5185C96.2442 23.6455 97.6431 25.0473 97.6431 26.7765V75.1438C97.6431 76.873 96.2442 78.2748 94.5185 78.2748H78.1145C76.3888 78.2748 74.9899 76.873 74.9899 75.1438V26.7765C74.9899 25.0473 76.3888 23.6455 78.1145 23.6455ZM134.357 23.6455H150.761C152.487 23.6455 153.886 25.0473 153.886 26.7765V75.1438C153.886 76.873 152.487 78.2748 150.761 78.2748H134.357C132.631 78.2748 131.232 76.873 131.232 75.1438V26.7765C131.232 25.0473 132.631 23.6455 134.357 23.6455ZM107.017 0H123.421C125.147 0 126.545 1.40179 126.545 3.13099V75.1438C126.545 76.873 125.147 78.2748 123.421 78.2748H107.017C105.291 78.2748 103.892 76.873 103.892 75.1438V3.13099C103.892 1.40179 105.291 0 107.017 0Z" fill="url(#paint1_linear)"/>
<ellipse cx="188.256" cy="69.6646" rx="43.7441" ry="43.8339" fill="url(#paint2_linear)"/>
<path opacity="0.965588" fill-rule="evenodd" clip-rule="evenodd" d="M188.256 103.479C169.619 103.479 154.51 88.3399 154.51 69.6646C154.51 50.9892 169.619 35.8499 188.256 35.8499C206.893 35.8499 222.001 50.9892 222.001 69.6646C222.001 88.3399 206.893 103.479 188.256 103.479Z" fill="url(#paint3_linear)"/>
<path fill-rule="evenodd" clip-rule="evenodd" d="M188.256 100.974C205.512 100.974 219.502 86.9565 219.502 69.6645C219.502 52.3725 205.512 38.3546 188.256 38.3546C170.999 38.3546 157.01 52.3725 157.01 69.6645C157.01 86.9565 170.999 100.974 188.256 100.974Z" fill="url(#paint4_linear)"/>
<path opacity="0.965588" fill-rule="evenodd" clip-rule="evenodd" d="M201.297 86.9336C199.073 89.1626 196.077 90.5983 192.309 91.2409V94.6747C192.309 95.7591 191.979 96.6326 191.317 97.2953C190.656 97.9579 189.784 98.2893 188.702 98.2893C187.66 98.2893 186.798 97.9579 186.117 97.2953C185.436 96.6326 185.095 95.7591 185.095 94.6747V91.4217C182.891 91.2208 180.756 90.759 178.692 90.0361C176.628 89.3132 174.815 88.3895 173.252 87.2649C172.61 86.8633 172.159 86.4115 171.899 85.9095C171.638 85.4075 171.508 84.7749 171.508 84.0119C171.508 83.0078 171.819 82.1243 172.44 81.3612C173.061 80.5981 173.773 80.2166 174.574 80.2166C175.336 80.2166 176.278 80.5379 177.4 81.1805C179.243 82.2648 180.997 83.058 182.66 83.56C184.323 84.0621 186.057 84.3131 187.86 84.3131C190.265 84.3131 192.109 83.8613 193.391 82.9576C194.674 82.054 195.315 80.7789 195.315 79.1322C195.315 78.1282 194.944 77.3049 194.203 76.6623C193.462 76.0197 192.55 75.5177 191.468 75.1562C190.385 74.7948 188.822 74.3329 186.778 73.7707C183.812 73.0076 181.368 72.2445 179.444 71.4815C177.52 70.7184 175.867 69.5136 174.484 67.8669C173.101 66.2203 172.41 64.0114 172.41 61.2403C172.41 57.9872 173.562 55.196 175.867 52.8666C178.171 50.5372 181.187 49.0513 184.915 48.4087V44.9749C184.915 43.8905 185.255 43.017 185.937 42.3543C186.618 41.6917 187.48 41.3604 188.522 41.3604C189.604 41.3604 190.476 41.6917 191.137 42.3543C191.798 43.017 192.129 43.8905 192.129 44.9749V48.2882C195.736 48.7701 199.123 50.1356 202.289 52.3847C202.89 52.7863 203.321 53.2482 203.582 53.7703C203.842 54.2924 203.972 54.9149 203.972 55.6378C203.972 56.6418 203.662 57.5253 203.041 58.2884C202.419 59.0515 201.708 59.433 200.906 59.433C200.465 59.433 200.055 59.3728 199.674 59.2523C199.293 59.1318 198.762 58.8708 198.081 58.4691C196.437 57.4249 194.965 56.6418 193.662 56.1197C192.359 55.5976 190.766 55.3366 188.883 55.3366C186.718 55.3366 184.985 55.8185 183.682 56.7824C182.38 57.7462 181.728 59.0314 181.728 60.6379C181.728 61.7624 182.109 62.6761 182.871 63.3789C183.632 64.0817 184.594 64.6339 185.756 65.0356C186.919 65.4372 188.542 65.899 190.626 66.4211C193.552 67.144 195.946 67.877 197.81 68.62C199.674 69.363 201.277 70.5477 202.62 72.1743C203.962 73.8008 204.634 75.9795 204.634 78.7105C204.634 81.9636 203.521 84.7046 201.297 86.9336Z" fill="url(#paint5_linear)"/>
<ellipse cx="35.5421" cy="174.161" rx="3.51515" ry="3.52236" fill="#A5FECB"/>
<path fill-rule="evenodd" clip-rule="evenodd" d="M17.9663 92.3643H170.29C174.604 92.3643 178.101 95.8687 178.101 100.192V196.47C178.101 200.793 174.604 204.297 170.29 204.297H17.9663C13.6522 204.297 10.1549 200.793 10.1549 196.47V100.192C10.1549 95.8687 13.6522 92.3643 17.9663 92.3643Z" fill="url(#paint6_linear)"/>
<path opacity="0.965588" fill-rule="evenodd" clip-rule="evenodd" d="M21.0909 100.192H167.165C168.891 100.192 170.29 101.593 170.29 103.323V196.47H17.9663V103.323C17.9663 101.593 19.3652 100.192 21.0909 100.192Z" fill="url(#paint7_linear)"/>
<path opacity="0.965588" fill-rule="evenodd" clip-rule="evenodd" d="M69.5219 147.156H119.515C120.809 147.156 121.859 148.208 121.859 149.505V169.073C121.859 174.693 117.312 179.249 111.704 179.249H77.3333C71.7249 179.249 67.1785 174.693 67.1785 169.073V149.505C67.1785 148.208 68.2276 147.156 69.5219 147.156ZM81.2391 157.332V166.45C81.2391 167.747 82.2882 168.799 83.5825 168.799C84.8767 168.799 85.9259 167.747 85.9259 166.45V157.332C85.9259 156.035 84.8767 154.984 83.5825 154.984C82.2882 154.984 81.2391 156.035 81.2391 157.332ZM92.1751 156.549V168.799C92.1751 170.095 93.2243 171.147 94.5185 171.147C95.8128 171.147 96.862 170.095 96.862 168.799V156.549C96.862 155.253 95.8128 154.201 94.5185 154.201C93.2243 154.201 92.1751 155.253 92.1751 156.549ZM103.111 158.115V167.233C103.111 168.53 104.16 169.581 105.455 169.581C106.749 169.581 107.798 168.53 107.798 167.233V158.115C107.798 156.818 106.749 155.767 105.455 155.767C104.16 155.767 103.111 156.818 103.111 158.115Z" fill="url(#paint8_linear)"/>
<path opacity="0.965588" fill-rule="evenodd" clip-rule="evenodd" d="M118.169 146.374H124.983C126.277 146.374 127.327 147.425 127.327 148.722C127.327 150.019 126.277 151.07 124.983 151.07H64.835C63.5408 151.07 62.4916 150.019 62.4916 148.722C62.4916 147.425 63.5408 146.374 64.835 146.374H71.4111L87.1738 128.239C87.9644 127.212 89.436 127.022 90.4607 127.814C91.4855 128.606 91.6753 130.081 90.8848 131.107L77.6154 146.374H111.965L98.6956 131.107C97.905 130.081 98.0949 128.606 99.1197 127.814C100.144 127.022 101.616 127.212 102.407 128.239L118.169 146.374Z" fill="url(#paint9_linear)"/>
<path opacity="0.965588" fill-rule="evenodd" clip-rule="evenodd" d="M29.6835 116.629H39.8384C40.7012 116.629 41.4007 117.33 41.4007 118.195V119.217C41.4007 120.081 40.7012 120.782 39.8384 120.782H29.6835C28.8207 120.782 28.1212 120.081 28.1212 119.217V118.195C28.1212 117.33 28.8207 116.629 29.6835 116.629ZM29.6835 124.457H55.4613C56.3241 124.457 57.0236 125.158 57.0236 126.022V127.044C57.0236 127.909 56.3241 128.61 55.4613 128.61H29.6835C28.8207 128.61 28.1212 127.909 28.1212 127.044V126.022C28.1212 125.158 28.8207 124.457 29.6835 124.457ZM29.6835 132.284H55.4613C56.3241 132.284 57.0236 132.985 57.0236 133.85V134.872C57.0236 135.736 56.3241 136.437 55.4613 136.437H29.6835C28.8207 136.437 28.1212 135.736 28.1212 134.872V133.85C28.1212 132.985 28.8207 132.284 29.6835 132.284Z" fill="url(#paint10_linear)"/>
<path fill-rule="evenodd" clip-rule="evenodd" d="M0 196.47H189.818C189.818 201.657 185.621 205.863 180.444 205.863H9.37374C4.19676 205.863 0 201.657 0 196.47Z" fill="url(#paint11_linear)"/>
<path d="M63.2727 196.47H120.296C120.296 198.631 118.548 200.383 116.391 200.383H67.1785C65.0214 200.383 63.2727 198.631 63.2727 196.47Z" fill="#2ABDFB"/>

</svg>
