<svg width="344" height="325" viewBox="0 0 344 325" fill="none" xmlns="http://www.w3.org/2000/svg">
<path d="M254.5 37.4001C230 8.50005 191.5 -0.49995 155 0.90005C119.4 2.30005 74.1 10.3001 48.4 37.1001C40.8 45.2001 35 55.0001 29.9 65.0001C10.1 104 -1.39999 151.5 2.30001 195.5C6.50001 245.9 33.8 275.8 81.8 288.4C116.2 297.4 153.4 297 188.7 296.2C213.1 295.7 237.2 293.6 261.2 289C271.9 287 282.7 284.9 292.8 280.7C332.5 264 348 215.4 341.9 175.9C337.4 147 324.3 119.3 304.1 98.1001C296 89.6001 286.9 82.1001 279.4 73.0001C270.3 61.7001 263.9 48.5001 254.5 37.4001Z" fill="#E8EBEE"/>
<path d="M254.9 37C233.4 11.7 200.3 1.30005 168 0.300047C152.3 -0.199953 136.5 1.20005 121 3.80005C105.3 6.40005 89.8 10.6 75.4 17.5C60.6 24.6 47.9 34.9 38.7 48.6C33.5 56.4 29.2 64.8 25.2 73.3C21.3 81.6001 17.9 90.2 14.9 98.8C8.70001 116.8 4.4 135.4 2.3 154.3C0.400003 171.8 0.200004 189.7 3 207.1C5.2 220.5 9.6 233.6 16.7 245.2C23.3 255.9 32.2 264.9 42.5 271.9C54.1 279.8 67.4 285.1 80.9 288.7C100.1 293.8 119.9 295.9 139.7 296.6C159.9 297.4 180.2 297.1 200.4 296.3C221.4 295.4 242.3 293.1 263 289.1C272.9 287.2 282.8 285.2 292.2 281.4C298.6 278.7 304.7 275.2 310.1 270.8C321.1 262 329.3 250.1 334.8 237.1C340.3 224 343.2 209.8 343.5 195.6C343.9 179.5 340.7 163.5 335.3 148.4C329.4 131.9 320.6 116.4 309.2 103C302.9 95.6 295.7 89.2 288.8 82.4C281.7 75.4 275.7 67.7 270.2 59.3C265.5 51.8 260.8 44 254.9 37C254.4 36.5 253.7 37.2 254.1 37.8C260.3 45.2 265.2 53.4 270.5 61.4C275.7 69.3 281.5 76.5 288.3 83.2C294.9 89.7 301.8 95.9 307.9 102.9C313.8 109.7 319 117 323.4 124.8C339.2 152.3 346.7 185.2 340.1 216.5C334.3 244.6 317.3 270.8 289.6 281.2C280.4 284.7 270.6 286.5 260.9 288.4C250.7 290.3 240.5 291.8 230.2 293C210.1 295.2 189.9 295.7 169.7 295.9C149.9 296.1 130 295.7 110.4 293.2C93.4 291 76.3 287.4 60.6 280.5C48.8 275.3 37.8 268.2 28.8 258.9C19.9 249.7 13.3 238.6 9.1 226.5C4 212 2.2 196.7 2 181.4C1.8 162.8 4 144.2 8.2 126C12.3 107.9 18.4 90.3 26.2 73.4C33.7 57.3 42.5 41.5 56.6 30.3C68.8 20.5 83.5 14.2 98.4 9.90004C113.6 5.50004 129.4 3.10004 145.2 2.00004C176.7 -0.299956 210 3.30005 236.6 21.8C243.1 26.3 249 31.7 254.2 37.8C254.6 38.4 255.4 37.6 254.9 37Z" fill="#E8EBEE"/>
<path d="M295.5 179.1C293.8 177.3 292.2 175.5 290.5 173.8C277.4 187 265.3 201.3 254.3 216.3C258.7 216.8 263 217.1 267.4 217C267.9 220.2 269.3 257.1 268.8 257.1C281.9 257.4 294.9 257.4 308 257.2C307.6 243.5 306.7 229.9 308.1 216.1C312.8 216.9 318.4 217.4 323.1 216.8C318.7 210.8 315 204.2 310.9 198.1C306.3 191.3 301 185.1 295.5 179.1Z" fill="#CED4DA"/>
<path d="M295.9 178.7C294.2 176.9 292.6 175.1 290.9 173.4C290.7 173.2 290.3 173.2 290.1 173.4C279.8 183.8 270.2 194.7 261.2 206.2C258.7 209.4 256.2 212.7 253.8 216C253.5 216.4 253.9 216.8 254.3 216.8C258.7 217.3 263 217.6 267.4 217.5C267.2 217.4 267.1 217.2 266.9 217.1C266.9 216.9 266.9 217.2 266.9 217.3C266.9 217.4 266.9 217.6 266.9 217.7C266.9 218.1 267 218.5 267 218.8C267.1 219.9 267.1 221 267.2 222.2C267.4 225.4 267.5 228.6 267.6 231.7C267.9 238.5 268.1 245.3 268.3 252.1C268.3 253.2 268.3 254.4 268.3 255.5C268.3 255.8 268.3 256.2 268.3 256.5C268.3 256.6 268.3 256.8 268.3 256.7C268.3 256.6 268.3 256.7 268.3 256.7C268.2 256.7 268.7 256.4 268.6 256.4C268 256.5 268.2 257.5 268.7 257.5C278.9 257.7 289.1 257.8 299.2 257.7C302.1 257.7 305 257.7 307.9 257.6C308.2 257.6 308.5 257.4 308.4 257.1C308.1 246.5 307.5 235.8 307.9 225.2C308 222.1 308.2 219.1 308.5 216C308.3 216.2 308 216.3 307.8 216.5C312.8 217.3 317.9 217.9 323 217.2C323.4 217.2 323.7 216.8 323.5 216.4C319.9 211.4 316.7 206.1 313.4 201C310.1 195.9 306.6 191 302.7 186.4C300.5 183.8 298.2 181.3 295.9 178.7C295.4 178.2 294.7 179 295.1 179.5C299.2 183.9 303.2 188.5 306.9 193.4C310.5 198.2 313.6 203.4 316.9 208.5C318.7 211.4 320.6 214.3 322.7 217.1C322.9 216.8 323 216.6 323.2 216.3C318.3 216.9 313.2 216.4 308.3 215.6C307.9 215.5 307.6 215.7 307.6 216.1C306.5 226.7 306.8 237.4 307.2 248.1C307.3 251.1 307.4 254.2 307.5 257.2C307.7 257 307.9 256.8 308 256.7C297.8 256.8 287.6 256.8 277.5 256.7C274.6 256.7 271.7 256.6 268.9 256.6C268.9 257 269 257.3 269 257.7C269.5 257.6 269.5 256.8 269.5 256.4C269.5 255.5 269.5 254.7 269.5 253.8C269.5 250.8 269.4 247.8 269.3 244.8C269.1 237.7 268.8 230.5 268.4 223.4C268.3 221.3 268.3 219.1 268 217C268 216.8 267.7 216.6 267.5 216.6C263.1 216.7 258.7 216.4 254.4 215.9C254.6 216.2 254.7 216.4 254.9 216.7C263.5 205 272.7 193.8 282.6 183.2C285.4 180.2 288.2 177.2 291.1 174.3C290.8 174.3 290.6 174.3 290.3 174.3C292 176.1 293.6 177.8 295.3 179.6C295.6 180 296.3 179.3 295.9 178.7Z" fill="#CED4DA"/>
<path d="M51.5 116.7C49.8 114.9 48.2 113.1 46.5 111.4C33.4 124.6 21.3 138.9 10.3 153.9C14.7 154.4 19 154.7 23.4 154.6C23.9 157.8 25.3 194.7 24.8 194.7C37.9 195 50.9 195 64 194.8C63.6 181.1 62.7 167.5 64.1 153.7C68.8 154.5 74.4 155 79.1 154.4C74.7 148.4 71 141.8 66.9 135.7C62.3 128.9 57.1 122.7 51.5 116.7Z" fill="#CED4DA"/>
<path d="M51.9 116.3C50.2 114.5 48.6 112.7 46.9 111C46.7 110.8 46.3 110.8 46.1 111C35.8 121.4 26.2 132.3 17.2 143.8C14.7 147 12.2 150.3 9.8 153.6C9.5 154 9.9 154.4 10.3 154.4C14.7 154.9 19 155.2 23.4 155.1C23.2 155 23.1 154.8 22.9 154.7C22.9 154.5 22.9 154.8 22.9 154.9C22.9 155 22.9 155.2 22.9 155.3C22.9 155.7 23 156.1 23 156.4C23.1 157.5 23.1 158.6 23.2 159.8C23.4 163 23.5 166.2 23.6 169.3C23.9 176.1 24.1 182.9 24.3 189.7C24.3 190.8 24.3 192 24.3 193.1C24.3 193.4 24.3 193.8 24.3 194.1C24.3 194.2 24.3 194.4 24.3 194.3C24.3 194.2 24.3 194.3 24.3 194.3C24.2 194.3 24.7 194 24.6 194C24 194.1 24.2 195.1 24.7 195.1C34.9 195.3 45.1 195.4 55.2 195.3C58.1 195.3 61 195.3 63.9 195.2C64.2 195.2 64.5 195 64.4 194.7C64.1 184.1 63.5 173.4 63.9 162.8C64 159.7 64.2 156.7 64.5 153.6C64.3 153.8 64 153.9 63.8 154.1C68.8 154.9 73.9 155.5 79 154.8C79.4 154.8 79.7 154.4 79.5 154C75.9 149 72.7 143.7 69.4 138.6C66.1 133.5 62.6 128.6 58.7 124C56.5 121.4 54.2 118.9 51.9 116.3C51.4 115.8 50.7 116.6 51.1 117.1C55.2 121.5 59.2 126.1 62.9 131C66.5 135.8 69.6 141 72.9 146.1C74.7 149 76.6 151.9 78.7 154.7C78.9 154.4 79 154.2 79.2 153.9C74.3 154.5 69.2 154 64.3 153.2C63.9 153.1 63.6 153.3 63.6 153.7C62.5 164.3 62.8 175 63.2 185.7C63.3 188.7 63.4 191.8 63.5 194.8C63.7 194.6 63.9 194.4 64 194.3C53.8 194.4 43.6 194.4 33.5 194.3C30.6 194.3 27.7 194.2 24.9 194.2C24.9 194.6 25 194.9 25 195.3C25.5 195.2 25.5 194.4 25.5 194C25.5 193.1 25.5 192.3 25.5 191.4C25.5 188.4 25.4 185.4 25.3 182.4C25.1 175.3 24.8 168.1 24.4 161C24.3 158.9 24.3 156.7 24 154.6C24 154.4 23.7 154.2 23.5 154.2C19.1 154.3 14.7 154 10.4 153.5C10.6 153.8 10.7 154 10.9 154.3C19.5 142.6 28.7 131.4 38.6 120.8C41.4 117.8 44.2 114.8 47.1 111.9C46.8 111.9 46.6 111.9 46.3 111.9C48 113.7 49.6 115.4 51.3 117.2C51.6 117.6 52.3 116.9 51.9 116.3Z" fill="#CED4DA"/>
<path d="M214.1 246C212.4 244.2 210.8 242.4 209.1 240.7C196 253.9 183.9 268.2 172.9 283.2C177.3 283.7 181.6 284 186 283.9C186.5 287.1 187.9 324 187.4 324C200.5 324.3 213.5 324.3 226.6 324.1C226.2 310.4 225.3 296.8 226.7 283C231.4 283.8 237 284.3 241.7 283.7C237.3 277.7 233.6 271.1 229.5 265C224.9 258.2 219.7 252 214.1 246Z" fill="#CED4DA"/>
<path d="M214.5 245.6C212.8 243.8 211.2 242 209.5 240.3C209.3 240.1 208.9 240.1 208.7 240.3C198.4 250.7 188.8 261.6 179.8 273.1C177.3 276.3 174.8 279.6 172.4 282.9C172.1 283.3 172.5 283.7 172.9 283.7C177.3 284.2 181.6 284.5 186 284.4C185.8 284.3 185.7 284.1 185.5 284C185.5 283.8 185.5 284.1 185.5 284.2C185.5 284.3 185.5 284.5 185.5 284.6C185.5 285 185.6 285.4 185.6 285.7C185.7 286.8 185.7 287.9 185.8 289.1C186 292.3 186.1 295.5 186.2 298.6C186.5 305.4 186.7 312.2 186.9 319C186.9 320.1 186.9 321.3 186.9 322.4C186.9 322.7 186.9 323.1 186.9 323.4C186.9 323.5 186.9 323.7 186.9 323.6C186.9 323.5 186.9 323.6 186.9 323.6C186.8 323.6 187.3 323.3 187.2 323.3C186.6 323.4 186.8 324.4 187.3 324.4C197.5 324.6 207.7 324.7 217.8 324.6C220.7 324.6 223.6 324.6 226.5 324.5C226.8 324.5 227.1 324.3 227 324C226.7 313.4 226.1 302.7 226.5 292.1C226.6 289 226.8 286 227.1 282.9C226.9 283.1 226.6 283.2 226.4 283.4C231.4 284.2 236.5 284.8 241.6 284.1C242 284.1 242.3 283.7 242.1 283.3C238.5 278.3 235.3 273 232 267.9C228.7 262.8 225.2 257.9 221.3 253.3C219.1 250.7 216.8 248.1 214.5 245.6C214 245.1 213.3 245.9 213.7 246.4C217.8 250.8 221.8 255.4 225.5 260.3C229.1 265.1 232.2 270.3 235.5 275.4C237.3 278.3 239.2 281.2 241.3 284C241.5 283.7 241.6 283.5 241.8 283.2C236.9 283.8 231.8 283.3 226.9 282.5C226.5 282.4 226.2 282.6 226.2 283C225.1 293.6 225.4 304.3 225.8 315C225.9 318 226 321.1 226.1 324.1C226.3 323.9 226.5 323.7 226.6 323.6C216.4 323.7 206.2 323.7 196.1 323.6C193.2 323.6 190.3 323.5 187.5 323.5C187.5 323.9 187.6 324.2 187.6 324.6C188.1 324.5 188.1 323.7 188.1 323.3C188.1 322.4 188.1 321.6 188.1 320.7C188.1 317.7 188 314.7 187.9 311.7C187.7 304.6 187.4 297.4 187 290.3C186.9 288.2 186.9 286 186.6 283.9C186.6 283.7 186.3 283.5 186.1 283.5C181.7 283.6 177.3 283.3 173 282.8C173.2 283.1 173.3 283.3 173.5 283.6C182.1 271.9 191.3 260.7 201.2 250.1C204 247.1 206.8 244.1 209.7 241.2C209.4 241.2 209.2 241.2 208.9 241.2C210.6 243 212.2 244.7 213.9 246.5C214.2 246.9 215 246.1 214.5 245.6Z" fill="#CED4DA"/>
<path d="M78.8 185.9C78.9 187.1 79.1 188.3 79.8 189.2C81.1 191 83.7 191.3 86 191.4C103.6 192.2 120.9 190.5 138.5 190.6C160.3 190.7 182.1 190.7 203.9 190.6C229.1 190.6 254.2 190.5 279.4 190.5C291.6 190.5 304 191.2 316.2 190.4C321.4 190.1 336.7 191.5 340.3 189.1C342.8 187.4 343.4 184 343.2 181C340.2 127.5 342.7 72.7 343 19C343 17.4 343 15.8 342 14.5C340.9 13.1 339.1 12.7 337.3 12.5C315.1 9.59998 291.5 11.8 269.1 12C248.6 12.2 228 12.4 207.5 12.7C166.6 13.2 124.7 16.2 83.9 13.6C82 13.5 79.8 13.9 78.9 15.6C78.4 16.5 78.5 17.6 78.5 18.6C79.4 49 78.1 79.8 77.8 110.4C77.6 124.6 77.5 138.8 77.6 153.1C77.7 163.8 78 174.2 78.6 185C78.8 185.3 78.8 185.6 78.8 185.9Z" fill="#E33F5A"/>
<path d="M78.3 185.9C78.6 188.6 79.7 190.7 82.5 191.5C85.5 192.4 89 192.1 92.1 192.2C99.6 192.3 107.2 192.1 114.7 191.8C129.7 191.2 144.7 191.2 159.7 191.2C190 191.2 220.4 191.2 250.7 191.1C265.8 191.1 280.9 191 296.1 191.2C303.1 191.3 310.1 191.1 317.1 190.9C321.4 190.8 325.7 191.1 330 191.1C332.2 191.1 334.5 191 336.7 190.7C338.1 190.5 339.5 190.3 340.7 189.5C342.8 188.2 343.6 185.6 343.8 183.2C344.1 179.9 343.6 176.5 343.4 173.2C342.7 158.1 342.4 143.1 342.4 128C342.3 98.1001 343.1 68.1001 343.5 38.2001C343.5 34.4001 343.6 30.6001 343.6 26.8001C343.6 25.1001 343.6 23.3001 343.6 21.6001C343.6 20.0001 343.7 18.3001 343.5 16.7001C343.1 13.9001 341 12.6001 338.3 12.1001C335 11.5001 331.6 11.3001 328.2 11.0001C313.6 9.90007 298.9 10.6001 284.3 11.1001C254.3 12.1001 224.2 11.6001 194.2 12.3001C164.2 13.0001 134.2 14.5001 104.2 13.8001C100.5 13.7001 96.8 13.6001 93.1 13.4001C91.3 13.3001 89.5 13.2001 87.7 13.1001C86 13.0001 84.3 12.7001 82.6 12.9001C80.1 13.2001 78.3 14.5001 78.1 17.1001C78 18.7001 78.2 20.4001 78.2 22.1001C78.2 24.0001 78.3 25.9001 78.3 27.8001C78.5 42.9001 78.3 58.1001 78 73.2001C77.4 103.4 76.6 133.7 77.3 163.9C77.5 171.3 77.7 178.6 78.3 185.9C78.3 186.6 79.4 186.6 79.4 185.9C78.4 171.3 78.3 156.6 78.3 142C78.3 127.3 78.4 112.5 78.7 97.8001C79 83.1001 79.3 68.4001 79.5 53.7001C79.6 46.4001 79.6 39.0001 79.5 31.7001C79.5 28.0001 79.4 24.4001 79.3 20.7001C79.3 19.1001 78.8 17.0001 79.8 15.6001C80.7 14.2001 82.7 14.1001 84.2 14.1001C91.4 14.4001 98.6 14.9001 105.9 15.0001C113.2 15.2001 120.5 15.2001 127.7 15.1001C142.3 15.0001 156.9 14.5001 171.5 14.1001C200.9 13.2001 230.4 12.9001 259.8 12.6001C274.1 12.5001 288.4 11.9001 302.7 11.6001C309.8 11.5001 316.9 11.4001 324 11.8001C327.5 12.0001 331 12.2001 334.5 12.6001C337.8 13.0001 342.1 13.0001 342.5 17.2001C342.8 20.7001 342.5 24.3001 342.5 27.7001C342.5 31.3001 342.4 35.0001 342.4 38.6001C342.3 45.9001 342.2 53.2001 342.1 60.5001C341.8 75.1001 341.6 89.8001 341.4 104.4C341.3 119 341.3 133.6 341.6 148.2C341.7 155.4 342 162.6 342.3 169.7C342.5 173.3 342.6 176.9 342.8 180.6C342.9 183.3 342.7 186.9 340.1 188.5C338.8 189.3 337 189.5 335.5 189.6C333.3 189.8 331.1 189.8 328.9 189.8C324.8 189.8 320.8 189.5 316.7 189.6C302.3 190.3 287.9 189.7 273.6 189.7C244.1 189.8 214.7 189.8 185.2 189.8C170.4 189.8 155.7 189.8 140.9 189.8C126.3 189.8 111.8 190.8 97.2 190.8C93.7 190.8 90.2 190.8 86.8 190.6C85.3 190.5 83.7 190.5 82.3 189.9C80.4 189.1 79.8 187.5 79.6 185.6C79.3 185.2 78.2 185.2 78.3 185.9Z" fill="#E33F5A"/>
<path d="M108.7 26.9C108.7 46.6 108.7 66.4 108.7 86.1C108.7 105.7 108.7 125.4 108.7 145C108.7 156.1 108.7 167.1 108.7 178.2C108.7 178.9 109.8 178.9 109.8 178.2C109.8 158.5 109.8 138.7 109.8 119C109.8 99.4 109.8 79.7 109.8 60.1C109.8 49 109.8 38 109.8 26.9C109.8 26.2 108.7 26.2 108.7 26.9Z" fill="white"/>
<path d="M159.1 26.9C159.1 46.6 159.1 66.4 159.1 86.1C159.1 105.7 159.1 125.4 159.1 145C159.1 156.1 159.1 167.1 159.1 178.2C159.1 178.9 160.2 178.9 160.2 178.2C160.2 158.5 160.2 138.7 160.2 119C160.2 99.4 160.2 79.7 160.2 60.1C160.2 49 160.2 38 160.2 26.9C160.2 26.2 159.1 26.2 159.1 26.9Z" fill="white"/>
<path d="M209.6 26.9C209.6 46.6 209.6 66.4 209.6 86.1C209.6 105.7 209.6 125.4 209.6 145C209.6 156.1 209.6 167.1 209.6 178.2C209.6 178.9 210.7 178.9 210.7 178.2C210.7 158.5 210.7 138.7 210.7 119C210.7 99.4 210.7 79.7 210.7 60.1C210.7 49 210.7 38 210.7 26.9C210.7 26.2 209.6 26.2 209.6 26.9Z" fill="white"/>
<path d="M260.1 26.9C260.1 46.6 260.1 66.4 260.1 86.1C260.1 105.7 260.1 125.4 260.1 145C260.1 156.1 260.1 167.1 260.1 178.2C260.1 178.9 261.2 178.9 261.2 178.2C261.2 158.5 261.2 138.7 261.2 119C261.2 99.4 261.2 79.7 261.2 60.1C261.2 49 261.2 38 261.2 26.9C261.2 26.2 260.1 26.2 260.1 26.9Z" fill="white"/>
<path d="M310.5 26.9C310.5 46.6 310.5 66.4 310.5 86.1C310.5 105.7 310.5 125.4 310.5 145C310.5 156.1 310.5 167.1 310.5 178.2C310.5 178.9 311.6 178.9 311.6 178.2C311.6 158.5 311.6 138.7 311.6 119C311.6 99.4 311.6 79.7 311.6 60.1C311.6 49 311.6 38 311.6 26.9C311.6 26.2 310.5 26.2 310.5 26.9Z" fill="white"/>
<path d="M114.8 134.7C114.8 144.8 114.7 144.9 114.8 152.9C114.8 153.9 113.9 154.6 112.6 154.7C110.6 154.8 108.1 154.9 105.9 154.9C104.7 154.9 103.6 154.2 103.6 153.2C103.3 145.2 103.3 144.9 103.3 134.7C103.3 133.7 104.3 132.9 105.5 132.9H112.4C113.8 132.9 114.8 133.7 114.8 134.7Z" fill="#F1A51E"/>
<path d="M114.3 134.7C114.3 138.7 114.3 142.8 114.2 146.8C114.2 148.8 114.3 150.7 114.2 152.7C114.2 154.2 112.6 154.1 111.5 154.2C110 154.2 108.5 154.3 107 154.4C106.3 154.4 105.6 154.5 105 154.3C104.3 154 104.2 153.6 104.1 152.9C104.1 151.8 104 150.7 104 149.6C103.9 148 103.9 146.4 103.9 144.8C103.9 142.9 103.9 141.1 103.9 139.2C103.9 137.8 103.9 136.4 103.9 135C103.9 134 104.8 133.7 105.7 133.6C107.2 133.6 108.7 133.6 110.2 133.6C111.3 133.5 114.2 133 114.3 134.7C114.3 135.4 115.4 135.4 115.4 134.7C115.3 133.5 114.3 132.6 113.2 132.4C112.7 132.3 112.2 132.4 111.7 132.4C110 132.4 108.4 132.4 106.7 132.4C106.2 132.4 105.7 132.4 105.2 132.4C104 132.6 103 133.4 103 134.7C102.9 137.4 103 140.1 103 142.7C103 144.5 103 146.3 103.1 148.1C103.1 149.2 103.2 150.3 103.2 151.4C103.2 152.6 103.1 153.9 104.1 154.7C105.2 155.6 106.8 155.4 108.1 155.3C109.7 155.2 111.4 155.3 113 155.1C114.1 155 115.3 154.3 115.5 153.1C115.7 151.9 115.5 150.6 115.5 149.4C115.5 144.5 115.5 139.5 115.5 134.6C115.3 134 114.3 134 114.3 134.7Z" fill="#F1A51E"/>
<path d="M165.3 84.2999C165.3 92.0998 165.3 99.8999 165.2 107.7C165.2 108.3 165.1 109 164.7 109.4C164.4 109.6 164 109.7 163.6 109.7C161 109.9 158.3 109.9 155.7 109.8C155.4 109.8 155 109.8 154.8 109.5C154.5 109.2 154.4 108.8 154.4 108.3C154.3 106 154.2 103.8 154.2 101.5C154.1 95.6998 154 89.8999 154 84.0999C154 80.7999 154 77.5998 154 74.2999C154 69.7999 153.3 64.7998 154.1 60.3998C154.1 60.1998 154.2 59.9998 154.3 59.8998C154.4 59.7998 154.6 59.7999 154.8 59.7999C157.9 59.7999 161.1 59.5999 164.2 59.5999C164.4 59.5999 164.5 59.5998 164.7 59.6998C164.9 59.7998 164.9 60.0999 165 60.2999C165.1 61.2999 165.4 78.8999 165.3 84.2999Z" fill="#F1A51E"/>
<path d="M164.8 84.3C164.8 89.1 164.8 93.9 164.8 98.7C164.8 101.1 164.8 103.5 164.7 105.8C164.7 106.4 164.7 107 164.7 107.5C164.7 107.9 164.7 108.5 164.4 108.8C164 109.1 163.3 109 162.8 109.1C162.2 109.1 161.6 109.2 161 109.2C159.8 109.2 158.6 109.2 157.5 109.2C156.9 109.2 156.4 109.2 155.8 109.1C155.1 109 155 108.7 155 108.1C154.8 105.7 154.8 103.4 154.8 101C154.7 96.2 154.7 91.2999 154.6 86.5C154.6 81.7999 154.7 77.0999 154.5 72.3999C154.4 70.1999 154.3 68 154.3 65.8C154.3 64.7 154.3 63.5999 154.4 62.4999C154.4 61.9999 154.5 61.3999 154.6 60.8999C154.6 60.7999 154.6 60.3 154.7 60.3C154.9 60.1 155.5 60.3 155.7 60.3C158.1 60.3 160.5 60.1 162.8 60.1C163.3 60.1 164 59.8999 164.4 60.1999C164.5 60.1999 164.4 60.4 164.4 60.3V60.3999C164.4 60.5999 164.4 60.9 164.4 61.1C164.5 63.1 164.5 65.1 164.6 67.1C164.7 72.4 164.8 77.7 164.8 83C164.8 83.4 164.8 83.8 164.8 84.3C164.8 85 165.9 85 165.9 84.3C165.9 78.8 165.8 73.1999 165.7 67.6999C165.7 65.4999 165.6 63.3 165.5 61.1C165.5 60.4 165.5 59.4999 164.8 59.1999C164.4 58.9999 163.9 59.1 163.4 59.1C162.7 59.1 162 59.0999 161.2 59.1999C159.9 59.1999 158.7 59.3 157.4 59.3C156.8 59.3 156.1 59.3 155.5 59.3C155 59.3 154.3 59.1999 153.9 59.4999C153.2 59.9999 153.3 61.4999 153.2 62.1999C153 64.5999 153.1 67 153.2 69.3C153.4 74.3 153.4 79.2999 153.4 84.1999C153.4 89.3999 153.5 94.6999 153.6 99.8999C153.6 102.5 153.6 105 153.8 107.6C153.8 108.4 153.8 109.5 154.7 110C155.1 110.2 155.6 110.2 156 110.2C156.7 110.2 157.3 110.3 158 110.3C159.3 110.3 160.5 110.3 161.8 110.3C162.8 110.3 164.1 110.4 165 109.9C165.8 109.4 165.9 108.5 165.9 107.7C165.9 106.4 165.9 105.1 165.9 103.8C165.9 98.5999 166 93.4 166 88.2C166 86.9 166 85.6 166 84.3C165.9 83.6 164.8 83.6 164.8 84.3Z" fill="#F1A51E"/>
<path d="M215.8 86.7999C215.8 107.4 215.7 107.5 215.8 123.8C215.8 125.7 214.9 127.3 213.6 127.4C211.6 127.5 209.1 127.7 206.9 127.8C205.7 127.9 204.6 126.3 204.6 124.3C204.3 108.1 204.3 107.4 204.3 86.7999C204.3 84.7999 205.3 83.2 206.5 83.2H213.4C214.8 83.2 215.9 84.8999 215.8 86.7999Z" fill="#F1A51E"/>
<path d="M215.3 86.7999C215.3 93.9999 215.3 101.1 215.3 108.2C215.3 111 215.3 113.7 215.3 116.5C215.3 118.3 215.3 120.1 215.3 121.9C215.3 123.6 215.6 126.7 213.3 126.9C212 127 210.8 127.1 209.5 127.2C208.9 127.2 208.3 127.3 207.7 127.3C207.2 127.3 206.8 127.4 206.4 127.1C205.6 126.4 205.4 125.2 205.4 124.2C205.4 123.1 205.4 122.1 205.3 121C205.2 117.9 205.2 114.7 205.2 111.6C205.1 105.3 205.1 99 205.1 92.6C205.1 91.4 205.1 90.0999 205.1 88.8999C205.1 87.6999 204.9 86.3 205.4 85.2C205.6 84.5 206.1 83.8 206.9 83.8C207.2 83.8 207.6 83.8 207.9 83.8C209.2 83.8 210.5 83.8 211.8 83.8C212.5 83.8 213.7 83.6 214.4 84C215.1 84.6 215.3 85.8999 215.3 86.7999C215.3 87.4999 216.4 87.4999 216.4 86.7999C216.4 85.0999 215.6 82.8 213.6 82.7C212.6 82.7 211.6 82.7 210.6 82.7C209.4 82.7 208.2 82.7 206.9 82.7C205.3 82.7 204.4 84 204.1 85.5C203.8 86.8 204 88.2 204 89.6C204 90.9 204 92.1999 204 93.3999C204 95.4999 204 97.6999 204 99.7999C204 102.9 204 105.9 204 109C204 112.1 204.1 115.1 204.1 118.2C204.1 120.3 204.1 122.5 204.2 124.6C204.3 125.6 204.6 126.7 205.3 127.5C206 128.3 206.7 128.4 207.7 128.3C209 128.2 210.4 128.1 211.7 128C212.7 127.9 213.9 128.1 214.8 127.5C216.7 126.3 216.4 123.6 216.4 121.6C216.4 118.2 216.4 114.7 216.4 111.3C216.4 104.5 216.4 97.6999 216.5 90.7999C216.5 89.3999 216.5 88 216.5 86.6C216.4 86.1 215.3 86.0999 215.3 86.7999Z" fill="#F1A51E"/>
<path d="M266.3 59.6002C266.3 69.1002 266.2 69.2001 266.3 76.7001C266.3 77.6001 265.4 78.3001 264.1 78.4001C262.1 78.5001 259.6 78.6002 257.4 78.6002C256.2 78.6002 255.1 77.9002 255.1 77.0002C254.8 69.5002 254.8 69.2002 254.8 59.6002C254.8 58.7002 255.8 57.9001 257 57.9001H263.9C265.3 57.9001 266.3 58.7002 266.3 59.6002Z" fill="#F1A51E"/>
<path d="M265.8 59.6002C265.8 63.4002 265.7 67.3002 265.7 71.1002C265.7 71.9002 265.7 72.8002 265.7 73.6002C265.7 74.6002 265.8 75.7001 265.7 76.7001C265.5 78.1001 263.5 77.8001 262.5 77.9001C261 77.9001 259.6 78.0002 258.1 78.0002C257.5 78.0002 256.9 78.1002 256.4 77.8002C255.8 77.5002 255.7 77.1001 255.6 76.4001C255.6 75.4001 255.5 74.4002 255.5 73.3002C255.4 71.8002 255.4 70.2001 255.4 68.7001C255.4 66.8001 255.4 65.0002 255.4 63.1002C255.4 62.5002 255.4 61.8001 255.4 61.2001C255.4 60.6001 255.2 59.7002 255.5 59.1002C255.9 58.5002 256.7 58.4001 257.3 58.4001C258.8 58.4001 260.4 58.4001 261.9 58.4001C263 58.5001 265.7 58.1002 265.8 59.6002C265.8 60.3002 266.9 60.3002 266.9 59.6002C266.8 57.7002 264.9 57.4001 263.3 57.4001C261.7 57.4001 260 57.4001 258.4 57.4001C257 57.4001 255 57.4002 254.5 59.1002C254.3 59.7002 254.4 60.5001 254.4 61.2001C254.4 62.0001 254.4 62.7002 254.4 63.5002C254.4 64.6002 254.4 65.8001 254.4 66.9001C254.4 68.6001 254.4 70.3002 254.5 72.1002C254.5 73.2002 254.6 74.2002 254.6 75.3002C254.6 76.4002 254.5 77.7002 255.4 78.5002C256.5 79.4002 257.9 79.2001 259.2 79.2001C260.8 79.2001 262.4 79.1002 264 79.0002C265.1 79.0002 266.4 78.6001 266.8 77.4001C267 76.9001 266.9 76.3002 266.9 75.8002C266.9 75.2002 266.9 74.5001 266.9 73.9001C266.9 69.2001 266.9 64.5001 266.9 59.7001C266.9 58.9001 265.8 58.9002 265.8 59.6002Z" fill="#F1A51E"/>
<path d="M316.8 32.3001C316.8 36.1001 316.7 36.1 316.8 39C316.8 39.4 315.9 39.6 314.6 39.7C312.6 39.7 310.1 39.8001 307.9 39.8001C306.7 39.8001 305.6 39.5 305.6 39.2C305.3 36.2 305.3 36.1 305.3 32.4C305.3 32 306.3 31.7 307.5 31.7H314.4C315.8 31.6 316.8 31.9001 316.8 32.3001Z" fill="#F1A51E"/>
<path d="M316.2 32.3C316.2 33.6 316.2 34.8 316.2 36.1C316.2 36.6 316.2 37 316.2 37.5C316.2 37.8 316.2 38.1 316.2 38.4C316.2 38.6 316.2 38.7 316.2 38.9C316.2 39.2 316.1 38.9 316.3 38.9L316.2 39C315.9 39 315.6 39.2 315.3 39.2C314.9 39.2 314.4 39.2 313.9 39.2C313 39.2 312.1 39.2 311.2 39.2C310.3 39.2 309.4 39.2 308.5 39.2C308.1 39.2 307.6 39.2 307.2 39.2C307 39.2 306.4 39.1 306.2 39C306.2 39 306.2 38.8 306.2 38.7C306.2 38.5 306.2 38.4 306.2 38.2C306.2 37.9 306.1 37.6 306.1 37.3C306.1 36.8 306 36.4 306 35.9C306 35.3 306 34.8 306 34.2C306 33.9 306 33.5 306 33.2C306 33 305.9 32.7 306 32.5C306 32.5 305.9 32.5 306 32.5C306 32.5 306.1 32.4 306.2 32.4C306.9 32.1 307.7 32.2 308.5 32.2C309.4 32.2 310.2 32.2 311.1 32.2C312.1 32.2 313.1 32.2 314 32.2C314.2 32.2 314.4 32.2 314.7 32.2C315 32.2 315.3 32.2 315.6 32.2C315.8 32.2 316.1 32.3 316.3 32.3C316.4 32.3 316.4 32.3 316.5 32.4C316.6 32.5 316.6 32.5 316.5 32.4C316.6 33.1 317.7 32.8 317.5 32.1C317.3 31 315.3 31 314.6 31C313.7 31 312.9 31 312 31C310.9 31 309.9 31 308.8 31C307.9 31 307 31 306.1 31.2C305.3 31.4 305 31.8 305 32.6C305 33.4 305 34.2 305 35C305 36.2 305.1 37.4 305.2 38.7C305.3 39.5 305.6 39.8 306.3 40C307.3 40.3 308.3 40.2 309.3 40.2C310.3 40.2 311.4 40.2 312.4 40.2C313.4 40.2 314.4 40.2 315.4 40.1C316 40 317.1 39.9 317.4 39.1C317.5 38.7 317.4 38.2 317.4 37.9C317.4 37.6 317.4 37.2 317.4 36.9C317.4 35.3 317.4 33.8 317.5 32.2C317.3 31.6 316.2 31.6 316.2 32.3Z" fill="#F1A51E"/>
<path d="M109.5 170.1C122 157 135.2 144.5 148.9 132.5C152.7 129.1 156.6 125.8 160.5 122.4C160.3 122.4 160.1 122.5 160 122.5C162.1 123.2 164.1 124.2 166.1 125.1C169.7 126.7 173.3 128.4 176.8 130C185 133.8 193.1 137.6 201.3 141.2C204.3 142.5 207.3 143.9 210.4 144.9C210.6 145 210.8 144.9 210.9 144.8C224.7 131.6 237.9 117.8 251.5 104.5C258.2 97.9001 265.1 91.5001 272.3 85.3001C278.1 80.3001 284.1 75.6001 290 70.8001C297.5 64.8001 305 58.6001 312.3 52.3001C312.8 51.8001 312.1 51.1001 311.5 51.5001C299.2 62.2001 286.2 72.1001 273.8 82.6001C266.7 88.5001 259.9 94.7001 253.3 101.2C246.5 107.9 239.7 114.6 233 121.4C225.4 129 217.8 136.6 210 144.1C210.2 144.1 210.4 144 210.5 144C205.4 142.3 200.5 139.9 195.6 137.7C188.9 134.6 182.2 131.5 175.5 128.4C170.8 126.2 166 123.9 161.2 122C160.9 121.9 160.6 121.8 160.3 121.7C159.5 121.5 159.2 122 158.6 122.5C156.3 124.5 153.9 126.5 151.6 128.5C147 132.5 142.4 136.6 137.9 140.7C127.8 149.9 118 159.4 108.5 169.3C108.2 169.8 109 170.6 109.5 170.1Z" fill="#0F112E"/>
<path d="M315.4 52.0999C315.7 53.6999 314.7 55.3999 313.2 55.9999C311.7 56.4999 309.8 55.6999 309.2 54.1999C309 53.6999 309 53.1999 308.9 52.6999C308.8 48.4999 314.6 48.0999 315.4 52.0999Z" fill="#0F112E"/>
<path d="M314.9 52.3C315.2 53.7 314.2 55.3 312.8 55.6C311.4 55.9 309.9 55 309.6 53.6C309.5 52.9 309.5 52.2 309.7 51.6C309.8 51.2 310.1 50.8 310.5 50.5C310.5 50.5 310.6 50.4 310.7 50.4C310.8 50.3 310.9 50.3 311 50.2C311.1 50.1 311.1 50.2 311.2 50.1C311.3 50.1 311.4 50 311.6 50C312 49.9 312.5 49.9 312.8 50C313.3 50.1 313.7 50.4 314.1 50.7C314.5 51.1 314.8 51.7 314.9 52.3C315 53 316.1 52.7 315.9 52C315.6 50.6 314.7 49.4 313.3 49C312.2 48.6 310.8 48.8 309.8 49.5C308.5 50.5 308.2 52 308.4 53.6C308.7 55.5 310.5 56.9 312.5 56.7C314.8 56.5 316.2 54.2 315.8 52C315.7 51.7 315.4 51.5 315.1 51.6C315 51.7 314.8 52 314.9 52.3Z" fill="#0F112E"/>
<path d="M264.6 93.9C264.9 95.5 263.9 97.2 262.4 97.8C260.9 98.3 259 97.5 258.4 96C258.2 95.5 258.2 95 258.1 94.5C258 90.2 263.8 89.8 264.6 93.9Z" fill="#0F112E"/>
<path d="M264 93.9999C264.3 95.3999 263.3 96.9999 261.9 97.2999C260.5 97.5999 259 96.6999 258.7 95.2999C258.6 94.5999 258.6 93.8999 258.8 93.2999C258.9 92.8999 259.2 92.5 259.6 92.2C259.6 92.2 259.7 92.1 259.8 92.1C259.9 92 260 91.9999 260.1 91.8999C260.2 91.7999 260.2 91.8999 260.3 91.7999C260.4 91.7999 260.5 91.7 260.7 91.7C261.1 91.6 261.6 91.6 261.9 91.7C262.4 91.8 262.8 92.0999 263.2 92.3999C263.7 92.8999 263.9 93.3999 264 93.9999C264.1 94.6999 265.2 94.4 265 93.7C264.7 92.3 263.8 91.1 262.4 90.7C261.3 90.3 259.9 90.5 258.9 91.2C257.6 92.2 257.3 93.6999 257.5 95.2999C257.8 97.1999 259.6 98.5999 261.6 98.3999C263.9 98.1999 265.3 95.9 264.9 93.7C264.8 93.4 264.5 93.1999 264.2 93.2999C264.1 93.4999 264 93.7999 264 93.9999Z" fill="#0F112E"/>
<path d="M213.7 143.8C214 145.4 213 147.1 211.5 147.7C210 148.3 208.1 147.4 207.5 145.9C207.3 145.4 207.3 144.9 207.2 144.4C207.1 140.1 212.9 139.7 213.7 143.8Z" fill="#0F112E"/>
<path d="M213.2 143.9C213.5 145.3 212.5 146.9 211.1 147.2C209.7 147.5 208.2 146.6 207.9 145.2C207.8 144.5 207.8 143.8 208 143.2C208.1 142.8 208.4 142.4 208.8 142.1C208.8 142.1 208.9 142 209 142C209.1 141.9 209.2 141.9 209.3 141.8C209.4 141.7 209.4 141.8 209.5 141.7C209.6 141.7 209.7 141.6 209.9 141.6C210.3 141.5 210.8 141.5 211.1 141.6C211.6 141.7 212 142 212.4 142.3C212.8 142.7 213.1 143.3 213.2 143.9C213.3 144.6 214.4 144.3 214.2 143.6C213.9 142.2 213 141 211.6 140.6C210.5 140.2 209.1 140.4 208.1 141.1C206.8 142.1 206.5 143.6 206.7 145.2C207 147.1 208.8 148.5 210.8 148.3C213.1 148.1 214.5 145.8 214.1 143.6C214 143.3 213.7 143.1 213.4 143.2C213.3 143.3 213.1 143.6 213.2 143.9Z" fill="#0F112E"/>
<path d="M162.9 122.1C163.2 123.7 162.2 125.4 160.7 126C159.2 126.5 157.3 125.7 156.7 124.2C156.5 123.7 156.5 123.2 156.4 122.7C156.3 118.4 162.1 118 162.9 122.1Z" fill="#0F112E"/>
<path d="M162.3 122.2C162.6 123.6 161.6 125.2 160.2 125.5C158.8 125.8 157.3 124.9 157 123.5C156.9 122.8 156.9 122.1 157.1 121.5C157.2 121.1 157.5 120.7 157.9 120.4C157.9 120.4 158 120.3 158.1 120.3C158.2 120.2 158.3 120.2 158.4 120.1C158.5 120 158.5 120.1 158.6 120C158.7 120 158.8 119.9 159 119.9C159.4 119.8 159.9 119.8 160.2 119.9C160.7 120 161.1 120.3 161.5 120.6C162 121 162.2 121.6 162.3 122.2C162.4 122.9 163.5 122.6 163.3 121.9C163 120.5 162.1 119.3 160.7 118.9C159.6 118.5 158.2 118.7 157.2 119.4C155.9 120.4 155.6 121.9 155.8 123.5C156.1 125.4 157.9 126.8 159.9 126.6C162.2 126.4 163.6 124.1 163.2 121.9C163.1 121.6 162.8 121.4 162.5 121.5C162.4 121.6 162.3 121.9 162.3 122.2Z" fill="#0F112E"/>
<path d="M112 168.8C112.3 170.4 111.3 172.1 109.8 172.7C108.3 173.2 106.4 172.4 105.8 170.9C105.6 170.4 105.6 169.9 105.5 169.4C105.4 165.2 111.2 164.8 112 168.8Z" fill="#0F112E"/>
<path d="M111.5 169C111.8 170.4 110.8 172 109.4 172.3C108 172.6 106.5 171.7 106.2 170.3C106.1 169.6 106.1 168.9 106.3 168.3C106.4 167.9 106.7 167.5 107.1 167.2C107.1 167.2 107.2 167.1 107.3 167.1C107.4 167 107.5 167 107.6 166.9C107.7 166.8 107.7 166.9 107.8 166.8C107.9 166.8 108 166.7 108.2 166.7C108.6 166.6 109.1 166.6 109.4 166.7C109.9 166.8 110.3 167.1 110.7 167.4C111.1 167.8 111.4 168.4 111.5 169C111.6 169.7 112.7 169.4 112.5 168.7C112.2 167.3 111.3 166.1 109.9 165.7C108.8 165.3 107.4 165.5 106.4 166.2C105.1 167.2 104.8 168.7 105 170.3C105.3 172.2 107.1 173.6 109.1 173.4C111.4 173.2 112.8 170.9 112.4 168.7C112.3 168.4 112 168.2 111.7 168.3C111.6 168.4 111.4 168.7 111.5 169Z" fill="#0F112E"/>
<path d="M58.6 150.3C49 163.9 39 175.9 32.6 191.5C26.2 207.2 22.8 224.1 22.7 241C30.8 244 39.2 246.3 47.7 248C52.8 238.3 53 226.8 55.8 216.2C59.2 203 66.7 191.8 76.7 182.8C87.3 173.2 93.9 157.2 101.4 144.9C106.6 136.5 112 126.9 110.1 117.2C109.8 115.5 109.1 113.7 107.8 112.5C102.2 107.5 91.6 113.1 86.9 116.5C79.7 121.6 74.2 128.8 69.1 135.8C65.5 140.5 62 145.4 58.6 150.3Z" fill="#3F4098"/>
<path d="M58.1 150C50.9 160.3 43 170.2 37 181.2C30.7 192.8 26.5 205.6 24.2 218.6C22.9 226 22.2 233.5 22.2 241C22.2 241.3 22.4 241.4 22.6 241.5C30.7 244.5 39.1 246.8 47.6 248.5C47.8 248.5 48.1 248.5 48.2 248.3C51.8 241.4 53 233.6 54.3 225.9C55 222.1 55.7 218.3 56.7 214.6C57.7 211.1 59 207.8 60.6 204.5C63.8 198.1 68 192.2 72.9 187.1C75.3 184.6 78 182.4 80.3 179.8C82.6 177.3 84.6 174.5 86.5 171.6C90.4 165.7 93.7 159.3 97.2 153.1C98.9 150.1 100.6 147 102.4 144.1C104.5 140.7 106.5 137.2 108.1 133.5C109.6 130 110.7 126.2 110.9 122.4C111 120.5 110.9 118.5 110.4 116.6C110 115 109.4 113.3 108.1 112.1C103.6 108 96.6 110.3 91.9 112.7C85.8 115.7 80.8 120.2 76.3 125.3C71 131.4 66.3 138.2 61.6 144.8C60.5 146.5 59.3 148.3 58.1 150C57.7 150.6 58.6 151.1 59 150.5C63.8 143.7 68.5 136.9 73.6 130.4C78 124.8 82.9 119.4 88.9 115.6C91.4 114.1 94 112.7 96.7 111.9C99.3 111.1 102.3 110.5 105 111.5C106.4 112 107.7 112.9 108.4 114.2C109.3 115.8 109.6 117.7 109.8 119.5C110.1 123.3 109.3 127.1 108 130.7C105.5 137.7 101.1 143.9 97.4 150.3C94 156.4 90.9 162.5 87.2 168.4C85.4 171.3 83.4 174.2 81.3 176.8C79.2 179.4 76.7 181.6 74.3 184C69.3 188.8 64.9 194.3 61.5 200.4C58 206.6 55.6 213.3 54.2 220.3C52.7 227.7 52 235.3 49.4 242.4C48.8 244.2 48 245.9 47.2 247.5C47.4 247.4 47.6 247.3 47.8 247.3C39.3 245.6 31 243.3 22.8 240.3C22.9 240.5 23.1 240.6 23.2 240.8C23.2 227.4 25.4 214.1 29.4 201.4C31.4 195.2 33.8 189.1 36.8 183.3C39.7 177.8 43 172.6 46.5 167.6C50.5 161.8 54.7 156.2 58.8 150.5C59.4 150 58.5 149.5 58.1 150Z" fill="#3F4098"/>
<path d="M36.6 236.9C41.6 237.8 46.7 238.6 51.8 239.2C51.8 239.2 45.5 269.3 44.9 271.5C44.7 272.3 44.2 273.3 43.4 273.3C42.5 273.3 42.1 272.1 42.1 271.2C41.7 266.7 41.7 262.2 42.3 257.8C41.8 262.1 41 266.3 39.7 270.4C39.2 272 38 274 36.4 273.6C35.1 273.3 34.6 271.7 34.4 270.4C33.8 266.1 33.8 261.7 34.3 257.4C34.1 262.1 33.1 266.8 31.4 271.2C31.2 271.8 30.9 272.5 30.3 272.8C27 274.8 27.5 268.8 27.5 267.5C27.5 263.9 27.5 260.4 27.5 256.8C26.9 260.9 25.6 264.8 23.7 268.5C23.3 269.2 22.9 269.9 22.2 270.4C21.5 270.8 20.6 270.9 20 270.4C19.5 269.9 19.5 269.1 19.5 268.3C19.8 257.1 19.9 245 21.7 234C26.6 235 31.6 236 36.6 236.9Z" fill="#F7AFA5"/>
<path d="M36.5 237.5C41.6 238.4 46.7 239.2 51.8 239.8C51.6 239.6 51.4 239.4 51.3 239.3C51.3 239 51.3 239.4 51.3 239.5C51.2 239.8 51.2 240.1 51.1 240.4C50.9 241.5 50.7 242.5 50.4 243.6C49.7 246.9 49 250.1 48.3 253.4C47.1 259.3 45.9 265.1 44.5 270.9C44.4 271.3 44.3 271.8 44.1 272.2C43.7 272.9 43.1 273.1 42.8 272.3C42.5 271.5 42.5 270.6 42.4 269.8C42.1 265.9 42.2 261.9 42.7 258C42.3 258 42 258 41.6 258C41.3 260.3 41 262.7 40.5 265C40.3 266.1 40 267.3 39.7 268.4C39.4 269.4 39.2 270.4 38.7 271.4C38.4 272.1 37.9 272.9 37.1 273.2C36.3 273.5 35.6 272.9 35.2 272.2C34.8 271.3 34.7 270.3 34.6 269.4C34.5 268.2 34.4 267 34.3 265.8C34.2 263.1 34.3 260.3 34.6 257.6C34.2 257.6 33.9 257.6 33.5 257.6C33.4 260.4 33 263.2 32.3 265.9C32 267.3 31.6 268.7 31.1 270C30.8 271 30.5 272.3 29.4 272.7C27.4 273.4 27.9 268.1 27.9 267C27.9 263.7 27.9 260.3 27.9 257C27.9 256.4 26.9 256.2 26.8 256.9C26.3 260.3 25.4 263.6 23.9 266.7C23.6 267.4 23.2 268.2 22.8 268.9C22.4 269.5 22 270.3 21.2 270.4C19.3 270.8 19.9 267.6 19.9 266.5C20.1 259.6 20.2 252.7 20.7 245.9C21 242 21.4 238.1 22 234.3C21.8 234.4 21.6 234.6 21.3 234.7C26.5 235.5 31.5 236.6 36.5 237.5C37.2 237.6 37.5 236.6 36.8 236.5C31.8 235.6 26.8 234.5 21.9 233.3C21.6 233.2 21.3 233.4 21.2 233.7C20 241.3 19.5 248.9 19.3 256.6C19.2 260.4 19.1 264.2 19 268C19 269.4 19.2 271.1 20.9 271.2C22.5 271.4 23.6 270 24.2 268.7C26.1 265 27.4 261 28 256.9C27.6 256.9 27.3 256.8 26.9 256.8C26.9 260.2 26.9 263.6 26.9 266.9C26.9 268.3 26.8 269.7 27 271.1C27.2 272.3 27.8 273.8 29.3 273.6C30.2 273.5 31 272.9 31.5 272.1C32.2 270.8 32.6 269.3 33 267.9C34 264.5 34.6 260.9 34.8 257.3C34.8 256.6 33.8 256.6 33.7 257.3C33.4 260.1 33.3 263 33.4 265.8C33.5 267.2 33.6 268.6 33.8 270C33.9 270.9 34.1 271.9 34.5 272.7C35.4 274.3 37.4 274.5 38.7 273.1C39.3 272.4 39.8 271.5 40.1 270.6C40.5 269.3 40.9 268 41.2 266.7C41.9 263.7 42.5 260.7 42.8 257.7C42.9 257 41.8 257 41.7 257.7C41.3 261.5 41.1 265.2 41.4 269C41.5 270.3 41.4 272 42.2 273.1C42.9 274 44.2 273.9 44.8 273C45.4 272.2 45.6 271.2 45.8 270.2C46.1 269 46.3 267.8 46.6 266.6C48.2 259.4 49.7 252.2 51.2 245C51.5 243.6 51.8 242.2 52.1 240.8C52.2 240.2 52.4 239.7 52.4 239.1C52.4 238.8 52.1 238.6 51.9 238.6C46.9 238 41.9 237.2 36.9 236.3C36.1 236.3 35.8 237.3 36.5 237.5Z" fill="#F7AFA5"/>
<path d="M41.7 258.5C40.8 262.8 40.4 267.1 40.5 271.4C40.5 272.1 41.6 272.1 41.6 271.4C41.5 267.1 41.9 262.9 42.8 258.7C42.9 258.1 41.8 257.8 41.7 258.5Z" fill="#0F112E"/>
<path d="M33.9 257.1C33 261.1 32.5 265.2 32.3 269.3C32.3 270 33.4 270 33.4 269.3C33.6 265.3 34.1 261.3 35 257.4C35.1 256.7 34.1 256.4 33.9 257.1Z" fill="#0F112E"/>
<path d="M26.2 255.1C25.7 259.4 25.2 263.6 24.7 267.9C24.6 268.6 25.7 268.6 25.8 267.9C26.3 263.6 26.8 259.4 27.3 255.1C27.4 254.4 26.3 254.4 26.2 255.1Z" fill="#0F112E"/>
<path d="M217.1 117C212.8 117.1 208.2 115.6 204 115.1C203.3 103.9 203.9 92.6001 205.4 81.5001C205.5 80.7001 205.8 79.8001 206.6 79.7001C207.4 79.6001 207.9 80.6001 208.1 81.4001C209.1 85.4001 209.6 89.6001 209.6 93.7001C209.5 89.7001 209.8 85.8001 210.4 81.9001C210.7 80.4001 211.5 78.4001 213 78.6001C214.2 78.7001 214.9 80.1001 215.2 81.3001C216.3 85.2001 216.9 89.2001 216.9 93.2001C216.5 88.9001 216.8 84.5001 217.8 80.3001C217.9 79.7001 218.1 79.1001 218.6 78.7001C221.4 76.5001 221.7 82.0001 221.8 83.2001C222.2 86.5001 222.7 89.7001 223.1 93.0001C223.1 89.2001 223.8 85.4001 225.1 81.8001C225.4 81.1001 225.6 80.4001 226.2 79.9001C226.8 79.4001 227.6 79.2001 228.2 79.7001C228.7 80.1001 228.9 80.9001 228.9 81.5001C230.2 93.2001 230.8 105 230.9 116.7C231 116.3 218.1 117 217.1 117Z" fill="#F7AFA5"/>
<path d="M217.1 116.5C212.7 116.5 208.4 115.1 204 114.6C204.2 114.8 204.4 115 204.5 115.1C204.1 108.5 204.1 101.9 204.5 95.3C204.7 92 205 88.7 205.4 85.4C205.5 84.6 205.6 83.8 205.7 83C205.8 82.3 205.8 81.6 206 80.9C206.2 80.3 206.6 79.9 207.1 80.5C207.5 81.1 207.6 81.9 207.7 82.5C208.5 86.2 208.9 89.9 209 93.6C209.4 93.6 209.7 93.6 210.1 93.6C210 90.8 210.1 88 210.4 85.2C210.5 83.9 210.7 82.5 211 81.3C211.2 80.5 211.6 79.3 212.5 79.1C213.6 78.8 214.2 80 214.5 80.8C214.9 82 215.2 83.3 215.5 84.6C216.1 87.4 216.4 90.2 216.4 93C216.8 93 217.1 93 217.5 93C217.3 90.4 217.3 87.8 217.5 85.2C217.6 83.9 217.8 82.5 218.1 81.2C218.3 80.3 218.4 79 219.4 78.6C221.1 77.8 221.3 82.8 221.4 83.7C221.8 86.7 222.2 89.7 222.6 92.7C222.7 93.4 223.7 93.4 223.7 92.7C223.7 89.4 224.2 86.1 225.2 83C225.4 82.3 225.7 81.5 226 80.8C226.3 80.2 227 79.4 227.8 79.8C228.4 80.1 228.4 81 228.4 81.5C228.5 82.4 228.6 83.3 228.7 84.2C229.4 91 229.9 97.9 230.1 104.8C230.2 108.7 230.3 112.6 230.3 116.5C230.7 116.5 231 116.4 231.4 116.4C231.2 115.8 230.4 115.9 229.9 115.9C228.9 115.9 227.9 115.9 226.9 116C224.4 116.1 221.8 116.2 219.3 116.3C218.7 116.4 217.9 116.5 217.1 116.5C216.4 116.5 216.4 117.6 217.1 117.6C221.1 117.5 225.1 117.2 229.1 117.1C229.5 117.1 230 117.1 230.4 117.1C230.5 117.1 230.7 117.1 230.8 117.1C231.1 117.1 230.7 117.1 230.5 116.7C230.7 117.2 231.6 117.2 231.6 116.6C231.6 108.9 231.3 101.1 230.7 93.4C230.4 89.5 230.1 85.7 229.7 81.9C229.6 80.6 229.4 79 227.8 78.8C226.4 78.6 225.4 79.8 224.9 80.9C223.3 84.6 222.7 88.8 222.6 92.8C223 92.8 223.3 92.8 223.7 92.8C223.3 89.8 222.9 86.7 222.5 83.7C222.3 82.4 222.3 81 221.9 79.8C221.6 78.7 220.9 77.3 219.5 77.6C218.7 77.8 217.9 78.4 217.6 79.2C217.1 80.4 216.9 81.9 216.7 83.2C216.2 86.5 216.1 89.9 216.4 93.2C216.5 93.9 217.5 93.9 217.5 93.2C217.4 90.7 217.2 88.1 216.8 85.7C216.6 84.4 216.3 83.1 216 81.9C215.8 81 215.5 80.1 215 79.3C214 77.9 212.2 77.8 211.1 79.2C209.9 80.8 209.8 83.1 209.6 85C209.3 87.9 209.1 90.9 209.2 93.8C209.2 94.5 210.3 94.5 210.3 93.8C210.2 90.1 209.8 86.5 209.1 82.9C208.9 81.7 208.7 80 207.5 79.4C206.3 78.8 205.4 79.9 205.2 80.9C204.8 82.5 204.7 84.3 204.5 86C204.3 87.8 204.1 89.7 203.9 91.6C203.6 95.3 203.4 99 203.3 102.8C203.2 107 203.3 111.1 203.6 115.3C203.6 115.6 203.8 115.8 204.1 115.8C208.5 116.3 212.8 117.7 217.2 117.7C217.8 117.6 217.8 116.5 217.1 116.5Z" fill="#F7AFA5"/>
<path d="M194.8 159.6C184.1 157.5 177.5 142.9 171.9 134.8C167.8 128.8 163.2 123.1 158.2 117.9C156.4 116 154.5 114.1 152 113.1C146.3 110.8 139.5 114.4 136.6 119.8C133.7 125.2 133.9 131.8 135.2 137.7C137.1 146.3 141 154.4 146.6 161.2C153.4 169.5 159.6 178.6 167 186.4C169.7 189.3 172.7 192 175.9 194.2C191.3 204.5 217.7 202.3 226.9 184.3C232.6 173.1 231.2 157.8 231.6 145.6C231.7 143.6 232.7 103.5 230.7 103.4C228.2 103.3 208.2 102.3 203 102.3C202.6 112.9 203.1 123.6 202.8 134.2C202.6 140.2 205.5 158.2 197.3 159.6C196.6 159.8 195.7 159.8 194.8 159.6Z" fill="#3F4098"/>
<path d="M195 159.1C189.3 157.9 185.1 153.4 181.7 148.9C178.3 144.3 175.6 139.3 172.4 134.6C170.1 131.2 167.7 128 165.1 124.9C162.5 121.7 159.8 118.6 156.8 115.8C154.3 113.5 151.3 111.8 147.9 112C144.8 112.1 141.9 113.5 139.6 115.5C134 120.3 133.2 128.2 134.2 135C135.3 142.5 138.2 149.9 142.3 156.3C144.4 159.6 146.9 162.5 149.3 165.5C151.8 168.7 154.2 171.9 156.7 175.1C161.6 181.5 166.8 187.9 173.2 192.9C181.9 199.7 193.5 202.2 204.4 200.3C209.7 199.4 214.9 197.4 219.2 194.2C223.8 190.8 227.1 186.2 229 180.8C231.5 174 231.9 166.6 232 159.4C232.1 154.4 232.1 149.5 232.2 144.5C232.4 137.2 232.5 129.9 232.5 122.5C232.5 118.4 232.5 114.3 232.3 110.1C232.2 108.7 232.2 107.2 232 105.8C231.9 105 231.9 104 231.5 103.3C231.1 102.6 229.9 102.8 229.2 102.8C227.3 102.7 225.3 102.6 223.4 102.5C218.4 102.3 213.3 102 208.3 101.8C206.6 101.7 204.9 101.7 203.2 101.7C202.9 101.7 202.7 101.9 202.7 102.2C202.5 108.2 202.6 114.2 202.6 120.2C202.6 123.2 202.6 126.1 202.6 129.1C202.6 131.2 202.4 133.4 202.5 135.5C202.6 138.4 202.8 141.4 202.8 144.3C202.8 147.5 202.8 150.7 201.9 153.8C201.5 155.2 201 156.6 199.9 157.6C198.7 159.1 196.8 159.4 195 159.1C194.3 159 194 160 194.7 160.1C196.5 160.4 198.4 160.3 199.9 159.3C200.9 158.6 201.7 157.5 202.2 156.4C203.5 153.5 203.8 150.2 203.9 147.1C204 143.8 203.8 140.6 203.6 137.3C203.5 135.8 203.6 134.2 203.6 132.7C203.7 129.6 203.7 126.6 203.7 123.5C203.7 116.5 203.6 109.4 203.8 102.4C203.6 102.6 203.4 102.8 203.3 102.9C207.4 102.9 211.6 103.1 215.7 103.3C220.2 103.5 224.6 103.7 229.1 103.9C229.6 103.9 230.2 104 230.7 104C230.8 104 230.9 104 230.9 104C230.8 104.1 230.7 103.9 230.6 103.9C230.7 103.9 230.6 103.9 230.6 103.9C230.6 103.9 230.7 104.2 230.6 103.9C230.9 104.7 230.9 105.5 231 106.3C231.3 109.7 231.4 113.1 231.4 116.5C231.5 124.6 231.4 132.8 231.2 140.9C231.2 143.3 231.1 145.7 231 148C230.9 155 231.1 162.1 230.3 169.1C229.6 175.5 228 182.1 224.2 187.5C221.1 191.7 216.8 194.9 211.9 196.9C202.2 200.9 190.5 200.6 181 196.3C174.7 193.5 169.7 188.6 165.1 183.6C159.8 177.7 155.1 171.2 150.2 165C147.8 162 145.3 159 143.2 155.8C141.2 152.6 139.4 149.3 138.1 145.8C136.8 142.3 135.7 138.7 135.2 135.1C134.6 131.4 134.5 127.6 135.5 124C136.4 120.7 138.1 117.7 140.9 115.7C143.3 113.9 146.4 112.7 149.5 113.1C153.2 113.5 155.9 116.3 158.3 118.9C161.1 121.8 163.7 124.9 166.1 128C168.3 130.8 170.5 133.8 172.4 136.8C173.9 139.1 175.3 141.4 176.7 143.7C179.7 148.5 183 153.4 187.6 156.9C189.6 158.5 192 159.6 194.5 160.2C195.4 160.3 195.7 159.2 195 159.1Z" fill="#3F4098"/>
<path d="M210 92.8999C210.2 88.8999 210.1 84.8999 209.5 80.8999C209.4 80.1999 208.3 80.4999 208.5 81.1999C209.1 85.0999 209.2 88.9999 209 92.8999C208.9 93.5999 210 93.5999 210 92.8999Z" fill="#0F112E"/>
<path d="M217.3 93.2001C217.6 89.5001 217.6 85.7001 217.2 82.0001C217.1 81.3001 216 81.3001 216.1 82.0001C216.4 85.7001 216.5 89.5001 216.2 93.2001C216.2 93.9001 217.2 93.9001 217.3 93.2001Z" fill="#0F112E"/>
<path d="M224.6 94.1999C224.5 90.1999 224.4 86.2999 224.4 82.2999C224.4 81.5999 223.3 81.5999 223.3 82.2999C223.4 86.2999 223.5 90.1999 223.5 94.1999C223.5 94.8999 224.6 94.8999 224.6 94.1999Z" fill="#0F112E"/>
<path d="M84.5 289.3C85.2 276.1 84.8 234.1 84.8 229.6C84.9 219.6 85.8 209.3 85.3 199.3C84.9 190.8 84.2 182.6 84.8 173.9C98.2 175 111.5 176.2 124.9 177C124.3 177 121.1 233.6 120.8 238.8C119.5 258.6 118.5 278.4 115.6 298C100.4 299.5 85 298.8 70 295.8C68.9 295.6 67.4 294.7 67.9 293.7C68.2 293 69.1 292.9 69.9 292.9C74.6 293 79.2 293.1 83.9 293.2C84.2 293.2 84.3 291.7 84.5 289.3Z" fill="#0F112E"/>
<path d="M85 289.3C85.3 283.7 85.3 278.2 85.4 272.6C85.5 265.5 85.5 258.3 85.4 251.2C85.4 245.5 85.4 239.7 85.3 234C85.3 227.1 85.6 220.1 85.8 213.2C86 207.3 85.9 201.5 85.6 195.7C85.3 189.9 85 184.1 85.1 178.3C85.1 176.9 85.2 175.4 85.3 174C85.1 174.2 84.9 174.4 84.8 174.5C95.2 175.4 105.6 176.3 116 177C119 177.2 121.9 177.4 124.9 177.6C124.9 177.2 124.8 176.9 124.8 176.5C124.4 176.6 124.3 177.2 124.3 177.5C124.2 178.2 124.1 178.8 124.1 179.5C123.9 181.8 123.7 184.1 123.6 186.5C123.1 193.7 122.6 200.9 122.2 208.1C121.8 215.3 121.3 222.5 120.9 229.7C120.5 235.7 120.2 241.8 119.8 247.8C118.8 262.7 117.9 277.6 116 292.4C115.8 294.3 115.5 296.1 115.2 298C115.4 297.9 115.5 297.7 115.7 297.6C106.1 298.5 96.5 298.6 86.9 297.8C82 297.4 77.2 296.7 72.4 295.9C71.4 295.7 70.2 295.6 69.3 295.2C69 295.1 68.5 294.8 68.4 294.4C68.3 293.8 69 293.7 69.4 293.7C70.5 293.6 71.7 293.7 72.8 293.7C74 293.7 75.2 293.7 76.4 293.8C77.8 293.8 79.2 293.9 80.6 293.9C81.3 293.9 81.9 293.9 82.6 293.9C83 293.9 83.8 294.1 84.2 293.8C84.6 293.6 84.7 293 84.7 292.6C84.9 291.4 85 290.3 85 289.3C85 288.6 84 288.6 83.9 289.3C83.8 290.3 83.8 291.3 83.7 292.3C83.7 292.5 83.7 292.8 83.6 292.9C83.8 292.6 83.6 292.7 83.3 292.7C82.9 292.7 82.6 292.7 82.2 292.7C79.6 292.7 77.1 292.6 74.5 292.6C73.2 292.6 71.9 292.6 70.6 292.5C69.7 292.5 68.7 292.4 68 292.9C67.4 293.3 67.2 294.1 67.5 294.8C67.8 295.5 68.6 296 69.4 296.2C70.4 296.6 71.6 296.7 72.7 296.9C74 297.1 75.2 297.3 76.5 297.5C78.9 297.9 81.4 298.2 83.8 298.4C88.8 298.9 93.8 299.2 98.8 299.3C104.5 299.4 110.1 299.1 115.8 298.5C116 298.5 116.3 298.3 116.3 298.1C118.4 283.5 119.5 268.8 120.5 254.1C121 246.8 121.5 239.4 121.9 232.1C122.3 225.3 122.7 218.6 123.1 211.8C123.5 204.4 124 197 124.5 189.5C124.7 186.8 124.9 184.1 125.1 181.4C125.2 180.5 125.2 179.6 125.3 178.7C125.3 178.4 125.4 178.1 125.4 177.8C125.4 177.6 125.4 177.8 125.4 177.6C125.4 177.5 125.4 177.4 125.4 177.3C125.5 176.9 125.4 177.4 125.1 177.4C125.7 177.3 125.5 176.4 125 176.3C114.6 175.6 104.2 174.8 93.8 174C90.8 173.8 87.9 173.5 84.9 173.2C84.6 173.2 84.4 173.5 84.4 173.7C83.6 185.4 85.2 197 85 208.6C84.9 216.5 84.3 224.4 84.4 232.3C84.4 237.6 84.5 243 84.5 248.3C84.5 255.5 84.5 262.6 84.5 269.8C84.5 275.7 84.4 281.7 84.2 287.6C84.2 288.1 84.2 288.6 84.1 289.1C83.9 290 85 290 85 289.3Z" fill="#0F112E"/>
<path d="M178.9 287.1C175.3 267.6 172.6 247.8 169.3 228.2C168.5 223.6 160.8 173.2 160.7 173.2C148.9 176.1 137.2 179 125.4 181.8C130.9 199.5 133.4 218.3 137 236.5C138.9 246.2 140.9 255.9 142.8 265.6C144 271.8 144.8 278.1 146 284.3C147.1 289.6 149.7 294.6 151 299.7C164.8 297.1 178.5 293.4 191.7 288.7C192.3 288.5 192.9 288.3 193.2 287.7C193.5 287.2 193.4 286.3 192.8 286.2C188.2 286.6 183.6 287 178.9 287.4C179 287.3 178.9 287.2 178.9 287.1Z" fill="#0F112E"/>
<path d="M179.4 286.9C176.5 270.9 174.1 254.9 171.6 238.9C170.5 231.8 169.3 224.7 168.2 217.6C167 209.5 165.7 201.5 164.5 193.4C163.5 187.2 162.6 180.9 161.6 174.7C161.5 174.2 161.5 173.6 161.3 173.1C161.2 172.8 161.1 172.6 160.7 172.6C160.3 172.6 159.9 172.8 159.5 172.9C159 173 158.4 173.2 157.9 173.3C156.9 173.5 155.9 173.8 154.9 174C146.9 175.9 139 177.9 131 179.8C129.1 180.3 127.1 180.7 125.2 181.2C124.9 181.3 124.7 181.6 124.8 181.9C129.4 196.9 131.9 212.4 134.7 227.8C136.1 235.6 137.7 243.4 139.3 251.2C140.9 259.2 142.5 267.1 143.8 275.1C144.5 279.4 145.1 283.8 146.4 288C147.7 292 149.4 295.8 150.4 299.8C150.5 300.1 150.8 300.2 151.1 300.2C159.3 298.7 167.4 296.7 175.4 294.5C179.4 293.4 183.4 292.1 187.4 290.8C188.4 290.5 189.4 290.1 190.4 289.8C191.2 289.5 192.2 289.3 193 288.8C193.5 288.5 194 288 194 287.4C194.1 286.8 193.8 286.1 193.1 285.9C192.6 285.7 192 285.9 191.5 285.9C191 285.9 190.4 286 189.9 286C188.7 286.1 187.4 286.2 186.2 286.3C183.8 286.5 181.4 286.7 179 286.9C179.2 287 179.3 287.2 179.5 287.3C179.5 287.2 179.5 287.1 179.4 286.9C179.3 286.2 178.2 286.5 178.4 287.2C178.4 287.3 178.4 287.5 178.5 287.6C178.5 287.8 178.8 288 179 288C182.9 287.7 186.8 287.3 190.7 287C191.1 287 191.6 286.9 192 286.9C192.3 286.9 192.9 286.7 192.9 287.2C192.9 288 191.2 288.4 190.6 288.6C188.8 289.2 187.1 289.8 185.3 290.4C178.1 292.8 170.7 294.8 163.4 296.6C159.3 297.6 155.1 298.5 150.9 299.3C151.1 299.4 151.3 299.6 151.6 299.7C150.7 296.1 149.2 292.6 148 289C146.8 285.3 146.1 281.6 145.5 277.8C144.9 273.9 144.3 270 143.5 266.1C142.7 262 141.9 258 141.1 253.9C139.5 246.1 137.9 238.2 136.5 230.4C135.1 222.7 133.7 215 132.2 207.3C130.5 198.7 128.6 190.2 126 181.8C125.9 182 125.7 182.2 125.6 182.5C133.5 180.6 141.4 178.6 149.3 176.7C151.2 176.2 153.2 175.8 155.1 175.3C156.1 175.1 157 174.8 158 174.6C158.4 174.5 158.9 174.4 159.3 174.3C159.6 174.2 159.8 174.2 160.1 174.1C160.3 174.1 160.5 174 160.6 174C160.5 173.9 160.3 173.7 160.2 173.6C160.2 173.6 160.4 174.6 160.4 174.7C161.4 180.5 162.2 186.2 163.1 192C164.4 200.1 165.6 208.2 166.8 216.3C167.7 222.3 168.7 228.3 169.6 234.3C172.2 250.1 174.5 266 177.2 281.8C177.5 283.7 177.9 285.7 178.2 287.6C178.5 287.9 179.6 287.6 179.4 286.9Z" fill="#0F112E"/>
<path d="M181.9 71.3C181.7 71.1 181.5 70.9 181.3 70.7C178.1 67.8 175.8 66 174.6 61.8C173.5 57.8 173.7 54 173.7 49.9C173.7 46.3 173.4 42.8 172.7 39.2C172.1 35.9 171.2 32.6 169 30.1C165.8 26.5 162.3 27.7 158.2 27.5C144.2 26.8 130.2 28.4 116.7 32.2C113.5 33.1 110.2 34.2 108.2 36.8C105 41 106.9 45.8 106.2 50.5C105.6 54.8 104.3 58.1 104.6 62.7C103.1 62.7 101.6 62.8 100.1 63.2C98.3 63.6 96.5 64.4 95.4 66C92.7 69.9 96.5 72.7 100.1 73.2C102 73.5 103.7 73.9 105.6 73.9C105.1 86.3 105.8 98.7 105.6 111.2C109.8 111.2 148.7 117.1 148.7 116.4C148.9 115 150.6 97.1 151 97.1C158.7 97.1 169.8 100.5 171.3 89.8C171.9 85.4 171.8 81 171.7 76.6C174.5 77.3 177.4 77.4 180.2 77C181.1 76.9 182 76.7 182.6 76C183.9 74.7 183.1 72.7 181.9 71.3Z" fill="#F7AFA5"/>
<path d="M182.2 70.9C180.9 69.5 179.4 68.4 178.1 67C176.9 65.7 175.9 64.2 175.3 62.4C173.7 57.7 174.3 52.6 174.1 47.7C174 45.2 173.8 42.7 173.4 40.3C173.1 38.2 172.6 36 171.8 34C171.1 32.1 170 30.2 168.4 28.9C167 27.7 165.4 27.2 163.6 27C161.8 26.9 159.9 27.1 158.1 27C155.6 26.9 153.1 26.8 150.6 26.8C145.6 26.8 140.6 27.2 135.7 27.8C130.7 28.4 125.8 29.3 121 30.5C118.7 31 116.4 31.6 114.2 32.4C112.3 33 110.5 33.9 109 35.2C107.4 36.5 106.4 38.4 105.9 40.4C105.5 42.4 105.6 44.5 105.7 46.5C105.8 48.7 105.6 50.8 105.2 52.9C104.8 55 104.3 57.1 104.1 59.3C104 60.5 103.9 61.6 104 62.8C104.2 62.6 104.4 62.4 104.5 62.3C100.8 62.4 96 63 94.3 66.9C92.9 70.1 95.5 72.7001 98.5 73.6001C99.5 73.9001 100.6 74 101.7 74.2C103 74.4 104.3 74.6001 105.6 74.6001C105.4 74.4001 105.2 74.2001 105.1 74.1001C104.7 83.8001 105 93.5001 105.1 103.2C105.1 106 105.1 108.7 105.1 111.5C105.1 111.8 105.4 112 105.6 112C107.5 112 109.5 112.3 111.4 112.6C114.9 113 118.3 113.5 121.8 114C129.1 115 136.3 116 143.6 116.9C144.7 117 145.8 117.2 146.9 117.3C147.4 117.3 148 117.4 148.6 117.4C149.4 117.3 149.3 116.4 149.4 115.8C149.6 114.4 149.7 112.9 149.8 111.5C150.2 107.8 150.5 104.1 151 100.5C151.1 99.9 151.2 99.3001 151.3 98.7001C151.3 98.5001 151.6 97.9 151.5 97.8C151.6 98 150.9 98.0001 151.3 98.1001C151.5 98.2001 151.8 98.1001 152 98.1001C152.5 98.1001 153 98.1001 153.6 98.2001C154.6 98.3001 155.6 98.3 156.6 98.4C160.3 98.7 164.8 99.1 168.1 97C169.7 95.9 170.8 94.3 171.4 92.5C171.8 91.1 172 89.7001 172.1 88.2001C172.3 86.4001 172.3 84.5 172.3 82.7C172.3 80.9 172.2 79 172.2 77.2C172 77.4 171.7 77.5 171.5 77.7C173.2 78.1 174.9 78.3 176.7 78.3C178.3 78.3 180.1 78.3 181.6 77.8C182.8 77.4 183.7 76.5 183.8 75.2C183.9 73.3 183.1 72 182.2 70.9C181.8 70.4 181 71.1 181.4 71.7C182.1 72.5 182.9 73.7 182.6 74.9C182.3 76.1 181 76.4 180 76.5C177.3 76.9 174.4 76.7001 171.7 76.1001C171.4 76.0001 171 76.3001 171 76.6001C171.1 80.3001 171.2 84.0001 170.9 87.7001C170.7 90.1001 170.3 92.6 168.7 94.5C166.1 97.4 161.6 97.2 158 97C156 96.9 154 96.7001 152 96.6001C151.4 96.6001 150.6 96.4001 150.3 97.1001C150.2 97.4001 150.2 97.7 150.1 98C149.6 101.2 149.3 104.5 148.9 107.8C148.7 109.6 148.5 111.4 148.3 113.2C148.2 114.2 147.9 115.3 148 116.3C148 116.3 148 116.4 148 116.5C147.8 116.2 148.3 116.1 148.3 116C148.3 116 148.4 116 148.2 116C148 116 147.7 116 147.5 116C146.6 115.9 145.6 115.8 144.7 115.7C137.8 114.9 130.9 114 124.1 113C120.5 112.5 116.9 112 113.2 111.6C110.9 111.3 108.5 111 106.1 110.8C105.8 110.8 105.6 110.8 105.3 110.8C105.5 111 105.7 111.2 105.8 111.3C105.9 101.6 105.6 91.9 105.6 82.2C105.6 79.5 105.7 76.7 105.8 74C105.8 73.7 105.5 73.5 105.3 73.5C104 73.5 102.7 73.3001 101.4 73.1001C100.4 72.9001 99.4 72.8 98.5 72.5C97 72 95.3 71.1 94.8 69.4C94.3 67.5 95.9 65.6 97.5 64.7C99.5 63.6 102 63.4 104.2 63.4C104.5 63.4 104.8 63.2 104.7 62.9C104.6 60.7 104.9 58.5 105.3 56.3C105.7 54.2 106.2 52.2001 106.4 50.1001C106.8 46.1001 105.5 41.7001 107.7 38.1001C109.9 34.4001 114.7 33.4 118.5 32.3C123.2 31.1 128 30.1 132.8 29.4C137.7 28.7 142.5 28.3001 147.4 28.1001C149.8 28.0001 152.3 28.0001 154.7 28.1001C156.8 28.2001 158.8 28.2 160.9 28.2C162.6 28.1 164.3 28.1 165.9 28.9C167.8 29.8 169.1 31.6 170 33.5C170.9 35.4 171.4 37.5 171.8 39.5C172.2 41.9 172.5 44.4 172.7 46.9C173 51.6 172.4 56.4001 173.5 61.1001C173.9 62.9001 174.6 64.7 175.6 66.2C176.6 67.6 177.8 68.7 179 69.9C179.7 70.6 180.5 71.2 181.1 71.9C181.9 72.2 182.7 71.5 182.2 70.9Z" fill="#F7AFA5"/>
<path d="M160.8 128.6C163.9 151.4 164.3 174.1 163.9 197.1C163.9 197.9 92.3 197.5 85.8 196.9C84.8 177.3 83.7 157.3 87.1 137.9C88.8 128.3 91.4 117.7 99.6 112.4C106.4 107.9 115.2 108.4 123.3 109C127.4 109.3 131.5 109.6 135.5 109.9C139.8 110.2 144.1 110.6 148.2 111.9C152.3 113.2 156.1 115.8 158.3 119.5C159.9 122.4 160.4 125.5 160.8 128.6Z" fill="#3F4098"/>
<path d="M160.3 128.8C161.5 137.8 162.3 146.9 162.8 155.9C163.3 164.9 163.5 173.9 163.5 183C163.5 187.6 163.5 192.1 163.4 196.7C163.4 196.8 163.4 197 163.4 197.1C163.5 197.4 163.4 197 163.6 196.9L163.7 196.8H163.8H163.6C163.5 196.8 163.7 196.8 163.6 196.8C163.5 196.8 163.5 196.8 163.4 196.8C163.3 196.8 163.1 196.8 163 196.8C160.9 197 158.8 197 156.7 197C153.1 197.1 149.5 197.1 145.9 197.1C141.4 197.1 136.9 197.1 132.5 197.1C127.7 197.1 122.9 197.1 118.1 197C113.6 197 109 196.9 104.5 196.9C100.8 196.9 97.1 196.8 93.4 196.7C91.1 196.6 88.9 196.6 86.6 196.5C86.3 196.5 86.1 196.5 85.8 196.4C86 196.6 86.2 196.8 86.3 196.9C85.7 185.4 85.1 173.9 85.4 162.5C85.7 151.8 86.6 141 89.2 130.6C90.3 126.4 91.7 122.3 94.1 118.7C96.6 114.9 100.2 112.1 104.5 110.7C109.2 109.1 114.2 109.1 119.1 109.4C124.6 109.7 130.1 110.2 135.6 110.6C140.9 111 146.4 111.4 151.2 113.9C153.2 114.9 155 116.3 156.5 118C158.2 120 159.1 122.4 159.6 125C159.9 126.2 160.1 127.5 160.3 128.8C160.4 129.5 161.4 129.2 161.3 128.5C160.9 125.8 160.5 123.2 159.4 120.7C158.4 118.5 157 116.7 155.1 115.2C151.1 112 146.1 110.7 141.1 110C135.3 109.3 129.4 109 123.6 108.6C118.5 108.2 113.4 107.9 108.4 108.7C103.7 109.5 99.3 111.4 95.9 114.8C92.9 117.9 90.9 121.9 89.4 125.9C87.9 130.3 87 134.9 86.2 139.5C85.3 145.3 84.7 151.2 84.4 157.1C83.8 168.9 84.3 180.8 84.9 192.6C85 194 85 195.5 85.1 196.9C85.1 197.2 85.3 197.4 85.6 197.4C87.4 197.6 89.3 197.6 91.2 197.6C94.7 197.7 98.1 197.8 101.6 197.8C106 197.9 110.5 197.9 114.9 198C119.8 198 124.6 198.1 129.5 198.1C134.1 198.1 138.8 198.1 143.4 198.1C147.2 198.1 151.1 198.1 154.9 198C157.3 198 159.7 197.9 162.1 197.8C162.6 197.8 163.2 197.8 163.7 197.6C164.2 197.4 164.2 197.1 164.2 196.6C164.2 194.3 164.3 192 164.3 189.7C164.4 180.5 164.3 171.4 164 162.2C163.6 153 163 143.9 162 134.8C161.7 132.6 161.5 130.4 161.2 128.3C161.2 127.8 160.2 128.1 160.3 128.8Z" fill="#3F4098"/>
<path d="M148.3 112.1C144.2 110.7 139.9 110.4 135.6 110.1C131.5 109.8 127.4 109.5 123.4 109.2C117.5 108.7 111.2 108.4 105.7 109.9C106.4 110.8 107.1 111.5 107.5 112.2C110.8 117 114.2 121.6 117.8 126.2C124.9 135.3 132.6 144 140.8 152.2C143.2 147.6 144.3 142.4 145.3 137.3C146.6 130.9 147.8 124.6 149.1 118.2C149.4 116.5 149.9 114.8 150.3 113C149.6 112.5 148.9 112.3 148.3 112.1Z" fill="white"/>
<path d="M148.4 111.5C143 109.7 137.2 109.6 131.6 109.1C126 108.7 120.3 108 114.6 108.1C111.5 108.1 108.4 108.4 105.4 109.2C105 109.3 104.9 109.8 105.2 110.1C107.5 112.8 109.4 115.8 111.5 118.7C113.6 121.6 115.8 124.5 118.1 127.4C122.5 133 127.2 138.4 132 143.7C134.7 146.6 137.5 149.5 140.3 152.4C140.5 152.6 141 152.6 141.2 152.3C143.5 147.9 144.6 143.1 145.6 138.2C146.7 132.8 147.7 127.5 148.8 122.1C149.4 119 150 116 150.8 112.9C150.9 112.7 150.8 112.4 150.6 112.3C149.8 112 149.1 111.8 148.4 111.5C147.7 111.3 147.5 112.3 148.1 112.5C148.7 112.7 149.3 112.9 149.9 113.2C149.8 113 149.7 112.8 149.7 112.6C148.4 117.9 147.4 123.2 146.4 128.6C145.4 133.7 144.5 138.9 143.2 143.9C142.5 146.6 141.6 149.3 140.3 151.7C140.6 151.7 140.9 151.6 141.2 151.6C131 141.4 121.6 130.4 113 118.8C110.7 115.7 108.6 112.3 106.1 109.4C106 109.7 105.9 110 105.9 110.3C111.1 108.9 116.7 109.1 122 109.5C127.7 109.9 133.3 110.3 139 110.8C142.1 111.1 145.3 111.6 148.3 112.5C148.8 112.8 149.1 111.7 148.4 111.5Z" fill="white"/>
<path d="M138.6 114.9C137.2 113.4 135.9 111.8 134.7 110.2C134.8 110.3 133.3 111.5 131.1 113.2C132.7 114.9 134 116.2 134.1 116.5C134.4 117.1 134 130.9 132.9 144C135.4 146.7 138 149.4 140.6 152C142.1 149.2 143.1 146.2 143.8 143.1C140.6 131.4 137.7 118.5 137.8 117.7C137.9 117.3 138.2 116.3 138.6 114.9Z" fill="#E33F5A"/>
<path d="M139 114.5C137.7 113 136.4 111.5 135.2 109.9C134.8 109.4 134.1 109.7 134.2 110.3C134.1 109.8 134.4 109.9 134.2 110C134.1 110 134 110.1 134 110.2C133.8 110.4 133.5 110.6 133.2 110.8C132.4 111.5 131.6 112.1 130.8 112.7C130.6 112.9 130.6 113.3 130.8 113.5C131.7 114.5 132.8 115.5 133.6 116.6C133.7 116.8 133.6 116.6 133.7 116.7C133.7 116.8 133.7 116.6 133.7 116.7C133.7 116.9 133.7 117.1 133.7 117.4C133.7 119.3 133.7 121.2 133.6 123.1C133.4 129.7 133 136.4 132.5 143C132.5 143.4 132.3 143.9 132.5 144.3C132.7 144.7 133.2 145.1 133.5 145.4C134.2 146.2 134.9 146.9 135.7 147.7C137.2 149.3 138.8 150.9 140.3 152.4C140.5 152.6 141 152.6 141.2 152.3C142 150.9 142.6 149.4 143.1 147.8C143.3 147.1 143.6 146.4 143.8 145.7C144 144.9 144.4 144 144.5 143.2C144.5 142.5 144.1 141.7 144 141.1C143.8 140.3 143.6 139.5 143.4 138.7C143 137.1 142.6 135.5 142.2 133.9C141 129.1 139.8 124.4 138.9 119.5C138.8 119 138.6 118.3 138.6 117.9C138.6 117.2 139.1 115.9 139.3 115.1C139.5 114.4 138.5 114.1 138.3 114.8C138 115.7 137.5 116.8 137.5 117.8C137.5 118.2 137.6 118.6 137.7 118.9C138 120.6 138.4 122.3 138.8 124C140.1 129.8 141.5 135.5 143.1 141.3C143.2 141.7 143.3 142.1 143.4 142.5C143.6 143.1 143.5 143.3 143.3 143.9C143.1 144.7 142.8 145.6 142.6 146.4C142 148.2 141.3 150 140.4 151.7C140.7 151.7 141 151.6 141.3 151.6C138.7 149 136.1 146.3 133.6 143.6C133.7 143.7 133.7 143.9 133.8 144C134.3 138.2 134.6 132.5 134.8 126.7C134.9 124.6 135 122.5 135 120.3C135 119.1 135.1 118 135 116.8C135 116.4 134.9 116.1 134.6 115.8C133.7 114.8 132.8 113.8 131.8 112.8C131.8 113.1 131.8 113.3 131.8 113.6C132.8 112.9 133.7 112.1 134.7 111.3C135.1 111 135.7 110.6 135.6 110C135.3 110.1 134.9 110.3 134.6 110.4C135.8 112.1 137.1 113.7 138.5 115.2C138.7 115.8 139.5 115.1 139 114.5Z" fill="#E33F5A"/>
<path d="M104.7 110.3C106.4 112.3 108.1 114.3 109.8 116.3C111.9 118.7 113.9 121.2 116.3 123.4C116.5 123.6 116.8 123.9 117.2 124C117.6 124.1 117.8 123.9 118.1 123.7C119 123 120 122.3 120.9 121.6C123.9 119.4 126.8 117.2 129.7 115C131.1 114 132.4 112.9 133.7 111.9C134.2 111.5 135.5 110.7 135.2 110C134.9 110.2 134.6 110.4 134.3 110.5C137.7 115.1 141.8 119.2 146.3 122.8C146.5 123 146.9 122.9 147 122.6C148.3 119.6 149.6 116.6 150.9 113.7C151.2 113.1 150.2 112.5 150 113.2C148.7 116.2 147.4 119.2 146.1 122.1C146.3 122 146.6 122 146.8 121.9C142.4 118.5 138.5 114.5 135.2 110C134.8 109.4 134 109.9 134.3 110.5C134.2 110.4 134.2 110 134.3 109.9L134.2 110C134.1 110.1 134 110.2 133.9 110.3C133.6 110.6 133.2 110.9 132.9 111.2C131.8 112.1 130.6 113 129.5 113.9C126.7 116 123.9 118.2 121 120.3C120 121.1 119 121.8 117.9 122.6C117.9 122.6 117.1 123.1 117.1 123.2C117.1 123.2 117.5 123.1 117.5 123.2L117.4 123.1C117.4 123.1 117.4 123.1 117.3 123C117.2 122.9 117.2 122.9 117.1 122.8C114.9 120.8 113 118.5 111 116.2C109.1 114 107.2 111.9 105.4 109.7C105.1 109 104.3 109.8 104.7 110.3Z" fill="#0F112E"/>
<path d="M70.1 295.8C69 295.6 67.5 294.7 68 293.7C68.3 293 69.2 292.9 70 292.9C74.7 293 79.3 293.1 84 293.2C84.2 293.2 84.4 291.7 84.5 289.2C84.5 288.8 84.5 288.4 84.6 288C86.4 288.3 88.7 289.7 87.9 291.3C97.4 292.6 107 292.5 116.5 291C116.3 293.3 116.1 295.6 115.8 298C100.5 299.5 85.1 298.7 70.1 295.8Z" fill="#3F4098"/>
<path d="M70.2 295.3C69.7 295.2 67.9 294.6 68.5 293.8C68.8 293.5 69.4 293.5 69.7 293.5C70.3 293.5 70.9 293.5 71.5 293.5C74.1 293.5 76.6 293.6 79.2 293.6C80.5 293.6 81.7 293.6 83 293.7C83.7 293.7 84.3 293.9 84.6 293.2C84.8 292.7 84.8 292 84.9 291.4C85 290.3 85.1 289.2 85.1 288.1C84.9 288.3 84.6 288.4 84.4 288.6C85.4 288.8 88 289.6 87.4 291.1C87.3 291.4 87.3 291.8 87.7 291.9C97.3 293.2 107 293.1 116.6 291.6C116.4 291.4 116.1 291.3 115.9 291.1C115.8 293.4 115.5 295.6 115.2 297.9C115.4 297.8 115.5 297.6 115.7 297.5C103.9 298.7 92 298.5 80.2 297C76.9 296.5 73.6 295.9 70.2 295.3C69.5 295.2 69.2 296.2 69.9 296.3C81.6 298.6 93.6 299.6 105.5 299.1C108.9 299 112.3 298.8 115.6 298.4C115.8 298.4 116.1 298.2 116.1 298C116.4 295.6 116.7 293.3 116.8 290.9C116.8 290.5 116.4 290.3 116.1 290.4C106.8 291.9 97.2 292 87.8 290.7C87.9 291 88 291.2 88.1 291.5C89.1 289.2 86.3 287.8 84.5 287.4C84.1 287.3 83.8 287.6 83.8 287.9C83.7 289.1 83.7 290.3 83.6 291.5C83.6 291.8 83.5 292.1 83.5 292.4L83.4 292.6C83.6 292.4 83.5 292.3 83.2 292.4C83 292.4 82.8 292.4 82.7 292.4C80 292.3 77.2 292.3 74.5 292.2C73.1 292.2 71.7 292.1 70.3 292.1C69.4 292.1 68.4 292 67.7 292.6C67.1 293.1 67 294 67.4 294.7C67.9 295.5 68.9 295.9 69.7 296C70.6 296.5 70.9 295.4 70.2 295.3Z" fill="#3F4098"/>
<path d="M192.8 286.3C188.2 286.7 183.6 287.1 178.9 287.5C178.9 287.4 178.9 287.2 178.8 287.1C178.5 285.6 178.3 284 178 282.5C177.1 282.9 176.3 283.3 175.6 284C174.3 285.3 173.7 287.7 175 289.1C166.4 291.1 157.8 292.8 149.2 294.3C149.9 296.1 150.5 297.9 150.9 299.7C164.7 297.1 178.4 293.4 191.6 288.7C192.2 288.5 192.8 288.3 193.1 287.7C193.6 287.3 193.4 286.4 192.8 286.3Z" fill="#3F4098"/>
<path d="M192.8 285.8C188.2 286.2 183.6 286.6 178.9 287C179.1 287.1 179.2 287.3 179.4 287.4C179.1 285.7 178.8 284 178.5 282.4C178.5 282.1 178.1 281.9 177.8 282C176.2 282.7 174.7 283.6 174.1 285.3C173.5 286.7 173.6 288.4 174.6 289.6C174.7 289.3 174.8 289 174.8 288.7C166.2 290.7 157.6 292.4 149 293.9C148.7 293.9 148.5 294.3 148.6 294.6C149.3 296.4 149.9 298.2 150.3 300C150.4 300.3 150.7 300.4 151 300.4C163.9 298 176.5 294.6 188.9 290.4C189.8 290.1 190.6 289.8 191.5 289.5C192.1 289.3 192.8 289 193.3 288.5C194.1 287.7 194 286.2 192.8 285.9C192.1 285.7 191.8 286.7 192.5 286.9C193.2 287.1 192.3 287.9 192 288.1C191.3 288.4 190.6 288.6 189.9 288.9C188.5 289.4 187.1 289.9 185.7 290.3C182.9 291.2 180.2 292.1 177.4 292.9C171.8 294.6 166.1 296 160.4 297.3C157.2 298 153.9 298.7 150.7 299.3C150.9 299.4 151.1 299.6 151.4 299.7C150.9 297.9 150.3 296.1 149.7 294.3C149.6 294.5 149.4 294.7 149.3 295C158 293.5 166.6 291.7 175.1 289.8C175.5 289.7 175.6 289.2 175.3 288.9C174.5 288 174.6 286.7 175.1 285.7C175.7 284.5 176.8 283.7 178.1 283.2C177.9 283.1 177.7 282.9 177.4 282.8C177.7 284.5 178 286.2 178.3 287.8C178.3 288 178.6 288.2 178.8 288.2C183.4 287.8 188 287.4 192.7 287C193.5 286.8 193.5 285.7 192.8 285.8Z" fill="#3F4098"/>
<path d="M140.1 152C140.1 163.9 140.5 175.7 140.8 187.6C140.9 190.9 141 194.3 141.1 197.6C141.1 198.3 142.2 198.3 142.2 197.6C141.9 185.7 141.5 173.9 141.3 162C141.2 158.7 141.2 155.3 141.2 152C141.2 151.3 140.1 151.3 140.1 152Z" fill="#0F112E"/>
<path d="M117.3 45.4001C117.4 44.9001 117.4 44.5001 117.5 44.0001C125.1 44.3001 132.7 43.9001 140.4 44.4001C145.9 44.7001 152.8 46.2001 157.5 42.6001C160.9 40.0001 162.9 35.6001 165.8 32.6001C165.3 33.1001 171 44.7001 171.6 46.3001C174.9 45.6001 177.4 42.6001 178 39.3001C178.2 38.1001 178.1 36.8001 178 35.6001C177.6 30.7001 176.3 25.8001 171.8 23.2001C167.8 20.8001 162.6 20.9001 158.1 21.1001C143 21.8001 127.5 22.8001 114 29.5001C110.9 31.0001 107.9 32.9001 105.7 35.6001C99.8 42.8001 101.1 55.1001 101.5 63.7001C101.6 67.0001 101.3 81.8001 106.6 82.1001C108.1 82.2001 109 80.7001 109.6 79.3001C114.3 68.6001 115.9 57.0001 117.3 45.4001Z" fill="#0F112E"/>
<path d="M117.9 45.4C118 44.9 118 44.5 118.1 44C117.9 44.2 117.7 44.4 117.6 44.5C125.7 44.8 133.8 44.3 141.8 45C144.9 45.3 148.1 45.7 151.3 45.4C154.5 45.1 157.3 43.9 159.6 41.6C162.2 39 163.8 35.6 166.3 33C166 32.8 165.7 32.6 165.4 32.3C165.1 32.7 165.5 33.5 165.6 33.9C166 34.9 166.4 35.9 166.8 36.9C167.9 39.3 169 41.7 170.1 44C170.5 44.8 170.9 45.6 171.2 46.4C171.3 46.7 171.6 46.8 171.9 46.8C174.9 46.2 177.2 43.9 178.2 41.1C178.8 39.4 178.8 37.6 178.7 35.8C178.6 34.3 178.4 32.8 178 31.3C177.3 28.4 176 25.6 173.7 23.7C171.1 21.6 167.8 20.7 164.5 20.5C161 20.2 157.4 20.5 153.9 20.7C150.1 20.9 146.3 21.2 142.5 21.6C135.1 22.4 127.7 23.7 120.7 26.2C117.3 27.4 114 28.8 110.9 30.7C108.1 32.4 105.7 34.5 104 37.3C100.9 42.6 100.6 49 100.7 55C100.8 57.9 101 60.8 101.1 63.7C101.2 65.3 101.2 66.8 101.2 68.4C101.3 70.6 101.5 72.8 101.8 74.9C102.1 76.8 102.6 78.9 103.6 80.6C104.5 82 106.1 83.1 107.8 82.4C109.1 81.8 109.8 80.4 110.4 79.1C111.2 77.4 111.8 75.6 112.4 73.8C114.9 66.5 116.2 58.8 117.2 51.2C117.4 49.3 117.6 47.3 117.9 45.4C118 44.7 116.9 44.7 116.8 45.4C115.9 52.7 115 60 113.1 67.1C112.2 70.6 111.1 74.1 109.7 77.4C109.2 78.7 108.6 80.6 107.2 81.2C106.5 81.5 105.7 81.2 105.2 80.8C104 79.8 103.5 78 103.1 76.5C102.6 74.5 102.4 72.4 102.2 70.3C101.9 66.5 101.9 62.7 101.7 58.9C101.4 53.2 101.2 47.2 102.9 41.7C103.7 38.9 105.1 36.4 107.2 34.4C109.6 32.1 112.6 30.5 115.6 29.1C128.5 23.2 143 22.2 157 21.5C163.1 21.2 170.8 20.8 174.7 26.6C176.3 29 176.9 31.9 177.2 34.7C177.4 36.4 177.5 38.3 177.1 40C176.7 41.4 176 42.7 174.9 43.8C173.9 44.8 172.7 45.5 171.3 45.8C171.5 45.9 171.7 46.1 172 46.2C171.4 44.5 170.5 42.9 169.7 41.2C168.7 39 167.6 36.8 166.7 34.5C166.5 34.1 166.4 33.7 166.3 33.3C166.3 33.2 166.2 33 166.2 32.9C166.2 32.8 166.2 33 166.2 32.9C166.2 32.8 166.2 33 166.2 33C166.6 32.5 165.8 31.9 165.3 32.3C163.1 34.6 161.6 37.5 159.5 39.9C158.5 41.1 157.3 42.2 156 43C154.6 43.8 153.1 44.2 151.5 44.4C148.4 44.8 145.3 44.4 142.2 44.1C138.5 43.8 134.7 43.7 130.9 43.7C126.4 43.7 121.9 43.7 117.4 43.6C117.1 43.6 116.9 43.9 116.9 44.1C116.8 44.6 116.8 45 116.7 45.5C116.7 46.1 117.8 46.1 117.9 45.4Z" fill="#0F112E"/>
<path d="M146.2 54.9999C146.3 57.0999 147.5 59.2999 149.5 60.0999C151.4 60.7999 153.5 59.6999 154.2 57.8999C154.6 56.8999 154.5 55.7999 153.8 54.8999C153.6 54.6999 153.2 54.6999 153 54.8999C152.8 55.0999 152.8 55.3999 153 55.6999C153.9 56.7999 152.9 58.3999 151.9 58.9999C150.5 59.7999 148.9 58.8999 148.1 57.6999C147.6 56.8999 147.3 55.9999 147.2 55.0999C147.2 54.2999 146.1 54.2999 146.2 54.9999Z" fill="#0F112E"/>
<path d="M163.4 55.5C163 57.6 164.5 59.8 166.6 60.3C168.6 60.8 170.4 59.4 171.1 57.5C171.4 56.5 171.4 55.4 170.9 54.4C170.6 53.8 169.6 54.3 170 54.9C170.6 56.1 170.1 57.7 169.2 58.5C168 59.6 166.3 59.2 165.3 58C164.7 57.4 164.4 56.5 164.6 55.6C164.6 55.1 163.5 54.8 163.4 55.5Z" fill="#0F112E"/>
<path d="M155.6 78.2C155.7 80.8 158 83 160.7 82.9C163.3 82.7 165.4 80.3 165.2 77.7C165.1 77 164.1 77 164.1 77.7C164.3 79.7 162.7 81.7001 160.7 81.8001C158.7 81.9001 156.8 80.2 156.7 78.2C156.7 77.5 155.6 77.5 155.6 78.2Z" fill="#0F112E"/>
<path d="M58.7 14.1C72.7 19.2 82.9 32.6 85.2 47.3C87.3 60.6 83.2 74.9 74 84.7C64.8 94.6 50.7 99.7 37.3 97.7C20.5 95.2 6.3 81.3 2.6 64.7C-4.5 32.3 25.3 1.90001 58.7 14.1Z" fill="white"/>
<path d="M58.5 14.6C66.8 17.6 73.7 23.7 78.4 31.1C83.3 38.8 85.6 47.9 85.1 57C84.5 66.5 80.9 75.9 74.7 83.1C68.5 90.3 59.9 95.1 50.7 96.9C41.8 98.6 32.6 97.2 24.7 92.8C17.1 88.7 10.9 82.3 6.90001 74.6C3.00001 67.1 1.50001 58.6 2.40001 50.2C3.20001 42.4 6.2 34.9 10.8 28.6C15.3 22.5 21.5 17.6 28.6 14.7C36.1 11.7 44.4 11 52.3 12.7C54.4 13.3 56.5 13.9 58.5 14.6C59.2 14.8 59.4 13.8 58.8 13.6C50.7 10.7 41.9 9.99998 33.6 12.1C25.9 14 19 18.2 13.5 24C8 29.8 4.1 37 2.3 44.7C0.400004 52.9 0.800004 61.7 3.6 69.7C6.6 78 12.1 85.4 19.2 90.6C26.5 96 35.3 98.9 44.4 98.7C54 98.4 63.4 94.8 70.8 88.6C78.3 82.3 83.3 73.4 85.4 63.9C87.4 54.6 86.4 44.9 82.5 36.2C78.8 28 72.7 20.9 64.9 16.4C63 15.3 61 14.4 58.9 13.6C58.1 13.3 57.9 14.3 58.5 14.6Z" fill="white"/>
<path d="M80.8 67.7C84.2 72 87.4 76.5 90.5 81.2C85.1 80.8 79.9 79.8 74.9 78.3C76.7 74.7 78.6 71.3 80.8 68" fill="white"/>
<path d="M80.4 68.0999C83.8 72.3999 87 76.8999 90 81.4999C90.2 81.1999 90.3 80.9999 90.5 80.6999C85.3 80.2999 80.1 79.2999 75 77.7999C75.1 78.0999 75.2 78.2999 75.3 78.5999C77.1 74.9999 79 71.5999 81.2 68.2999C81.6 67.6999 80.6 67.1999 80.3 67.7999C78.1 71.0999 76.1 74.5999 74.4 78.0999C74.2 78.3999 74.4 78.7999 74.7 78.8999C79.8 80.3999 85.1 81.3999 90.5 81.7999C90.9 81.7999 91.2 81.2999 91 80.9999C87.9 76.2999 84.7 71.7999 81.3 67.3999C80.7 66.7999 80 67.5999 80.4 68.0999Z" fill="white"/>
<path d="M17.8 46.2C12.8 60.4 22.9 77.8 37.8 80.8C52.6 83.9 68.8 72.2 70.6 57.3C74.6 25.1 28.1 16.8 17.8 46.2Z" fill="#F1A51E"/>
<path d="M17.3 46.1001C15.1 52.4001 15.8 59.2001 18.5 65.2001C21.2 71.2001 25.9 76.4001 31.7 79.3001C37.9 82.4001 45 82.6001 51.5 80.4001C58 78.2001 63.7 73.7001 67.3 67.9001C70.6 62.6001 71.9 56.3001 71.1 50.1001C70.5 45.4001 68.7 41.0001 65.6 37.3001C62.7 33.8001 58.9 31.3001 54.7 29.6001C50.5 28.0001 45.9 27.3001 41.4 27.6001C36.8 27.9001 32.3 29.3001 28.4 31.7001C24.3 34.3001 20.9 38.0001 18.7 42.3001C18.2 43.6001 17.7 44.8001 17.3 46.1001C17.1 46.8001 18.1 47.0001 18.3 46.4001C19.9 41.8001 22.6 37.7001 26.4 34.6001C29.8 31.8001 33.9 30.0001 38.2 29.2001C42.4 28.4001 46.9 28.6001 51.1 29.6001C55.3 30.7001 59.2 32.6001 62.4 35.5001C65.7 38.4001 68.1 42.2001 69.3 46.4001C70.8 51.6001 70.6 57.4001 68.8 62.5001C66.5 68.8001 61.7 74.0001 56 77.2001C50.2 80.5001 43.3 81.8001 36.8 80.1001C30.6 78.5001 25.3 74.3001 21.8 69.0001C18.3 63.7001 16.5 57.2001 17.3 50.9001C17.5 49.4001 17.9 47.9001 18.4 46.4001C18.5 45.7001 17.5 45.4001 17.3 46.1001Z" fill="#F1A51E"/>
<path d="M50.9 32.8C40.3 29.2 27.8 35 22.9 44.9C17.6 55.4 22.9 68.3 32.5 74.3C40.3 79.1 51.1 78.8 58.3 73C64.2 68.2 67 60.3 66.5 52.9C65.9 44.9 61.3 37.7 54.1 34.2C53 33.6 52 33.2 50.9 32.8C50.2 32.6 50 33.6 50.6 33.8C54.4 35.1 57.9 37.4 60.5 40.5C62.8 43.3 64.3 46.6 65 50.2C66.3 57.1 64.5 64.8 59.7 70C54.1 76.2 45 78.1 37.2 75.3C26.9 71.7 19.6 59.8 22.4 49C25.1 38.7 36.3 31.6 46.7 32.9C48 33.1 49.3 33.4 50.6 33.8C51.3 34.1 51.6 33.1 50.9 32.8Z" fill="white"/>
<path d="M41.7 47.3002C44.7 47.3002 47.6 47.1002 50.6 47.3002C50.6 45.9002 50.6 44.4002 50.6 43.0002C46.8 42.4002 40.9 41.7002 37.5 43.7002C35.2 45.1002 33.5 47.6002 33.6 50.3002C33.6 51.2002 33.8 52.1002 34.3 52.8002C35.5 54.6002 37.9 55.1002 40.1 55.2002C42.4 55.3002 45.7 54.9002 47.4 56.8002C49.5 59.0002 47.2 61.1002 44.8 61.3002C41.1 61.7002 37.3 61.8002 33.6 61.7002C33.5 63.2002 33.4 64.7003 33.4 66.1003C37.7 67.2003 42.3 67.3003 46.6 66.6003C50.3 66.0003 52.8 64.2003 53.8 60.6003C54.5 58.2003 54.3 55.4003 52.6 53.6003C51.2 52.1003 49.2 51.5002 47.2 51.3002C45.2 51.1002 43.2 51.2002 41.2 50.8002C40.3 50.6002 39.2 50.1002 39.2 49.2002C39 47.9002 40.5 47.4002 41.7 47.3002Z" fill="white"/>
<path d="M41.7 47.8003C44.7 47.8003 47.6 47.6003 50.6 47.8003C50.9 47.8003 51.1 47.5003 51.1 47.3003C51.1 45.9003 51.1 44.4002 51.1 43.0002C51.1 42.8002 50.9 42.5002 50.7 42.5002C47.3 41.9002 43.7 41.5002 40.2 42.2002C36.8 42.9002 33.8 45.3003 33.1 48.8003C32.8 50.6003 33 52.5003 34.3 53.8003C35.5 55.0003 37.2 55.5002 38.8 55.7002C40.5 55.9002 42.1 55.7002 43.8 55.9002C44.6 56.0002 45.5 56.2003 46.2 56.6003C46.9 57.0003 47.7 57.9003 47.4 58.8003C47.2 59.7003 46.2 60.3002 45.3 60.5002C44.1 60.9002 42.8 60.9002 41.6 60.9002C38.8 61.1002 36.1 61.1002 33.3 61.0002C33 61.0002 32.8 61.3002 32.8 61.5002C32.7 63.0002 32.6 64.5002 32.6 65.9002C32.6 66.1002 32.8 66.4002 33 66.4002C36.9 67.3002 40.9 67.6003 44.9 67.1003C47.6 66.8003 50.4 66.1002 52.3 64.0002C54.1 61.9002 54.9 58.7002 54.3 56.0002C53.6 52.7002 50.7 51.0003 47.5 50.6003C45.3 50.3003 43 50.5002 40.9 50.0002C40.3 49.9002 39.1 49.4003 39.5 48.6003C40 48.0003 41.1 47.9003 41.7 47.8003C42.4 47.7003 42.4 46.7002 41.7 46.7002C40.6 46.8002 39.1 47.1003 38.6 48.3003C38.1 49.6003 39.2 50.6002 40.4 51.0002C42.2 51.6002 44.2 51.4003 46 51.6003C47.7 51.7003 49.5 52.0002 50.9 52.9002C53.8 54.7002 53.9 58.5002 52.7 61.4002C51.6 64.0002 49.3 65.4002 46.6 65.9002C42.2 66.8002 37.6 66.5002 33.3 65.5002C33.4 65.7002 33.6 65.8002 33.7 66.0002C33.8 64.5002 33.9 63.0003 33.9 61.6003C33.7 61.8003 33.5 62.0003 33.4 62.1003C35.8 62.2003 38.2 62.2003 40.6 62.1003C41.8 62.0003 42.9 62.0003 44.1 61.8003C45 61.7003 45.9 61.6003 46.7 61.1003C48 60.4003 49.1 59.0002 48.5 57.5002C47.9 56.0002 46.3 55.1003 44.8 54.8003C43.2 54.5003 41.5 54.6002 39.9 54.5002C38.2 54.4002 36.2 54.1002 35 52.7002C33.7 51.2002 33.9 48.9002 34.8 47.2002C35.6 45.6002 37 44.2002 38.7 43.5002C40.5 42.8002 42.6 42.6002 44.6 42.7002C46.6 42.7002 48.6 43.0003 50.5 43.3003C50.4 43.1003 50.2 43.0003 50.1 42.8003C50.1 44.2003 50.1 45.7003 50.1 47.1003C50.3 46.9003 50.5 46.7003 50.6 46.6003C47.6 46.4003 44.7 46.6003 41.7 46.6003C41 46.7003 41 47.8003 41.7 47.8003Z" fill="white"/>
<path d="M40.4 46.1003C40.4 46.2003 40.4 46.3002 40.5 46.3002C40.6 46.4002 40.7 46.4002 40.8 46.4002C42.1 46.4002 43.4 46.4002 44.7 46.4002C44.7 43.8002 44.7 41.1002 44.7 38.5002C44.7 38.5002 40.7 38.7002 40.3 38.8002C40 38.8002 40.4 45.7003 40.4 46.1003Z" fill="white"/>
<path d="M39.8 46.1002C39.8 47.1002 41 46.9001 41.8 46.9001C42.8 46.9001 43.7 46.9001 44.7 46.9001C45 46.9001 45.2 46.7001 45.2 46.4001C45.2 43.8001 45.2 41.1002 45.2 38.5002C45.2 38.1002 44.7 37.8002 44.4 38.0002C44.4 38.0002 44.7 37.9001 44.6 37.9001C44.5 37.9001 44.5 37.9001 44.4 37.9001C44.2 37.9001 44 37.9001 43.8 37.9001C43.3 37.9001 42.8 38.0002 42.2 38.0002C41.7 38.0002 41.2 38.1002 40.7 38.1002C40.3 38.1002 39.9 38.1002 39.7 38.5002C39.6 38.7002 39.6 39.0001 39.6 39.2001C39.6 39.6001 39.6 40.0001 39.6 40.4001C39.6 41.5001 39.7 42.6002 39.7 43.6002C39.8 44.6002 39.8 45.3002 39.8 46.1002C39.8 46.8002 40.9 46.8002 40.9 46.1002C40.9 44.4002 40.8 42.8002 40.7 41.1002C40.7 40.4002 40.7 39.7001 40.7 38.9001C40.7 38.8001 40.7 39.0001 40.7 38.9001C40.6 39.1001 40 39.2002 40.3 39.3002C40.4 39.3002 40.6 39.3002 40.7 39.3002C41.2 39.3002 41.7 39.2001 42.2 39.2001C42.8 39.2001 43.3 39.1002 43.9 39.1002C44.2 39.1002 44.7 39.1002 44.9 39.0002C44.6 38.8002 44.4 38.7002 44.1 38.5002C44.1 41.1002 44.1 43.8001 44.1 46.4001C44.3 46.2001 44.5 46.0001 44.6 45.9001C43.9 45.9001 43.3 45.9001 42.6 45.9001C42.3 45.9001 42 45.9001 41.7 45.9001C41.5 45.9001 41.4 45.9001 41.2 45.9001C41.1 45.9001 41 45.9001 40.9 45.9001C40.7 45.9001 40.7 45.9002 40.9 46.1002C40.9 45.4002 39.8 45.4002 39.8 46.1002Z" fill="white"/>
<path d="M40.4 70.6002C40.4 70.7002 40.4 70.8001 40.5 70.9001C40.6 71.0001 40.7 71.0002 40.8 71.0002C42.1 71.0002 43.4 71.0002 44.7 71.0002C44.7 68.0002 44.7 65.0001 44.7 61.9001C44.7 61.9001 40.7 62.2001 40.3 62.2001C40 62.2001 40.4 70.1002 40.4 70.6002Z" fill="white"/>
<path d="M39.8 70.6001C39.8 71.6001 40.9 71.5 41.6 71.5C42.6 71.5 43.6 71.5 44.6 71.5C44.9 71.5 45.1 71.3 45.1 71C45.1 68 45.1 65 45.1 61.9C45.1 61.5 44.6 61.2 44.3 61.4C44.4 61.4 44.6 61.4 44.5 61.3C44.4 61.3 44.3 61.3 44.3 61.3C44.1 61.3 43.8 61.3 43.6 61.4C43 61.4 42.4 61.5 41.9 61.5C41.4 61.5 40.9 61.6001 40.4 61.6001C40 61.6001 39.7 61.8 39.6 62.2C39.5 62.9 39.6 63.7 39.6 64.5C39.6 65.7 39.7 66.9001 39.7 68.1001C39.8 68.9001 39.8 69.8001 39.8 70.6001C39.8 71.3001 40.9 71.3001 40.9 70.6001C40.9 68.8001 40.8 67 40.7 65.2C40.7 64.3 40.6 63.4001 40.7 62.6001C40.7 62.5001 40.7 62.5 40.7 62.4C40.7 62.4 40.7 62.4 40.7 62.3C40.7 62.2 40.7 62.3 40.7 62.3C40.8 62.4 40.2 62.7 40.2 62.7C40.2 62.7 40.3 62.7 40.4 62.7C40.9 62.7 41.4 62.6001 41.8 62.6001C42.4 62.6001 43.1 62.5 43.7 62.5C44 62.5 44.6 62.5 44.8 62.3C44.5 62.1 44.3 62 44 61.8C44 64.8 44 67.8 44 70.9C44.2 70.7 44.4 70.5 44.5 70.4C43.8 70.4 43.1 70.4 42.5 70.4C42.2 70.4 41.9 70.4 41.5 70.4C41.3 70.4 41.1 70.4 41 70.4C40.9 70.4 40.9 70.4 40.8 70.4C40.6 70.4 40.6 70.4001 40.8 70.6001C40.9 69.9001 39.8 69.9001 39.8 70.6001Z" fill="white"/>
</svg>
