<svg width="375" height="417" viewBox="0 0 375 417" fill="none" xmlns="http://www.w3.org/2000/svg">
<path fill-rule="evenodd" clip-rule="evenodd" d="M101.797 339.171H86.5922C85.8458 339.171 85.2408 338.566 85.2408 337.82C85.2408 337.073 85.8458 336.468 86.5922 336.468H101.797C102.544 336.468 103.149 337.073 103.149 337.82C103.149 338.566 102.544 339.171 101.797 339.171Z" fill="#FF473D"/>
<path fill-rule="evenodd" clip-rule="evenodd" d="M122.597 339.171H107.391C106.645 339.171 106.04 338.566 106.04 337.82C106.04 337.073 106.645 336.468 107.391 336.468H122.597C123.343 336.468 123.948 337.073 123.948 337.82C123.948 338.566 123.343 339.171 122.597 339.171Z" fill="#EAEAEA"/>
<path fill-rule="evenodd" clip-rule="evenodd" d="M143.396 339.171H128.19C127.444 339.171 126.839 338.566 126.839 337.82C126.839 337.073 127.444 336.468 128.19 336.468H143.396C144.142 336.468 144.747 337.073 144.747 337.82C144.747 338.566 144.142 339.171 143.396 339.171Z" fill="#EAEAEA"/>
<mask id="mask0" mask-type="alpha" maskUnits="userSpaceOnUse" x="31" y="0" width="344" height="394">
<path fill-rule="evenodd" clip-rule="evenodd" d="M31.0231 0.324707H374.745V393.648H31.0231V0.324707Z" fill="white"/>
</mask>
<g mask="url(#mask0)">
<path fill-rule="evenodd" clip-rule="evenodd" d="M1074.35 185.373C1074.5 201.471 1071.81 217.555 1066.39 232.959C1065.41 235.775 1064.33 238.565 1063.16 241.328C1062.27 243.45 1061.32 245.559 1060.31 247.655C1059.29 249.79 1058.21 251.912 1057.07 254.007L1057.05 254.02C1045.21 275.947 1027.37 295.607 1003.97 310.657H1003.95C1000.06 313.185 996.015 315.556 991.81 317.782C990.893 318.28 989.964 318.765 989.033 319.236C988.641 319.446 988.248 319.642 987.855 319.839C987.803 319.865 987.75 319.891 987.698 319.917C987.475 320.035 987.239 320.153 987.004 320.258C983.139 322.17 979.158 323.978 975.045 325.641C973.198 326.401 971.338 327.134 969.452 327.828C967.671 328.497 965.863 329.125 964.042 329.728C963.689 329.859 963.348 329.976 962.995 330.094C962.471 330.278 961.934 330.448 961.41 330.618C959.681 331.169 957.926 331.706 956.157 332.216C945.875 335.229 934.978 337.521 923.451 339.014C918.12 339.708 911.781 340.324 904.812 340.848C903.503 340.953 902.167 341.044 900.818 341.136C899.743 341.215 898.656 341.293 897.543 341.359C877.175 342.669 852.826 343.363 832.157 343.415C830.612 343.428 829.092 343.428 827.586 343.428C826.813 343.428 826.04 343.428 825.281 343.415C819.871 343.402 814.815 343.337 810.257 343.219C795.692 342.865 780.865 342.119 765.841 341.097C761.375 340.783 756.895 340.455 752.403 340.101C751.067 339.984 749.718 339.879 748.368 339.774C745.435 339.525 742.474 339.276 739.527 339.014C738.82 338.962 738.113 338.896 737.405 338.831C736.829 338.779 736.24 338.726 735.663 338.674C735.283 338.635 734.89 338.608 734.511 338.569C729.363 338.097 724.202 337.6 719.028 337.089C708.838 336.067 698.622 334.954 688.405 333.775C658.319 330.343 628.258 326.388 599.023 322.589C582.009 320.389 565.283 318.228 548.988 316.263C536.323 314.743 523.919 313.329 511.869 312.111C471.749 307.998 435.362 305.876 405.42 308.063C403.154 308.234 400.888 308.43 398.622 308.679C390.462 309.491 382.236 310.749 373.984 312.347C373.303 312.478 372.635 312.608 371.954 312.752C371.823 312.779 371.705 312.805 371.574 312.831C368.142 313.512 364.711 314.272 361.266 315.084C360.807 315.176 360.349 315.293 359.877 315.411C354.691 316.643 349.478 317.992 344.278 319.459C339.523 320.794 334.755 322.21 329.988 323.702C327.984 324.331 325.98 324.973 323.975 325.628C321.867 326.309 319.771 327.003 317.662 327.711C317.584 327.737 317.505 327.776 317.414 327.802C316.929 327.959 316.457 328.13 315.96 328.287C314.375 328.824 312.79 329.374 311.192 329.924C306.725 331.483 302.259 333.094 297.792 334.731C297.426 334.862 297.046 335.006 296.679 335.137C295.015 335.766 293.352 336.368 291.675 336.997C290.34 337.508 289.016 338.006 287.681 338.516C287.222 338.687 286.751 338.857 286.292 339.041C286.279 339.041 286.279 339.041 286.266 339.054C285.231 339.447 284.21 339.839 283.175 340.232C281.721 340.796 280.28 341.346 278.813 341.922C272.369 344.411 265.938 346.965 259.559 349.493C235.694 359.028 212.327 368.603 189.982 376.396C181.913 379.226 173.963 381.819 166.169 384.085C148.539 389.206 131.708 392.677 115.977 393.463C113.659 393.594 111.367 393.66 109.1 393.647C95.8976 393.634 83.533 391.551 72.1639 386.744C-8.9399 352.453 48.7313 265.062 85.0787 211.111C101.045 187.403 102.119 175.549 96.7751 164.822C89.9511 151.135 72.6878 139.268 62.6287 106.955C44.6579 49.2835 100.954 -2.45422 262.021 0.440676C352.805 2.07757 397.482 16.7739 561.825 50.2657C626.634 63.4689 688.942 56.2255 746.548 47.764C750.936 47.122 755.31 46.4674 759.646 45.8254C760.812 45.6421 761.964 45.4721 763.117 45.3015C763.628 45.223 764.138 45.1445 764.636 45.079C845.596 32.9106 939.784 9.97592 1022.28 78.5708C1050.94 102.396 1067.4 132.771 1072.57 164.364C1072.94 166.525 1073.25 168.699 1073.48 170.86C1074.04 175.681 1074.33 180.527 1074.35 185.373Z" fill="#EBF0FC"/>
</g>
<mask id="mask1" mask-type="alpha" maskUnits="userSpaceOnUse" x="59" y="0" width="316" height="230">
<path fill-rule="evenodd" clip-rule="evenodd" d="M59.4194 0.324707H374.745V229.152H59.4194V0.324707Z" fill="white"/>
</mask>
<g mask="url(#mask1)">
<path fill-rule="evenodd" clip-rule="evenodd" d="M1074.35 185.373C1051.04 164.521 1017.76 137.827 969.452 112.521C834.436 41.8042 864.772 137.395 774.512 203.265C684.253 269.123 683.388 197.148 560.109 123.157C436.816 49.1524 477.067 176.689 358.803 186.893C251.608 196.14 149.652 138.953 96.7751 164.822C89.9511 151.135 72.6878 139.268 62.6287 106.955C44.6579 49.2835 100.954 -2.45422 262.021 0.440676C352.805 2.07757 397.482 16.7739 561.825 50.2657C626.634 63.4689 688.942 56.2255 746.548 47.764C750.936 47.122 755.31 46.4674 759.646 45.8254C760.812 45.6421 761.964 45.4721 763.117 45.3015C763.628 45.223 764.138 45.1445 764.636 45.079C845.596 32.9106 939.784 9.97592 1022.28 78.5708C1050.94 102.396 1067.4 132.771 1072.57 164.364C1072.94 166.525 1073.25 168.699 1073.48 170.86C1074.04 175.681 1074.33 180.527 1074.35 185.373Z" fill="#F5F7FC"/>
</g>
<mask id="mask2" mask-type="alpha" maskUnits="userSpaceOnUse" x="270" y="202" width="105" height="140">
<path fill-rule="evenodd" clip-rule="evenodd" d="M270.352 202.367H374.745V341.924H270.352V202.367Z" fill="white"/>
</mask>
<g mask="url(#mask2)">
<path fill-rule="evenodd" clip-rule="evenodd" d="M397.675 237.289C391.942 245.706 381.051 252.897 378.049 261.73C375.048 270.563 380.5 279.726 374.925 288.167C370.221 295.261 359.061 299.769 352.445 306.274C348.341 310.305 346.197 314.837 344.274 319.456C339.52 320.791 334.755 322.213 329.989 323.707C327.98 324.332 325.983 324.969 323.974 325.631C321.867 326.304 319.772 327.003 317.665 327.713C317.579 327.738 317.505 327.774 317.42 327.799C316.93 327.958 316.452 328.13 315.962 328.289C314.369 328.828 312.789 329.379 311.196 329.931C306.725 331.486 302.253 333.091 297.794 334.733C297.426 334.868 297.046 335.002 296.679 335.137C295.013 335.762 293.347 336.375 291.681 336.999C290.345 337.502 289.022 338.004 287.687 338.518C287.221 338.69 286.756 338.861 286.29 339.045C286.278 339.045 286.278 339.045 286.266 339.057C285.237 339.45 284.208 339.841 283.179 340.233C281.721 340.797 280.275 341.348 278.817 341.924C278.082 341.397 277.396 340.834 276.759 340.246C271.577 335.566 269.2 329.404 270.891 323.242C272.14 318.721 275.252 314.433 278.131 310.108C278.413 309.68 278.695 309.263 278.964 308.847C279.65 307.769 280.312 306.703 280.912 305.625C281.084 305.306 281.267 304.976 281.439 304.657C281.5 304.547 281.537 304.437 281.598 304.338C284.832 298.017 285.837 291.328 287.466 284.786C289.145 278.097 291.472 271.592 297.463 265.858C307.57 256.192 325.775 251.268 336.176 241.736C344.359 234.227 346.577 224.916 352.58 216.647C358.583 208.365 372.046 200.365 384.261 202.816C405.553 208.463 407.978 222.196 397.675 237.289Z" fill="#C0D2FF"/>
</g>
<path fill-rule="evenodd" clip-rule="evenodd" d="M115.434 100.711C115.434 94.0463 120.866 88.6253 127.531 88.6253H148.827V112.751H115.434V100.711ZM340.65 88.0547H127.531C120.535 88.0547 114.863 93.7267 114.863 100.711V194.854C114.863 200.731 118.858 205.662 124.279 207.088C125.317 207.362 126.401 207.51 127.531 207.51H340.65C347.646 207.51 353.307 201.85 353.307 194.854V100.711C353.307 93.7267 347.646 88.0547 340.65 88.0547Z" fill="white"/>
<path fill-rule="evenodd" clip-rule="evenodd" d="M352.736 194.854C352.736 201.519 347.315 206.94 340.65 206.94H127.531C126.401 206.94 125.317 206.78 124.279 206.495C119.189 205.068 115.434 200.389 115.434 194.854V100.712C115.434 94.0466 120.866 88.6256 127.531 88.6256H340.65C347.315 88.6256 352.736 94.0466 352.736 100.712V194.854ZM340.65 87.4844H127.531C120.227 87.4844 114.292 93.4188 114.292 100.712V194.854C114.292 201.029 118.55 206.233 124.279 207.671C125.009 207.865 125.751 207.99 126.515 208.036C126.846 208.07 127.189 208.081 127.531 208.081H340.65C347.943 208.081 353.878 202.147 353.878 194.854V100.712C353.878 93.4188 347.943 87.4844 340.65 87.4844Z" fill="#C0D2FF"/>
<path fill-rule="evenodd" clip-rule="evenodd" d="M148.827 88.6255V112.752H115.434V100.711C115.434 94.0464 120.866 88.6255 127.531 88.6255H148.827Z" fill="white"/>
<mask id="mask3" mask-type="alpha" maskUnits="userSpaceOnUse" x="0" y="0" width="375" height="417">
<path fill-rule="evenodd" clip-rule="evenodd" d="M0 416.659H374.745V0.324707H0V416.659Z" fill="white"/>
</mask>
<g mask="url(#mask3)">
<path fill-rule="evenodd" clip-rule="evenodd" d="M329.991 207.51H331.132V88.0547H329.991V207.51Z" fill="#C0D2FF"/>
<path fill-rule="evenodd" clip-rule="evenodd" d="M304.107 207.51H305.248V88.0547H304.107V207.51Z" fill="#C0D2FF"/>
<path fill-rule="evenodd" clip-rule="evenodd" d="M278.234 207.51H279.376V88.0547H278.234V207.51Z" fill="#C0D2FF"/>
<path fill-rule="evenodd" clip-rule="evenodd" d="M252.351 207.51H253.492V88.0547H252.351V207.51Z" fill="#C0D2FF"/>
<path fill-rule="evenodd" clip-rule="evenodd" d="M226.467 207.51H227.608V88.0547H226.467V207.51Z" fill="#C0D2FF"/>
<path fill-rule="evenodd" clip-rule="evenodd" d="M200.594 207.51H201.736V88.0547H200.594V207.51Z" fill="#C0D2FF"/>
<path fill-rule="evenodd" clip-rule="evenodd" d="M174.711 207.51H175.852V88.0547H174.711V207.51Z" fill="#C0D2FF"/>
<path fill-rule="evenodd" clip-rule="evenodd" d="M148.827 207.51H149.968V88.0547H148.827V207.51Z" fill="#C0D2FF"/>
<path fill-rule="evenodd" clip-rule="evenodd" d="M114.863 191.533H353.307V190.392H114.863V191.533Z" fill="#C0D2FF"/>
<path fill-rule="evenodd" clip-rule="evenodd" d="M114.863 165.649H353.307V164.507H114.863V165.649Z" fill="#C0D2FF"/>
<path fill-rule="evenodd" clip-rule="evenodd" d="M114.863 139.765H353.307V138.624H114.863V139.765Z" fill="#C0D2FF"/>
<path fill-rule="evenodd" clip-rule="evenodd" d="M114.863 113.893H353.307V112.752H114.863V113.893Z" fill="#C0D2FF"/>
<path fill-rule="evenodd" clip-rule="evenodd" d="M125.134 204.001H139.495V193.676H125.134V204.001Z" fill="#C0D2FF"/>
<path fill-rule="evenodd" clip-rule="evenodd" d="M125.134 183.648H139.495V173.324H125.134V183.648Z" fill="#C0D2FF"/>
<path fill-rule="evenodd" clip-rule="evenodd" d="M125.134 156.38H139.495V146.056H125.134V156.38Z" fill="#C0D2FF"/>
<path fill-rule="evenodd" clip-rule="evenodd" d="M125.134 131.421H139.495V121.096H125.134V131.421Z" fill="#C0D2FF"/>
<path fill-rule="evenodd" clip-rule="evenodd" d="M284.34 147.765C285.844 150.36 287.194 153.075 288.818 155.369C289.021 155.651 289.239 155.898 289.45 156.122C289.647 156.329 289.9 156.505 289.906 156.48C289.921 156.47 289.72 156.429 289.594 156.489C289.532 156.505 289.492 156.557 289.492 156.536L289.486 156.543L289.544 156.447C289.714 156.178 289.887 155.89 290.058 155.566C290.758 154.315 291.458 152.998 292.141 151.685C293.566 149.078 295.008 146.46 296.651 143.948C298.292 141.451 300.029 138.926 302.315 136.917C300.856 139.549 299.655 142.238 298.336 144.898C297.055 147.572 295.716 150.22 294.323 152.858C293.59 154.163 292.887 155.473 292.06 156.779C291.858 157.098 291.624 157.433 291.367 157.774L291.266 157.907L291.068 158.117C290.953 158.247 290.748 158.388 290.523 158.494C290.318 158.603 290.014 158.643 289.772 158.648C289.553 158.626 289.276 158.583 289.133 158.503C288.449 158.188 288.167 157.812 287.874 157.467C287.616 157.113 287.388 156.763 287.197 156.413C285.705 153.623 284.901 150.741 284.34 147.765Z" fill="#05009F"/>
<path fill-rule="evenodd" clip-rule="evenodd" d="M231.949 174.954C233.453 177.55 234.802 180.265 236.426 182.559C236.629 182.841 236.847 183.088 237.059 183.312C237.256 183.519 237.509 183.695 237.515 183.669C237.53 183.659 237.329 183.618 237.202 183.678C237.141 183.694 237.101 183.747 237.101 183.726L237.094 183.732L237.153 183.637C237.323 183.368 237.495 183.08 237.667 182.755C238.366 181.505 239.066 180.188 239.749 178.875C241.174 176.268 242.617 173.65 244.26 171.137C245.9 168.641 247.638 166.116 249.924 164.107C248.464 166.738 247.264 169.427 245.945 172.088C244.663 174.762 243.324 177.409 241.932 180.048C241.198 181.352 240.496 182.662 239.669 183.968C239.466 184.288 239.232 184.623 238.975 184.964L238.874 185.097L238.676 185.307C238.562 185.437 238.356 185.577 238.131 185.684C237.926 185.793 237.622 185.833 237.381 185.837C237.162 185.816 236.884 185.773 236.742 185.693C236.058 185.378 235.776 185.002 235.483 184.656C235.224 184.303 234.996 183.953 234.806 183.603C233.314 180.813 232.51 177.931 231.949 174.954Z" fill="#05009F"/>
<path fill-rule="evenodd" clip-rule="evenodd" d="M310.875 170.796C312.71 171.312 314.37 172.339 315.856 173.513C317.347 174.696 318.65 176.076 319.833 177.537C321.02 178.998 322.027 180.586 322.924 182.228C323.81 183.874 324.58 185.592 325.045 187.44C322.474 184.666 320.319 181.769 318.05 178.961C316.914 177.566 315.812 176.146 314.629 174.795C313.439 173.445 312.23 172.131 310.875 170.796Z" fill="#FE5900"/>
<path fill-rule="evenodd" clip-rule="evenodd" d="M326.139 171.868C325.659 173.713 324.666 175.393 323.522 176.902C322.369 178.417 321.015 179.747 319.578 180.959C318.141 182.175 316.573 183.213 314.95 184.143C313.321 185.061 311.619 185.865 309.781 186.368C312.503 183.742 315.357 181.529 318.119 179.205C319.491 178.042 320.889 176.911 322.216 175.701C323.541 174.484 324.832 173.25 326.139 171.868Z" fill="#FE5900"/>
<path fill-rule="evenodd" clip-rule="evenodd" d="M231.181 119.326C233.016 119.842 234.676 120.868 236.162 122.043C237.654 123.226 238.957 124.606 240.14 126.067C241.327 127.528 242.333 129.116 243.231 130.758C244.117 132.404 244.887 134.122 245.352 135.97C242.781 133.196 240.626 130.298 238.357 127.491C237.221 126.095 236.119 124.676 234.935 123.325C233.746 121.975 232.537 120.66 231.181 119.326Z" fill="#FE5900"/>
<path fill-rule="evenodd" clip-rule="evenodd" d="M246.445 120.397C245.966 122.243 244.973 123.923 243.828 125.432C242.675 126.946 241.322 128.277 239.884 129.489C238.448 130.704 236.88 131.743 235.257 132.673C233.628 133.591 231.926 134.395 230.088 134.898C232.81 132.272 235.664 130.059 238.425 127.734C239.798 126.571 241.195 125.441 242.522 124.231C243.848 123.014 245.138 121.78 246.445 120.397Z" fill="#FE5900"/>
<path fill-rule="evenodd" clip-rule="evenodd" d="M183.599 347.345C179.961 348.864 176.175 350.248 172.279 351.498C154.442 357.17 134.265 359.841 115.79 358.481C110.817 358.125 105.966 357.464 101.31 356.496C100.661 344.919 100.771 331.235 102.131 316.228C102.229 315.039 102.351 313.839 102.474 312.626C105.537 282.733 113.549 247.978 130.136 214.374C137.119 200.236 145.609 186.307 155.9 173.027C158.24 178.025 161.842 182.154 166.436 185.241C170.699 188.132 175.808 190.117 181.553 191.109C181.333 200.665 187.287 222.643 190.325 240.652C190.778 243.371 191.17 246.005 191.464 248.48C191.526 249.032 191.587 249.632 191.624 250.269C193.081 271.377 183.097 336.748 183.599 347.345Z" fill="#4152F3"/>
<path fill-rule="evenodd" clip-rule="evenodd" d="M134.116 210.368C124.795 225.914 137.811 255.163 150.369 265.117C162.926 275.071 182.987 289.619 182.987 289.619V261.135L134.116 210.368Z" fill="#322FE6"/>
<path fill-rule="evenodd" clip-rule="evenodd" d="M183.599 347.345C179.961 348.864 176.175 350.248 172.279 351.498C174.276 347.431 177.964 341.44 179.924 334.212C183.599 320.626 179.618 297.275 175.783 251.335C175.783 251.335 182.803 247.855 191.624 250.269C193.081 271.377 183.097 336.748 183.599 347.345Z" fill="#86A8FF"/>
<path fill-rule="evenodd" clip-rule="evenodd" d="M189.986 376.398C181.913 379.228 173.962 381.813 166.17 384.079C148.541 389.2 131.708 392.679 115.978 393.463C113.663 393.598 111.372 393.659 109.106 393.647C108.738 393.28 108.358 392.765 107.979 392.116C107.88 391.957 107.795 391.785 107.697 391.601C106.411 389.139 105.161 385.121 104.083 379.779C103.997 379.35 103.911 378.922 103.825 378.481C103.728 377.978 103.642 377.464 103.544 376.961C103.409 376.19 103.274 375.393 103.152 374.573C102.772 372.11 102.417 369.452 102.122 366.61C101.963 365.115 101.817 363.584 101.694 361.991C101.547 360.214 101.424 358.377 101.314 356.49C105.969 357.458 110.821 358.119 115.795 358.475C134.269 359.835 154.446 357.164 172.283 351.492L172.296 351.48C172.945 351.272 173.594 351.063 174.231 350.843C174.55 350.732 174.868 350.634 175.187 350.524C175.456 350.438 175.726 350.34 175.995 350.242C176.412 350.095 176.816 349.961 177.233 349.801C177.674 349.654 178.103 349.495 178.544 349.324C179.107 349.128 179.671 348.907 180.222 348.686C181.361 348.258 182.489 347.804 183.603 347.339V347.498C184.13 356.466 190.562 368.839 189.986 376.398Z" fill="#421CBF"/>
<path fill-rule="evenodd" clip-rule="evenodd" d="M190.325 240.652C190.227 241.019 190.178 241.227 190.178 241.227C190.178 241.227 184.702 220.658 183.759 217.412C182.803 214.165 181.529 203.936 177.314 197.663C173.113 191.378 166.522 189.161 166.436 185.241C170.699 188.132 175.808 190.117 181.553 191.109C181.333 200.665 187.287 222.643 190.325 240.652Z" fill="#86A8FF"/>
<path fill-rule="evenodd" clip-rule="evenodd" d="M171.14 278.997C163.483 289.717 145.928 322.77 134.289 334.212C126.277 342.101 122.234 352.012 115.791 358.481C110.817 358.126 105.965 357.464 101.31 356.496C100.611 344.001 100.795 329.042 102.474 312.626C109.04 314.035 117.616 314.304 128.458 306.672C152.261 289.925 158.411 273.178 165.137 274.611C171.863 276.045 171.14 278.997 171.14 278.997Z" fill="#322FE6"/>
<path fill-rule="evenodd" clip-rule="evenodd" d="M147.459 294.213C147.459 294.213 126.326 321.642 103.356 316.497C102.952 316.411 102.547 316.313 102.131 316.228C102.229 315.039 102.351 313.838 102.474 312.625C105.537 282.734 113.549 247.978 130.136 214.374C133.873 212.132 136.041 211.237 136.041 211.237C128.63 230.814 124.501 239.488 120.507 255.438C116.526 271.401 116.232 296.197 120.507 297.275C124.795 298.353 143.012 291.971 160.163 268.584C177.314 245.209 147.459 294.213 147.459 294.213Z" fill="#322FE6"/>
<path fill-rule="evenodd" clip-rule="evenodd" d="M189.986 376.398C181.913 379.228 173.962 381.813 166.17 384.079C165.95 383.736 165.717 383.393 165.484 383.026C161.135 376.288 165.227 361.44 172.283 351.492L172.296 351.48C172.945 351.272 173.594 351.063 174.231 350.843C177.453 349.777 180.578 348.601 183.603 347.339V347.498C184.13 356.466 190.562 368.839 189.986 376.398Z" fill="#322FE6"/>
<path fill-rule="evenodd" clip-rule="evenodd" d="M115.978 393.463C113.663 393.598 111.372 393.659 109.105 393.647C108.738 393.28 108.358 392.765 107.979 392.116C107.881 391.957 107.795 391.785 107.697 391.601C106.41 389.139 105.161 385.121 104.083 379.779C103.997 379.35 103.911 378.922 103.826 378.481C103.727 377.978 103.642 377.464 103.544 376.961C103.409 376.19 103.274 375.393 103.152 374.573C102.772 372.11 102.429 369.452 102.123 366.61C101.963 365.115 101.816 363.584 101.694 361.991C101.547 360.215 101.424 358.377 101.314 356.49C105.97 357.458 110.821 358.12 115.795 358.475C109.179 370.628 109.179 388.845 114.998 392.826C115.329 393.047 115.648 393.255 115.978 393.463Z" fill="#211280"/>
<path fill-rule="evenodd" clip-rule="evenodd" d="M220.964 151.22C220.646 151.735 220.254 152.237 219.813 152.703C218.771 153.83 217.51 154.822 216.518 155.667C215.525 156.525 214.79 157.223 214.839 157.762C214.876 158.105 214.876 159.686 214.459 161.756C214.435 161.866 214.41 161.989 214.386 162.111C213.381 166.742 210.294 173.554 201.118 175.048C199.709 175.281 198.141 175.379 196.426 175.33C195.372 175.306 194.27 175.22 193.094 175.073C192.138 174.95 190.876 175.257 189.529 176.004C186.907 177.45 183.979 180.537 182.509 185.204C181.958 186.919 181.615 188.855 181.553 190.999V191.109C177.327 190.374 173.431 189.113 169.976 187.324C168.739 186.699 167.563 186.001 166.436 185.241C161.842 182.154 158.24 178.025 155.9 173.027C161.903 165.284 168.506 157.75 175.783 150.534C175.783 150.534 179.311 144.139 183.158 138.773C185.78 135.123 188.536 131.95 190.435 131.582C195.14 130.663 210.245 131.582 210.245 131.582C213.357 132.979 214.778 134.902 215.451 136.862C216.383 139.558 215.892 142.338 216.419 143.931C217.338 146.688 222.802 148.231 220.964 151.22Z" fill="#FDB2D0"/>
<path fill-rule="evenodd" clip-rule="evenodd" d="M220.964 151.22C220.646 151.735 220.254 152.237 219.813 152.703C219.004 149.567 214.079 145.867 213.822 140.256C213.822 140.256 214.374 138.394 215.451 136.862C216.383 139.558 215.892 142.338 216.419 143.931C217.338 146.688 222.802 148.231 220.964 151.22Z" fill="#FCCDE0"/>
<path fill-rule="evenodd" clip-rule="evenodd" d="M214.386 162.111C213.381 166.742 210.294 173.554 201.118 175.049C205.173 172.745 210.392 168.127 214.386 162.111Z" fill="#FCCDE0"/>
<path fill-rule="evenodd" clip-rule="evenodd" d="M214.153 164.782C214.177 164.696 214.251 164.488 214.361 164.194C214.324 164.341 214.275 164.476 214.226 164.611C214.19 164.696 214.165 164.745 214.153 164.782Z" fill="#FE93BC"/>
<path fill-rule="evenodd" clip-rule="evenodd" d="M214.839 157.762C214.876 158.105 214.876 159.686 214.459 161.756C214.324 160.2 213.957 158.632 214.018 157.897C214.116 156.856 214.717 156.403 216.517 155.667C215.525 156.525 214.79 157.223 214.839 157.762Z" fill="#FE93BC"/>
<path fill-rule="evenodd" clip-rule="evenodd" d="M199.755 147.372C202.18 148.351 203.328 146.334 203.328 146.334C203.328 146.334 204.298 145.722 207.106 146.615C209.913 147.508 213.333 142.582 213.333 142.582C213.333 142.582 204.834 138.779 202.231 141.332C199.627 143.884 199.755 147.372 199.755 147.372Z" fill="#FE93BC"/>
<path fill-rule="evenodd" clip-rule="evenodd" d="M194.931 154.344C192.077 155.68 187.177 159.808 185.694 160.935C184.212 162.05 179.875 163.079 174.313 163.594C168.739 164.096 160.678 174.46 164.61 180.512C165.97 182.595 166.546 184.273 166.436 185.241C161.842 182.154 158.24 178.025 155.9 173.027C161.903 165.285 168.506 157.75 175.783 150.534C175.783 150.534 179.311 144.14 183.158 138.773C183.465 138.798 183.758 138.847 184.052 138.933C193.241 141.542 194.931 154.344 194.931 154.344Z" fill="#FE93BC"/>
<path fill-rule="evenodd" clip-rule="evenodd" d="M212.009 144.372C207.182 148.66 203.813 143.147 203.813 143.147C204.61 149.456 200.346 146.957 197.039 147.484C196.536 147.557 196.059 147.704 195.617 147.962C194.846 148.415 194.306 149.309 193.792 150.449C192.126 154.161 190.79 160.47 182.938 162.822C172.671 165.885 170.576 154.344 173.59 143.956C173.59 143.956 189.137 137.451 201.057 133.812C206.386 132.183 210.992 131.129 213.161 131.497C213.699 131.582 214.092 131.754 214.3 132.035C217.216 135.944 216.836 140.084 212.009 144.372Z" fill="#05009F"/>
<path fill-rule="evenodd" clip-rule="evenodd" d="M212.009 144.372C207.182 148.66 203.813 143.147 203.813 143.147C204.61 149.456 200.346 146.957 197.038 147.484C196.928 147.41 196.867 147.374 196.867 147.374C196.867 147.374 198.398 146.737 199.758 145.217C201.106 143.674 201.057 139.594 204.07 139.705C207.084 139.803 207.893 139.337 208.358 134.192C208.358 134.192 210.331 132.82 213.161 131.497C213.699 131.582 214.092 131.754 214.3 132.035C217.215 135.944 216.836 140.084 212.009 144.372Z" fill="#322FE6"/>
<path fill-rule="evenodd" clip-rule="evenodd" d="M202.429 134.106C199.685 136.482 200.518 141.922 198.606 142.449C196.695 142.988 192.248 141.615 189.467 143.527C186.686 145.438 186.049 144.825 183.661 145.671C181.259 146.516 178.221 144.568 177.854 148.427C177.498 152.286 186.588 150.032 189.467 148.427C189.467 148.427 191.477 149.174 193.792 150.448C192.126 154.16 190.79 160.469 182.938 162.822C172.671 165.885 170.576 154.344 173.59 143.956C173.59 143.956 189.137 137.45 201.057 133.812C202.343 133.628 202.907 133.701 202.429 134.106Z" fill="#040078"/>
<path fill-rule="evenodd" clip-rule="evenodd" d="M196.23 155.851C194.662 153.621 185.976 151.955 187.801 147.655L187.814 147.643C187.85 147.533 187.899 147.423 187.96 147.312C190.276 143.012 195.96 142.669 200.322 147.288C200.579 147.545 200.824 147.827 201.057 148.121C201.057 148.121 202.943 155.116 196.23 155.851Z" fill="#FDB2D0"/>
<path fill-rule="evenodd" clip-rule="evenodd" d="M196.426 175.33C195.372 175.306 194.27 175.22 193.094 175.073C190.264 174.705 184.726 178.16 182.509 185.204C183.17 182.289 184.935 178.307 186.968 176.396C189.578 173.933 188.095 170.515 187.997 170.283C190.153 172.084 192.493 174.215 196.426 175.33Z" fill="#FE93BC"/>
<path fill-rule="evenodd" clip-rule="evenodd" d="M212.229 134.485C210.233 135.098 207.244 136.029 203.629 137.119C203.066 137.291 202.478 137.475 201.877 137.658C201.865 137.671 201.853 137.683 201.841 137.683C198.251 138.773 194.159 139.998 189.872 141.26C189.86 141.272 189.835 141.272 189.811 141.285C171.177 146.724 148.929 152.629 148.525 149.799C147.912 145.511 175.942 144.751 177.474 134.485C178.54 127.355 180.941 118.878 188.757 114.908C189.676 114.443 190.68 114.026 191.758 113.696C194.674 112.789 198.19 112.409 202.429 112.752C202.992 112.801 203.556 112.85 204.095 112.924C222.055 115.129 229.626 129.12 212.229 134.485Z" fill="#FDA218"/>
<path fill-rule="evenodd" clip-rule="evenodd" d="M200.322 147.288C194.944 145.658 190.974 144.078 187.813 147.643C187.85 147.533 187.899 147.423 187.961 147.312C190.276 143.012 195.96 142.669 200.322 147.288Z" fill="#FCCDE0"/>
<path fill-rule="evenodd" clip-rule="evenodd" d="M212.229 134.485C210.233 135.098 207.244 136.029 203.629 137.119C208.983 133.187 216.174 126.988 214.153 123.386C211.005 117.799 200.75 114.431 194.429 115.203L191.758 113.696C194.674 112.789 198.19 112.409 202.429 112.752C202.992 112.801 203.556 112.85 204.095 112.924C222.055 115.129 229.626 129.12 212.229 134.485Z" fill="#FFBE71"/>
<path fill-rule="evenodd" clip-rule="evenodd" d="M189.81 141.285C171.177 146.724 148.929 152.629 148.525 149.799C147.912 145.511 175.943 144.752 177.474 134.486C178.539 127.356 180.941 118.878 188.757 114.909C188.928 115.166 189.014 115.448 189.014 115.754C183.342 120.25 180.463 129.585 180.769 134.645C181.075 139.704 171.801 142.608 176.322 142.914C179.189 143.11 185.535 142.069 189.81 141.285Z" fill="#FC8000"/>
<path fill-rule="evenodd" clip-rule="evenodd" d="M187.04 114.209C187.338 116.375 189.611 117.851 192.118 117.507C194.626 117.163 196.417 115.128 196.12 112.963C195.823 110.797 193.549 109.32 191.042 109.665C188.534 110.009 186.743 112.043 187.04 114.209Z" fill="#FDA218"/>
<path fill-rule="evenodd" clip-rule="evenodd" d="M193.323 110.468C191.371 110.047 189.744 110.354 191.084 111.311C192.424 112.268 193.764 113.263 193.668 114.354C193.572 115.445 196.003 114.182 195.582 112.478C195.161 110.775 193.323 110.468 193.323 110.468Z" fill="#FFBE71"/>
<path fill-rule="evenodd" clip-rule="evenodd" d="M165.737 252.964L182.986 253.785C178.001 266.771 163.643 286.286 147.778 304.16V304.173C135.772 317.71 122.908 330.291 112.581 338.377C108.869 341.293 105.475 343.62 102.584 345.201C80.9978 356.999 54.6586 349.648 53.1272 308.301C51.596 266.954 69.9723 229.283 94.2656 215.599C117.04 202.784 113.267 191.758 135.894 186.895C137.413 186.564 139.043 186.27 140.819 186C145.389 185.302 149.664 185.388 153.633 186.148C174.203 190.019 186.625 211.654 187.985 234.588L182.705 232.211L175.367 228.916L133.407 210.049C118.841 229.418 105.292 297.888 105.5 300.13C105.512 300.216 105.537 300.301 105.586 300.399C106.688 302.813 119.539 307.872 139.398 291.554C160.016 274.611 165.737 252.964 165.737 252.964Z" fill="#FDA218"/>
<path fill-rule="evenodd" clip-rule="evenodd" d="M133.407 210.049C118.841 229.418 105.292 297.888 105.5 300.13C102.584 288.7 112.997 252.413 117.445 238.937C121.891 225.461 132.807 196.352 149.456 198.509C157.701 199.562 167.636 212.965 175.367 228.915L133.407 210.049Z" fill="#FC8000"/>
<path fill-rule="evenodd" clip-rule="evenodd" d="M187.985 234.587L182.705 232.211C170.821 220.07 152.053 202.784 147.974 200.897C142.461 198.349 158.999 192.628 151.441 193.241C143.882 193.853 139.043 193.523 144.85 191.109C149.958 188.99 147.594 186.674 153.633 186.147C174.203 190.018 186.625 211.654 187.985 234.587Z" fill="#FFBE71"/>
<path fill-rule="evenodd" clip-rule="evenodd" d="M182.987 253.785C178.001 266.771 163.643 286.286 147.777 304.16C147.41 296.222 145.511 291.726 140.268 296.969C133.579 303.658 108.82 311.45 105.585 300.399C106.688 302.813 119.539 307.872 139.398 291.554C160.016 274.611 165.738 252.964 165.738 252.964L182.987 253.785Z" fill="#FC8000"/>
<path fill-rule="evenodd" clip-rule="evenodd" d="M137.756 188.953C125.542 192.261 123.472 195.997 113.157 205.7C102.841 215.403 97.3287 211.727 87.1113 224.027C76.8941 236.327 71.1971 268.486 69.3108 283.003C67.4241 297.52 65.4761 316.472 71.43 327.988C76.8082 338.402 88.9613 349.109 112.581 338.377C108.869 341.293 105.475 343.621 102.584 345.201C80.9981 356.998 54.6585 349.648 53.1274 308.301C51.5959 266.954 69.9722 229.283 94.2658 215.599C117.04 202.784 113.267 191.758 135.894 186.895C140.194 187.532 146.148 186.687 137.756 188.953Z" fill="#FC8000"/>
<path fill-rule="evenodd" clip-rule="evenodd" d="M79.9199 334.175C67.9384 333.575 66.1744 311.144 67.6568 294.286C68.0367 290.011 68.6248 286.103 69.3106 283.003C76.1099 286.813 89.206 284.02 95.1357 279.12C95.4909 281.239 95.0987 284.216 95.3559 291.248C95.4785 294.58 95.7481 298.831 96.3116 304.32C98.4555 325.306 95.2336 334.947 79.9199 334.175Z" fill="#E8740C"/>
<path fill-rule="evenodd" clip-rule="evenodd" d="M95.1356 279.12C89.2063 284.02 76.1098 286.813 69.3109 283.003C69.3718 282.697 69.4331 282.403 69.5068 282.109C72.5694 267.028 92.6364 273.741 94.4738 277.16C94.817 277.796 95.0253 278.409 95.1356 279.12Z" fill="#FC8000"/>
<path fill-rule="evenodd" clip-rule="evenodd" d="M76.9061 285.859C76.9061 288.678 79.1915 290.963 82.0108 290.963C84.8298 290.963 87.1151 288.678 87.1151 285.859C87.1151 283.04 84.8298 280.754 82.0108 280.754C79.1915 280.754 76.9061 283.04 76.9061 285.859Z" fill="#914B0C"/>
<path fill-rule="evenodd" clip-rule="evenodd" d="M284.779 160.445C282.844 163.924 270.679 170.075 279.769 173.444C282.476 174.448 283.125 175.93 282.231 177.927C282.244 177.927 282.244 177.927 282.231 177.94C280.724 181.272 274.917 186.037 267.334 192.371C264.259 194.932 260.902 197.761 257.411 200.849C245.993 210.944 228.217 291.052 211.47 293.698C200.175 295.487 189.259 288.087 173.945 277.38C182.717 270.703 194.221 256.406 198.362 245.736C202.368 251.139 206.104 254.532 208.922 252.964C217.338 248.272 241.595 205.296 246.312 195.752C252.437 183.342 265.447 168.874 275.027 161.67C284.595 154.479 286.727 156.978 284.779 160.445Z" fill="#FDB2D0"/>
<path fill-rule="evenodd" clip-rule="evenodd" d="M267.334 192.371C264.259 194.932 260.902 197.761 257.411 200.848C245.993 210.943 228.217 291.052 211.47 293.698C200.175 295.487 189.259 288.087 173.946 277.38C182.717 270.703 194.221 256.406 198.361 245.736C198.459 255.01 202.429 279.818 212.695 272.614C222.961 265.423 234.747 240.468 240.566 227.445C246.385 214.423 251.432 203.25 253.883 200.947C255.365 199.562 262.189 195.421 267.334 192.371Z" fill="#FE93BC"/>
<path fill-rule="evenodd" clip-rule="evenodd" d="M284.779 160.445C282.844 163.924 270.679 170.075 279.769 173.444C282.476 174.448 283.125 175.93 282.231 177.927C282.182 176.249 281.606 174.277 279.23 174.35C275.138 174.46 274.709 170.516 274.672 168.335C274.635 166.154 281.227 158.154 273.949 163.741C266.673 169.327 254.348 181.296 243.224 202.809C232.088 224.309 212.082 253.552 208.175 255.855C204.267 258.146 198.839 252.229 198.362 245.736C202.368 251.139 206.104 254.532 208.922 252.964C217.338 248.272 241.595 205.296 246.312 195.752C252.437 183.342 265.447 168.874 275.027 161.67C284.595 154.479 286.727 156.978 284.779 160.445Z" fill="#FCCDE0"/>
<path fill-rule="evenodd" clip-rule="evenodd" d="M198.362 245.736C196.989 249.264 194.821 253.184 192.212 257.092C186.919 265.019 179.814 272.908 173.945 277.38C166.558 272.21 158.142 266.268 148.17 260.217C117.542 241.632 127.172 212.818 136.74 204.009C144.029 197.308 156.022 195.617 167.416 203.507C170.981 205.969 174.497 209.388 177.78 213.871C182.876 220.83 190.95 235.69 198.362 245.736Z" fill="#4152F3"/>
<path fill-rule="evenodd" clip-rule="evenodd" d="M198.362 245.736C196.989 249.264 194.821 253.184 192.212 257.092C185.388 252.878 157.211 213.589 145.781 205.234C141.787 202.331 154.038 203.397 160.629 206.704C166.093 209.436 163.238 205.271 167.416 203.507C170.981 205.969 174.497 209.387 177.78 213.871C182.876 220.83 190.95 235.69 198.362 245.736Z" fill="#86A8FF"/>
<path fill-rule="evenodd" clip-rule="evenodd" d="M338.118 56.0994L343.375 114.358C343.499 115.729 342.487 116.941 341.116 117.064L296.084 121.128C294.713 121.252 293.501 120.241 293.377 118.869L288.12 60.6111C287.996 59.2398 289.007 58.0276 290.379 57.904L335.411 53.8403C336.782 53.7167 337.994 54.7278 338.118 56.0994Z" fill="#4152F3"/>
<path fill-rule="evenodd" clip-rule="evenodd" d="M338.118 56.0994L339.375 70.0295C339.498 71.4007 338.487 72.6127 337.116 72.7366L292.084 76.8C290.713 76.9239 289.501 75.9124 289.377 74.5412L288.12 60.6111C287.996 59.2398 289.007 58.0276 290.379 57.904L335.411 53.8403C336.782 53.7167 337.994 54.7278 338.118 56.0994Z" fill="white"/>
<path fill-rule="evenodd" clip-rule="evenodd" d="M296.924 66.0356C297.097 67.9569 298.795 69.3742 300.717 69.2007C302.638 69.0274 304.055 67.3292 303.882 65.4075C303.709 63.4861 302.01 62.0689 300.089 62.2424C298.167 62.4156 296.75 64.1142 296.924 66.0356Z" fill="#4152F3"/>
<path fill-rule="evenodd" clip-rule="evenodd" d="M310.84 64.7797C311.014 66.7011 312.712 68.1184 314.634 67.9448C316.555 67.7716 317.972 66.0734 317.799 64.1517C317.626 62.2303 315.927 60.813 314.006 60.9865C312.084 61.1598 310.667 62.858 310.84 64.7797Z" fill="#4152F3"/>
<path fill-rule="evenodd" clip-rule="evenodd" d="M324.757 63.5238C324.931 65.4452 326.629 66.8625 328.551 66.689C330.472 66.5157 331.889 64.8175 331.716 62.8958C331.543 60.9744 329.844 59.5571 327.923 59.7307C326.001 59.9039 324.584 61.6024 324.757 63.5238Z" fill="#4152F3"/>
<path fill-rule="evenodd" clip-rule="evenodd" d="M329.368 79.5844L302.221 82.0339C302.103 82.0447 301.998 81.9571 301.987 81.8387L301.855 80.3782C301.845 80.2598 301.932 80.1547 302.051 80.144L329.197 77.6942C329.316 77.6838 329.421 77.7711 329.432 77.8898L329.564 79.3502C329.574 79.469 329.487 79.5737 329.368 79.5844Z" fill="white"/>
<path fill-rule="evenodd" clip-rule="evenodd" d="M310.399 92.7713C309.137 92.8852 308.194 93.6161 307.571 94.9649C307.05 96.0928 306.852 97.345 306.977 98.7214C307.178 100.954 307.631 102.601 308.336 103.666C309.04 104.731 309.996 105.209 311.204 105.1C312.642 104.97 313.599 104.057 314.075 102.359C314.406 101.18 314.493 99.7153 314.335 97.9652C314.168 96.1275 313.758 94.7761 313.102 93.9122C312.446 93.048 311.545 92.6678 310.399 92.7713ZM311.38 107.053C309.318 107.24 307.727 106.433 306.607 104.633C305.757 103.246 305.227 101.389 305.017 99.063C304.84 97.0958 305.153 95.337 305.957 93.7877C306.907 91.9714 308.332 90.9778 310.232 90.8061C312.015 90.6452 313.475 91.2798 314.609 92.709C315.589 93.9476 316.165 95.5131 316.335 97.405C316.61 100.444 316.334 102.769 315.508 104.378C314.682 105.988 313.306 106.88 311.38 107.053Z" fill="white"/>
<path fill-rule="evenodd" clip-rule="evenodd" d="M328.104 105.165C327.934 105.18 327.691 105.15 327.373 105.072C327.054 104.995 326.814 104.964 326.651 104.979C326.305 105.01 325.788 105.077 325.1 105.18C324.412 105.283 323.891 105.35 323.538 105.382C323.274 105.406 322.885 105.476 322.372 105.59C321.859 105.705 321.471 105.774 321.206 105.798C321.132 105.805 321.022 105.801 320.877 105.787C320.732 105.772 320.622 105.769 320.548 105.775C320.08 105.818 319.754 105.618 319.571 105.177C319.468 104.946 319.39 104.543 319.338 103.967C319.196 102.386 319.512 101.075 320.286 100.034C320.64 99.558 321.628 98.6481 323.25 97.3048C324.16 96.5528 324.761 95.9751 325.053 95.5728C325.578 94.8689 325.801 94.0793 325.722 93.2044C325.682 92.7704 325.366 92.409 324.773 92.1206C324.25 91.8601 323.751 91.7515 323.276 91.7943C322.652 91.8507 322.075 92.084 321.545 92.494L320.192 93.765C319.922 94.0219 319.698 94.1582 319.521 94.174C318.823 94.237 318.448 93.9908 318.398 93.4348C318.369 93.1155 318.473 92.8294 318.71 92.5751C319.437 91.7576 320.077 91.1562 320.63 90.7708C321.408 90.2288 322.232 89.9186 323.1 89.8401C324.199 89.7412 325.206 89.9517 326.121 90.4704C327.145 91.055 327.704 91.8731 327.799 92.9248C327.862 93.6164 327.821 94.2629 327.677 94.864C327.533 95.4655 327.282 96.0247 326.926 96.5421C326.472 97.1987 325.672 97.9584 324.526 98.8203C323.323 99.7364 322.54 100.419 322.177 100.869C321.495 101.717 321.21 102.696 321.324 103.808L323.403 103.425C324.834 103.214 325.857 103.081 326.475 103.025C326.99 102.978 327.486 103.023 327.964 103.157C328.596 103.339 328.931 103.641 328.969 104.062C328.993 104.326 328.922 104.57 328.758 104.793C328.593 105.017 328.375 105.141 328.104 105.165Z" fill="white"/>
<path fill-rule="evenodd" clip-rule="evenodd" d="M263.209 60.3546H167.823C161.318 55.1769 156.418 46.7465 164.908 39.0331C177.906 27.2439 186.028 43.9853 186.396 44.7684C186.273 43.7858 183.321 18.6676 209.881 15.4279C236.967 12.1223 233.782 38.7807 233.782 38.7807C233.782 38.7807 241.427 31.7842 247.356 36.6832C253.298 41.5822 247.001 46.8526 247.001 46.8526C253.298 46.003 264.042 45.618 266.737 51.5391C268.636 55.6946 267.264 58.5623 263.209 60.3546Z" fill="white"/>
<path fill-rule="evenodd" clip-rule="evenodd" d="M313.561 323.658C312.63 326.01 311.858 328.093 311.196 329.93C306.725 331.486 302.253 333.091 297.794 334.733C297.426 334.867 297.047 335.002 296.679 335.137C295.013 335.762 293.347 336.374 291.681 336.999C290.345 337.502 289.022 338.004 287.687 338.518C287.221 338.69 286.756 338.861 286.29 339.045C286.278 339.045 286.278 339.045 286.266 339.057L286.253 339.045C281.365 336.448 277.42 334.071 277.42 334.071C275.338 331.817 274.174 329.342 273.635 326.684C271.111 314.372 281.672 298.041 273.954 280.584C264.557 259.341 259.044 240.156 285.384 241.381C309.15 242.483 293.028 266.544 296.544 280.755C296.924 282.287 297.536 283.72 298.456 284.982C307.84 297.931 319.282 309.165 313.561 323.658Z" fill="#9FC3FC"/>
<path fill-rule="evenodd" clip-rule="evenodd" d="M303.049 306.519C303.013 306.556 298.761 309.827 296.63 321.98C296.63 322.017 296.606 322.041 296.606 322.065C296.63 322.261 296.667 322.458 296.691 322.654C296.838 323.462 296.863 324.307 296.936 325.128C296.997 325.949 297.095 326.782 297.059 327.615L297.034 330.102L297.059 331.266L297.23 332.43C297.365 333.202 297.561 333.973 297.794 334.733C297.426 334.868 297.047 335.002 296.679 335.137C296.434 334.316 296.226 333.483 296.079 332.626L295.895 331.352L295.883 330.053L295.919 327.627C295.956 326.819 295.87 326.01 295.809 325.214C295.748 324.406 295.723 323.597 295.589 322.788C295.564 322.58 295.528 322.372 295.503 322.164C295.429 322.053 295.393 321.906 295.417 321.772C295.429 321.747 295.429 321.735 295.429 321.722C294.964 318.451 294.278 315.217 293.494 311.995C293.469 311.971 293.432 311.946 293.42 311.922C291.583 308.736 289.831 306.36 288.275 304.596C284.636 300.418 282.113 299.622 282.076 299.61C281.745 299.512 281.561 299.169 281.659 298.85C281.745 298.519 282.088 298.335 282.407 298.421C282.566 298.47 285.187 299.267 288.924 303.456C290.039 304.706 291.252 306.262 292.538 308.185C292.134 306.69 291.742 305.184 291.337 303.689C291.043 302.636 290.762 301.582 290.468 300.529C289.01 295.26 287.528 289.993 286.241 284.688C284.747 278.293 283.436 271.825 283.142 265.271C283.718 271.8 285.139 278.22 286.817 284.541C288.128 289.503 289.586 294.415 291.031 299.34C291.436 300.7 291.84 302.072 292.232 303.432C292.967 305.968 293.69 308.516 294.339 311.089C294.388 311.162 294.437 311.224 294.474 311.297C294.572 311.456 294.572 311.64 294.523 311.799C295.099 314.09 295.613 316.406 296.042 318.733C298.394 308.504 302.155 305.649 302.327 305.527C302.608 305.331 302.988 305.392 303.184 305.662C303.38 305.943 303.319 306.323 303.049 306.519Z" fill="#C0D2FF"/>
<path fill-rule="evenodd" clip-rule="evenodd" d="M291.681 336.999C290.345 337.502 289.022 338.004 287.687 338.519C287.221 338.69 286.756 338.861 286.29 339.045C286.278 339.045 286.278 339.045 286.266 339.058C285.236 339.45 284.208 339.842 283.179 340.234C275.265 343.272 267.387 346.384 259.559 349.495C251.841 350.475 243.069 351.7 232.545 354.947C210.543 361.734 218.004 344.484 226.371 338.567C234.751 332.651 222.5 323.254 246.389 318.966C259.644 316.589 266.615 321.306 273.635 326.684C277.077 329.306 280.532 332.099 284.747 334.28C286.829 335.37 289.12 336.314 291.681 336.999Z" fill="#C0D2FF"/>
<path fill-rule="evenodd" clip-rule="evenodd" d="M286.29 339.045C286.278 339.045 286.278 339.045 286.266 339.057C285.236 339.45 284.208 339.841 283.179 340.233C282.554 340.233 281.941 340.221 281.316 340.209C278.131 340.086 274.958 339.817 271.809 339.401C268.649 338.947 265.562 338.482 262.426 338.286C259.289 338.09 256.141 338.163 253.029 338.617C251.473 338.849 249.93 339.143 248.423 339.609C247.676 339.854 246.94 340.111 246.218 340.43C245.507 340.76 244.784 341.103 244.196 341.63C245.335 340.515 246.842 339.878 248.325 339.302C249.819 338.739 251.363 338.347 252.931 338.028C256.067 337.44 259.277 337.256 262.462 337.342C265.66 337.391 268.833 337.918 271.944 338.298C275.068 338.665 278.217 338.898 281.353 338.984C282.983 339.057 284.612 339.082 286.253 339.045C286.266 339.057 286.278 339.057 286.29 339.045Z" fill="#9FC3FC"/>
<path fill-rule="evenodd" clip-rule="evenodd" d="M422.79 277.987C422.79 277.987 412.768 287.616 407.782 296.988C405.369 301.521 402.184 305.502 398.619 308.675C390.459 309.496 382.239 310.745 373.982 312.35C373.308 312.473 372.635 312.608 371.948 312.755C371.826 312.779 371.704 312.804 371.569 312.828C379.985 285.827 399.292 278.121 422.79 277.987Z" fill="#9FC3FC"/>
<path fill-rule="evenodd" clip-rule="evenodd" d="M399.207 291.916C396.952 293.202 389.504 298.397 382.325 304.534C381.467 305.257 380.61 306.005 379.777 306.764C377.719 308.589 375.734 310.476 373.982 312.35C373.308 312.473 372.635 312.608 371.948 312.755C374.007 310.464 376.445 308.099 378.993 305.82L379.005 305.808C380.316 304.632 381.663 303.48 382.999 302.354C389.786 296.718 396.475 292.063 398.594 290.85C398.888 290.679 399.268 290.777 399.427 291.07C399.599 291.364 399.501 291.744 399.207 291.916Z" fill="#C0D2FF"/>
<path fill-rule="evenodd" clip-rule="evenodd" d="M458.721 242.924C458.782 243.255 458.562 243.574 458.219 243.623C458.207 243.623 458.195 243.623 458.182 243.635C449.117 245.166 440.553 247.249 432.541 249.858C429.16 250.961 425.877 252.149 422.692 253.436C407.317 259.623 394.318 267.904 384.052 278.011C383.011 279.028 381.994 280.069 381.002 281.135C373.455 289.245 367.587 298.433 363.556 308.552C363.018 309.912 362.515 311.284 362.038 312.681C361.768 313.477 361.498 314.274 361.266 315.082C360.812 315.18 360.347 315.291 359.881 315.413C361.486 310.072 363.556 304.963 366.08 300.099C367.109 298.115 368.224 296.167 369.412 294.268C375.771 284.002 384.31 274.96 394.76 267.341C396.855 265.797 399.035 264.327 401.289 262.918C416.75 253.191 435.788 246.208 457.815 242.459C457.888 242.447 457.95 242.434 458.023 242.422C458.354 242.361 458.672 242.581 458.721 242.924Z" fill="#4152F3"/>
<path fill-rule="evenodd" clip-rule="evenodd" d="M366.094 300.204C364.799 285.936 367.394 268.336 377.902 253.879C377.902 253.879 380.654 276.603 366.094 300.204Z" fill="#4152F3"/>
<path fill-rule="evenodd" clip-rule="evenodd" d="M360.849 313.269C367.542 300.602 379.313 287.262 396.004 280.873C396.004 280.873 385.922 301.423 360.849 313.269Z" fill="#4152F3"/>
<path fill-rule="evenodd" clip-rule="evenodd" d="M413.687 202.815C413.675 202.828 413.663 202.828 413.651 202.828C402.49 208.61 392.211 214.895 382.889 221.608C378.968 224.438 375.207 227.329 371.63 230.319C354.197 244.763 340.745 260.958 331.606 278.354C331.606 278.367 331.594 278.367 331.594 278.379C330.675 280.118 329.805 281.858 328.985 283.622C322.577 297.282 318.78 311.64 317.763 326.439C317.726 326.868 317.701 327.284 317.665 327.713C317.579 327.737 317.506 327.774 317.42 327.799C316.93 327.958 316.452 328.13 315.962 328.289C316.207 323.622 316.721 319.003 317.518 314.421C318.032 311.346 318.681 308.296 319.453 305.27C323.471 289.355 330.773 274.128 341.15 259.929C343.269 257.026 345.511 254.171 347.9 251.353C347.9 251.341 347.912 251.329 347.924 251.317C357.737 239.69 369.719 228.836 383.734 218.962C384.224 218.631 384.702 218.288 385.179 217.958C393.645 212.077 402.833 206.564 412.719 201.443C412.793 201.407 412.854 201.37 412.928 201.333C413.332 201.112 413.834 201.284 414.055 201.7C414.263 202.105 414.104 202.607 413.687 202.815Z" fill="#4152F3"/>
<path fill-rule="evenodd" clip-rule="evenodd" d="M370.014 230.377C385.277 218.192 407.252 207.932 431.591 209.036C431.591 209.036 407.799 229.227 370.014 230.377Z" fill="#4152F3"/>
<path fill-rule="evenodd" clip-rule="evenodd" d="M341.116 260.973C341.598 241.449 347.87 218.022 364.365 200.091C364.365 200.091 364.53 231.295 341.116 260.973Z" fill="#4152F3"/>
<path fill-rule="evenodd" clip-rule="evenodd" d="M327.582 284.153C338.155 267.731 355.702 250.99 379.119 244.264C379.119 244.264 363.021 270.995 327.582 284.153Z" fill="#4152F3"/>
<path fill-rule="evenodd" clip-rule="evenodd" d="M317.571 314.548C309.964 296.56 306.022 272.631 313.661 249.496C313.661 249.496 326.673 277.858 317.571 314.548Z" fill="#4152F3"/>
<path fill-rule="evenodd" clip-rule="evenodd" d="M348.378 277.019C348.378 277.019 344.702 301.888 323.974 325.631C321.867 326.304 319.772 327.003 317.665 327.713C317.579 327.737 317.505 327.774 317.42 327.799C317.53 327.346 317.64 326.892 317.763 326.439C322.173 309.067 331.716 290.372 348.378 277.019Z" fill="#4152F3"/>
</g>
</svg>
