<svg width="375" height="385" viewBox="0 0 375 385" fill="none" xmlns="http://www.w3.org/2000/svg">
<defs>
<linearGradient id="paint0_linear" x1="381.919" y1="25.1972" x2="377.92" y2="366.724" gradientUnits="userSpaceOnUse">
<stop stop-color="#FFF4ED"/>
<stop offset="1" stop-color="#FFCCE2"/>
</linearGradient>
<linearGradient id="paint1_linear" x1="463.95" y1="228.678" x2="462.005" y2="353.867" gradientUnits="userSpaceOnUse">
<stop stop-color="#FFF4ED"/>
<stop offset="1" stop-color="#FFCCE2"/>
</linearGradient>
</defs>
<mask id="mask0" mask-type="alpha" maskUnits="userSpaceOnUse" x="10" y="23" width="365" height="341">
<path fill-rule="evenodd" clip-rule="evenodd" d="M224.051 27.7265H224.023C212.773 29.6313 201.637 32.214 190.628 35.5883H190.614C179.153 39.0881 167.834 43.421 156.599 48.6856C154.736 49.5749 152.873 50.4643 151.009 51.3959C121.003 66.357 91.7017 88.1777 62.7816 118.749C26.4371 157.196 10.8133 195.898 10.5728 230.816C10.3329 263.251 23.3602 292.425 45.3362 315.107C46.4508 316.263 47.6091 317.421 48.7805 318.536C50.3748 320.074 52.0127 321.584 53.7061 323.053C54.1151 323.419 54.5102 323.773 54.9337 324.111C71.2216 338.056 91.2643 348.896 113.762 355.642C120.354 357.632 127.156 359.27 134.143 360.512C134.609 360.611 135.075 360.695 135.555 360.766C137.517 361.119 139.478 361.429 141.468 361.698C144.093 362.078 146.761 362.389 149.429 362.643C150.275 362.742 151.123 362.813 151.969 362.883C156.881 363.306 161.863 363.546 166.903 363.589C168.934 363.617 170.968 363.603 173.028 363.561C173.494 363.546 173.96 363.546 174.439 363.532C176.034 363.49 177.643 363.419 179.253 363.334C183.148 363.137 187.071 362.841 191.024 362.417C194.299 362.064 197.587 361.627 200.889 361.119C216.979 358.621 233.423 354.217 249.908 347.654C292.194 330.855 333.654 323.229 374.307 320.873V33.7771C340.547 27.5116 308.125 23.5135 276.731 23.5142C258.853 23.5149 241.305 24.8125 224.051 27.7265Z" fill="white"/>
</mask>
<g mask="url(#mask0)">
<path fill-rule="evenodd" clip-rule="evenodd" d="M224.051 27.7265H224.023C212.773 29.6313 201.637 32.214 190.628 35.5883H190.614C179.153 39.0881 167.834 43.421 156.599 48.6856C154.736 49.5749 152.873 50.4643 151.009 51.3959C121.003 66.357 91.7017 88.1777 62.7816 118.749C26.4371 157.196 10.8133 195.898 10.5728 230.816C10.3329 263.251 23.3602 292.425 45.3362 315.107C46.4508 316.263 47.6091 317.421 48.7805 318.536C50.3748 320.074 52.0127 321.584 53.7061 323.053C54.1151 323.419 54.5102 323.773 54.9337 324.111C71.2216 338.056 91.2643 348.896 113.762 355.642C120.354 357.632 127.156 359.27 134.143 360.512C134.609 360.611 135.075 360.695 135.555 360.766C137.517 361.119 139.478 361.429 141.468 361.698C144.093 362.078 146.761 362.389 149.429 362.643C150.275 362.742 151.123 362.813 151.969 362.883C156.881 363.306 161.863 363.546 166.903 363.589C168.934 363.617 170.968 363.603 173.028 363.561C173.494 363.546 173.96 363.546 174.439 363.532C176.034 363.49 177.643 363.419 179.253 363.334C183.148 363.137 187.071 362.841 191.024 362.417C194.299 362.064 197.587 361.627 200.889 361.119C216.979 358.621 233.423 354.217 249.908 347.654C292.194 330.855 333.654 323.229 374.307 320.873V33.7771C340.547 27.5116 308.125 23.5135 276.731 23.5142C258.853 23.5149 241.305 24.8125 224.051 27.7265Z" fill="url(#paint0_linear)"/>
</g>
<mask id="mask1" mask-type="alpha" maskUnits="userSpaceOnUse" x="10" y="129" width="365" height="235">
<path fill-rule="evenodd" clip-rule="evenodd" d="M10.5728 230.816C10.3329 263.251 23.3602 292.425 45.3362 315.107C46.4508 316.263 47.6091 317.422 48.7805 318.536C50.3748 320.074 52.0127 321.585 53.7061 323.053C54.1151 323.419 54.5102 323.773 54.9337 324.111C71.2216 338.056 91.2643 348.897 113.762 355.642C120.354 357.632 127.156 359.27 134.143 360.512C134.609 360.611 135.075 360.696 135.555 360.766C137.517 361.119 139.478 361.43 141.468 361.698C144.093 362.078 146.761 362.39 149.429 362.643C150.275 362.742 151.123 362.813 151.969 362.883C156.881 363.307 161.863 363.547 166.903 363.589C168.934 363.617 170.968 363.603 173.028 363.561C173.494 363.547 173.96 363.547 174.439 363.532C176.034 363.49 177.643 363.42 179.253 363.334C183.148 363.138 187.071 362.841 191.024 362.417C194.299 362.065 197.587 361.627 200.889 361.119C216.979 358.621 233.423 354.217 249.908 347.654C292.194 330.856 333.654 323.229 374.307 320.873V190.2C327.921 202.455 281.937 219.368 239.478 227.627C138.688 247.245 216.457 179.977 145.802 139.963C133.445 132.965 123.516 129.811 114.9 129.812C81.7396 129.815 68.0573 176.558 10.5728 230.816Z" fill="white"/>
</mask>
<g mask="url(#mask1)">
<path fill-rule="evenodd" clip-rule="evenodd" d="M10.5728 230.816C10.3329 263.251 23.3602 292.425 45.3362 315.107C46.4508 316.263 47.6091 317.422 48.7805 318.536C50.3748 320.074 52.0127 321.585 53.7061 323.053C54.1151 323.419 54.5102 323.773 54.9337 324.111C71.2216 338.056 91.2643 348.897 113.762 355.642C120.354 357.632 127.156 359.27 134.143 360.512C134.609 360.611 135.075 360.696 135.555 360.766C137.517 361.119 139.478 361.43 141.468 361.698C144.093 362.078 146.761 362.39 149.429 362.643C150.275 362.742 151.123 362.813 151.969 362.883C156.881 363.307 161.863 363.547 166.903 363.589C168.934 363.617 170.968 363.603 173.028 363.561C173.494 363.547 173.96 363.547 174.439 363.532C176.034 363.49 177.643 363.42 179.253 363.334C183.148 363.138 187.071 362.841 191.024 362.417C194.299 362.065 197.587 361.627 200.889 361.119C216.979 358.621 233.423 354.217 249.908 347.654C292.194 330.856 333.654 323.229 374.307 320.873V190.2C327.921 202.455 281.937 219.368 239.478 227.627C138.688 247.245 216.457 179.977 145.802 139.963C133.445 132.965 123.516 129.811 114.9 129.812C81.7396 129.815 68.0573 176.558 10.5728 230.816Z" fill="url(#paint1_linear)"/>
</g>
<mask id="mask2" mask-type="alpha" maskUnits="userSpaceOnUse" x="46" y="55" width="329" height="238">
<path fill-rule="evenodd" clip-rule="evenodd" d="M46.8658 55.8706H374.307V292.905H46.8658V55.8706Z" fill="white"/>
</mask>
<g mask="url(#mask2)">
<path fill-rule="evenodd" clip-rule="evenodd" d="M52.3369 284.239C52.0125 284.041 51.5744 284.14 51.3637 284.465C49.8248 286.921 48.3422 289.405 46.9593 291.847C46.7618 292.185 46.8893 292.609 47.2276 292.806C47.326 292.877 47.4535 292.905 47.5665 292.905C47.8202 292.905 48.0601 292.764 48.1876 292.538C49.5566 290.124 51.0386 287.655 52.5628 285.213C52.7749 284.888 52.6758 284.451 52.3369 284.239ZM62.0758 270.153C61.7659 269.927 61.3133 269.983 61.088 270.308C59.3801 272.594 57.7005 274.938 56.0917 277.295C55.8657 277.605 55.9503 278.043 56.2608 278.268C56.3877 278.353 56.5291 278.395 56.6698 278.395C56.8958 278.395 57.1079 278.282 57.2486 278.085C58.8436 275.756 60.5238 273.413 62.2172 271.141C62.4424 270.83 62.3863 270.393 62.0758 270.153ZM72.8731 256.871C72.5765 256.617 72.1252 256.645 71.8715 256.942C69.9944 259.087 68.1305 261.303 66.3526 263.519C66.1127 263.815 66.155 264.267 66.451 264.507C66.5924 264.62 66.7477 264.662 66.9029 264.662C67.1005 264.662 67.3119 264.578 67.4533 264.409C69.2181 262.207 71.0668 260.005 72.9438 257.859C73.1982 257.577 73.1698 257.125 72.8731 256.871ZM84.6589 244.451C84.3768 244.168 83.9388 244.168 83.6566 244.437C81.6097 246.441 79.5912 248.515 77.6442 250.577C77.3759 250.859 77.3898 251.31 77.6719 251.578C77.8133 251.705 77.9824 251.762 78.1516 251.762C78.3491 251.762 78.5328 251.691 78.6742 251.536C80.6074 249.49 82.612 247.443 84.6444 245.453C84.9272 245.171 84.9272 244.733 84.6589 244.451ZM97.3611 232.99C97.1074 232.679 96.67 232.637 96.3734 232.891C94.1719 234.74 91.9981 236.632 89.8951 238.537C89.6123 238.805 89.5845 239.257 89.8528 239.539C89.9935 239.694 90.1772 239.765 90.3748 239.765C90.5439 239.765 90.7137 239.709 90.8544 239.596C92.9297 237.69 95.0889 235.813 97.2766 233.978C97.5732 233.724 97.6155 233.287 97.3611 232.99ZM111.052 222.715C110.84 222.39 110.404 222.305 110.079 222.518C108.088 223.802 106.197 225.114 104.46 226.441C103.995 226.794 103.53 227.146 103.064 227.514C102.753 227.754 102.696 228.191 102.936 228.502C103.078 228.685 103.275 228.77 103.487 228.77C103.643 228.77 103.797 228.728 103.925 228.628C104.39 228.276 104.842 227.909 105.321 227.556C107.015 226.272 108.879 224.959 110.84 223.703C111.179 223.491 111.264 223.053 111.052 222.715ZM126.098 214.529C125.942 214.204 125.562 214.062 125.237 214.175C125.223 214.19 125.194 214.19 125.167 214.204C122.485 215.474 119.902 216.801 117.488 218.114C117.149 218.297 117.023 218.735 117.206 219.073C117.347 219.299 117.588 219.441 117.827 219.441C117.94 219.441 118.067 219.412 118.166 219.356C120.551 218.043 123.106 216.744 125.773 215.474C125.816 215.46 125.858 215.432 125.886 215.404C126.154 215.206 126.253 214.839 126.098 214.529ZM141.892 207.852C141.75 207.486 141.341 207.302 140.975 207.443C138.25 208.487 135.569 209.574 133 210.661C132.646 210.816 132.477 211.226 132.633 211.593C132.746 211.861 133.015 212.016 133.282 212.016C133.381 212.016 133.466 212.002 133.55 211.96C136.105 210.887 138.773 209.8 141.482 208.756C141.85 208.615 142.033 208.205 141.892 207.852ZM158.081 202.193C157.954 201.825 157.559 201.628 157.192 201.741C156.768 201.882 156.345 202.009 155.935 202.15C154.765 202.532 153.607 202.927 152.463 203.308C151.758 203.548 151.052 203.788 150.36 204.027C149.923 204.183 149.485 204.323 149.047 204.479C148.681 204.606 148.483 205.016 148.611 205.383C148.724 205.665 148.991 205.848 149.288 205.848C149.359 205.848 149.443 205.835 149.513 205.82C149.781 205.722 150.064 205.622 150.346 205.523C150.601 205.439 150.854 205.354 151.123 205.256C152.689 204.719 154.299 204.183 155.921 203.632C156.486 203.449 157.051 203.266 157.629 203.082C157.997 202.969 158.194 202.574 158.081 202.193ZM174.524 197.309C174.425 196.928 174.03 196.702 173.663 196.815C170.896 197.578 168.131 198.382 165.392 199.2C165.011 199.313 164.799 199.695 164.912 200.076C165.011 200.386 165.293 200.583 165.59 200.583C165.66 200.583 165.731 200.569 165.787 200.541C168.525 199.737 171.278 198.932 174.03 198.17C174.411 198.071 174.637 197.676 174.524 197.309ZM191.123 193.004C191.038 192.624 190.656 192.397 190.276 192.482C187.509 193.159 184.728 193.865 181.948 194.585C181.568 194.684 181.341 195.065 181.44 195.446C181.525 195.757 181.807 195.968 182.132 195.968C182.188 195.968 182.244 195.968 182.301 195.954C185.081 195.22 187.848 194.528 190.614 193.851C190.995 193.767 191.221 193.385 191.123 193.004ZM207.848 189.193C207.764 188.813 207.41 188.572 207.015 188.657C206.973 188.671 206.917 188.671 206.874 188.685C205.335 189.024 203.783 189.363 202.23 189.716C201.031 189.969 199.83 190.238 198.631 190.52C198.25 190.604 198.01 190.986 198.095 191.353C198.179 191.691 198.462 191.903 198.786 191.903C198.843 191.903 198.899 191.903 198.942 191.89C199.718 191.706 200.481 191.537 201.256 191.367C203.035 190.958 204.799 190.577 206.535 190.195C206.804 190.139 207.057 190.082 207.311 190.026C207.692 189.956 207.933 189.574 207.848 189.193ZM223.839 185.228C221.101 185.75 218.278 186.314 215.413 186.893C215.032 186.963 214.792 187.344 214.863 187.726C214.933 188.064 215.23 188.29 215.554 188.29C215.596 188.29 215.652 188.29 215.695 188.276C218.561 187.697 221.369 187.147 224.108 186.624C224.488 186.54 224.743 186.173 224.672 185.792C224.587 185.411 224.221 185.157 223.839 185.228ZM240.748 182.193C238.053 182.645 235.216 183.138 232.28 183.66C231.899 183.731 231.644 184.098 231.715 184.48C231.771 184.818 232.068 185.058 232.406 185.058H232.534C235.469 184.522 238.292 184.028 240.974 183.576C241.355 183.52 241.623 183.153 241.553 182.757C241.496 182.376 241.115 182.122 240.748 182.193ZM257.713 179.497C255.173 179.878 252.336 180.301 249.217 180.796C248.835 180.852 248.567 181.219 248.638 181.6C248.68 181.953 248.991 182.193 249.329 182.193H249.442C252.547 181.699 255.384 181.261 257.926 180.894C258.307 180.838 258.574 180.485 258.518 180.09C258.461 179.709 258.109 179.455 257.713 179.497ZM275.427 177.097C275.356 176.872 275.173 176.716 274.961 176.646C274.834 176.603 274.679 176.603 274.538 176.646C272.35 177.366 270.994 177.69 270.994 177.69C270.938 177.69 269.245 177.902 266.224 178.297C265.844 178.354 265.575 178.706 265.631 179.088C265.674 179.44 265.97 179.709 266.323 179.709C266.351 179.709 266.379 179.709 266.422 179.695C269.471 179.285 271.164 179.088 271.249 179.074C271.305 179.059 272.661 178.749 274.947 178.001C274.961 177.987 274.961 177.987 274.975 177.987C275.342 177.874 275.539 177.479 275.427 177.097ZM290.995 170.012C290.797 169.674 290.36 169.561 290.035 169.758C287.593 171.141 285.039 172.439 282.455 173.583C282.103 173.752 281.933 174.162 282.103 174.515C282.216 174.783 282.47 174.938 282.738 174.938C282.836 174.938 282.936 174.924 283.034 174.881C285.66 173.71 288.257 172.397 290.727 170.972C291.065 170.788 291.192 170.351 290.995 170.012ZM304.742 159.864C304.474 159.567 304.036 159.554 303.754 159.822C301.708 161.699 299.492 163.491 297.177 165.171C296.852 165.397 296.781 165.834 297.008 166.145C297.149 166.342 297.36 166.442 297.585 166.442C297.728 166.442 297.868 166.399 297.995 166.315C300.366 164.607 302.611 162.772 304.699 160.852C304.982 160.597 305.01 160.146 304.742 159.864ZM315.158 146.399C314.805 146.23 314.382 146.385 314.213 146.738C313.62 147.951 312.956 149.137 312.18 150.28L312.166 150.309C311.729 151.043 311.207 151.72 310.67 152.397C310.317 152.835 309.965 153.273 309.597 153.696C309.343 154.007 309.386 154.444 309.683 154.698C309.823 154.811 309.978 154.853 310.148 154.853C310.346 154.853 310.543 154.769 310.684 154.613C311.051 154.161 311.418 153.724 311.771 153.273C312.956 151.776 313.987 150.196 314.876 148.544C315.088 148.149 315.285 147.754 315.483 147.345C315.653 146.992 315.511 146.569 315.158 146.399ZM318.32 129.702H318.305C317.925 129.702 317.6 130.012 317.6 130.394C317.557 133.485 317.289 136.222 316.795 138.791C316.725 139.173 316.966 139.54 317.346 139.61C317.402 139.625 317.445 139.625 317.487 139.625C317.826 139.625 318.109 139.399 318.179 139.06C318.687 136.406 318.969 133.584 319.012 130.421C319.012 130.026 318.701 129.716 318.32 129.702ZM317.755 113.259C317.713 112.878 317.346 112.581 316.966 112.638C316.584 112.695 316.302 113.047 316.358 113.428C316.739 116.618 317.036 119.271 317.261 121.911C317.289 122.278 317.6 122.56 317.967 122.56H318.024C318.405 122.532 318.701 122.193 318.659 121.798C318.447 119.131 318.136 116.463 317.755 113.259ZM316.076 96.2791C316.062 95.884 315.793 95.5596 315.342 95.6019C314.946 95.6158 314.65 95.9547 314.664 96.3359C314.777 98.8902 315.003 101.614 315.356 104.917C315.384 105.27 315.694 105.552 316.047 105.552C316.076 105.552 316.104 105.538 316.132 105.538C316.513 105.496 316.795 105.157 316.753 104.762C316.401 101.501 316.189 98.8057 316.076 96.2791ZM316.767 78.5945C316.372 78.5099 316.006 78.7491 315.921 79.1303C315.299 81.8406 314.904 84.6493 314.707 87.6978C314.679 88.0929 314.975 88.4318 315.371 88.4603H315.412C315.78 88.4603 316.09 88.1636 316.118 87.7969C316.302 84.8184 316.697 82.0804 317.289 79.4408C317.374 79.0603 317.135 78.6791 316.767 78.5945ZM326.958 65.4397C326.746 65.1153 326.309 65.0162 325.984 65.2283C323.33 66.9217 321.156 68.9117 319.506 71.1278C319.279 71.4383 319.35 71.8757 319.661 72.1162C319.788 72.2008 319.929 72.2569 320.085 72.2569C320.296 72.2569 320.508 72.1585 320.649 71.9603C322.187 69.8856 324.234 68.0224 326.746 66.4136C327.071 66.216 327.17 65.7786 326.958 65.4397ZM342.978 59.6386C342.893 59.2574 342.512 59.0182 342.131 59.1028C339.096 59.7662 336.301 60.5564 333.818 61.4596C333.45 61.5864 333.253 61.9961 333.394 62.3628C333.493 62.6449 333.761 62.8286 334.057 62.8286C334.142 62.8286 334.212 62.8147 334.297 62.7863C336.725 61.9108 339.463 61.1352 342.441 60.4718C342.809 60.3865 343.062 60.0199 342.978 59.6386ZM359.167 56.7031C356.146 56.9429 353.267 57.2535 350.613 57.6063C350.232 57.6624 349.964 58.0159 350.02 58.411C350.063 58.7639 350.359 59.0182 350.712 59.0182C350.741 59.0182 350.783 59.0182 350.811 59.0037C353.436 58.6509 356.287 58.3403 359.279 58.1005C359.675 58.0721 359.957 57.7338 359.929 57.338C359.901 56.9568 359.562 56.6747 359.167 56.7031ZM427.705 57.1405C424.812 56.9991 421.961 56.8868 419.152 56.7738C418.771 56.7315 418.432 57.0559 418.419 57.451C418.39 57.8323 418.7 58.1566 419.081 58.1851C421.891 58.2981 424.742 58.411 427.635 58.5379H427.677C428.045 58.5379 428.355 58.2412 428.368 57.8745C428.397 57.4794 428.086 57.155 427.705 57.1405ZM410.585 56.4348C407.677 56.3357 404.826 56.2373 402.032 56.1666C401.637 56.195 401.311 56.4633 401.298 56.8445C401.298 57.2396 401.594 57.564 401.989 57.5779C404.784 57.6486 407.634 57.7477 410.542 57.8461H410.557C410.938 57.8461 411.248 57.5501 411.262 57.1689C411.276 56.7738 410.98 56.4487 410.585 56.4348ZM376.329 55.9129H376.315C373.295 55.969 370.401 56.0536 367.734 56.1666C367.353 56.1804 367.042 56.5194 367.056 56.9006C367.085 57.2819 367.395 57.5779 367.762 57.5779H367.804C370.457 57.4649 373.323 57.3803 376.344 57.3242C376.724 57.3242 377.036 56.9991 377.036 56.6185C377.021 56.2234 376.71 55.9129 376.329 55.9129ZM393.464 55.9552C390.528 55.9129 387.677 55.8706 384.883 55.8706C384.502 55.8706 384.177 56.1804 384.177 56.5762C384.177 56.9568 384.488 57.2819 384.883 57.2819C387.663 57.2819 390.514 57.3242 393.436 57.3664H393.45C393.831 57.3664 394.141 57.0698 394.156 56.6747C394.156 56.2934 393.845 55.969 393.464 55.9552Z" fill="#FF924A"/>
</g>
<path fill-rule="evenodd" clip-rule="evenodd" d="M41.8683 304.006C41.7761 304.006 41.6819 303.988 41.5931 303.949C41.2327 303.796 41.0663 303.382 41.2188 303.024C41.2431 302.966 41.8247 301.605 43.0425 299.162C43.2151 298.815 43.64 298.671 43.9901 298.846C44.3381 299.02 44.4795 299.445 44.3055 299.793C43.1091 302.192 42.5227 303.563 42.5178 303.575C42.4027 303.844 42.1428 304.006 41.8683 304.006Z" fill="#FF924A"/>
<path fill-rule="evenodd" clip-rule="evenodd" d="M261.088 296.438L169.836 296.016C158.861 295.966 150.003 287.03 150.05 276.055L151.017 47.2824C151.064 36.3013 160.005 27.4379 170.987 27.4885L262.239 27.9099C273.215 27.9612 282.071 36.8968 282.025 47.8716L281.058 276.645C281.011 287.626 272.07 296.49 261.088 296.438Z" fill="#FFBDD5"/>
<path fill-rule="evenodd" clip-rule="evenodd" d="M261.633 35.9248L243.941 35.843C241.568 35.8326 239.635 37.8345 239.626 40.3146L239.611 43.5239C239.601 46.0041 237.669 48.0066 235.297 47.9955L200.81 47.8361C198.438 47.825 196.523 45.8051 196.533 43.325L196.547 40.1157C196.557 37.6355 194.642 35.6157 192.27 35.6046L186.047 35.5755L170.562 35.5041C162.872 35.4687 156.609 41.676 156.577 49.3673L155.633 272.666C155.6 280.353 161.804 286.611 169.49 286.647L260.56 287.066C268.25 287.102 274.512 280.895 274.546 273.204L275.489 49.9045C275.522 42.2187 269.319 35.9608 261.633 35.9248Z" fill="white"/>
<path fill-rule="evenodd" clip-rule="evenodd" d="M249.218 87.5493H213.818C213.309 87.5493 212.897 87.1369 212.897 86.6288V84.4571C212.897 83.9491 213.309 83.5366 213.818 83.5366H249.218C249.726 83.5366 250.139 83.9491 250.139 84.4571V86.6288C250.139 87.1369 249.726 87.5493 249.218 87.5493Z" fill="#FFBDD5"/>
<path fill-rule="evenodd" clip-rule="evenodd" d="M266.813 100.114H213.818C213.309 100.114 212.897 99.7014 212.897 99.1933V97.0216C212.897 96.5135 213.309 96.1011 213.818 96.1011H266.813C267.321 96.1011 267.733 96.5135 267.733 97.0216V99.1933C267.733 99.7014 267.321 100.114 266.813 100.114Z" fill="#FFBDD5"/>
<path fill-rule="evenodd" clip-rule="evenodd" d="M242.058 278.728H189.063C188.555 278.728 188.143 278.315 188.143 277.807V275.635C188.143 275.127 188.555 274.715 189.063 274.715H242.058C242.566 274.715 242.979 275.127 242.979 275.635V277.807C242.979 278.315 242.566 278.728 242.058 278.728Z" fill="#FFBDD5"/>
<path fill-rule="evenodd" clip-rule="evenodd" d="M208.679 91.8312C208.679 97.6322 206.459 102.906 202.804 106.855C198.745 111.247 192.944 113.994 186.504 113.994C180.065 113.994 174.264 111.247 170.205 106.855C166.562 102.906 164.342 97.6322 164.342 91.8312C164.342 79.5906 174.264 69.6562 186.504 69.6562C198.745 69.6562 208.679 79.5906 208.679 91.8312Z" fill="#FFBDD5"/>
<path fill-rule="evenodd" clip-rule="evenodd" d="M195.849 84.5412C195.849 79.3799 191.664 75.1953 186.503 75.1953C181.341 75.1953 177.157 79.3799 177.157 84.5412C177.157 89.7025 181.341 93.8864 186.503 93.8864C191.664 93.8864 195.849 89.7025 195.849 84.5412Z" fill="white"/>
<path fill-rule="evenodd" clip-rule="evenodd" d="M202.804 106.856C198.745 111.246 192.943 113.994 186.504 113.994C180.065 113.994 174.264 111.246 170.205 106.856C171.897 99.4848 178.435 93.9776 186.283 93.8917C186.308 93.8917 186.333 93.8799 186.357 93.8917C186.407 93.8799 186.455 93.8799 186.504 93.8799C186.554 93.8799 186.602 93.8799 186.651 93.8917C186.676 93.8799 186.701 93.8917 186.726 93.8917C194.575 93.9776 201.112 99.4848 202.804 106.856Z" fill="white"/>
<path fill-rule="evenodd" clip-rule="evenodd" d="M247.635 166.416H209.421C208.4 166.416 207.573 165.589 207.573 164.568V140.833C207.573 139.812 208.4 138.984 209.421 138.984H247.635C248.656 138.984 249.483 139.812 249.483 140.833V164.568C249.483 165.589 248.656 166.416 247.635 166.416Z" fill="#FF924A"/>
<path fill-rule="evenodd" clip-rule="evenodd" d="M247.635 164.583H209.421C208.4 164.583 207.573 163.756 207.573 162.735V139C207.573 137.979 208.4 137.151 209.421 137.151H247.635C248.656 137.151 249.483 137.979 249.483 139V162.735C249.483 163.756 248.656 164.583 247.635 164.583Z" fill="#FFB858"/>
<path fill-rule="evenodd" clip-rule="evenodd" d="M228.567 155.022C226.225 155.022 224.319 153.117 224.319 150.774C224.319 148.431 226.225 146.526 228.567 146.526C230.91 146.526 232.816 148.431 232.816 150.774C232.816 153.117 230.91 155.022 228.567 155.022ZM235.851 148.996C235.653 148.121 235.286 147.316 234.806 146.596C234.086 145.523 233.098 144.648 231.927 144.056C231.461 143.83 230.967 143.632 230.445 143.519C229.852 143.35 229.217 143.266 228.567 143.266C227.89 143.266 227.226 143.35 226.606 143.533C225.745 143.759 224.94 144.14 224.235 144.662C223.74 145.001 223.289 145.396 222.908 145.862V145.877C222.442 146.399 222.061 146.964 221.779 147.599C221.553 148.036 221.397 148.502 221.284 148.996C221.214 149.236 221.171 149.476 221.143 149.729C221.087 150.068 221.058 150.421 221.058 150.774C221.058 151.494 221.158 152.185 221.355 152.835C221.581 153.639 221.934 154.387 222.414 155.051C223.133 156.123 224.15 156.985 225.335 157.535C225.73 157.746 226.168 157.902 226.606 158.015C227.226 158.198 227.89 158.283 228.567 158.283C229.217 158.283 229.852 158.198 230.445 158.029C231.249 157.846 232.011 157.507 232.674 157.055H232.688C233.79 156.335 234.665 155.361 235.257 154.19C235.469 153.766 235.653 153.314 235.78 152.835C235.977 152.185 236.076 151.494 236.076 150.774C236.076 150.153 236.005 149.56 235.851 148.996Z" fill="white"/>
<mask id="mask3" mask-type="alpha" maskUnits="userSpaceOnUse" x="0" y="0" width="375" height="385">
<path fill-rule="evenodd" clip-rule="evenodd" d="M0 384.87H374.307V0.693359H0V384.87Z" fill="white"/>
</mask>
<g mask="url(#mask3)">
<path fill-rule="evenodd" clip-rule="evenodd" d="M226.61 144.287H230.447V139.96H226.61V144.287Z" fill="white"/>
<path fill-rule="evenodd" clip-rule="evenodd" d="M226.61 161.866H230.447V157.539H226.61V161.866Z" fill="white"/>
<path fill-rule="evenodd" clip-rule="evenodd" d="M235.155 152.832H239.481V148.995H235.155V152.832Z" fill="white"/>
<path fill-rule="evenodd" clip-rule="evenodd" d="M217.575 152.832H221.902V148.995H217.575V152.832Z" fill="white"/>
<path fill-rule="evenodd" clip-rule="evenodd" d="M234.315 147.158L231.414 144.647L234.245 141.376L237.147 143.887L234.315 147.158Z" fill="white"/>
<path fill-rule="evenodd" clip-rule="evenodd" d="M222.811 160.45L219.909 157.939L222.741 154.668L225.643 157.179L222.811 160.45Z" fill="white"/>
<path fill-rule="evenodd" clip-rule="evenodd" d="M232.283 156.7L234.794 153.799L238.065 156.631L235.555 159.532L232.283 156.7Z" fill="white"/>
<path fill-rule="evenodd" clip-rule="evenodd" d="M218.991 145.196L221.502 142.295L224.774 145.126L222.263 148.027L218.991 145.196Z" fill="white"/>
<path fill-rule="evenodd" clip-rule="evenodd" d="M186.174 121.759C183.676 120.006 180.96 121.802 180.96 124.038C180.96 121.802 178.243 120.006 175.744 121.759C173.246 123.512 177.454 128.99 180.96 129.998C184.465 128.99 188.673 123.512 186.174 121.759Z" fill="#F61070"/>
<path fill-rule="evenodd" clip-rule="evenodd" d="M190.156 130.05H199.153V121.052H190.156V130.05Z" fill="#FFBDD5"/>
<path fill-rule="evenodd" clip-rule="evenodd" d="M322.871 212.747C306.933 206.35 298.975 176.353 306.377 159.002C313.778 141.652 320.103 154.722 324.719 133.332C329.334 111.942 341.128 93.5643 359.088 110.681C377.049 127.798 346.539 151.209 346.579 161.532C346.619 171.856 350.07 223.664 322.871 212.747Z" fill="#F61070"/>
<path fill-rule="evenodd" clip-rule="evenodd" d="M319.732 252.379C319.836 252.375 319.944 252.358 320.048 252.325C320.67 252.129 321.015 251.466 320.819 250.846C318.686 244.084 321.856 189.942 332.864 159.691C333.086 159.077 332.771 158.401 332.16 158.179C331.549 157.957 330.87 158.269 330.648 158.883C319.775 188.772 315.982 243.353 318.569 251.555C318.731 252.07 319.217 252.396 319.732 252.379Z" fill="white"/>
<path fill-rule="evenodd" clip-rule="evenodd" d="M316.666 227.023C322.2 224.59 324.657 213.946 321.856 207.926C319.053 201.906 316.977 206.576 315.109 199.104C313.241 191.63 308.882 185.3 302.758 191.527C296.635 197.754 307.637 205.643 307.74 209.275C307.843 212.908 307.221 231.175 316.666 227.023Z" fill="#FF64B2"/>
<path fill-rule="evenodd" clip-rule="evenodd" d="M318.223 240.931C318.186 240.931 318.149 240.926 318.111 240.916C317.891 240.854 317.762 240.625 317.824 240.404C318.497 238 316.763 218.988 312.545 208.47C312.46 208.257 312.563 208.016 312.775 207.931C312.987 207.846 313.23 207.948 313.315 208.161C317.482 218.553 319.439 237.713 318.623 240.628C318.572 240.811 318.404 240.931 318.223 240.931Z" fill="#F61070"/>
<path fill-rule="evenodd" clip-rule="evenodd" d="M326.092 217.172C317.039 212.4 314.168 194.131 319.623 184.303C325.077 174.476 328.021 182.61 332.073 170.217C336.125 157.824 344.245 147.656 353.837 158.907C363.429 170.157 343.905 182.155 343.294 188.276C342.683 194.398 341.541 225.316 326.092 217.172Z" fill="#FF64B2"/>
<path fill-rule="evenodd" clip-rule="evenodd" d="M321.793 240.469C321.855 240.473 321.92 240.469 321.983 240.456C322.363 240.379 322.609 240.006 322.531 239.627C321.683 235.488 326.893 203.594 335.279 186.342C335.448 185.992 335.303 185.571 334.955 185.402C334.606 185.233 334.185 185.376 334.015 185.726C325.732 202.773 320.126 234.889 321.154 239.909C321.219 240.224 321.487 240.447 321.793 240.469Z" fill="#F61070"/>
<path fill-rule="evenodd" clip-rule="evenodd" d="M307.593 232.09H338.164L331.11 300.97L314.714 301.187L307.593 232.09Z" fill="#FF64B2"/>
<path fill-rule="evenodd" clip-rule="evenodd" d="M108.349 154.264C111.44 150.937 113.297 146.775 113.297 142.244C113.297 131.375 102.718 122.562 89.6681 122.562C76.618 122.562 66.0389 131.375 66.0389 142.244C66.0389 153.114 76.618 161.925 89.6681 161.925C93.2781 161.925 96.685 161.231 99.7446 160.026L109.645 166.011L108.349 154.264Z" fill="#FFBDD5"/>
<path fill-rule="evenodd" clip-rule="evenodd" d="M100.222 137.299C95.5873 134.048 90.5466 137.38 90.5466 141.527C90.5466 137.38 85.5059 134.048 80.8715 137.299C76.237 140.551 84.042 150.715 90.5466 152.584C97.0512 150.715 104.856 140.551 100.222 137.299Z" fill="white"/>
<path fill-rule="evenodd" clip-rule="evenodd" d="M119.256 270.978C116.772 274.041 111.097 280.505 103.956 287.901C102.953 288.945 101.91 290.003 100.851 291.076C86.9768 305.078 68.8819 321.07 57.0267 323.708C51.7053 324.894 47.8659 324.894 45.3823 324.174C45.3678 324.174 45.3393 324.16 45.3255 324.16C40.7104 322.791 40.8518 318.896 44.9304 315.438L44.9442 315.424C46.5115 314.097 48.6561 312.826 51.3387 311.796C64.2245 306.828 84.8453 279.517 98.0993 260.815C98.649 260.04 99.1855 259.277 99.7081 258.543C99.7081 258.543 105.438 259.235 110.887 260.886C117.266 262.805 123.264 266.038 119.256 270.978Z" fill="#FFB48D"/>
<path fill-rule="evenodd" clip-rule="evenodd" d="M119.256 270.978C116.772 274.041 111.097 280.505 103.957 287.901C102.954 288.945 101.91 290.004 100.851 291.077C87.6256 294.803 83.4902 299.165 69.6582 308.07C53.7238 318.289 43.8581 321.295 44.38 316.878C44.4223 316.482 44.6199 316.003 44.9304 315.438L44.9443 315.424C46.5115 314.097 48.6561 312.827 51.3387 311.797C64.2245 306.828 84.8454 279.517 98.0993 260.815C102.375 260.9 106.835 260.759 110.887 260.886C117.266 262.805 123.265 266.038 119.256 270.978Z" fill="#FFA780"/>
<path fill-rule="evenodd" clip-rule="evenodd" d="M103.956 287.901C89.786 302.552 69.7856 320.872 57.0265 323.709C51.7052 324.894 47.8657 324.894 45.3821 324.175C59.8352 327.407 86.2856 295.677 103.956 287.901Z" fill="#FFCCB6"/>
<path fill-rule="evenodd" clip-rule="evenodd" d="M220.394 150.948C218.654 153.704 216.656 156.739 216.545 158.071C216.393 159.678 218.244 159.667 220.022 159.657C221.844 159.661 223.622 159.652 223.126 161.509C222.866 162.554 221.885 163.752 220.6 164.999C219.046 166.495 217.014 168.128 215.099 169.773C213.012 171.508 211.054 173.284 210.007 174.918C207.119 179.396 209.006 194.798 196.322 213.622C191.914 220.16 187.392 225.702 183.001 230.301C181.576 227.617 179.472 223.829 177.179 220.1C175.39 217.204 173.472 214.339 171.619 212.021C171.03 211.234 170.413 210.534 169.826 209.891C175.29 206.665 180.878 202.902 185.81 198.786C190.629 194.803 194.82 190.451 197.563 185.902C201.722 179.093 204.452 172.55 206.802 166.749C210.565 157.56 213.329 150.234 219.209 146.757C224.918 143.368 222.97 146.85 220.394 150.948Z" fill="#FFB48D"/>
<path fill-rule="evenodd" clip-rule="evenodd" d="M220.394 150.948C220.315 149.388 219.511 148.675 217.197 150.746C212.068 155.327 214.14 164.118 206.802 166.749C210.565 157.56 213.329 150.234 219.209 146.757C224.918 143.368 222.97 146.85 220.394 150.948Z" fill="#FFCCB6"/>
<path fill-rule="evenodd" clip-rule="evenodd" d="M215.099 169.773C213.011 171.508 211.054 173.284 210.007 174.918C207.119 179.396 209.006 194.797 196.321 213.622C191.914 220.16 187.391 225.701 183.001 230.301C181.576 227.617 179.472 223.828 177.18 220.1C192.748 207.063 206.671 184.722 207.158 178.065C207.524 173.072 210.855 171.349 215.099 169.773Z" fill="#FFA780"/>
<path fill-rule="evenodd" clip-rule="evenodd" d="M185.81 198.786C182.276 203.635 177.306 208.242 171.618 212.021C171.03 211.234 170.412 210.534 169.825 209.891C175.29 206.665 180.878 202.902 185.81 198.786Z" fill="#FFCCB6"/>
<path fill-rule="evenodd" clip-rule="evenodd" d="M200.889 361.119C197.586 361.627 194.298 362.064 191.024 362.418C187.071 362.841 183.148 363.137 179.252 363.335C177.643 363.42 176.034 363.49 174.44 363.533C173.959 363.546 173.494 363.546 173.028 363.561C170.967 363.603 168.934 363.617 166.903 363.589C161.864 363.546 156.881 363.307 151.969 362.883C151.122 362.813 150.275 362.742 149.429 362.643C152.421 354.655 156.938 344.986 161.143 336.518C164.757 329.221 168.158 322.827 170.148 319.115C170.191 319.03 170.247 318.946 170.29 318.861C171.362 316.871 171.998 315.728 171.998 315.728C174.101 316.984 176.063 318.367 177.897 319.849C178.236 320.132 178.589 320.414 178.914 320.71C179.718 321.373 180.48 322.079 181.228 322.799C181.863 323.392 182.484 324.027 183.091 324.662V324.676C183.091 324.676 183.105 324.676 183.119 324.69C183.317 324.902 183.529 325.128 183.713 325.339C193.55 336.123 198.49 350.039 200.889 361.119Z" fill="#FFB858"/>
<path fill-rule="evenodd" clip-rule="evenodd" d="M200.889 361.119C197.586 361.627 194.298 362.064 191.024 362.418C186.775 350.49 183.769 334.288 183.162 325.847C183.134 325.438 183.105 325.043 183.091 324.676C183.091 324.676 183.105 324.676 183.119 324.69C183.317 324.902 183.529 325.128 183.713 325.339C193.55 336.123 198.49 350.039 200.889 361.119Z" fill="#FCC37E"/>
<path fill-rule="evenodd" clip-rule="evenodd" d="M183.091 321.881L181.454 321.402C181.37 321.867 181.299 322.333 181.228 322.799C180.946 324.535 180.678 326.257 180.438 327.965C178.518 341.359 177.926 353.892 179.252 363.335C177.643 363.42 176.034 363.49 174.44 363.532C173.959 363.547 173.494 363.547 173.028 363.561C170.968 363.603 168.935 363.617 166.903 363.589C161.864 363.547 156.881 363.307 151.97 362.883C151.122 362.813 150.275 362.742 149.429 362.643C152.421 354.655 156.938 344.987 161.143 336.518C164.757 329.221 168.158 322.827 170.148 319.115C172.012 319.044 173.663 319.143 175.131 319.34C176.147 319.468 177.065 319.637 177.897 319.849C178.292 319.948 178.674 320.047 179.026 320.145C181.722 320.936 183.091 321.881 183.091 321.881Z" fill="#FCA547"/>
<path fill-rule="evenodd" clip-rule="evenodd" d="M174.439 363.532C173.96 363.547 173.494 363.547 173.028 363.561C172.831 358.099 172.731 352.298 172.788 346.51C172.788 345.085 172.802 343.674 172.831 342.262C172.901 338.762 173.028 335.289 173.212 331.959C173.366 329.093 173.579 326.328 173.847 323.688L175.258 323.843C175.018 326.215 174.821 328.699 174.679 331.267C174.482 334.386 174.355 337.618 174.283 340.893C174.27 341.105 174.27 341.316 174.27 341.528C174.1 348.924 174.199 356.517 174.439 363.532Z" fill="#FF924A"/>
<path fill-rule="evenodd" clip-rule="evenodd" d="M177.742 325.339V325.353C177.629 326.708 177.404 328.261 177.079 330.011C176.5 333.102 175.611 336.729 174.51 340.681C174.425 340.964 174.355 341.246 174.27 341.528C173.804 343.137 173.31 344.803 172.788 346.511C171.08 352.029 169.048 357.901 166.902 363.589C161.864 363.546 156.881 363.307 151.969 362.883C151.123 362.813 150.276 362.742 149.428 362.643C146.761 362.39 144.093 362.078 141.468 361.698C139.478 361.43 137.517 361.119 135.555 360.766C135.075 360.696 134.609 360.611 134.144 360.512C127.156 359.27 120.353 357.632 113.762 355.642C115.554 351.592 117.446 347.598 119.394 343.886C121.144 340.569 122.937 337.492 124.743 334.81C124.743 334.81 131.292 331.606 139.803 328.049H139.817C143.586 326.482 147.735 324.845 151.87 323.392C158.66 321.02 165.392 319.129 170.29 318.86C172.223 318.748 173.875 318.889 175.13 319.341C176.754 319.92 177.727 321.035 177.813 322.813C177.855 323.533 177.827 324.379 177.742 325.339Z" fill="#FFB858"/>
<path fill-rule="evenodd" clip-rule="evenodd" d="M160.282 329.757C158.292 332.65 156.359 335.558 154.496 338.465C149.486 346.285 145.011 354.132 141.468 361.698C139.478 361.429 137.516 361.119 135.555 360.766C135.075 360.695 134.609 360.611 134.143 360.512C127.156 359.269 120.354 357.632 113.762 355.642C115.555 351.591 117.446 347.597 119.394 343.885C121.144 340.569 122.936 337.492 124.743 334.81C124.743 334.81 131.292 331.605 139.803 328.049H139.818C144.489 328.219 148.639 328.515 151.955 328.811C157.121 329.277 160.282 329.757 160.282 329.757Z" fill="#FCA547"/>
<path fill-rule="evenodd" clip-rule="evenodd" d="M142.626 335.671C142.203 337.675 141.75 339.651 141.271 341.585C139.62 348.388 137.629 354.838 135.555 360.766C135.074 360.695 134.609 360.611 134.144 360.512C136.175 354.754 138.109 348.487 139.747 341.881C140.283 339.75 140.777 337.591 141.243 335.389L142.626 335.671Z" fill="#FF924A"/>
<path fill-rule="evenodd" clip-rule="evenodd" d="M174.51 340.682C174.425 340.964 174.355 341.247 174.27 341.529C173.804 343.138 173.311 344.803 172.788 346.511C171.08 352.029 169.048 357.901 166.902 363.589C161.864 363.547 156.881 363.307 151.969 362.884C157.15 355.445 165.434 349.15 172.83 342.263C173.324 341.811 173.804 341.36 174.284 340.894C174.354 340.823 174.439 340.752 174.51 340.682Z" fill="#FCC37E"/>
<path fill-rule="evenodd" clip-rule="evenodd" d="M148.289 173.919C151.347 185.916 160.169 184.622 159.815 192.62C159.463 200.619 149.818 201.324 150.054 209.91C150.289 218.497 153.347 224.26 150.171 225.436C146.995 226.612 138.409 233.316 137.115 226.965C135.822 220.614 115.826 188.504 126.295 179.212C136.762 169.919 148.289 170.391 148.289 173.919Z" fill="#FFB48D"/>
<path fill-rule="evenodd" clip-rule="evenodd" d="M181.034 270.3C185.268 288.861 190.392 313.165 186.637 321.408C185.042 324.894 181.062 328.014 175.741 330.738C168.952 334.238 160.018 337.103 151.183 339.333C140.343 342.057 129.672 343.821 123.279 344.598C107.598 346.475 121.006 304.005 121.938 296.243C122.883 288.48 124.422 265.247 123.236 268.268C122.037 271.33 119.397 273.293 117.068 278.331C117.068 278.331 93.7095 267.661 93.4828 263.187C93.2437 258.727 113.497 235.424 129.87 228.254C141.966 222.961 142.559 222.834 142.064 223.131C144.083 222.156 146.031 221.197 147.893 220.294C148.021 220.237 148.148 220.166 148.261 220.11C160.738 214.041 169.615 209.637 170.406 208.028C170.66 207.506 172.297 208.452 174.527 210.16C176.532 211.684 179.016 213.815 181.415 216.045C181.415 216.045 181.429 216.045 181.457 216.059C184.676 219.037 187.738 222.156 189.305 224.189C189.996 225.078 190.392 225.77 190.392 226.137C190.392 228.734 177.689 243.074 176.517 247.548C176.066 249.27 178.38 258.656 181.034 270.3Z" fill="#7F2489"/>
<path fill-rule="evenodd" clip-rule="evenodd" d="M171.577 274.718C168.755 293.179 154.175 296.708 152.283 311.768C151.056 321.648 152.918 330.95 151.183 339.333C140.342 342.057 129.672 343.822 123.279 344.598C107.597 346.475 121.006 304.005 121.938 296.242C122.884 288.48 124.422 265.248 123.236 268.268C122.037 271.331 119.398 273.293 117.068 278.331C117.068 278.331 93.7091 267.661 93.4831 263.187C93.2433 258.726 113.497 235.424 129.87 228.254C141.966 222.961 142.559 222.834 142.065 223.131C144.083 222.157 146.031 221.197 147.893 220.293C161.669 231.472 174.288 257.019 171.577 274.718Z" fill="#761584"/>
<path fill-rule="evenodd" clip-rule="evenodd" d="M174.527 210.16C168.924 214.69 157.52 222.566 146.877 222.397C146.877 222.397 147.386 221.522 148.261 220.11C160.738 214.041 169.616 209.638 170.407 208.028C170.66 207.506 172.297 208.452 174.527 210.16Z" fill="#AD32BF"/>
<path fill-rule="evenodd" clip-rule="evenodd" d="M144.605 288.875C137.421 290.06 130.787 289.185 128.459 287.139C126.737 285.629 124.168 284.895 121.119 284.415C111.973 282.975 98.5923 283.893 91.5069 272.968C82.0646 258.417 88.8403 253.702 97.4632 243.977C106.087 234.238 91.649 231.401 102.389 223.23C113.131 215.057 108.402 205.713 105.72 195.41C103.349 186.349 109.715 184.641 117.111 171.374C117.788 170.16 118.465 168.862 119.157 167.436C119.524 166.702 119.877 165.94 120.23 165.149C128.811 145.996 149.644 159.349 149.644 168.649C155.628 168.791 158.113 172.856 148.571 188.509C138.523 204.994 149.771 213.631 163.307 246.575C163.998 248.226 164.676 249.948 165.367 251.726C174.909 276.369 158.677 286.56 144.605 288.875Z" fill="#FF64B2"/>
<path fill-rule="evenodd" clip-rule="evenodd" d="M181.034 270.3C179.948 274.633 179.256 277.471 179.256 277.471C179.256 277.471 174.866 263.78 171.944 255.071C169.023 246.377 169.22 239.32 169.715 231.035C170.209 222.764 171.818 224.5 181.415 216.045C181.415 216.045 181.429 216.045 181.457 216.059C184.676 219.037 187.738 222.156 189.305 224.189C189.996 225.078 190.392 225.77 190.392 226.137C190.392 228.734 177.689 243.074 176.517 247.548C176.066 249.27 178.38 258.656 181.034 270.3Z" fill="#761584"/>
<path fill-rule="evenodd" clip-rule="evenodd" d="M186.637 321.408C185.042 324.894 181.062 328.013 175.741 330.737C182.291 316.877 181.712 288.353 180.314 282.043C178.719 274.902 172.636 250.371 173.526 246.489C174.4 242.608 183.928 232.46 189.305 224.189C189.996 225.078 190.392 225.77 190.392 226.137C190.392 228.734 177.689 243.074 176.517 247.548C175.346 252.022 192.748 308 186.637 321.408Z" fill="#AD32BF"/>
<path fill-rule="evenodd" clip-rule="evenodd" d="M163.307 246.574C159.919 239.927 155.685 232.347 151.465 225.587C142.291 210.893 140.992 202.383 143.462 194.225C145.932 186.052 153.229 175.805 153.342 172.15C153.455 168.509 148.571 169.778 148.571 169.778C148.274 166.095 142.784 158.53 136.179 158.276C130.787 158.064 126.779 161.819 119.157 167.436C119.524 166.702 119.878 165.94 120.23 165.15C128.811 145.996 149.644 159.348 149.644 168.65C155.629 168.791 158.113 172.855 148.571 188.508C138.522 204.994 149.771 213.632 163.307 246.574Z" fill="#FF92CE"/>
<path fill-rule="evenodd" clip-rule="evenodd" d="M121.656 266.249C121.387 268.113 121.246 276.257 121.119 284.415C111.973 282.975 98.5927 283.892 91.5073 272.968C82.065 258.416 88.84 253.702 97.4636 243.978C106.087 234.239 91.6487 231.401 102.389 223.23C113.13 215.057 108.402 205.714 105.721 195.41C103.349 186.349 109.715 184.641 117.111 171.374C123.673 166.617 128.007 165.164 126.172 171.585C123.829 179.8 114.302 193.124 121.656 207.393C128.995 221.677 135.163 231.049 137.252 239.771C139.355 248.494 124.111 248.41 121.656 266.249Z" fill="#FC3D9D"/>
</g>

</svg>
