<svg width="375" height="418" viewBox="0 0 375 418" fill="none" xmlns="http://www.w3.org/2000/svg">
<mask id="mask0" mask-type="alpha" maskUnits="userSpaceOnUse" x="0" y="0" width="375" height="418">
<path fill-rule="evenodd" clip-rule="evenodd" d="M0.195572 0.344238H374.746V417.101H0.195572V0.344238Z" fill="white"/>
</mask>
<g mask="url(#mask0)">
<path fill-rule="evenodd" clip-rule="evenodd" d="M374.74 196.418C374.893 213.474 372.048 230.517 366.302 246.838C365.261 249.822 364.123 252.778 362.874 255.706C361.93 257.955 360.931 260.189 359.863 262.41C358.78 264.672 357.628 266.92 356.421 269.141L356.407 269.155C343.861 292.387 324.958 313.219 300.157 329.165H300.143C296.021 331.844 291.733 334.356 287.278 336.715C286.307 337.243 285.321 337.756 284.336 338.256C283.919 338.478 283.503 338.686 283.087 338.894C283.031 338.922 282.976 338.949 282.92 338.977C282.684 339.102 282.434 339.227 282.185 339.338C278.09 341.365 273.871 343.28 269.513 345.042C267.557 345.848 265.586 346.624 263.587 347.36C261.7 348.068 259.785 348.734 257.855 349.372C257.481 349.511 257.12 349.636 256.745 349.761C256.19 349.955 255.621 350.136 255.066 350.316C253.234 350.899 251.374 351.468 249.501 352.009C238.606 355.202 227.059 357.63 214.846 359.213C209.197 359.948 202.48 360.6 195.097 361.155C193.709 361.266 192.293 361.364 190.864 361.461C189.726 361.544 188.574 361.627 187.394 361.697C165.813 363.085 140.013 363.82 118.113 363.875C116.475 363.89 114.866 363.89 113.269 363.89C112.451 363.89 111.631 363.89 110.827 363.875C105.095 363.862 99.7377 363.792 94.9081 363.667C79.4753 363.293 63.7648 362.502 47.8457 361.419C43.1137 361.086 38.3669 360.739 33.6064 360.364C32.1909 360.24 30.7614 360.129 29.3322 360.017C26.2233 359.754 23.0868 359.49 19.9641 359.213C19.2145 359.157 18.4655 359.087 17.7158 359.018C17.1053 358.963 16.4805 358.907 15.87 358.852C15.4675 358.81 15.051 358.782 14.6484 358.74C9.19427 358.241 3.72638 357.714 -1.75598 357.172C-12.5533 356.09 -23.3785 354.91 -34.204 353.661C-66.0828 350.025 -97.9341 345.834 -128.911 341.809C-146.939 339.477 -164.662 337.187 -181.927 335.106C-195.347 333.495 -208.49 331.997 -221.258 330.706C-263.768 326.348 -302.323 324.1 -334.049 326.417C-336.45 326.598 -338.851 326.806 -341.252 327.07C-349.898 327.93 -358.614 329.263 -367.357 330.956C-368.079 331.095 -368.787 331.233 -369.509 331.386C-369.647 331.414 -369.772 331.442 -369.911 331.469C-373.547 332.191 -377.183 332.996 -380.833 333.856C-381.319 333.953 -381.805 334.078 -382.304 334.203C-387.8 335.508 -393.324 336.937 -398.834 338.492C-403.872 339.907 -408.924 341.406 -413.975 342.988C-416.099 343.655 -418.222 344.335 -420.345 345.029C-422.58 345.75 -424.8 346.486 -427.035 347.235C-427.118 347.263 -427.202 347.305 -427.299 347.332C-427.812 347.499 -428.312 347.679 -428.839 347.846C-430.518 348.415 -432.198 348.998 -433.891 349.581C-438.623 351.232 -443.356 352.939 -448.089 354.674C-448.477 354.813 -448.88 354.966 -449.268 355.104C-451.031 355.771 -452.793 356.409 -454.57 357.075C-455.986 357.616 -457.387 358.144 -458.803 358.685C-459.289 358.865 -459.788 359.046 -460.274 359.24C-460.288 359.24 -460.288 359.24 -460.302 359.254C-461.398 359.671 -462.48 360.087 -463.577 360.503C-465.117 361.1 -466.644 361.683 -468.199 362.293C-475.027 364.93 -481.841 367.636 -488.6 370.315C-513.887 380.419 -538.646 390.564 -562.323 398.822C-570.872 401.82 -579.296 404.567 -587.554 406.968C-606.234 412.395 -624.068 416.073 -640.736 416.905C-643.193 417.044 -645.621 417.113 -648.022 417.1C-662.012 417.086 -675.113 414.879 -687.16 409.786C-773.096 373.452 -711.988 280.854 -673.476 223.689C-656.558 198.569 -655.42 186.009 -661.082 174.642C-668.312 160.139 -686.605 147.565 -697.263 113.327C-716.305 52.2199 -656.655 -2.60025 -485.991 0.467117C-389.799 2.20153 -342.459 17.7735 -168.326 53.2607C-99.6547 67.2505 -33.6348 59.5755 27.4029 50.6099C32.0524 49.9296 36.6875 49.236 41.2813 48.5558C42.5167 48.3616 43.7379 48.1815 44.9595 48.0007C45.5005 47.9175 46.0419 47.8343 46.5692 47.7649C132.352 34.8716 232.153 10.5705 319.559 83.2521C349.926 108.497 367.371 140.681 372.853 174.156C373.242 176.446 373.574 178.75 373.81 181.04C374.407 186.147 374.712 191.283 374.74 196.418Z" fill="#EBF0FC"/>
</g>
<mask id="mask1" mask-type="alpha" maskUnits="userSpaceOnUse" x="0" y="0" width="375" height="243">
<path fill-rule="evenodd" clip-rule="evenodd" d="M0.195572 0.344238H374.74V242.805H0.195572V0.344238Z" fill="white"/>
</mask>
<g mask="url(#mask1)">
<path fill-rule="evenodd" clip-rule="evenodd" d="M374.74 196.418C350.037 174.323 314.771 146.039 263.587 119.225C120.528 44.295 152.67 145.58 57.0337 215.375C-38.6033 285.157 -39.5193 208.894 -170.144 130.495C-300.782 52.081 -258.133 187.216 -383.442 198.027C-497.024 207.826 -605.054 147.232 -661.082 174.642C-668.313 160.139 -686.605 147.565 -697.263 113.327C-716.305 52.2199 -656.655 -2.60025 -485.991 0.467117C-389.799 2.20153 -342.459 17.7735 -168.326 53.2607C-99.6547 67.2505 -33.6348 59.5755 27.4029 50.6099C32.0524 49.9296 36.6875 49.236 41.2813 48.5558C42.5167 48.3616 43.7379 48.1815 44.9595 48.0007C45.5005 47.9175 46.0418 47.8343 46.5691 47.7649C132.352 34.8716 232.153 10.5705 319.559 83.2521C349.926 108.497 367.371 140.681 372.853 174.156C373.242 176.446 373.574 178.75 373.81 181.04C374.407 186.147 374.712 191.283 374.74 196.418Z" fill="#F5F7FC"/>
</g>
<path fill-rule="evenodd" clip-rule="evenodd" d="M360.251 181.29C360.237 181.442 360.209 181.595 360.168 181.762C358.974 187.743 341.945 213.252 338.06 216.749C334.187 220.233 316.908 223.675 309.789 225.646C307.027 226.409 308.457 223.827 311.232 220.372C311.246 220.372 311.246 220.358 311.26 220.358C313.3 217.832 316.076 214.834 318.463 212.364C321.169 209.532 323.376 207.381 323.376 207.381C341.321 202.108 345.47 197.167 349.856 188.659C351.854 184.773 354.422 181.748 356.518 180.18C358.891 178.417 360.64 178.5 360.251 181.29Z" fill="#FDB2D0"/>
<path fill-rule="evenodd" clip-rule="evenodd" d="M356.518 180.18C353.006 185.149 351.633 193.323 346.262 200.401C342.348 205.55 330.343 209.63 318.463 212.364C321.169 209.533 323.376 207.382 323.376 207.382C341.321 202.108 345.47 197.167 349.856 188.66C351.855 184.774 354.422 181.748 356.518 180.18Z" fill="#FCCDE0"/>
<path fill-rule="evenodd" clip-rule="evenodd" d="M360.251 181.29C360.237 181.443 360.209 181.595 360.168 181.762C358.974 187.743 341.945 213.252 338.06 216.75C334.187 220.233 316.908 223.675 309.789 225.646C307.027 226.409 308.457 223.828 311.232 220.372C311.246 220.372 311.246 220.358 311.26 220.358C311.316 220.317 311.343 220.289 311.343 220.289C319.67 218.096 335.062 213.946 340.03 211.17C344.999 208.381 354.02 192.393 355.755 187.091C356.393 185.135 358.128 182.914 360.251 181.29Z" fill="#FE93BC"/>
<path fill-rule="evenodd" clip-rule="evenodd" d="M234.797 166.286C247.614 161.381 250.228 139.92 245.738 128.266C241.249 116.612 257.735 107.541 257.735 107.541C257.735 107.541 212.083 104.424 205.402 125.961C198.719 147.498 215.57 161.697 234.797 166.286Z" fill="#9FC3FC"/>
<path fill-rule="evenodd" clip-rule="evenodd" d="M264.32 177.115C272.738 184.566 289.316 178.334 296.079 170.659C302.843 162.984 315.676 171.522 315.676 171.522C315.676 171.522 300.647 137.183 282.473 140.489C264.299 143.794 260.37 161.412 264.32 177.115Z" fill="#9FC3FC"/>
<path fill-rule="evenodd" clip-rule="evenodd" d="M221.698 175.399C222.043 164.162 206.652 155.401 196.425 155.109C186.199 154.817 184.557 139.491 184.557 139.491C184.557 139.491 167.767 173.004 181.93 184.863C196.093 196.722 212.15 188.477 221.698 175.399Z" fill="#9FC3FC"/>
<path fill-rule="evenodd" clip-rule="evenodd" d="M280.161 170.787C280.072 170.44 279.718 170.231 279.37 170.322C265.157 174.022 249.72 183.254 246.212 193.904C245.382 190.459 244.006 187.469 242.072 184.907C240.758 183.168 239.185 181.643 237.367 180.315C235.366 175.139 235.576 168.36 235.786 161.797C236.093 152.267 236.41 142.413 229.976 136.987C229.703 136.758 229.294 136.79 229.062 137.065C228.83 137.339 228.865 137.749 229.139 137.98C235.092 143 234.799 152.11 234.488 161.755C234.295 167.79 234.107 174.001 235.606 179.14C228.158 174.616 217.074 172.993 202.029 174.198C201.671 174.226 201.405 174.539 201.435 174.897C201.462 175.255 201.781 175.525 202.133 175.492C217.985 174.218 229.297 176.113 236.456 181.26C236.459 181.262 236.461 181.263 236.465 181.265C238.239 182.542 239.768 184.01 241.036 185.689C243.41 188.834 244.896 192.679 245.518 197.278C245.518 197.286 245.516 197.294 245.516 197.301C245.509 197.394 245.522 197.482 245.551 197.565C246.755 207.063 244.284 219.782 238.053 236.466C237.928 236.802 238.099 237.176 238.434 237.301C238.509 237.329 238.586 237.342 238.662 237.342C238.924 237.342 239.173 237.181 239.27 236.919C245.58 220.02 248.068 207.073 246.818 197.327C247.786 185.909 264.459 175.544 279.697 171.578C280.044 171.489 280.252 171.134 280.161 170.787Z" fill="#4152F3"/>
<path fill-rule="evenodd" clip-rule="evenodd" d="M284.502 216.375C284.502 216.375 283.836 217.18 282.684 218.568C278.035 224.133 265.461 239.094 256.495 248.837C256.467 248.85 256.44 248.878 256.426 248.906L242.228 229.324L240.243 226.576C240.271 226.562 240.299 226.562 240.327 226.562C256.87 221.177 273.816 216.763 284.502 216.375Z" fill="#FE93BC"/>
<path fill-rule="evenodd" clip-rule="evenodd" d="M240.327 226.561C256.87 221.176 273.816 216.763 284.502 216.375C284.502 216.375 283.836 217.18 282.684 218.567C268.778 221.593 251.721 226.367 242.228 229.323L240.243 226.575C240.271 226.561 240.299 226.561 240.327 226.561Z" fill="#FCCDE0"/>
<path fill-rule="evenodd" clip-rule="evenodd" d="M185.743 227.311C184.73 229.393 181.912 229.934 178.762 229.434C178.401 229.379 178.04 229.31 177.665 229.226C177.638 229.226 177.61 229.212 177.582 229.199C172.656 228.047 167.382 224.535 167.187 220.386C167.048 217.36 162.288 218.373 156.542 221.413C152.268 223.647 147.452 227.006 143.566 230.642C142.914 231.239 142.303 231.849 141.734 232.46C141.567 232.627 141.415 232.793 141.262 232.96C139.042 235.333 137.362 237.734 136.585 239.982C132.63 251.154 111.729 228.283 111.729 228.283C112.631 227.297 113.699 226.021 114.907 224.535C116.822 222.218 119.084 219.4 121.68 216.486C130.104 207.021 143.386 201.164 156.973 203.218C173.793 205.758 184.216 216.652 185.895 223.536C185.909 223.564 185.909 223.591 185.923 223.619C186.27 225.077 186.215 226.34 185.743 227.311Z" fill="#FDB2D0"/>
<path fill-rule="evenodd" clip-rule="evenodd" d="M156.542 221.413C152.268 223.647 147.452 227.006 143.566 230.642C142.914 231.239 142.303 231.849 141.734 232.46C141.568 232.626 141.415 232.793 141.262 232.96C140.013 230.947 139.597 228.768 139.597 228.768L139.805 228.56C143.191 226.02 149.784 221.079 155.446 221.315C155.835 221.329 156.195 221.371 156.542 221.413Z" fill="#FE93BC"/>
<path fill-rule="evenodd" clip-rule="evenodd" d="M131.154 328.649C130.751 332.517 128.817 338.463 126.351 344.81C123.807 351.353 120.692 358.336 118.108 363.879C116.473 363.892 114.863 363.892 113.267 363.892C112.449 363.892 111.631 363.892 110.826 363.879C110.268 360.166 109.879 356.012 110.06 352.313C110.553 342.746 110.605 310.126 124.391 301.532C124.391 301.532 124.612 301.935 124.975 302.675C126.805 306.361 132.231 318.342 131.154 328.649Z" fill="#E8740C"/>
<path fill-rule="evenodd" clip-rule="evenodd" d="M197.031 351.469C196.733 354.611 195.98 357.999 195.097 361.153C193.708 361.27 192.293 361.361 190.866 361.464C189.723 361.543 188.568 361.62 187.4 361.698C185.946 356.895 184.284 351.093 182.87 345.381C180.884 337.412 179.365 329.622 179.546 325.028C179.884 316.317 184.946 307.101 187.945 302.376C189.217 300.364 190.126 299.157 190.126 299.157C202.535 309.645 197.914 341.928 197.031 351.469Z" fill="#E8740C"/>
<path fill-rule="evenodd" clip-rule="evenodd" d="M193.669 339.177C192.813 347.627 191.696 355.844 190.866 361.465C189.723 361.542 188.568 361.62 187.4 361.698C165.813 363.087 140.007 363.814 118.108 363.879C116.473 363.892 114.863 363.892 113.267 363.892C113.617 357.791 114.383 347.666 115.888 337.009C117.667 324.379 120.509 311.008 124.975 302.675C125.443 301.779 125.935 300.948 126.455 300.183C126.455 300.183 171.602 296.768 187.945 302.376C190.775 303.35 192.748 304.596 193.462 306.18C195.759 311.242 195.059 325.534 193.669 339.177Z" fill="#FDA218"/>
<path fill-rule="evenodd" clip-rule="evenodd" d="M193.669 339.177C192.813 347.627 191.696 355.844 190.866 361.465C189.723 361.542 188.568 361.62 187.4 361.698C165.813 363.087 140.007 363.814 118.108 363.879C116.473 363.892 114.863 363.892 113.267 363.892C113.617 357.791 114.383 347.666 115.888 337.009C118.017 340.734 121.821 343.149 126.351 344.81C130.751 346.433 135.827 347.341 140.721 348.03C145.952 348.782 150.976 349.276 154.701 350.145C156.986 350.678 159.803 350.756 162.866 350.496C169.24 349.938 176.717 347.887 182.869 345.381C187.633 343.434 191.605 341.215 193.669 339.177Z" fill="#FC8000"/>
<path fill-rule="evenodd" clip-rule="evenodd" d="M168.967 333.378C162.833 333.539 148.046 332.721 137.207 328.797C137.571 324.255 138.573 320.417 140.407 319.974C153.346 316.88 167.733 319.672 169.373 322.239C170.718 324.36 169.998 328.7 168.967 333.378Z" fill="#FC8000"/>
<path fill-rule="evenodd" clip-rule="evenodd" d="M168.967 333.378C168.753 334.393 168.511 335.432 168.283 336.459C166.967 342.222 165.576 353.151 155.509 353.981C145.442 354.811 139.357 348.529 137.879 342.082C137.13 338.826 136.848 333.437 137.207 328.797C148.046 332.721 162.833 333.54 168.967 333.378Z" fill="#E8740C"/>
<path fill-rule="evenodd" clip-rule="evenodd" d="M147.825 333.043C147.94 335.123 150.324 336.683 153.149 336.527C155.975 336.372 158.173 334.559 158.059 332.479C157.944 330.4 155.56 328.839 152.734 328.995C149.909 329.15 147.711 330.963 147.825 333.043Z" fill="#914B0C"/>
<path fill-rule="evenodd" clip-rule="evenodd" d="M373.816 181.045C328.267 236.395 250.162 310.385 177.638 313.67C74.2203 318.356 70.7545 244.936 65.6919 204.982C60.6295 165.027 35.5764 118.037 35.5764 118.037C35.5764 118.037 38.1986 118.919 52.958 146.296C67.7167 173.672 77.9328 262.889 123.365 278.258C168.811 293.627 275.149 260.28 302.682 245.131C309.678 241.276 320.128 231.787 331.849 219.754L331.862 219.741C337.743 213.705 343.922 207.046 350.153 200.127L350.165 200.114C357.863 191.572 365.587 182.681 372.856 174.152C373.245 176.45 373.57 178.747 373.816 181.045Z" fill="#040078"/>
<path fill-rule="evenodd" clip-rule="evenodd" d="M108.66 108.062H202.378C208.769 102.975 213.584 94.6921 205.242 87.1134C192.472 75.5307 184.491 91.9788 184.13 92.7487C184.25 91.7832 187.151 67.104 161.056 63.9215C134.443 60.6733 137.572 86.8659 137.572 86.8659C137.572 86.8659 130.061 79.9915 124.235 84.8046C118.398 89.6181 124.585 94.7966 124.585 94.7966C118.398 93.9617 107.841 93.5833 105.193 99.4011C103.328 103.484 104.676 106.301 108.66 108.062Z" fill="white"/>
<path fill-rule="evenodd" clip-rule="evenodd" d="M301.517 286.059C301.503 286.073 301.503 286.073 301.49 286.073C295.383 290.763 289.859 295.649 284.96 300.715C284.946 300.715 284.946 300.728 284.946 300.728C284.308 301.381 283.669 302.047 283.059 302.713C281.685 304.184 280.367 305.669 279.103 307.182L279.09 307.196C278.285 308.14 277.507 309.097 276.758 310.055C269 319.811 263.421 330.054 260.104 340.504V340.532C259.729 341.67 259.396 342.808 259.091 343.96V343.974C258.605 345.764 258.188 347.568 257.856 349.372C257.481 349.511 257.12 349.636 256.745 349.761C258.064 342.53 260.451 335.369 263.879 328.36L263.893 328.347C264.85 326.362 265.891 324.405 267.029 322.448L267.043 322.435C269.805 317.646 273.066 312.927 276.814 308.334C278.687 306.016 280.672 303.754 282.781 301.505C283.558 300.673 284.35 299.854 285.168 299.035C285.432 298.785 285.682 298.522 285.932 298.272C290.414 293.803 295.369 289.487 300.782 285.337C300.823 285.309 300.851 285.268 300.893 285.24C301.115 285.074 301.434 285.115 301.614 285.351C301.781 285.573 301.739 285.892 301.517 286.059Z" fill="#4152F3"/>
<path fill-rule="evenodd" clip-rule="evenodd" d="M285.17 299.034C286.954 287.19 292.56 273.414 303.966 263.764C303.966 263.764 301.684 282.764 285.17 299.034Z" fill="#4152F3"/>
<path fill-rule="evenodd" clip-rule="evenodd" d="M299.826 286.637C306.749 276.863 317.953 267.082 332.482 263.596C332.482 263.596 321.895 279.537 299.826 286.637Z" fill="#4152F3"/>
<path fill-rule="evenodd" clip-rule="evenodd" d="M278.117 307.404C286.018 298.403 298.178 289.84 312.991 287.883C312.991 287.883 300.804 302.637 278.117 307.404Z" fill="#4152F3"/>
<path fill-rule="evenodd" clip-rule="evenodd" d="M263.97 328.991C262.156 317.152 263.417 302.333 271.442 289.73C271.442 289.73 274.906 308.55 263.97 328.991Z" fill="#4152F3"/>
<path fill-rule="evenodd" clip-rule="evenodd" d="M258.299 344.443C262.911 333.39 271.7 321.392 285.111 314.806C285.111 314.806 278.275 332.68 258.299 344.443Z" fill="#4152F3"/>
<path fill-rule="evenodd" clip-rule="evenodd" d="M246.156 325.016C246.156 325.016 252.956 334.814 255.066 350.316C253.234 350.899 251.374 351.468 249.501 352.009C246.406 343.932 244.782 334.633 246.156 325.016Z" fill="#4152F3"/>
<path fill-rule="evenodd" clip-rule="evenodd" d="M269.513 345.042C267.557 345.848 265.586 346.625 263.587 347.36C265.336 344.044 267.487 340.865 270.082 337.895C270.082 337.895 270.165 340.629 269.513 345.042Z" fill="#4152F3"/>
<path fill-rule="evenodd" clip-rule="evenodd" d="M354.02 257.65C354.006 257.664 354.006 257.664 353.992 257.664C345.706 261.952 338.087 266.615 331.162 271.597C331.148 271.612 331.12 271.625 331.106 271.639C328.219 273.735 325.444 275.844 322.821 278.051L322.807 278.065C318.935 281.271 315.326 284.602 312.009 288.03C310.163 289.903 308.401 291.846 306.736 293.789C306.736 293.803 306.736 293.803 306.722 293.817C301.295 300.146 296.743 306.793 293.107 313.691C293.107 313.705 293.093 313.719 293.093 313.733C292.413 315.023 291.774 316.286 291.178 317.591V317.605L291.164 317.619C288.027 324.281 285.738 331.178 284.336 338.256C283.919 338.478 283.503 338.686 283.086 338.894C283.031 338.922 282.976 338.95 282.92 338.977C283.253 337.187 283.642 335.424 284.086 333.676C287.07 321.879 292.496 310.568 300.185 300.035C300.185 300.035 300.185 300.02 300.199 300.02C300.962 298.98 301.739 297.953 302.558 296.926V296.912C303.419 295.829 304.293 294.747 305.195 293.678C305.195 293.678 305.195 293.664 305.209 293.678C305.209 293.664 305.223 293.651 305.237 293.637C306.736 291.86 308.29 290.111 309.941 288.391L309.955 288.377C316.242 281.715 323.542 275.456 331.786 269.641C331.967 269.516 332.147 269.391 332.328 269.266C332.508 269.141 332.688 269.016 332.869 268.891C339.128 264.533 345.942 260.453 353.27 256.65C353.27 256.65 353.284 256.637 353.298 256.637C353.353 256.609 353.395 256.581 353.451 256.553C353.756 256.387 354.131 256.525 354.297 256.831C354.45 257.122 354.325 257.497 354.02 257.65Z" fill="#4152F3"/>
<path fill-rule="evenodd" clip-rule="evenodd" d="M331.791 269.635C336.436 255.907 346.043 240.69 361.684 231.62C361.684 231.62 354.923 253.767 331.791 269.635Z" fill="#4152F3"/>
<path fill-rule="evenodd" clip-rule="evenodd" d="M366.302 246.838C365.261 249.822 364.123 252.778 362.874 255.706C360.085 256.497 357.115 257.164 353.992 257.663C353.298 257.788 352.59 257.885 351.882 257.982C352.327 257.538 352.798 257.094 353.27 256.65C353.27 256.65 353.284 256.636 353.298 256.636C357.059 253.111 361.431 249.738 366.302 246.838Z" fill="#4152F3"/>
<path fill-rule="evenodd" clip-rule="evenodd" d="M359.862 262.41C358.78 264.672 357.628 266.92 356.42 269.141L356.407 269.155C348.69 273.11 337.157 277.412 322.821 278.051C322.418 278.078 322.016 278.092 321.614 278.106C324.472 275.816 327.664 273.624 331.106 271.639C331.12 271.625 331.148 271.611 331.162 271.597C339.433 266.837 349.245 263.256 359.862 262.41Z" fill="#4152F3"/>
<path fill-rule="evenodd" clip-rule="evenodd" d="M300.165 300.811C300.523 286.323 305.177 268.939 317.417 255.633C317.417 255.633 317.541 278.789 300.165 300.811Z" fill="#4152F3"/>
<path fill-rule="evenodd" clip-rule="evenodd" d="M290.123 318.012C297.968 305.826 310.989 293.404 328.366 288.412C328.366 288.412 316.42 308.249 290.123 318.012Z" fill="#4152F3"/>
<path fill-rule="evenodd" clip-rule="evenodd" d="M284.086 333.676C283.822 335.383 283.489 337.118 283.086 338.894C283.031 338.922 282.976 338.95 282.92 338.977C282.684 339.102 282.434 339.227 282.185 339.338C280.588 335.369 279.242 331.025 278.285 326.459C277.813 324.238 277.438 321.976 277.188 319.659C276.827 316.522 276.674 313.316 276.758 310.055C276.772 309.486 276.786 308.917 276.814 308.334V308.32C277.105 303.018 278.035 297.633 279.797 292.29C279.797 292.29 281.352 295.676 282.781 301.506C282.851 301.797 282.92 302.102 283.003 302.422C283.017 302.518 283.045 302.616 283.059 302.713C283.295 303.726 283.517 304.808 283.739 305.961C284.225 308.625 284.641 311.637 284.891 314.912C284.891 315.037 284.905 315.176 284.905 315.301V315.315C285.279 320.783 285.154 326.973 284.086 333.676Z" fill="#4152F3"/>
<path fill-rule="evenodd" clip-rule="evenodd" d="M305.556 312.719C305.556 312.719 304.529 319.7 300.157 329.165H300.143C296.021 331.844 291.733 334.356 287.278 336.715C291.247 327.93 297.201 319.422 305.556 312.719Z" fill="#4152F3"/>
<path fill-rule="evenodd" clip-rule="evenodd" d="M47.8434 361.413C43.1183 361.089 38.3673 360.738 33.6034 360.361C32.1886 360.245 30.7608 360.128 29.3326 360.011C26.2175 359.751 23.0889 359.492 19.9607 359.219C19.2076 359.154 18.4679 359.089 17.7152 359.025C17.1047 358.96 16.4819 358.908 15.8715 358.856C15.9237 358.298 15.9625 357.713 16.0144 357.116C16.0663 356.428 16.1183 355.714 16.1705 354.974C16.1836 354.884 16.1963 354.805 16.1963 354.715C16.2351 354.273 16.2609 353.832 16.3001 353.378C16.3908 352.158 16.4819 350.898 16.5727 349.6C16.936 344.265 17.3127 338.242 17.6372 331.843C17.7279 330.168 17.8056 328.48 17.8836 326.767C18.3511 316.279 18.6364 305.05 18.4937 294.367C18.416 287.448 18.1692 280.75 17.676 274.636C16.9751 266.056 16.8583 256.346 17.0401 246.222C17.0659 244.833 17.092 243.444 17.1305 242.042C17.157 240.808 17.1958 239.562 17.2347 238.303V238.29C17.3127 235.642 17.4165 232.994 17.533 230.32V230.307C17.5853 229.009 17.6372 227.711 17.6891 226.413C17.7021 226.192 17.7152 225.971 17.7279 225.764V225.751C17.9224 221.415 18.1435 217.093 18.3638 212.822C18.8185 204.073 19.2987 195.571 19.6232 187.73V187.717C19.6493 187.055 19.6881 186.406 19.7139 185.757V185.744C20.2075 173.243 20.2721 162.625 19.221 155.759C17.8186 146.581 19.8438 125.993 22.2451 104.666C22.2973 104.186 22.3492 103.719 22.4008 103.238C22.4142 103.095 22.44 102.953 22.453 102.81C22.4661 102.706 22.4788 102.602 22.4788 102.511C22.583 101.616 22.6868 100.72 22.7902 99.8242C22.9463 98.4875 23.0889 97.1631 23.245 95.8391C23.2577 95.8261 23.245 95.8261 23.245 95.8261C24.0366 88.8557 24.8285 81.9758 25.5036 75.5242C25.6074 74.5769 25.6981 73.642 25.7892 72.7204V72.7074C26.6715 64.0882 27.2947 56.4167 27.3988 50.6143C32.0587 49.9262 36.6931 49.2384 41.2883 48.5503C41.3271 50.095 41.3398 51.7177 41.3398 53.3792C41.3398 53.3792 41.3529 53.3792 41.3398 53.392C41.3398 53.8725 41.3398 54.3527 41.3271 54.8459C41.3398 55.0796 41.3271 55.3134 41.3271 55.5467C41.3271 56.2998 41.3141 57.0526 41.301 57.8184V58.1302C41.2752 59.0389 41.2622 59.9605 41.236 60.882V60.895C40.8078 76.1735 39.1331 93.3599 36.018 102.771C34.4084 107.639 33.967 114.025 34.1227 121.151V121.165C34.1485 122.06 34.1746 122.956 34.2138 123.878V123.891C34.7717 137.157 37.0691 152.539 37.6273 165.351C37.6665 166.13 37.6923 166.896 37.7184 167.662C37.8353 172.27 37.6923 176.489 37.1213 180.085C35.4598 190.417 35.7196 210.083 36.9265 229.411C38.0429 247.364 39.9639 265.044 41.9111 274.727C43.8194 284.229 45.3641 307.465 46.4675 329.298C46.7531 335.192 47.0257 340.981 47.2594 346.381C47.4928 351.911 47.6877 357.038 47.8434 361.413Z" fill="#C0D2FF"/>
<path fill-rule="evenodd" clip-rule="evenodd" d="M43.949 146.711C43.9621 146.983 43.9751 147.269 43.9751 147.555C44.027 149.58 43.871 151.657 43.4692 153.798C42.4954 159.029 40.4186 163.56 37.7184 167.662C34.0189 173.308 29.1638 178.137 24.4133 182.875C22.7775 184.498 21.1678 186.108 19.6235 187.717V187.73C15.8068 191.715 12.4579 195.726 10.264 200.27C6.79822 207.461 9.70576 217.313 13.509 227.945C13.8596 228.918 14.2233 229.905 14.5735 230.891C14.6124 230.995 14.6646 231.112 14.7035 231.229C14.7554 231.371 14.8073 231.514 14.8592 231.657C14.898 231.761 14.9372 231.878 14.976 231.982C15.7422 234.071 16.5077 236.187 17.2346 238.29V238.303C17.9877 240.471 18.7144 242.652 19.3375 244.807C21.3108 251.518 22.4919 258.073 21.5312 264.031L20.259 263.824C21.1551 258.203 20.0645 251.946 18.2081 245.52C17.8709 244.365 17.5072 243.21 17.1308 242.042C16.0924 238.835 14.9241 235.616 13.7558 232.423C9.22558 220 4.95485 208.279 9.096 199.711C9.38129 199.114 9.69304 198.53 10.0045 197.959C10.0567 197.881 10.0952 197.803 10.1471 197.725C10.2124 197.595 10.2901 197.479 10.3551 197.349C11.0559 196.154 11.8344 194.986 12.6783 193.844C12.6783 193.844 12.6917 193.844 12.6783 193.831C14.7165 191.04 17.1308 188.405 19.7139 185.757V185.744C20.9472 184.485 22.2193 183.226 23.4911 181.954C28.6452 176.826 33.9024 171.595 37.6273 165.351C39.7563 161.794 41.379 157.913 42.1967 153.552C42.5992 151.371 42.7549 149.268 42.6772 147.191C42.6642 146.945 42.6511 146.685 42.6381 146.425C42.6381 146.36 42.625 146.296 42.625 146.231C42.5215 144.634 42.2747 143.063 41.9369 141.519C40.6001 135.456 37.6146 129.706 34.2138 123.891V123.878C33.3569 122.411 32.4742 120.944 31.5915 119.464C28.8005 114.804 25.9449 110.053 23.5564 104.926C23.4653 104.731 23.3749 104.523 23.2838 104.329C23.115 103.978 22.9593 103.615 22.8033 103.264C22.6998 103.005 22.5829 102.758 22.4788 102.511C21.635 100.525 20.8826 98.4874 20.2333 96.3842C19.3636 93.5674 19.1169 90.8417 19.3506 88.2067C19.8308 82.7677 22.375 77.6531 25.7892 72.7204V72.7073C28.4241 68.9171 31.5527 65.2307 34.6548 61.5831C37.0045 58.8052 39.328 56.0791 41.3398 53.3919C41.3529 53.3792 41.3398 53.3792 41.3398 53.3792C42.703 51.5746 43.9363 49.7835 44.9616 48.0051C45.5067 47.914 46.0388 47.8363 46.5713 47.7583C45.5067 49.7443 44.1958 51.7303 42.7288 53.7167C42.2747 54.3268 41.8076 54.9369 41.3271 55.5467C40.4833 56.6242 39.6006 57.7149 38.6918 58.8052C38.5622 58.9609 38.4323 59.1166 38.3023 59.2723C38.1728 59.4153 38.0559 59.571 37.9263 59.714C37.1732 60.6094 36.4074 61.5051 35.6416 62.4139C32.0067 66.6973 28.3203 71.0458 25.5035 75.5245C22.5957 80.1585 20.61 84.9483 20.5705 89.9848C20.5577 91.9451 20.8303 93.9569 21.4665 96.0078C21.869 97.3061 22.3104 98.5782 22.7902 99.8242C23.2838 101.096 23.8032 102.343 24.3614 103.576C26.7887 108.95 29.7873 113.921 32.7079 118.789C33.1878 119.581 33.6556 120.373 34.1227 121.152V121.165C38.4972 128.499 42.4304 135.638 43.6249 143.427C43.7675 144.374 43.871 145.322 43.9232 146.283C43.9363 146.425 43.949 146.568 43.949 146.711Z" fill="#9FC3FC"/>
<mask id="mask2" mask-type="alpha" maskUnits="userSpaceOnUse" x="0" y="327" width="100" height="37">
<path fill-rule="evenodd" clip-rule="evenodd" d="M0.195572 327.5H99.0407V363.671H0.195572V327.5Z" fill="white"/>
</mask>
<g mask="url(#mask2)">
<path fill-rule="evenodd" clip-rule="evenodd" d="M94.9117 363.671C79.4776 363.295 63.7579 362.503 47.8436 361.413C43.1181 361.088 38.3672 360.738 33.6035 360.361C32.1888 360.244 30.7606 360.128 29.3328 360.011C26.2176 359.751 23.0891 359.492 19.9605 359.219C19.2078 359.154 18.4681 359.089 17.715 359.024C17.1049 358.96 16.4817 358.908 15.8716 358.855C15.4695 358.817 15.0539 358.778 14.6514 358.739C9.19966 358.246 3.72177 357.713 -1.75611 357.168C-12.5562 356.091 -23.382 354.909 -34.2079 353.663C-37.6609 349.847 -38.1156 346.199 -32.0662 344.875C-32.0662 344.875 -34.7791 336.23 -23.2133 333.971C-21.396 333.621 -19.3062 333.906 -17.0476 334.685C-11.6866 336.503 -5.31294 341.072 0.76199 346.329V346.342C0.943817 346.485 1.12565 346.641 1.29441 346.796C1.29441 346.796 1.29441 346.809 1.30748 346.809C5.52597 350.509 9.60216 354.507 13.081 358.128C13.2109 357.973 13.3535 357.804 13.4962 357.649C13.9506 357.116 14.4442 356.571 14.9628 356.013C15.3134 355.636 15.6767 355.247 16.0662 354.857C16.0923 354.805 16.1442 354.754 16.1961 354.715C16.326 354.572 16.456 354.442 16.6117 354.299C16.9492 353.936 17.3256 353.559 17.702 353.196C23.076 347.861 29.969 342.11 35.6545 337.593C41.7556 332.738 46.4677 329.298 46.4677 329.298C50.6992 325.586 53.3472 328.221 55.5928 331.778C58.1892 335.841 60.266 341.111 63.6279 339.423C69.9239 336.256 79.192 335.231 79.3865 341.721C79.5811 348.211 87.4997 346.628 92.9776 351.054C96.7032 354.053 103.44 358.947 94.9117 363.671Z" fill="#4152F3"/>
</g>
<path fill-rule="evenodd" clip-rule="evenodd" d="M45.4159 218.962C45.377 219.014 45.3251 219.105 45.2213 219.247C45.3121 219.117 45.377 219.014 45.4159 218.962Z" fill="#C0D2FF"/>
<mask id="mask3" mask-type="alpha" maskUnits="userSpaceOnUse" x="0" y="219" width="59" height="142">
<path fill-rule="evenodd" clip-rule="evenodd" d="M0.195572 219.247H58.7994V360.361H0.195572V219.247Z" fill="white"/>
</mask>
<g mask="url(#mask3)">
<path fill-rule="evenodd" clip-rule="evenodd" d="M55.5929 331.778C53.7626 336.905 51.0496 341.825 47.2594 346.381C45.2342 348.821 42.911 351.158 40.2365 353.365C37.8871 356.207 35.7066 358.583 33.6033 360.361C32.1886 360.244 30.7608 360.127 29.3329 360.011C26.2174 359.751 23.0892 359.492 19.9607 359.219C19.2079 359.154 18.4679 359.089 17.7152 359.024C17.1047 358.96 16.4819 358.908 15.8714 358.855C15.4696 358.817 15.0541 358.778 14.6516 358.738C14.2752 358.401 13.8858 358.038 13.496 357.649C11.1336 355.338 8.57663 352.339 5.70759 348.588C5.05864 347.718 4.37086 346.796 3.68273 345.836C2.55326 344.291 1.38529 342.629 0.16474 340.864C-11.3231 324.132 -10.1806 299.04 -3.97607 278.842C0.722943 263.499 8.32984 250.972 15.547 247.065C16.0536 246.793 16.5465 246.507 17.0401 246.221C17.4295 246.001 17.819 245.767 18.208 245.52C18.5848 245.287 18.9611 245.053 19.3375 244.807C26.2305 240.341 32.3443 234.448 36.9264 229.411C41.3921 224.517 44.3776 220.416 45.2211 219.247C43.5726 221.844 33.4868 239.224 44.6241 261.214C53.7107 279.192 64.2121 307.789 55.5929 331.778Z" fill="#9FC3FC"/>
</g>
<mask id="mask4" mask-type="alpha" maskUnits="userSpaceOnUse" x="0" y="267" width="36" height="94">
<path fill-rule="evenodd" clip-rule="evenodd" d="M0.195572 267.328H35.7682V360.011H0.195572V267.328Z" fill="white"/>
</mask>
<g mask="url(#mask4)">
<path fill-rule="evenodd" clip-rule="evenodd" d="M35.6544 337.593C35.5375 339.177 35.3038 340.76 34.9535 342.318C33.1232 350.405 31.319 356.13 29.3327 360.011C26.2175 359.751 23.089 359.492 19.9608 359.219C19.2077 359.154 18.468 359.089 17.7152 359.024C17.1048 358.959 16.4819 358.908 15.8715 358.855C15.4693 358.816 15.0538 358.778 14.6516 358.739C9.19952 358.246 3.72198 357.713 -1.75625 357.168C-9.50579 351.508 -14.2567 343.447 -17.0474 334.685C-21.0713 322.068 -21.0586 307.997 -20.1237 297.547C-18.3848 278.154 -31.0925 268.509 -32.741 267.328C-31.0537 268.405 -17.4887 276.973 -3.976 278.842C-3.71615 278.881 -3.45664 278.92 -3.19713 278.946C2.7221 279.647 11.056 285.657 18.4937 294.367C28.4761 306.05 36.8488 322.561 35.6544 337.593Z" fill="white"/>
</g>
<mask id="mask5" mask-type="alpha" maskUnits="userSpaceOnUse" x="0" y="287" width="21" height="73">
<path fill-rule="evenodd" clip-rule="evenodd" d="M0.195572 287.422H20.8257V359.219H0.195572V287.422Z" fill="white"/>
</mask>
<g mask="url(#mask5)">
<path fill-rule="evenodd" clip-rule="evenodd" d="M15.7679 346.705C15.7679 346.744 15.7421 346.796 15.7421 346.835C16.0147 347.757 16.2872 348.691 16.5729 349.6C16.9358 350.808 17.3125 352.001 17.702 353.196C18.364 355.169 19.0652 357.116 19.8437 359.05C19.8568 359.076 19.8568 359.076 19.896 359.115C19.9217 359.141 19.9475 359.18 19.9606 359.219C19.2078 359.154 18.4678 359.089 17.715 359.024C17.1438 358.349 16.5729 357.713 16.0147 357.116C15.651 356.74 15.3135 356.363 14.9629 356.013C11.1857 352.131 8.01832 349.873 5.70748 348.588C2.99483 347.056 1.45015 346.848 1.41097 346.835C1.37213 346.835 1.33329 346.823 1.30751 346.81C1.29445 346.81 1.29445 346.796 1.29445 346.796C1.04765 346.744 0.852763 346.563 0.762021 346.342V346.329C0.722836 346.212 0.697057 346.083 0.710119 345.953C0.749303 345.524 1.1384 345.213 1.58008 345.252C1.67048 345.265 2.41085 345.356 3.68262 345.836C6.0842 346.744 10.433 349.055 16.0662 354.857C16.1051 354.896 16.1315 354.935 16.1704 354.974C16.5206 355.325 16.8712 355.688 17.2215 356.078C17.0139 355.48 16.8062 354.896 16.6117 354.299C16.5076 353.988 16.4041 353.676 16.3003 353.378C15.6379 351.353 15.0282 349.328 14.4569 347.277C14.2878 347.134 14.1709 346.913 14.1843 346.68C14.1709 346.563 14.1843 346.472 14.1974 346.355C13.2625 343.032 12.4317 339.696 11.614 336.347C11.1857 334.568 10.7574 332.764 10.3292 330.959C8.77142 324.47 7.23945 317.992 5.51294 311.541C3.31931 303.324 0.762021 295.159 -2.82059 287.422C1.09956 295.003 3.79983 303.155 6.25297 311.333C8.23899 318.148 9.9655 325.054 11.7309 331.947C12.0811 333.309 12.4448 334.685 12.7954 336.061C13.3013 338.008 13.8465 339.968 14.3531 341.916C14.5607 338.917 14.9113 336.372 15.3654 334.244C16.1051 330.739 17.0658 328.325 17.8835 326.767C18.7142 325.144 19.3766 324.431 19.4546 324.353C19.766 324.041 20.272 324.028 20.5837 324.353C20.8952 324.638 20.9082 325.144 20.6099 325.469C20.5837 325.495 18.9872 327.235 17.637 331.843C17.3514 332.803 17.0788 333.893 16.8324 335.114C16.2219 338.099 15.7809 341.929 15.7679 346.705Z" fill="#C0D2FF"/>
</g>
<path fill-rule="evenodd" clip-rule="evenodd" d="M58.3299 139.65C54.8466 143.601 50.0669 146.382 44.921 147.479C44.4116 147.581 43.8232 147.65 43.4162 147.366C43.3598 147.327 43.2997 147.277 43.2471 147.212C43.2361 147.197 43.2172 147.178 43.2062 147.163C42.9408 146.788 42.9914 146.262 43.0793 145.811C44.059 140.386 46.8445 135.306 50.8904 131.558C54.9291 127.806 60.2097 125.405 65.6917 124.823C65.2408 130.071 61.8204 135.703 58.3299 139.65Z" fill="white"/>
<path fill-rule="evenodd" clip-rule="evenodd" d="M57.3699 132.878C57.3582 132.9 57.2857 132.968 57.1479 133.107C56.9564 133.276 56.7268 133.482 56.4508 133.741C55.8427 134.277 54.9704 135.069 53.9097 136.059C51.7889 138.04 48.9463 140.871 46.0419 144.214C45.1097 145.289 44.2342 146.346 43.4162 147.365C43.3598 147.327 43.2997 147.277 43.2471 147.212C43.2361 147.197 43.2172 147.178 43.2062 147.162C44.0242 146.143 44.8956 145.094 45.8164 144.022C48.736 140.668 51.6084 137.853 53.7708 135.902C54.8501 134.931 55.7417 134.158 56.3762 133.645C56.6704 133.406 56.9114 133.215 57.1063 133.057C57.2747 132.934 57.3661 132.866 57.3699 132.878Z" fill="#C0D2FF"/>
<path fill-rule="evenodd" clip-rule="evenodd" d="M19.567 88.5093C22.6931 92.7484 24.4014 98.008 24.387 103.27C24.3784 103.789 24.3227 104.379 23.958 104.716C23.9088 104.764 23.8473 104.811 23.7724 104.849C23.7555 104.857 23.7325 104.871 23.715 104.879C23.2932 105.059 22.7893 104.898 22.3676 104.717C17.2723 102.614 12.895 98.8178 10.0861 94.071C7.27204 89.3311 6.04118 83.6625 6.63032 78.1812C11.6648 79.7303 16.4467 84.2633 19.567 88.5093Z" fill="white"/>
<path fill-rule="evenodd" clip-rule="evenodd" d="M12.7456 88.0171C12.7655 88.0332 12.816 88.1185 12.9226 88.2824C13.047 88.5052 13.2 88.7733 13.3952 89.0974C13.7905 89.8055 14.3799 90.8256 15.1241 92.0713C16.6124 94.5629 18.7789 97.9393 21.4321 101.484C22.2866 102.623 23.1345 103.701 23.9581 104.716C23.9089 104.764 23.8474 104.812 23.7725 104.849C23.7553 104.857 23.7326 104.871 23.7151 104.879C22.8919 103.864 22.0497 102.791 21.197 101.664C18.5362 98.1019 16.3907 94.6994 14.9416 92.1737C14.2198 90.9136 13.6533 89.879 13.2855 89.1503C13.1133 88.8121 12.9779 88.5365 12.8652 88.3123C12.7803 88.1223 12.7335 88.0181 12.7456 88.0171Z" fill="#C0D2FF"/>
<path fill-rule="evenodd" clip-rule="evenodd" d="M13.4397 181.427C14.4582 186.595 13.759 192.081 11.5008 196.833C11.2712 197.299 10.969 197.809 10.4957 197.958C10.4308 197.98 10.3545 197.997 10.2709 197.999C10.252 197.999 10.2252 198.002 10.2067 198.002C9.7478 197.985 9.36077 197.624 9.05657 197.281C5.3461 193.204 3.00673 187.903 2.49184 182.412C1.96973 176.924 3.27518 171.272 6.14697 166.566C10.0386 170.116 12.4295 176.256 13.4397 181.427Z" fill="white"/>
<path fill-rule="evenodd" clip-rule="evenodd" d="M7.48064 178.071C7.4913 178.094 7.50092 178.193 7.52739 178.387C7.54492 178.642 7.56932 178.949 7.60679 179.326C7.66247 180.135 7.76009 181.309 7.9017 182.753C8.18493 185.641 8.7036 189.619 9.5904 193.958C9.87707 195.352 10.1837 196.689 10.4954 197.958C10.4308 197.98 10.3545 197.998 10.271 198C10.2521 197.999 10.2253 198.002 10.2067 198.002C9.8946 196.733 9.59178 195.403 9.30099 194.02C8.41419 189.663 7.9261 185.67 7.69272 182.768C7.57792 181.32 7.50711 180.143 7.4858 179.327C7.47411 178.948 7.4693 178.64 7.46277 178.39C7.46689 178.181 7.4693 178.067 7.48064 178.071Z" fill="#C0D2FF"/>
<path fill-rule="evenodd" clip-rule="evenodd" d="M17.0008 214.928C14.2974 219.448 13.1026 224.847 13.6237 230.083C13.6825 230.599 13.7949 231.181 14.1898 231.482C14.2438 231.524 14.3094 231.566 14.3871 231.596C14.4053 231.602 14.4294 231.614 14.4472 231.62C14.8848 231.759 15.3708 231.551 15.773 231.33C20.6425 228.746 24.6341 224.546 26.9731 219.551C29.3177 214.562 29.9975 208.802 28.8835 203.402C24.022 205.429 19.6983 210.401 17.0008 214.928Z" fill="white"/>
<path fill-rule="evenodd" clip-rule="evenodd" d="M23.7433 213.781C23.7251 213.799 23.6831 213.888 23.5927 214.062C23.4903 214.296 23.3638 214.577 23.2009 214.919C22.8754 215.661 22.3869 216.733 21.7658 218.045C20.5243 220.668 18.693 224.237 16.3928 228.021C15.6524 229.237 14.912 230.392 14.1899 231.482C14.2435 231.524 14.3095 231.566 14.3872 231.596C14.4054 231.602 14.4291 231.614 14.4473 231.62C15.1695 230.531 15.9037 229.381 16.6444 228.178C18.9504 224.376 20.7577 220.783 21.958 218.13C22.5547 216.806 23.0191 215.722 23.3147 214.961C23.4535 214.607 23.5621 214.32 23.6525 214.086C23.7192 213.889 23.7553 213.781 23.7433 213.781Z" fill="#C0D2FF"/>
<path fill-rule="evenodd" clip-rule="evenodd" d="M54.5453 60.0813C49.5703 61.8123 44.0408 61.8872 39.0194 60.3157C38.5261 60.1538 37.9793 59.9256 37.7648 59.4781C37.7342 59.4166 37.7067 59.3437 37.6926 59.2612C37.6906 59.2423 37.6833 59.2165 37.6813 59.1976C37.6338 58.7411 37.9367 58.3074 38.2347 57.9582C41.7523 53.7142 46.6737 50.6565 52.0392 49.3789C57.3999 48.094 63.1785 48.5962 68.2402 50.7819C65.2697 55.1317 59.5241 58.3576 54.5453 60.0813Z" fill="white"/>
<path fill-rule="evenodd" clip-rule="evenodd" d="M57.0349 53.7113C57.0136 53.7254 56.917 53.7484 56.7287 53.8017C56.4791 53.8546 56.178 53.9217 55.8102 54.0121C55.0173 54.1801 53.8686 54.441 52.4583 54.783C49.6377 55.467 45.7712 56.537 41.5998 58.0223C40.2593 58.5011 38.9779 58.9915 37.7649 59.4779C37.7343 59.4167 37.7068 59.3439 37.6927 59.2614C37.6906 59.2425 37.6834 59.2167 37.681 59.1978C38.8947 58.7114 40.1692 58.2254 41.4973 57.7442C45.6876 56.2569 49.5727 55.2151 52.4146 54.5782C53.8314 54.2623 54.9874 54.0272 55.7924 53.8918C56.1667 53.8275 56.4698 53.7794 56.717 53.7381C56.9242 53.713 57.0373 53.6996 57.0349 53.7113Z" fill="#C0D2FF"/>
<path fill-rule="evenodd" clip-rule="evenodd" d="M41.8692 141.432C42.9918 142.963 43.6019 144.861 43.5912 146.758C43.5875 146.945 43.5665 147.158 43.4352 147.279C43.417 147.296 43.3946 147.313 43.3678 147.327C43.3616 147.329 43.3534 147.334 43.3472 147.337C43.1949 147.402 43.0135 147.343 42.8615 147.277C41.0271 146.514 39.4532 145.141 38.4454 143.427C37.4362 141.715 36.9983 139.67 37.2166 137.695C39.0294 138.259 40.7487 139.898 41.8692 141.432Z" fill="white"/>
<path fill-rule="evenodd" clip-rule="evenodd" d="M39.4105 141.248C39.4177 141.253 39.4359 141.284 39.4744 141.343C39.5187 141.424 39.5737 141.52 39.6435 141.638C39.7855 141.893 39.9969 142.262 40.2636 142.711C40.7974 143.611 41.5752 144.831 42.5277 146.112C42.8346 146.523 43.1392 146.912 43.4351 147.279C43.4169 147.296 43.3949 147.314 43.3681 147.327C43.3616 147.33 43.3536 147.335 43.3471 147.338C43.0515 146.971 42.7494 146.583 42.4428 146.176C41.4872 144.889 40.7176 143.66 40.1976 142.748C39.9391 142.293 39.7356 141.92 39.604 141.657C39.5425 141.535 39.4937 141.435 39.4534 141.354C39.4229 141.285 39.4064 141.248 39.4105 141.248Z" fill="#C0D2FF"/>
<path fill-rule="evenodd" clip-rule="evenodd" d="M20.3101 116.301L20.4998 116.926C20.5016 116.926 20.5029 116.926 20.5029 116.926L20.3101 116.301ZM31.8808 120.161C27.8802 120.161 19.6818 118.087 19.39 116.605C19.3202 116.253 19.5182 115.828 20.1173 115.676C20.4971 115.581 20.8907 115.78 20.9986 116.125C21.0264 116.217 21.0319 116.309 21.0165 116.397C22.7811 117.331 30.7276 119.6 33.5173 118.651C34.0634 118.465 34.1415 118.236 34.1456 118.017C34.1525 117.662 34.4707 117.378 34.8605 117.378H34.8715C35.2668 117.384 35.5823 117.679 35.5751 118.038C35.5627 118.741 35.151 119.948 32.5411 120.139C32.3373 120.153 32.1156 120.161 31.8808 120.161Z" fill="#040078"/>
<path fill-rule="evenodd" clip-rule="evenodd" d="M256.426 248.906C251.846 253.874 248.224 257.469 247.086 257.705C243.186 258.565 193.418 267.655 192.349 261.605C191.267 255.54 194.722 244.284 194.722 244.284C196.79 243.202 199.705 241.855 203.244 240.329C212.583 236.304 226.268 231.1 240.243 226.575L242.228 229.323L256.426 248.906Z" fill="#421CBF"/>
<path fill-rule="evenodd" clip-rule="evenodd" d="M342.445 165.482C342.445 165.496 342.431 165.51 342.431 165.524C339.794 170.479 336.977 176.779 336.977 183.622C336.977 191.491 337.893 195.252 331.259 199.485C326.263 202.691 301.531 242.161 264.67 268.308C263.615 265.838 261.908 262.576 259.896 259.01C256.62 253.25 252.512 246.7 248.834 241.495C246.864 238.692 245.004 236.263 243.491 234.57C276.536 219.692 313.411 197.347 320.739 187.438C331.495 172.838 341.668 149.744 346.262 154.713C346.456 154.921 346.65 155.171 346.817 155.49C347.594 156.891 345.123 160.5 342.445 165.482Z" fill="#FDB2D0"/>
<path fill-rule="evenodd" clip-rule="evenodd" d="M143.566 230.642C140.249 233.737 137.626 236.998 136.585 239.982C133.934 247.463 123.706 239.691 117.225 233.737C114.255 231.003 112.062 228.644 111.77 228.338C111.743 228.296 111.729 228.283 111.729 228.283C114.06 225.757 117.447 221.246 121.68 216.486C123.775 218.443 126.898 220.663 130.215 222.801C133.504 224.924 136.974 226.964 139.805 228.56C141.262 229.393 142.553 230.101 143.566 230.642Z" fill="#4152F3"/>
<path fill-rule="evenodd" clip-rule="evenodd" d="M130.215 222.801C124.678 227.825 120.361 232.571 117.225 233.737C114.019 230.781 111.729 228.283 111.729 228.283C114.06 225.757 117.447 221.246 121.68 216.486C123.775 218.443 126.898 220.663 130.215 222.801Z" fill="#86A8FF"/>
<path fill-rule="evenodd" clip-rule="evenodd" d="M143.566 230.642C140.249 233.737 137.626 236.998 136.585 239.982C133.934 247.463 123.706 239.691 117.225 233.737C114.255 231.003 112.062 228.644 111.77 228.338C111.743 228.296 111.729 228.283 111.729 228.283C120.125 231.988 126.384 234.223 131.603 233.737C134.684 233.445 137.543 230.808 139.805 228.56C141.262 229.393 142.553 230.101 143.566 230.642Z" fill="#322FE6"/>
<path fill-rule="evenodd" clip-rule="evenodd" d="M264.67 268.308C252.609 276.871 239.258 283.991 224.88 287.96C210.474 291.929 198.109 294.108 187.644 295.121C155.737 298.286 141.596 290.75 141.596 290.75L194.986 251.904L198.234 249.544L199.011 248.975C200.607 248.864 202.341 248.642 204.201 248.295C214.499 246.436 228.6 241.259 243.491 234.569C245.004 236.263 246.864 238.691 248.835 241.495C252.512 246.699 256.62 253.25 259.896 259.009C261.908 262.576 263.615 265.838 264.67 268.308Z" fill="#421CBF"/>
<path fill-rule="evenodd" clip-rule="evenodd" d="M248.834 241.495C232.555 248.656 219.315 251.473 204.201 248.295C214.499 246.436 228.6 241.258 243.491 234.569C245.004 236.263 246.864 238.691 248.834 241.495Z" fill="#322FE6"/>
<path fill-rule="evenodd" clip-rule="evenodd" d="M264.67 268.308C252.609 276.871 239.258 283.991 224.88 287.96C210.474 291.93 198.109 294.108 187.644 295.122C178.804 277.982 189.92 259.093 194.986 251.904C196.332 249.989 197.248 248.906 197.248 248.906C197.511 248.975 197.845 249.197 198.234 249.545C202.161 253.056 211.626 269.585 211.307 272.083C211.307 272.083 229.183 260.411 243.491 263.978C247.738 265.033 253.497 262.896 259.896 259.01C261.908 262.576 263.615 265.838 264.67 268.308Z" fill="#211280"/>
<path fill-rule="evenodd" clip-rule="evenodd" d="M104.373 220.386C101.583 222.648 96.99 224.327 92.3264 225.507C92.3264 225.507 92.3126 225.507 92.2848 225.521C87.3857 226.77 82.4173 227.464 79.4609 227.7C73.1048 209.769 70.3709 199.721 71.5921 196.584C72.2166 195.002 73.7019 194.377 75.6724 194.377C77.4488 194.377 79.6139 194.877 81.8759 195.654V195.668C88.829 198.042 96.6428 202.899 96.6428 202.899C96.5177 203.176 96.4205 203.482 96.3651 203.801H96.3514C96.1434 204.717 96.1709 205.786 96.4067 206.979C97.1148 210.671 99.8625 215.487 104.373 220.386Z" fill="#FDB2D0"/>
<path fill-rule="evenodd" clip-rule="evenodd" d="M202.508 286.628C201.856 289.667 200.745 291.888 199.066 292.817C193.404 295.926 179.248 297.314 160.636 295.052C150.255 293.789 138.486 291.416 126.023 287.558C124.011 286.947 121.985 286.281 119.931 285.587C116.905 284.546 114.033 283.117 111.326 281.354C105.567 277.593 100.543 272.333 96.2403 266.254C88.0937 254.776 82.5145 240.384 79.4612 227.7C82.4313 227.464 87.4135 226.77 92.3263 225.507C96.9899 224.327 101.583 222.648 104.373 220.386C110.424 227.006 119.639 233.751 131.256 238.095C136.446 240.038 141.568 241.648 146.453 242.966H146.48C164.176 247.699 178.984 248.406 184.411 245.811C185.757 245.173 187.005 244.493 188.158 243.827C189.74 242.91 191.169 242.064 192.432 241.467C195.013 240.232 196.929 240.093 198.275 242.772C198.303 242.827 198.331 242.896 198.359 242.966C198.359 242.966 198.372 242.966 198.372 242.98C198.636 243.577 198.941 244.52 199.275 245.755C201.55 254.166 204.895 275.664 202.508 286.628Z" fill="#4152F3"/>
<path fill-rule="evenodd" clip-rule="evenodd" d="M105.386 197.695C105.386 197.709 105.372 197.709 105.372 197.709C105.192 197.903 105.012 198.083 104.817 198.278C103.984 199.11 102.958 199.943 101.778 200.748C101.056 201.234 100.265 201.719 99.391 202.177C94.1723 205.564 87.9268 206.174 82.7923 205.342C79.3362 204.772 76.3802 203.551 74.5619 202.08C74.8812 199.388 75.27 196.681 75.7419 193.961C75.7419 193.961 75.7003 193.656 75.6584 193.129C75.4501 191.297 75.0201 186.689 75.0338 182.4C75.0338 178.653 75.3669 175.17 76.4634 173.99C79.2114 171.089 89.8977 164.372 89.8977 164.372C92.6874 163.803 94.5888 164.427 95.9905 165.413C97.9333 166.801 98.9465 168.924 100.085 169.743C100.792 170.243 101.806 170.368 102.833 170.451C104.678 170.59 106.566 170.604 106.705 172.477C106.746 172.977 106.718 173.518 106.649 174.046C106.51 175.073 106.233 176.127 105.997 177.057C105.941 177.265 105.886 177.46 105.844 177.654C105.594 178.723 105.428 179.555 105.733 179.888C105.886 180.083 106.51 180.929 107.135 182.206C107.19 182.303 107.246 182.414 107.288 182.525L107.413 182.775C107.44 182.872 107.482 182.97 107.538 183.053C109.05 186.55 110.244 192.379 105.386 197.695Z" fill="#FDB2D0"/>
<path fill-rule="evenodd" clip-rule="evenodd" d="M202.508 286.628C182.606 289.029 145.384 287.821 136.474 282.658C126.454 276.843 114.268 243.771 130.215 253.722C146.161 263.659 171.642 271.986 177.888 269.516C184.133 267.059 178.928 259.037 161.691 256.026C144.454 253.028 146.314 245.617 146.453 242.966H146.48C164.176 247.699 178.984 248.406 184.411 245.811C185.757 245.173 187.005 244.493 188.158 243.826C189.587 243.715 191.641 243.66 192.918 244.076C194.709 244.659 196.513 245.187 199.275 245.755C201.55 254.166 204.895 275.664 202.508 286.628Z" fill="#322FE6"/>
<path fill-rule="evenodd" clip-rule="evenodd" d="M180.605 241.397C194.522 244.718 204.411 247.437 201.358 250.677C198.305 253.917 179.377 251.952 172.905 250.929C166.433 249.906 180.605 241.397 180.605 241.397Z" fill="#FC8000"/>
<path fill-rule="evenodd" clip-rule="evenodd" d="M177.624 251.446C175.889 251.765 167.243 249.905 159.665 248.073C153.739 246.657 148.465 245.256 147.619 244.937C145.162 244.007 144.51 228.99 152.698 220.622C159.415 213.78 175.431 215.57 181.454 223.481C182.787 225.243 183.633 227.297 183.772 229.629C183.786 229.851 183.8 230.059 183.8 230.267C183.814 230.448 183.828 230.628 183.814 230.794C184.299 242.994 180.636 250.905 177.624 251.446Z" fill="#FDA218"/>
<path fill-rule="evenodd" clip-rule="evenodd" d="M173.251 217.317C173.207 218.84 171.574 220.029 169.604 219.972C167.633 219.916 166.07 218.636 166.114 217.113C166.158 215.59 167.791 214.401 169.762 214.458C171.732 214.514 173.295 215.795 173.251 217.317Z" fill="#FC8000"/>
<path fill-rule="evenodd" clip-rule="evenodd" d="M183.869 230.475C183.855 230.586 183.842 230.697 183.814 230.795C182.939 236.748 178.859 237.443 176.25 234.57C173.599 231.628 169.671 221.912 164.231 223.647C158.805 225.382 154.752 235.68 158.457 240.301C161.192 243.729 162.608 246.838 159.665 248.073C153.739 246.658 148.465 245.256 147.619 244.937C145.162 244.007 144.51 228.99 152.698 220.622C159.415 213.78 175.431 215.57 181.454 223.481C182.689 226.728 183.564 229.504 183.8 230.267C183.842 230.406 183.869 230.475 183.869 230.475Z" fill="#FC8000"/>
<path fill-rule="evenodd" clip-rule="evenodd" d="M180.982 232.391C179.928 231.932 179.289 230.864 178.762 229.434C178.623 229.087 178.498 228.699 178.373 228.31C178.332 228.158 178.276 228.005 178.234 227.838C177.319 224.827 176.403 220.955 173.474 217.943C173.474 217.943 174.473 217.971 175.917 218.165C176.694 218.276 177.596 218.429 178.54 218.637C180.677 219.123 183.009 219.997 184.521 221.44C185.146 222.037 185.632 222.717 185.896 223.536C186.007 223.855 186.076 224.188 186.117 224.535C186.77 230.794 184.397 233.862 180.982 232.391Z" fill="#FDB2D0"/>
<path fill-rule="evenodd" clip-rule="evenodd" d="M180.982 232.391C179.664 231.822 178.998 230.281 178.373 228.31C179.705 226.604 182.467 222.981 183.064 221.857C183.355 221.302 183.897 221.205 184.521 221.44C185.396 222.259 185.979 223.272 186.117 224.535C186.77 230.794 184.397 233.862 180.982 232.391Z" fill="#FCCDE0"/>
<path fill-rule="evenodd" clip-rule="evenodd" d="M185.743 227.311C184.73 229.393 181.912 229.934 178.762 229.434C178.623 229.088 178.498 228.699 178.373 228.31C178.331 228.158 178.276 228.005 178.234 227.838C179.081 225.965 179.706 224.924 179.04 220.386C178.956 219.817 178.79 219.234 178.54 218.637C176.222 213.002 166.965 206.202 157.181 204.731C146.355 203.121 142.955 215.14 130.215 222.801C126.898 220.663 123.775 218.443 121.68 216.486C130.104 207.021 143.386 201.164 156.973 203.218C173.793 205.758 184.216 216.652 185.895 223.536C186.27 225.021 186.228 226.326 185.743 227.311Z" fill="#FCCDE0"/>
<path fill-rule="evenodd" clip-rule="evenodd" d="M198.358 242.966C197.04 242.203 196.61 243.813 195.61 242.966C194.792 242.272 193.889 241.981 192.432 241.467C195.014 240.232 196.929 240.093 198.275 242.772C198.303 242.828 198.331 242.897 198.358 242.966Z" fill="#86A8FF"/>
<path fill-rule="evenodd" clip-rule="evenodd" d="M160.636 295.052C150.256 293.789 138.487 291.416 126.024 287.558C124.011 286.947 121.985 286.281 119.931 285.587C116.905 284.546 114.033 283.117 111.326 281.354C105.567 277.593 100.543 272.333 96.2402 266.254C88.0936 254.777 82.5147 240.385 79.4611 227.7C82.4315 227.464 87.4137 226.77 92.3265 225.507C94.0335 231.281 97.9333 255.707 104.373 267.142C109.855 276.899 150.38 289.071 160.636 295.052Z" fill="#05009F"/>
<path fill-rule="evenodd" clip-rule="evenodd" d="M147.022 263.978C146.009 266.698 144.898 269.432 143.677 272.083C141.984 275.83 140.083 279.438 138.001 282.658C136.03 285.698 133.893 288.39 131.603 290.528C122.138 287.322 113.908 283.255 108.495 278.675C98.2804 270.057 95.4354 259.148 96.9897 251.487C97.4616 249.156 98.3357 247.129 99.5432 245.561C100.834 243.854 102.513 242.702 104.456 242.272C114.74 239.996 123.012 243.618 138.375 257.524C140.763 259.689 143.691 261.854 147.022 263.978Z" fill="#4152F3"/>
<path fill-rule="evenodd" clip-rule="evenodd" d="M239.536 288.474C236.441 289.292 232.305 289.751 227.6 289.848C213.625 290.153 216.886 292.79 192.515 297.3C176.097 300.34 151.185 297.203 131.603 290.528C133.892 288.39 136.03 285.684 138.001 282.659C140.082 279.439 141.984 275.83 143.677 272.083C144.898 269.418 146.009 266.684 147.022 263.978C165.119 275.539 194.542 285.295 206.491 279.3C220.619 272.208 234.887 272.777 242.645 279.466C244.338 280.924 245.24 282.229 245.462 283.366C245.934 285.698 243.63 287.405 239.536 288.474Z" fill="#FDB2D0"/>
<path fill-rule="evenodd" clip-rule="evenodd" d="M245.462 283.366C243.699 284.907 238.745 281.049 232.735 278.537C225.616 275.581 210.266 279.078 208.018 281.229C205.755 283.366 204.021 285.864 192.141 285.517C180.733 285.185 151.255 276.663 143.677 272.083C144.898 269.418 146.009 266.684 147.022 263.978C165.119 275.539 194.542 285.295 206.491 279.3C220.62 272.208 234.886 272.777 242.645 279.466C244.338 280.924 245.24 282.228 245.462 283.366Z" fill="#FCCDE0"/>
<path fill-rule="evenodd" clip-rule="evenodd" d="M239.536 288.474C236.441 289.293 232.305 289.751 227.6 289.848C213.625 290.153 216.886 292.79 192.515 297.301C176.097 300.34 151.185 297.203 131.603 290.528C133.892 288.391 136.03 285.684 138.001 282.659C145.842 290.223 161.594 295.316 176.847 294.539C193.029 293.734 210.03 291.069 210.155 289.459C210.266 287.835 212.001 290.264 217.552 289.806C223.104 289.334 225.185 287.169 231.944 287.919C234.942 288.252 237.524 288.418 239.536 288.474Z" fill="#FE93BC"/>
<path fill-rule="evenodd" clip-rule="evenodd" d="M138.001 282.658C136.03 285.698 133.893 288.39 131.603 290.528C122.138 287.322 113.908 283.255 108.495 278.675C98.2803 270.057 95.4353 259.148 96.99 251.487C96.99 251.487 98.0582 263.936 108.856 270.834C119.667 277.731 132.893 280.368 138.001 282.658Z" fill="#322FE6"/>
<path fill-rule="evenodd" clip-rule="evenodd" d="M147.022 263.978C146.009 266.698 144.898 269.432 143.677 272.083C130.465 269.682 127.925 264.006 118.085 260.536C108.898 257.288 107.69 245.547 99.5432 245.561C100.834 243.854 102.513 242.702 104.456 242.272C114.74 239.996 123.012 243.618 138.375 257.524C140.763 259.689 143.691 261.854 147.022 263.978Z" fill="#86A8FF"/>
<path fill-rule="evenodd" clip-rule="evenodd" d="M92.3264 225.507C92.3264 225.507 92.3127 225.507 92.2848 225.521C87.3858 226.77 82.4173 227.463 79.4609 227.699C73.1048 209.768 70.3709 199.72 71.5921 196.584C72.7714 193.558 77.1157 194.03 81.8759 195.654V195.668C81.085 198.291 81.8347 201.372 83.7358 205.674C85.8174 210.379 91.716 221.454 92.3264 225.507Z" fill="#FE93BC"/>
<path fill-rule="evenodd" clip-rule="evenodd" d="M82.9308 205.092C82.8892 205.175 82.8476 205.258 82.7923 205.342C79.3362 204.772 76.3802 203.551 74.5619 202.08C74.8812 199.388 75.27 196.681 75.7419 193.961C75.7419 193.961 75.7003 193.656 75.6584 193.129C79.0031 189.631 83.2223 188.202 83.2223 188.202C84.8319 191.144 84.4294 202.025 82.9308 205.092Z" fill="#FE93BC"/>
<path fill-rule="evenodd" clip-rule="evenodd" d="M95.3521 162.665C95.3521 162.665 97.5588 168.938 90.814 171.603C90.3004 171.811 89.7312 172.006 89.093 172.158C89.093 172.158 86.7337 177.39 81.529 179.347C80.1552 179.874 78.6009 180.166 76.8245 180.069C69.5658 179.694 77.7264 185.079 80.2383 186.647C80.6687 186.925 80.9323 187.077 80.9323 187.077C80.9323 187.077 85.8039 200.304 80.2799 204.787C77.8375 206.757 75.0757 206.133 72.6191 204.384H72.605C69.4685 202.191 66.8315 198.236 65.9433 195.613C64.3612 190.922 60.7669 184.219 64.8888 181.554C64.8888 181.554 61.1278 177.696 61.3911 171.048C61.6413 164.4 67.026 165.052 67.026 165.052C66.9013 164.206 66.8177 163.359 66.7483 162.499V162.457C66.6235 160.847 66.6098 159.223 66.7483 157.724C67.0676 153.949 68.2614 150.966 70.8008 150.716C73.1048 150.494 74.1875 151.757 74.701 152.895L74.7147 152.909C75.1172 153.811 75.1726 154.643 75.1726 154.643C75.1726 154.643 75.783 151.909 77.2545 149.245C78.573 146.885 80.5714 144.581 83.4026 144.318C87.4273 143.943 88.6905 147.593 89.0651 150.077C89.2731 151.327 89.2452 152.284 89.2452 152.284C89.2452 152.284 89.4814 152.104 89.9117 151.826C91.688 150.646 96.7122 147.801 100.029 150.411C104.109 153.616 98.5855 161.805 95.3521 162.665Z" fill="#05009F"/>
<path fill-rule="evenodd" clip-rule="evenodd" d="M96.4068 206.979C96.4068 206.965 96.393 206.965 96.393 206.951C96.018 206.285 93.9643 205.591 92.2711 205.105C91.0079 204.745 89.9256 204.509 89.9256 204.509C89.9256 204.509 93.6866 204.758 95.8379 204.009C96.018 203.953 96.1988 203.884 96.3514 203.801C96.1431 204.716 96.1706 205.785 96.4068 206.979Z" fill="#FE93BC"/>
<path fill-rule="evenodd" clip-rule="evenodd" d="M106.649 174.045C106.51 175.072 106.233 176.127 105.997 177.057C104.637 175.336 105.192 175.086 105.192 173.92C105.192 172.865 104.748 171.686 102.833 170.451C104.678 170.59 106.566 170.603 106.705 172.477C106.746 172.977 106.718 173.518 106.649 174.045Z" fill="#FCCDE0"/>
<path fill-rule="evenodd" clip-rule="evenodd" d="M105.386 197.695C107.704 193.142 108.55 185.703 107.288 182.525L107.413 182.775C107.44 182.872 107.482 182.969 107.538 183.053C109.05 186.55 110.244 192.379 105.386 197.695Z" fill="#FCCDE0"/>
<path fill-rule="evenodd" clip-rule="evenodd" d="M74.701 152.894C74.5343 152.756 72.7858 151.451 70.3288 152.062C68.6501 152.464 67.4701 155.739 66.7483 157.724C67.0676 153.949 68.2614 150.965 70.8008 150.716C73.1047 150.494 74.1875 151.756 74.701 152.894Z" fill="#322FE6"/>
<path fill-rule="evenodd" clip-rule="evenodd" d="M89.0651 150.077C87.2609 148.287 83.028 146.482 80.0441 147.565C78.9057 147.981 77.99 148.578 77.2545 149.244C78.573 146.885 80.5714 144.581 83.4026 144.317C87.4273 143.943 88.6904 147.593 89.0651 150.077Z" fill="#322FE6"/>
<path fill-rule="evenodd" clip-rule="evenodd" d="M95.3521 162.665C95.3521 162.665 97.5588 168.938 90.814 171.603C91.2996 170.645 92.0074 169.493 92.9375 168.424C95.0744 165.996 92.6456 163.04 94.7276 162.068C96.8091 161.083 97.2116 160.042 98.4332 155.642C99.6407 151.243 93.2286 150.729 89.9117 151.826C91.688 150.646 96.7122 147.801 100.029 150.41C104.109 153.616 98.5855 161.805 95.3521 162.665Z" fill="#322FE6"/>
<path fill-rule="evenodd" clip-rule="evenodd" d="M84.8321 175.974C83.4304 177.029 82.3339 178.181 81.5292 179.347C79.5999 182.067 79.2112 184.801 80.0719 186.259C80.1413 186.383 80.197 186.508 80.2386 186.647C80.9322 188.84 78.1151 192.99 76.5051 199.096C75.8805 201.483 74.4235 203.329 72.6193 204.384H72.6052C69.4687 202.191 66.8317 198.236 65.9435 195.613C64.361 190.922 60.7667 184.218 64.889 181.554C64.889 181.554 61.1277 177.695 61.3913 171.048C61.6412 164.4 67.0259 165.052 67.0259 165.052C66.9011 164.206 66.818 163.359 66.7485 162.498V162.457C66.7485 159.806 75.1171 160.417 78.587 159.806C82.0565 159.196 73.6498 163.449 75.731 168.307C77.8129 173.164 89.5228 172.45 84.8321 175.974Z" fill="#040078"/>
<path fill-rule="evenodd" clip-rule="evenodd" d="M84.291 178.219C77.5238 174.851 70.4135 174.887 71.7602 180.996C73.1069 187.105 77.5997 189.662 82.8016 189.927C88.0038 190.192 84.291 178.219 84.291 178.219Z" fill="#FDB2D0"/>
<path fill-rule="evenodd" clip-rule="evenodd" d="M346.262 154.713C340.474 158.849 328.691 178.75 327.192 184.204C325.569 190.103 322.099 190.45 313.897 198.555C305.681 206.646 278.729 227.006 257.731 237.345C254.65 238.858 251.693 240.26 248.835 241.495C246.864 238.692 245.004 236.263 243.491 234.57C276.536 219.692 313.411 197.347 320.739 187.438C331.495 172.838 341.668 149.744 346.262 154.713Z" fill="#FCCDE0"/>
<path fill-rule="evenodd" clip-rule="evenodd" d="M336.977 183.622C336.977 191.491 337.893 195.252 331.259 199.485C326.263 202.691 301.531 242.161 264.67 268.308C263.615 265.838 261.908 262.576 259.896 259.01C275.079 249.78 293.773 230.711 303.946 221.107C318.408 207.451 329.274 197.389 332.397 191.491C334.756 187.036 336.783 172.546 342.431 165.524C339.794 170.479 336.977 176.779 336.977 183.622Z" fill="#FE93BC"/>
<path fill-rule="evenodd" clip-rule="evenodd" d="M242.228 229.323C240.313 230.1 238.814 230.767 237.912 231.28C233.027 234 216.761 239.052 203.244 240.329C212.584 236.304 226.268 231.1 240.244 226.575L242.228 229.323Z" fill="#322FE6"/>
</svg>
