<svg width="722" height="565" viewBox="0 0 722 565" fill="none" xmlns="http://www.w3.org/2000/svg">
<path d="M9.51782 217.446C5.9315 160.252 27.7872 101.804 67.1578 63.2958C125.175 6.54563 210.346 -2.4377 288.62 0.485533C335.855 2.25072 383.57 7.43946 428.002 24.8102C472.434 42.181 513.696 72.7794 538.063 116.459C551.338 140.25 560.346 168.583 581.566 184.301C599.987 197.95 624.072 199.193 643.783 210.548C665.149 222.854 679.99 247.426 681.797 273.471C683.615 299.758 672.997 325.319 659.361 347.193C636.042 384.599 603.101 414.95 565.194 433.945C538.952 447.094 509.716 455.381 488.299 476.372C474.286 490.105 464.698 508.325 451.445 522.907C413.854 564.254 353.753 569.617 300.51 562.174C280.4 559.363 259.468 554.602 244.047 540.391C234.178 531.295 227.298 518.955 217.755 509.466C192.876 484.748 164.067 480.059 130.259 478.913C111.241 478.266 78.9977 468.895 61.9782 459.726C24.7695 439.674 -13.4864 386.409 4.64786 350.448C32.5333 295.137 12.5636 266.078 9.51782 217.446Z" fill="#FCE8E8"/>
<path fill-rule="evenodd" clip-rule="evenodd" d="M580.469 480.139H580.464C579.483 475.308 575.937 476.041 572.548 476.741C570.008 477.265 567.557 477.772 566.339 475.905C563.491 471.554 569.698 468.325 578.086 469.049C578.21 469.061 578.316 469.077 578.434 469.1C577.918 466.854 577.357 464.681 576.757 462.587C576.247 460.801 574.806 459.409 572.989 459.01C566.487 457.568 560.715 460.529 556.403 462.742C553.011 464.483 550.523 465.759 549.293 464.063C546.265 459.897 559.128 449.207 572.238 450.105C569.445 443.811 566.176 438.449 562.593 433.957C561.965 433.171 561.051 432.705 560.132 432.295C547.632 426.735 538.714 433.044 532.927 437.139C529.947 439.247 527.797 440.768 526.415 439.779C521.576 436.309 536.828 424.075 548.188 421.177C544.118 418.741 539.923 417.073 535.768 416.09C514.349 410.998 493.787 424.187 494.808 446.388C474.924 462.963 478.513 483.699 492.946 496.068C492.716 495.765 492.486 495.45 492.284 495.119C483.997 481.761 491.359 458.679 497.207 461.722C499.135 462.724 498.501 467.134 497.683 472.824C496.236 482.889 494.213 496.96 504.777 503.255C504.777 503.255 504.744 503.244 504.716 503.238C507.132 504.226 509.672 505.04 512.33 505.636C516.143 506.495 519.872 506.916 523.55 507C511.59 502.093 508.029 482.626 512.145 482.508C514.051 482.453 515.173 485.085 516.697 488.659C518.711 493.384 521.428 499.754 527.582 503.743C530.632 505.72 534.327 506.5 537.91 505.928C540.647 505.495 543.383 504.962 546.102 504.372C548.649 503.829 551.192 503.241 553.741 502.651L553.741 502.651L553.742 502.651L553.742 502.651L553.743 502.651L553.743 502.651C554.696 502.431 555.65 502.21 556.605 501.992C553.179 500.133 551.003 496.287 549.994 492.632C548.615 487.634 549.428 483.002 552.22 484.327C553.722 485.039 554.721 487.931 555.809 491.08C557.484 495.927 559.37 501.386 563.625 500.453V500.459C569.625 499.24 575.709 498.308 582 498.218C581.787 491.767 581.26 485.754 580.469 480.139ZM542.525 451.368C541.593 452.05 540.654 453.005 539.724 453.953C537.341 456.38 535.009 458.755 532.965 456.332C529.174 451.84 544.684 441.015 547.454 445.17C548.763 447.127 546.772 448.471 544.263 450.164C543.699 450.544 543.109 450.942 542.525 451.368ZM557.323 440.526C557.973 443.305 550.97 446.304 550.325 442.828C549.68 439.358 556.672 437.741 557.323 440.526ZM509.908 433.704C505.994 429.802 522.272 417.073 525.199 420.734C526.766 422.692 523.687 424.745 520.788 426.678C520.544 426.84 520.301 427.002 520.063 427.163C518.575 428.168 517.242 429.633 516.011 430.985C513.734 433.487 511.808 435.603 509.908 433.704ZM504.525 442.75C501.34 440.273 506.095 433.575 508.758 435.462C511.422 437.343 507.71 445.231 504.525 442.75ZM510.469 477.876C506.499 477.146 507.642 469.005 510.872 469.448C514.108 469.897 514.433 478.606 510.469 477.876ZM538.594 496.512C538.707 496.506 538.813 496.483 538.92 496.455C541.623 495.67 539.598 491.385 537.685 487.337C537.519 486.987 537.354 486.637 537.193 486.293C536.217 484.2 535.657 481.764 535.14 479.515C534.182 475.352 533.372 471.828 530.346 472.306C526.045 472.98 529.376 484.979 533.514 491.829V491.834C535.23 494.67 537.086 496.624 538.594 496.512Z" fill="#5673BE"/>
<path opacity="0.54" fill-rule="evenodd" clip-rule="evenodd" d="M537.82 505.922C534.242 506.495 530.553 505.714 527.507 503.738C521.362 499.749 518.652 493.379 516.642 488.656C515.121 485.081 514.002 482.45 512.099 482.508C507.989 482.626 511.544 502.093 523.487 507C519.814 506.916 516.091 506.495 512.283 505.636C509.63 505.04 507.093 504.226 504.68 503.238C504.694 503.241 504.709 503.245 504.721 503.248C504.733 503.252 504.742 503.255 504.742 503.255C494.194 496.96 496.213 482.889 497.658 472.824C498.475 467.134 499.108 462.724 497.183 461.722C491.344 458.679 483.992 481.761 492.267 495.119C492.469 495.45 492.699 495.765 492.928 496.068C478.517 483.699 474.933 462.963 494.787 446.388C493.768 424.187 514.299 410.998 535.687 416.09C525.962 421.065 518.341 430.346 515.357 440.958C511.304 455.338 515.38 471.469 524.847 483.019C527.445 486.186 530.413 489.038 533.436 491.829V491.834C533.928 492.287 534.42 492.738 534.912 493.189L534.913 493.19L534.914 493.191C536.118 494.294 537.321 495.396 538.509 496.512C541.168 498.999 543.738 501.554 546 504.367C543.285 504.956 540.552 505.49 537.82 505.922ZM525.133 420.734C522.21 417.073 505.957 429.802 509.865 433.704C511.762 435.603 513.685 433.487 515.959 430.985C517.188 429.633 518.519 428.168 520.004 427.163C520.243 427.002 520.485 426.84 520.728 426.678C523.623 424.745 526.698 422.692 525.133 420.734ZM504.49 442.75C501.31 440.273 506.058 433.575 508.717 435.462C511.376 437.343 507.67 445.231 504.49 442.75ZM510.425 477.876C506.461 477.146 507.603 469.005 510.828 469.448C514.058 469.897 514.383 478.606 510.425 477.876Z" fill="#2C50AE"/>
<path d="M451 442.98C453.411 442.252 455.907 441.825 458.408 441.518C460.915 441.211 463.438 441.068 465.962 441.006C471.015 440.949 476.079 441.307 481.081 442.047C491.103 443.526 500.899 446.394 510.269 450.24C519.655 454.069 528.586 458.933 537.068 464.441C545.549 469.948 553.57 476.161 561 483C552.833 477.083 544.532 471.433 535.921 466.33C533.752 465.078 531.61 463.792 529.412 462.609C528.316 462.011 527.232 461.397 526.13 460.811L522.797 459.11L521.133 458.256L519.447 457.448L516.075 455.833C513.787 454.843 511.533 453.779 509.212 452.88C508.06 452.419 506.925 451.901 505.756 451.48L502.265 450.172C499.916 449.358 497.566 448.55 495.183 447.839C490.439 446.36 485.606 445.182 480.733 444.232C475.848 443.321 470.914 442.667 465.945 442.394C463.461 442.252 460.965 442.229 458.475 442.297C457.228 442.332 455.98 442.4 454.738 442.514C453.484 442.616 452.237 442.747 451 442.98Z" fill="#162857"/>
<path opacity="0.26" d="M370.112 551.129C392.404 551.843 414.476 555.156 436.705 556.8C486.331 560.47 536.739 555.689 584.341 542.905C590.003 541.385 588.775 534.051 582.849 534.017C551.853 533.836 520.852 535.072 490.195 538.917C478.117 540.432 466.056 542.355 453.859 542.553C440.046 542.78 426.329 540.8 412.622 539.246C388.399 536.496 363.882 535.066 339.528 536.751C318.178 538.231 297.159 542.111 275.842 543.846C261.764 544.992 239.349 539.899 227 544.277C236.96 555.768 263.73 555.201 278.18 554.844C308.854 554.089 339.387 550.147 370.112 551.129Z" fill="#080D1C"/>
<path d="M707.323 450.83C698.248 459.267 683.492 458.286 672.542 452.487C661.592 446.694 653.26 437.097 644.162 428.677C635.064 420.263 624.143 412.577 611.763 412.199C608.199 412.086 604.309 412.757 601.905 415.394C596.236 421.605 602.952 432.678 598.285 439.672C595.898 443.245 591.101 444.541 586.845 443.978C582.583 443.42 578.699 441.351 574.865 439.413C568.588 436.24 562.175 433.338 555.65 430.706C553.021 429.647 550.375 428.632 547.707 427.663C540.146 424.913 531.825 422.518 524.185 425.037C515.724 427.826 500.715 438.032 497.421 423.183C495.17 413.022 502.449 397.643 507.257 389.122C512.954 379.006 523.634 369.274 534.803 372.384C538.626 373.449 541.948 375.935 545.787 376.938C553.798 379.034 562.085 374.233 567.777 368.203C573.463 362.178 577.663 354.785 583.873 349.301C590.899 343.108 600.486 339.721 609.792 340.792C619.098 341.862 627.886 347.577 632.092 355.951C633.482 358.713 634.704 362.043 637.615 363.091C640.176 364.004 642.957 362.714 645.299 361.339C654.048 356.216 661.845 349.51 670.881 344.906C679.917 340.301 690.929 337.991 700.134 342.234C709.344 346.478 714.827 359.073 709.04 367.408C705.887 371.95 700.235 374.413 697.544 379.237C695.061 383.683 695.663 389.268 697.668 393.985C697.775 394.239 697.887 394.487 698 394.735C700.257 399.604 703.799 403.74 706.794 408.192C711.117 414.617 714.388 421.954 714.929 429.68C715.463 437.407 712.998 445.561 707.323 450.83Z" fill="#8AACAB"/>
<path opacity="0.49" d="M707.344 449.85C698.288 458.259 683.564 457.282 672.638 451.502C661.712 445.727 653.398 436.161 644.32 427.769C635.242 419.383 624.344 411.721 611.991 411.345C608.435 411.232 604.553 411.901 602.154 414.53C596.497 420.72 603.199 431.758 598.542 438.728C596.16 442.29 591.374 443.582 587.127 443.02C582.875 442.464 578.998 440.402 575.173 438.47C568.909 435.308 562.511 432.415 556 429.792C561.927 430.224 567.96 431.567 572.572 428.163C578.527 423.77 577.65 414.811 579.987 407.789C583.268 397.925 593.745 391.673 604.126 391.061C614.507 390.443 624.647 394.578 633.422 400.144C642.196 405.716 649.954 412.743 658.381 418.827C666.762 424.877 677.902 430.089 687.036 425.253C693.727 421.714 696.929 413.766 697.653 406.233C698.075 401.897 697.861 397.538 697.704 393.179C697.811 393.432 697.923 393.679 698.035 393.926C700.288 398.779 703.821 402.902 706.81 407.34C711.124 413.743 714.388 421.057 714.927 428.758C715.467 436.47 713.006 444.598 707.344 449.85Z" fill="#3C7573"/>
<path opacity="0.78" d="M493 431C514.257 406.596 542.964 388.732 574.278 380.422C605.592 372.111 639.395 373.386 670 384.029" stroke="#1E3B3A" stroke-width="2"/>
<path opacity="0.78" d="M613 375C639.473 385.535 664.24 400.457 686 419C684.895 418.08 683.79 417.155 682.685 416.236" stroke="#1E3B3A" stroke-width="2"/>
<path opacity="0.78" d="M584 378C595.081 371.036 604.681 361.778 612 351" stroke="#1E3B3A" stroke-width="2"/>
<path opacity="0.78" d="M522 405C547.334 405.057 572.652 410.201 596.031 420.05C596.468 420.237 596.978 420.519 597 421" stroke="#1E3B3A" stroke-width="2"/>
<path d="M517 307C517 307 514.279 322.242 514.314 325.77C512.873 326.729 502.311 324.468 496.829 323.075C495.543 322.744 494.537 322.465 494 322.282C497.081 318.845 497.532 314.176 497.532 314.176C497.847 312.566 510.37 308.872 515.16 307.508C516.297 307.188 517 307 517 307Z" fill="#FFC3C4"/>
<path d="M518 307C514.422 311.524 506.518 316.14 504.016 318.046C501.689 319.82 499.277 321.45 496.803 323C495.529 322.667 494.532 322.386 494 322.202C497.052 318.746 497.499 314.05 497.499 314.05C497.81 312.437 513.261 308.366 518 307Z" fill="#FE9D86"/>
<path d="M313 478L302.388 496.022L275.533 541.63L272 542L296.218 488.601L297.261 486.294C299.938 480.386 313 478 313 478Z" fill="#663C16"/>
<path d="M301 482L290.443 496.477L252.872 548H249L282.963 489.329C284.375 486.884 287.462 485.23 290.684 484.123C295.677 482.407 301 482 301 482Z" fill="#B37339"/>
<path d="M455.841 343.785C455.841 343.785 426.453 359.885 419.909 362.051C408.998 362.672 381.771 363.853 368.35 367.955C360.146 359.728 341.23 368.078 340 372.186C340.333 379.08 370.053 375.7 370.053 375.7C370.053 375.7 407.745 379.226 425.85 374.665C443.954 370.098 479 354.311 479 354.311L470.171 339L455.841 343.785Z" fill="#FE9D86"/>
<path d="M492.936 267.975C492.936 267.975 496.06 289.013 482 289.321C482.938 303.24 481.689 313.608 500.907 315C507.471 314.692 514.815 312.372 519.504 302.932C520.283 300.147 520.283 300.147 520.283 300.147C520.283 300.147 527 297.519 527 293.185C527 288.851 521.842 284.987 517.001 287.85C517.001 287.85 520.442 283.594 516.532 278.024C512.623 272.466 503.562 256.684 492.936 267.975Z" fill="#FFC3C4"/>
<path d="M485 542L479.399 541.484L434.923 476.877L434.132 475.727L431 471.17C431 471.17 436.439 466.07 445.004 471.507C446.469 472.433 448.018 473.673 449.651 475.295L459.361 493.621L485 542Z" fill="#663C16"/>
<path d="M451.126 370C463.846 367.358 475.862 365.081 486.973 358.243C492.183 355.038 497.37 351.127 499.827 345.451C502.278 339.774 500.916 331.969 495.483 329.173C492.25 327.505 488.386 327.909 484.823 328.593C473.366 330.796 457.609 339.125 448.105 346.014C448.111 346.02 444.174 361.972 451.126 370Z" fill="#0D4D4C"/>
<path d="M313 478L302.251 496L296 488.594L297.057 486.29C299.769 480.383 313 478 313 478Z" fill="#331E0B"/>
<path d="M301 483L290.465 497L283 490.087L290.705 485.053C295.688 483.393 301 483 301 483Z" fill="#60330B"/>
<path d="M459 494L434.784 477.342L434 476.198L444.773 472C446.225 472.921 447.76 474.155 449.378 475.768L459 494Z" fill="#331E0B"/>
<path d="M512 548H505.929L448.79 479.183L447 477.024C447 477.024 447.739 476.187 449.165 475.394C451.37 474.168 455.214 473.05 460.535 475.27C462.611 476.142 464.916 477.519 467.423 479.604L479.553 498.211L512 548Z" fill="#B37339"/>
<path d="M479 422.714C478.47 437.747 464.572 450.434 450.188 454.961C440.424 458.037 429.803 456.923 419.865 454.483C385.26 445.974 365.016 425.105 337.649 402.345C325.753 421.095 305.915 439.169 287.713 451.941C281.057 456.614 273.77 460.298 266.51 463.97C258.636 467.951 250.762 471.933 242.893 475.914C241.833 476.449 240.733 477 239.549 477C238.24 477.011 237.022 476.353 235.905 475.656C235.008 475.099 234.184 474.531 233.4 473.935C230.512 471.742 228.29 469.262 226 466.107C249.166 442.583 273.166 419.869 297.945 398.038C311.911 385.727 327.58 373.085 346.194 372.068C353.549 371.663 360.871 373.142 368.045 374.795C394.764 380.942 420.017 394.225 445.106 405.253C454.142 409.223 463.37 415.246 472.57 419.807C474.713 420.87 476.857 421.854 479 422.714Z" fill="#213371"/>
<path d="M480 498L448.815 478.923L447 476.758C447 476.758 447.749 475.919 449.195 475.124L460.721 475C462.825 475.874 465.162 477.254 467.703 479.345L480 498Z" fill="#60330B"/>
<path d="M478 422.794C477.471 437.804 463.607 450.473 449.259 454.993C439.519 458.065 428.923 456.953 419.009 454.516C384.489 446.019 364.295 425.181 336.994 402.455C325.127 421.177 305.338 439.225 287.18 451.977C280.54 456.644 273.271 460.322 266.029 463.989C258.174 467.965 250.319 471.94 242.47 475.916C241.412 476.45 240.315 477 239.133 477C237.828 477.011 236.612 476.354 235.498 475.658C234.604 475.102 233.782 474.535 233 473.939C239.943 469.666 248.659 467.134 255.625 463.225C272.837 453.583 288.418 441.263 302.777 427.803C310.722 420.357 318.313 412.535 325.661 404.505C331.192 398.462 338.181 391.729 346.244 393.206C351.798 394.223 355.815 398.906 359.501 403.185C368.194 413.276 377.878 422.861 389.767 428.892C403.254 435.738 418.812 437.579 433.931 437.035C442.445 436.726 451.329 435.558 458.295 430.667C462.948 427.399 466.713 422.519 471.58 419.891C473.724 420.952 475.862 421.935 478 422.794Z" fill="#111A39"/>
<path d="M241.86 477.574C240.428 481.433 238.474 484.422 236.891 488.225C235.729 491.017 234.398 493.944 231.889 495.6C228.2 498.035 223.243 496.928 219.246 495.052C215.243 493.181 211.403 490.588 207.012 490.192C204.856 490 202.695 490.356 200.533 490.514C193.106 491.057 185.521 489.209 179.166 485.298C178.402 484.829 177.594 484.157 177.218 483.388C176.999 482.942 176.926 482.467 177.088 481.97C177.296 481.343 177.852 480.896 178.419 480.546C180.805 479.054 183.651 478.54 186.419 478.043C199.961 475.613 213.384 473.143 226.196 466.306C228.206 465.238 230.642 467.215 232.563 468.442C234.522 469.685 236.352 471.126 238.025 472.742C239.479 474.127 240.804 475.647 242 477.268" fill="#8A266C"/>
<path d="M503.128 382.923C495.562 398.43 486.337 412.46 478.84 428C460.193 427.601 442.111 416.833 433 400.692C433.125 400.468 433.249 400.243 433.374 400.019C440.152 387.763 446.919 375.501 453.697 363.245C458.805 354.004 463.958 344.701 470.822 336.662C477.368 328.987 485.975 322.328 496.043 321.116C496.44 321.071 496.836 321.037 497.244 321.02C499.871 320.902 502.748 321.335 505.308 321.452C508.258 321.587 511.367 322.379 513.36 324.552C515.472 326.865 515.874 330.228 515.971 333.355C516.463 350.574 510.693 367.416 503.128 382.923Z" fill="#36AEAC"/>
<path opacity="0.36" d="M503.123 382.923C495.558 398.43 486.334 412.46 478.837 428C460.191 427.601 442.111 416.833 433 400.692C433.125 400.468 433.249 400.243 433.374 400.019C437.666 400.849 441.958 401.675 446.256 402.5C451.165 403.443 457.094 404.072 460.378 400.333C463.22 397.093 462.728 391.883 465.598 388.672C467.393 386.668 470.14 385.859 472.597 384.759C485.53 379.004 491.951 364.301 493.973 350.388C495.202 341.928 495.117 330.806 497.246 321.02C499.873 320.902 502.75 321.335 505.309 321.452C508.259 321.587 511.368 322.379 513.361 324.552C515.473 326.865 515.875 330.228 515.971 333.355C516.458 350.574 510.688 367.416 503.123 382.923Z" fill="#0D4D4C"/>
<path d="M242 476.476C240.806 474.872 239.471 473.369 238.012 472C233.212 474.174 229.275 478.549 223.338 481.634C218.91 483.936 213.767 484.35 208.787 484.719C203.397 485.121 198.011 485.523 192.621 485.92C187.855 486.272 182.684 486.529 178.707 483.892C178.104 483.489 177.541 483.031 177 482.539C177.377 483.299 178.189 483.964 178.955 484.428C185.331 488.295 192.942 490.122 200.394 489.586C202.563 489.43 204.732 489.077 206.895 489.267C211.305 489.659 215.153 492.224 219.169 494.073C223.18 495.929 228.154 497.024 231.855 494.615C234.373 492.972 235.713 490.078 236.874 487.323C238.462 483.568 240.428 480.606 241.859 476.789L242 476.476Z" fill="#451336"/>
<path d="M543.963 332.191C543.839 333.861 543.383 335.011 543.383 335.011C543.383 335.011 481.185 465.588 475.634 474.95C472.093 480.929 464.29 480.381 459.116 479.208C453.852 478.013 448.504 477.229 443.116 476.862C411.527 474.719 321.569 473.546 298.993 483.371C269.966 496.004 246.67 501.937 243.523 495.169C242.363 492.513 241.625 490.082 241.271 487.849C241.113 486.896 241.029 485.976 241.006 485.085C240.984 484.222 241.023 483.393 241.124 482.592C241.366 480.59 241.969 478.768 242.881 477.082C248.111 467.415 263.469 462.39 278.906 454.816C287.323 450.619 298.768 447.991 311.874 446.48C335.215 443.789 363.815 444.652 389.937 446.536C424.313 449.023 454.387 453.281 462.511 453.563C475.932 434.055 510.19 350.019 527.693 326.901C530.896 322.66 533.542 320.472 535.394 321.109C540.27 322.801 542.493 325.44 543.422 327.961C543.777 328.92 543.94 329.862 543.991 330.725C544.008 331.255 544.002 331.74 543.963 332.191Z" fill="#EF994C"/>
<rect x="122" y="129" width="324" height="205" fill="#A75762"/>
<path fill-rule="evenodd" clip-rule="evenodd" d="M564.696 157.756C562.797 157.598 560.841 158.113 559.205 159.37C555.721 162.053 555.052 167.075 557.71 170.591C558.851 172.092 560.419 173.083 562.117 173.502C560.577 177.47 558.368 181.219 555.518 184.553C552.764 181.598 548.184 181.168 544.918 183.681C541.647 186.195 540.855 190.759 542.962 194.212C539.101 196.058 535.032 197.213 530.918 197.683C531.002 195.866 530.474 194.008 529.293 192.451C526.635 188.941 521.65 188.267 518.165 190.951C516.445 192.27 515.411 194.161 515.124 196.16C510.263 194.626 505.676 192.1 501.68 188.635C504.614 185.861 505.041 181.253 502.546 177.957C500.05 174.668 495.52 173.87 492.092 175.987C489.827 171.197 488.613 166.068 488.427 160.944C490.417 161.187 492.496 160.683 494.222 159.364C497.706 156.68 498.375 151.658 495.711 148.148C494.531 146.591 492.89 145.595 491.131 145.198C492.659 141.326 494.834 137.668 497.628 134.407C500.382 137.357 504.957 137.793 508.228 135.279C511.493 132.765 512.286 128.202 510.184 124.748C514.129 122.851 518.294 121.691 522.504 121.243C522.464 122.999 522.993 124.776 524.134 126.282C526.798 129.793 531.783 130.466 535.268 127.783C536.898 126.526 537.909 124.759 538.258 122.874C543.03 124.414 547.532 126.911 551.455 130.319C548.521 133.088 548.099 137.702 550.589 140.997C553.085 144.287 557.615 145.085 561.043 142.968C563.274 147.678 564.477 152.717 564.696 157.756ZM513.168 169.782C518.817 177.233 529.4 178.665 536.797 172.969C544.199 167.279 545.615 156.624 539.961 149.173C534.312 141.716 523.735 140.284 516.333 145.98C508.936 151.67 507.514 162.325 513.168 169.782Z" fill="#A75762"/>
<path fill-rule="evenodd" clip-rule="evenodd" d="M534.147 177.336C543.931 173.123 548.472 161.717 544.289 151.861C540.106 142.005 528.783 137.431 518.999 141.644C509.215 145.858 504.674 157.264 508.857 167.12C513.04 176.976 524.363 181.55 534.147 177.336Z" stroke="white" stroke-width="3.00001"/>
<path fill-rule="evenodd" clip-rule="evenodd" d="M721.826 231.245C712.603 232.183 705.396 239.985 705.396 249.472C705.396 258.953 712.603 266.749 721.826 267.676C719.366 279.382 714.58 290.228 707.969 299.715C704.711 296.766 700.392 294.969 695.651 294.969C685.53 294.969 677.323 303.169 677.323 313.291C677.323 317.622 678.829 321.61 681.345 324.749C673.004 329.821 663.753 333.545 653.89 335.624C652.952 326.395 645.144 319.189 635.663 319.189C626.182 319.189 618.385 326.389 617.442 335.624C607.798 333.596 598.732 329.99 590.537 325.086C593.216 321.902 594.834 317.779 594.834 313.297C594.834 303.175 586.633 294.974 576.511 294.974C571.518 294.974 567.002 296.968 563.694 300.204C556.914 290.604 552.005 279.59 549.5 267.687C558.728 266.749 565.935 258.953 565.935 249.466C565.935 239.985 558.734 232.183 549.5 231.239C552.005 219.343 556.914 208.323 563.694 198.729C567.002 201.964 571.518 203.958 576.511 203.958C586.633 203.958 594.834 195.758 594.834 185.636C594.834 181.148 593.216 177.031 590.537 173.846C598.732 168.943 607.798 165.337 617.442 163.309C618.38 172.532 626.182 179.738 635.663 179.738C645.144 179.738 652.946 172.537 653.89 163.309C663.753 165.387 673.004 169.111 681.345 174.183C678.829 177.323 677.323 181.305 677.323 185.642C677.323 195.763 685.53 203.964 695.651 203.964C700.397 203.964 704.711 202.166 707.969 199.218C714.58 208.699 719.366 219.545 721.826 231.245ZM596.783 249.472C596.783 270.945 614.195 288.358 635.668 288.358C657.147 288.358 674.554 270.94 674.554 249.472C674.554 227.993 657.147 210.586 635.668 210.586C614.195 210.586 596.783 227.993 596.783 249.472Z" fill="#A75762"/>
<path fill-rule="evenodd" clip-rule="evenodd" d="M635.669 294.283C660.417 294.283 680.48 274.221 680.48 249.472C680.48 224.723 660.417 204.66 635.669 204.66C610.92 204.66 590.857 224.723 590.857 249.472C590.857 274.221 610.92 294.283 635.669 294.283Z" stroke="white" stroke-width="4"/>
<path d="M542.627 291.929C538.475 303.44 529.443 311.598 517.354 310.966C517.037 310.949 516.719 310.926 516.396 310.898C516.657 309.221 515.913 305.01 516.6 302.627C517.252 300.358 517.871 299.195 518.115 298.399C521.405 298.393 524.803 296.129 525.291 292.883C525.773 289.642 522.369 286.232 519.26 287.305C517.973 287.751 516.997 288.778 516.072 289.772C514.501 284.64 511.579 279.92 507.682 276.211C502.996 271.757 498.526 270.763 494.895 265.423C494.958 267.037 493.551 270.865 491.406 270.611C489.767 270.413 488.468 265.564 488.241 264.316C487.373 259.704 488.888 254.566 492.201 251.218C492.598 250.817 493.04 250.439 493.517 250.095C499.422 245.793 511.233 245.319 518.046 246.673C524.321 247.927 529.495 250.292 533.97 256.294C536.285 259.399 537.102 265.253 536.285 268.928C536.069 269.905 535.616 270.978 536.103 271.859C536.45 272.491 537.17 272.807 537.805 273.14C540.931 274.8 543.002 278.069 543.694 281.524C544.397 284.996 543.824 288.615 542.627 291.929Z" fill="#1D103B"/>
<path d="M467.671 112.64H425.206C420.281 112.64 416.252 108.584 416.252 103.628V73.0453C416.252 68.089 420.281 64.0338 425.206 64.0338H467.671C472.596 64.0338 476.625 68.089 476.625 73.0453V103.628C476.625 108.584 472.596 112.64 467.671 112.64Z" fill="#63918F"/>
<path d="M440.954 82.1018L430.5 87.8636L440.954 93.2536" stroke="white" stroke-width="4"/>
<path d="M451.923 82.1018L462.377 87.8636L451.923 93.2536" stroke="white" stroke-width="4"/>
<path d="M449.589 77.551L442.208 99.1167" stroke="white" stroke-width="4"/>
<path opacity="0.5" fill-rule="evenodd" clip-rule="evenodd" d="M99.1366 313H87.8634C82.9885 313 79 308.874 79 303.831V298.169C79 293.126 82.9885 289 87.8634 289H99.1366C104.011 289 108 293.126 108 298.169V303.831C108 308.874 104.011 313 99.1366 313Z" stroke="white" stroke-width="4"/>
<path opacity="0.2" fill-rule="evenodd" clip-rule="evenodd" d="M327.963 107H302.037C297.067 107 293 102.956 293 98.0141V80.9859C293 76.0436 297.067 72 302.037 72H327.963C332.933 72 337 76.0436 337 80.9859V98.0141C337 102.956 332.933 107 327.963 107Z" stroke="white" stroke-width="4"/>
<path d="M401 375H323L325.687 372H401V375Z" fill="#657777"/>
<path d="M480 357.314C480 357.314 477.207 358.573 472.795 360.48C461.568 365.331 439.846 374.384 426.853 377.663C408.748 382.228 371.055 378.698 371.055 378.698C371.055 378.698 341.327 382.077 341 375.184C341.124 374.776 341.378 374.311 341.756 373.808C345.158 369.248 358.321 361.706 368.798 368.067C382.22 363.972 410.001 365.667 420.912 365.052C427.457 362.881 456.846 346.789 456.846 346.789L471.176 342L480 357.314Z" fill="#FFC3C4"/>
<path opacity="0.46" d="M472.986 355.599C472.918 357.133 472.704 358.643 472.356 360.114C461.166 365.056 439.517 374.279 426.567 377.619C408.522 382.27 370.954 378.673 370.954 378.673C370.954 378.673 341.326 382.116 341 375.094C341.124 374.678 341.377 374.204 341.753 373.691C346.567 373.036 351.526 373.201 356.402 373.372C368.176 373.794 379.946 374.21 391.72 374.626C402.916 375.025 414.55 375.333 424.807 370.756C432.033 367.53 440.726 362.006 446.428 356.46C451.652 351.387 456.999 346.057 464.843 346C466.778 345.989 468.802 346.394 470.303 347.63C472.519 349.472 473.104 352.692 472.986 355.599Z" fill="#FE9D86"/>
<path d="M499.824 348.45C497.367 354.126 492.186 358.038 486.971 361.243C475.859 368.075 463.838 370.358 451.124 373C447.355 368.645 446.785 361.955 447.059 356.745C447.282 352.35 448.109 349.014 448.109 349.014C457.612 342.125 473.369 333.795 484.827 331.592C488.21 330.937 491.868 330.55 495 331.945C495.162 332.013 495.324 332.093 495.48 332.173C500.913 334.968 502.281 342.768 499.824 348.45Z" fill="#78DFDE"/>
<path d="M325 372.328L322.36 375L304 306.863L307.128 306L325 372.328Z" fill="#636E6E"/>
<rect x="138" y="146" width="38" height="4" fill="#E0E0E0"/>
<rect x="187" y="180" width="28" height="4" fill="#E0E0E0"/>
<rect x="219" y="180" width="18" height="4" fill="#E39EA6"/>
<rect x="139" y="264" width="18" height="4" fill="#E39EA6"/>
<rect x="242" y="180" width="44" height="4" fill="#E0E0E0"/>
<rect x="138" y="247" width="29" height="4" fill="#E0E0E0"/>
<rect x="178" y="281" width="17" height="4" fill="#E0E0E0"/>
<rect x="138" y="281" width="35" height="4" fill="#E39EA6"/>
<rect x="138" y="298" width="19" height="4" fill="#E0E0E0"/>
<rect x="184" y="146" width="27" height="4" fill="#D5BDC0"/>
<rect x="184" y="196" width="27" height="4" fill="#E39EA6"/>
<rect x="170" y="213" width="12" height="4" fill="#E0E0E0"/>
<rect x="159" y="230" width="26" height="4" fill="#D5BDC0"/>
<rect x="189" y="230" width="36" height="4" fill="#E39EA6"/>
<rect x="139" y="213" width="27" height="4" fill="#E39EA6"/>
<rect x="138" y="230" width="16" height="4" fill="#E39EA6"/>
<rect x="188" y="213" width="15" height="4" fill="#FF8761"/>
<rect x="139" y="315" width="15" height="4" fill="#FF8761"/>
<rect x="138" y="180" width="27" height="4" fill="#D5BDC0"/>
<rect x="163" y="264" width="27" height="4" fill="#D5BDC0"/>
<rect x="163" y="298" width="27" height="4" fill="#D5BDC0"/>
<rect x="211" y="298" width="27" height="4" fill="#D5BDC0"/>
<rect x="138" y="196" width="39" height="4" fill="#D5BDC0"/>
<rect x="321" y="146" width="27" height="4" fill="#D5BDC0"/>
<rect x="224" y="315" width="27" height="4" fill="#D5BDC0"/>
<rect x="357" y="146" width="18" height="4" fill="#D5BDC0"/>
<rect x="418" y="163" width="18" height="4" fill="#D5BDC0"/>
<rect x="218" y="146" width="35" height="4" fill="#E39EA6"/>
<rect x="354" y="163" width="35" height="4" fill="#E39EA6"/>
<rect x="311" y="180" width="35" height="4" fill="#E39EA6"/>
<rect x="266" y="196" width="35" height="4" fill="#E39EA6"/>
<rect x="350" y="180" width="25" height="4" fill="#D5BDC0"/>
<rect x="279" y="146" width="35" height="4" fill="#FF8761"/>
<rect x="240" y="196" width="20" height="4" fill="#FF8761"/>
<rect x="224" y="264" width="20" height="4" fill="#FF8761"/>
<rect x="260" y="146" width="13" height="4" fill="#E0E0E0"/>
<rect x="218" y="196" width="13" height="4" fill="#E0E0E0"/>
<rect x="397" y="163" width="13" height="4" fill="#E0E0E0"/>
<rect x="138" y="163" width="20" height="4" fill="#E39EA6"/>
<rect x="191" y="247" width="16" height="4" fill="#E39EA6"/>
<rect x="163" y="163" width="6" height="4" fill="#E39EA6"/>
<rect x="295" y="163" width="53" height="4" fill="#E0E0E0"/>
<rect x="244" y="298" width="53" height="4" fill="#E0E0E0"/>
<rect x="174" y="163" width="7" height="4" fill="#FF8761"/>
<rect x="273" y="163" width="17" height="4" fill="#E39EA6"/>
<rect x="290" y="180" width="17" height="4" fill="#FF8761"/>
<rect x="201" y="315" width="17" height="4" fill="#FF8761"/>
<rect x="231" y="163" width="37" height="4" fill="#E39EA6"/>
<rect x="196" y="264" width="22" height="4" fill="#E39EA6"/>
<rect x="195" y="298" width="11" height="4" fill="#E39EA6"/>
<rect x="213" y="163" width="13" height="4" fill="#D5BDC0"/>
<rect x="170" y="180" width="13" height="4" fill="#FF8761"/>
<rect x="172" y="247" width="13" height="4" fill="#FF8761"/>
<rect x="186" y="163" width="22" height="4" fill="#E39EA6"/>
<path d="M338 323V345L357 333.646L338 323Z" fill="#78DFDE"/>
<path d="M377 346.101L383.688 354L387 344L377 346.101Z" fill="#FF8761"/>
<path d="M352 304L358.025 316L366 304.856L352 304Z" fill="#5673BE"/>
<path d="M474.982 472.268C480.189 463.551 536.747 347.851 544 333C543.876 334.661 543.42 335.806 543.42 335.806C543.42 335.806 481.158 465.746 475.602 475.063C472.057 481.012 464.246 480.467 459.067 479.3C453.798 478.11 448.444 477.33 443.051 476.965C411.43 474.832 321.38 473.665 298.781 483.442C269.724 496.014 246.404 501.918 243.254 495.183C242.093 492.54 241.355 490.121 241 487.898C241.4 489.318 241.941 490.811 242.634 492.388C245.779 499.123 269.104 493.219 298.161 480.647C320.765 470.864 410.81 472.037 442.431 474.17C447.824 474.535 453.178 475.31 458.447 476.505C463.626 477.672 471.437 478.211 474.982 472.268Z" fill="#5A3A1C"/>
<path opacity="0.71" d="M543.964 332.263C536.713 347.156 480.212 463.243 475.016 471.987C471.475 477.956 463.672 477.41 458.498 476.239C453.234 475.045 447.886 474.262 442.498 473.896C410.909 471.756 320.95 470.585 298.374 480.394C269.347 493.007 246.05 498.931 242.903 492.174C242.211 490.597 241.67 489.094 241.271 487.669C241.113 486.718 241.029 485.8 241.006 484.91C240.984 484.049 241.023 483.221 241.124 482.421C241.181 482.449 241.243 482.466 241.299 482.489C250.701 485.963 259.607 482.174 268.435 478.643C321.687 457.341 381.043 457.786 438.146 463.175C451.297 464.414 466.042 465.439 476.17 456.958C484.074 450.342 486.957 439.643 489.693 429.705C499.967 392.327 515.539 353.958 543.368 328C543.384 328.011 543.407 328.028 543.418 328.039C543.773 328.997 543.936 329.937 543.987 330.799C544.009 331.328 544.004 331.812 543.964 332.263Z" fill="#784D26"/>
<path opacity="0.36" d="M279.029 454.446C287.446 450.194 298.893 447.531 312 446C305.12 448.663 298.842 452.76 292.435 456.474C276.934 465.463 260.268 472.383 243 477C248.231 467.206 263.59 462.12 279.029 454.446Z" fill="#331E0B"/>
<path opacity="0.36" d="M509.824 369.052C501.97 382.968 498.457 398.271 491.862 412.821C488.011 421.334 483.879 429.824 478.061 437.136C472.242 444.453 469.825 454.161 460.802 456.624C454.623 458.308 448.091 458.218 441.715 457.561C424.13 455.749 407.27 449.789 390 446.03C424.327 448.504 454.359 452.741 462.471 453.022C475.874 433.612 510.083 350.001 527.561 327C527.612 327.258 527.657 327.527 527.696 327.791C530.102 343.582 517.678 355.141 509.824 369.052Z" fill="#331E0B"/>
<path opacity="0.57" d="M541.641 291.925C537.528 303.439 528.583 311.598 516.61 310.966C519.009 308.538 522.217 306.765 524.79 304.433C531.892 297.99 533.707 286.414 528.931 278.091C528.397 277.165 527.768 276.25 526.864 275.68C524.509 274.195 521.408 275.556 518.666 275.104C515.637 274.607 513.407 271.942 512.131 269.141C507.597 259.192 505.962 254.754 495.225 250.92C494.45 250.643 493.702 250.366 493 250.095C498.849 245.793 510.547 245.318 517.295 246.674C523.509 247.927 528.633 250.293 533.066 256.295C535.359 259.401 536.168 265.256 535.359 268.932C535.145 269.909 534.696 270.982 535.179 271.863C535.522 272.495 536.235 272.812 536.865 273.145C539.961 274.805 542.011 278.074 542.697 281.53C543.394 284.991 542.826 288.611 541.641 291.925Z" fill="#4A4062"/>
<path opacity="0.57" d="M499.824 348.483C497.367 354.152 492.186 358.058 486.971 361.259C475.859 368.082 463.838 370.362 451.124 373C447.355 368.65 446.785 361.97 447.059 356.767C447.908 357.199 448.779 357.586 449.689 357.893C453.608 359.201 458.042 358.82 461.694 356.864C464.809 355.192 467.35 352.446 470.678 351.28C473.123 350.428 475.781 350.501 478.338 350.064C483.66 349.137 488.322 345.646 491.22 341.069C492.867 338.47 493.677 334.996 495.005 332C495.167 332.068 495.329 332.148 495.486 332.227C500.913 335.019 502.281 342.809 499.824 348.483Z" fill="#3BAEAC"/>
<path d="M417.381 238.453H466.457C469.046 235.756 467.972 233.116 465.635 231.492C463.163 229.777 459.289 229.207 456.834 230.928C458.193 228.604 455.375 223.476 451.444 222.24C447.513 221.005 442.509 222.342 440.563 226.003C440.563 222.173 437.717 217.113 429.173 217.113C428.838 217.113 428.508 217.118 428.189 217.135C411.605 217.914 417.381 238.453 417.381 238.453Z" fill="white"/>
<path opacity="0.2" d="M417.381 238.453H466.457C469.046 235.756 467.972 233.116 465.635 231.492C462.666 232.411 459.758 233.607 456.7 234.166C451.276 235.158 445.718 234.104 440.306 233.049C435.905 232.191 431.013 231.007 428.631 227.176C427.138 224.773 427.093 221.992 427.496 219.285C427.58 218.732 427.859 217.97 428.189 217.135C411.605 217.914 417.381 238.453 417.381 238.453Z" fill="#BFBFBF"/>
<path d="M127.093 120.681H39.6703C35.0646 115.943 36.9776 111.293 41.14 108.443C45.5381 105.426 52.4437 104.425 56.8193 107.449C54.4015 103.358 59.4166 94.3385 66.4176 92.1759C73.4185 90.0132 82.3325 92.3547 85.7993 98.7923C85.7993 92.0585 90.8705 83.1565 106.084 83.1565C106.684 83.1565 107.268 83.1732 107.84 83.1956C137.375 84.5591 127.093 120.681 127.093 120.681Z" fill="white"/>
<path opacity="0.2" d="M127.093 120.681H39.6703C35.0646 115.943 36.9776 111.293 41.14 108.443C46.43 110.058 51.6134 112.165 57.0549 113.149C66.7149 114.898 76.6217 113.042 86.2537 111.187C94.0905 109.678 102.814 107.594 107.055 100.854C109.708 96.6297 109.792 91.74 109.074 86.9732C108.928 86.0009 108.423 84.6541 107.84 83.1956C137.375 84.5591 127.093 120.681 127.093 120.681Z" fill="#BFBFBF"/>
<path opacity="0.13" d="M504.5 296C508.642 296 512 292.642 512 288.5C512 284.358 508.642 281 504.5 281C500.358 281 497 284.358 497 288.5C497 292.642 500.358 296 504.5 296Z" fill="#E34635"/>
<path d="M484 300.447C485.046 301.226 486.3 301.679 487.548 301.545C488.166 301.47 488.772 301.284 489.342 301.011C489.633 300.877 489.895 300.697 490.186 300.546C490.453 300.372 490.715 300.174 491 300C490.786 300.244 490.554 300.476 490.323 300.715C490.061 300.912 489.812 301.139 489.52 301.307C488.95 301.667 488.29 301.894 487.601 301.981C486.205 302.12 484.796 301.481 484 300.447Z" fill="#BA2025"/>
</svg>
