<svg width="375" height="308" viewBox="0 0 375 308" fill="none" xmlns="http://www.w3.org/2000/svg">
<defs>
<linearGradient id="paint0_linear" x1="-17.1981" y1="-7.81407" x2="-20.282" y2="333.72" gradientUnits="userSpaceOnUse">
<stop stop-color="#FFF4ED"/>
<stop offset="1" stop-color="#FFCCE2"/>
</linearGradient>
<linearGradient id="paint1_linear" x1="45.8009" y1="195.879" x2="44.8834" y2="321.053" gradientUnits="userSpaceOnUse">
<stop stop-color="#FFF4ED"/>
<stop offset="1" stop-color="#FFCCE2"/>
</linearGradient>
</defs>
<mask id="mask0" mask-type="alpha" maskUnits="userSpaceOnUse" x="0" y="0" width="375" height="308">
<path fill-rule="evenodd" clip-rule="evenodd" d="M0.520508 287.601C90.0083 282.414 175.579 302.767 257.405 307.057C283.756 308.454 309.712 308.172 335.287 304.841C342.909 303.853 350.741 303.218 358.759 302.893C364.045 302.676 369.4 302.588 374.827 302.611V52.8855C320.105 65.8358 253.203 68.4892 161.414 37.9125C128.104 29.9522 96.1206 21.7514 65.2534 14.44L64.886 14.3554C58.6476 12.8734 52.4369 11.4192 46.2837 10.037C30.7534 6.51438 15.5046 3.28633 0.520508 0.505371V287.601Z" fill="white"/>
</mask>
<g mask="url(#mask0)">
<path fill-rule="evenodd" clip-rule="evenodd" d="M0.520508 287.601C90.0083 282.414 175.579 302.767 257.405 307.057C283.756 308.454 309.712 308.172 335.287 304.841C342.909 303.853 350.741 303.218 358.759 302.893C364.045 302.676 369.4 302.588 374.827 302.611V52.8855C320.105 65.8358 253.203 68.4892 161.414 37.9125C128.104 29.9522 96.1206 21.7514 65.2534 14.44L64.886 14.3554C58.6476 12.8734 52.4369 11.4192 46.2837 10.037C30.7534 6.51438 15.5046 3.28633 0.520508 0.505371V287.601Z" fill="url(#paint0_linear)"/>
</g>
<mask id="mask1" mask-type="alpha" maskUnits="userSpaceOnUse" x="0" y="142" width="375" height="166">
<path fill-rule="evenodd" clip-rule="evenodd" d="M0.520508 156.928V287.601C90.0083 282.414 175.579 302.767 257.405 307.057C283.756 308.454 309.712 308.172 335.287 304.841C342.909 303.853 350.741 303.218 358.759 302.893C364.045 302.676 369.4 302.588 374.827 302.611V202.038C311.168 211.488 242.039 202.092 185.816 167.34C156.615 149.291 125.486 142.576 93.5094 142.577C62.9701 142.577 31.6511 148.705 0.520508 156.928Z" fill="white"/>
</mask>
<g mask="url(#mask1)">
<path fill-rule="evenodd" clip-rule="evenodd" d="M0.520508 156.928V287.601C90.0083 282.414 175.579 302.767 257.405 307.057C283.756 308.454 309.712 308.172 335.287 304.841C342.909 303.853 350.741 303.218 358.759 302.893C364.045 302.676 369.4 302.588 374.827 302.611V202.038C311.168 211.488 242.039 202.092 185.816 167.34C156.615 149.291 125.486 142.576 93.5094 142.577C62.9701 142.577 31.6511 148.705 0.520508 156.928Z" fill="url(#paint1_linear)"/>
</g>
<path fill-rule="evenodd" clip-rule="evenodd" d="M72.0395 144.365C24.4665 164.299 28.3267 205.218 39.1331 241.883C49.9408 278.548 81.0014 297.075 146.527 293.215C212.051 289.355 229.637 235.052 202.917 216.047C165.971 189.768 138.216 217.689 130.497 184.587C122.777 151.486 72.0395 144.365 72.0395 144.365Z" fill="white"/>
<path fill-rule="evenodd" clip-rule="evenodd" d="M91.5549 136.273C43.1217 144.872 64.8786 196.106 73.4392 239.057C82.191 282.967 109.996 285.643 161.413 278.438C212.832 271.233 219.167 214.969 168.476 213.983C117.783 212.997 109.023 158.773 102.833 147.319C96.6441 135.866 91.5549 136.273 91.5549 136.273Z" fill="#FFDCEE"/>
<path fill-rule="evenodd" clip-rule="evenodd" d="M103.545 197.742C101.456 197.446 99.8187 196.867 98.93 196.091C93.2836 191.122 76.3607 196.415 68.6264 184.475C67.3559 182.513 66.4388 180.762 65.8316 179.182C62.7547 171.151 67.6103 167.368 73.5098 160.692C80.5814 152.703 68.7394 150.389 77.5467 143.685C86.1842 137.121 82.6276 129.627 80.4116 121.356C80.3554 121.187 80.3124 121.017 80.2708 120.848C78.0832 112.393 85.1396 111.744 92.1828 96.0352C99.2267 80.3254 116.319 91.2642 116.319 98.9001C116.911 98.9139 117.518 98.9846 118.125 99.1261C121.992 100.029 125.535 103.685 121.653 112.238C121.117 113.409 120.454 114.68 119.621 116.035C110.955 130.248 117.392 136.486 129.219 167.058C139.198 192.83 114.808 199.323 103.545 197.742Z" fill="#FF64B2"/>
<path fill-rule="evenodd" clip-rule="evenodd" d="M103.545 197.742C101.456 197.446 99.8186 196.867 98.93 196.091C93.2835 191.122 76.3607 196.415 68.6264 184.475C67.3558 182.512 66.4388 180.762 65.8315 179.182C70.8985 171.264 87.1296 163.515 91.6185 153.084C97.4334 139.52 89.0781 147.242 91.0252 124.475C91.0252 124.475 90.969 116.063 95.0906 115.315C99.2266 114.567 109.783 124.292 109.783 131.885C109.783 139.478 121.597 150.77 123.658 161.257C125.423 170.276 118.844 190.614 103.545 197.742Z" fill="#FC3D9D"/>
<path fill-rule="evenodd" clip-rule="evenodd" d="M178.619 210.318C178.619 210.572 178.604 210.826 178.591 211.094C177.983 222.625 176.911 231.418 175.838 237.854C174.145 248.059 172.408 252.378 172.408 252.378C172.408 252.378 129.064 252.053 123.573 245.151C118.069 238.264 125.492 223.966 125.492 223.966C128.188 217.954 132.621 212.421 137.829 207.848C143.474 202.88 150.023 199.054 156.192 196.994C168.329 192.957 179.028 195.78 178.619 210.318Z" fill="#FCA547"/>
<path fill-rule="evenodd" clip-rule="evenodd" d="M134.572 229.902C150.45 223.804 149.392 226.538 152.302 223.274C155.214 220.01 150.692 230.42 150.086 232.978C149.48 235.536 140.393 236.418 136.954 235.624C133.513 234.831 134.572 229.902 134.572 229.902Z" fill="#FF924A"/>
<path fill-rule="evenodd" clip-rule="evenodd" d="M178.619 210.318C178.619 210.572 178.604 210.826 178.591 211.094C178.28 216.852 177.87 221.919 177.391 226.365C176.911 230.826 176.374 234.636 175.838 237.854C168.442 241.157 159.917 236.796 158.238 235.046C156.007 232.717 165.888 209.866 160.947 214.1C156.007 218.334 144.364 223.387 143.841 219.633C143.375 216.175 139.155 212.124 137.828 207.848C140.171 205.787 142.67 203.91 145.238 202.287C148.852 200 152.592 198.194 156.192 196.994C168.329 192.957 179.028 195.78 178.619 210.318Z" fill="#FFB858"/>
<path fill-rule="evenodd" clip-rule="evenodd" d="M202.909 244.065C203.079 248.299 200.298 252.999 190.912 257.22C185.224 259.774 177.109 262.159 165.747 264.15C121.428 271.913 109.12 275.441 98.2096 272.152C87.3131 268.85 82.854 240.155 89.9104 232.859C96.9674 225.575 135.543 234.044 135.543 234.044C136.939 233.889 138.929 233.578 141.357 233.197C143.897 232.802 146.904 232.336 150.192 231.87C162.303 230.162 178.308 228.469 189.134 230.769C193.467 231.687 196.968 233.239 199.056 235.681C200.44 237.29 201.78 239.28 202.458 241.482C202.712 242.315 202.881 243.176 202.909 244.065Z" fill="#FFB858"/>
<path fill-rule="evenodd" clip-rule="evenodd" d="M202.909 244.065C203.079 248.299 200.298 252.999 190.912 257.22C185.224 259.774 177.109 262.159 165.747 264.15C121.428 271.913 109.12 275.441 98.2096 272.153C87.3131 268.85 82.854 240.156 89.9104 232.859C96.9674 225.576 135.543 234.044 135.543 234.044C136.939 233.889 138.929 233.578 141.357 233.197C140.863 236.853 136.375 239.661 124.42 241.27C109.967 243.218 116.318 259.266 130.771 253.267C145.252 247.269 185.111 242.428 191.463 245.378C195.598 247.297 200.03 246.705 202.909 244.065Z" fill="#FCA547"/>
<path fill-rule="evenodd" clip-rule="evenodd" d="M120.632 259.25C115.115 259.25 110.661 257.649 107.364 254.475C102.998 250.272 100.967 243.556 101.493 235.051L102.901 235.139C102.402 243.217 104.286 249.552 108.343 253.458C111.935 256.918 117.081 258.336 123.65 257.682C139.706 256.076 184.49 246.388 192.042 244.238L192.427 245.594C184.851 247.753 139.909 257.474 123.792 259.085C122.702 259.194 121.65 259.25 120.632 259.25Z" fill="#FF924A"/>
<path fill-rule="evenodd" clip-rule="evenodd" d="M202.909 244.065C203.009 246.366 202.218 248.808 199.974 251.235C199.846 251.377 199.719 251.517 199.578 251.645C198.379 252.872 196.784 254.086 194.737 255.271C194.286 255.54 193.82 255.794 193.311 256.048C192.563 256.444 191.774 256.839 190.912 257.22C188.767 254.312 187.214 249.669 186.834 244.573C186.762 243.628 186.749 242.682 186.777 241.708C186.847 238.024 187.567 234.228 189.134 230.77C193.467 231.687 196.968 233.239 199.056 235.681C199.296 235.963 199.536 236.246 199.762 236.556C200.002 236.853 200.228 237.163 200.454 237.488C200.651 237.77 200.835 238.066 201.018 238.363C201.075 238.462 201.145 238.561 201.188 238.659C201.342 238.913 201.484 239.168 201.611 239.422C201.836 239.845 202.02 240.282 202.189 240.72C202.288 240.96 202.373 241.214 202.444 241.454C202.458 241.468 202.458 241.468 202.458 241.482C202.712 242.315 202.881 243.176 202.909 244.065Z" fill="#FFB48D"/>
<path fill-rule="evenodd" clip-rule="evenodd" d="M202.458 241.482C199.282 243.825 191.759 243.656 188.739 242.414C184.857 240.833 178.421 239.322 168.358 239.774C158.294 240.212 146.396 241.891 142.867 241.976C139.565 242.061 145.704 237.403 150.193 231.87C162.302 230.162 178.308 228.469 189.133 230.769C193.467 231.687 196.967 233.239 199.057 235.681C200.439 237.29 201.78 239.28 202.458 241.482Z" fill="#FCC37E"/>
<path fill-rule="evenodd" clip-rule="evenodd" d="M202.909 244.065C203.009 246.366 202.218 248.808 199.974 251.235C199.846 251.376 199.719 251.517 199.578 251.645C198.379 252.872 196.784 254.086 194.737 255.271C194.286 255.54 193.82 255.794 193.311 256.048C192.563 256.443 191.774 256.839 190.912 257.22C188.767 254.312 187.214 249.668 186.834 244.573C188.95 244.701 190.559 244.954 191.463 245.378C195.598 247.297 200.03 246.704 202.909 244.065Z" fill="#FFA780"/>
<path fill-rule="evenodd" clip-rule="evenodd" d="M202.458 241.482C199.282 243.825 191.759 243.656 188.739 242.414C188.146 242.174 187.497 241.934 186.776 241.708C186.847 238.024 187.567 234.228 189.133 230.77C193.467 231.687 196.967 233.239 199.057 235.681C199.296 235.963 199.536 236.246 199.761 236.557C200.002 236.853 200.227 237.163 200.453 237.488C200.651 237.77 200.834 238.066 201.018 238.363C201.074 238.462 201.144 238.561 201.187 238.659C201.343 238.913 201.484 239.168 201.611 239.422C201.837 239.845 202.02 240.282 202.189 240.72C202.288 240.96 202.373 241.214 202.443 241.454C202.458 241.468 202.458 241.468 202.458 241.482Z" fill="#FFCCB6"/>
<path fill-rule="evenodd" clip-rule="evenodd" d="M178.619 210.318C178.619 210.572 178.604 210.826 178.591 211.094C178.28 216.852 177.87 221.919 177.391 226.365C175.627 224.996 174.384 222.371 174.949 219.04C176.007 212.801 176.473 203.162 168.597 201.045C161.752 199.21 149.6 203.924 145.238 202.287C148.852 200 152.592 198.194 156.192 196.994C168.329 192.957 179.028 195.78 178.619 210.318Z" fill="#FCC37E"/>
<path fill-rule="evenodd" clip-rule="evenodd" d="M178.619 210.318C177.561 210.459 176.488 210.487 175.415 210.416C168.866 210.021 162.317 205.957 158.605 201.172C157.56 199.816 156.728 198.405 156.192 196.994C168.329 192.957 179.028 195.78 178.619 210.318Z" fill="#FFB48D"/>
<path fill-rule="evenodd" clip-rule="evenodd" d="M178.619 210.318C177.561 210.459 176.488 210.487 175.415 210.416C174.992 206.168 173.241 202.301 168.597 201.045C165.845 200.311 162.232 200.635 158.605 201.172C157.56 199.816 156.728 198.405 156.192 196.994C168.329 192.957 179.028 195.78 178.619 210.318Z" fill="#FFCCB6"/>
<path fill-rule="evenodd" clip-rule="evenodd" d="M144.448 157.418L144.434 157.432C143.728 158.717 142.994 159.944 142.218 161.129C141.611 162.076 140.976 162.979 140.341 163.826C137.264 167.933 133.806 171.038 130.066 172.181C115.952 176.514 110.673 152.52 110.673 152.52C111.873 152.364 113.622 151.8 115.725 150.841C116.418 150.53 117.137 150.191 117.885 149.796V149.782C119.904 148.738 122.147 147.425 124.477 145.858C126.142 147.82 128.569 149.839 131.28 151.645C135.598 154.524 140.637 156.839 144.448 157.418Z" fill="#7F2489"/>
<path fill-rule="evenodd" clip-rule="evenodd" d="M142.218 161.13C138.704 166.55 134.597 170.798 130.066 172.182C115.951 176.514 110.673 152.52 110.673 152.52C112.268 152.322 114.823 151.377 117.885 149.796C120.398 153.607 132.677 161.313 137.306 161.44C139.621 161.496 141.216 161.313 142.218 161.13Z" fill="#761584"/>
<path fill-rule="evenodd" clip-rule="evenodd" d="M154.949 126.24C154.596 131.165 151.83 141.793 147.341 151.631C146.452 153.607 145.479 155.555 144.449 157.417C140.638 156.839 135.598 154.525 131.28 151.645C128.569 149.838 126.142 147.82 124.477 145.858C134.215 139.338 145.436 128.667 148.414 116.529C150.164 109.415 153.1 103.812 156.205 100.057C157.856 98.0529 159.55 96.5854 161.145 95.6684C164.716 93.6215 167.764 94.454 168.541 98.7162C170.292 108.427 155.655 116.529 154.949 126.24Z" fill="#FFB48D"/>
<path fill-rule="evenodd" clip-rule="evenodd" d="M156.205 100.058C155.881 103.008 153.538 107.722 152.366 114.99C150.771 124.785 142.302 142.781 131.28 151.645C128.569 149.838 126.142 147.82 124.477 145.858C134.215 139.338 145.436 128.667 148.415 116.529C150.164 109.415 153.1 103.812 156.205 100.058Z" fill="#FFA780"/>
<path fill-rule="evenodd" clip-rule="evenodd" d="M131.28 151.645C130.066 152.633 128.824 153.494 127.568 154.228C123.22 156.698 116.375 154.707 115.74 150.967C115.726 150.925 115.726 150.883 115.726 150.84C116.418 150.53 117.137 150.191 117.885 149.796V149.782C119.904 148.737 122.147 147.425 124.477 145.858C126.142 147.82 128.569 149.839 131.28 151.645Z" fill="#761584"/>
<path fill-rule="evenodd" clip-rule="evenodd" d="M154.949 126.24C154.596 131.165 151.83 141.793 147.341 151.631C147.3 150.488 147.398 149.062 147.652 147.396C148.47 142.104 153.425 128.949 154.13 122.95C154.836 116.953 158.943 111.886 160.581 107.891C161.992 104.461 160.214 101.2 161.145 95.6684C164.716 93.6215 167.765 94.454 168.541 98.7162C170.292 108.427 155.655 116.529 154.949 126.24Z" fill="#FFCCB6"/>
<path fill-rule="evenodd" clip-rule="evenodd" d="M182.332 171.393L168.293 174.258C166.605 174.602 164.956 173.513 164.611 171.825L157.415 136.631C157.07 134.942 158.159 133.293 159.848 132.948L173.888 130.083C175.577 129.738 177.225 130.827 177.57 132.516L184.766 167.71C185.111 169.399 184.022 171.048 182.332 171.393Z" fill="#FFBDD5"/>
<path fill-rule="evenodd" clip-rule="evenodd" d="M183.601 170.967C183.53 170.996 183.46 171.009 183.389 171.024L180.707 171.574L169.346 173.875C167.666 174.228 166.015 173.141 165.662 171.447L161.413 150.671L158.464 136.261C158.125 134.567 159.212 132.915 160.906 132.576L162.105 132.337L174.949 129.711C176.629 129.358 178.28 130.446 178.619 132.139L185.816 167.34C186.156 168.949 185.168 170.53 183.601 170.967Z" fill="#FF64B2"/>
<path fill-rule="evenodd" clip-rule="evenodd" d="M167.763 142.165L163.08 143.159C162.75 143.229 162.423 143.143 162.176 142.95C161.98 142.797 161.835 142.576 161.779 142.313L160.609 136.801C160.547 136.508 160.608 136.217 160.758 135.983C160.909 135.743 161.155 135.564 161.453 135.5L166.137 134.505C166.433 134.442 166.728 134.506 166.963 134.658C167.198 134.811 167.375 135.055 167.438 135.351L168.608 140.863C168.687 141.233 168.569 141.598 168.326 141.851C168.18 142.005 167.987 142.117 167.763 142.165Z" fill="#FFBDD5"/>
<path fill-rule="evenodd" clip-rule="evenodd" d="M161.856 137.69C161.856 138.372 162.409 138.926 163.091 138.926C163.773 138.926 164.326 138.372 164.326 137.69C164.326 137.008 163.773 136.455 163.091 136.455C162.409 136.455 161.856 137.008 161.856 137.69Z" fill="white"/>
<path fill-rule="evenodd" clip-rule="evenodd" d="M162.54 140.491C162.54 141.173 163.093 141.726 163.775 141.726C164.457 141.726 165.009 141.173 165.009 140.491C165.009 139.809 164.457 139.256 163.775 139.256C163.093 139.256 162.54 139.809 162.54 140.491Z" fill="white"/>
<path fill-rule="evenodd" clip-rule="evenodd" d="M164.687 138.432C164.687 139.114 165.241 139.667 165.923 139.667C166.605 139.667 167.157 139.114 167.157 138.432C167.157 137.75 166.605 137.197 165.923 137.197C165.241 137.197 164.687 137.75 164.687 138.432Z" fill="white"/>
<path fill-rule="evenodd" clip-rule="evenodd" d="M183.601 170.967C183.206 169.612 183.065 168.314 183.291 167.34C184.251 163.303 178.59 137.262 175.598 134.482C172.846 131.942 165.436 134.454 162.105 132.337L174.949 129.711C176.629 129.358 178.28 130.446 178.619 132.139L185.816 167.34C186.156 168.949 185.168 170.53 183.601 170.967Z" fill="#FF92CE"/>
<path fill-rule="evenodd" clip-rule="evenodd" d="M181.554 166.818C181.088 168.526 180.877 170.121 180.707 171.574L169.346 173.875C167.666 174.228 166.015 173.141 165.662 171.448L161.413 150.671C170.813 148.724 175.824 140.156 177.532 147.396C179.353 155.146 183.107 161.172 181.554 166.818Z" fill="#FC3D9D"/>
<path fill-rule="evenodd" clip-rule="evenodd" d="M124.406 235.215C123.728 234.989 123.051 234.736 122.373 234.453C122.147 234.355 121.922 234.27 121.696 234.199C109.755 230.162 93.5522 246.888 87.7935 245.265C81.9078 243.628 85.436 205.745 93.9051 173.169C93.9051 173.169 95.6407 173.029 98.3226 172.859C106.41 172.337 123.065 171.49 126.608 173.169C129.036 174.327 131.082 183.98 133.34 194.934C133.692 196.627 134.046 198.349 134.413 200.071C136.233 208.807 138.252 217.657 140.722 223.162C146.494 236.034 135.712 239.069 124.406 235.215Z" fill="#7F2489"/>
<path fill-rule="evenodd" clip-rule="evenodd" d="M183.276 150.967C183.234 152.435 182.98 154.044 182.528 155.695C181.696 158.759 180.185 161.962 177.998 164.7C171.223 173.197 154.766 187.312 138.605 193.282C137.617 190.459 136.855 187.622 136.304 184.87C135.104 179.182 134.695 173.889 134.596 169.937C134.568 168.624 134.568 167.453 134.582 166.464C136.826 166.14 139.184 165.646 141.625 164.983C147.384 163.43 153.481 160.961 159.014 157.869C159.056 157.855 159.085 157.827 159.127 157.812C163.926 155.117 168.301 151.941 171.646 148.469C175.161 144.828 177.885 143.557 179.819 143.84C182.275 144.192 183.446 147.128 183.276 150.967Z" fill="#FFB48D"/>
<path fill-rule="evenodd" clip-rule="evenodd" d="M138.605 193.282C136.84 193.932 135.091 194.496 133.34 194.933C130.291 195.71 127.299 196.133 124.42 196.105C112 196.006 102.134 190.911 97.1653 184.588C96.8686 184.207 96.5865 183.812 96.3183 183.416C95.528 182.245 94.8924 181.031 94.4557 179.817C93.6371 177.587 93.425 175.329 93.9054 173.17C95.0907 167.89 98.8732 161.54 101.216 154.666C102.401 154.99 103.672 155.103 104.985 155.075C108.329 155.018 111.844 154.002 114.357 153.084C114.272 156.585 114.949 159.789 117.702 162.555C118.633 163.501 119.805 164.39 121.259 165.223C124.236 166.93 129.022 167.255 134.582 166.465C134.568 167.453 134.568 168.624 134.597 169.937C134.695 173.889 135.104 179.182 136.305 184.87C136.855 187.622 137.617 190.459 138.605 193.282Z" fill="#7F2489"/>
<path fill-rule="evenodd" clip-rule="evenodd" d="M138.605 193.282C133.764 195.075 128.937 196.147 124.42 196.105C112 196.006 102.134 190.911 97.1653 184.588C108.273 191.01 123.221 188.624 136.305 184.87C136.855 187.622 137.617 190.459 138.605 193.282Z" fill="#761584"/>
<path fill-rule="evenodd" clip-rule="evenodd" d="M182.528 155.696C181.696 158.758 180.185 161.963 177.998 164.7C171.223 173.197 154.766 187.311 138.605 193.282C137.617 190.459 136.854 187.622 136.304 184.869C145.93 182.104 155.147 176.952 162.542 170.106C178.802 155.046 181.922 151.899 182.528 155.696Z" fill="#FFA780"/>
<path fill-rule="evenodd" clip-rule="evenodd" d="M134.597 169.937C125.775 170.318 119.479 167.82 117.701 162.556C118.633 163.501 119.804 164.39 121.259 165.223C124.237 166.931 129.021 167.255 134.582 166.465C134.568 167.454 134.568 168.624 134.597 169.937Z" fill="#AD32BF"/>
<path fill-rule="evenodd" clip-rule="evenodd" d="M159.014 157.869C158.054 161.059 154.865 166.154 144.448 168.54C140.92 169.344 137.617 169.81 134.596 169.937C134.568 168.624 134.568 167.453 134.582 166.464C136.826 166.14 139.184 165.646 141.625 164.983C147.384 163.43 153.481 160.96 159.014 157.869Z" fill="#FFCCB6"/>
<path fill-rule="evenodd" clip-rule="evenodd" d="M183.276 150.968C182.119 149.57 180.298 146.635 179.819 143.84C182.275 144.193 183.446 147.128 183.276 150.968Z" fill="#FFCCB6"/>
<path fill-rule="evenodd" clip-rule="evenodd" d="M121.696 234.199C109.755 230.163 93.5522 246.888 87.7934 245.265C81.9085 243.628 85.436 205.745 93.905 173.169C95.0903 167.89 98.8729 161.54 101.216 154.666C102.402 154.991 103.672 155.104 104.985 155.075C102.416 159.676 100.059 165.76 98.3225 172.859C97.49 176.176 96.8128 179.705 96.3186 183.416C95.6691 188.046 95.3163 192.915 95.3163 197.968C95.3163 215.696 111.195 213.579 111.547 219.746C111.816 224.474 115.783 230.741 121.696 234.199Z" fill="#761584"/>
<path fill-rule="evenodd" clip-rule="evenodd" d="M124.406 235.215C124.716 234.255 125.804 233.635 127.779 234.129C132.45 235.272 139.861 232.534 137.829 225.477C135.994 219.097 134.526 208.116 134.413 200.071C136.233 208.807 138.252 217.657 140.722 223.162C146.494 236.034 135.712 239.069 124.406 235.215Z" fill="#AD32BF"/>
<path fill-rule="evenodd" clip-rule="evenodd" d="M123.658 125.506C123.601 131.617 117.335 134.567 115.726 141.568V141.596C115.585 142.146 115.486 142.739 115.429 143.346C115.091 146.762 114.427 150.037 114.357 153.085C111.844 154.002 108.33 155.018 104.985 155.075C103.672 155.104 102.402 154.991 101.216 154.666C103.418 148.216 104.336 141.285 100.609 134.355C99.6354 132.549 98.6331 129.712 98.2241 126.437C97.5746 121.413 98.2941 115.343 102.486 110.361C109.431 102.132 113.228 102.513 113.228 102.513C113.849 104.828 114.54 106.79 115.274 108.498C118.789 116.599 123.192 118.844 123.63 124.743C123.644 125.012 123.658 125.266 123.658 125.506Z" fill="#FFB48D"/>
<path fill-rule="evenodd" clip-rule="evenodd" d="M114.366 105.025C113.724 110.949 111.842 114.183 106.02 115.653C100.198 117.124 100.08 115.301 98.845 116.183C97.6098 117.065 97.1939 108.773 101.019 106.656C104.844 104.538 114.366 105.025 114.366 105.025Z" fill="#FFA780"/>
<path fill-rule="evenodd" clip-rule="evenodd" d="M104.985 155.075C103.672 155.103 102.402 154.99 101.216 154.666C103.418 148.215 104.335 141.285 100.61 134.355C99.6352 132.548 98.6335 129.711 98.2239 126.437C99.0432 125.562 99.6352 125.025 99.6352 125.025C100.835 134.778 109.431 138.405 109.868 140.706C110.306 143.007 105.394 152.859 104.985 155.075Z" fill="#FFA780"/>
<path fill-rule="evenodd" clip-rule="evenodd" d="M115.316 104.066C115.26 104.207 115.189 104.348 115.132 104.489C112.225 111.024 107.61 112.605 104.844 113.127C103.22 113.423 101.936 113.903 101.019 114.666C100.341 115.202 99.8474 115.893 99.5507 116.769C98.8451 118.829 91.8726 115.739 95.5844 110.008C99.2825 104.278 108.287 99.2531 112.789 100.297C117.278 101.37 115.316 104.066 115.316 104.066Z" fill="#FF64B2"/>
<path fill-rule="evenodd" clip-rule="evenodd" d="M102.783 118.349C102.783 118.349 101.131 127.806 99.8757 127.665C99.0994 127.58 97.2785 126.465 95.7819 124.39C94.8649 123.106 94.0601 121.44 93.7496 119.423C93.2131 116.035 94.9494 114.482 97.659 115.16C99.141 115.527 100.933 116.572 102.783 118.349Z" fill="#FFB48D"/>
<path fill-rule="evenodd" clip-rule="evenodd" d="M115.132 104.489C112.225 111.024 107.61 112.605 104.843 113.127C103.22 113.423 101.936 113.904 101.019 114.666C101.23 113.297 102.006 112.14 103.869 111.772C108.894 110.798 110.193 107.821 115.132 104.489Z" fill="#FF92CE"/>
<path fill-rule="evenodd" clip-rule="evenodd" d="M121.653 112.238C122.077 110.234 122.543 107.51 122.345 105.746C122.021 102.937 119.974 101.737 118.125 99.126C121.992 100.029 125.535 103.685 121.653 112.238Z" fill="#FF92CE"/>
<path fill-rule="evenodd" clip-rule="evenodd" d="M116.318 98.8998C112.367 93.6636 102.134 89.3023 95.6692 93.8889C89.2048 98.4763 91.4354 108.004 86.9603 111.42C83.5028 114.059 81.2445 117.898 80.4113 121.355C80.3552 121.186 80.3129 121.017 80.2706 120.847C78.083 112.393 85.1401 111.744 92.1833 96.0349C99.2265 80.3258 116.318 91.2639 116.318 98.8998Z" fill="#FF92CE"/>
<path fill-rule="evenodd" clip-rule="evenodd" d="M111.842 99.7754C108.136 104.539 95.0807 101.539 91.6115 109.891C91.6115 109.891 91.7702 104.512 98.2194 102.834C103.197 101.538 103.02 103.245 111.842 99.7754Z" fill="#FF92CE"/>
<path fill-rule="evenodd" clip-rule="evenodd" d="M115.726 141.567C115.711 132.436 122.077 130.6 121.696 125.858C121.343 121.384 116.276 114.044 115.274 108.498C118.789 116.599 123.192 118.843 123.63 124.743C123.644 125.011 123.657 125.265 123.657 125.505C123.601 131.617 117.334 134.566 115.726 141.567Z" fill="#FFCCB6"/>
<path fill-rule="evenodd" clip-rule="evenodd" d="M95.7823 124.39C94.8652 123.106 94.0605 121.44 93.7492 119.423C93.2134 116.034 94.9498 114.482 97.6594 115.16C94.3564 116.938 94.2864 120.975 95.7823 124.39Z" fill="#FFCCB6"/>
<path fill-rule="evenodd" clip-rule="evenodd" d="M54.6833 33.6614V45.7966L103.58 24.0244L54.6833 33.6614Z" fill="#FFCCE2"/>
<path fill-rule="evenodd" clip-rule="evenodd" d="M66.6681 25.8515C66.6577 25.8515 66.6473 25.8515 66.6362 25.8501L62.4052 25.656C62.0156 25.638 61.7148 25.3088 61.7335 24.9185C61.7515 24.5296 62.0988 24.2143 62.4703 24.2475L66.7 24.4416C67.0895 24.4583 67.3904 24.7889 67.3724 25.1778C67.3557 25.5569 67.0431 25.8515 66.6681 25.8515Z" fill="#FF924A"/>
<mask id="mask2" mask-type="alpha" maskUnits="userSpaceOnUse" x="0" y="22" width="55" height="238">
<path fill-rule="evenodd" clip-rule="evenodd" d="M0.520508 22.5986H54.5841V259.633H0.520508V22.5986Z" fill="white"/>
</mask>
<g mask="url(#mask2)">
<path fill-rule="evenodd" clip-rule="evenodd" d="M-321.449 250.967C-321.774 250.769 -322.212 250.868 -322.422 251.193C-323.961 253.649 -325.444 256.133 -326.827 258.575C-327.024 258.913 -326.897 259.337 -326.558 259.534C-326.46 259.605 -326.332 259.633 -326.219 259.633C-325.966 259.633 -325.726 259.492 -325.598 259.266C-324.229 256.852 -322.747 254.383 -321.223 251.941C-321.011 251.616 -321.11 251.179 -321.449 250.967ZM-311.71 236.881C-312.02 236.655 -312.473 236.711 -312.698 237.036C-314.406 239.322 -316.085 241.666 -317.694 244.023C-317.92 244.333 -317.836 244.771 -317.525 244.997C-317.398 245.081 -317.257 245.123 -317.116 245.123C-316.89 245.123 -316.678 245.01 -316.537 244.813C-314.942 242.484 -313.262 240.141 -311.569 237.869C-311.344 237.558 -311.4 237.121 -311.71 236.881ZM-300.913 223.599C-301.21 223.345 -301.661 223.373 -301.914 223.67C-303.792 225.815 -305.655 228.031 -307.433 230.247C-307.673 230.543 -307.631 230.995 -307.335 231.235C-307.194 231.348 -307.038 231.39 -306.883 231.39C-306.686 231.39 -306.474 231.306 -306.333 231.137C-304.568 228.935 -302.719 226.733 -300.842 224.587C-300.588 224.305 -300.616 223.853 -300.913 223.599ZM-289.127 211.179C-289.409 210.896 -289.847 210.896 -290.129 211.165C-292.176 213.169 -294.195 215.243 -296.142 217.305C-296.41 217.587 -296.396 218.038 -296.114 218.306C-295.973 218.433 -295.804 218.49 -295.634 218.49C-295.437 218.49 -295.253 218.419 -295.112 218.264C-293.179 216.218 -291.174 214.171 -289.142 212.181C-288.859 211.899 -288.859 211.461 -289.127 211.179ZM-276.425 199.718C-276.679 199.407 -277.116 199.365 -277.413 199.619C-279.614 201.468 -281.788 203.36 -283.891 205.265C-284.174 205.533 -284.201 205.985 -283.933 206.267C-283.792 206.422 -283.609 206.493 -283.411 206.493C-283.242 206.493 -283.072 206.437 -282.932 206.324C-280.856 204.418 -278.697 202.541 -276.509 200.706C-276.213 200.452 -276.171 200.015 -276.425 199.718ZM-262.734 189.443C-262.946 189.118 -263.382 189.033 -263.707 189.246C-265.698 190.53 -267.589 191.842 -269.326 193.169C-269.791 193.522 -270.256 193.875 -270.722 194.242C-271.033 194.482 -271.09 194.919 -270.85 195.23C-270.708 195.413 -270.511 195.498 -270.299 195.498C-270.143 195.498 -269.989 195.456 -269.861 195.356C-269.396 195.004 -268.944 194.637 -268.465 194.284C-266.771 193 -264.907 191.687 -262.946 190.431C-262.607 190.219 -262.522 189.781 -262.734 189.443ZM-247.688 181.257C-247.844 180.932 -248.224 180.79 -248.549 180.903C-248.563 180.918 -248.592 180.918 -248.619 180.932C-251.301 182.202 -253.884 183.529 -256.298 184.842C-256.637 185.025 -256.763 185.463 -256.58 185.801C-256.439 186.027 -256.198 186.169 -255.959 186.169C-255.846 186.169 -255.719 186.14 -255.62 186.084C-253.235 184.771 -250.68 183.472 -248.013 182.202C-247.97 182.188 -247.928 182.16 -247.9 182.132C-247.632 181.934 -247.533 181.567 -247.688 181.257ZM-231.894 174.58C-232.036 174.214 -232.445 174.03 -232.811 174.171C-235.536 175.215 -238.217 176.302 -240.786 177.389C-241.14 177.544 -241.309 177.954 -241.153 178.321C-241.04 178.589 -240.771 178.744 -240.504 178.744C-240.405 178.744 -240.32 178.73 -240.236 178.688C-237.681 177.615 -235.013 176.528 -232.304 175.484C-231.936 175.343 -231.753 174.933 -231.894 174.58ZM-215.705 168.921C-215.832 168.553 -216.227 168.356 -216.594 168.469C-217.018 168.61 -217.441 168.737 -217.851 168.878C-219.021 169.26 -220.179 169.655 -221.323 170.036C-222.028 170.276 -222.734 170.516 -223.426 170.756C-223.863 170.911 -224.301 171.051 -224.739 171.207C-225.105 171.334 -225.303 171.744 -225.175 172.111C-225.062 172.393 -224.795 172.576 -224.498 172.576C-224.427 172.576 -224.343 172.563 -224.273 172.548C-224.005 172.45 -223.722 172.35 -223.44 172.251C-223.185 172.167 -222.932 172.082 -222.663 171.984C-221.097 171.447 -219.487 170.911 -217.865 170.36C-217.3 170.177 -216.735 169.994 -216.157 169.81C-215.789 169.697 -215.592 169.302 -215.705 168.921ZM-199.262 164.037C-199.361 163.656 -199.756 163.43 -200.123 163.543C-202.89 164.306 -205.655 165.11 -208.394 165.928C-208.775 166.041 -208.987 166.423 -208.874 166.804C-208.775 167.114 -208.493 167.311 -208.196 167.311C-208.126 167.311 -208.055 167.297 -207.999 167.269C-205.261 166.465 -202.508 165.66 -199.756 164.898C-199.375 164.799 -199.149 164.404 -199.262 164.037ZM-182.664 159.732C-182.748 159.352 -183.13 159.125 -183.511 159.21C-186.277 159.887 -189.058 160.593 -191.838 161.313C-192.218 161.412 -192.445 161.793 -192.346 162.174C-192.261 162.485 -191.979 162.696 -191.654 162.696C-191.598 162.696 -191.542 162.696 -191.485 162.682C-188.705 161.948 -185.938 161.256 -183.172 160.579C-182.791 160.495 -182.565 160.113 -182.664 159.732ZM-165.938 155.921C-166.022 155.541 -166.376 155.3 -166.771 155.385C-166.813 155.399 -166.869 155.399 -166.912 155.413C-168.451 155.752 -170.003 156.091 -171.556 156.444C-172.755 156.698 -173.956 156.966 -175.155 157.248C-175.536 157.332 -175.776 157.714 -175.691 158.081C-175.607 158.419 -175.324 158.631 -175 158.631C-174.943 158.631 -174.887 158.631 -174.844 158.618C-174.068 158.434 -173.305 158.265 -172.53 158.095C-170.751 157.686 -168.987 157.305 -167.251 156.923C-166.982 156.867 -166.729 156.811 -166.475 156.754C-166.094 156.684 -165.853 156.302 -165.938 155.921ZM-149.947 151.956C-152.685 152.478 -155.509 153.042 -158.373 153.621C-158.754 153.691 -158.994 154.073 -158.923 154.454C-158.853 154.792 -158.556 155.018 -158.232 155.018C-158.19 155.018 -158.134 155.018 -158.091 155.004C-155.225 154.425 -152.417 153.875 -149.678 153.352C-149.298 153.268 -149.043 152.901 -149.114 152.52C-149.199 152.139 -149.565 151.885 -149.947 151.956ZM-133.038 148.921C-135.733 149.373 -138.57 149.866 -141.506 150.388C-141.887 150.459 -142.142 150.826 -142.071 151.208C-142.015 151.546 -141.718 151.786 -141.38 151.786H-141.252C-138.317 151.25 -135.494 150.756 -132.812 150.304C-132.431 150.248 -132.163 149.881 -132.233 149.485C-132.29 149.104 -132.671 148.85 -133.038 148.921ZM-116.073 146.225C-118.613 146.606 -121.45 147.029 -124.569 147.524C-124.951 147.58 -125.219 147.947 -125.148 148.328C-125.106 148.681 -124.795 148.921 -124.457 148.921H-124.344C-121.239 148.427 -118.402 147.989 -115.86 147.622C-115.479 147.566 -115.212 147.213 -115.268 146.818C-115.325 146.437 -115.677 146.183 -116.073 146.225ZM-98.3588 143.826C-98.4302 143.6 -98.6132 143.444 -98.8246 143.374C-98.9521 143.331 -99.1067 143.331 -99.2481 143.374C-101.436 144.094 -102.792 144.418 -102.792 144.418C-102.848 144.418 -104.541 144.63 -107.562 145.025C-107.942 145.082 -108.211 145.434 -108.155 145.816C-108.112 146.168 -107.816 146.437 -107.463 146.437C-107.435 146.437 -107.407 146.437 -107.364 146.423C-104.315 146.013 -102.622 145.816 -102.537 145.802C-102.481 145.787 -101.125 145.477 -98.8392 144.729C-98.8246 144.715 -98.8246 144.715 -98.8114 144.715C-98.4441 144.602 -98.2465 144.207 -98.3588 143.826ZM-82.7911 136.74C-82.9887 136.402 -83.426 136.289 -83.7511 136.486C-86.1931 137.869 -88.7474 139.167 -91.3308 140.311C-91.683 140.48 -91.8528 140.89 -91.683 141.243C-91.57 141.511 -91.3163 141.666 -91.048 141.666C-90.9496 141.666 -90.8505 141.652 -90.7521 141.609C-88.1264 140.438 -85.5291 139.125 -83.0594 137.7C-82.7211 137.516 -82.5936 137.079 -82.7911 136.74ZM-69.0436 126.592C-69.3119 126.295 -69.75 126.282 -70.0321 126.55C-72.0783 128.427 -74.2943 130.219 -76.6088 131.899C-76.9339 132.125 -77.0046 132.562 -76.7779 132.873C-76.6372 133.07 -76.4258 133.17 -76.2005 133.17C-76.0584 133.17 -75.9177 133.127 -75.7909 133.043C-73.4196 131.335 -71.1751 129.5 -69.0866 127.58C-68.8045 127.326 -68.7761 126.874 -69.0436 126.592ZM-58.6275 113.128C-58.981 112.958 -59.4039 113.113 -59.573 113.466C-60.1664 114.679 -60.8297 115.866 -61.606 117.009L-61.6199 117.037C-62.0573 117.771 -62.5799 118.448 -63.1164 119.125C-63.4686 119.564 -63.8214 120.001 -64.1888 120.424C-64.4431 120.735 -64.4002 121.172 -64.1035 121.426C-63.9628 121.539 -63.8082 121.581 -63.6377 121.581C-63.4401 121.581 -63.2433 121.497 -63.1019 121.341C-62.7352 120.89 -62.3678 120.452 -62.015 120.001C-60.8297 118.504 -59.799 116.924 -58.9096 115.272C-58.6982 114.877 -58.5007 114.482 -58.3031 114.073C-58.1333 113.72 -58.2747 113.297 -58.6275 113.128ZM-55.466 96.43H-55.4806C-55.8611 96.43 -56.1855 96.7405 -56.1855 97.1217C-56.2285 100.213 -56.4968 102.951 -56.991 105.519C-57.061 105.901 -56.8205 106.268 -56.4399 106.338C-56.3838 106.353 -56.3408 106.353 -56.2992 106.353C-55.9596 106.353 -55.6775 106.127 -55.6075 105.788C-55.0994 103.134 -54.8172 100.312 -54.7743 97.1495C-54.7743 96.7544 -55.0855 96.4438 -55.466 96.43ZM-56.0309 79.9868C-56.0725 79.6056 -56.4399 79.3089 -56.8204 79.3657C-57.2017 79.4226 -57.4845 79.7747 -57.4276 80.1559C-57.0471 83.3459 -56.7504 85.9993 -56.5251 88.6388C-56.4967 89.0062 -56.1855 89.2883 -55.8188 89.2883H-55.7627C-55.3814 89.2599 -55.0854 88.921 -55.127 88.5258C-55.3392 85.8586 -55.6497 83.1906 -56.0309 79.9868ZM-57.7105 63.0071C-57.7243 62.612 -57.9926 62.2876 -58.4438 62.3299C-58.8396 62.3438 -59.1356 62.6827 -59.1218 63.064C-59.0088 65.6183 -58.7835 68.3424 -58.43 71.6453C-58.4023 71.9981 -58.0917 72.2802 -57.7389 72.2802C-57.7105 72.2802 -57.6821 72.2664 -57.6543 72.2664C-57.2731 72.2241 -56.991 71.8851 -57.0326 71.49C-57.3854 68.2294 -57.5975 65.5337 -57.7105 63.0071ZM-57.0187 45.3225C-57.4138 45.238 -57.7805 45.4771 -57.8651 45.8583C-58.4868 48.5686 -58.8819 51.3773 -59.0795 54.4258C-59.1072 54.8209 -58.8112 55.1599 -58.4154 55.1883H-58.3738C-58.0065 55.1883 -57.6959 54.8916 -57.6675 54.5249C-57.4845 51.5464 -57.0887 48.8084 -56.4968 46.1689C-56.4122 45.7883 -56.6513 45.4071 -57.0187 45.3225ZM-46.8279 32.1677C-47.0399 31.8433 -47.4773 31.7442 -47.8024 31.9563C-50.4558 33.6497 -52.6296 35.6398 -54.28 37.8558C-54.5067 38.1663 -54.436 38.6037 -54.1254 38.8442C-53.9979 38.9288 -53.8572 38.985 -53.7012 38.985C-53.4905 38.985 -53.2784 38.8865 -53.137 38.6883C-51.5989 36.6137 -49.552 34.7504 -47.0399 33.1416C-46.7148 32.9441 -46.6164 32.5067 -46.8279 32.1677ZM-30.8082 26.3667C-30.8928 25.9854 -31.274 25.7463 -31.6553 25.8308C-34.6899 26.4942 -37.4847 27.2844 -39.9684 28.1876C-40.3357 28.3144 -40.5326 28.7241 -40.3919 29.0908C-40.2934 29.3729 -40.0252 29.5566 -39.7285 29.5566C-39.644 29.5566 -39.5739 29.5427 -39.4894 29.5143C-37.0612 28.6388 -34.3225 27.8632 -31.3454 27.1998C-30.9774 27.1146 -30.7237 26.7479 -30.8082 26.3667ZM-14.6194 23.4311C-17.6396 23.671 -20.5189 23.9815 -23.173 24.3343C-23.5536 24.3905 -23.8218 24.744 -23.7657 25.1391C-23.7227 25.4919 -23.4268 25.7463 -23.0739 25.7463C-23.0455 25.7463 -23.0032 25.7463 -22.9748 25.7317C-20.3498 25.3789 -17.4988 25.0684 -14.5071 24.8285C-14.1114 24.8001 -13.8293 24.4618 -13.857 24.0661C-13.8854 23.6848 -14.2237 23.4027 -14.6194 23.4311ZM53.9189 23.8685C51.0257 23.7271 48.1747 23.6148 45.366 23.5018C44.9855 23.4595 44.6458 23.7839 44.6326 24.179C44.6042 24.5603 44.9141 24.8847 45.2953 24.9131C48.1047 25.0261 50.9557 25.1391 53.8489 25.2659H53.8912C54.2586 25.2659 54.5684 24.9692 54.5823 24.6026C54.6107 24.2075 54.3001 23.8831 53.9189 23.8685ZM36.7985 23.1629C33.8914 23.0637 31.0398 22.9653 28.2456 22.8946C27.8505 22.923 27.5254 23.1913 27.5116 23.5725C27.5116 23.9676 27.8076 24.292 28.2033 24.3059C30.9982 24.3766 33.8484 24.4757 36.7563 24.5741H36.7708C37.1514 24.5741 37.4619 24.2782 37.4764 23.8969C37.4903 23.5018 37.1936 23.1767 36.7985 23.1629ZM2.54324 22.6409H2.52936C-0.491425 22.6971 -3.38467 22.7816 -6.05197 22.8946C-6.4332 22.9085 -6.74374 23.2474 -6.72986 23.6287C-6.70145 24.0099 -6.3909 24.3059 -6.02353 24.3059H-5.98193C-3.32852 24.1929 -0.463013 24.1083 2.5578 24.0522C2.93832 24.0522 3.24957 23.7271 3.24957 23.3466C3.23502 22.9515 2.92447 22.6409 2.54324 22.6409ZM19.6782 22.6832C16.7419 22.6409 13.891 22.5986 11.0968 22.5986C10.7156 22.5986 10.3905 22.9085 10.3905 23.3043C10.3905 23.6848 10.7017 24.0099 11.0968 24.0099C13.8771 24.0099 16.7281 24.0522 19.6505 24.0945H19.6636C20.0449 24.0945 20.3554 23.7978 20.3699 23.4027C20.3699 23.0215 20.0594 22.6971 19.6782 22.6832Z" fill="#FF924A"/>
</g>
<path fill-rule="evenodd" clip-rule="evenodd" d="M46.5049 7.44434L60.9365 23.1326L103.58 24.0247L46.5049 7.44434Z" fill="#FFCCE2"/>
<path fill-rule="evenodd" clip-rule="evenodd" d="M45.7609 38.6582L103.58 24.0249L60.9369 23.1328L45.7609 38.6582Z" fill="white"/>
<path fill-rule="evenodd" clip-rule="evenodd" d="M239.265 93.4821L239.249 93.4973C238.361 93.7122 204.848 102.316 196.075 110.537C195.463 111.104 194.974 111.671 194.621 112.237C194.621 112.237 191.682 89.9151 182.618 82.1219C205.582 70.0124 231.365 69.3691 235.698 71.7882L239.265 93.4821Z" fill="#FF64B2"/>
<path fill-rule="evenodd" clip-rule="evenodd" d="M239.249 93.4976C238.362 93.7118 204.848 102.316 196.075 110.538L201.633 95.105L214.355 94.1097L222.485 79.9941L239.249 93.4976Z" fill="white"/>
<path fill-rule="evenodd" clip-rule="evenodd" d="M206.348 81.107C206.348 83.644 208.405 85.6999 210.941 85.6999C213.478 85.6999 215.535 83.644 215.535 81.107C215.535 78.5701 213.478 76.5142 210.941 76.5142C208.405 76.5142 206.348 78.5701 206.348 81.107Z" fill="white"/>
<path fill-rule="evenodd" clip-rule="evenodd" d="M207.865 119.04C205.999 120.802 210.146 120.802 213.153 123.187C216.159 125.571 224.142 137.598 224.142 140.501C224.142 143.404 229.222 135.317 240.731 131.896C252.24 128.474 266.962 128.267 269.243 128.164C271.524 128.06 264.163 112.508 262.296 110.123C260.43 107.738 244.982 107.013 230.466 109.501C215.952 111.99 207.865 119.04 207.865 119.04Z" fill="white"/>
<path fill-rule="evenodd" clip-rule="evenodd" d="M237.543 112.793C241.88 113.875 250.062 116.915 248.818 118.237C247.574 119.558 240.42 126.401 238.165 125.701C235.91 125.002 234.977 114.349 235.055 113.338C235.132 112.327 236.649 112.571 237.543 112.793Z" fill="#FF64B2"/>
<path fill-rule="evenodd" clip-rule="evenodd" d="M265.216 125.791C265.204 125.965 265.042 126.09 264.867 126.053C258.97 125.219 246.74 127.26 237.298 130.332C237.298 130.133 237.247 129.934 237.148 129.76C246.703 126.65 259.021 124.597 264.955 125.443C265.129 125.468 265.241 125.63 265.216 125.791Z" fill="#FFBDD5"/>
<path fill-rule="evenodd" clip-rule="evenodd" d="M237.297 130.332C236.526 130.594 235.767 130.855 235.032 131.129C230.802 132.646 227.369 134.376 225.714 136.106C225.652 136.167 225.577 136.205 225.49 136.205C225.415 136.205 225.341 136.167 225.279 136.117C225.154 135.993 225.142 135.794 225.266 135.67C226.958 133.903 230.454 132.137 234.771 130.581C235.543 130.295 236.339 130.021 237.148 129.76C237.247 129.934 237.297 130.133 237.297 130.332Z" fill="#FF64B2"/>
<path fill-rule="evenodd" clip-rule="evenodd" d="M237.297 130.333C237.297 131.042 236.725 131.614 236.028 131.614C235.617 131.614 235.257 131.428 235.032 131.129C234.896 130.968 234.809 130.78 234.772 130.581C234.759 130.494 234.747 130.419 234.747 130.333C234.747 129.636 235.319 129.063 236.028 129.063C236.526 129.063 236.949 129.35 237.148 129.76C237.248 129.935 237.297 130.134 237.297 130.333Z" fill="#FF64B2"/>
<path fill-rule="evenodd" clip-rule="evenodd" d="M260.866 70.7963C258.361 71.4091 261.983 73.4678 263.425 77.0431C264.867 80.6184 265.87 95.0854 264.429 97.6203C262.988 100.156 271.44 95.6149 283.189 98.3391C294.939 101.064 307.9 108.191 309.943 109.233C311.987 110.275 313.277 93.0378 312.832 90.0288C312.385 87.0191 299.253 78.7171 285.341 73.6847C271.429 68.6531 260.866 70.7963 260.866 70.7963Z" fill="white"/>
<path fill-rule="evenodd" clip-rule="evenodd" d="M296.339 87.1443C294.422 84.7695 291.314 85.7462 290.697 87.895C291.314 85.7462 289.199 83.2695 286.314 84.2649C283.429 85.2596 285.96 91.6865 289.052 93.6232C292.7 93.6225 298.256 89.5183 296.339 87.1443Z" fill="#FF64B2"/>
<path fill-rule="evenodd" clip-rule="evenodd" d="M290.4 113.113C289.034 113.358 290.816 114.604 291.345 116.598C291.874 118.592 291.457 126.491 290.529 127.82C289.6 129.147 294.37 126.975 300.408 128.866C306.445 130.759 312.837 135.086 313.85 135.724C314.863 136.361 316.674 127.036 316.636 125.385C316.597 123.734 310.192 118.761 303.16 115.539C296.129 112.318 290.4 113.113 290.4 113.113Z" fill="#FF64B2"/>
<path fill-rule="evenodd" clip-rule="evenodd" d="M323.157 109.149C322.201 109.059 323.157 110.219 323.14 111.646C323.122 113.071 321.38 118.255 320.515 118.968C319.65 119.679 323.229 119.117 326.9 121.496C330.571 123.876 334.025 127.944 334.581 128.557C335.138 129.169 338.074 123.295 338.354 122.188C338.634 121.08 335.291 116.582 331.205 113.132C327.12 109.682 323.157 109.149 323.157 109.149Z" fill="#FF64B2"/>
<path fill-rule="evenodd" clip-rule="evenodd" d="M291.034 288.646C266.569 264.417 263.556 249.17 268.003 235.152C272.45 221.133 281.154 216.82 279.978 198.981C278.802 181.143 289.622 162.088 305.148 174.674C320.674 187.259 303.501 203.726 301.855 217.369C300.208 231.013 310.088 257.831 318.792 274.768C327.496 291.705 291.034 288.646 291.034 288.646Z" fill="white"/>
<path fill-rule="evenodd" clip-rule="evenodd" d="M289.559 258.721C288.535 256.485 287.744 253.904 287.153 251.086C286.576 246.747 287.375 239.446 295.11 230.187C295.36 229.889 295.32 229.444 295.021 229.194C294.723 228.946 294.278 228.986 294.027 229.284C289.293 234.949 287.064 239.948 286.147 244.056C285.113 231.385 287.437 215.52 292.871 200.915C293.007 200.549 292.822 200.142 292.457 200.006C292.089 199.869 291.684 200.057 291.549 200.421C288.824 207.741 286.887 215.268 285.722 222.552C285.161 214.76 283.317 210.055 283.22 209.816C283.075 209.455 282.669 209.275 282.304 209.423C281.943 209.566 281.767 209.977 281.909 210.339C281.939 210.409 284.677 217.415 284.458 228.319C284.452 228.61 284.625 228.864 284.876 228.977C284.062 237.33 284.372 245.131 285.815 251.672C286.008 252.913 286.294 253.927 286.563 254.659C286.57 254.675 286.586 254.682 286.593 254.697C287.077 256.331 287.625 257.888 288.275 259.308C294.633 273.193 303.204 279.324 303.566 279.579C303.689 279.666 303.831 279.708 303.97 279.708C304.192 279.708 304.412 279.603 304.549 279.409C304.772 279.089 304.696 278.649 304.378 278.424C304.293 278.365 295.747 272.235 289.559 258.721Z" fill="#FFBDD5"/>
<path fill-rule="evenodd" clip-rule="evenodd" d="M301.537 284.905C300.914 257.382 299.268 236.747 314.558 224.6C329.848 212.452 328.767 177.872 344.951 173.638C361.134 169.404 380.894 178.649 368.192 209.077C355.489 239.504 343.962 246.561 347.255 270.32C350.549 294.079 334.788 296.902 322.791 297.608C310.794 298.313 301.537 284.905 301.537 284.905Z" fill="#FF64B2"/>
<path fill-rule="evenodd" clip-rule="evenodd" d="M346.997 205.342C347.097 204.966 346.873 204.579 346.496 204.477C346.126 204.385 345.734 204.602 345.632 204.978C342.124 218.081 338.812 227.995 335.729 235.909C336.071 229.406 333.67 224.136 331.907 220.292C331.341 219.058 330.852 217.991 330.513 217.039C330.383 216.671 329.973 216.473 329.613 216.61C329.245 216.739 329.053 217.143 329.185 217.51C329.544 218.523 330.069 219.668 330.624 220.881C333.105 226.287 336.5 233.69 332.626 243.406C332.623 243.414 332.625 243.422 332.621 243.431C329.944 249.543 327.467 254.317 325.213 258.66C324.177 260.656 323.191 262.563 322.257 264.466C322.249 264.478 322.245 264.49 322.238 264.503C318.829 271.45 316.144 278.368 314.564 289.51C314.509 289.896 314.778 290.253 315.163 290.309C315.198 290.312 315.231 290.315 315.265 290.315C315.611 290.315 315.912 290.06 315.962 289.709C317.509 278.791 320.034 272.196 323.421 265.289C332.396 258.422 340.831 258.19 340.916 258.189C341.305 258.182 341.615 257.861 341.61 257.472C341.603 257.082 341.268 256.827 340.893 256.778C340.559 256.782 333.233 256.981 324.764 262.606C325.313 261.533 325.879 260.441 326.466 259.309C332.061 248.53 339.024 235.111 346.997 205.342Z" fill="white"/>
<path fill-rule="evenodd" clip-rule="evenodd" d="M293.209 275.473C267.247 253.488 244.692 243.716 230.813 259.242C216.934 274.768 207.76 263.241 201.643 273.356C195.528 283.472 203.29 301.585 228.225 294.528C253.161 287.471 276.684 283.236 285.153 297.585C293.622 311.935 293.209 275.473 293.209 275.473Z" fill="#FFBDD5"/>
<path fill-rule="evenodd" clip-rule="evenodd" d="M358.759 302.893C350.742 303.218 342.908 303.853 335.287 304.841C309.712 308.172 283.755 308.454 257.404 307.057C257.404 306.789 257.447 306.52 257.503 306.238C260.51 292.435 276.656 299.308 277.221 299.548C276.967 299.237 273.495 294.848 272.605 288.948C272.196 286.379 272.281 283.514 273.353 280.578C273.509 280.155 273.692 279.717 273.89 279.28C274.737 277.445 275.993 275.582 277.771 273.761C279.507 271.969 281.752 270.219 284.603 268.539C285.224 268.186 285.873 267.819 286.55 267.466C288.273 266.563 289.909 265.871 291.448 265.363C291.928 265.194 292.394 265.053 292.845 264.926C296.007 264.064 298.774 263.98 301.173 264.46C310.685 266.323 314.638 276.866 315.978 281.764C316.388 283.302 316.557 284.276 316.557 284.276C316.713 283.952 316.882 283.641 317.079 283.317C317.842 282.075 318.886 280.847 320.114 279.746C325.435 274.905 334.271 272.039 339.337 276.782C345.872 282.893 338.223 290.811 338.223 290.811C339.69 289.738 341.991 288.934 344.546 288.568C350.953 287.692 358.999 289.682 359.902 297.614C360.113 299.534 359.719 301.284 358.759 302.893Z" fill="#7F2489"/>
<path fill-rule="evenodd" clip-rule="evenodd" d="M288.774 285.415C279.736 280.903 270.982 277.91 262.421 276.402C262.376 276.379 262.335 276.35 262.283 276.337C251.896 273.808 248.19 269.534 245.575 263.458C245.421 263.1 245.004 262.932 244.649 263.089C244.29 263.241 244.125 263.658 244.28 264.015C246.405 268.956 249.208 272.774 255.281 275.492C248.261 274.933 241.36 275.41 234.525 276.904C234.425 276.904 234.328 276.924 234.232 276.969C232.472 277.361 230.714 277.798 228.962 278.326C212.923 283.159 210.787 278.784 210.775 278.76C210.641 278.395 210.237 278.203 209.871 278.338C209.504 278.472 209.315 278.876 209.449 279.243C209.664 279.838 212.056 284.898 229.37 279.677C229.792 279.549 230.216 279.447 230.64 279.328C228.029 281.136 225.734 282.891 223.792 284.387C220.454 286.956 217.816 288.986 216.261 289.109C215.871 289.139 215.581 289.478 215.613 289.867C215.641 290.237 215.95 290.517 216.314 290.517C216.334 290.517 216.352 290.517 216.371 290.514C218.346 290.361 220.855 288.429 224.653 285.504C227.363 283.418 230.735 280.828 234.74 278.302C251.816 274.55 269.345 277.292 288.142 286.678C288.244 286.728 288.353 286.752 288.459 286.752C288.717 286.752 288.965 286.609 289.089 286.362C289.263 286.013 289.123 285.588 288.774 285.415Z" fill="#7F2489"/>

</svg>
