<svg width="380" height="403" viewBox="0 0 380 403" fill="none" xmlns="http://www.w3.org/2000/svg">
<path d="M289.4 37.4001C264.9 8.50005 226.4 -0.49995 189.9 0.90005C154.3 2.30005 109 10.3001 83.3 37.1001C75.6 45.2001 69.7 54.9 64.7 64.9C44.9 103.9 33.4 151.4 37.1 195.4C41.3 245.8 68.6 275.7 116.6 288.3C151 297.3 188.2 296.9 223.5 296.1C247.9 295.6 272 293.5 296 288.9C306.7 286.9 317.5 284.8 327.6 280.6C367.3 263.9 382.8 215.3 376.7 175.8C372.2 146.9 359.1 119.2 338.9 98.0001C330.8 89.5001 321.7 82 314.2 72.9C305.1 61.7 298.7 48.5001 289.4 37.4001Z" fill="#E8EBEE"/>
<path d="M289.7 37C268.2 11.7 235.1 1.30005 202.8 0.300047C187.1 -0.199953 171.3 1.20005 155.8 3.80005C140.1 6.40005 124.6 10.6 110.2 17.5C95.4 24.6 82.7 34.9 73.5 48.6C68.3 56.4 64 64.8 60 73.3C56.1 81.6001 52.7 90.2 49.7 98.8C43.5 116.8 39.2 135.4 37.1 154.3C35.2 171.8 35 189.7 37.8 207.1C40 220.5 44.4 233.6 51.5 245.2C58.1 255.9 67 264.9 77.3 271.9C88.9 279.8 102.2 285.1 115.7 288.7C134.9 293.8 154.7 295.9 174.5 296.6C194.7 297.4 215 297.1 235.2 296.3C256.2 295.4 277.1 293.1 297.8 289.1C307.7 287.2 317.6 285.2 327 281.4C333.4 278.7 339.5 275.2 344.9 270.8C355.9 262 364.1 250.1 369.6 237.1C375.1 224 378 209.8 378.3 195.6C378.7 179.5 375.5 163.5 370.1 148.4C364.2 131.9 355.4 116.4 344 103C337.7 95.6 330.5 89.2 323.6 82.4C316.5 75.4 310.5 67.7 305 59.3C300.3 51.8 295.6 44 289.7 37C289.2 36.5 288.5 37.2 288.9 37.8C295.1 45.2 300 53.4 305.3 61.4C310.5 69.3 316.3 76.5 323.1 83.2C329.7 89.7 336.6 95.9 342.7 102.9C348.6 109.7 353.8 117 358.2 124.8C374 152.3 381.5 185.2 374.9 216.5C369.1 244.6 352.1 270.8 324.4 281.2C315.2 284.7 305.4 286.5 295.7 288.4C285.5 290.3 275.3 291.8 265 293C244.9 295.2 224.7 295.7 204.5 295.9C184.7 296.1 164.8 295.7 145.2 293.2C128.2 291 111.1 287.4 95.4 280.5C83.6 275.3 72.6 268.2 63.6 258.9C54.7 249.7 48.1 238.6 43.9 226.5C38.8 212 37 196.7 36.8 181.4C36.6 162.8 38.8 144.2 43 126C47.1 107.9 53.2 90.3 61 73.4C68.5 57.3 77.3 41.5 91.4 30.3C103.6 20.5 118.3 14.2 133.2 9.90004C148.4 5.50004 164.2 3.10004 180 2.00004C211.5 -0.299956 244.8 3.30005 271.4 21.8C277.9 26.3 283.8 31.7 289 37.8C289.4 38.4 290.2 37.6 289.7 37Z" fill="#E8EBEE"/>
<path d="M110 156.7C105.6 158.6 63.2 182 62.7 181.6C31.8 156.1 28.1 154.9 1.20001 125.2C9.70001 118.5 18.3 111.9 26.8 105.2C47.3 126.9 41.9 122.3 64.2 142.7C66.8 145.1 95.7 130.2 99.6 128.5C111.8 123 123.9 117.1 135.9 111.2C158.8 99.9002 227.8 71.4002 243.1 62.2002C243.3 62.1002 243.5 61.9002 243.6 61.7002C243.8 61.4002 243.7 60.9002 243.5 60.6002C241.6 55.3002 239.8 50.0002 237.9 44.7002C241.3 45.5002 284.2 56.7002 283.5 58.7002C281.5 64.1002 279.5 69.6002 277.5 75.0002C273.8 85.0002 270.1 95.1002 266.2 105.1C261.9 100.5 258.5 95.1002 256.1 89.3002C251.5 89.3002 245.8 93.2002 241.5 94.7002C236.4 96.5002 231.1 98.2002 226.2 100.4C215.2 105.5 126.9 149.2 110 156.7Z" fill="#CED4DA"/>
<path d="M109.7 156.2C104.2 158.7 98.9 161.8 93.6 164.7C85.9 168.8 78.2 173 70.5 177.1C68.2 178.3 65.9 179.6 63.5 180.7C63.3 180.8 62.9 181 62.8 181C62.7 181 62.7 181.1 62.6 181.1C62.8 181.1 61.3 179.8 61.1 179.6C58.4 177.3 55.6 175.1 52.8 172.8C44.8 166.3 36.7 159.9 29.1 153C19.3 144.2 10.4 134.5 1.60001 124.7C1.60001 125 1.60001 125.2 1.60001 125.5C10.1 118.8 18.7 112.2 27.2 105.5C26.9 105.5 26.7 105.5 26.4 105.5C32.5 111.9 38.4 118.6 44.6 124.9C46.9 127.2 49.2 129.5 51.6 131.7C53.4 133.4 55.1 135 56.9 136.6C58 137.6 59 138.6 60.1 139.5C61.3 140.6 62.5 142 63.9 143C65.4 144 68.1 142.9 69.6 142.4C73 141.3 76.4 139.8 79.7 138.4C86.2 135.5 92.6 132.3 99 129.2C104.4 126.6 110 124.2 115.4 121.6C122.4 118.3 129.3 114.9 136.2 111.5C142.6 108.3 149.2 105.4 155.7 102.5C173.6 94.5001 191.5 86.8001 209.4 78.8001C217.1 75.4001 224.7 71.9001 232.3 68.3001C235 67.0001 237.8 65.6001 240.4 64.2001C241.4 63.7001 242.4 63.2001 243.3 62.6001C244.1 62.1001 244.4 61.6001 244.2 60.7001C243.9 58.9001 242.9 57.0001 242.3 55.3001C241 51.7001 239.7 48.1001 238.5 44.5001C238.3 44.7001 238.1 44.9001 237.8 45.2001C246.6 47.2001 255.3 49.8001 264 52.3001C269 53.7001 274 55.2001 278.9 56.9001C280.2 57.4001 281.6 57.9001 282.8 58.6001C282.9 58.7001 283 58.7001 283.1 58.8001C283.2 58.9001 283.1 58.7001 283.1 58.6001C283.1 58.6001 282.7 59.7001 282.5 60.1001C281.5 62.9001 280.4 65.7001 279.4 68.5001C274.9 80.6001 270.5 92.8001 265.8 104.9C266.1 104.8 266.4 104.7 266.7 104.7C262.5 100.1 259.1 94.9001 256.8 89.2001C256.7 89.0001 256.5 88.8001 256.3 88.8001C252.3 88.9001 248.6 91.0001 245.1 92.7001C240.7 94.8001 236.1 96.1001 231.5 97.8001C228 99.1001 224.7 100.7 221.4 102.3C213.6 106.1 205.8 109.9 198 113.7C187.1 119 176.3 124.3 165.4 129.6C154.7 134.8 144.1 140 133.4 145.2C126.1 148.7 118.7 152.3 111.3 155.7C110.7 155.7 110.2 156 109.7 156.2C109.1 156.5 109.6 157.4 110.2 157.1C116.9 154.1 123.5 150.9 130.1 147.7C140.5 142.7 150.9 137.6 161.3 132.6C172.3 127.3 183.2 121.9 194.1 116.6C202.5 112.5 210.9 108.4 219.3 104.3C221.5 103.2 223.8 102.1 226.1 101.1C230 99.3001 234.1 97.9001 238.2 96.4001C240.2 95.7001 242.3 95.0001 244.2 94.1001C246.1 93.2001 247.9 92.3001 249.8 91.4001C251.8 90.5001 253.9 89.8001 256.1 89.7001C255.9 89.6001 255.8 89.4001 255.6 89.3001C258.1 95.2001 261.5 100.6 265.8 105.3C266.1 105.6 266.6 105.4 266.7 105.1C271 94.0001 275.1 82.8001 279.2 71.6001C280.3 68.7001 281.3 65.8001 282.4 62.9001C282.9 61.6001 283.5 60.3001 283.9 59.0001C284 58.7001 284.1 58.5001 283.9 58.2001C283.5 57.4001 282.1 57.0001 281.4 56.7001C276.9 54.8001 272.2 53.5001 267.6 52.2001C261.8 50.5001 255.9 48.8001 250 47.3001C246 46.2001 242 45.1001 238 44.2001C237.6 44.1001 237.2 44.5001 237.3 44.9001C238.6 48.6001 239.9 52.3001 241.2 56.0001C241.5 56.8001 241.8 57.6001 242 58.4001C242.3 59.3001 243 60.4001 242.7 61.3001C242.5 62.0001 241.9 62.2001 241.3 62.5001C239 63.8001 236.6 65.0001 234.2 66.2001C227.3 69.6001 220.2 72.8001 213.1 76.0001C195.6 83.9001 177.9 91.5001 160.4 99.3001C153.3 102.5 146.2 105.6 139.1 109C127.7 114.4 116.5 120.1 105 125.4C98.5 128.4 92 131.6 85.5 134.6C81.8 136.3 78.1 138 74.3 139.6C71.6 140.7 68.7 142 65.8 142.4C64.4 142.6 64.2 142.3 63.1 141.3C60.8 139.2 58.5 137.1 56.2 135C53.3 132.4 50.5 129.7 47.7 127C42.7 122.1 38 116.9 33.3 111.8C31.2 109.5 29.1 107.3 26.9 105C26.7 104.8 26.4 104.8 26.1 105C17.6 111.7 9.00001 118.3 0.500006 125C0.300006 125.2 0.300006 125.6 0.500006 125.8C8.70001 134.8 16.9 143.8 25.9 152.1C33.4 159 41.3 165.3 49.2 171.7C51.9 173.9 54.6 176.1 57.3 178.3C58.7 179.5 60.1 180.6 61.6 181.8C62 182.2 62.2 182.3 62.7 182.2C63.3 182.1 64 181.6 64.5 181.4C65.6 180.8 66.8 180.2 67.9 179.7C75.4 175.8 82.8 171.7 90.3 167.7C94.5 165.4 98.7 163.2 102.9 160.9C105.2 159.7 107.5 158.3 109.9 157.3C110.9 156.9 110.3 155.9 109.7 156.2Z" fill="#CED4DA"/>
<path d="M378.2 81.4001C378.2 147.9 377.6 241.2 378.2 295.1C366.8 295.1 344.5 296.6 329.5 296.6C327.8 243 328 147.9 328 81.4001H378.2Z" fill="#CED4DA"/>
<path d="M377.7 81.4C377.7 95.2 377.7 109.1 377.6 122.9C377.6 137.8 377.5 152.7 377.5 167.6C377.5 182.6 377.4 197.5 377.4 212.5C377.4 226.6 377.4 240.6 377.4 254.7C377.4 266.9 377.5 279 377.6 291.2C377.6 292.5 377.6 293.9 377.6 295.2C377.8 295 378 294.8 378.1 294.7C365.5 294.7 352.9 295.6 340.3 296C336.7 296.1 333 296.2 329.4 296.2C329.6 296.4 329.8 296.6 329.9 296.7C329.5 284.8 329.3 272.9 329.1 261C328.9 247 328.7 233 328.7 219C328.6 204 328.5 189 328.5 173.9C328.5 158.8 328.5 143.7 328.5 128.6C328.5 114.5 328.5 100.4 328.5 86.3C328.5 84.7 328.5 83.1 328.5 81.4C328.3 81.6 328.1 81.8 328 81.9C333.7 81.9 339.3 81.9 345 81.9C354 81.9 363 81.9 372 81.9C374.1 81.9 376.1 81.9 378.2 81.9C378.9 81.9 378.9 80.8 378.2 80.8C372.5 80.8 366.9 80.8 361.2 80.8C352.2 80.8 343.2 80.8 334.2 80.8C332.1 80.8 330.1 80.8 328 80.8C327.7 80.8 327.5 81 327.5 81.3C327.5 95.2 327.5 109.1 327.5 123C327.5 138 327.5 153.1 327.5 168.1C327.5 183.2 327.6 198.3 327.7 213.3C327.8 227.5 327.9 241.7 328.1 255.9C328.3 268.1 328.5 280.3 328.8 292.5C328.8 293.8 328.9 295.1 328.9 296.5C328.9 296.8 329.1 297 329.4 297C342.6 297 355.9 296.1 369.1 295.7C372.1 295.6 375.1 295.5 378.1 295.5C378.4 295.5 378.6 295.3 378.6 295C378.5 283.2 378.4 271.3 378.4 259.5C378.4 245.6 378.4 231.8 378.4 217.9C378.4 203 378.4 188.1 378.5 173.2C378.5 158.2 378.6 143.3 378.6 128.3C378.6 114.3 378.7 100.3 378.7 86.2001C378.7 84.5001 378.7 82.9 378.7 81.2C378.7 80.7 377.7 80.7 377.7 81.4Z" fill="#CED4DA"/>
<path d="M236.5 141.8C236.5 209.5 235.9 240.2 236.5 295C225.1 295 202.8 296.5 187.8 296.5C186.1 241.9 186.3 209.5 186.3 141.8H236.5Z" fill="#CED4DA"/>
<path d="M236 141.8C236 153.8 236 165.8 235.9 177.7C235.9 187.7 235.8 197.7 235.8 207.8C235.8 216.9 235.7 225.9 235.7 235C235.7 243.9 235.7 252.9 235.7 261.8C235.7 271.6 235.8 281.3 235.9 291.1C235.9 292.4 235.9 293.7 235.9 295.1C236.1 294.9 236.3 294.7 236.4 294.6C223.7 294.6 211.1 295.5 198.5 295.9C194.9 296 191.3 296.1 187.7 296.1C187.9 296.3 188.1 296.5 188.2 296.6C187.9 286.6 187.6 276.6 187.4 266.7C187.2 257.6 187.1 248.5 187 239.4C186.9 230.2 186.8 221.1 186.8 211.9C186.8 201.9 186.8 191.9 186.8 181.9C186.8 170.2 186.8 158.5 186.8 146.8C186.8 145.2 186.8 143.5 186.8 141.9C186.6 142.1 186.4 142.3 186.3 142.4C192 142.4 197.6 142.4 203.3 142.4C212.3 142.4 221.3 142.4 230.3 142.4C232.4 142.4 234.4 142.4 236.5 142.4C237.2 142.4 237.2 141.3 236.5 141.3C230.8 141.3 225.2 141.3 219.5 141.3C210.5 141.3 201.5 141.3 192.5 141.3C190.4 141.3 188.4 141.3 186.3 141.3C186 141.3 185.8 141.5 185.8 141.8C185.8 153.8 185.8 165.9 185.8 177.9C185.8 188.1 185.8 198.2 185.8 208.4C185.8 217.6 185.9 226.8 186 236.1C186.1 245.2 186.2 254.2 186.4 263.3C186.6 273.1 186.8 282.9 187.1 292.7C187.1 294 187.2 295.3 187.2 296.7C187.2 297 187.4 297.2 187.7 297.2C201 297.2 214.3 296.3 227.5 295.9C230.5 295.8 233.4 295.7 236.4 295.7C236.7 295.7 236.9 295.5 236.9 295.2C236.8 285.2 236.7 275.3 236.7 265.3C236.7 256.3 236.7 247.3 236.7 238.3C236.7 229.3 236.7 220.3 236.8 211.3C236.8 201.4 236.9 191.6 236.9 181.7C236.9 170.1 237 158.4 237 146.8C237 145.2 237 143.5 237 141.9C237.1 141.1 236 141.1 236 141.8Z" fill="#CED4DA"/>
<path d="M307.4 109.4C307.4 156.8 306.8 257 307.4 295.5C296 295.5 273.7 296.6 258.7 296.6C257 258.3 257.2 156.9 257.2 109.5H307.4V109.4Z" fill="#CED4DA"/>
<path d="M306.8 109.4C306.8 120.4 306.8 131.4 306.7 142.4C306.7 155.7 306.6 169 306.6 182.3C306.6 196.2 306.5 210.1 306.5 224.1C306.5 236.9 306.5 249.8 306.5 262.6C306.5 272.6 306.6 282.7 306.7 292.7C306.7 293.6 306.7 294.6 306.7 295.5C306.9 295.3 307.1 295.1 307.2 295C294.6 295 282 295.7 269.4 295.9C265.8 296 262.1 296 258.5 296C258.7 296.2 258.9 296.4 259 296.5C258.6 286.9 258.4 277.3 258.2 267.7C258 255 257.8 242.4 257.8 229.7C257.7 215.7 257.6 201.7 257.6 187.7C257.6 174.1 257.6 160.5 257.6 147C257.6 135.6 257.6 124.2 257.6 112.9C257.6 111.7 257.6 110.6 257.6 109.4C257.4 109.6 257.2 109.8 257.1 109.9C262.8 109.9 268.4 109.9 274.1 109.9C283.1 109.9 292.1 109.9 301.1 109.9C303.2 109.9 305.2 109.9 307.3 109.9C308 109.9 308 108.8 307.3 108.8C301.6 108.8 296 108.8 290.3 108.8C281.3 108.8 272.3 108.8 263.3 108.8C261.2 108.8 259.2 108.8 257.1 108.8C256.8 108.8 256.6 109 256.6 109.3C256.6 120.3 256.6 131.4 256.6 142.4C256.6 155.8 256.6 169.2 256.6 182.6C256.6 196.6 256.7 210.7 256.8 224.7C256.9 237.6 257 250.5 257.2 263.5C257.4 273.5 257.6 283.6 257.9 293.6C257.9 294.6 258 295.5 258 296.5C258 296.8 258.2 297 258.5 297C271.7 297 285 296.4 298.2 296.1C301.2 296 304.2 296 307.2 296C307.5 296 307.7 295.8 307.7 295.5C307.6 285.9 307.5 276.4 307.5 266.8C307.5 254.2 307.5 241.6 307.5 229.1C307.5 215.2 307.5 201.3 307.6 187.5C307.6 174 307.7 160.6 307.7 147.1C307.7 135.7 307.8 124.4 307.8 113C307.8 111.9 307.8 110.7 307.8 109.6C307.9 108.7 306.8 108.7 306.8 109.4Z" fill="#CED4DA"/>
<path d="M165.7 174.8C165.7 245 165.1 238.1 165.7 295C154.3 295 132 296.6 117 296.6C115.3 239.9 115.5 245.1 115.5 174.9H165.7V174.8Z" fill="#CED4DA"/>
<path d="M165.2 174.8C165.2 185.9 165.2 197.1 165.1 208.2C165.1 215.5 165 222.8 165 230.1C165 235.7 164.9 241.4 164.9 247C164.9 253.1 164.9 259.1 164.9 265.2C164.9 273.7 165 282.3 165.1 290.8C165.1 292.2 165.1 293.5 165.1 294.9C165.3 294.7 165.5 294.5 165.6 294.4C159.8 294.4 154.1 294.7 148.3 294.9C141.4 295.2 134.6 295.5 127.7 295.7C124.1 295.8 120.4 295.9 116.8 295.9C117 296.1 117.2 296.3 117.3 296.4C117 287.3 116.8 278.3 116.5 269.2C116.3 262.8 116.2 256.5 116.1 250.1C116 244.4 115.9 238.6 115.9 232.9C115.9 225.7 115.9 218.6 115.9 211.4C115.9 200.8 115.9 190.3 115.9 179.7C115.9 178 115.9 176.3 115.9 174.7C115.7 174.9 115.5 175.1 115.4 175.2C117.1 175.2 118.7 175.2 120.4 175.2C124.4 175.2 128.4 175.2 132.4 175.2C137.2 175.2 142.1 175.2 146.9 175.2C151.1 175.2 155.2 175.2 159.4 175.2C160.8 175.2 162.2 175.2 163.6 175.2C164.2 175.2 164.9 175.2 165.6 175.2H165.7C166.4 175.2 166.4 174.1 165.7 174.1C164 174.1 162.4 174.1 160.7 174.1C156.7 174.1 152.7 174.1 148.7 174.1C143.9 174.1 139 174.1 134.2 174.1C130 174.1 125.9 174.1 121.7 174.1C120.3 174.1 118.9 174.1 117.5 174.1C116.9 174.1 116.2 174.1 115.5 174.1H115.4C115.1 174.1 114.9 174.3 114.9 174.6C114.9 185.8 114.9 197 114.9 208.2C114.9 215.6 114.9 223.1 114.9 230.5C114.9 236.3 115 242.1 115.1 247.9C115.2 254.1 115.3 260.3 115.5 266.5C115.7 275.1 116 283.7 116.2 292.2C116.2 293.6 116.3 294.9 116.3 296.3C116.3 296.6 116.5 296.8 116.8 296.8C130.1 296.8 143.3 295.9 156.6 295.4C159.6 295.3 162.6 295.2 165.6 295.2C165.9 295.2 166.1 295 166.1 294.7C166 285.7 165.9 276.6 165.9 267.6C165.9 261.4 165.9 255.1 165.9 248.9C165.9 243.3 165.9 237.7 166 232.1C166 225.1 166.1 218.1 166.1 211.1C166.1 200.6 166.2 190.1 166.2 179.6C166.2 177.9 166.2 176.3 166.2 174.6C166.3 174.1 165.2 174.1 165.2 174.8Z" fill="#CED4DA"/>
<path d="M94.9 205.2C94.9 343.9 94.3 181.1 94.9 293.4C83.5 293.4 61.2 296.5 46.2 296.5C44.5 184.6 44.7 343.9 44.7 205.2H94.9Z" fill="#CED4DA"/>
<path d="M94.4 205.2C94.4 213.3 94.4 221.4 94.4 229.5C94.4 235.2 94.4 240.9 94.4 246.5C94.4 250.1 94.4 253.7 94.4 257.3C94.4 259.2 94.4 261.1 94.4 263C94.4 263.4 94.4 263.9 94.4 264.3C94.4 264.4 94.4 264.5 94.4 264.6V264.7C94.4 264.7 94.3 264.6 94.4 264.6C94.4 264.6 93.9 265 94.4 264.5C94.4 264.5 95.3 264.3 95.4 264.4C99.3 268.2 95.4 264.5 95.5 264.5C95.6 264.5 95.5 264.7 95.5 264.5C95.5 264.4 95.5 264.3 95.5 264.2C95.5 263.9 95.5 263.5 95.5 263.2C95.5 262.1 95.5 261.1 95.5 260C95.5 258.7 95.5 257.5 95.5 256.2C95.5 255.1 95.5 253.9 95.5 252.8C95.5 252.2 95.6 251.5 95.5 250.9C95.5 250.7 95.6 250.9 95.4 251.1C95.1 251.1 94.8 251.1 94.5 251.1C94.3 250.9 94.4 250.8 94.4 251.1C94.4 251.4 94.4 251.7 94.4 252C94.4 253.3 94.4 254.6 94.4 255.9C94.4 258.4 94.4 260.8 94.4 263.3C94.4 267.1 94.4 270.9 94.5 274.7C94.5 280.1 94.6 285.5 94.6 290.8C94.6 291.6 94.6 292.4 94.6 293.2C94.8 293 95 292.8 95.1 292.7C89.3 292.7 83.5 293.3 77.8 293.8C70.9 294.4 64.1 295 57.2 295.5C53.6 295.7 50 295.9 46.4 295.9C46.6 296.1 46.8 296.3 46.9 296.4C46.8 290.3 46.7 284.2 46.6 278.1C46.5 273.9 46.4 269.7 46.3 265.5C46.2 263 46.2 260.4 46.1 257.9C46.1 256.7 46 255.4 45.9 254.2C45.9 254 45.9 253.7 45.8 253.4C45.6 252.8 44.9 252.8 44.7 253.4C44.5 253.9 44.6 254.5 44.6 255C44.6 255.9 44.5 256.9 44.5 257.8C44.5 258.9 44.5 260 44.4 261.1C44.4 262.1 44.4 263 44.4 264C44.4 264.5 44.3 265.1 44.4 265.6C44.4 265.8 44.4 265.5 44.5 265.4C44.6 265.3 44.7 265.2 44.8 265.2C44.9 265.2 45.1 265.2 45.2 265.3C45.4 265.5 45.4 265.9 45.5 265.7C45.5 265.6 45.5 265.5 45.5 265.4C45.5 265 45.5 264.6 45.5 264.2C45.5 262.4 45.5 260.6 45.5 258.7C45.5 255.2 45.5 251.8 45.5 248.3C45.5 242.9 45.5 237.4 45.5 232C45.5 224.2 45.5 216.5 45.5 208.7C45.5 207.5 45.5 206.4 45.5 205.2C45.3 205.4 45.1 205.6 45 205.7C46.7 205.7 48.3 205.7 50 205.7C54 205.7 58 205.7 62 205.7C66.8 205.7 71.7 205.7 76.5 205.7C80.7 205.7 84.8 205.7 89 205.7C90.4 205.7 91.8 205.7 93.2 205.7C93.8 205.7 94.5 205.7 95.2 205.7H95.3C96 205.7 96 204.6 95.3 204.6C93.6 204.6 92 204.6 90.3 204.6C86.3 204.6 82.3 204.6 78.3 204.6C73.5 204.6 68.6 204.6 63.8 204.6C59.6 204.6 55.5 204.6 51.3 204.6C49.9 204.6 48.5 204.6 47.1 204.6C46.5 204.6 45.8 204.6 45.1 204.6H45C44.7 204.6 44.5 204.8 44.5 205.1C44.5 216 44.5 226.9 44.5 237.8C44.5 244.1 44.5 250.3 44.5 256.6C44.5 259.3 44.5 262 44.5 264.7C44.5 265 44.5 265.4 44.5 265.7C44.6 266.4 45.5 266.4 45.6 265.7C45.6 265.6 45.6 265.5 45.6 265.4C45.6 264.2 45.6 263 45.7 261.8C45.7 260.2 45.8 258.5 45.8 256.9C45.8 256.2 45.8 255.6 45.9 254.9C45.9 254.7 45.9 254.4 45.9 254.2C45.9 254.1 45.9 254 45.9 253.9V253.8C45.9 254.2 45.9 253.9 45.9 253.9C45.9 253.9 45.9 253.9 45.9 253.8C46 253.7 45.8 253.9 45.9 253.9C45.5 254.2 45.2 254.1 44.9 253.8V253.9C44.8 254.1 44.9 253.8 44.9 254C45 254.7 45 255.3 45 256C45.2 259.6 45.2 263.2 45.3 266.7C45.5 274.1 45.6 281.5 45.7 288.9C45.7 291.4 45.8 293.9 45.8 296.5C45.8 296.8 46 297 46.3 297C59.6 297 72.9 295.2 86.1 294.3C89.1 294.1 92 293.9 95 293.9C95.3 293.9 95.5 293.7 95.5 293.4C95.5 287.8 95.4 282.2 95.4 276.6C95.4 272.6 95.4 268.6 95.3 264.6C95.3 262 95.3 259.4 95.3 256.8C95.3 255.4 95.3 253.9 95.3 252.5C95.3 252 95.3 251.5 95.3 251.1C95.3 251 95.3 250.9 95.2 250.8C94.9 250.5 94.5 250.5 94.3 250.8C94.1 251.1 94.2 252 94.2 252.4C94.2 253.5 94.2 254.5 94.2 255.6C94.2 256.9 94.2 258.2 94.2 259.5C94.2 260.7 94.2 261.8 94.2 263C94.2 263.6 94.2 264.2 94.2 264.9C94.3 265.6 95.2 265.7 95.3 264.9C95.3 264.7 95.3 264.4 95.3 264.2C95.3 262.7 95.3 261.3 95.3 259.8C95.3 256.7 95.3 253.6 95.3 250.5C95.3 245.3 95.3 240.2 95.3 235C95.3 227.4 95.3 219.8 95.3 212.2C95.3 209.9 95.3 207.7 95.3 205.4C95.4 204.5 94.4 204.5 94.4 205.2Z" fill="#CED4DA"/>
<path d="M252.7 12.1002C249.8 14.9002 247 18.0002 245.2 21.6002C236.5 39.1002 242.7 62.3002 261.7 69.3002C273 73.4002 285.9 71.4002 296.6 66.0002C309.4 59.6002 314.2 41.6002 310.9 28.4002C308.1 17.1002 299.2 6.70019 288.4 2.50019C276 -2.19981 262 3.4002 252.7 12.1002Z" fill="#3F4098"/>
<path d="M252.3 11.8001C249.1 14.8001 246.3 18.1001 244.4 22.1001C243 25.1001 242 28.2001 241.4 31.4001C240.2 37.8001 240.7 44.4001 242.8 50.5001C244.9 56.5001 248.6 61.8001 253.7 65.7001C260 70.4001 267.9 72.3001 275.7 72.1001C280.1 72.0001 284.5 71.2001 288.7 69.9001C292.5 68.7001 296.4 67.2001 299.7 65.0001C305.2 61.2001 308.9 55.2001 310.8 48.8001C312.7 42.4001 313.2 35.5001 311.7 28.9001C310 21.4001 305.8 14.5001 300.2 9.40012C294.5 4.10012 287.1 0.400131 279.2 0.300131C271.1 0.200131 263.3 3.40013 256.8 8.10013C255.2 9.20013 253.7 10.4001 252.3 11.8001C251.8 12.3001 252.6 13.0001 253.1 12.6001C258.8 7.30013 265.9 3.30012 273.6 1.90012C277.4 1.20012 281.4 1.30012 285.2 2.20012C288.9 3.10012 292.3 4.80013 295.4 7.00013C301.6 11.3001 306.5 17.5001 309.2 24.5001C311.6 30.7001 312 37.5001 310.9 44.0001C309.8 50.3001 307.1 56.6001 302.6 61.2001C300.2 63.7001 297.3 65.4001 294.2 66.8001C290.3 68.5001 286.1 69.8001 281.9 70.5001C274 71.8001 265.4 71.1001 258.3 67.3001C252.8 64.4001 248.4 59.8001 245.7 54.2001C242.9 48.7001 241.8 42.4001 242.1 36.3001C242.5 29.5001 244.7 22.6001 249 17.3001C250.3 15.7001 251.7 14.2001 253.2 12.8001C253.6 12.0001 252.8 11.3001 252.3 11.8001Z" fill="#3F4098"/>
<path d="M273.1 54.2001C283.6 47.3001 290.5 37.7001 299.6 29.7001C299.8 29.5001 300 29.3001 300.1 29.0001C300.1 28.7001 299.9 28.4001 299.7 28.1001C297.5 25.7001 295.4 23.3001 293.2 20.9001C293.1 20.8001 276.3 38.0001 274.2 39.8001C274 40.0001 273.8 40.1001 273.6 40.1001C273.4 40.1001 273.2 40.0001 273 39.8001C268.8 36.6001 265.2 32.6001 262.6 28.1001C259.8 31.0001 256.7 33.7001 254.2 36.8001C255.3 38.9001 270.9 55.6001 273.1 54.2001Z" fill="white"/>
<path d="M273.3 54.7C280.2 50.1 285.9 44.1 291.6 38.2C293 36.7 294.5 35.3 295.9 33.8C296.6 33.1 297.4 32.4 298.1 31.7C298.8 31.1 299.7 30.5 300.3 29.7C300.9 28.9 300.4 28.2 299.9 27.6C299.1 26.7 298.3 25.8 297.5 24.9C296.7 24 295.9 23.1 295.1 22.2C294.7 21.8 294.3 21.3 293.9 20.9C293.7 20.6 293.4 20.3 293 20.4C292.7 20.5 292.5 20.8 292.3 21C291.9 21.4 291.4 21.9 291 22.3C289.5 23.8 288.1 25.2 286.6 26.7C283.2 30.1 279.8 33.5 276.4 36.9C275.8 37.5 275.3 38 274.7 38.6C274.5 38.8 274.3 39 274.1 39.2C273.8 39.4 273.6 39.7 273.3 39.5C272.4 39 271.6 38.2 270.8 37.5C270 36.8 269.3 36.1 268.6 35.4C267.1 33.9 265.8 32.3 264.6 30.6C264 29.8 263.5 28.9 262.9 28C262.7 27.7 262.3 27.6 262 27.9C259.2 30.8 256.1 33.4 253.6 36.6C253.5 36.8 253.4 37 253.5 37.3C254.1 38.3 255 39.2 255.7 40.1C257.1 41.7 258.5 43.2 260 44.8C263 48 266.2 51.2 269.8 53.8C270.7 54.1 272.3 55.3 273.3 54.7C273.9 54.3 273.4 53.4 272.8 53.8H272.7C272.5 53.8 272.3 53.7 272.1 53.6C271.5 53.3 271 53 270.5 52.6C268.9 51.5 267.5 50.2 266.1 48.9C262.9 45.9 259.9 42.8 257 39.6C256.1 38.6 255.2 37.7 254.5 36.6C254.5 36.8 254.4 37 254.4 37.3C256.9 34.1 259.9 31.5 262.8 28.6C262.5 28.6 262.2 28.5 261.9 28.5C264 31.9 266.5 35.1 269.5 37.8C270.2 38.5 271 39.1 271.8 39.7C272.4 40.2 273.2 41 274.1 40.6C274.6 40.4 275.1 39.9 275.5 39.5C278.6 36.6 281.5 33.6 284.5 30.6C287.3 27.7 290.1 24.9 293 22C293.1 21.9 293.3 21.7 293.4 21.6L293.5 21.5C293.6 21.4 293.6 21.5 293.5 21.5C293.5 21.5 296.3 20 293.3 21.6C292.9 21.8 293.1 21.6 293.2 21.9C293.3 22.1 293.6 22.3 293.7 22.5C294.1 23 294.5 23.4 295 23.9C295.8 24.8 296.6 25.6 297.4 26.5C297.8 26.9 298.2 27.4 298.6 27.8C298.9 28.2 299.8 28.8 299.6 29.3C299.4 29.6 298.8 30 298.5 30.2C298.1 30.5 297.8 30.9 297.4 31.2C295.9 32.6 294.5 34 293.1 35.4C287.4 41.2 282 47.3 275.5 52.1C274.7 52.7 273.8 53.3 273 53.8C272.2 54.1 272.8 55.1 273.3 54.7Z" fill="white"/>
<path d="M47.3 81.6999C47.5 83.3999 47.8 85.2999 49.1 86.3999C50.1 87.1999 51.5 87.3999 52.9 87.3999C80.8 88.9999 109.7 90.6999 137.3 86.5999C138 86.4999 138.8 86.3999 139.4 85.9999C140.6 85.1999 140.9 83.5999 141.1 82.0999C143.2 65.4999 142.1 47.5999 142.1 30.7999C142.1 28.0999 142 24.9999 140 23.1999C138.3 21.5999 135.6 21.4999 133.3 21.4999C106.5 21.3999 80.2 19.9999 53.6 22.5999C52.4 22.6999 51.2 22.7999 50.2 23.3999C44.6 26.3999 46.6 43.9999 46.5 49.1999C46.3 60.0999 46.2 70.8999 47.3 81.6999Z" fill="#F1A51E"/>
<path d="M46.7 81.6999C46.9 83.7999 47.3 86.1 49.3 87.2C50.2 87.7 51.3 87.8999 52.4 87.8999C53.8 87.9999 55.2 88.1 56.6 88.1C62.3 88.4 67.9 88.6999 73.6 88.9999C85.1 89.4999 96.5 89.7999 108 89.4999C113.7 89.2999 119.5 88.9999 125.2 88.4999C128 88.1999 130.8 87.9 133.6 87.6C135 87.4 136.3 87.2999 137.7 86.9999C138.8 86.7999 139.7 86.5 140.4 85.6C141 84.7999 141.3 83.6999 141.4 82.6999C141.6 81.4999 141.7 80.1999 141.8 78.9999C142.1 76.1999 142.3 73.4 142.4 70.6C142.7 65 142.7 59.3999 142.7 53.7999C142.7 48.1999 142.5 42.4999 142.5 36.8999C142.5 34.2999 142.5 31.7 142.5 29.1C142.4 27 142.1 24.7999 140.7 23.1999C139.2 21.4999 137 20.9999 134.8 20.8999C132 20.6999 129.2 20.8 126.3 20.8C120.5 20.7 114.6 20.5999 108.8 20.4999C97.1 20.2999 85.5 20.2 73.8 20.6C67.9 20.8 62.1 21.1 56.2 21.6C54.9 21.7 53.5 21.7999 52.2 21.9999C51.2 22.0999 50.1 22.3999 49.2 22.9999C48.2 23.5999 47.6 24.6 47.1 25.6C45.8 28.4 45.5 31.6 45.4 34.6C45.2 37.9 45.3 41.2 45.5 44.6C45.6 48.2 45.6 51.7999 45.5 55.3999C45.4 61.1999 45.5 67 45.8 72.7999C46.3 76 46.5 78.7999 46.7 81.6999C46.8 82.3999 47.9 82.3999 47.8 81.6999C47.3 76.0999 47 70.5 46.9 64.7999C46.8 59.5 47 54.2 47 48.8C47 42.9 46.3 37 47.1 31.1C47.4 28.8 47.9 25.8 49.8 24.3C50.5 23.7 51.4 23.4999 52.3 23.3999C53.7 23.1999 55 23.0999 56.4 22.9999C59.2 22.7999 62 22.5999 64.9 22.3999C76.1 21.6999 87.4 21.5999 98.6 21.6999C109.9 21.7999 121.1 22.1 132.4 22.1C134.6 22.1 137.2 22 139.1 23.3C141 24.6 141.4 27 141.5 29.1C141.6 31.6 141.5 34.1 141.5 36.6C141.5 39.3 141.6 41.9999 141.6 44.6999C141.8 55.4999 142 66.3999 141 77.1999C140.9 78.4999 140.8 79.8 140.6 81.1C140.5 82.2 140.4 83.2999 140 84.2999C139.5 85.4999 138.5 85.9 137.3 86.1C135.9 86.2999 134.5 86.5 133.1 86.7C127.7 87.4 122.2 87.8 116.8 88.2C105.7 88.8 94.7 88.7999 83.6 88.4999C78.1 88.2999 72.5 88.0999 67 87.7999C64.3 87.6999 61.5 87.4999 58.8 87.2999C57.5 87.1999 56.1 87.1 54.8 87.1C53.6 87 52.3 86.9999 51.1 86.7999C50 86.5999 49.1 85.9999 48.5 84.8999C48 83.8999 47.9 82.7999 47.8 81.6999C47.8 80.9999 46.7 80.9999 46.7 81.6999Z" fill="#F1A51E"/>
<path d="M71.7 66.4998C71.7 71.5998 67.6 72.4998 63.4 72.4998C56.7 72.4998 56.1 64.6998 55.9 59.6998C55.8 59.2998 56.2 59.3998 56.3 59.2998C57.8 59.3998 60 58.5998 60.7 59.1998C61 61.3998 61.1 67.9998 63.7 67.9998C65.8 67.9998 66.6 65.2998 66.6 63.6998C66.6 53.4998 55.9 61.1998 55.9 46.1998C55.9 40.1998 60.2 38.2998 65.5 38.2998C70.7 38.2998 71.8 41.8998 71.8 46.2998C71.8 47.6998 71.8 49.0998 71.8 50.4998C71.7 50.5998 71.6 50.7998 71.5 50.8998C70.6 51.2998 65.9 50.6998 66.2 49.6998C66.2 47.1998 66.8 42.6998 63.1 42.6998C61.2 42.6998 60.6 44.9998 60.6 46.4998C60.6 56.2998 71.7 47.9998 71.7 66.4998Z" fill="white"/>
<path d="M92.7 38.5999C92.4 44.3999 92.3 50.0998 92.3 55.8998C92.3 61.1998 92.2 62.0998 92.5 67.3998C92.3 67.4998 92.6 70.4999 92.6 72.2999C92.9 73.1999 90.9 72.8998 90.4 72.8998C89.1 72.8998 86.8 73.2998 86.8 71.4998C86.8 68.5998 86.8 65.6999 86.8 62.7999C86.5 62.0998 86.2 61.3998 85.9 60.6998C83.5 56.5998 83.2 53.9998 80.3 50.3998C80.1 54.4998 80 58.5998 80 62.6998C80 65.6998 80.1 65.6999 80.2 68.5999C80.3 68.6999 80.3 71.7998 80.3 71.8998C80.3 72.1998 80.2 72.3998 79.9 72.2999C78.5 72.0998 76.7 72.3998 75.3 72.1998C75 72.0998 75.2 71.4999 75 71.2999C74.7 66.6999 74.6 62.0998 74.6 57.3998C74.6 50.9998 74.9 44.4998 75.4 38.1998C75.5 37.3998 76.2 37.8999 76.6 37.7999C77.5 37.7999 78.3 37.9998 79.2 37.9998C82.4 42.4998 83.6 49.5998 86.6 53.4998C86.8 48.4998 86.9 43.4998 87.1 38.3998C87.3 38.1998 87.5 37.9998 87.7 37.8998C88.3 37.7998 88.8 37.7999 89.3 37.7999C89.6 37.7999 89.9 37.7999 90.1 37.7999C91.7 37.6999 92.9 37.5999 92.7 38.5999Z" fill="white"/>
<path d="M112.7 48.9998C112.7 50.1998 112.4 51.3998 111.9 52.3998C110.9 54.3998 103.5 58.8998 101.6 58.3998C102 62.8998 102.8 67.5999 102.8 72.0999C102.8 72.1999 102.9 72.8998 102.6 72.8998C102.3 72.8998 101.2 73.1999 101.4 72.7999H97L97.1 70.8998C97.1 60.1998 96.6 51.3998 96.3 40.6998C96.1 40.4998 96.1 38.6998 96 38.3998L96.3 37.8998C98.5 37.6998 100.7 37.5999 102.8 37.5999C111.4 37.7999 112.7 41.4998 112.7 48.9998ZM106.9 47.7999C106.9 43.9999 105.4 42.6998 101.7 42.6998C101.9 44.1998 102 45.7999 102 47.2999C102 49.4999 101.8 51.7998 101.4 53.8998C103.7 53.7998 105.8 52.1998 106.5 49.9998C106.8 49.1998 106.9 48.4999 106.9 47.7999Z" fill="white"/>
<path d="M132.7 51.7998C132.7 58.3998 134.2 72.8997 124.1 72.8997C115.4 72.8997 114.8 61.6998 114.8 55.2998C114.8 49.2998 115.6 37.9998 123.8 37.9998C130.7 37.9998 132.7 46.2998 132.7 51.7998ZM127.9 56.4998C127.9 52.3998 129.6 42.6998 123.2 42.6998C118.9 42.6998 119.6 49.7998 119.6 52.2998C119.5 55.3998 119.4 58.3998 119.4 61.4998C119.4 64.0998 120.3 68.0998 123.6 68.0998C127.6 68.0998 127.9 59.3998 127.9 56.4998Z" fill="white"/>
<path d="M377.4 146C377.2 147.7 376.9 149.6 375.6 150.7C374.6 151.5 373.2 151.7 371.8 151.7C343.9 153.3 315 155 287.4 150.9C286.7 150.8 285.9 150.7 285.3 150.3C284.1 149.5 283.8 147.9 283.6 146.4C281.5 129.8 282.6 111.9 282.6 95.1C282.6 92.4 282.7 89.3 284.7 87.5C286.4 85.9 289.1 85.8 291.4 85.8C318.2 85.7 344.5 84.3 371.1 86.9C372.3 87 373.5 87.1 374.5 87.7C380.1 90.7 378.1 108.3 378.2 113.5C378.4 124.4 378.4 135.3 377.4 146Z" fill="#E33F5A"/>
<path d="M376.8 146C376.7 147.1 376.6 148.3 376 149.2C375.5 150.2 374.5 150.8 373.4 151C372.2 151.2 370.9 151.2 369.7 151.3C368.3 151.4 366.9 151.5 365.5 151.5C360 151.8 354.5 152.1 349 152.3C337.9 152.8 326.8 153 315.8 152.7C310.3 152.5 304.9 152.2 299.4 151.7C296.7 151.5 293.9 151.2 291.2 150.8C289.8 150.6 288.4 150.5 287 150.2C285.8 150 284.9 149.5 284.5 148.3C284.1 147.3 284 146.1 283.9 145C283.7 143.7 283.6 142.3 283.5 141C283.3 138.3 283.1 135.7 283 133C282.8 127.6 282.8 122.1 282.8 116.7C282.9 111.3 283 106 283 100.6C283 98.1001 282.9 95.5001 283.1 93.0001C283.2 90.9001 283.7 88.6001 285.5 87.4001C287.4 86.1001 290 86.3001 292.2 86.3001C295 86.3001 297.9 86.3001 300.7 86.2001C306.3 86.1001 312 86.0001 317.6 85.9001C328.9 85.7001 340.1 85.7001 351.4 86.1001C357 86.3001 362.7 86.6001 368.3 87.1001C369.6 87.2001 371 87.3001 372.4 87.5001C373.2 87.6001 374.1 87.9001 374.7 88.4001C375.6 89.1001 376.1 90.2001 376.5 91.2001C377.5 94.1001 377.7 97.2001 377.8 100.3C377.9 103.4 377.8 106.6 377.6 109.7C377.5 113.4 377.6 117.1 377.6 120.8C377.6 126.4 377.6 132 377.3 137.6C377.3 140.5 377.1 143.3 376.8 146C376.7 146.7 377.8 146.7 377.9 146C378.5 140.2 378.7 134.3 378.8 128.4C378.9 123.2 378.7 117.9 378.7 112.7C378.8 106.5 379.5 100.3 378.4 94.1001C378 91.7001 377.2 88.8001 375.1 87.4001C374.2 86.8001 373.1 86.6001 372.1 86.5001C370.7 86.3001 369.3 86.2001 367.9 86.1001C365 85.9001 362.1 85.6001 359.2 85.5001C347.6 84.8001 335.9 84.8001 324.2 84.9001C318.3 85.0001 312.5 85.1001 306.6 85.1001C303.7 85.1001 300.8 85.2001 297.8 85.2001C295 85.2001 292.3 85.1001 289.5 85.3001C287.3 85.4001 285.1 85.9001 283.7 87.7001C282.3 89.4001 282 91.6001 282 93.7001C281.9 99.1001 281.9 104.5 281.8 110C281.6 121.2 281.5 132.4 282.6 143.6C282.7 144.9 282.8 146.1 283.1 147.4C283.3 148.4 283.5 149.3 284.2 150.1C284.9 151 286 151.3 287.1 151.5C288.5 151.7 289.9 151.9 291.2 152.1C296.8 152.8 302.5 153.3 308.2 153.6C319.7 154.2 331.2 154.2 342.7 153.8C348.4 153.6 354.1 153.3 359.8 153C362.6 152.8 365.5 152.7 368.3 152.5C369.7 152.4 371.1 152.4 372.4 152.2C373.5 152.1 374.6 151.9 375.5 151.4C377.4 150.2 377.7 148 377.9 146C378 145.3 376.9 145.4 376.8 146Z" fill="#E33F5A"/>
<path d="M310.3 103C310 108.8 309.9 114.5 309.9 120.3C309.9 125.6 309.8 126.5 310.1 131.8C309.9 131.9 310.2 134.9 310.2 136.7C310.5 137.6 308.5 137.3 308 137.3C306.7 137.3 304.4 137.7 304.4 135.9C304.4 133 304.4 130.1 304.4 127.1C304.1 126.4 303.8 125.7 303.5 125C301.1 120.9 300.8 118.2 297.9 114.6C297.7 118.7 297.6 122.8 297.6 127C297.6 130 297.7 130 297.8 133C297.9 133.1 297.9 136.2 297.9 136.3C297.9 136.6 297.8 136.8 297.5 136.7C296.1 136.5 294.3 136.8 292.9 136.6C292.6 136.5 292.8 135.9 292.6 135.7C292.3 131.1 292.2 126.4 292.2 121.8C292.2 115.3 292.5 108.9 293 102.5C293.1 101.7 293.8 102.2 294.2 102.1C295.1 102.1 295.9 102.3 296.8 102.3C300 106.8 301.2 113.9 304.2 117.9C304.4 112.9 304.5 107.8 304.7 102.8C304.9 102.6 305.1 102.4 305.3 102.3C305.9 102.2 306.4 102.2 306.9 102.2C307.2 102.2 307.5 102.2 307.7 102.2C309.4 102.1 310.5 102 310.3 103Z" fill="white"/>
<path d="M328.7 113.2C328.8 114.1 328.8 115 328.8 115.9C328.8 125.7 327.6 137.1 314.9 137.1H314.6C314.1 137.2 313.6 137.1 313.6 136.7C313.9 125.5 314 114.3 314.2 103.1C314.2 102.1 314.7 102.4 315.6 102.4C323.1 102.4 328.3 105.4 328.7 113.3V113.2ZM323.6 122.8C323.8 120.5 324.1 118.2 324.1 115.9C324.1 112.3 322.7 108 318.7 107.2C318.7 115.6 318.4 124 317.7 132.4C322.4 132.2 323.2 126.3 323.6 122.8Z" fill="white"/>
<path d="M347.2 131C347.2 136.1 343.1 137.1 338.9 137.1C332.2 137.1 331.6 129.3 331.3 124.2C331.2 123.8 331.6 123.9 331.7 123.8C333.2 123.9 335.4 123.1 336.1 123.7C336.4 125.9 336.5 132.5 339.1 132.5C341.2 132.5 342 129.8 342 128.2C342 118 331.2 125.7 331.2 110.7C331.2 104.7 335.5 102.7 340.9 102.7C346.1 102.7 347.2 106.3 347.2 110.8C347.2 112.2 347.2 113.6 347.2 115C347.1 115.1 347 115.3 346.9 115.4C346 115.8 341.3 115.2 341.6 114.2C341.6 111.7 342.2 107.2 338.5 107.2C336.6 107.2 336 109.5 336 111C336 120.8 347.2 112.5 347.2 131Z" fill="white"/>
<path d="M368.4 116.3C368.4 122.9 369.9 137.5 359.7 137.5C351 137.5 350.3 126.2 350.3 119.8C350.3 113.7 351.1 102.5 359.4 102.5C366.4 102.4 368.4 110.7 368.4 116.3ZM363.5 121C363.5 116.9 365.2 107.1 358.8 107.1C354.5 107.1 355.2 114.3 355.2 116.8C355.1 119.9 355 123 355 126C355 128.6 355.9 132.6 359.2 132.6C363.3 132.7 363.5 123.9 363.5 121Z" fill="white"/>
<path d="M108 134.6C108 164.6 88.7 169.5 88.7 179.8C88.7 181.1 89.1 182.3 89.7 183.5C89.6 184.5 89 185.6 88.4 186.5C83.8 186.6 79.1 187.1 74.6 187.9C74.2 187.8 73.9 187.5 73.5 187.3C73.4 187 73.4 186.9 73.2 186.6C75.3 158.6 93 160.3 93 139.3C93 134.1 90.6 123.4 83.6 123.4C78.3 123.4 75.9 129.3 75.9 133.8C75.9 136.6 76.5 139.3 77 142C77.6 143.4 76.6 144.5 75 144.3C70.6 144.7 66.3 145.1 61.9 145.6C60.8 145.7 60.8 137.9 60.8 136.5C60.8 122 68.8 108.9 84.7 108.9C99.3 108.7 108 120.9 108 134.6ZM93.3 202.9C93.3 209.5 87.3 215 80.8 215C75.5 215 69.8 211.6 69.8 205.9C69.8 198.7 76.8 193.2 83.6 193.2C89.3 193.2 93.3 196.9 93.3 202.9Z" fill="#E33F5A" stroke="#E33F5A" stroke-miterlimit="10"/>
<path d="M344 189.5C344 211.2 330 214.8 330 222.2C330 223.1 330.3 224 330.7 224.9C330.6 225.6 330.2 226.4 329.8 227C326.4 227.1 323.1 227.4 319.8 228C319.5 227.9 319.3 227.7 319 227.6C318.9 227.4 318.9 227.3 318.8 227.1C320.3 206.8 333.2 208 333.2 192.8C333.2 189 331.5 181.3 326.4 181.3C322.5 181.3 320.8 185.6 320.8 188.8C320.8 190.8 321.2 192.8 321.6 194.7C322 195.7 321.3 196.5 320.2 196.3C317 196.6 313.9 196.9 310.7 197.2C309.9 197.3 309.9 191.6 309.9 190.6C309.9 180.1 315.7 170.6 327.2 170.6C337.7 170.7 344 179.6 344 189.5ZM333.3 239.1C333.3 243.9 328.9 247.9 324.2 247.9C320.3 247.9 316.2 245.5 316.2 241.3C316.2 236.1 321.3 232.1 326.2 232.1C330.5 232 333.3 234.7 333.3 239.1Z" fill="#3F4098" stroke="#3F4098" stroke-miterlimit="10"/>
<path d="M137.2 389.3C138.2 372.1 137.6 317.2 137.6 311.4C137.7 298.3 138.9 284.9 138.3 271.8C137.8 260.7 136.9 249.9 137.7 238.7C153.5 240.1 169.2 241.4 185 242.8C181.5 266.7 182 291.5 181 315.7C180.5 328.6 179.9 341.5 179.4 354.4C178.8 369.7 180.2 385.5 178 400.7C158.2 402.7 138 401.7 118.5 397.9C117 397.6 115.1 396.5 115.7 395.2C116.1 394.3 117.3 394.2 118.3 394.2C124.4 394.3 130.5 394.4 136.5 394.5C136.7 394.5 137 392.6 137.2 389.3Z" fill="#0F112E"/>
<path d="M137.7 389.3C138.1 382 138.1 374.8 138.2 367.5C138.3 358.2 138.3 348.8 138.2 339.5C138.2 332 138.1 324.5 138.1 317C138.1 308 138.5 298.9 138.8 289.9C139 282.3 139 274.7 138.5 267.1C138.1 259.6 137.7 252 137.9 244.5C137.9 242.6 138 240.7 138.2 238.7C138 238.9 137.8 239.1 137.7 239.2C150 240.3 162.3 241.3 174.5 242.4C178 242.7 181.5 243 185 243.3C184.8 243.1 184.7 242.8 184.5 242.6C181.6 262.8 181.5 283.3 180.9 303.8C180.6 314.1 180.1 324.4 179.7 334.7C179.3 345.1 178.7 355.5 178.7 366C178.7 377.5 179.1 389.1 177.5 400.6C177.7 400.5 177.8 400.3 178 400.2C165.5 401.4 152.8 401.5 140.3 400.4C134 399.9 127.7 399 121.4 397.9C120.1 397.7 118.5 397.6 117.3 396.9C116.9 396.7 116.2 396.3 116.1 395.8C116 395.1 116.8 394.8 117.4 394.7C118.8 394.5 120.4 394.7 121.8 394.7C123.4 394.7 125 394.8 126.6 394.8C128.4 394.8 130.2 394.9 132 394.9C132.9 394.9 133.8 394.9 134.7 395C135.2 395 136.3 395.2 136.8 395C137.3 394.7 137.3 394 137.4 393.5C137.5 392.1 137.6 390.7 137.7 389.3C137.7 388.6 136.7 388.6 136.6 389.3C136.5 390.6 136.5 391.9 136.3 393.2C136.3 393.4 136.3 393.9 136.1 394V394.1C136.4 393.9 135.8 393.9 135.8 393.9C135.4 393.8 134.8 393.9 134.4 393.9C131.1 393.8 127.8 393.8 124.5 393.7C122.8 393.7 121.2 393.6 119.5 393.6C118.3 393.6 116.9 393.4 115.9 394C115.1 394.5 114.8 395.4 115.1 396.3C115.5 397.3 116.5 397.8 117.4 398.1C118.8 398.6 120.4 398.7 121.8 399C123.4 399.3 125 399.5 126.6 399.8C129.8 400.3 132.9 400.7 136.1 401C142.6 401.7 149.2 402.1 155.7 402.1C163.1 402.2 170.5 401.8 177.9 401.1C178.1 401.1 178.4 400.9 178.4 400.7C179.8 390.6 179.7 380.4 179.7 370.2C179.7 365.1 179.6 360 179.8 354.8C180 349.5 180.2 344.3 180.5 339C180.9 328.7 181.4 318.3 181.7 308C182 297.7 182.2 287.5 182.5 277.2C182.9 265.7 183.7 254.1 185.3 242.7C185.4 242.3 185.2 242 184.8 242C172.5 240.9 160.2 239.9 148 238.8C144.5 238.5 141 238.2 137.5 237.9C137.2 237.9 137 238.2 137 238.4C136 253.6 138 268.8 137.8 284C137.6 294.3 136.9 304.6 137 314.9C137 321.9 137.1 328.9 137.1 335.9C137.1 345.2 137.1 354.5 137.1 363.9C137.1 371.6 137 379.3 136.7 387C136.7 387.7 136.6 388.3 136.6 389C136.6 390 137.7 390 137.7 389.3Z" fill="#0F112E"/>
<path d="M239.2 389.6C238.6 363.7 239 337.7 238.8 311.7C238.8 305.7 239.1 239 238.9 239C223.1 240.3 207.4 241.7 191.6 243C195.1 266.9 194.5 291.7 195.5 315.9C196 328.8 196.5 341.7 197.1 354.6C197.4 362.9 197.1 371.1 197.5 379.4C197.8 386.5 200.2 393.4 200.8 400.3C219.2 399.8 237.5 397.8 255.5 394.4C256.3 394.3 257.1 394.1 257.7 393.5C258.2 392.9 258.2 391.8 257.4 391.5C251.4 391.1 245.3 390.6 239.3 390.2C239.2 389.9 239.2 389.8 239.2 389.6Z" fill="#0F112E"/>
<path d="M239.7 389.6C239.2 368.3 239.4 347.1 239.4 325.8C239.4 316.5 239.3 307.1 239.4 297.8C239.4 287.2 239.5 276.6 239.5 266C239.5 257.8 239.6 249.5 239.5 241.3C239.5 240.6 239.5 239.9 239.5 239.2C239.5 238.8 239.4 238.6 238.9 238.5C238.5 238.4 237.7 238.6 237.3 238.6C236.7 238.7 236 238.7 235.4 238.8C234 238.9 232.6 239 231.2 239.2C220.5 240.1 209.9 241 199.2 241.9C196.6 242.1 194.1 242.3 191.5 242.5C191.1 242.5 190.9 242.8 191 243.2C193.9 263.5 194 284 194.5 304.4C194.8 314.7 195.2 325.1 195.6 335.4C196 345.8 196.5 356.2 196.5 366.7C196.5 372.4 196.4 378.2 197.1 383.8C197.9 389.3 199.4 394.7 200 400.3C200 400.6 200.2 400.9 200.5 400.8C211.4 400.5 222.3 399.6 233.2 398.3C238.6 397.6 244 396.9 249.3 396C250.7 395.8 252 395.5 253.4 395.3C254.5 395.1 255.8 395 256.9 394.5C257.7 394.2 258.3 393.5 258.3 392.7C258.4 392 258.1 391.2 257.4 391C256.8 390.8 256.1 390.9 255.4 390.8C254.6 390.7 253.8 390.7 253 390.6C251.5 390.5 249.9 390.4 248.4 390.3C245.3 390.1 242.2 389.9 239 389.6C239.2 389.8 239.4 390 239.5 390.1C239.7 389.9 239.7 389.8 239.7 389.6C239.7 388.9 238.6 388.9 238.6 389.6C238.6 389.8 238.6 390 238.6 390.1C238.6 390.4 238.8 390.6 239.1 390.6C244.2 391 249.3 391.3 254.3 391.7C254.8 391.7 255.4 391.8 255.9 391.8C256.4 391.8 257.2 391.7 257.2 392.3C257.3 393.5 255.6 393.6 254.8 393.8C252.3 394.3 249.8 394.7 247.3 395.1C237.3 396.7 227.3 397.9 217.3 398.7C211.7 399.1 206.1 399.4 200.5 399.6C200.7 399.8 200.9 400 201 400.1C200.5 395.1 199.3 390.3 198.4 385.4C197.5 380.3 197.5 375.1 197.5 370C197.5 364.8 197.5 359.6 197.3 354.4C197.1 349.2 196.9 343.9 196.7 338.7C196.3 328.3 195.8 318 195.5 307.6C195.2 297.4 195.1 287.2 194.7 277C194.3 265.5 193.5 254.1 191.9 242.7C191.7 242.9 191.6 243.2 191.4 243.4C201.9 242.5 212.5 241.6 223 240.7C225.6 240.5 228.1 240.3 230.7 240.1C232 240 233.3 239.9 234.5 239.8C235.1 239.7 235.8 239.7 236.4 239.6C236.7 239.6 237 239.5 237.4 239.5C237.8 239.5 238.8 239.6 238.2 239C238.1 238.9 238.2 238.8 238.2 239C238.2 239.1 238.2 239.2 238.2 239.3C238.2 239.6 238.2 239.9 238.2 240.3C238.3 247.9 238.2 255.5 238.2 263C238.2 273.7 238.1 284.4 238.1 295C238.1 302.9 238.1 310.7 238.1 318.6C238.2 339.7 238 360.7 238.3 381.8C238.3 384.4 238.4 386.9 238.5 389.5C238.6 390.3 239.7 390.3 239.7 389.6Z" fill="#0F112E"/>
<path d="M243.2 264.6C234 243.4 224.8 222.2 215.6 201.1C213.6 196.5 211.6 191.8 210.9 186.8C210.2 181.8 211 176.4 214.2 172.5C229.2 154.1 249.1 188.1 254.2 199C260.6 212.5 267.2 225.9 272.6 239.9C277.7 253.3 283.8 267.1 285.1 281.6C285.9 290.9 284.5 300.6 279.8 308.6C262.7 337.2 224.5 323.3 206.3 304C208.7 302.6 240.3 284.3 239.9 283.7C242.5 288.3 245.9 292.4 249.9 295.9C250.7 296.6 251.7 297.3 252.7 297.2C255.5 297 255.3 292.8 254.2 290.2C250.6 281.6 246.9 273.1 243.2 264.6Z" fill="#3F4098"/>
<path d="M243.7 264.3C237.4 249.8 231.1 235.2 224.8 220.7C221.7 213.5 218.5 206.3 215.5 199.1C212.8 192.8 210.2 185.8 211.9 178.9C213 174.3 216.3 169.8 220.8 168.2C224.1 167 227.5 167.8 230.5 169.4C234.1 171.3 237.1 174.2 239.7 177.2C242.6 180.5 245.2 184.1 247.5 187.8C249.5 190.9 251.3 194.1 252.9 197.3C255.8 203 258.4 208.8 261.2 214.6C267.6 228.2 273.4 242.1 278.5 256.2C283.3 269.4 287 283.9 283.6 297.9C281 308.3 273.9 317.8 263.7 321.8C255.1 325.1 245.4 324.4 236.7 321.8C227.5 319 218.8 314.1 211.5 307.8C209.9 306.4 208.3 304.9 206.8 303.3C206.8 303.6 206.7 303.9 206.7 304.2C211 301.8 215.2 299.3 219.4 296.8C225.3 293.4 231.1 289.9 236.9 286.3C237.8 285.7 238.7 285.2 239.5 284.6C239.8 284.4 240.8 283.9 240.5 283.3C240.2 283.4 239.8 283.6 239.5 283.7C241.4 287.1 243.7 290.2 246.4 292.9C247.7 294.2 249.1 295.6 250.6 296.7C251.7 297.5 253.2 297.8 254.4 296.9C256.4 295.4 255.8 291.9 255 289.9C253.4 285.9 251.6 282 249.8 278C247.7 273.6 245.7 268.9 243.7 264.3C243.4 263.7 242.5 264.2 242.8 264.8C246 272.2 249.2 279.7 252.5 287.1C253.5 289.5 255.3 292.5 254.4 295.3C253.2 298.7 248.9 294 247.7 292.8C244.9 290 242.5 286.8 240.5 283.3C240.2 282.8 239.3 283.1 239.5 283.7C239.4 283.4 239.8 283.1 239.4 283.5C239.3 283.6 239.4 283.5 239.4 283.5C239.3 283.5 239.3 283.6 239.2 283.6C239.1 283.7 238.9 283.8 238.8 283.9C238 284.4 237.2 284.9 236.4 285.4C233.9 287 231.3 288.5 228.8 290C222.9 293.5 217.1 297 211.1 300.4C209.4 301.4 207.7 302.4 206 303.3C205.7 303.5 205.7 303.9 205.9 304.2C212.6 311.2 220.8 316.8 229.8 320.6C238.6 324.3 248.4 326.4 257.8 324.7C262.4 323.9 266.7 322.1 270.5 319.4C274.7 316.4 278.1 312.4 280.7 307.9C287.8 295.3 286.6 280 282.8 266.6C280.8 259.4 278 252.3 275.3 245.3C272.5 238.1 269.7 231 266.5 224C263.3 216.9 259.9 209.9 256.6 202.9C254.8 199.1 253 195.3 250.9 191.7C248.8 188 246.4 184.3 243.8 180.9C241.1 177.4 238.2 174 234.7 171.2C231.8 168.9 228.5 166.9 224.8 166.6C221 166.3 217.5 168.1 214.9 170.8C210.5 175.4 209.4 181.8 210.4 187.9C211 191.6 212.4 195.2 213.9 198.6C215.4 202.2 217 205.9 218.6 209.5C225 224.4 231.5 239.2 237.9 254.1C239.4 257.7 241 261.2 242.5 264.8C243 265.5 243.9 264.9 243.7 264.3Z" fill="#3F4098"/>
<path d="M264.3 113.4C264.1 113.1 263.8 112.8 263.5 112.6C259.3 108.8 256.3 106.5 254.8 100.9C253.4 95.7 253.6 90.7 253.6 85.4C253.6 80.7 253.2 76.1 252.3 71.5C251.5 67.2 250.3 62.9 247.4 59.6C243.2 54.9 238.7 56.5 233.3 56.2C215.1 55.3 196.7 57.4 179.1 62.3C175 63.5 170.6 65 168 68.4C163.9 73.8 166.2 80.2 165.4 86.3C164.7 91.9 163 96.3 163.3 102.2C161.3 102.2 159.4 102.4 157.4 102.8C155.1 103.4 152.7 104.4 151.3 106.4C147.8 111.6 152.7 115.1 157.4 115.8C159.8 116.1 162.1 116.7 164.6 116.7C163.9 132.8 164.8 149.1 164.6 165.4C170.1 165.4 220.8 173.1 220.9 172.1C221.1 170.2 223.4 146.9 223.9 146.9C233.9 146.9 248.4 151.4 250.4 137.4C251.2 131.7 251 126 250.9 120.2C254.5 121.1 258.3 121.2 262 120.7C263.1 120.5 264.4 120.3 265.2 119.4C266.9 117.8 265.8 115.2 264.3 113.4Z" fill="#F7AFA5"/>
<path d="M264.6 113C262.9 111.1 260.9 109.6 259.2 107.8C257.6 106.1 256.4 104.2 255.6 102C253.5 95.9001 254.2 89.2001 254 82.9001C253.9 79.6001 253.6 76.4001 253.1 73.2001C252.6 70.3001 252.1 67.5001 251 64.8001C250 62.3001 248.6 59.8001 246.5 58.1001C244.7 56.6001 242.6 55.9001 240.2 55.8001C237.9 55.7001 235.5 55.9001 233.2 55.8001C229.9 55.7001 226.6 55.6001 223.3 55.6001C216.8 55.7001 210.3 56.1001 203.9 56.9001C197.5 57.7001 191.1 58.8001 184.9 60.4001C181.9 61.1001 179 61.9001 176.1 62.8001C173.7 63.6001 171.4 64.6001 169.4 66.2001C167.3 67.9001 165.9 70.3001 165.3 73.0001C164.7 75.6001 164.9 78.3001 165 80.9001C165.1 82.3001 165.1 83.7001 165 85.1001C164.9 86.6001 164.6 88.1001 164.3 89.6001C163.8 92.4001 163.1 95.1001 162.8 97.9001C162.6 99.4001 162.6 100.9 162.7 102.4C162.9 102.2 163.1 102 163.2 101.9C158.4 102 152.2 102.8 150.1 107.8C149.3 109.6 149.4 111.6 150.6 113.2C151.8 114.8 153.6 115.8 155.5 116.3C156.8 116.7 158.2 116.8 159.6 117.1C161.3 117.4 162.9 117.6 164.6 117.7C164.4 117.5 164.2 117.3 164.1 117.2C163.6 129.8 164 142.5 164.1 155.1C164.1 158.7 164.1 162.3 164.1 165.9C164.1 166.2 164.4 166.4 164.6 166.4C167.1 166.4 169.7 166.8 172.1 167.1C176.6 167.7 181.1 168.3 185.6 168.9C190.7 169.6 195.8 170.3 201 171C205.3 171.6 209.7 172.2 214 172.7C215.5 172.9 216.9 173 218.4 173.2C219.1 173.3 219.9 173.4 220.7 173.3C221.7 173.2 221.5 172.1 221.6 171.3C221.8 169.4 222 167.6 222.2 165.7C222.7 160.9 223.2 156.1 223.8 151.3C223.9 150.5 224 149.7 224.1 148.9C224.2 148.5 224.4 148 224.4 147.6C224.4 147.7 224.3 147.6 224.2 147.8C224.1 148 224 147.8 224.2 147.9C224.3 147.9 224.3 147.9 224.4 147.9C224.6 147.9 224.8 147.9 225 147.9C225.6 147.9 226.3 147.9 226.9 148C228.3 148.1 229.6 148.2 231 148.3C235.9 148.7 241.7 149.3 246.1 146.5C248.3 145.1 249.7 143 250.5 140.6C251.1 138.8 251.3 136.8 251.5 134.9C251.7 132.5 251.8 130.1 251.8 127.8C251.8 125.4 251.7 123 251.6 120.6C251.4 120.8 251.1 120.9 250.9 121.1C253 121.6 255.2 121.9 257.4 121.9C259.5 121.9 261.7 121.9 263.7 121.3C265.3 120.8 266.6 119.7 266.7 118C266.8 116 265.7 114.3 264.6 113C264.1 112.5 263.4 113.2 263.8 113.8C264.7 114.9 265.6 116.4 265.5 117.9C265.3 119.6 263.5 120.1 262.1 120.3C258.5 120.8 254.7 120.7 251.1 119.8C250.8 119.7 250.4 120 250.4 120.3C250.6 125.1 250.7 129.8 250.3 134.6C250 137.8 249.6 141.2 247.4 143.6C244 147.4 238.2 147.2 233.6 147C230.9 146.8 228.3 146.6 225.6 146.5C224.9 146.5 223.7 146.2 223.4 147C223.2 147.4 223.2 147.8 223.1 148.2C222.4 152.4 222 156.7 221.6 161C221.4 163.3 221.1 165.6 220.9 167.9C220.8 169.3 220.5 170.6 220.5 172C220.5 172.2 220.4 172.2 220.5 171.9C220.6 171.8 220.7 171.7 220.8 171.7C220.8 171.7 220.6 171.7 220.8 171.7C220.8 171.7 220.7 171.7 220.6 171.7C220.3 171.7 220 171.7 219.6 171.7C218.4 171.6 217.2 171.5 216 171.4C212 171 208 170.4 204 169.9C199 169.2 194 168.6 189 167.9C184.3 167.3 179.6 166.6 174.8 166C171.7 165.6 168.7 165.2 165.6 165C165.2 165 164.9 165 164.5 164.9C164.7 165.1 164.9 165.3 165 165.4C165.2 152.7 164.7 140.1 164.8 127.4C164.8 123.8 164.9 120.2 165 116.7C165 116.4 164.7 116.2 164.5 116.2C162 116.1 159.4 115.7 156.9 115.2C155.2 114.9 153.4 114.2 152.1 113C150.8 111.8 150.2 110.2 150.7 108.5C151.3 106.4 153 104.9 154.9 104.1C157.4 103 160.3 102.7 163.1 102.7C163.4 102.7 163.7 102.5 163.6 102.2C163.5 99.3001 163.8 96.4001 164.4 93.5001C164.9 90.8001 165.6 88.1001 165.8 85.3001C166.2 80.0001 164.6 74.2001 167.6 69.4001C170.6 64.8001 176.5 63.4001 181.4 62.1001C187.6 60.5001 193.9 59.2001 200.2 58.3001C206.5 57.4001 212.8 56.8001 219.2 56.6001C222.4 56.5001 225.6 56.5001 228.8 56.6001C231.5 56.7001 234.2 56.8001 236.9 56.7001C239.1 56.6001 241.3 56.6001 243.4 57.5001C245.9 58.6001 247.6 60.8001 248.8 63.2001C250.1 65.7001 250.8 68.4001 251.3 71.1001C251.9 74.3001 252.3 77.5001 252.5 80.7001C252.9 87.0001 252.2 93.3001 253.5 99.5001C254 101.9 254.8 104.3 256.3 106.4C257.6 108.2 259.2 109.8 260.8 111.3C261.7 112.2 262.7 113 263.6 113.9C264.3 114.3 265.1 113.5 264.6 113Z" fill="#F7AFA5"/>
<path d="M236.8 188.2C240.9 218 241.4 247.6 240.8 277.7C240.8 278.8 147.4 278.2 138.8 277.4C137.5 251.8 136.1 225.7 140.6 200.4C142.8 187.8 146.3 174 156.9 167.1C165.8 161.3 177.3 161.9 187.9 162.7C193.2 163.1 198.5 163.5 203.9 163.9C209.5 164.3 215.2 164.8 220.5 166.6C225.8 168.4 230.9 171.6 233.6 176.5C235.5 180 236.2 184.2 236.8 188.2Z" fill="#3F4098"/>
<path d="M236.3 188.3C237.9 200.1 239 211.9 239.6 223.7C240.2 235.5 240.5 247.3 240.5 259.1C240.5 265 240.4 270.9 240.3 276.8C240.3 277 240.3 277.2 240.3 277.3C240.3 277.8 240.3 277.5 240.4 277.3C240.4 277.2 240.5 277.2 240.6 277.1H240.7C240.6 277.1 240.5 277.1 240.5 277.1C240.3 277.1 240.6 277.1 240.5 277.1C240.4 277.1 240.4 277.1 240.3 277.1C240.1 277.1 240 277.1 239.8 277.1C237.1 277.3 234.3 277.3 231.6 277.4C226.9 277.5 222.2 277.5 217.5 277.5C211.7 277.5 205.8 277.5 200 277.5C193.7 277.5 187.4 277.5 181.2 277.4C175.3 277.4 169.3 277.3 163.4 277.2C158.6 277.1 153.8 277.1 148.9 276.9C146 276.8 143 276.8 140.1 276.6C139.7 276.6 139.4 276.6 139 276.5C139.2 276.7 139.4 276.9 139.5 277C138.7 262 137.9 247 138.3 231.9C138.5 224.4 138.9 216.9 139.8 209.5C140.6 203 141.6 196.6 143.3 190.3C144.7 184.8 146.6 179.4 149.8 174.7C153.1 169.8 157.7 166.1 163.4 164.2C169.5 162.2 176 162.1 182.4 162.4C189.7 162.8 197 163.5 204.3 164C211.2 164.5 218.4 165.1 224.6 168.4C227.3 169.8 229.7 171.6 231.6 173.9C233.7 176.5 234.9 179.6 235.6 182.9C235.8 185 236 186.7 236.3 188.3C236.4 189 237.4 188.7 237.3 188C236.8 184.6 236.3 181.1 234.9 177.9C233.6 175 231.6 172.5 229.2 170.6C223.9 166.4 217.3 164.8 210.7 164C207 163.6 203.2 163.3 199.5 163C195.5 162.7 191.6 162.4 187.6 162.1C181.1 161.6 174.5 161.2 168 162.3C161.9 163.3 156.2 166 151.9 170.5C148 174.6 145.4 179.8 143.6 185.2C141.7 190.9 140.5 196.9 139.5 202.9C138.3 210.4 137.6 218 137.2 225.6C136.4 241 137.1 256.5 137.9 271.9C138 273.7 138.1 275.6 138.2 277.4C138.2 277.7 138.4 277.9 138.7 277.9C141.1 278.1 143.6 278.2 146 278.2C150.5 278.3 155 278.4 159.5 278.5C165.3 278.6 171.1 278.7 177 278.7C183.3 278.8 189.6 278.8 195.9 278.8C201.9 278.8 208 278.8 214 278.8C219 278.8 224 278.8 229 278.7C232.2 278.7 235.3 278.6 238.5 278.5C239.2 278.5 239.9 278.5 240.6 278.3C241.2 278.1 241.2 277.7 241.2 277.2C241.3 274.2 241.3 271.1 241.3 268.1C241.4 256.2 241.3 244.3 240.9 232.4C240.4 220.5 239.6 208.6 238.3 196.8C238 193.9 237.6 191 237.2 188.1C237.2 187.4 236.2 187.7 236.3 188.3Z" fill="#3F4098"/>
<path d="M220.4 166.5C215.1 164.7 209.4 164.3 203.8 163.8C198.5 163.4 193.2 163 187.8 162.6C180.1 162 171.9 161.5 164.6 163.5C165.5 164.6 166.4 165.6 167 166.5C171.3 172.7 175.8 178.8 180.4 184.7C189.7 196.6 199.7 207.9 210.4 218.6C213.6 212.6 215 205.8 216.3 199.2C218 190.9 219.6 182.6 221.3 174.2C221.7 172 222.3 169.7 222.8 167.4C222.1 167.1 221.3 166.8 220.4 166.5Z" fill="white"/>
<path d="M220.6 166C213.6 163.7 206 163.5 198.7 162.9C191.3 162.3 183.8 161.5 176.4 161.6C172.4 161.6 168.4 162 164.6 163.1C164.2 163.2 164.1 163.7 164.4 164C167.4 167.5 169.8 171.4 172.6 175.1C175.4 178.9 178.3 182.7 181.2 186.4C187 193.7 193.1 200.8 199.4 207.7C202.9 211.6 206.6 215.4 210.3 219.1C210.5 219.3 211 219.3 211.2 219C214.3 213.2 215.7 206.8 216.9 200.4C218.3 193.4 219.7 186.5 221.1 179.5C221.9 175.5 222.7 171.6 223.6 167.7C223.7 167.5 223.6 167.2 223.4 167.1C222.3 166.7 221.4 166.3 220.6 166C219.9 165.8 219.7 166.8 220.3 167C221.1 167.3 221.9 167.6 222.7 167.9C222.6 167.7 222.5 167.5 222.5 167.3C220.8 174.2 219.5 181.2 218.2 188.2C216.9 194.8 215.8 201.6 214 208.1C213.1 211.7 211.9 215.1 210.2 218.4C210.5 218.4 210.8 218.3 211.1 218.3C204.5 211.7 198.2 204.9 192.1 197.8C185.9 190.6 180 183.2 174.4 175.6C171.4 171.5 168.6 167.1 165.3 163.2C165.2 163.5 165.1 163.8 165.1 164.1C171.9 162.2 179.1 162.5 186.1 163C193.6 163.5 201.1 164 208.5 164.8C212.6 165.2 216.6 165.8 220.5 167.1C220.9 167.3 221.2 166.2 220.6 166Z" fill="white"/>
<path d="M207.8 170.3C206 168.3 204.3 166.3 202.8 164.1C202.9 164.2 200.9 165.8 198.1 168C200.1 170.2 201.8 172 202 172.3C202.4 173 201.8 191.2 200.5 208.2C203.8 211.7 207.1 215.2 210.5 218.6C212.4 214.9 213.7 211 214.7 206.9C210.6 191.6 206.8 174.8 206.8 173.8C206.9 173.4 207.3 172 207.8 170.3Z" fill="#E33F5A"/>
<path d="M208.2 169.9C206.5 168 204.8 166 203.3 163.9C203 163.4 202.1 163.7 202.3 164.3C202.3 164.2 202.4 164 202.3 163.9C202.3 163.9 202.3 163.9 202.2 164C202.1 164.1 202 164.2 201.9 164.3C201.6 164.6 201.2 164.9 200.9 165.2C199.8 166.1 198.8 166.9 197.7 167.8C197.5 168 197.5 168.4 197.7 168.6C198.9 169.9 200.2 171.3 201.4 172.6C201.4 172.6 201.6 172.8 201.5 172.7C201.5 172.6 201.5 172.7 201.5 172.7C201.5 172.8 201.5 172.6 201.5 172.8C201.5 173.1 201.5 173.3 201.5 173.6C201.6 176 201.5 178.5 201.4 180.9C201.1 189.6 200.7 198.2 200 206.9C200 207.4 199.7 208.2 200 208.6C200.3 209.1 200.9 209.6 201.3 210C202.3 211 203.2 212 204.2 213.1C206.1 215.1 208.1 217.1 210.1 219.1C210.3 219.3 210.8 219.3 211 219C212 217.1 212.8 215.2 213.5 213.2C213.8 212.2 214.2 211.2 214.4 210.2C214.6 209.7 214.7 209.2 214.8 208.6C214.9 208.1 215.2 207.6 215.2 207.1C215.2 206.7 215 206.2 214.9 205.8C214.7 205.2 214.6 204.7 214.5 204.1C214.2 203.1 214 202.1 213.7 201.1C213.2 199 212.6 197 212.1 194.9C210.5 188.7 209 182.4 207.7 176.2C207.6 175.8 207.5 175.3 207.4 174.9C207.4 174.7 207.3 174.6 207.3 174.4C207.3 174.3 207.3 174.1 207.3 174.2C207.3 173.9 207.3 173.7 207.4 173.5C207.6 172.5 208 171.5 208.3 170.5C208.5 169.8 207.5 169.5 207.3 170.2C207 171.1 206.7 172 206.5 172.9C206.4 173.3 206.3 173.6 206.3 174C206.3 174.5 206.4 175 206.5 175.5C206.9 177.7 207.4 180 207.9 182.2C209.6 189.8 211.5 197.3 213.5 204.8C213.7 205.4 213.8 206 214 206.6C214.2 207.2 214 207.7 213.8 208.2C213.5 209.4 213.2 210.5 212.8 211.7C212 214 211.1 216.3 210 218.4C210.3 218.4 210.6 218.3 210.9 218.3C207.5 214.9 204.2 211.4 200.9 207.9C201 208 201 208.2 201.1 208.3C201.7 200.8 202.1 193.3 202.4 185.8C202.5 183 202.6 180.3 202.7 177.5C202.7 176 202.8 174.4 202.7 172.9C202.7 172.3 202.5 172.1 202.2 171.6C201.1 170.2 199.8 169 198.6 167.7C198.6 168 198.6 168.2 198.6 168.5C199.8 167.5 201.1 166.6 202.3 165.6C202.7 165.3 203.6 164.7 203.4 164.1C203.1 164.2 202.7 164.4 202.4 164.5C204 166.7 205.7 168.8 207.5 170.8C207.9 171.2 208.7 170.4 208.2 169.9Z" fill="#E33F5A"/>
<path d="M163.7 164.1C165.8 166.7 168.1 169.3 170.3 171.9C173 175 175.7 178.3 178.7 181.1C179 181.4 179.3 181.7 179.7 181.9C180.2 182.1 180.5 181.9 180.8 181.6C182 180.7 183.2 179.8 184.5 178.9C188.3 176.1 192.1 173.2 195.9 170.3C197.5 169.1 199.2 167.8 200.8 166.5C201.3 166.1 201.8 165.7 202.3 165.2C202.6 165 202.9 164.7 203.1 164.4C203.2 164.2 203.2 164 203.1 163.8C202.8 164 202.5 164.2 202.2 164.3C206.6 170.3 211.9 175.7 217.8 180.2C218 180.4 218.4 180.3 218.5 180C220.2 176.1 221.9 172.2 223.6 168.3C223.9 167.7 222.9 167.1 222.7 167.8C221 171.7 219.3 175.6 217.6 179.5C217.8 179.4 218.1 179.4 218.3 179.3C212.5 174.9 207.4 169.6 203.1 163.7C202.7 163.1 201.8 163.6 202.2 164.2C202.1 164.1 202.2 163.8 202.2 163.7C202.2 163.7 202.3 163.6 202.2 163.7C202.1 163.8 201.9 163.9 201.8 164.1C201.4 164.5 200.9 164.9 200.5 165.2C199 166.4 197.6 167.5 196.1 168.7C192.4 171.5 188.7 174.3 185 177C183.7 178 182.4 179 181 179.9C180.8 180.1 180.6 180.2 180.4 180.4C180.3 180.5 180.2 180.5 180.2 180.6C180.1 180.7 180 180.7 180.1 180.7C180.2 180.8 180.4 180.6 180.4 180.7C180.4 180.7 180.3 180.6 180.2 180.6C180.1 180.5 180.2 180.6 180.1 180.5C180 180.4 179.9 180.3 179.8 180.3C178.6 179.2 177.6 178 176.5 176.9C175 175.2 173.4 173.5 171.9 171.8C169.5 169.1 167.1 166.3 164.8 163.5C164.7 163.4 164.6 163.3 164.5 163.2C164.1 162.8 163.3 163.6 163.7 164.1Z" fill="#0F112E"/>
<path d="M118.4 397.9C116.9 397.6 115 396.5 115.6 395.2C116 394.3 117.2 394.2 118.2 394.2C124.3 394.3 130.4 394.4 136.4 394.5C136.7 394.5 136.9 392.6 137.1 389.3C137.1 388.8 137.2 388.3 137.2 387.8C139.5 388.2 142.6 390 141.5 392.1C153.9 393.8 166.5 393.6 178.8 391.7C178.6 394.7 178.3 397.8 177.9 400.8C158.1 402.7 138 401.7 118.4 397.9Z" fill="#3F4098"/>
<path d="M118.5 397.4C117.7 397.2 116.7 396.9 116.2 396.2C115.5 395.3 116.7 394.8 117.4 394.7C118.6 394.6 119.9 394.7 121.1 394.7C122.4 394.7 123.7 394.7 125 394.8C127.6 394.8 130.2 394.9 132.8 394.9C133.4 394.9 134.1 394.9 134.7 394.9C135.3 394.9 136 395.1 136.6 394.9C137 394.8 137.1 394.4 137.2 394C137.7 392 137.7 389.7 137.8 387.7C137.6 387.9 137.3 388 137.1 388.2C138.5 388.5 142 389.7 141.1 391.7C141 392 141 392.4 141.4 392.5C151.1 393.8 161 394 170.8 393.1C173.5 392.8 176.3 392.5 179 392.1C178.8 391.9 178.5 391.8 178.3 391.6C178.1 394.6 177.8 397.6 177.4 400.5C177.6 400.4 177.7 400.2 177.9 400.1C162.5 401.6 147 401.4 131.6 399.4C127.3 398.9 122.9 398.2 118.5 397.4C117.8 397.3 117.5 398.3 118.2 398.4C133.5 401.4 149.1 402.6 164.7 402.1C169.1 402 173.5 401.7 177.8 401.2C178 401.2 178.3 401 178.3 400.8C178.7 397.7 179 394.7 179.2 391.6C179.2 391.2 178.8 391 178.5 391.1C169 392.6 159.4 393 149.8 392.4C147 392.2 144.3 391.9 141.5 391.6C141.6 391.9 141.7 392.1 141.8 392.4C143.1 389.6 139.4 387.8 137.2 387.3C136.8 387.2 136.5 387.5 136.5 387.8C136.4 389.8 136.5 391.9 136 393.9L135.9 394.1C135.9 394.2 135.9 394.1 135.9 394.1C136.2 394 135.5 393.9 135.7 394C135 393.9 134.3 394 133.6 394C132.2 394 130.8 393.9 129.4 393.9C126.6 393.8 123.9 393.8 121.1 393.7C119.8 393.7 118.6 393.6 117.3 393.7C116.5 393.8 115.6 394 115.1 394.7C113.8 396.7 116.5 398.1 118.1 398.5C118.9 398.6 119.2 397.5 118.5 397.4Z" fill="#3F4098"/>
<path d="M257.3 391.4C251.3 391 245.2 390.5 239.2 390.1C239.2 389.9 239.2 389.7 239.2 389.6C239.2 387.6 239.1 385.5 239.1 383.5C237.9 383.8 236.7 384.2 235.7 385C233.7 386.4 232.6 389.4 234 391.5C222.6 392.3 211.1 392.8 199.6 393C200.1 395.4 200.5 397.9 200.7 400.3C219.1 399.8 237.4 397.8 255.4 394.4C256.2 394.3 257 394.1 257.6 393.5C258.1 392.8 258 391.7 257.3 391.4Z" fill="#3F4098"/>
<path d="M257.3 390.8C251.3 390.4 245.2 389.9 239.2 389.5C239.4 389.7 239.6 389.9 239.7 390C239.6 387.8 239.6 385.5 239.6 383.3C239.6 382.9 239.3 382.7 238.9 382.8C236.8 383.3 234.7 384.3 233.6 386.2C232.6 387.8 232.4 389.9 233.4 391.5C233.6 391.2 233.7 391 233.9 390.7C222.5 391.5 211 392 199.5 392.2C199.1 392.2 198.9 392.5 199 392.9C199.5 395.3 199.9 397.7 200.1 400.1C200.1 400.4 200.3 400.7 200.6 400.6C217.5 400.1 234.4 398.4 251 395.5C252.1 395.3 253.3 395.1 254.4 394.9C255.4 394.7 256.4 394.6 257.3 394.1C258.4 393.4 258.9 391.4 257.5 390.8C256.9 390.5 256.3 391.4 257 391.7C257.7 392 257.3 392.9 256.8 393.2C256.1 393.6 255.2 393.7 254.4 393.8C252.5 394.2 250.6 394.5 248.6 394.8C244.7 395.5 240.8 396 236.9 396.6C229.2 397.6 221.5 398.4 213.7 398.9C209.3 399.2 204.9 399.4 200.5 399.5C200.7 399.7 200.9 399.9 201 400C200.8 397.5 200.3 395 199.8 392.5C199.6 392.7 199.5 393 199.3 393.2C210.8 393 222.2 392.5 233.7 391.7C234.1 391.7 234.4 391.3 234.2 390.9C233.3 389.5 233.6 387.9 234.5 386.6C235.5 385 237.3 384.2 239.1 383.8C238.9 383.6 238.6 383.5 238.4 383.3C238.4 385.5 238.5 387.8 238.5 390C238.5 390.3 238.7 390.5 239 390.5C245 390.9 251.1 391.4 257.1 391.8C258 392 258 390.9 257.3 390.8Z" fill="#3F4098"/>
<path d="M210 218.7C210 234.2 210.5 249.7 210.9 265.2C211 269.6 211.2 273.9 211.3 278.3C211.3 279 212.4 279 212.4 278.3C212 262.8 211.4 247.3 211.2 231.8C211.1 227.4 211.1 223 211.1 218.7C211.1 218 210 218 210 218.7Z" fill="#0F112E"/>
<path d="M180 79.6C180.1 79 180.2 78.4 180.2 77.7C190.2 78 200 77.6 210 78.3C217.2 78.7 226.2 80.7 232.4 76C236.9 72.6 239.5 66.8 243.2 62.9C242.5 63.6 250 78.7 250.8 80.8C255.1 79.9 258.4 76 259.1 71.6C259.3 70 259.3 68.4 259.1 66.8C258.5 60.4 256.9 54.1 251 50.5C245.7 47.3 239 47.5 233.1 47.8C213.4 48.7 193.1 50.1 175.5 58.8C171.5 60.8 167.5 63.2 164.7 66.7C157 76.2 158.8 92.1 159.2 103.3C159.4 107.7 159 126.9 165.9 127.3C167.8 127.4 169.1 125.4 169.9 123.7C176.1 109.9 178.2 94.6 180 79.6Z" fill="#0F112E"/>
<path d="M180.6 79.6001C180.7 79.0001 180.8 78.4001 180.8 77.7001C180.6 77.9001 180.4 78.1001 180.3 78.2001C190.8 78.6001 201.3 78.0001 211.8 78.9001C215.9 79.2001 220.1 79.8001 224.3 79.4001C226.3 79.2001 228.2 78.8001 230 78.0001C231.9 77.2001 233.5 75.9001 234.9 74.5001C238.2 71.1001 240.4 66.7001 243.7 63.2001C243.4 62.9001 243.2 62.7001 242.9 62.4001C242.4 63.0001 242.9 63.9001 243.1 64.5001C243.6 65.8001 244.1 67.1001 244.7 68.4001C246.1 71.6001 247.6 74.7001 249 77.8001C249.5 78.8001 250 79.9001 250.4 80.8001C250.5 81.1001 250.8 81.2001 251.1 81.2001C254.9 80.4001 257.9 77.4001 259.2 73.9001C260 71.8001 260.1 69.4001 259.9 67.2001C259.7 65.2001 259.5 63.1001 259 61.1001C258.1 57.4001 256.4 53.7001 253.4 51.3001C250 48.5001 245.6 47.4001 241.3 47.1001C236.6 46.8001 231.9 47.2001 227.3 47.4001C222.4 47.7001 217.6 48.0001 212.7 48.5001C203.1 49.5001 193.6 51.2001 184.5 54.4001C180.1 56.0001 175.7 57.8001 171.7 60.3001C168 62.5001 164.7 65.4001 162.6 69.2001C158.7 76.0001 158.4 84.4001 158.5 92.1001C158.6 95.9001 158.8 99.6001 159 103.4C159.1 105.4 159.1 107.4 159.2 109.5C159.3 112.3 159.5 115.2 160 118C160.4 120.5 161 123.1 162.3 125.3C163.4 127.1 165.5 128.7 167.7 127.7C169.5 126.9 170.4 124.8 171.1 123.1C172.1 120.8 172.9 118.6 173.7 116.2C176.9 106.8 178.5 96.9001 179.9 87.0001C179.9 84.5001 180.3 82.0001 180.6 79.6001C180.7 78.9001 179.6 78.9001 179.5 79.6001C178.3 89.1001 177.1 98.6001 174.8 107.9C173.6 112.5 172.2 117.1 170.4 121.5C169.7 123.2 169 125.6 167.2 126.5C166.3 127 165.2 126.7 164.4 126.1C162.7 124.8 162 122.5 161.5 120.5C160.8 117.8 160.5 115.1 160.3 112.4C160.1 110 160 107.7 160 105.3C159.9 102.7 159.8 100.1 159.7 97.5001C159.3 90.0001 159.1 82.2001 161.3 74.9001C162.4 71.3001 164.2 67.9001 166.9 65.2001C170.1 62.1001 174.1 60.0001 178.1 58.2001C186.5 54.4001 195.6 52.1001 204.7 50.7001C214 49.3001 223.3 48.7001 232.7 48.3001C240.7 47.9001 250.7 47.7001 255.6 55.3001C257.6 58.5001 258.4 62.3001 258.8 66.0001C259 68.3001 259.2 70.6001 258.5 72.8001C258 74.6001 257 76.3001 255.6 77.6001C254.3 78.9001 252.7 79.8001 250.9 80.2001C251.1 80.3001 251.3 80.5001 251.6 80.6001C250.8 78.4001 249.6 76.2001 248.6 74.0001C247.3 71.1001 245.9 68.2001 244.7 65.2001C244.5 64.7001 244.3 64.1001 244.1 63.6001C244 63.4001 244 63.2001 244 63.1001C244 63.1001 244 63.1001 244 63.0001V62.9001C244 62.9001 243.8 63.3001 243.9 63.2001C244.3 62.7001 243.6 61.9001 243.1 62.4001C240.2 65.4001 238.2 69.1001 235.6 72.3001C234.3 73.9001 232.8 75.4001 231 76.4001C229.3 77.4001 227.3 77.9001 225.4 78.2001C221.3 78.8001 217.2 78.3001 213.1 77.9001C208.2 77.4001 203.2 77.3001 198.2 77.3001C192.3 77.3001 186.4 77.3001 180.5 77.1001C180.2 77.1001 180 77.4001 180 77.6001C179.9 78.2001 179.8 78.8001 179.8 79.5001C179.4 80.3001 180.5 80.3001 180.6 79.6001Z" fill="#0F112E"/>
<path d="M242.7 192.6C237.1 192.7 231.1 190.8 225.6 190.1C224.7 175.5 225.4 160.7 227.5 146.2C227.6 145.2 228 144 229 143.9C230.1 143.8 230.7 145.1 231 146.2C232.2 151.5 232.9 156.8 233 162.2C232.9 157 233.2 151.9 234 146.8C234.3 144.8 235.4 142.3 237.4 142.5C239 142.7 239.8 144.5 240.3 146C241.7 151 242.5 156.2 242.6 161.5C242.1 155.9 242.5 150.1 243.8 144.6C244 143.8 244.2 143 244.8 142.5C248.4 139.6 248.8 146.8 249 148.3C249.6 152.5 250.1 156.8 250.7 161C250.7 156 251.6 151.1 253.3 146.4C253.6 145.5 254 144.6 254.7 143.9C255.4 143.2 256.6 143 257.4 143.6C258.1 144.1 258.3 145.1 258.4 146C260.1 161.3 260.9 176.6 261 192C260.9 191.7 244.1 192.6 242.7 192.6Z" fill="#F7AFA5"/>
<path d="M242.7 192C236.9 192.1 231.3 190.2 225.6 189.5C225.8 189.7 226 189.9 226.1 190C225.6 181.3 225.6 172.5 226.1 163.8C226.4 159.5 226.8 155.1 227.3 150.8C227.4 149.7 227.6 148.6 227.7 147.5C227.8 146.6 227.8 145.6 228.3 144.8C228.7 144 229.4 144.2 229.9 144.9C230.3 145.6 230.5 146.6 230.7 147.4C231.8 152.2 232.3 157.1 232.4 162C232.8 162 233.1 162 233.5 162C233.4 159.1 233.5 156.1 233.7 153.2C233.8 151.7 234 150.2 234.2 148.7C234.4 147.5 234.5 146.3 234.9 145.2C235.2 144.4 235.7 143.3 236.5 142.9C237.5 142.5 238.4 143.1 238.9 144C239.5 145 239.7 146.1 240 147.2C240.4 148.6 240.7 150.1 240.9 151.5C241.5 154.7 241.8 158 241.9 161.2C242.3 161.2 242.6 161.2 243 161.2C242.7 157.7 242.7 154.2 243.1 150.8C243.3 149.1 243.6 147.4 243.9 145.6C244.2 144.3 244.3 142.9 245.6 142.2C248 141.1 248.2 147.5 248.4 148.8C248.9 152.8 249.5 156.8 250 160.7C250.1 161.4 251.1 161.4 251.1 160.7C251.1 156.3 251.8 152 253.1 147.9C253.6 146.5 254.3 143.4 256.3 143.6C257.3 143.7 257.5 144.9 257.6 145.7C257.7 146.8 257.8 148 258 149.1C258.9 158.1 259.6 167.2 259.9 176.3C260.1 181.5 260.2 186.6 260.2 191.8C260.6 191.8 260.9 191.7 261.3 191.7C261.1 191 259.9 191.2 259.4 191.2C258.1 191.2 256.7 191.3 255.4 191.3C252.1 191.4 248.8 191.6 245.5 191.7C244.7 192 243.7 192 242.7 192C242 192 242 193.1 242.7 193.1C248 193 253.2 192.6 258.5 192.5C259 192.5 259.6 192.5 260.1 192.5C260.3 192.5 260.4 192.5 260.6 192.5C260.7 192.5 260.8 192.5 260.7 192.5C260.7 192.5 260.5 192.4 260.4 192.2C260.6 192.8 261.5 192.7 261.5 192.1C261.5 182.1 261.1 172.2 260.4 162.2C260 157.3 259.6 152.3 259.1 147.4C258.9 145.8 258.9 143.3 256.9 142.9C255 142.5 253.7 144.2 253.1 145.7C251.1 150.5 250.3 155.9 250.2 161.1C250.6 161.1 250.9 161.1 251.3 161.1C250.8 157.2 250.2 153.2 249.7 149.3C249.5 147.6 249.4 145.9 248.9 144.2C248.5 142.8 247.7 141 245.9 141.3C244.9 141.5 244 142.3 243.6 143.3C242.9 144.9 242.7 146.8 242.5 148.6C241.9 152.9 241.7 157.2 242.1 161.5C242.2 162.2 243.2 162.2 243.2 161.5C243.1 158.2 242.8 155 242.2 151.7C241.9 150.1 241.6 148.5 241.2 147C240.9 145.8 240.6 144.6 239.9 143.5C239.3 142.6 238.4 141.9 237.3 141.9C236.3 141.9 235.4 142.5 234.8 143.2C234.1 144.1 233.8 145.2 233.5 146.3C233.2 147.8 233 149.4 232.8 150.9C232.4 154.7 232.2 158.4 232.3 162.2C232.3 162.9 233.4 162.9 233.4 162.2C233.3 157.5 232.8 152.9 231.9 148.3C231.6 146.8 231.4 144.3 229.8 143.5C228.2 142.7 227.2 144.4 226.9 145.7C226.5 147.9 226.3 150.2 226 152.5C225.7 154.9 225.5 157.3 225.3 159.6C224.9 164.4 224.7 169.1 224.6 173.9C224.5 179.3 224.6 184.7 225 190C225 190.3 225.2 190.5 225.5 190.5C231.2 191.2 236.8 193 242.6 193C243.4 193.1 243.4 192 242.7 192Z" fill="#F7AFA5"/>
<path d="M213.6 248.1C211 247.6 208.6 246.1 206.7 244.2C204 241.5 202.2 238 200.4 234.5C195.2 224.3 190 214.1 184.8 203.8C182.1 198.5 179.3 193.1 175.1 188.9C167.6 181.4 160 181.2 152.7 188.4C146.6 194.5 143.4 203.5 144.5 212.1C144.9 215.5 146 218.7 147 221.9C157.4 254.3 173.4 282.2 205.6 296.9C222.5 304.7 247.1 297.1 255.7 280.3C263.1 265.7 261.3 245.8 261.9 229.8C262 227.2 263.3 174.8 260.8 174.8C257.6 174.7 231.4 173.3 224.7 173.3C224.2 187.2 224.9 201.1 224.4 214.9C224.1 222.7 227.9 246.2 217.2 248C216 248.4 214.8 248.4 213.6 248.1Z" fill="#3F4098"/>
<path d="M213.8 247.6C208.9 246.6 205.6 242.7 203.2 238.6C201.9 236.4 200.8 234.1 199.7 231.9C198.5 229.4 197.2 227 196 224.5C193.5 219.5 190.9 214.5 188.4 209.5C186.1 204.9 183.9 200.3 181.2 195.9C176.9 188.8 169.1 180.3 159.9 183.2C155.6 184.6 152.1 187.9 149.5 191.5C146.9 195 145.1 199.2 144.3 203.5C143.4 208.2 143.8 212.8 145.1 217.4C146.3 221.7 147.8 226 149.3 230.2C152 237.8 155.2 245.2 159 252.3C162.7 259.2 167 265.8 171.9 271.8C176.9 277.8 182.6 283.3 189 287.9C192.3 290.3 195.8 292.5 199.4 294.5C202.8 296.3 206.3 298.1 210 299.2C217 301.2 224.5 301 231.4 299.2C238.4 297.4 245 293.9 250.2 288.8C252.7 286.3 254.9 283.3 256.4 280.1C258.3 276.2 259.5 272 260.4 267.8C262.1 258.8 262.2 249.6 262.2 240.5C262.2 235.9 262.3 231.4 262.4 226.8C262.5 222.5 262.6 218.3 262.6 214C262.7 208.4 262.7 202.8 262.7 197.3C262.7 192.3 262.6 187.3 262.4 182.3C262.3 180.6 262.2 178.9 262 177.3C261.9 176.5 261.8 175.4 261.3 174.8C261 174.5 260.6 174.5 260.2 174.5C259.4 174.5 258.6 174.4 257.9 174.4C255.3 174.3 252.7 174.2 250.1 174C243.7 173.7 237.4 173.4 231 173.2C228.9 173.1 226.8 173 224.7 173C224.4 173 224.2 173.2 224.2 173.5C223.9 181.3 224 189.2 224.1 197C224.1 201 224.1 204.9 224.1 208.9C224.1 211.6 223.9 214.3 223.9 217C224 220.9 224.3 224.7 224.3 228.6C224.3 232.8 224.3 237.1 223.1 241.1C222.6 242.9 221.8 244.7 220.5 246C218.6 247.7 216.2 248.1 213.8 247.6C213.1 247.5 212.8 248.5 213.5 248.6C215.8 249 218.3 248.9 220.2 247.5C221.6 246.5 222.5 245.1 223.2 243.6C224.9 239.8 225.2 235.5 225.3 231.4C225.4 227.2 225.1 223 224.9 218.8C224.8 216.8 224.9 214.9 224.9 212.9C225 208.8 225 204.8 225 200.7C225 191.6 224.8 182.5 225.1 173.4C224.9 173.6 224.7 173.8 224.6 173.9C229.8 173.9 235 174.2 240.2 174.4C246 174.7 251.8 174.9 257.5 175.2C258.3 175.2 259.1 175.3 259.9 175.3C260.1 175.3 260.4 175.4 260.6 175.3L260.4 175.2L260.5 175.3C260.6 175.4 260.5 175.2 260.5 175.4C260.6 175.6 260.6 175.8 260.7 175.9C260.8 176.4 260.9 177 261 177.4C261.5 181.4 261.5 185.4 261.6 189.4C261.7 194.9 261.7 200.3 261.7 205.8C261.7 210.9 261.6 215.9 261.5 221C261.4 223.8 261.4 226.6 261.3 229.4C261.1 237.1 261.2 244.9 260.9 252.6C260.5 261.3 259.6 270.4 255.9 278.5C252.9 285.1 247.7 290.2 241.4 293.7C235.1 297.2 227.9 299.1 220.7 299.2C217.2 299.2 213.7 298.8 210.3 297.8C206.6 296.7 203.1 295 199.8 293.1C192.8 289.3 186.4 284.6 180.6 279.2C175 273.9 170.2 268 165.9 261.6C161.6 255.1 158 248.2 154.9 241.1C151.5 233.4 148.6 225.5 146.3 217.5C145 212.9 144.4 208.2 145.3 203.5C146.1 199.2 147.8 195.1 150.4 191.6C153 188 156.7 184.6 161.1 183.6C165.4 182.6 169.5 184.5 172.8 187.2C176.6 190.3 179.3 194.5 181.7 198.7C184.2 203.2 186.5 207.9 188.8 212.5C191.3 217.4 193.8 222.2 196.2 227.1C197.4 229.5 198.7 231.9 199.9 234.3C201 236.4 202 238.5 203.4 240.5C205.8 244.1 209.1 247.2 213.5 248.1C214.2 248.8 214.5 247.8 213.8 247.6Z" fill="#3F4098"/>
<path d="M233.3 161.1C233.6 155.9 233.4 150.7 232.6 145.5C232.5 144.8 231.4 145.1 231.6 145.8C232.4 150.9 232.6 156 232.3 161.1C232.2 161.8 233.3 161.8 233.3 161.1Z" fill="#0F112E"/>
<path d="M242.8 161.5C243.2 156.6 243.1 151.7 242.7 146.9C242.6 146.2 241.5 146.2 241.6 146.9C242.1 151.8 242.1 156.7 241.7 161.5C241.6 162.2 242.7 162.2 242.8 161.5Z" fill="#0F112E"/>
<path d="M252.3 162.7C252.2 157.5 252.1 152.4 252 147.2C252 146.5 250.9 146.5 250.9 147.2C251 152.4 251.1 157.5 251.2 162.7C251.2 163.4 252.3 163.4 252.3 162.7Z" fill="#0F112E"/>
<path d="M193.2 278.2C192.8 276.7 192.6 274.7 193.9 273.8C195.7 272.4 198.1 274.7 199.2 276.7C201.2 280.1 203.2 283.5 205.2 286.9C202.7 282.9 201.3 278.2 201.3 273.5C201.3 272.6 201.4 271.5 202.1 270.9C203.6 269.5 205.9 271.2 207 272.8C209.7 276.5 211.8 280.6 213.3 285C211.4 279.7 210.6 274 210.7 268.3C210.7 267.1 210.9 265.7 212 265.1C213.5 264.3 215.2 265.9 216.1 267.4C219.5 270.8 222.3 277.8 222.9 282.6C222.3 278.1 219.8 268 222.7 264C223.3 263.2 224.4 262.6 225.3 262.9C226.2 263.1 226.8 264 227.3 264.7C232.1 272 236.9 280.3 239.7 288.6C240.6 291.3 240.7 294.5 239.3 297C237.2 300.6 232.7 302 228.6 302.7C223.8 303.6 218.5 304.5 213.6 304.5C198.8 304.1 195.9 289.9 193.2 278.2Z" fill="#F7AFA5"/>
<path d="M193.7 278C193.4 276.7 193 274.5 194.6 273.9C196.1 273.4 197.6 275.2 198.3 276.3C199.4 278 200.4 279.8 201.4 281.5C202.5 283.4 203.6 285.2 204.7 287.1C205 286.9 205.3 286.7 205.6 286.6C203.2 282.6 201.7 277.9 201.8 273.3C201.8 272.4 202 271 203.2 270.9C204.1 270.8 205.1 271.5 205.7 272.1C206.5 272.9 207.1 273.8 207.7 274.7C208.3 275.7 208.9 276.7 209.5 277.7C210.8 280.1 211.9 282.5 212.8 285C213 285.7 214.1 285.4 213.8 284.7C212.8 281.7 212 278.7 211.6 275.5C211.4 274 211.3 272.4 211.2 270.8C211.2 269.5 211 268 211.4 266.7C211.5 266.2 211.8 265.7 212.3 265.4C213 265.1 213.7 265.4 214.3 265.8C214.8 266.2 215.2 266.7 215.6 267.2C215.9 267.7 216.3 268 216.7 268.5C218.3 270.4 219.4 272.6 220.4 274.8C221.4 277.3 222.2 279.9 222.6 282.5C222.7 283.2 223.7 282.9 223.6 282.2C223.1 278.9 222.4 275.6 222.2 272.2C222.1 270.5 222 268.7 222.3 267C222.5 265.6 223.2 263.2 225 263.1C226.2 263 226.8 264.3 227.4 265.1C228.1 266.1 228.7 267.2 229.4 268.2C230.7 270.4 232.1 272.5 233.3 274.8C235.8 279.2 238.1 283.9 239.6 288.7C240.3 290.9 240.4 293.3 239.5 295.5C238.7 297.4 237.2 298.8 235.5 299.7C233.8 300.6 231.8 301.2 229.9 301.6C227.5 302.1 225.1 302.5 222.7 302.9C218.3 303.6 213.6 304.2 209.2 303C206.2 302.2 203.6 300.5 201.6 298.1C197.4 293.2 195.9 286.4 194.4 280.3C194.1 279.6 193.9 278.8 193.7 278C193.5 277.3 192.5 277.6 192.7 278.3C194.2 284.9 195.6 292.2 199.8 297.8C201.8 300.5 204.4 302.6 207.5 303.7C211.8 305.3 216.5 304.9 221 304.3C223.7 304 226.3 303.5 229 303C231.1 302.6 233.1 302.1 235.1 301.2C236.9 300.4 238.6 299.2 239.8 297.5C241.1 295.6 241.5 293.1 241.2 290.8C240.9 288.3 239.8 285.8 238.9 283.5C237.9 281 236.7 278.6 235.4 276.2C234.1 273.8 232.7 271.4 231.3 269C230.6 267.8 229.8 266.7 229.1 265.5C228.5 264.5 227.9 263.4 227 262.7C225.3 261.3 223.2 262.3 222.3 264C221.5 265.5 221.3 267.2 221.2 268.9C221 272.7 221.8 276.6 222.4 280.4C222.5 281.1 222.6 281.8 222.7 282.6C223 282.5 223.4 282.4 223.7 282.3C223.3 279.6 222.5 277.1 221.5 274.6C220.5 272.1 219.2 269.7 217.5 267.7C216.2 266.1 213.8 262.8 211.5 265C210.6 265.8 210.5 267.1 210.5 268.3C210.4 270.1 210.5 271.9 210.7 273.7C211 277.6 211.9 281.4 213.1 285.1C213.4 285 213.8 284.9 214.1 284.8C213.2 282.3 212.1 279.8 210.8 277.4C210.1 276.2 209.4 275 208.7 273.9C208 272.9 207.4 271.9 206.4 271.1C204.9 269.8 202.4 269 201.4 271.2C200.9 272.3 201 273.6 201 274.8C201.1 276.1 201.3 277.4 201.5 278.7C202.1 281.7 203.3 284.5 204.9 287.1C205.3 287.7 206.2 287.2 205.8 286.6C204.5 284.4 203.2 282.1 201.8 279.9C200.7 278 199.6 275.7 198 274.2C196.8 273.1 195 272.3 193.6 273.5C192.2 274.7 192.5 276.8 192.8 278.4C192.8 279 193.9 278.7 193.7 278Z" fill="#F7AFA5"/>
<path d="M200.6 278.3C202 281.6 203.2 284.9 204.1 288.3C204.3 289 205.3 288.7 205.1 288C204.2 284.5 203 281 201.5 277.7C201.3 277.1 200.3 277.7 200.6 278.3Z" fill="#0F112E"/>
<path d="M209.1 275C210 279.1 211 283.1 211.9 287.2C212.1 287.9 213.1 287.6 212.9 286.9C212 282.8 211 278.8 210.1 274.7C210 274 209 274.3 209.1 275Z" fill="#0F112E"/>
<path d="M219.7 271.3C220.6 275.9 221.4 280.5 222.3 285.1C222.4 285.8 223.5 285.5 223.3 284.8C222.4 280.2 221.6 275.6 220.7 271C220.6 270.3 219.6 270.6 219.7 271.3Z" fill="#0F112E"/>
<path d="M224.1 173.5C223.9 183.7 223.8 193.8 223.7 204C223.6 208.5 223.4 213 223.6 217.5C223.7 221.6 224.1 225.6 224 229.7C223.9 233.7 223.4 237.8 221.6 241.4C220.8 243 219.7 244.9 218.1 245.7C216.6 246.5 214.7 246.4 213.1 246C211.4 245.5 209.9 244.7 208.8 243.3C207.2 241.4 205.7 239.3 204.4 237.2C201.8 233.1 199.6 228.7 197.3 224.4C194.8 219.7 192 215.1 189.4 210.4C186.7 205.6 184.1 200.8 181.5 196C180.8 194.8 180.2 193.6 179.5 192.4C179.2 191.8 178.2 192.3 178.6 192.9C181.3 197.9 184 202.9 186.8 207.9C189.5 212.8 192.3 217.6 195.1 222.5C197.6 226.9 199.8 231.4 202.4 235.8C203.7 238 205.1 240.1 206.6 242.2C207.8 243.8 209 245.3 210.8 246.2C213.8 247.8 218.1 248.1 220.5 245.3C223.1 242.2 224.4 238.3 224.9 234.3C225.5 230.1 225.3 225.9 225.1 221.7C225 219.7 224.9 217.6 224.9 215.6C224.9 213.3 225 211 225 208.7C225.2 198.4 225.2 188.1 225.4 177.8C225.4 176.4 225.5 175 225.5 173.5C225.2 172.8 224.1 172.8 224.1 173.5Z" fill="#0F112E"/>
<path d="M146.2 223.3C147.6 227.9 149 232.5 150.8 236.9C152.4 241.1 154.3 245.1 156.5 249C160.8 256.9 166 264.3 171.2 271.7C174 275.6 176.6 279.7 180.4 282.7C181 283.1 181.5 282.2 180.9 281.8C177.5 279.2 175.1 275.5 172.6 272C170 268.4 167.5 264.8 165 261.1C160.1 253.8 155.6 246.2 152.3 238.1C150.3 233.2 148.7 228.1 147.2 223C147 222.3 146 222.6 146.2 223.3Z" fill="#0F112E"/>
<path d="M262.4 212.8C262.7 219.5 262.9 226.3 262.8 233C262.7 237.8 262.6 242.5 262.4 247.3C262.1 257.3 261.5 267.8 257.9 277.3C256.1 282 253.3 286.5 249 289.2C248.4 289.6 249 290.5 249.5 290.1C257.8 284.9 260.6 274.2 262 265.1C263.5 255.3 263.6 245.3 263.8 235.4C264 227.8 263.8 220.3 263.5 212.7C263.5 212.1 262.4 212.1 262.4 212.8Z" fill="#0F112E"/>
<path d="M212.3 91.7002C214 91.7002 214.1 89.0002 212.3 89.0002C210.6 88.9002 210.6 91.7002 212.3 91.7002Z" fill="#0F112E"/>
<path d="M240 90.7C241.7 90.7 241.8 88 240 88C238.2 88 238.2 90.7 240 90.7Z" fill="#0F112E"/>
<path d="M246.3 129C245.5 127.5 244.3 126.3 243.1 125.2C241.8 124 240.3 123 238.6 122.5C236.7 121.9 234.6 121.6 232.6 121.7C230.9 121.8 229.2 122.4 228.2 123.9C227.1 125.6 227.1 127.8 227.2 129.7C227.2 130.4 228.3 130.4 228.3 129.7C228.2 127.8 228 125.5 229.5 124.1C231 122.5 233.7 122.8 235.7 123.1C237.9 123.4 239.9 124.1 241.6 125.5C243.1 126.7 244.5 128.1 245.4 129.8C245.7 130.1 246.6 129.6 246.3 129Z" fill="#0F112E"/>
</svg>
