<svg width="375" height="418" viewBox="0 0 375 418" fill="none" xmlns="http://www.w3.org/2000/svg">
<mask id="mask0" mask-type="alpha" maskUnits="userSpaceOnUse" x="0" y="0" width="375" height="394">
<path fill-rule="evenodd" clip-rule="evenodd" d="M0.104858 0.325195H374.73V393.989H0.104858V0.325195Z" fill="white"/>
</mask>
<g mask="url(#mask0)">
<path fill-rule="evenodd" clip-rule="evenodd" d="M708.196 185.534C708.34 201.645 705.653 217.744 700.226 233.16C699.242 235.979 698.167 238.771 696.988 241.537C696.096 243.661 695.152 245.772 694.143 247.87C693.12 250.006 692.032 252.13 690.891 254.227L690.879 254.241C679.028 276.186 661.172 295.863 637.746 310.926H637.733C633.839 313.456 629.789 315.829 625.58 318.057C624.663 318.556 623.732 319.041 622.801 319.513C622.408 319.722 622.015 319.919 621.621 320.116C621.569 320.142 621.516 320.168 621.464 320.194C621.241 320.312 621.005 320.43 620.769 320.535C616.902 322.449 612.917 324.258 608.8 325.923C606.952 326.684 605.09 327.418 603.202 328.112C601.419 328.781 599.61 329.41 597.788 330.013C597.434 330.145 597.094 330.262 596.739 330.38C596.215 330.564 595.677 330.734 595.153 330.905C593.423 331.456 591.666 331.993 589.896 332.504C579.605 335.52 568.698 337.813 557.162 339.308C551.826 340.003 545.482 340.619 538.507 341.143C537.196 341.248 535.859 341.34 534.509 341.432C533.433 341.51 532.346 341.589 531.231 341.655C510.846 342.966 486.476 343.66 465.789 343.713C464.242 343.726 462.721 343.726 461.214 343.726C460.44 343.726 459.667 343.726 458.906 343.713C453.492 343.7 448.432 343.634 443.87 343.516C429.292 343.162 414.452 342.415 399.416 341.392C394.945 341.078 390.462 340.75 385.965 340.396C384.628 340.278 383.278 340.173 381.928 340.068C378.991 339.82 376.028 339.57 373.079 339.308C372.371 339.256 371.663 339.19 370.955 339.124C370.378 339.072 369.788 339.02 369.211 338.967C368.831 338.928 368.438 338.902 368.058 338.862C362.905 338.39 357.741 337.892 352.562 337.381C342.363 336.358 332.138 335.244 321.912 334.064C291.8 330.63 261.714 326.671 232.453 322.869C215.424 320.666 198.683 318.503 182.375 316.537C169.698 315.016 157.283 313.6 145.223 312.381C105.068 308.265 68.6503 306.141 38.6818 308.33C36.4139 308.501 34.1461 308.697 31.8779 308.946C23.711 309.759 15.4782 311.018 7.21912 312.617C6.53763 312.748 5.86914 312.879 5.18732 313.023C5.05615 313.05 4.93799 313.076 4.80713 313.102C1.37238 313.784 -2.06238 314.544 -5.5101 315.357C-5.96887 315.449 -6.42795 315.567 -6.89969 315.685C-12.0909 316.917 -17.3084 318.267 -22.513 319.735C-27.2718 321.072 -32.0435 322.489 -36.8156 323.983C-38.8211 324.612 -40.827 325.255 -42.8328 325.91C-44.9432 326.592 -47.0409 327.287 -49.1516 327.995C-49.2302 328.021 -49.3088 328.06 -49.4007 328.086C-49.8857 328.244 -50.3578 328.414 -50.8559 328.571C-52.4422 329.108 -54.0283 329.659 -55.6276 330.21C-60.0981 331.77 -64.5685 333.383 -69.0387 335.021C-69.4059 335.152 -69.7861 335.296 -70.153 335.427C-71.8179 336.057 -73.4828 336.66 -75.1607 337.289C-76.4981 337.8 -77.8221 338.298 -79.1591 338.81C-79.6179 338.98 -80.09 339.151 -80.5487 339.334C-80.562 339.334 -80.562 339.334 -80.575 339.347C-81.6107 339.741 -82.6331 340.134 -83.6689 340.527C-85.1241 341.091 -86.5659 341.642 -88.0344 342.218C-94.4841 344.709 -100.921 347.265 -107.305 349.795C-131.191 359.339 -154.578 368.922 -176.943 376.722C-185.018 379.554 -192.976 382.15 -200.776 384.418C-218.421 389.544 -235.267 393.018 -251.011 393.804C-253.332 393.935 -255.626 394.001 -257.894 393.988C-271.108 393.975 -283.483 391.89 -294.863 387.079C-376.037 352.758 -318.315 265.292 -281.937 211.294C-265.956 187.566 -264.881 175.702 -270.23 164.965C-277.06 151.266 -294.338 139.388 -304.406 107.047C-322.393 49.3263 -266.048 -2.45614 -104.841 0.441265C-13.9789 2.07958 30.7376 16.7887 195.222 50.3094C260.088 63.5241 322.45 56.2744 380.105 47.8055C384.497 47.163 388.875 46.5078 393.215 45.8653C394.381 45.6819 395.535 45.5117 396.689 45.3409C397.2 45.2624 397.711 45.1838 398.209 45.1182C479.239 32.9393 573.509 9.98477 656.073 78.639C684.756 102.485 701.235 132.886 706.413 164.506C706.781 166.669 707.095 168.845 707.318 171.008C707.881 175.833 708.17 180.683 708.196 185.534Z" fill="#EBF0FC"/>
</g>
<mask id="mask1" mask-type="alpha" maskUnits="userSpaceOnUse" x="0" y="0" width="375" height="230">
<path fill-rule="evenodd" clip-rule="evenodd" d="M0.104858 0.325195H374.73V229.351H0.104858V0.325195Z" fill="white"/>
</mask>
<g mask="url(#mask1)">
<path fill-rule="evenodd" clip-rule="evenodd" d="M708.196 185.534C684.861 164.663 651.55 137.946 603.202 112.619C468.07 41.8406 498.431 137.514 408.094 203.441C317.756 269.356 316.891 197.319 193.505 123.264C70.1055 49.1952 110.391 176.842 -7.97473 187.055C-115.263 196.31 -217.307 139.074 -270.23 164.965C-277.06 151.266 -294.338 139.388 -304.406 107.047C-322.393 49.3263 -266.048 -2.45614 -104.841 0.441265C-13.9789 2.07958 30.7376 16.7887 195.222 50.3094C260.088 63.5241 322.45 56.2744 380.105 47.8055C384.497 47.163 388.875 46.5078 393.215 45.8653C394.381 45.6819 395.535 45.5117 396.689 45.3409C397.2 45.2624 397.711 45.1838 398.209 45.1182C479.239 32.9393 573.509 9.98477 656.073 78.639C684.756 102.485 701.235 132.886 706.413 164.506C706.78 166.669 707.095 168.845 707.318 171.008C707.881 175.833 708.17 180.683 708.196 185.534Z" fill="#F5F7FC"/>
</g>
<path fill-rule="evenodd" clip-rule="evenodd" d="M296.624 192.355H122.548C121.108 192.355 119.777 191.897 118.701 191.122C117.106 189.972 116.071 188.124 116.071 186.04V77.0781C116.071 75.3343 116.796 73.7557 117.968 72.6129C119.14 71.47 120.759 70.7632 122.548 70.7632H296.624C298.413 70.7632 300.032 71.47 301.204 72.6129C302.376 73.7557 303.101 75.3343 303.101 77.0781V186.04C303.101 188.36 301.819 190.387 299.908 191.485C298.945 192.038 297.822 192.355 296.624 192.355Z" fill="white"/>
<mask id="mask2" mask-type="alpha" maskUnits="userSpaceOnUse" x="0" y="0" width="375" height="418">
<path fill-rule="evenodd" clip-rule="evenodd" d="M0.104858 417.02H374.73V0.325195H0.104858V417.02Z" fill="white"/>
</mask>
<g mask="url(#mask2)">
<path fill-rule="evenodd" clip-rule="evenodd" d="M139.871 157.638H183.702V153.575H139.871V157.638Z" fill="#C0D2FF"/>
<path fill-rule="evenodd" clip-rule="evenodd" d="M155.153 153.575L154.109 157.639L147.528 183.105L143.391 182.897L149.909 157.639L150.964 153.575H155.153Z" fill="#C0D2FF"/>
<path fill-rule="evenodd" clip-rule="evenodd" d="M182.956 65.3753V125.847C182.956 127.711 182.29 129.431 181.192 130.773C179.772 132.505 177.608 133.614 175.189 133.614H65.8963C64.1875 133.614 62.6008 133.059 61.3245 132.127C59.383 130.707 58.1291 128.421 58.1291 125.847V65.3753C58.1291 65.0315 58.1515 64.6987 58.2067 64.3659C58.2846 63.6444 58.4732 62.9675 58.7505 62.324C59.1499 61.4032 59.7047 60.5818 60.4038 59.8831C61.8129 58.474 63.7547 57.6084 65.8963 57.6084H175.189C177.33 57.6084 179.272 58.474 180.681 59.8831C182.09 61.2922 182.956 63.2337 182.956 65.3753Z" fill="#9FC3FC"/>
<path fill-rule="evenodd" clip-rule="evenodd" d="M182.956 67.6387V79.977C181.447 80.0659 179.893 80.2211 178.44 80.4653C173.07 81.3861 152.543 99.8828 141.824 112.832C131.095 125.769 109.458 128.92 99.4719 130.951C97.2638 131.406 94.8671 132.371 92.4593 133.614H84.7365C90.5063 130.917 96.7089 128.51 101.325 127.988C112.787 126.701 131.96 112.476 143.488 101.547C154.64 90.9728 163.605 67.7718 182.956 67.6387Z" fill="#C0D2FF"/>
<path fill-rule="evenodd" clip-rule="evenodd" d="M182.956 116.837V117.392C171.006 116.227 162.263 112.099 155.183 108.76C150.723 106.651 146.862 104.831 143.455 104.41C134.501 103.311 111.311 100.926 111.078 100.904L100.06 98.2631L58.1291 118.524V117.891L99.9934 97.6748L111.178 100.36C111.377 100.371 134.556 102.768 143.522 103.866C147.028 104.288 150.912 106.13 155.416 108.249C162.462 111.578 171.128 115.672 182.956 116.837Z" fill="#E6EAFD"/>
<path fill-rule="evenodd" clip-rule="evenodd" d="M164.016 133.614H161.319C151.999 129.12 146.285 122.907 142.889 119.212C142.49 118.779 142.124 118.369 141.791 118.014C137.641 113.631 131.827 113.231 116.282 112.155C114.739 112.044 113.097 111.933 111.355 111.811C99.5384 110.968 97.1306 107.939 94.3458 104.432C92.4592 102.08 90.5176 99.6392 85.3803 97.3421C72.7423 91.6947 63.0004 79.7112 58.2069 64.3658C58.2845 63.6447 58.4731 62.9677 58.7504 62.3242C63.2442 78.1801 73.0195 90.596 85.8241 96.3213C91.2166 98.7291 93.3358 101.392 95.2111 103.744C97.9406 107.184 100.104 109.891 111.444 110.701C113.175 110.824 114.817 110.946 116.359 111.045C132.215 112.144 138.151 112.554 142.59 117.259C142.934 117.614 143.3 118.025 143.71 118.457C147.306 122.374 153.541 129.165 164.016 133.614Z" fill="#322FE6"/>
<path fill-rule="evenodd" clip-rule="evenodd" d="M141.891 57.6084L132.737 67.8831L130.418 87.4448L110.368 100.993L95.9544 133.614H94.745L109.48 100.26L129.375 86.8013L131.672 67.3948L140.393 57.6084H141.891Z" fill="#C0D2FF"/>
<path fill-rule="evenodd" clip-rule="evenodd" d="M171.483 87.855L171.206 88.2543L156.504 109.481L155.583 108.848L169.863 88.2433C166.346 86.3683 147.949 76.5261 145.441 74.8176C142.778 73.0199 131.561 67.9605 131.45 67.905L112.953 57.6079H115.228L131.949 66.9173C132.371 67.106 143.322 72.0436 146.063 73.9079C148.537 75.5832 167.589 85.78 170.54 87.3446C170.784 87.4777 170.917 87.5443 170.928 87.5556L171.483 87.855Z" fill="#C0D2FF"/>
<path fill-rule="evenodd" clip-rule="evenodd" d="M182.956 82.7177V83.8385C175.744 83.7054 172.038 87.3226 171.206 88.2544C171.095 88.3765 171.028 88.4541 171.028 88.4651L170.14 87.7995C170.174 87.755 170.296 87.5885 170.54 87.3447C171.716 86.0687 175.633 82.5736 182.956 82.7177Z" fill="#C0D2FF"/>
<path fill-rule="evenodd" clip-rule="evenodd" d="M100.421 90.3979C97.9505 90.3979 95.9473 88.395 95.9473 85.9239C95.9473 83.4528 97.9505 81.4499 100.421 81.4499C102.892 81.4499 104.895 83.4528 104.895 85.9239C104.895 88.395 102.892 90.3979 100.421 90.3979ZM105.146 81.7242C103.736 79.7852 101.686 78.8813 99.5479 78.8813C99.5479 78.8813 94.3099 78.8813 92.7589 83.5703C92.1872 85.2982 92.3138 87.1749 93.0076 88.8576C93.2473 89.4395 93.5661 90.0706 93.9859 90.6775C95.3385 92.6307 99.5479 97.9651 99.5479 97.9651H100.463C101.638 96.3333 104.595 90.9125 105.481 89.1745C106.594 86.9924 106.765 83.9512 105.146 81.7242Z" fill="#FE5900"/>
<path fill-rule="evenodd" clip-rule="evenodd" d="M100.427 90.4347C97.9455 90.4402 95.9442 88.4581 95.9533 85.9607C95.9627 83.4896 97.9565 81.4866 100.427 81.4866C102.898 81.4866 104.903 83.4896 104.901 85.9607C104.899 88.4396 102.892 90.4292 100.427 90.4347ZM106.067 81.761C104.657 79.8224 102.608 78.9181 100.469 78.9185C100.469 78.9185 95.2312 78.9181 93.6799 83.6071C93.1085 85.335 93.2351 87.2116 93.9286 88.8944C94.1685 89.4762 94.487 90.1074 94.9072 90.7142C96.2595 92.6675 100.469 98.0022 100.469 98.0022C100.469 98.0022 105.332 91.3116 106.402 89.2113C107.515 87.0292 107.686 83.9879 106.067 81.761Z" fill="#FF7600"/>
<path fill-rule="evenodd" clip-rule="evenodd" d="M207.243 120.08H273.4V114.509H207.243V120.08Z" fill="#E6EAFD"/>
<path fill-rule="evenodd" clip-rule="evenodd" d="M207.243 136.716H273.4V122.518H207.243V136.716Z" fill="#E6EAFD"/>
<path fill-rule="evenodd" clip-rule="evenodd" d="M280.333 179.994H200.31C199.928 179.994 199.575 179.872 199.286 179.666C198.838 179.346 198.547 178.823 198.547 178.231V167.785C198.547 167.35 198.704 166.952 198.966 166.644C199.289 166.264 199.771 166.022 200.31 166.022H280.333C280.725 166.022 281.087 166.15 281.38 166.367C281.814 166.688 282.096 167.204 282.096 167.785V178.231C282.096 178.683 281.926 179.096 281.646 179.408C281.323 179.768 280.854 179.994 280.333 179.994Z" fill="#F1F4FF"/>
<path fill-rule="evenodd" clip-rule="evenodd" d="M208.113 141.494H202.368C201.974 141.494 201.614 141.348 201.339 141.108C201.009 140.821 200.801 140.398 200.801 139.927V106.413C200.801 106.019 200.947 105.659 201.187 105.384C201.474 105.054 201.897 104.846 202.368 104.846H208.113C208.546 104.846 208.938 105.022 209.221 105.305C209.505 105.589 209.68 105.981 209.68 106.413V139.927C209.68 140.36 209.505 140.751 209.221 141.035C208.938 141.318 208.546 141.494 208.113 141.494Z" fill="#F1F4FF"/>
<path fill-rule="evenodd" clip-rule="evenodd" d="M277.23 141.494H271.485C271.091 141.494 270.731 141.348 270.456 141.108C270.126 140.821 269.918 140.398 269.918 139.927V106.413C269.918 106.019 270.064 105.659 270.304 105.384C270.591 105.054 271.014 104.846 271.485 104.846H277.23C277.663 104.846 278.055 105.022 278.338 105.305C278.622 105.589 278.797 105.981 278.797 106.413V139.927C278.797 140.36 278.622 140.751 278.338 141.035C278.055 141.318 277.663 141.494 277.23 141.494Z" fill="#F1F4FF"/>
<path fill-rule="evenodd" clip-rule="evenodd" d="M280.333 169.897H200.31C199.928 169.897 199.575 169.561 199.286 168.991C198.838 168.108 198.547 166.661 198.547 165.026V136.163C198.547 134.96 198.704 133.86 198.966 133.01C199.289 131.959 199.771 131.292 200.31 131.292H280.333C280.725 131.292 281.087 131.645 281.38 132.243C281.814 133.13 282.096 134.555 282.096 136.163V165.026C282.096 166.276 281.926 167.416 281.646 168.278C281.323 169.272 280.854 169.897 280.333 169.897Z" fill="#C0D2FF"/>
<path fill-rule="evenodd" clip-rule="evenodd" d="M240.81 120.668C236.896 120.322 233.261 116.431 231.335 117.663C229.409 118.896 230.718 122.671 233.106 125.29C235.495 127.909 234.262 133.071 231.951 134.92C229.64 136.769 228.099 140.079 231.951 139.348C235.803 138.618 237.112 137.539 240.425 137.539C243.738 137.539 251.056 137.231 252.905 138.155C254.754 139.08 262.689 140.269 260.609 136.862C258.529 133.456 258.529 127.986 259.916 124.751C261.302 121.515 265.154 118.453 262.766 117.442C260.378 116.431 257.527 119.358 253.984 120.206C250.44 121.053 241.948 120.768 240.81 120.668Z" fill="#F1F4FF"/>
<path fill-rule="evenodd" clip-rule="evenodd" d="M222.663 122.71C218.748 122.365 215.113 118.473 213.187 119.706C211.262 120.938 212.571 124.713 214.959 127.333C217.347 129.952 216.115 135.113 213.804 136.962C211.493 138.811 209.952 142.121 213.804 141.39C217.655 140.66 218.965 139.581 222.277 139.581C225.59 139.581 232.909 139.273 234.758 140.197C236.607 141.122 244.541 142.311 242.461 138.905C240.381 135.498 240.381 130.029 241.768 126.793C243.155 123.558 247.007 120.495 244.618 119.484C242.23 118.473 239.38 121.401 235.836 122.248C232.292 123.096 223.8 122.811 222.663 122.71Z" fill="white"/>
<path fill-rule="evenodd" clip-rule="evenodd" d="M263.817 100.029H214.548C213.178 100.029 211.937 99.4741 211.039 98.5761C210.142 97.678 209.586 96.4378 209.586 95.0676V86.0027C209.586 84.8199 210 83.7335 210.691 82.881C211.601 81.7585 212.99 81.041 214.548 81.041H263.817C265.188 81.041 266.428 81.5962 267.326 82.4943C268.224 83.392 268.779 84.6326 268.779 86.0027V95.0676C268.779 96.6728 268.017 98.0998 266.835 99.0069C265.999 99.6482 264.953 100.029 263.817 100.029Z" fill="#FC8000"/>
<path fill-rule="evenodd" clip-rule="evenodd" d="M263.817 98.4624H214.548C213.178 98.4624 211.937 97.9072 211.039 97.0092C210.142 96.1115 209.586 94.8709 209.586 93.5007V84.4358C209.586 83.253 210 82.1667 210.691 81.3141C211.601 80.1917 212.99 79.4741 214.548 79.4741H263.817C265.188 79.4741 266.428 80.0296 267.326 80.9274C268.224 81.8251 268.779 83.0657 268.779 84.4358V93.5007C268.779 95.1059 268.017 96.5329 266.835 97.4397C265.999 98.0813 264.953 98.4624 263.817 98.4624Z" fill="#FDA218"/>
<path fill-rule="evenodd" clip-rule="evenodd" d="M220.491 89.9152C220.282 89.9152 219.97 89.9071 219.553 89.8912V91.1798C219.948 91.1587 220.376 91.0834 220.839 90.9522C221.243 90.8373 221.443 90.7133 221.437 90.5802C221.431 90.4032 221.301 90.2464 221.049 90.1081C220.851 89.9977 220.665 89.9337 220.491 89.9152ZM220.088 87.4798C219.791 87.4798 219.614 87.4821 219.553 87.487L219.557 88.2172L219.553 88.9405C219.762 88.9659 219.92 88.9737 220.025 88.9646C220.728 88.9094 221.079 88.6513 221.079 88.1899C221.079 88.0266 220.976 87.8694 220.769 87.7172C220.556 87.5594 220.329 87.4798 220.088 87.4798ZM221.179 91.8237C220.644 92.0233 219.969 92.123 219.15 92.123C219.013 92.123 218.889 92.0662 218.78 91.9509C218.671 91.836 218.617 91.7136 218.617 91.5824V87.9311C218.61 87.775 218.604 87.6191 218.6 87.4629C218.592 87.2857 218.598 87.1363 218.617 87.0149C218.648 86.7993 218.849 86.6685 219.22 86.6224C219.394 86.572 219.683 86.5464 220.088 86.5464C220.521 86.5464 220.938 86.6866 221.334 86.9665C221.8 87.2931 222.033 87.7006 222.033 88.1899C222.033 88.4535 221.985 88.6763 221.89 88.8581C221.813 89.0048 221.681 89.162 221.493 89.3295C221.716 89.4379 221.913 89.6006 222.085 89.8188C222.28 90.0623 222.378 90.3045 222.378 90.5457C222.378 90.8513 222.212 91.1402 221.879 91.4139C221.656 91.5954 221.423 91.7321 221.179 91.8237Z" fill="white"/>
<path fill-rule="evenodd" clip-rule="evenodd" d="M225.595 87.673C225.083 87.673 224.644 87.9208 224.279 88.4165C223.937 88.8808 223.766 89.3948 223.766 89.96C223.766 90.3409 223.914 90.6509 224.21 90.8899C224.494 91.1198 224.855 91.2347 225.289 91.2347C225.793 91.2347 226.214 90.9867 226.552 90.4906C226.862 90.038 227.017 89.524 227.017 88.9471C227.017 88.4649 226.909 88.1298 226.694 87.9412C226.487 87.762 226.121 87.673 225.595 87.673ZM225.289 92.1682C224.609 92.1682 224.029 91.9727 223.552 91.5824C223.042 91.1643 222.788 90.6237 222.788 89.96C222.788 89.1792 223.032 88.4675 223.521 87.8243C224.07 87.1013 224.761 86.7393 225.595 86.7393C226.396 86.7393 226.997 86.923 227.397 87.2906C227.796 87.6578 227.996 88.21 227.996 88.9471C227.996 89.7279 227.771 90.4354 227.32 91.0695C226.802 91.8019 226.125 92.1682 225.289 92.1682Z" fill="white"/>
<path fill-rule="evenodd" clip-rule="evenodd" d="M231.227 87.673C230.715 87.673 230.276 87.9208 229.911 88.4165C229.569 88.8808 229.398 89.3948 229.398 89.96C229.398 90.3409 229.546 90.6509 229.842 90.8899C230.126 91.1198 230.487 91.2347 230.92 91.2347C231.425 91.2347 231.847 90.9867 232.184 90.4906C232.494 90.038 232.649 89.524 232.649 88.9471C232.649 88.4649 232.541 88.1298 232.326 87.9412C232.119 87.762 231.753 87.673 231.227 87.673ZM230.92 92.1682C230.241 92.1682 229.661 91.9727 229.184 91.5824C228.674 91.1643 228.42 90.6237 228.42 89.96C228.42 89.1792 228.664 88.4675 229.153 87.8243C229.702 87.1013 230.393 86.7393 231.227 86.7393C232.028 86.7393 232.629 86.923 233.029 87.2906C233.427 87.6578 233.628 88.21 233.628 88.9471C233.628 89.7279 233.403 90.4354 232.952 91.0695C232.434 91.8019 231.757 92.1682 230.92 92.1682Z" fill="white"/>
<path fill-rule="evenodd" clip-rule="evenodd" d="M235.206 90.4318L235.201 91.8818C235.201 91.9828 235.173 92.0763 235.116 92.161C235.035 92.2782 234.918 92.337 234.765 92.337C234.584 92.337 234.441 92.2633 234.337 92.1165C234.257 92.0013 234.217 91.8789 234.217 91.7477C234.217 91.2383 234.233 90.4721 234.265 89.45C234.297 88.4282 234.313 87.6623 234.313 87.1526C234.313 87.024 234.359 86.914 234.451 86.8221C234.543 86.7305 234.658 86.6841 234.796 86.6841C234.933 86.6841 235.047 86.7305 235.138 86.8221C235.229 86.914 235.274 87.024 235.274 87.1526C235.274 87.3594 235.264 87.6383 235.243 87.9899C235.218 88.3984 235.204 88.6773 235.199 88.8266C235.36 88.675 235.956 88.0367 236.987 86.9114C237.092 86.7967 237.213 86.739 237.352 86.739C237.483 86.739 237.597 86.7854 237.695 86.8773C237.792 86.9691 237.841 87.0802 237.841 87.2114C237.841 87.3536 237.567 87.7234 237.021 88.3201C236.617 88.7588 236.191 89.1919 235.743 89.6188C235.993 89.8555 236.244 90.0922 236.497 90.3289C236.791 90.5997 237.055 90.8227 237.29 90.9971C237.407 91.0815 237.533 91.1458 237.668 91.1896C237.914 91.2678 238.036 91.4182 238.036 91.6412C238.036 91.7396 238.006 91.8351 237.944 91.9266C237.859 92.0506 237.741 92.113 237.59 92.113C237.261 92.113 236.835 91.8984 236.311 91.4688C236.156 91.3403 235.786 90.9945 235.206 90.4318Z" fill="white"/>
<path fill-rule="evenodd" clip-rule="evenodd" d="M246.659 91.111C246.659 91.2256 246.639 91.4068 246.6 91.6552C246.554 91.9509 246.387 92.0993 246.098 92.0993C245.937 92.0993 245.756 92.0087 245.554 91.8269C244.669 91.0302 243.672 89.9133 242.56 88.4753C242.546 89.0727 242.54 89.4389 242.54 89.5747C242.54 89.7558 242.543 90.0289 242.552 90.3941C242.56 90.7594 242.564 91.0328 242.564 91.2139C242.564 91.8912 242.399 92.2305 242.067 92.2305C241.9 92.2305 241.765 92.1785 241.664 92.0753C241.575 91.9831 241.53 91.8721 241.53 91.7412C241.53 91.6497 241.538 91.51 241.553 91.324C241.567 91.1383 241.575 90.9993 241.575 90.9074C241.575 90.7724 241.579 90.5688 241.589 90.298C241.598 90.0269 241.603 89.8237 241.603 89.688C241.603 89.5435 241.599 89.3253 241.592 89.0334C241.585 88.7422 241.581 88.524 241.581 88.3789C241.581 88.2415 241.568 88.0357 241.54 87.7623C241.513 87.4896 241.499 87.2841 241.499 87.1458C241.499 87.0081 241.558 86.885 241.676 86.7776C241.795 86.6695 241.929 86.6152 242.081 86.6152C242.252 86.6152 242.439 86.7626 242.646 87.0565C243.689 88.5445 244.717 89.7581 245.732 90.6974C245.735 90.624 245.736 90.4493 245.736 90.174C245.736 89.0415 245.724 88.2779 245.702 87.8834C245.696 87.8165 245.682 87.6925 245.657 87.511C245.633 87.3503 245.622 87.2237 245.622 87.1321C245.622 86.8152 245.79 86.6568 246.125 86.6568C246.499 86.6568 246.687 87.2347 246.687 88.3893C246.687 88.4149 246.684 88.5964 246.68 88.9334C246.666 90.1006 246.659 90.8259 246.659 91.111Z" fill="white"/>
<path fill-rule="evenodd" clip-rule="evenodd" d="M249.962 87.673C249.45 87.673 249.012 87.9208 248.647 88.4165C248.304 88.8808 248.133 89.3948 248.133 89.96C248.133 90.3409 248.281 90.6509 248.577 90.8899C248.862 91.1198 249.222 91.2347 249.656 91.2347C250.16 91.2347 250.582 90.9867 250.919 90.4906C251.229 90.038 251.385 89.524 251.385 88.9471C251.385 88.4649 251.276 88.1298 251.061 87.9412C250.854 87.762 250.488 87.673 249.962 87.673ZM249.656 92.1682C248.976 92.1682 248.397 91.9727 247.919 91.5824C247.409 91.1643 247.155 90.6237 247.155 89.96C247.155 89.1792 247.399 88.4675 247.888 87.8243C248.437 87.1013 249.128 86.7393 249.962 86.7393C250.763 86.7393 251.364 86.923 251.764 87.2906C252.163 87.6578 252.363 88.21 252.363 88.9471C252.363 89.7279 252.138 90.4354 251.687 91.0695C251.169 91.8019 250.492 92.1682 249.656 92.1682Z" fill="white"/>
<path fill-rule="evenodd" clip-rule="evenodd" d="M259.649 87.5382C259.61 87.6327 259.563 87.7482 259.511 87.8862C259.472 88.0197 259.409 88.2171 259.321 88.4788C259.19 88.8164 258.982 89.3077 258.698 89.9528C258.406 90.6096 258.197 91.0999 258.071 91.4239C257.976 91.6651 257.889 91.858 257.806 92.0025C257.698 92.1931 257.534 92.2882 257.313 92.2882C257.182 92.2882 257.063 92.2528 256.958 92.1817C256.834 92.0989 256.768 91.9898 256.759 91.8541C256.652 91.5905 256.586 91.3742 256.558 91.207C256.458 90.7155 256.318 89.9771 256.138 88.9918C255.989 89.4534 255.828 89.8681 255.656 90.2353C255.399 90.7866 255.23 91.2197 255.15 91.534C255.17 91.5843 255.18 91.6385 255.18 91.6963C255.18 91.8385 255.117 91.9544 254.991 92.044C254.881 92.1194 254.759 92.1577 254.626 92.1577C254.458 92.1577 254.319 92.1148 254.209 92.0301C254.09 91.9359 254.028 91.8073 254.024 91.644L253.916 91.2411C253.841 90.8833 253.716 90.3479 253.544 89.6359C253.393 89.0918 253.139 88.3171 252.783 87.3112C252.763 87.2538 252.752 87.196 252.752 87.1388C252.752 87.0012 252.806 86.8921 252.911 86.8116C253.004 86.7379 253.119 86.7012 253.251 86.7012C253.427 86.7012 253.566 86.7745 253.669 86.9216C253.726 87.0021 253.791 87.1479 253.865 87.3593C254.09 88.007 254.344 88.9505 254.626 90.1905C254.81 89.7434 254.997 89.2148 255.187 88.6064C255.341 88.1099 255.467 87.7577 255.563 87.5489C255.792 87.0479 256.027 86.7976 256.266 86.7976C256.491 86.7976 256.655 86.9207 256.759 87.1664C256.808 87.2836 256.858 87.496 256.906 87.8034C256.921 87.8979 256.95 88.1284 256.996 88.496C257.044 88.8908 257.189 89.6096 257.43 90.6521C257.674 90.0827 258.001 89.2616 258.412 88.1895C258.438 88.1252 258.497 87.9135 258.59 87.5557C258.658 87.2986 258.741 87.095 258.843 86.946C258.952 86.7853 259.1 86.7047 259.283 86.7047C259.423 86.7047 259.539 86.7476 259.631 86.834C259.723 86.92 259.769 87.0307 259.769 87.1664C259.769 87.2142 259.729 87.3388 259.649 87.5382Z" fill="white"/>
<path fill-rule="evenodd" clip-rule="evenodd" d="M30.9306 237.495C25.1923 245.919 14.2917 253.116 11.2878 261.957C8.28387 270.797 13.7401 279.969 8.16116 288.417C3.45271 295.516 -7.71741 300.029 -14.3388 306.539C-18.4463 310.573 -20.5921 315.11 -22.5171 319.733C-27.2746 321.069 -32.0444 322.492 -36.8142 323.987C-38.8249 324.613 -40.8236 325.25 -42.8343 325.913C-44.9434 326.587 -47.0401 327.286 -49.1492 327.997C-49.2349 328.022 -49.3087 328.058 -49.3944 328.083C-49.885 328.242 -50.3629 328.414 -50.8535 328.573C-52.4476 329.113 -54.0291 329.664 -55.6229 330.217C-60.0986 331.773 -64.5739 333.38 -69.0372 335.023C-69.4051 335.158 -69.7853 335.292 -70.1531 335.427C-71.8207 336.053 -73.4882 336.666 -75.1557 337.291C-76.4924 337.794 -77.8164 338.297 -79.1531 338.811C-79.619 338.983 -80.0849 339.155 -80.5509 339.339C-80.5632 339.339 -80.5632 339.339 -80.5752 339.351C-81.6054 339.744 -82.6353 340.136 -83.6651 340.528C-85.1242 341.093 -86.5713 341.644 -88.0301 342.22C-88.7658 341.693 -89.4528 341.129 -90.0901 340.54C-95.2768 335.857 -97.6557 329.689 -95.9635 323.522C-94.7129 318.997 -91.5986 314.706 -88.7171 310.377C-88.4349 309.948 -88.1528 309.531 -87.8833 309.114C-87.1963 308.035 -86.5343 306.969 -85.9337 305.89C-85.7619 305.571 -85.5781 305.24 -85.4064 304.921C-85.345 304.811 -85.3083 304.7 -85.247 304.602C-82.01 298.275 -81.0044 291.58 -79.3736 285.033C-77.6937 278.338 -75.3642 271.827 -69.3684 266.089C-59.2525 256.414 -41.032 251.485 -30.622 241.946C-22.4311 234.43 -20.2119 225.111 -14.2038 216.834C-8.19566 208.546 5.27966 200.539 17.5043 202.991C38.8147 208.644 41.2426 222.389 30.9306 237.495Z" fill="#C0D2FF"/>
<path fill-rule="evenodd" clip-rule="evenodd" d="M56.0667 278.228C56.0667 278.228 46.0368 287.865 41.0462 297.245C38.6309 301.782 35.4429 305.767 31.8748 308.942C23.7085 309.764 15.4813 311.015 7.21698 312.621C6.54263 312.743 5.86827 312.879 5.18159 313.026C5.05886 313.05 4.93646 313.075 4.80139 313.099C13.2251 286.075 32.5491 278.362 56.0667 278.228Z" fill="#9FC3FC"/>
<path fill-rule="evenodd" clip-rule="evenodd" d="M32.4633 292.169C30.2072 293.456 22.7523 298.655 15.5669 304.798C14.7088 305.522 13.8503 306.27 13.0166 307.029C10.9568 308.856 8.97048 310.745 7.21691 312.621C6.54256 312.743 5.86821 312.879 5.18152 313.026C7.24158 310.733 9.68152 308.366 12.2318 306.085L12.2442 306.073C13.5562 304.896 14.9049 303.743 16.2416 302.616C23.0341 296.975 29.7292 292.316 31.8503 291.102C32.1448 290.93 32.5247 291.029 32.6841 291.323C32.8555 291.617 32.7578 291.997 32.4633 292.169Z" fill="#C0D2FF"/>
<path fill-rule="evenodd" clip-rule="evenodd" d="M12.6946 307.108C12.506 307.108 12.3235 307.02 12.2056 306.864C12.0433 306.649 12.04 306.354 12.1975 306.136L19.0913 296.584C19.2881 296.311 19.6719 296.245 19.9465 296.446C20.2215 296.644 20.2832 297.027 20.0852 297.302L14.3543 305.242L32.9699 298.513C33.2887 298.397 33.6391 298.561 33.7547 298.88C33.8696 299.199 33.705 299.55 33.3865 299.665L12.903 307.071C12.8348 307.096 12.7647 307.108 12.6946 307.108Z" fill="#C0D2FF"/>
<path fill-rule="evenodd" clip-rule="evenodd" d="M208.008 309.249L261.957 298.785L261.257 295.174L207.307 305.637L208.008 309.249Z" fill="#322FE6"/>
<path fill-rule="evenodd" clip-rule="evenodd" d="M209.639 310.542L244.374 303.805C245.109 303.663 245.574 302.878 245.414 302.05L244.692 298.329C244.532 297.503 243.806 296.948 243.072 297.09L208.336 303.827C207.602 303.969 207.136 304.755 207.297 305.582L208.019 309.303C208.179 310.13 208.904 310.685 209.639 310.542Z" fill="#4152F3"/>
<path fill-rule="evenodd" clip-rule="evenodd" d="M276.774 306.552C269.883 307.888 263.188 303.376 261.851 296.485C260.515 289.594 265.039 282.899 271.93 281.563C278.821 280.226 285.516 284.738 286.852 291.63C288.189 298.52 283.665 305.215 276.774 306.552ZM292.419 290.55C290.494 280.582 280.808 274.046 270.839 275.984C261.349 277.835 254.96 286.713 256.064 296.179C256.113 296.632 256.187 297.098 256.272 297.564C256.42 298.324 256.615 299.06 256.849 299.783C259.681 308.477 268.644 313.921 277.852 312.131C287.821 310.193 294.356 300.519 292.419 290.55Z" fill="#4152F3"/>
<path fill-rule="evenodd" clip-rule="evenodd" d="M221.986 182.69C216.635 184.408 209.133 185.372 201.365 185.149C197.119 185.051 192.788 184.576 188.709 183.696C191.181 172.981 190.93 159.835 190.594 150.251C190.567 149.426 190.539 148.63 190.511 147.862C190.511 147.862 223.159 123.553 220.645 141.449C220.142 145.012 219.667 148.937 219.345 152.989C218.507 163.285 218.633 174.35 221.707 182.006C221.804 182.229 221.888 182.467 221.986 182.69Z" fill="#FDB2D0"/>
<path fill-rule="evenodd" clip-rule="evenodd" d="M221.986 182.69C221.986 182.69 219.695 178.443 218.479 175.034C217.25 171.639 216.901 158.8 217.781 153.743L219.345 152.989C218.507 163.285 218.633 174.349 221.707 182.005C221.804 182.229 221.888 182.466 221.986 182.69Z" fill="#FCCDE0"/>
<path fill-rule="evenodd" clip-rule="evenodd" d="M218.647 153.212C217.432 159.164 212.193 161.594 207.736 168.58C204.593 173.497 202.455 180.972 201.365 185.148C197.119 185.051 192.788 184.576 188.709 183.696C191.181 172.98 190.93 159.834 190.595 150.25C192.466 147.75 194.786 145.738 197.789 146.45C203.112 147.708 218.647 153.212 218.647 153.212Z" fill="#FE93BC"/>
<path fill-rule="evenodd" clip-rule="evenodd" d="M227.197 142.567C226.848 143.237 226.261 143.824 225.59 144.327C223.634 145.752 220.924 146.451 220.924 146.451L222.573 136.42C223.592 136.127 224.486 136.224 225.227 136.601C227.337 137.58 228.203 140.639 227.197 142.567Z" fill="#FDB2D0"/>
<path fill-rule="evenodd" clip-rule="evenodd" d="M225.59 144.327C223.634 145.752 220.924 146.451 220.924 146.451L222.573 136.42C223.593 136.127 224.487 136.224 225.227 136.602C225.408 137.3 225.562 138.027 226.093 138.781C226.847 139.843 226.568 142.553 225.59 144.327Z" fill="#FE93BC"/>
<path fill-rule="evenodd" clip-rule="evenodd" d="M193.053 150.516C193.053 150.516 192.913 150.53 192.662 150.53C191.628 150.572 188.834 150.558 186.892 149.342C186.487 149.105 186.138 148.811 185.831 148.462C183.902 146.255 183.958 141.142 186.808 139.829H186.822C186.948 139.773 187.074 139.731 187.2 139.689H187.214C187.479 139.605 187.758 139.549 188.066 139.535L193.053 150.516Z" fill="#FDB2D0"/>
<path fill-rule="evenodd" clip-rule="evenodd" d="M192.662 150.53C191.628 150.572 188.834 150.558 186.892 149.343C187.06 148.7 186.697 147.568 186.222 146.311C185.593 144.677 185.97 141.896 186.808 139.829H186.822C186.948 139.773 187.074 139.731 187.2 139.689H187.214C188.122 141.128 192.075 147.387 192.662 150.53Z" fill="#FE93BC"/>
<path fill-rule="evenodd" clip-rule="evenodd" d="M282.184 252.179C273.439 264.906 235.104 289.522 234.937 292.903C234.769 296.297 238.555 304.652 235.328 309.499C234.909 310.114 234.42 310.645 233.861 311.05C230.103 313.928 223.704 312.028 223.327 303.394C222.908 293.503 220.645 282.201 224.193 276.655C227.727 271.095 255.305 251.033 247.762 243.168C245.093 240.388 246.252 235.275 248.865 229.826C251.268 224.825 254.886 219.544 257.904 215.534C260.865 211.581 263.24 208.856 263.24 208.856C276.484 218.063 283.763 227.116 285.649 235.624C286.962 241.45 285.733 247.01 282.184 252.179Z" fill="#FDB2D0"/>
<path fill-rule="evenodd" clip-rule="evenodd" d="M285.649 235.624C283.609 237.873 280.564 237.007 279.446 234.241C277.476 229.351 266.524 224.112 258.253 225.328C258.253 225.328 257.736 220.647 257.904 215.534C260.865 211.58 263.24 208.856 263.24 208.856C276.484 218.063 283.763 227.116 285.649 235.624Z" fill="#FCCDE0"/>
<path fill-rule="evenodd" clip-rule="evenodd" d="M257.331 260.579C247.091 269.534 233.698 275.57 232.771 290.611C232.706 291.657 234.015 300.433 234.015 303.226C234.015 304.959 234.825 308.591 233.861 311.05C230.103 313.928 223.704 312.028 223.327 303.394C222.908 293.503 220.645 282.201 224.193 276.655C227.728 271.095 255.305 251.033 247.761 243.168C245.093 240.388 246.336 239.224 248.949 233.775C254.565 231.079 252.209 231.796 252.209 231.796C256.473 236.336 267.571 251.61 257.331 260.579Z" fill="#FE93BC"/>
<path fill-rule="evenodd" clip-rule="evenodd" d="M155.808 188.376C155.822 188.418 155.836 188.474 155.864 188.516C154.984 189.535 153.964 190.695 152.846 191.966C150.513 194.635 147.747 197.736 144.911 200.852C140.692 205.517 136.305 210.212 132.994 213.453C132.869 213.159 132.743 212.852 132.631 212.545C131.067 208.395 129.823 203.548 129.139 197.82C126.079 172.422 133.358 125.272 142.354 106.621C144.814 101.536 147.384 98.5743 149.913 98.7279C152.749 98.9094 154.718 99.5243 155.99 100.684C160.055 104.33 157.247 113.397 153.461 131.418C150.22 146.772 149.899 172.422 155.808 188.376Z" fill="#FDB2D0"/>
<path fill-rule="evenodd" clip-rule="evenodd" d="M263.249 208.852V208.865C262.452 214.628 260.503 220.292 258.259 225.332C256.861 228.434 255.353 231.291 253.918 233.768C250.84 239.101 248.143 242.67 247.8 243.136C247.775 243.16 247.763 243.172 247.763 243.172C247.591 242.939 247.407 242.706 247.211 242.474C247.113 242.351 247.003 242.24 246.892 242.118C246.512 241.701 246.096 241.284 245.642 240.867C244.71 240.009 243.655 239.163 242.588 238.39C239.462 236.098 236.237 234.32 235.624 233.988C235.599 233.976 235.575 233.964 235.55 233.952C235.538 233.939 235.526 233.939 235.526 233.939V233.952V233.976C235.452 234.295 234.901 236.563 234.3 240.291C233.478 245.453 232.547 253.423 232.632 262.913C232.632 263.87 232.657 264.838 232.682 265.819C232.706 266.518 232.706 267.266 232.706 268.051C232.706 268.59 232.706 269.154 232.682 269.731C232.682 269.853 232.669 270.074 232.669 270.368C232.657 270.675 232.657 270.994 232.644 271.312C232.596 273.372 232.497 275.592 232.375 277.946C232.068 284.506 231.639 291.998 231.467 299.342L231.431 300.961C231.406 302.224 231.394 303.475 231.394 304.713C231.382 305.252 231.382 305.792 231.382 306.319C231.382 308.305 231.418 310.267 231.492 312.155C231.504 312.658 231.529 313.149 231.553 313.639V313.7C231.712 317.024 232.007 320.113 232.448 322.872C215.429 320.665 198.68 318.507 182.372 316.533C169.694 315.012 157.285 313.602 145.22 312.376C147.709 301.022 152.295 278.522 152.687 275.04C152.871 273.434 153.018 271.766 153.165 270.062C153.361 267.671 153.509 265.218 153.631 262.791C153.828 259.235 153.938 255.716 154.024 252.491C154.171 246.569 154.183 241.627 154.232 239.237C154.22 238.954 154.232 238.672 154.245 238.464C154.232 238.256 154.245 238.059 154.257 237.875C154.257 237.814 154.257 237.753 154.232 237.704C154.232 237.642 154.208 237.593 154.171 237.532C154.147 237.471 154.122 237.422 154.073 237.36C154.024 237.287 153.962 237.201 153.889 237.127C153.705 236.931 153.448 236.711 153.129 236.477C152.81 236.232 152.442 235.975 152.013 235.68C151.412 235.276 150.689 234.81 149.904 234.271C149.892 234.258 149.879 234.258 149.879 234.258C148.751 233.498 147.464 232.578 146.103 231.475C141.762 227.944 136.6 222.45 132.995 213.45C136.306 210.213 140.696 205.517 144.913 200.846C145.269 200.453 145.612 200.061 145.968 199.681C147.721 197.731 149.438 195.818 151.02 194.04C151.645 193.317 152.258 192.63 152.847 191.968C153.962 190.693 154.98 189.54 155.863 188.511C158.696 196.162 162.999 201.545 169.106 202.44C169.522 202.513 169.988 202.55 170.43 202.575H170.503C170.81 202.587 171.129 202.587 171.46 202.575C178.179 202.305 182.618 198.491 185.511 192.827C186.897 190.154 187.939 187.039 188.712 183.692C189.803 183.925 190.919 184.133 192.047 184.317C192.439 184.378 192.844 184.44 193.236 184.489L193.457 184.525C193.96 184.587 194.474 184.661 194.977 184.71C195.443 184.771 195.921 184.82 196.387 184.857C196.596 184.881 196.817 184.894 197.025 184.918C197.405 184.942 197.785 184.979 198.165 185.004C199.232 185.077 200.298 185.126 201.365 185.151C202.077 185.175 202.788 185.188 203.487 185.188C210.488 185.188 217.134 184.244 221.989 182.687C222.835 184.587 223.853 186.267 225.128 187.615C225.128 187.628 225.153 187.628 225.153 187.628C225.263 187.75 225.373 187.873 225.496 187.996C226.195 188.719 226.967 189.344 227.826 189.859C228.61 190.337 229.457 190.718 230.376 191.012C231.798 191.453 233.233 191.981 234.717 192.594C235.428 192.888 236.139 193.194 236.85 193.501C237.01 193.575 237.157 193.636 237.304 193.697C237.684 193.869 238.064 194.053 238.457 194.225C250.473 199.816 262.734 208.485 263.237 208.852H263.249Z" fill="#4152F3"/>
<path fill-rule="evenodd" clip-rule="evenodd" d="M190.624 145.636C188.572 151.258 188.368 161.85 192.195 161.465C196.021 161.079 199.365 158.165 202.735 159.135C206.105 160.106 208.974 158.097 211.114 160.425C213.253 162.754 215.95 160.907 217.184 159.502C218.418 158.097 217.661 154.932 219.922 153.642C222.183 152.351 221.745 145.787 221.332 143.945C220.919 142.102 190.624 145.636 190.624 145.636Z" fill="#040078"/>
<path fill-rule="evenodd" clip-rule="evenodd" d="M258.259 225.332C256.861 228.434 255.353 231.291 253.918 233.768C250.84 239.101 248.143 242.669 247.8 243.135C247.775 243.16 247.763 243.172 247.763 243.172C247.591 242.939 247.407 242.706 247.211 242.473C247.113 242.35 247.003 242.24 246.892 242.118C246.512 241.701 246.096 241.284 245.642 240.867C244.71 240.009 243.655 239.163 242.588 238.39C239.462 236.097 236.237 234.32 235.624 233.988C235.599 233.976 235.575 233.964 235.551 233.951C235.538 233.939 235.526 233.939 235.526 233.939V233.951V233.976C235.452 234.295 234.901 236.563 234.3 240.291C233.478 245.453 232.547 253.423 232.632 262.913C232.632 263.87 232.657 264.838 232.682 265.819C232.706 266.518 232.706 267.266 232.706 268.051C232.706 268.59 232.706 269.154 232.682 269.731C232.682 269.853 232.669 270.074 232.669 270.368C232.657 270.675 232.657 270.994 232.644 271.312C232.596 273.372 232.497 275.591 232.375 277.946C232.068 284.506 231.639 291.998 231.467 299.342L231.431 300.961C231.406 302.224 231.394 303.474 231.394 304.713C231.382 305.252 231.382 305.791 231.382 306.319C231.382 308.305 231.418 310.267 231.492 312.155C231.504 312.658 231.529 313.149 231.553 313.639V313.7C231.357 313.7 231.173 313.173 231.001 312.241C230.781 310.966 230.572 308.943 230.376 306.515C230.327 306.012 230.29 305.485 230.253 304.933C230.168 303.768 230.082 302.518 230.008 301.23C229.972 300.715 229.947 300.176 229.91 299.636C229.334 290.023 228.868 279.037 228.231 279.675C226.722 281.171 225.165 282.164 223.608 282.875C223.179 283.083 222.762 283.255 222.333 283.39C215.662 285.842 209.066 284.003 206.258 293.15C202.972 303.83 205.633 303.462 206.196 303.278C206.196 303.29 206.184 303.29 206.184 303.29C204.909 303.867 191.054 310.255 182.372 316.533C169.694 315.012 157.285 313.602 145.22 312.376C147.709 301.022 152.295 278.522 152.687 275.04C152.871 273.434 153.018 271.766 153.166 270.062C153.362 267.671 153.509 265.218 153.632 262.791C153.828 259.235 153.938 255.716 154.024 252.491C154.171 246.569 154.183 241.627 154.232 239.236C154.22 238.954 154.232 238.672 154.245 238.464C154.232 238.255 154.245 238.059 154.257 237.875C154.257 237.814 154.257 237.752 154.232 237.703C154.232 237.642 154.208 237.593 154.171 237.532C154.147 237.471 154.122 237.422 154.073 237.36C154.024 237.287 153.963 237.201 153.889 237.127C153.705 236.931 153.447 236.711 153.129 236.477C152.81 236.232 152.442 235.975 152.013 235.68C151.412 235.276 150.689 234.81 149.904 234.27C149.892 234.258 149.879 234.258 149.879 234.258C148.751 233.498 147.464 232.578 146.103 231.475C141.762 227.943 136.6 222.45 132.995 213.45C136.306 210.213 140.696 205.517 144.913 200.846C149.757 218.87 158.928 224.191 159.701 226.386C160.498 228.569 157.984 240.524 158.757 243.847C159.542 247.169 160.069 252.491 161.552 249.254C163.036 246.029 164.434 237.973 166.604 231.708C168.075 227.477 168.922 215.988 169.314 208.963C169.436 206.706 169.522 204.904 169.559 203.96C169.572 203.494 169.584 203.237 169.584 203.237C169.584 203.237 169.866 203.028 170.381 202.66C170.417 202.636 170.454 202.611 170.503 202.575C170.81 202.587 171.129 202.587 171.46 202.575C178.179 202.305 182.618 198.491 185.511 192.826C186.786 193.292 188.54 211.366 189.227 221.543C189.913 231.708 198.999 233.547 204.247 230.163C208.563 227.392 218.973 200.919 223.927 190.889C223.927 190.877 223.927 190.877 223.939 190.865C224.147 190.436 224.356 190.043 224.54 189.675C224.908 188.988 225.226 188.425 225.496 187.995C225.545 187.91 225.594 187.836 225.643 187.763C225.888 187.395 226.084 187.174 226.244 187.088C228.292 186.034 234.582 190.803 236.85 193.501C237.341 194.089 237.635 194.58 237.659 194.887C237.684 195.279 237.475 196.652 237.108 198.651C236.972 199.374 236.813 200.171 236.642 201.042C235.158 208.57 232.399 220.881 231.026 226.558C229.04 234.712 237.206 228.373 237.77 227.146C237.77 227.146 243.472 219.275 246.61 221.261C247.628 221.899 249.639 223.149 252.03 224.106C253.967 224.878 256.15 225.442 258.259 225.332Z" fill="#322FE6"/>
<path fill-rule="evenodd" clip-rule="evenodd" d="M155.808 188.376C155.822 188.418 155.836 188.474 155.864 188.515C154.984 189.535 153.964 190.695 152.846 191.966C150.737 186.252 147.635 173.847 146.965 163.69C146.154 151.466 149.759 124.573 151.966 117.476C153.866 111.371 156.535 104.973 155.99 100.684C160.055 104.33 157.247 113.397 153.461 131.418C150.22 146.772 149.899 172.422 155.808 188.376Z" fill="#FCCDE0"/>
<path fill-rule="evenodd" clip-rule="evenodd" d="M144.911 200.851C140.692 205.518 136.305 210.211 132.994 213.453C132.869 213.159 132.743 212.852 132.631 212.544C131.067 208.395 129.823 203.547 129.139 197.82C126.079 172.422 133.358 125.271 142.354 106.621C128.429 170.908 139.7 179.169 144.911 200.851Z" fill="#FE93BC"/>
<path fill-rule="evenodd" clip-rule="evenodd" d="M170.435 202.57C169.806 203.799 168.633 205.49 166.957 205.434C164.344 205.336 155.431 197.918 152.846 191.966C153.964 190.695 154.984 189.535 155.864 188.516C158.7 196.158 163.003 201.55 169.108 202.444C169.527 202.514 169.988 202.556 170.435 202.57Z" fill="#86A8FF"/>
<path fill-rule="evenodd" clip-rule="evenodd" d="M263.255 208.857C254.593 205.392 256.2 210.142 246.322 206.132C236.459 202.109 234.28 200.712 234.545 193.727C234.545 193.727 226.89 191.519 224.738 189.843C222.573 188.166 221.986 182.69 221.986 182.69C222.908 184.771 224.054 186.574 225.492 187.999C226.847 189.382 228.468 190.416 230.382 191.017C231.793 191.449 233.232 191.98 234.713 192.595C235.425 192.888 236.138 193.196 236.851 193.503C249.605 199.147 263.255 208.857 263.255 208.857Z" fill="#86A8FF"/>
<path fill-rule="evenodd" clip-rule="evenodd" d="M187.806 143.168C188.748 148.1 192.14 160.274 204.628 160.168C223.42 160.008 224.349 137.963 224.349 137.963L187.806 143.168Z" fill="#EA6F00"/>
<path fill-rule="evenodd" clip-rule="evenodd" d="M224.347 137.956C223.802 138.431 212.276 146.018 206.381 146.926C200.485 147.833 188.988 144.508 187.8 143.168C186.92 142.148 186.319 135.805 188.359 129.49C189.449 126.054 191.321 122.631 194.352 120.074C202.93 112.838 214.987 113.802 220.659 121.541C226.331 129.267 224.892 137.495 224.347 137.956Z" fill="#FDA218"/>
<path fill-rule="evenodd" clip-rule="evenodd" d="M245.638 240.862C245.554 242.958 242.704 251.815 237.605 261.427V261.441C237.591 261.455 237.591 261.455 237.591 261.469C236.124 264.207 234.489 267.001 232.687 269.725C222.531 285.037 210.279 301.466 206.297 303.24C199.13 306.425 167.683 300.796 164.428 292.413C162.025 286.252 154.299 274.824 150.988 264.277C149.368 259.164 148.935 253.436 149.005 247.974C149.046 242.944 149.535 238.152 149.885 234.254C149.885 234.254 150.946 234.841 152.036 235.582C152.413 235.847 152.805 236.126 153.14 236.406C153.796 236.951 154.285 237.482 154.258 237.873C154.243 238.055 154.23 238.25 154.243 238.46C154.201 238.711 154.201 238.976 154.23 239.242C154.383 247.01 160.628 260.798 161.396 260.868C162.234 260.868 161.871 247.75 166.272 237.51C168.172 233.095 168.968 225.733 169.233 218.58C169.457 212.349 169.29 206.286 169.108 202.444C169.066 201.494 169.024 200.67 168.982 200.027C168.94 199.3 168.912 198.77 168.884 198.504C168.647 195.906 169.541 196.297 171.93 195.193C175.702 193.852 180.005 189.885 183.763 190.611C184.517 190.751 185.09 191.561 185.509 192.832C185.579 193.056 185.649 193.279 185.705 193.503C186.292 195.612 186.557 198.672 186.669 201.969C186.683 202.025 186.683 202.081 186.669 202.136C186.864 207.278 186.669 212.977 186.669 216.596C186.655 224.377 186.753 236.266 200.22 235.176C205.012 234.786 209.245 229.379 212.807 222.366C212.835 222.296 212.863 222.226 212.919 222.142C219.304 209.443 223.467 191.631 224.654 188.655C224.808 188.264 224.961 187.929 225.129 187.622C225.674 186.587 226.275 186.015 226.862 185.749C228.245 185.135 229.642 186.182 230.522 187.398C231.919 189.298 237.786 187.384 238.652 190.918C238.848 191.742 238.778 192.832 238.485 194.117C238.094 195.976 237.297 198.239 236.347 200.656C236.333 200.656 236.333 200.656 236.333 200.67C234.852 204.484 232.981 208.703 231.723 212.349C227.812 223.749 221.832 254.973 224.78 255.755C227.672 256.481 235.132 235.079 235.523 233.975V233.947C235.523 233.947 239.323 235.302 242.62 237.859C243.738 238.725 244.813 239.731 245.638 240.862Z" fill="#FDA218"/>
<path fill-rule="evenodd" clip-rule="evenodd" d="M185.509 192.832C183.316 191.603 178.231 194.188 177.644 195.068C177.057 195.934 174.151 197.68 172.223 197.387C170.589 197.149 169.737 198.183 168.982 200.027C168.94 199.301 168.912 198.77 168.884 198.504C168.647 195.906 169.541 196.297 171.93 195.193C175.702 193.852 180.005 189.885 183.763 190.611C184.517 190.751 185.09 191.561 185.509 192.832Z" fill="#FFBE71"/>
<path fill-rule="evenodd" clip-rule="evenodd" d="M238.485 194.117C238.024 193.992 237.479 193.782 236.851 193.503C234.755 192.539 231.22 194.69 229.39 192.762C227.56 190.849 228.342 188.306 225.129 187.621C225.674 186.587 226.275 186.014 226.862 185.749C228.244 185.135 229.642 186.182 230.522 187.398C231.919 189.298 237.787 187.384 238.653 190.918C238.848 191.742 238.778 192.832 238.485 194.117Z" fill="#FFBE71"/>
<path fill-rule="evenodd" clip-rule="evenodd" d="M152.036 235.582C151.17 238.627 149.591 243.125 149.521 246.171C149.508 246.898 149.312 247.526 149.005 247.974C149.046 242.944 149.535 238.152 149.885 234.254C149.885 234.254 150.946 234.841 152.036 235.582Z" fill="#FFBE71"/>
<path fill-rule="evenodd" clip-rule="evenodd" d="M245.638 240.863C245.554 242.958 242.704 251.815 237.605 261.427V261.441C237.591 261.455 237.591 261.455 237.591 261.469C236.124 264.207 234.489 267.001 232.687 269.725C222.531 285.037 210.279 301.466 206.297 303.241C199.13 306.426 167.683 300.796 164.428 292.414C162.025 286.253 154.299 274.825 150.988 264.277C149.368 259.164 148.935 253.436 149.005 247.974C152.273 269.209 159.458 265.063 167.636 283.341C171.494 291.962 182.008 284.069 194.581 285.815C207.154 287.561 208.784 285.233 219.611 277.382C230.438 269.516 240.818 249.916 241.405 246.968C241.992 244.02 234.713 240.262 234.196 240.262C233.665 240.262 232.799 243.713 229.739 252.877C226.68 262.056 223.453 260.659 221.581 257.376C219.695 254.107 224.067 235.47 225.632 229.617C227.155 223.945 231.067 207.543 236.333 200.67C234.852 204.484 232.981 208.703 231.723 212.349C227.812 223.749 221.832 254.973 224.78 255.755C227.672 256.482 235.132 235.079 235.523 233.975V233.948C235.523 233.948 239.323 235.303 242.62 237.859C243.738 238.725 244.813 239.731 245.638 240.863Z" fill="#FC8000"/>
<path fill-rule="evenodd" clip-rule="evenodd" d="M245.638 240.862C245.554 242.958 242.704 251.815 237.605 261.427C237.647 261.092 238.122 258.228 239.337 255.28C240.455 252.598 242.145 244.173 242.62 237.859C243.738 238.725 244.813 239.731 245.638 240.862Z" fill="#FFBE71"/>
<path fill-rule="evenodd" clip-rule="evenodd" d="M177.191 262.167C176.303 268.119 176.155 283.115 172.228 283.836C168.301 284.556 165.893 279.164 161.668 273.001C157.443 266.838 159.072 280.11 164.428 286.746C169.783 293.382 174.323 299.756 181.425 294.473C188.527 289.191 194.557 288.034 191.437 279.298C188.318 270.563 177.191 262.167 177.191 262.167Z" fill="#FC8000"/>
<path fill-rule="evenodd" clip-rule="evenodd" d="M212.807 222.366C210.027 228.304 207.401 233.123 206.102 235.582C202.846 241.743 199.186 239.829 197.314 238.558C195.456 237.3 193.891 238.125 191.055 237.566C188.219 236.993 185.551 229.882 185.509 223.497C185.481 219.097 186.767 210.002 186.669 202.137C186.864 207.278 186.669 212.978 186.669 216.596C186.655 224.378 186.753 236.267 200.22 235.177C205.012 234.786 209.245 229.379 212.807 222.366Z" fill="#FC8000"/>
<path fill-rule="evenodd" clip-rule="evenodd" d="M206.95 268.554C201.221 268.645 187.39 267.338 177.191 262.166C177.448 256.419 178.314 251.575 180.019 251.048C192.051 247.365 205.544 251.166 207.124 254.449C208.419 257.16 207.827 262.646 206.95 268.554Z" fill="#FC8000"/>
<path fill-rule="evenodd" clip-rule="evenodd" d="M206.95 268.554C206.768 269.837 206.561 271.148 206.367 272.445C205.243 279.723 204.144 293.542 194.754 294.409C185.363 295.276 179.563 287.205 178.063 279.01C177.304 274.871 176.941 268.039 177.191 262.167C187.39 267.338 201.221 268.646 206.95 268.554Z" fill="#E8740C"/>
<path fill-rule="evenodd" clip-rule="evenodd" d="M187.19 267.741C187.335 270.379 189.591 272.399 192.229 272.253C194.866 272.108 196.886 269.852 196.741 267.215C196.596 264.578 194.34 262.557 191.702 262.703C189.065 262.848 187.045 265.104 187.19 267.741Z" fill="#914B0C"/>
<path fill-rule="evenodd" clip-rule="evenodd" d="M165.043 244.104C163.031 250.656 163.995 263.844 163.031 264.78C162.067 265.716 159.189 263.578 155.878 257.641C152.776 252.095 152.637 241.617 153.14 236.406C153.797 236.951 154.285 237.482 154.258 237.873C154.243 238.055 154.23 238.25 154.243 238.459C154.201 238.711 154.201 238.976 154.23 239.242C154.383 247.009 160.628 260.798 161.397 260.868C162.234 260.868 161.871 247.75 166.272 237.509C168.172 233.095 168.968 225.733 169.234 218.58C169.653 229.686 166.845 238.264 165.043 244.104Z" fill="#FC8000"/>
<path fill-rule="evenodd" clip-rule="evenodd" d="M201.328 116.145C201.1 117.704 201.58 121.364 206.121 120.884C209.165 120.562 209.482 115.9 209.482 115.9L201.328 116.145Z" fill="#FC8000"/>
<path fill-rule="evenodd" clip-rule="evenodd" d="M209.761 115.23C209.883 117.429 208.081 119.316 205.738 119.445C203.395 119.574 201.397 117.896 201.276 115.697C201.155 113.499 202.956 111.611 205.299 111.483C207.643 111.354 209.641 113.032 209.761 115.23Z" fill="#FDA218"/>
<path fill-rule="evenodd" clip-rule="evenodd" d="M224.347 137.956C223.802 138.431 212.276 146.018 206.381 146.926C200.485 147.833 188.988 144.508 187.8 143.168C186.92 142.148 186.319 135.805 188.359 129.49C190.524 127.549 192.983 125.243 193.5 123.26C194.352 120.074 202.176 120.759 200.751 123.008C197.454 128.177 198.543 135.4 202.176 134.184C205.808 132.955 215.504 131.642 218.647 132.089C221.79 132.522 220.1 138.515 224.347 137.956Z" fill="#FC8000"/>
<path fill-rule="evenodd" clip-rule="evenodd" d="M92.0297 243.135C92.091 243.467 91.8702 243.785 91.5271 243.834C91.5147 243.834 91.5024 243.834 91.49 243.847C82.4167 245.379 73.8459 247.464 65.8267 250.075C62.4426 251.179 59.1566 252.368 55.9686 253.656C40.5806 259.848 27.5709 268.137 17.2959 278.252C16.2537 279.27 15.2361 280.312 14.243 281.379C6.68972 289.496 0.816341 298.692 -3.21742 308.82C-3.75704 310.181 -4.25996 311.555 -4.73788 312.953C-5.00768 313.749 -5.27749 314.546 -5.51061 315.356C-5.96418 315.454 -6.43009 315.564 -6.896 315.687C-5.28983 310.341 -3.21742 305.228 -0.691775 300.36C0.338419 298.373 1.454 296.424 2.64329 294.523C9.00725 284.248 17.5534 275.199 28.0124 267.573C30.1092 266.028 32.2917 264.556 34.5478 263.146C50.0219 253.41 69.0761 246.421 91.1225 242.669C91.1959 242.657 91.2573 242.645 91.331 242.633C91.6618 242.571 91.9806 242.792 92.0297 243.135Z" fill="#4152F3"/>
<path fill-rule="evenodd" clip-rule="evenodd" d="M66.9729 248.423C75.4888 236.886 89.1297 225.442 106.602 221.61C106.602 221.61 93.5554 240.443 66.9729 248.423Z" fill="#4152F3"/>
<path fill-rule="evenodd" clip-rule="evenodd" d="M89.4223 243.503C102.218 237.032 119.55 232.95 136.878 237.389C136.878 237.389 116.752 248.337 89.4223 243.503Z" fill="#4152F3"/>
<path fill-rule="evenodd" clip-rule="evenodd" d="M54.8242 253.336C68.2236 248.23 85.8853 245.971 102.658 252.188C102.658 252.188 81.5038 260.985 54.8242 253.336Z" fill="#4152F3"/>
<path fill-rule="evenodd" clip-rule="evenodd" d="M27.7717 268.267C32.4769 254.722 42.1032 239.742 57.6493 230.894C57.6493 230.894 50.7844 252.752 27.7717 268.267Z" fill="#4152F3"/>
<path fill-rule="evenodd" clip-rule="evenodd" d="M13.1223 281.448C24.1892 272.33 40.2048 264.549 58.0846 265.084C58.0846 265.084 40.8476 280.176 13.1223 281.448Z" fill="#4152F3"/>
<path fill-rule="evenodd" clip-rule="evenodd" d="M-0.677953 300.464C-1.97373 286.184 0.623346 268.568 11.1409 254.099C11.1409 254.099 13.8948 276.843 -0.677953 300.464Z" fill="#4152F3"/>
<path fill-rule="evenodd" clip-rule="evenodd" d="M-5.92776 313.54C0.771911 300.862 12.5528 287.511 29.2583 281.116C29.2583 281.116 19.1667 301.684 -5.92776 313.54Z" fill="#4152F3"/>
<path fill-rule="evenodd" clip-rule="evenodd" d="M46.9564 202.991C46.944 203.003 46.932 203.003 46.9197 203.003C35.7496 208.791 25.4619 215.081 16.1311 221.8C12.2073 224.633 8.44307 227.526 4.86287 230.518C-12.5855 244.975 -26.0485 261.184 -35.1956 278.595C-35.1956 278.608 -35.2079 278.608 -35.2079 278.62C-36.1274 280.361 -36.9982 282.102 -37.8193 283.868C-44.2323 297.539 -48.0332 311.91 -49.0511 326.722C-49.0878 327.151 -49.1125 327.568 -49.1491 327.997C-49.2349 328.021 -49.3086 328.058 -49.3943 328.083C-49.8849 328.242 -50.3631 328.414 -50.8534 328.573C-50.6082 323.902 -50.0933 319.279 -49.2962 314.693C-48.7813 311.615 -48.1316 308.563 -47.3589 305.534C-43.3371 289.606 -36.0293 274.365 -25.6439 260.154C-23.5228 257.248 -21.2787 254.391 -18.8878 251.571C-18.8878 251.559 -18.8754 251.547 -18.8634 251.534C-9.04168 239.898 2.94988 229.034 16.9772 219.152C17.4674 218.821 17.9457 218.477 18.4239 218.146C26.8966 212.261 36.0927 206.743 45.9879 201.618C46.0612 201.581 46.1226 201.544 46.1963 201.507C46.6009 201.287 47.1035 201.458 47.3242 201.875C47.5327 202.28 47.3733 202.783 46.9564 202.991Z" fill="#4152F3"/>
<path fill-rule="evenodd" clip-rule="evenodd" d="M16.978 219.15C23.2429 200.634 36.201 180.109 57.2955 167.876C57.2955 167.876 48.1776 197.748 16.978 219.15Z" fill="#4152F3"/>
<path fill-rule="evenodd" clip-rule="evenodd" d="M44.0825 203.438C58.0088 189.721 78.816 177.221 103.159 175.788C103.159 175.788 81.5757 198.363 44.0825 203.438Z" fill="#4152F3"/>
<path fill-rule="evenodd" clip-rule="evenodd" d="M3.24509 230.576C18.522 218.381 40.5155 208.112 64.8756 209.217C64.8756 209.217 41.0629 229.426 3.24509 230.576Z" fill="#4152F3"/>
<path fill-rule="evenodd" clip-rule="evenodd" d="M-39.2233 284.398C-28.6412 267.963 -11.0792 251.208 12.3582 244.475C12.3582 244.475 -3.75352 271.23 -39.2233 284.398Z" fill="#4152F3"/>
<path fill-rule="evenodd" clip-rule="evenodd" d="M399.413 341.387C394.95 341.08 390.462 340.749 385.962 340.393C384.626 340.283 383.277 340.173 381.928 340.063C378.985 339.817 376.03 339.572 373.075 339.315C372.364 339.254 371.665 339.192 370.954 339.131C370.378 339.069 369.789 339.02 369.213 338.971C369.262 338.444 369.299 337.892 369.348 337.328C369.397 336.678 369.446 336.004 369.495 335.305C369.508 335.219 369.52 335.145 369.52 335.06C369.556 334.643 369.581 334.226 369.618 333.797C369.703 332.644 369.789 331.455 369.875 330.229C370.219 325.189 370.574 319.5 370.881 313.455C370.967 311.874 371.04 310.279 371.114 308.661C371.555 298.754 371.825 288.147 371.69 278.056C371.616 271.521 371.383 265.194 370.917 259.419C370.255 251.314 370.145 242.142 370.317 232.579C370.341 231.267 370.366 229.955 370.402 228.63C370.427 227.465 370.464 226.288 370.5 225.099V225.086C370.574 222.585 370.672 220.084 370.783 217.558V217.546C370.832 216.319 370.881 215.093 370.93 213.867C370.942 213.659 370.954 213.45 370.967 213.254V213.242C371.15 209.147 371.359 205.064 371.567 201.03C371.996 192.765 372.45 184.734 372.757 177.328V177.316C372.781 176.691 372.818 176.078 372.842 175.464V175.452C373.308 163.644 373.37 153.614 372.377 147.128C371.052 138.459 372.965 119.012 375.233 98.8668C375.283 98.4129 375.332 97.9717 375.381 97.5178C375.393 97.3831 375.417 97.2483 375.43 97.1133C375.442 97.0152 375.454 96.9172 375.454 96.8315C375.552 95.9854 375.65 95.1392 375.748 94.2931C375.895 93.0305 376.03 91.7795 376.178 90.5289C376.19 90.5165 376.178 90.5165 376.178 90.5165C376.925 83.9324 377.673 77.4337 378.311 71.3396C378.409 70.4448 378.495 69.5617 378.581 68.6912V68.6789C379.415 60.5373 380.003 53.2909 380.101 47.81C384.503 47.16 388.881 46.5104 393.221 45.8604C393.258 47.3194 393.27 48.8522 393.27 50.4217C393.27 50.4217 393.282 50.4217 393.27 50.4337C393.27 50.8876 393.27 51.3412 393.258 51.8071C393.27 52.0279 393.258 52.2487 393.258 52.4691C393.258 53.1805 393.245 53.8915 393.233 54.6149V54.9094C393.209 55.7678 393.196 56.6383 393.172 57.5087V57.5211C392.767 71.9529 391.185 88.187 388.243 97.0766C386.722 101.675 386.306 107.707 386.453 114.439V114.451C386.477 115.297 386.502 116.143 386.539 117.014V117.026C387.066 129.557 389.236 144.087 389.763 156.189C389.8 156.925 389.825 157.648 389.849 158.372C389.959 162.725 389.825 166.71 389.285 170.106C387.716 179.866 387.961 198.442 389.101 216.7C390.156 233.657 391.97 250.357 393.809 259.505C395.612 268.48 397.071 290.428 398.113 311.052C398.383 316.618 398.641 322.087 398.861 327.188C399.082 332.411 399.266 337.255 399.413 341.387Z" fill="#C0D2FF"/>
<path fill-rule="evenodd" clip-rule="evenodd" d="M395.735 138.582C395.747 138.839 395.759 139.109 395.759 139.379C395.808 141.292 395.661 143.254 395.281 145.277C394.361 150.218 392.4 154.497 389.849 158.372C386.355 163.705 381.769 168.267 377.281 172.742C375.736 174.275 374.216 175.795 372.757 177.316V177.328C369.152 181.092 365.988 184.881 363.916 189.173C360.642 195.966 363.389 205.272 366.981 215.314C367.312 216.234 367.656 217.166 367.987 218.098C368.024 218.195 368.073 218.306 368.109 218.417C368.158 218.551 368.207 218.686 368.256 218.821C368.293 218.919 368.33 219.03 368.367 219.128C369.091 221.102 369.814 223.1 370.5 225.087V225.099C371.212 227.146 371.898 229.206 372.487 231.242C374.351 237.581 375.466 243.773 374.559 249.401L373.357 249.205C374.204 243.896 373.174 237.986 371.42 231.916C371.101 230.825 370.758 229.734 370.403 228.63C369.421 225.602 368.318 222.561 367.214 219.544C362.935 207.81 358.901 196.738 362.813 188.645C363.082 188.081 363.377 187.53 363.671 186.99C363.72 186.917 363.757 186.843 363.806 186.769C363.867 186.647 363.941 186.536 364.002 186.414C364.664 185.286 365.4 184.182 366.196 183.103C366.196 183.103 366.209 183.103 366.196 183.091C368.122 180.455 370.403 177.966 372.842 175.464V175.452C374.007 174.263 375.209 173.073 376.41 171.872C381.279 167.029 386.244 162.087 389.763 156.189C391.774 152.83 393.307 149.163 394.079 145.043C394.459 142.984 394.606 140.997 394.533 139.035C394.521 138.803 394.508 138.557 394.496 138.312C394.496 138.251 394.484 138.19 394.484 138.128C394.386 136.62 394.153 135.136 393.834 133.677C392.571 127.951 389.751 122.519 386.539 117.026V117.014C385.729 115.628 384.895 114.243 384.062 112.845C381.426 108.443 378.728 103.955 376.472 99.112C376.386 98.9282 376.3 98.7318 376.214 98.548C376.055 98.2169 375.908 97.8737 375.76 97.5425C375.663 97.2974 375.552 97.0643 375.454 96.8315C374.657 94.9552 373.946 93.0305 373.333 91.0438C372.511 88.3831 372.279 85.8084 372.499 83.3194C372.953 78.1818 375.356 73.3506 378.581 68.6912V68.6789C381.07 65.0987 384.025 61.6165 386.956 58.1711C389.175 55.547 391.369 52.972 393.27 50.4337C393.282 50.4217 393.27 50.4217 393.27 50.4217C394.557 48.7172 395.722 47.0253 396.691 45.3454C397.206 45.2594 397.709 45.186 398.211 45.1123C397.206 46.9883 395.968 48.8643 394.582 50.7406C394.153 51.3169 393.712 51.8931 393.258 52.4691C392.461 53.487 391.627 54.5172 390.769 55.547L390.401 55.9883C390.278 56.1233 390.168 56.2704 390.045 56.4055C389.334 57.2513 388.611 58.0974 387.887 58.9558C384.454 63.0019 380.972 67.1094 378.311 71.3399C375.564 75.7172 373.689 80.2415 373.652 84.999C373.639 86.8506 373.897 88.7509 374.498 90.6883C374.878 91.9146 375.295 93.1162 375.748 94.2931C376.214 95.4948 376.705 96.672 377.232 97.8367C379.525 102.913 382.357 107.609 385.116 112.207C385.57 112.955 386.011 113.703 386.453 114.439V114.451C390.585 121.379 394.3 128.123 395.428 135.48C395.563 136.375 395.661 137.27 395.71 138.177C395.722 138.312 395.735 138.447 395.735 138.582Z" fill="#9FC3FC"/>
<path fill-rule="evenodd" clip-rule="evenodd" d="M443.873 343.52C429.294 343.164 414.446 342.417 399.413 341.387C394.95 341.08 390.462 340.749 385.962 340.393C384.626 340.283 383.277 340.173 381.928 340.063C378.986 339.817 376.03 339.572 373.075 339.314C372.364 339.253 371.665 339.192 370.954 339.13C370.378 339.069 369.789 339.02 369.213 338.971C368.833 338.934 368.44 338.898 368.06 338.861C362.911 338.395 357.736 337.892 352.562 337.377C342.361 336.359 332.134 335.244 321.908 334.066C318.647 330.462 318.217 327.016 323.931 325.765C323.931 325.765 321.369 317.599 332.294 315.466C334.01 315.135 335.984 315.404 338.118 316.14C343.182 317.857 349.202 322.173 354.941 327.139V327.151C355.112 327.286 355.284 327.433 355.443 327.58C355.443 327.58 355.443 327.592 355.456 327.592C359.44 331.087 363.291 334.864 366.577 338.284C366.7 338.137 366.834 337.978 366.969 337.831C367.398 337.328 367.864 336.813 368.354 336.286C368.686 335.93 369.029 335.562 369.397 335.194C369.421 335.145 369.471 335.097 369.519 335.06C369.642 334.925 369.765 334.802 369.912 334.667C370.231 334.324 370.586 333.968 370.942 333.625C376.018 328.586 382.529 323.154 387.9 318.887C393.663 314.301 398.113 311.052 398.113 311.052C402.111 307.545 404.612 310.034 406.733 313.394C409.186 317.231 411.147 322.21 414.323 320.615C420.27 317.624 429.025 316.655 429.208 322.786C429.392 328.916 436.872 327.421 442.046 331.602C445.565 334.435 451.929 339.057 443.873 343.52Z" fill="#4152F3"/>
<path fill-rule="evenodd" clip-rule="evenodd" d="M406.733 313.394C405.004 318.237 402.442 322.884 398.861 327.188C396.948 329.493 394.754 331.7 392.228 333.785C390.008 336.47 387.949 338.714 385.962 340.393C384.626 340.283 383.277 340.173 381.928 340.063C378.985 339.817 376.031 339.572 373.075 339.315C372.364 339.253 371.665 339.192 370.954 339.131C370.378 339.069 369.789 339.02 369.213 338.971C368.833 338.934 368.441 338.898 368.06 338.861C367.705 338.542 367.337 338.199 366.969 337.831C364.737 335.648 362.322 332.816 359.612 329.272C358.999 328.451 358.349 327.58 357.7 326.673C356.632 325.214 355.529 323.644 354.377 321.977C343.525 306.172 344.604 282.47 350.465 263.391C354.904 248.898 362.089 237.066 368.907 233.375C369.385 233.118 369.851 232.848 370.317 232.578C370.684 232.37 371.052 232.149 371.42 231.916C371.776 231.695 372.131 231.475 372.487 231.242C378.998 227.024 384.773 221.457 389.101 216.7C393.319 212.077 396.139 208.203 396.936 207.099C395.379 209.551 385.852 225.969 396.372 246.74C404.955 263.722 414.875 290.734 406.733 313.394Z" fill="#9FC3FC"/>
<path fill-rule="evenodd" clip-rule="evenodd" d="M387.899 318.887C387.789 320.383 387.568 321.879 387.237 323.35C385.508 330.989 383.804 336.396 381.928 340.063C378.985 339.817 376.03 339.572 373.075 339.315C372.364 339.254 371.665 339.192 370.954 339.131C370.378 339.07 369.789 339.02 369.213 338.971C368.833 338.934 368.44 338.898 368.06 338.861C362.91 338.395 357.736 337.892 352.562 337.377C345.242 332.031 340.754 324.417 338.118 316.14C334.317 304.222 334.329 290.931 335.212 281.06C336.855 262.742 324.851 253.631 323.294 252.516C324.888 253.533 337.701 261.626 350.465 263.392C350.71 263.428 350.956 263.465 351.201 263.49C356.792 264.152 364.664 269.829 371.69 278.056C381.119 289.092 389.028 304.688 387.899 318.887Z" fill="white"/>
<path fill-rule="evenodd" clip-rule="evenodd" d="M369.115 327.494C369.115 327.531 369.091 327.58 369.091 327.617C369.348 328.488 369.605 329.37 369.875 330.229C370.218 331.369 370.574 332.497 370.942 333.625C371.567 335.489 372.229 337.328 372.965 339.155C372.977 339.18 372.977 339.18 373.014 339.216C373.039 339.241 373.063 339.278 373.075 339.314C372.364 339.253 371.665 339.192 370.954 339.131C370.415 338.493 369.875 337.892 369.348 337.328C369.004 336.972 368.686 336.617 368.354 336.286C364.787 332.619 361.795 330.486 359.612 329.272C357.05 327.826 355.591 327.629 355.554 327.617C355.517 327.617 355.48 327.605 355.456 327.593C355.443 327.593 355.443 327.58 355.443 327.58C355.21 327.531 355.026 327.359 354.941 327.151V327.139C354.904 327.028 354.879 326.906 354.891 326.783C354.929 326.378 355.296 326.084 355.713 326.121C355.799 326.133 356.498 326.219 357.7 326.673C359.968 327.531 364.076 329.714 369.397 335.194C369.433 335.231 369.458 335.268 369.495 335.305C369.826 335.636 370.157 335.979 370.488 336.347C370.292 335.783 370.096 335.231 369.912 334.667C369.814 334.373 369.716 334.079 369.618 333.797C368.992 331.884 368.416 329.971 367.877 328.034C367.717 327.899 367.607 327.69 367.619 327.47C367.607 327.359 367.619 327.273 367.631 327.163C366.748 324.024 365.964 320.873 365.191 317.709C364.787 316.03 364.382 314.325 363.978 312.621C362.506 306.491 361.059 300.372 359.428 294.278C357.356 286.517 354.941 278.804 351.556 271.496C355.259 278.657 357.81 286.357 360.127 294.081C362.004 300.519 363.634 307.042 365.302 313.553C365.633 314.84 365.976 316.14 366.307 317.44C366.785 319.279 367.3 321.131 367.779 322.97C367.975 320.137 368.306 317.734 368.735 315.723C369.433 312.413 370.341 310.132 371.114 308.661C371.898 307.128 372.524 306.454 372.597 306.38C372.891 306.086 373.369 306.073 373.664 306.38C373.958 306.65 373.97 307.128 373.689 307.434C373.664 307.459 372.156 309.102 370.88 313.455C370.611 314.362 370.353 315.392 370.12 316.545C369.544 319.365 369.127 322.982 369.115 327.494Z" fill="#C0D2FF"/>
<path fill-rule="evenodd" clip-rule="evenodd" d="M372.703 83.6055C375.656 87.6097 377.27 92.5779 377.256 97.548C377.248 98.0382 377.196 98.5954 376.851 98.9142C376.805 98.959 376.747 99.0042 376.676 99.0399C376.66 99.047 376.638 99.0606 376.622 99.0678C376.224 99.2382 375.747 99.0863 375.349 98.9152C370.536 96.9282 366.401 93.3428 363.748 88.859C361.09 84.3818 359.927 79.0272 360.484 73.8496C365.239 75.3129 369.756 79.5947 372.703 83.6055Z" fill="white"/>
<path fill-rule="evenodd" clip-rule="evenodd" d="M366.26 83.1401C366.279 83.1554 366.327 83.2359 366.427 83.3908C366.545 83.6012 366.69 83.8544 366.874 84.1606C367.247 84.8294 367.804 85.7931 368.507 86.9697C369.913 89.3233 371.959 92.5125 374.466 95.8609C375.272 96.9366 376.073 97.9554 376.851 98.9142C376.805 98.9586 376.747 99.0041 376.676 99.0398C376.66 99.047 376.638 99.0606 376.622 99.0677C375.844 98.109 375.049 97.095 374.243 96.031C371.73 92.6661 369.703 89.4521 368.334 87.0664C367.653 85.8762 367.118 84.8989 366.77 84.2106C366.608 83.8911 366.479 83.6307 366.373 83.419C366.293 83.2395 366.249 83.1411 366.26 83.1401Z" fill="#C0D2FF"/>
<path fill-rule="evenodd" clip-rule="evenodd" d="M366.916 171.374C367.878 176.256 367.218 181.438 365.084 185.927C364.867 186.366 364.582 186.848 364.135 186.99C364.073 187.01 364.001 187.026 363.922 187.028C363.905 187.028 363.879 187.031 363.862 187.03C363.429 187.015 363.063 186.674 362.775 186.349C359.271 182.499 357.061 177.491 356.575 172.304C356.081 167.121 357.315 161.782 360.027 157.337C363.703 160.69 365.961 166.49 366.916 171.374Z" fill="white"/>
<path fill-rule="evenodd" clip-rule="evenodd" d="M361.287 168.204C361.297 168.226 361.306 168.319 361.331 168.502C361.348 168.743 361.371 169.033 361.406 169.389C361.459 170.153 361.551 171.262 361.685 172.626C361.952 175.355 362.442 179.112 363.28 183.21C363.55 184.527 363.84 185.791 364.135 186.989C364.073 187.01 364.001 187.026 363.923 187.028C363.905 187.028 363.879 187.031 363.862 187.031C363.567 185.831 363.281 184.575 363.006 183.269C362.169 179.153 361.708 175.382 361.487 172.64C361.379 171.273 361.312 170.161 361.292 169.39C361.281 169.032 361.276 168.741 361.27 168.505C361.274 168.308 361.276 168.2 361.287 168.204Z" fill="#C0D2FF"/>
<path fill-rule="evenodd" clip-rule="evenodd" d="M370.279 203.018C367.726 207.288 366.598 212.388 367.09 217.334C367.145 217.821 367.251 218.371 367.624 218.655C367.675 218.695 367.737 218.735 367.811 218.763C367.828 218.769 367.851 218.78 367.867 218.786C368.281 218.917 368.74 218.72 369.12 218.512C373.719 216.07 377.49 212.104 379.699 207.386C381.914 202.673 382.556 197.232 381.504 192.131C376.912 194.046 372.827 198.742 370.279 203.018Z" fill="white"/>
<path fill-rule="evenodd" clip-rule="evenodd" d="M376.648 201.935C376.631 201.952 376.592 202.037 376.506 202.201C376.409 202.422 376.29 202.687 376.136 203.01C375.829 203.711 375.367 204.724 374.781 205.963C373.608 208.441 371.878 211.812 369.705 215.387C369.006 216.535 368.306 217.626 367.624 218.655C367.675 218.695 367.737 218.735 367.811 218.763C367.828 218.769 367.85 218.78 367.868 218.786C368.55 217.757 369.243 216.671 369.943 215.534C372.121 211.943 373.828 208.549 374.962 206.043C375.526 204.793 375.964 203.769 376.243 203.05C376.375 202.716 376.477 202.444 376.563 202.224C376.626 202.037 376.66 201.935 376.648 201.935Z" fill="#C0D2FF"/>
<path fill-rule="evenodd" clip-rule="evenodd" d="M373.405 109.857L373.585 110.447C373.586 110.447 373.588 110.447 373.588 110.447L373.405 109.857ZM384.335 113.503C380.556 113.503 372.812 111.544 372.536 110.144C372.47 109.811 372.657 109.41 373.223 109.266C373.582 109.177 373.954 109.365 374.056 109.691C374.082 109.777 374.087 109.864 374.073 109.947C375.74 110.829 383.246 112.973 385.881 112.076C386.397 111.901 386.47 111.685 386.474 111.477C386.481 111.143 386.782 110.874 387.15 110.874H387.16C387.533 110.88 387.831 111.159 387.825 111.497C387.813 112.161 387.424 113.302 384.959 113.482C384.766 113.496 384.557 113.503 384.335 113.503Z" fill="#040078"/>
</g>
</svg>
