<svg width="240" height="247" viewBox="0 0 240 247" fill="none" xmlns="http://www.w3.org/2000/svg">
<defs>
<linearGradient id="paint0_linear" x1="3.87097" y1="115.37" x2="3.87097" y2="127.221" gradientUnits="userSpaceOnUse">
<stop stop-color="#9D61F7"/>
<stop offset="1" stop-color="#00DEFC"/>
</linearGradient>
<linearGradient id="paint1_linear" x1="38.639" y1="-20.2007" x2="-2.61327" y2="94.4218" gradientUnits="userSpaceOnUse">
<stop stop-color="#17B7BD"/>
<stop offset="1" stop-color="#9DEB93"/>
</linearGradient>
<linearGradient id="paint2_linear" x1="4.38367" y1="-16.327" x2="4.38367" y2="129.746" gradientUnits="userSpaceOnUse">
<stop stop-color="#FFF2F2" stop-opacity="0.139408"/>
<stop offset="1" stop-color="#FEFAF9"/>
</linearGradient>
<linearGradient id="paint3_linear" x1="42.1458" y1="-71.7092" x2="42.1458" y2="104.105" gradientUnits="userSpaceOnUse">
<stop stop-color="#FFF2F2" stop-opacity="0.139408"/>
<stop offset="1" stop-color="#F9FBFE"/>
</linearGradient>
<linearGradient id="paint4_linear" x1="163.162" y1="7.35753" x2="163.162" y2="70.4608" gradientUnits="userSpaceOnUse">
<stop stop-color="#5174D0"/>
<stop offset="1" stop-color="#1F2480"/>
</linearGradient>
<linearGradient id="paint5_linear" x1="94.4516" y1="54.975" x2="94.4516" y2="173.168" gradientUnits="userSpaceOnUse">
<stop stop-color="#CFDEFF"/>
<stop offset="1" stop-color="#F1E4FF"/>
</linearGradient>
<linearGradient id="paint6_linear" x1="75.871" y1="119.005" x2="75.871" y2="198.994" gradientUnits="userSpaceOnUse">
<stop stop-color="#9D61F7"/>
<stop offset="1" stop-color="#00DEFC"/>
</linearGradient>
<linearGradient id="paint7_linear" x1="0" y1="136.276" x2="0" y2="208.285" gradientUnits="userSpaceOnUse">
<stop stop-color="#FFB36D"/>
<stop offset="1" stop-color="#E73E79"/>
</linearGradient>
<linearGradient id="paint8_linear" x1="-33.0278" y1="146.248" x2="-33.0278" y2="174.536" gradientUnits="userSpaceOnUse">
<stop stop-color="#FFF2F2" stop-opacity="0.139408"/>
<stop offset="1" stop-color="#FEFAF9"/>
</linearGradient>
</defs>
<ellipse opacity="0.2" cx="123.484" cy="239.257" rx="102.581" ry="7.74295" fill="#B6A0D1"/>
<path fill-rule="evenodd" clip-rule="evenodd" d="M20.9032 115.37H30.9677C31.8229 115.37 32.5161 116.063 32.5161 116.918V117.929C32.5161 118.785 31.8229 119.478 30.9677 119.478H20.9032C20.0481 119.478 19.3548 118.785 19.3548 117.929V116.918C19.3548 116.063 20.0481 115.37 20.9032 115.37ZM5.41936 123.113H30.9677C31.8229 123.113 32.5161 123.806 32.5161 124.661V125.672C32.5161 126.528 31.8229 127.221 30.9677 127.221H5.41936C4.56421 127.221 3.87097 126.528 3.87097 125.672V124.661C3.87097 123.806 4.56421 123.113 5.41936 123.113Z" fill="url(#paint0_linear)"/>
<path fill-rule="evenodd" clip-rule="evenodd" d="M119.226 16.6808C119.226 62.8991 84.38 115.314 63.0967 115.314C41.8135 115.314 6.96771 57.657 6.96771 16.6808C20.8391 16.6808 45.7137 -0.358473 63.0967 0.00575718C80.4798 0.369987 105.354 16.6808 119.226 16.6808Z" fill="url(#paint1_linear)"/>
<path opacity="0.965588" fill-rule="evenodd" clip-rule="evenodd" d="M17.6369 24.8297C28.7694 24.8297 48.7325 12.4213 62.6833 12.1442C62.6833 35.0027 62.6833 91.2765 62.6833 104.105C49.5228 104.105 17.6369 59.9901 17.6369 24.8297Z" fill="url(#paint2_linear)"/>
<path opacity="0.965588" fill-rule="evenodd" clip-rule="evenodd" d="M107.73 24.8297C107.73 59.9901 75.8438 104.105 62.6833 104.105C62.6833 91.2765 62.6833 35.0027 62.6833 12.1442C76.6341 12.4213 96.5972 24.8297 107.73 24.8297Z" fill="url(#paint3_linear)"/>
<path fill-rule="evenodd" clip-rule="evenodd" d="M73.7021 45.8848C75.4496 44.2056 78.2215 44.2671 79.8935 46.0222C81.5654 47.7773 81.5042 50.5614 79.7567 52.2407L60.2621 70.9743C58.2271 72.9299 54.9097 72.4754 53.4706 70.0438L45.3491 56.3213C44.1134 54.2332 44.7969 51.5344 46.8758 50.2932C48.9547 49.0521 51.6418 49.7386 52.8775 51.8266L58.1857 60.7956L73.7021 45.8848Z" fill="white"/>
<path fill-rule="evenodd" clip-rule="evenodd" d="M182.71 84.011C182.71 88.5011 186.349 92.141 190.839 92.141C195.328 92.141 198.968 88.5011 198.968 84.011C198.968 79.5208 195.328 75.8809 190.839 75.8809C186.349 75.8809 182.71 79.5208 182.71 84.011ZM190.839 89.8182C194.046 89.8182 196.645 87.2182 196.645 84.011C196.645 80.8037 194.046 78.2037 190.839 78.2037C187.632 78.2037 185.032 80.8037 185.032 84.011C185.032 87.2182 187.632 89.8182 190.839 89.8182ZM187.355 84.011C187.355 85.9353 188.915 87.4953 190.839 87.4953C192.763 87.4953 194.323 85.9353 194.323 84.011C194.323 82.0866 192.763 80.5266 190.839 80.5266C188.915 80.5266 187.355 82.0866 187.355 84.011ZM204.904 84.3649C204.872 85.2196 205.54 85.9379 206.394 85.9693C207.884 86.0241 209.357 86.1781 210.808 86.4289C211.65 86.5747 212.452 86.0096 212.597 85.1669C212.743 84.3241 212.178 83.5228 211.335 83.377C209.748 83.1025 208.136 82.9341 206.508 82.8742C205.653 82.8428 204.935 83.5102 204.904 84.3649ZM217.071 86.4777C216.738 87.2655 217.107 88.174 217.895 88.5068C219.26 89.0838 220.581 89.753 221.848 90.5089C222.582 90.9471 223.533 90.7069 223.971 89.9725C224.409 89.238 224.169 88.2873 223.435 87.8491C222.045 87.0201 220.597 86.2863 219.1 85.6538C218.312 85.321 217.404 85.6898 217.071 86.4777ZM227.703 94.9986C227.09 94.4026 227.076 93.4222 227.671 92.8088C228.267 92.1954 229.248 92.1814 229.861 92.7774C231.028 93.9119 232.111 95.1253 233.101 96.4079C233.624 97.085 233.499 98.0575 232.822 98.58C232.145 99.1026 231.172 98.9774 230.65 98.3004C229.75 97.1344 228.765 96.0308 227.703 94.9986ZM235.237 102.651C234.453 102.993 234.095 103.906 234.437 104.69C235.026 106.041 235.514 107.433 235.896 108.856C236.117 109.683 236.967 110.173 237.792 109.951C238.618 109.729 239.108 108.88 238.887 108.054C238.465 106.481 237.926 104.943 237.275 103.451C236.933 102.667 236.021 102.309 235.237 102.651ZM236.9 116.075C236.887 115.22 237.569 114.516 238.424 114.503C239.28 114.49 239.983 115.173 239.996 116.028C239.999 116.194 240 116.361 240 116.528C240 117.999 239.903 119.457 239.71 120.897C239.596 121.745 238.817 122.34 237.97 122.226C237.122 122.113 236.527 121.334 236.64 120.486C236.815 119.182 236.903 117.862 236.903 116.528C236.903 116.377 236.902 116.226 236.9 116.075ZM236.778 126.736C235.985 126.417 235.083 126.801 234.764 127.594C234.213 128.959 233.562 130.284 232.815 131.558C232.382 132.295 232.629 133.244 233.367 133.677C234.104 134.11 235.053 133.863 235.486 133.125C236.31 131.72 237.029 130.259 237.636 128.751C237.956 127.958 237.572 127.056 236.778 126.736ZM228.349 137.418C228.944 136.804 229.924 136.79 230.538 137.386C231.152 137.981 231.166 138.962 230.57 139.575C229.443 140.737 228.232 141.821 226.946 142.817C226.271 143.342 225.298 143.219 224.774 142.543C224.25 141.867 224.373 140.894 225.049 140.37C226.219 139.462 227.322 138.475 228.349 137.418ZM220.72 144.986C220.367 144.207 219.449 143.863 218.671 144.216C217.328 144.826 215.941 145.344 214.518 145.766C213.699 146.009 213.231 146.871 213.474 147.691C213.718 148.511 214.58 148.978 215.399 148.735C216.958 148.272 218.478 147.705 219.95 147.036C220.729 146.683 221.074 145.765 220.72 144.986ZM207.308 147.047C208.161 146.992 208.897 147.64 208.952 148.493C209.007 149.347 208.36 150.083 207.506 150.138C206.732 150.188 205.953 150.213 205.172 150.213C204.317 150.213 203.623 149.52 203.623 148.665C203.623 147.81 204.316 147.116 205.171 147.116C205.886 147.116 206.599 147.093 207.308 147.047Z" fill="#D4DFFF"/>
<ellipse cx="194.71" cy="48.3934" rx="22.0645" ry="22.0674" fill="url(#paint4_linear)"/>
<path d="M204.08 37.9654C205.533 36.5695 207.837 36.6207 209.227 38.0796C210.616 39.5385 210.566 41.8528 209.113 43.2487L192.908 58.821C191.216 60.4466 188.459 60.0688 187.263 58.0475L180.512 46.6407C179.484 44.905 180.053 42.6616 181.781 41.6299C183.509 40.5982 185.742 41.1688 186.77 42.9045L191.182 50.36L204.08 37.9654Z" fill="white"/>
<path d="M76.8238 119.005L133.699 77.4884C136.146 75.702 139.467 75.702 141.914 77.4884L198.789 119.005H199.742V192.025C199.742 195.874 196.622 198.994 192.774 198.994H82.8387C78.9905 198.994 75.871 195.874 75.871 192.025V119.005H76.8238Z" fill="#38B2FA"/>
<path fill-rule="evenodd" clip-rule="evenodd" d="M106.839 54.975H152.759L181.025 84.3365V160.78C181.025 167.622 175.479 173.168 168.638 173.168H106.839C99.9975 173.168 94.4516 167.622 94.4516 160.78V67.3637C94.4516 60.5216 99.9975 54.975 106.839 54.975Z" fill="url(#paint5_linear)"/>
<path fill-rule="evenodd" clip-rule="evenodd" d="M149.232 79.2703H105.258C104.573 79.2703 104.019 79.8249 104.019 80.5091V81.3145C104.019 81.9988 104.573 82.5534 105.258 82.5534H149.232C149.916 82.5534 150.47 81.9988 150.47 81.3145V80.5091C150.47 79.8249 149.916 79.2703 149.232 79.2703ZM166.669 85.1799H105.258C104.573 85.1799 104.019 85.7346 104.019 86.4188V87.2242C104.019 87.9084 104.573 88.4631 105.258 88.4631H166.669C167.353 88.4631 167.908 87.9084 167.908 87.2242V86.4188C167.908 85.7346 167.353 85.1799 166.669 85.1799ZM105.258 91.0896H153.552C154.236 91.0896 154.791 91.6443 154.791 92.3285V93.1339C154.791 93.8181 154.236 94.3728 153.552 94.3728H105.258C104.573 94.3728 104.019 93.8181 104.019 93.1339V92.3285C104.019 91.6443 104.573 91.0896 105.258 91.0896ZM166.669 91.0896H158.653C157.969 91.0896 157.414 91.6443 157.414 92.3285V93.1339C157.414 93.8181 157.969 94.3728 158.653 94.3728H166.669C167.353 94.3728 167.908 93.8181 167.908 93.1339V92.3285C167.908 91.6443 167.353 91.0896 166.669 91.0896ZM105.258 101.596H131.51C132.194 101.596 132.748 102.15 132.748 102.835V103.64C132.748 104.324 132.194 104.879 131.51 104.879H105.258C104.573 104.879 104.019 104.324 104.019 103.64V102.835C104.019 102.15 104.573 101.596 105.258 101.596ZM166.669 107.505H105.258C104.573 107.505 104.019 108.06 104.019 108.744V109.55C104.019 110.234 104.573 110.789 105.258 110.789H166.669C167.353 110.789 167.908 110.234 167.908 109.55V108.744C167.908 108.06 167.353 107.505 166.669 107.505ZM105.258 113.415H127.96C128.644 113.415 129.198 113.97 129.198 114.654V115.459C129.198 116.144 128.644 116.698 127.96 116.698H105.258C104.573 116.698 104.019 116.144 104.019 115.459V114.654C104.019 113.97 104.573 113.415 105.258 113.415ZM166.669 113.415H136.225C135.541 113.415 134.987 113.97 134.987 114.654V115.459C134.987 116.144 135.541 116.698 136.225 116.698H166.669C167.353 116.698 167.908 116.144 167.908 115.459V114.654C167.908 113.97 167.353 113.415 166.669 113.415ZM105.258 118.668H166.669C167.353 118.668 167.908 119.223 167.908 119.907V120.712C167.908 121.397 167.353 121.951 166.669 121.951H105.258C104.573 121.951 104.019 121.397 104.019 120.712V119.907C104.019 119.223 104.573 118.668 105.258 118.668ZM107.569 141.65C107.569 144.914 110.212 147.56 113.472 147.56C116.732 147.56 119.374 144.914 119.374 141.65C119.374 138.386 116.732 135.74 113.472 135.74C110.212 135.74 107.569 138.386 107.569 141.65ZM128.483 133.771H146.993C147.678 133.771 148.232 134.325 148.232 135.009V135.815C148.232 136.499 147.678 137.054 146.993 137.054H128.483C127.799 137.054 127.245 136.499 127.245 135.815V135.009C127.245 134.325 127.799 133.771 128.483 133.771ZM166.669 139.68H128.483C127.799 139.68 127.245 140.235 127.245 140.919V141.725C127.245 142.409 127.799 142.963 128.483 142.963H166.669C167.353 142.963 167.908 142.409 167.908 141.725V140.919C167.908 140.235 167.353 139.68 166.669 139.68ZM128.483 145.59H153.552C154.236 145.59 154.791 146.145 154.791 146.829V147.634C154.791 148.318 154.236 148.873 153.552 148.873H128.483C127.799 148.873 127.245 148.318 127.245 147.634V146.829C127.245 146.145 127.799 145.59 128.483 145.59ZM166.669 145.59H158.653C157.969 145.59 157.414 146.145 157.414 146.829V147.634C157.414 148.318 157.969 148.873 158.653 148.873H166.669C167.353 148.873 167.908 148.318 167.908 147.634V146.829C167.908 146.145 167.353 145.59 166.669 145.59Z" fill="white"/>
<path d="M152.823 55.1036L181.495 83.8087H165.94C158.696 83.8087 152.823 77.929 152.823 70.6761V55.1036Z" fill="#AABDEE"/>
<path fill-rule="evenodd" clip-rule="evenodd" d="M75.871 119.005L134.114 155.411C136.373 156.824 139.24 156.824 141.499 155.411L199.742 119.005V192.025C199.742 195.874 196.622 198.994 192.774 198.994H82.8387C78.9905 198.994 75.871 195.874 75.871 192.025V119.005Z" fill="url(#paint6_linear)"/>
<path d="M197.337 197.292C196.114 198.352 194.519 198.994 192.774 198.994H82.8387C81.0937 198.994 79.4985 198.352 78.2761 197.292L133.782 158.021C136.194 156.315 139.419 156.315 141.83 158.021L197.337 197.292Z" fill="#549BF9"/>
<path fill-rule="evenodd" clip-rule="evenodd" d="M6.19355 136.276H106.065C109.485 136.276 112.258 139.049 112.258 142.47V202.091C112.258 205.512 109.485 208.285 106.065 208.285H6.19355C2.77295 208.285 0 205.512 0 202.091V142.47C0 139.049 2.77295 136.276 6.19355 136.276Z" fill="url(#paint7_linear)"/>
<path fill-rule="evenodd" clip-rule="evenodd" d="M9.67743 184.282H48.3871C49.456 184.282 50.3226 185.149 50.3226 186.218C50.3226 187.287 49.456 188.154 48.3871 188.154H9.67743C8.60849 188.154 7.74194 187.287 7.74194 186.218C7.74194 185.149 8.60849 184.282 9.67743 184.282ZM9.67743 192.025H32.9032C33.9722 192.025 34.8387 192.892 34.8387 193.961C34.8387 195.03 33.9722 195.897 32.9032 195.897H9.67743C8.60849 195.897 7.74194 195.03 7.74194 193.961C7.74194 192.892 8.60849 192.025 9.67743 192.025Z" fill="white"/>
<path opacity="0.965588" fill-rule="evenodd" clip-rule="evenodd" d="M0 151.762H112.258V169.57H0V151.762Z" fill="url(#paint8_linear)"/>
<ellipse cx="95.2134" cy="191.233" rx="6.95537" ry="6.95073" fill="#FEDFE8"/>
<ellipse cx="85.9231" cy="191.233" rx="6.95537" ry="6.95073" fill="#FCC7DB"/>
</svg>
