<svg width="37" height="38" viewBox="0 0 37 38" fill="none" xmlns="http://www.w3.org/2000/svg">
<path d="M10.7268 18.5091C14.7432 18.5091 17.9991 14.5008 17.9991 9.55624C17.9991 4.61172 14.7432 0.603394 10.7268 0.603394C6.71048 0.603394 3.45459 4.61172 3.45459 9.55624C3.45459 14.5008 6.71048 18.5091 10.7268 18.5091Z" fill="#E8EBEC"/>
<path d="M29.7278 25.533C33.7442 25.533 37.0001 21.5247 37.0001 16.5802C37.0001 11.6357 33.7442 7.62738 29.7278 7.62738C25.7115 7.62738 22.4556 11.6357 22.4556 16.5802C22.4556 21.5247 25.7115 25.533 29.7278 25.533Z" fill="#E8EBEC"/>
<path d="M11.4397 31.8784C15.4561 31.8784 18.712 27.8701 18.712 22.9256C18.712 17.9811 15.4561 13.9728 11.4397 13.9728C7.42337 13.9728 4.16748 17.9811 4.16748 22.9256C4.16748 27.8701 7.42337 31.8784 11.4397 31.8784Z" fill="#E8EBEC"/>
<path d="M4.0025 19.4006C4.0025 19.4006 3.75118 25.7838 8.28683 30.4785C12.8225 35.1732 31.8618 30.508 31.8618 30.508C31.8618 30.508 37.8801 22.2966 35.4011 19.1663L4.0025 19.4006Z" fill="#FFC107"/>
<path d="M31.4037 30.6194C31.5005 30.518 31.5972 30.4166 31.6925 30.3136C33.0598 28.8398 34.1442 27.0882 34.8831 25.1596C35.622 23.2311 36.001 21.1636 35.9983 19.0761H22.4036" stroke="#483D3D" stroke-width="0.5" stroke-miterlimit="10"/>
<path d="M17.3775 19.0761H3.54005C3.53785 21.2371 3.94444 23.3757 4.73483 25.3606C5.52522 27.3454 6.68271 29.1345 8.13614 30.6179" stroke="#483D3D" stroke-width="0.5" stroke-miterlimit="10"/>
<path d="M24.1697 6.42523H24.4794C27.5349 6.42523 30.4652 7.73756 32.6258 10.0735C34.7863 12.4095 36.0001 15.5777 36.0001 18.8812V18.981H24.1697V6.42523Z" fill="#30B319" stroke="#483D3D" stroke-width="0.5" stroke-miterlimit="10"/>
<path d="M13.8999 32.6461C13.7105 31.624 13.18 30.7129 12.4095 30.0862C11.639 29.4595 10.6823 29.1611 9.72142 29.2476C8.76058 29.3341 7.86271 29.7996 7.1987 30.5554C6.53468 31.3112 6.15089 32.3046 6.12038 33.3466C6.08986 34.3885 6.41475 35.4062 7.0332 36.2059C7.65165 37.0056 8.52049 37.5316 9.47434 37.6837C10.4282 37.8357 11.4005 37.6033 12.2061 37.0306C13.0117 36.4579 13.5944 35.5849 13.8434 34.5778" fill="#30B319"/>
<path d="M13.8999 32.6461C13.7105 31.624 13.18 30.7129 12.4095 30.0862C11.639 29.4595 10.6823 29.1611 9.72142 29.2476C8.76058 29.3341 7.86271 29.7996 7.1987 30.5554C6.53468 31.3112 6.15089 32.3046 6.12038 33.3466C6.08986 34.3885 6.41475 35.4062 7.0332 36.2059C7.65165 37.0056 8.52049 37.5316 9.47434 37.6837C10.4282 37.8357 11.4005 37.6033 12.2061 37.0306C13.0117 36.4579 13.5944 35.5849 13.8434 34.5778" stroke="#483D3D" stroke-width="0.5" stroke-miterlimit="10"/>
<path d="M25.6401 32.6461C25.8296 31.624 26.3601 30.7129 27.1306 30.0862C27.9011 29.4595 28.8578 29.1611 29.8187 29.2476C30.7795 29.3341 31.6774 29.7996 32.3414 30.5554C33.0054 31.3112 33.3892 32.3046 33.4197 33.3466C33.4502 34.3885 33.1254 35.4062 32.5069 36.2059C31.8884 37.0056 31.0196 37.5316 30.0658 37.6837C29.1119 37.8357 28.1396 37.6033 27.334 37.0306C26.5284 36.4579 25.9456 35.5849 25.6967 34.5778" fill="#30B319"/>
<path d="M25.6401 32.6461C25.8296 31.624 26.3601 30.7129 27.1306 30.0862C27.9011 29.4595 28.8578 29.1611 29.8187 29.2476C30.7795 29.3341 31.6774 29.7996 32.3414 30.5554C33.0054 31.3112 33.3892 32.3046 33.4197 33.3466C33.4502 34.3885 33.1254 35.4062 32.5069 36.2059C31.8884 37.0056 31.0196 37.5316 30.0658 37.6837C29.1119 37.8357 28.1396 37.6033 27.334 37.0306C26.5284 36.4579 25.9456 35.5849 25.6967 34.5778" stroke="#483D3D" stroke-width="0.5" stroke-miterlimit="10"/>
<path d="M28.1401 34.5762H11.6392C11.4022 34.5762 11.175 34.4744 11.0075 34.2933C10.84 34.1121 10.7458 33.8665 10.7458 33.6103C10.7458 33.3542 10.84 33.1085 11.0075 32.9274C11.175 32.7462 11.4022 32.6445 11.6392 32.6445H28.1401C28.3771 32.6445 28.6043 32.7462 28.7718 32.9274C28.9393 33.1085 29.0334 33.3542 29.0334 33.6103C29.0334 33.8665 28.9393 34.1121 28.7718 34.2933C28.6043 34.4744 28.3771 34.5762 28.1401 34.5762Z" fill="#FFC107" stroke="#483D3D" stroke-width="0.5" stroke-miterlimit="10"/>
<path d="M3.80225 22.0686H18.2144" stroke="#483D3D" stroke-width="0.5" stroke-miterlimit="10"/>
<path d="M19.4053 22.0686H23.376" stroke="#483D3D" stroke-width="0.5" stroke-miterlimit="10"/>
<path d="M1 11.2029V14.2066H5.31172L5.31023 14.2082V18.9553H8.08992V14.2082V14.2066V11.2898V11.2029H1Z" fill="#30B319" stroke="#483D3D" stroke-width="0.5" stroke-miterlimit="10"/>
<path d="M19.9517 19.6669C20.2535 19.6669 20.4981 19.4024 20.4981 19.0761C20.4981 18.7498 20.2535 18.4853 19.9517 18.4853C19.6499 18.4853 19.4053 18.7498 19.4053 19.0761C19.4053 19.4024 19.6499 19.6669 19.9517 19.6669Z" fill="#483D3D"/>
<path d="M27.2456 6.78741V12.7048" stroke="#FFC107" stroke-width="0.5" stroke-miterlimit="10"/>
<path d="M27.2456 13.6497V15.0984" stroke="#483D3D" stroke-width="0.5" stroke-miterlimit="10"/>
<path opacity="0.2" d="M35.8363 19.0761H3.54004V21.444H35.8363V19.0761Z" fill="#483D3D"/>
</svg>
