<svg width="36" height="36" viewBox="0 0 36 36" fill="none" xmlns="http://www.w3.org/2000/svg">
<g clip-path="url(#clip0)">
<path d="M7.13954 26.7053C11.0826 26.7053 14.2791 23.6777 14.2791 19.9429C14.2791 16.2081 11.0826 13.1804 7.13954 13.1804C3.19648 13.1804 0 16.2081 0 19.9429C0 23.6777 3.19648 26.7053 7.13954 26.7053Z" fill="#E8EBEC"/>
<path d="M23.2912 35.9987C26.6706 35.9987 29.4101 33.4039 29.4101 30.203C29.4101 27.0022 26.6706 24.4073 23.2912 24.4073C19.9119 24.4073 17.1724 27.0022 17.1724 30.203C17.1724 33.4039 19.9119 35.9987 23.2912 35.9987Z" fill="#E8EBEC"/>
<path d="M25.6792 19.3206C31.3119 19.3206 35.8782 14.9956 35.8782 9.66032C35.8782 4.32507 31.3119 0 25.6792 0C20.0465 0 15.4802 4.32507 15.4802 9.66032C15.4802 14.9956 20.0465 19.3206 25.6792 19.3206Z" fill="#E8EBEC"/>
<path d="M20.318 10.8924H2.97949L4.00017 8.47665H19.2986L20.318 10.8924Z" fill="#FFC107"/>
<path d="M16.505 9.92558H3.38794L4.00035 8.47665H16.6463L16.9787 9.26371C17.0098 9.33698 17.0214 9.41636 17.0125 9.49487C17.0036 9.57338 16.9745 9.64861 16.9277 9.71397C16.8809 9.77933 16.8179 9.83281 16.7442 9.86971C16.6705 9.9066 16.5884 9.92579 16.505 9.92558Z" fill="white"/>
<path d="M20.3181 11.2542H2.97962C2.91726 11.2542 2.85587 11.2397 2.80079 11.212C2.74572 11.1843 2.69864 11.1442 2.66367 11.0953C2.62869 11.0464 2.60688 10.9902 2.60014 10.9314C2.5934 10.8727 2.60193 10.8133 2.625 10.7585L3.64568 8.344C3.67364 8.27656 3.72246 8.2187 3.78574 8.178C3.84902 8.13731 3.92381 8.11567 4.0003 8.11594H19.2988C19.3752 8.11584 19.4499 8.13754 19.5132 8.17822C19.5764 8.21889 19.6253 8.27666 19.6534 8.344L20.6741 10.7585C20.6964 10.8137 20.7046 10.8733 20.6977 10.9322C20.6909 10.991 20.6693 11.0475 20.6348 11.0968C20.5996 11.1455 20.5523 11.1854 20.4971 11.2128C20.4419 11.2402 20.3805 11.2545 20.3181 11.2542ZM3.54492 10.5292H19.7528L19.0397 8.83854H4.2594L3.54492 10.5292Z" fill="#30B319"/>
<path d="M17.2586 32.144H6.04152L4.00146 10.8923H19.2986L17.2586 32.144Z" fill="#FFC107"/>
<path d="M10.2068 29.7296H5.80478L3.99634 10.8899H12.943L11.2236 28.8508C11.2001 29.0909 11.0828 29.3141 10.8948 29.4766C10.7067 29.6392 10.4614 29.7294 10.2068 29.7296Z" fill="white"/>
<path d="M17.2588 32.5072H6.04041C5.94501 32.507 5.85313 32.4731 5.78271 32.4121C5.7123 32.3512 5.66841 32.2675 5.65962 32.1775L3.61956 10.9308C3.61464 10.8806 3.62083 10.83 3.63774 10.7823C3.65464 10.7345 3.68189 10.6906 3.71773 10.6534C3.75357 10.6162 3.79723 10.5865 3.84589 10.5662C3.89456 10.5458 3.94717 10.5354 4.00035 10.5354H19.2988C19.3519 10.5359 19.4043 10.5466 19.4529 10.5668C19.5015 10.5871 19.5452 10.6164 19.5815 10.6532C19.6166 10.6907 19.6431 10.7348 19.6593 10.7826C19.6755 10.8304 19.6811 10.8809 19.6757 10.9308L17.6396 32.1775C17.6308 32.2675 17.5869 32.3512 17.5165 32.4121C17.446 32.4731 17.3542 32.507 17.2588 32.5072ZM6.3898 31.7822H16.9094L18.8801 11.2543H4.41909L6.3898 31.7822Z" fill="#30B319"/>
<path d="M11.6488 8.83858C11.5609 8.83835 11.4758 8.80954 11.4077 8.75697C11.3395 8.7044 11.2926 8.63126 11.2746 8.54979L10.5967 5.4214L2.80289 1.55182C2.75847 1.52968 2.71909 1.49948 2.68699 1.46292C2.65489 1.42637 2.63071 1.38419 2.61583 1.33878C2.60094 1.29338 2.59564 1.24564 2.60024 1.1983C2.60483 1.15095 2.61922 1.10493 2.64259 1.06285C2.66596 1.02078 2.69785 0.983476 2.73644 0.953075C2.77504 0.922673 2.81957 0.899769 2.86751 0.88567C2.91544 0.871571 2.96584 0.866553 3.01582 0.870903C3.06581 0.875253 3.1144 0.888884 3.15882 0.911021L11.1123 4.85745C11.1625 4.88236 11.2063 4.91751 11.2405 4.96037C11.2747 5.00324 11.2984 5.05275 11.3099 5.10534L12.0244 8.40105C12.0345 8.44769 12.0348 8.49576 12.0253 8.54251C12.0158 8.58927 11.9966 8.63378 11.9689 8.6735C11.9412 8.71322 11.9054 8.74738 11.8638 8.774C11.8221 8.80063 11.7753 8.8192 11.726 8.82866C11.7007 8.83449 11.6748 8.83781 11.6488 8.83858Z" fill="#30B319"/>
<path d="M6.55061 16.5666C6.45533 16.5666 6.36346 16.533 6.29301 16.4722C6.22257 16.4115 6.17863 16.328 6.16982 16.2381L6.02719 14.7508C6.01808 14.6551 6.04931 14.56 6.11404 14.4862C6.17878 14.4123 6.27176 14.3657 6.37265 14.3566C6.47307 14.3502 6.57225 14.3806 6.64969 14.4415C6.72713 14.5024 6.77692 14.5892 6.78877 14.6838L6.9314 16.1712C6.94051 16.2668 6.90928 16.3619 6.84455 16.4358C6.77981 16.5096 6.68683 16.5562 6.58594 16.5653L6.55061 16.5666Z" fill="#30B319"/>
<path d="M7.39611 25.3766C7.30062 25.3767 7.20858 25.3429 7.1381 25.2818C7.06762 25.2208 7.02382 25.137 7.01532 25.0469L6.3401 18.0143C6.33507 17.9207 6.36842 17.8289 6.43319 17.758C6.49797 17.6872 6.58914 17.6428 6.68765 17.6342C6.78616 17.6255 6.88438 17.6533 6.96179 17.7117C7.03919 17.77 7.08979 17.8545 7.10299 17.9473L7.7769 24.9812C7.78159 25.0286 7.77636 25.0764 7.76153 25.1218C7.7467 25.1673 7.72254 25.2095 7.69046 25.2462C7.65837 25.2828 7.61898 25.313 7.57453 25.3352C7.53009 25.3574 7.48146 25.371 7.43144 25.3754L7.39611 25.3766Z" fill="#30B319"/>
<path d="M13.6902 28.2819H35.1075C35.2429 28.2819 35.3727 28.3329 35.4684 28.4235C35.5641 28.5142 35.6178 28.6371 35.6178 28.7653V29.7308C35.6178 30.3712 35.3493 30.9853 34.8712 31.4381C34.3932 31.8909 33.7448 32.1453 33.0688 32.1453H15.7302C15.0542 32.1453 14.4058 31.8909 13.9278 31.4381C13.4497 30.9853 13.1812 30.3712 13.1812 29.7308V28.7653C13.1812 28.6371 13.2349 28.5142 13.3306 28.4235C13.4263 28.3329 13.5561 28.2819 13.6915 28.2819H13.6902Z" fill="#FFC107"/>
<path d="M27.459 32.1453H15.7303C15.0542 32.1453 14.4056 31.891 13.9274 31.4382C13.4491 30.9854 13.1803 30.3713 13.1799 29.7308V28.7641C13.1803 28.6361 13.2342 28.5134 13.3299 28.4231C13.4255 28.3327 13.5552 28.2819 13.6903 28.2819H31.5378C31.5375 29.3065 31.1076 30.2889 30.3428 31.0134C29.5779 31.7378 28.5407 32.145 27.459 32.1453Z" fill="white"/>
<path d="M33.0676 32.5084H15.7304C14.9528 32.5078 14.2073 32.2149 13.6575 31.6942C13.1077 31.1734 12.7985 30.4673 12.7979 29.7308V28.7641C12.7985 28.5402 12.8928 28.3257 13.0601 28.1675C13.2273 28.0093 13.4539 27.9203 13.6903 27.92H35.1076C35.344 27.9203 35.5706 28.0093 35.7378 28.1675C35.9051 28.3257 35.9994 28.5402 36.0001 28.7641V29.7308C35.9994 30.4673 35.6902 31.1734 35.1404 31.6942C34.5906 32.2149 33.8451 32.5078 33.0676 32.5084ZM13.6903 28.6438C13.6556 28.6438 13.6223 28.6569 13.5978 28.6801C13.5732 28.7034 13.5594 28.7349 13.5594 28.7678V29.7345C13.5601 30.2789 13.7888 30.8008 14.1954 31.1856C14.6019 31.5704 15.153 31.7868 15.7277 31.7871H33.0676C33.6423 31.7868 34.1934 31.5704 34.5999 31.1856C35.0065 30.8008 35.2352 30.2789 35.2359 29.7345V28.7678C35.2359 28.7349 35.2221 28.7034 35.1975 28.6801C35.173 28.6569 35.1397 28.6438 35.105 28.6438H13.6903Z" fill="#30B319"/>
<path d="M33.0676 28.2832H15.7304C15.5295 28.2832 15.3306 28.2457 15.145 28.1729C14.9594 28.1001 14.7908 27.9933 14.6487 27.8588C14.5067 27.7242 14.394 27.5645 14.3171 27.3887C14.2402 27.2129 14.2007 27.0245 14.2007 26.8342C14.2007 26.644 14.2402 26.4556 14.3171 26.2798C14.394 26.104 14.5067 25.9442 14.6487 25.8097C14.7908 25.6752 14.9594 25.5684 15.145 25.4956C15.3306 25.4228 15.5295 25.3853 15.7304 25.3853H33.0676C33.4722 25.3863 33.8599 25.539 34.1458 25.8101C34.4318 26.0812 34.5927 26.4486 34.5934 26.8318C34.5941 27.2158 34.4338 27.5844 34.1477 27.8566C33.8616 28.1287 33.4731 28.2822 33.0676 28.2832Z" fill="white"/>
<path d="M33.0675 25.3828H32.4642C32.5497 25.6011 32.5777 25.8359 32.5459 26.0668C32.5141 26.2976 32.4234 26.5177 32.2817 26.708C32.1399 26.8982 31.9515 27.0529 31.7325 27.1587C31.5135 27.2645 31.2706 27.3182 31.0248 27.3151H14.2935C14.3982 27.5975 14.5929 27.8421 14.8508 28.0151C15.1086 28.1881 15.4169 28.2809 15.7329 28.2807H33.0675C33.2684 28.2807 33.4673 28.2432 33.6529 28.1704C33.8385 28.0976 34.0071 27.9908 34.1491 27.8563C34.2912 27.7217 34.4039 27.562 34.4807 27.3862C34.5576 27.2104 34.5972 27.022 34.5972 26.8317C34.5972 26.6415 34.5576 26.453 34.4807 26.2773C34.4039 26.1015 34.2912 25.9417 34.1491 25.8072C34.0071 25.6727 33.8385 25.5659 33.6529 25.4931C33.4673 25.4203 33.2684 25.3828 33.0675 25.3828Z" fill="#FFC107"/>
<path d="M33.0675 28.6438H15.7302C15.4749 28.6501 15.2208 28.608 14.9829 28.5198C14.745 28.4316 14.5282 28.2992 14.3452 28.1303C14.1623 27.9615 14.0168 27.7597 13.9175 27.5367C13.8182 27.3138 13.7671 27.0743 13.7671 26.8323C13.7671 26.5904 13.8182 26.3509 13.9175 26.128C14.0168 25.905 14.1623 25.7032 14.3452 25.5344C14.5282 25.3655 14.745 25.2331 14.9829 25.1449C15.2208 25.0567 15.4749 25.0146 15.7302 25.0209H33.0675C33.3228 25.0146 33.5769 25.0567 33.8148 25.1449C34.0527 25.2331 34.2695 25.3655 34.4525 25.5344C34.6354 25.7032 34.7809 25.905 34.8802 26.128C34.9795 26.3509 35.0306 26.5904 35.0306 26.8323C35.0306 27.0743 34.9795 27.3138 34.8802 27.5367C34.7809 27.7597 34.6354 27.9615 34.4525 28.1303C34.2695 28.2992 34.0527 28.4316 33.8148 28.5198C33.5769 28.608 33.3228 28.6501 33.0675 28.6438ZM15.7302 25.7447C15.4259 25.7447 15.134 25.8593 14.9188 26.0631C14.7035 26.267 14.5826 26.5434 14.5826 26.8317C14.5826 27.12 14.7035 27.3965 14.9188 27.6004C15.134 27.8042 15.4259 27.9187 15.7302 27.9187H33.0675C33.3718 27.9187 33.6637 27.8042 33.8789 27.6004C34.0942 27.3965 34.2151 27.12 34.2151 26.8317C34.2151 26.5434 34.0942 26.267 33.8789 26.0631C33.6637 25.8593 33.3718 25.7447 33.0675 25.7447H15.7302Z" fill="#30B319"/>
<path d="M33.0676 25.3828H15.7304C15.3247 25.3828 14.9356 25.2302 14.6487 24.9585C14.3618 24.6867 14.2007 24.3182 14.2007 23.9339C14.2007 23.5496 14.3618 23.1811 14.6487 22.9094C14.9356 22.6376 15.3247 22.485 15.7304 22.485H33.0676C33.4726 22.486 33.8607 22.6391 34.1467 22.9107C34.4328 23.1823 34.5934 23.5503 34.5934 23.9339C34.5934 24.3175 34.4328 24.6855 34.1467 24.9571C33.8607 25.2288 33.4726 25.3819 33.0676 25.3828Z" fill="white"/>
<path d="M33.0675 22.485H30.4242C30.4849 22.6393 30.5168 22.8025 30.5184 22.9671C30.5184 23.1574 30.4788 23.3458 30.4019 23.5216C30.3251 23.6974 30.2124 23.8571 30.0703 23.9917C29.9283 24.1262 29.7597 24.233 29.5741 24.3058C29.3885 24.3786 29.1896 24.4161 28.9887 24.4161H14.2935C14.3979 24.6987 14.5926 24.9436 14.8505 25.1168C15.1084 25.29 15.4167 25.383 15.7329 25.3828H33.0675C33.4732 25.3828 33.8623 25.2302 34.1491 24.9585C34.436 24.6867 34.5972 24.3182 34.5972 23.9339C34.5972 23.5496 34.436 23.1811 34.1491 22.9094C33.8623 22.6376 33.4732 22.485 33.0675 22.485Z" fill="#FFC107"/>
<path d="M33.0675 25.7447H15.7302C15.4749 25.7511 15.2208 25.7089 14.9829 25.6207C14.745 25.5325 14.5282 25.4001 14.3452 25.2313C14.1623 25.0624 14.0168 24.8606 13.9175 24.6377C13.8182 24.4147 13.7671 24.1752 13.7671 23.9333C13.7671 23.6913 13.8182 23.4518 13.9175 23.2289C14.0168 23.006 14.1623 22.8041 14.3452 22.6353C14.5282 22.4665 14.745 22.334 14.9829 22.2458C15.2208 22.1577 15.4749 22.1155 15.7302 22.1218H33.0675C33.3228 22.1155 33.5769 22.1577 33.8148 22.2458C34.0527 22.334 34.2695 22.4665 34.4525 22.6353C34.6354 22.8041 34.7809 23.006 34.8802 23.2289C34.9795 23.4518 35.0306 23.6913 35.0306 23.9333C35.0306 24.1752 34.9795 24.4147 34.8802 24.6377C34.7809 24.8606 34.6354 25.0624 34.4525 25.2313C34.2695 25.4001 34.0527 25.5325 33.8148 25.6207C33.5769 25.7089 33.3228 25.7511 33.0675 25.7447ZM15.7302 22.8469C15.4259 22.8469 15.134 22.9614 14.9188 23.1653C14.7035 23.3691 14.5826 23.6456 14.5826 23.9339C14.5826 24.2222 14.7035 24.4987 14.9188 24.7025C15.134 24.9064 15.4259 25.0209 15.7302 25.0209H33.0675C33.3718 25.0209 33.6637 24.9064 33.8789 24.7025C34.0942 24.4987 34.2151 24.2222 34.2151 23.9339C34.2151 23.6456 34.0942 23.3691 33.8789 23.1653C33.6637 22.9614 33.3718 22.8469 33.0675 22.8469H15.7302Z" fill="#30B319"/>
<path d="M33.0676 22.485H15.7304C15.3247 22.485 14.9356 22.3323 14.6487 22.0606C14.3618 21.7889 14.2007 21.4203 14.2007 21.036C14.2005 20.8457 14.24 20.6571 14.3167 20.4812C14.3935 20.3052 14.5062 20.1454 14.6483 20.0107C14.7903 19.876 14.959 19.7692 15.1447 19.6963C15.3304 19.6234 15.5294 19.5859 15.7304 19.5859H33.0676C33.4729 19.5869 33.8611 19.7401 34.1472 20.012C34.4333 20.2839 34.5937 20.6522 34.5934 21.036C34.5934 21.4197 34.4328 21.7876 34.1467 22.0593C33.8607 22.3309 33.4726 22.484 33.0676 22.485Z" fill="white"/>
<path d="M33.0676 19.5859H31.954C32.0146 19.7406 32.0465 19.9042 32.0482 20.0693C32.0482 20.4535 31.887 20.8221 31.6001 21.0938C31.3133 21.3655 30.9242 21.5182 30.5185 21.5182H14.2922C14.3969 21.8007 14.5916 22.0455 14.8494 22.2187C15.1073 22.3918 15.4156 22.4849 15.7317 22.485H33.0676C33.4657 22.4739 33.8436 22.3164 34.1211 22.0457C34.3986 21.7751 34.5538 21.4127 34.5538 21.0354C34.5538 20.6582 34.3986 20.2957 34.1211 20.0251C33.8436 19.7545 33.4657 19.5969 33.0676 19.5859Z" fill="#FFC107"/>
<path d="M33.0675 22.8469H15.7302C15.4749 22.8532 15.2208 22.811 14.9829 22.7228C14.745 22.6347 14.5282 22.5022 14.3452 22.3334C14.1623 22.1646 14.0168 21.9627 13.9175 21.7398C13.8182 21.5169 13.7671 21.2774 13.7671 21.0354C13.7671 20.7935 13.8182 20.554 13.9175 20.331C14.0168 20.1081 14.1623 19.9063 14.3452 19.7374C14.5282 19.5686 14.745 19.4362 14.9829 19.348C15.2208 19.2598 15.4749 19.2176 15.7302 19.2239H33.0675C33.3228 19.2176 33.5769 19.2598 33.8148 19.348C34.0527 19.4362 34.2695 19.5686 34.4525 19.7374C34.6354 19.9063 34.7809 20.1081 34.8802 20.331C34.9795 20.554 35.0306 20.7935 35.0306 21.0354C35.0306 21.2774 34.9795 21.5169 34.8802 21.7398C34.7809 21.9627 34.6354 22.1646 34.4525 22.3334C34.2695 22.5022 34.0527 22.6347 33.8148 22.7228C33.5769 22.811 33.3228 22.8532 33.0675 22.8469ZM15.7302 19.949C15.5764 19.9441 15.423 19.9686 15.2793 20.0209C15.1356 20.0733 15.0045 20.1526 14.8938 20.2539C14.7831 20.3553 14.6951 20.4767 14.635 20.611C14.5749 20.7452 14.5439 20.8896 14.5439 21.0354C14.5439 21.1813 14.5749 21.3256 14.635 21.4599C14.6951 21.5941 14.7831 21.7155 14.8938 21.8169C15.0045 21.9183 15.1356 21.9975 15.2793 22.0499C15.423 22.1023 15.5764 22.1267 15.7302 22.1218H33.0675C33.2213 22.1267 33.3747 22.1023 33.5184 22.0499C33.6621 21.9975 33.7932 21.9183 33.9039 21.8169C34.0146 21.7155 34.1026 21.5941 34.1627 21.4599C34.2228 21.3256 34.2538 21.1813 34.2538 21.0354C34.2538 20.8896 34.2228 20.7452 34.1627 20.611C34.1026 20.4767 34.0146 20.3553 33.9039 20.2539C33.7932 20.1526 33.6621 20.0733 33.5184 20.0209C33.3747 19.9686 33.2213 19.9441 33.0675 19.949H15.7302Z" fill="#30B319"/>
<path d="M16.6084 19.5871L19.4689 23.9339L27.8267 19.5871H16.6084Z" fill="white"/>
<path d="M22.7286 19.5871L19.469 23.9339L27.8268 19.5871H22.7286Z" fill="#FFC107"/>
<path d="M19.4687 24.2958C19.4039 24.2959 19.3401 24.2804 19.2833 24.2507C19.2265 24.221 19.1786 24.1781 19.1442 24.126L16.2837 19.778C16.246 19.7229 16.2251 19.6591 16.2233 19.5935C16.2214 19.5279 16.2387 19.4631 16.2732 19.4062C16.3064 19.3497 16.355 19.3026 16.4139 19.2699C16.4728 19.2372 16.5399 19.2201 16.6082 19.2202H27.8266C27.9118 19.2199 27.9947 19.2465 28.0621 19.2958C28.1295 19.3452 28.1776 19.4145 28.1986 19.4927C28.2197 19.5709 28.2125 19.6536 28.1783 19.7275C28.1441 19.8014 28.0848 19.8624 28.0098 19.9007L19.6532 24.2475C19.5972 24.2784 19.5336 24.2951 19.4687 24.2958ZM17.2965 19.949L19.6022 23.4493L26.3361 19.9466L17.2965 19.949Z" fill="#30B319"/>
<path d="M20.6873 25.3841L23.5491 29.7309L31.9069 25.3828L20.6873 25.3841Z" fill="white"/>
<path d="M26.8074 25.3841L23.5491 29.7309L31.9069 25.3828L26.8074 25.3841Z" fill="#FFC107"/>
<path d="M23.549 30.0927C23.484 30.0928 23.4201 30.0772 23.3632 30.0472C23.3064 30.0173 23.2587 29.9741 23.2245 29.9217L20.3627 25.5749C20.3268 25.52 20.3071 25.4571 20.3055 25.3925C20.3039 25.328 20.3205 25.2643 20.3536 25.2078C20.3866 25.1514 20.4349 25.1043 20.4936 25.0715C20.5522 25.0386 20.619 25.0212 20.6872 25.0209H31.9068C31.9916 25.021 32.0739 25.0478 32.1408 25.0971C32.2078 25.1464 32.2555 25.2154 32.2764 25.2932C32.2974 25.371 32.2905 25.4532 32.2568 25.5269C32.223 25.6005 32.1644 25.6615 32.09 25.7001L23.7322 30.0481C23.6761 30.0773 23.6131 30.0926 23.549 30.0927ZM21.3768 25.746L23.6825 29.2487L30.4151 25.7447L21.3768 25.746Z" fill="#30B319"/>
<path d="M35.1076 19.5859H13.6903C13.555 19.5856 13.4254 19.5345 13.3298 19.4439C13.2342 19.3534 13.1803 19.2306 13.1799 19.1025C13.1803 17.6935 13.7715 16.3423 14.8235 15.3461C15.8755 14.3498 17.3022 13.7902 18.7898 13.7902H30.0133C30.75 13.79 31.4794 13.9273 32.16 14.1942C32.8407 14.4611 33.4591 14.8524 33.98 15.3457C34.501 15.839 34.9142 16.4247 35.1961 17.0693C35.4781 17.7139 35.6232 18.4048 35.6232 19.1025C35.6232 19.1664 35.6098 19.2297 35.5838 19.2886C35.5579 19.3476 35.5198 19.4011 35.4719 19.4461C35.4239 19.491 35.367 19.5265 35.3045 19.5505C35.242 19.5745 35.1751 19.5865 35.1076 19.5859Z" fill="#FFC107"/>
<path d="M30.5171 19.5859H13.6903C13.555 19.5856 13.4254 19.5345 13.3298 19.4439C13.2342 19.3534 13.1803 19.2306 13.1799 19.1025C13.1803 17.6935 13.7715 16.3423 14.8235 15.3461C15.8755 14.3498 17.3022 13.7902 18.7898 13.7902H24.3983C25.2019 13.79 25.9976 13.9398 26.7401 14.231C27.4825 14.5222 28.1571 14.9491 28.7254 15.4873C29.2936 16.0256 29.7443 16.6645 30.0517 17.3678C30.3592 18.071 30.5173 18.8247 30.5171 19.5859Z" fill="white"/>
<path d="M35.1076 19.9478H13.6903C13.4537 19.9475 13.2269 19.8583 13.0596 19.6999C12.8923 19.5414 12.7982 19.3266 12.7979 19.1025C12.7999 17.5979 13.4319 16.1554 14.5551 15.0915C15.6784 14.0276 17.2013 13.429 18.7898 13.427H30.0134C31.6019 13.429 33.1247 14.0276 34.248 15.0915C35.3713 16.1554 36.0032 17.5979 36.0053 19.1025C36.0051 19.2139 35.9817 19.3241 35.9365 19.4269C35.8913 19.5298 35.8251 19.6231 35.7417 19.7016C35.6583 19.7801 35.5593 19.8423 35.4505 19.8846C35.3417 19.9268 35.2252 19.9483 35.1076 19.9478ZM18.7898 14.1534C17.4029 14.1534 16.0728 14.6747 15.0914 15.6028C14.11 16.531 13.5576 17.7901 13.5555 19.1037C13.5555 19.1366 13.5693 19.1681 13.5938 19.1914C13.6184 19.2146 13.6517 19.2277 13.6864 19.2277H35.1076C35.1423 19.2277 35.1756 19.2146 35.2001 19.1914C35.2247 19.1681 35.2385 19.1366 35.2385 19.1037C35.2364 17.7916 34.6853 16.5338 33.7058 15.6059C32.7264 14.678 31.3986 14.1556 30.0134 14.1534H18.7898Z" fill="#30B319"/>
<path d="M24.3995 18.137C24.6814 18.137 24.9098 17.9205 24.9098 17.6536C24.9098 17.3866 24.6814 17.1702 24.3995 17.1702C24.1176 17.1702 23.8892 17.3866 23.8892 17.6536C23.8892 17.9205 24.1176 18.137 24.3995 18.137Z" fill="#30B319"/>
<path d="M26.4395 16.2046C26.7214 16.2046 26.9499 15.9882 26.9499 15.7212C26.9499 15.4543 26.7214 15.2379 26.4395 15.2379C26.1577 15.2379 25.9292 15.4543 25.9292 15.7212C25.9292 15.9882 26.1577 16.2046 26.4395 16.2046Z" fill="#30B319"/>
<path d="M28.4796 18.137C28.7614 18.137 28.9899 17.9205 28.9899 17.6536C28.9899 17.3866 28.7614 17.1702 28.4796 17.1702C28.1977 17.1702 27.9692 17.3866 27.9692 17.6536C27.9692 17.9205 28.1977 18.137 28.4796 18.137Z" fill="#30B319"/>
<path d="M32.5597 18.137C32.8415 18.137 33.07 17.9205 33.07 17.6536C33.07 17.3866 32.8415 17.1702 32.5597 17.1702C32.2778 17.1702 32.0493 17.3866 32.0493 17.6536C32.0493 17.9205 32.2778 18.137 32.5597 18.137Z" fill="#30B319"/>
<path d="M30.5196 16.2046C30.8015 16.2046 31.03 15.9882 31.03 15.7212C31.03 15.4543 30.8015 15.2379 30.5196 15.2379C30.2378 15.2379 30.0093 15.4543 30.0093 15.7212C30.0093 15.9882 30.2378 16.2046 30.5196 16.2046Z" fill="#30B319"/>
<path d="M20.3194 18.137C20.6013 18.137 20.8298 17.9205 20.8298 17.6536C20.8298 17.3866 20.6013 17.1702 20.3194 17.1702C20.0376 17.1702 19.8091 17.3866 19.8091 17.6536C19.8091 17.9205 20.0376 18.137 20.3194 18.137Z" fill="#30B319"/>
<path d="M22.3595 16.2046C22.6413 16.2046 22.8698 15.9882 22.8698 15.7212C22.8698 15.4543 22.6413 15.2379 22.3595 15.2379C22.0776 15.2379 21.8491 15.4543 21.8491 15.7212C21.8491 15.9882 22.0776 16.2046 22.3595 16.2046Z" fill="#30B319"/>
<path d="M16.2393 18.137C16.5212 18.137 16.7497 17.9205 16.7497 17.6536C16.7497 17.3866 16.5212 17.1702 16.2393 17.1702C15.9575 17.1702 15.729 17.3866 15.729 17.6536C15.729 17.9205 15.9575 18.137 16.2393 18.137Z" fill="#30B319"/>
<path d="M18.2794 16.2046C18.5612 16.2046 18.7897 15.9882 18.7897 15.7212C18.7897 15.4543 18.5612 15.2379 18.2794 15.2379C17.9975 15.2379 17.769 15.4543 17.769 15.7212C17.769 15.9882 17.9975 16.2046 18.2794 16.2046Z" fill="#30B319"/>
<path d="M31.2239 10.7709H30.5186C30.4664 10.7738 30.4142 10.7665 30.3651 10.7496C30.316 10.7327 30.2711 10.7065 30.2331 10.6725C30.1951 10.6386 30.1648 10.5976 30.1442 10.5522C30.1235 10.5068 30.1128 10.4578 30.1128 10.4083C30.1128 10.3589 30.1235 10.3099 30.1442 10.2645C30.1648 10.219 30.1951 10.1781 30.2331 10.1441C30.2711 10.1102 30.316 10.084 30.3651 10.067C30.4142 10.0501 30.4664 10.0429 30.5186 10.0458H31.2239C31.3216 10.0512 31.4133 10.0917 31.4804 10.1591C31.5476 10.2265 31.5849 10.3157 31.5849 10.4083C31.5849 10.501 31.5476 10.5901 31.4804 10.6575C31.4133 10.7249 31.3216 10.7655 31.2239 10.7709Z" fill="#30B319"/>
<path d="M33.5779 10.7709H32.8713C32.7736 10.7655 32.6819 10.7249 32.6147 10.6575C32.5476 10.5901 32.5103 10.501 32.5103 10.4084C32.5103 10.3157 32.5476 10.2266 32.6147 10.1592C32.6819 10.0918 32.7736 10.0512 32.8713 10.0458H33.5779C33.6755 10.0512 33.7673 10.0918 33.8344 10.1592C33.9015 10.2266 33.9389 10.3157 33.9389 10.4084C33.9389 10.501 33.9015 10.5901 33.8344 10.6575C33.7673 10.7249 33.6755 10.7655 33.5779 10.7709Z" fill="#30B319"/>
<path d="M32.0481 12.2198C31.9468 12.2198 31.8496 12.1816 31.7779 12.1138C31.7063 12.0459 31.666 11.9538 31.666 11.8579V11.1885C31.666 11.0926 31.7063 11.0005 31.7779 10.9326C31.8496 10.8648 31.9468 10.8266 32.0481 10.8266C32.1495 10.8266 32.2466 10.8648 32.3183 10.9326C32.39 11.0005 32.4302 11.0926 32.4302 11.1885V11.8579C32.4302 11.9538 32.39 12.0459 32.3183 12.1138C32.2466 12.1816 32.1495 12.2198 32.0481 12.2198Z" fill="#30B319"/>
<path d="M32.0481 9.99001C31.9468 9.99001 31.8496 9.95188 31.7779 9.88401C31.7063 9.81613 31.666 9.72408 31.666 9.62809V8.95878C31.666 8.86279 31.7063 8.77074 31.7779 8.70286C31.8496 8.63499 31.9468 8.59686 32.0481 8.59686C32.1495 8.59686 32.2466 8.63499 32.3183 8.70286C32.39 8.77074 32.4302 8.86279 32.4302 8.95878V9.62809C32.4302 9.72408 32.39 9.81613 32.3183 9.88401C32.2466 9.95188 32.1495 9.99001 32.0481 9.99001Z" fill="#30B319"/>
<path d="M13.3748 3.04164H12.6682C12.5705 3.03623 12.4787 2.99568 12.4116 2.92828C12.3445 2.86089 12.3071 2.77174 12.3071 2.6791C12.3071 2.58645 12.3445 2.49731 12.4116 2.42992C12.4787 2.36252 12.5705 2.32197 12.6682 2.31656H13.3748C13.4724 2.32197 13.5642 2.36252 13.6313 2.42992C13.6984 2.49731 13.7358 2.58645 13.7358 2.6791C13.7358 2.77174 13.6984 2.86089 13.6313 2.92828C13.5642 2.99568 13.4724 3.03623 13.3748 3.04164Z" fill="#30B319"/>
<path d="M15.7278 3.04164H15.0212C14.9235 3.03623 14.8318 2.99568 14.7646 2.92828C14.6975 2.86089 14.6602 2.77174 14.6602 2.6791C14.6602 2.58645 14.6975 2.49731 14.7646 2.42992C14.8318 2.36252 14.9235 2.32197 15.0212 2.31656H15.7278C15.8254 2.32197 15.9172 2.36252 15.9843 2.42992C16.0514 2.49731 16.0888 2.58645 16.0888 2.6791C16.0888 2.77174 16.0514 2.86089 15.9843 2.92828C15.9172 2.99568 15.8254 3.03623 15.7278 3.04164Z" fill="#30B319"/>
<path d="M14.198 4.48559C14.0967 4.48559 13.9995 4.44745 13.9278 4.37958C13.8562 4.31171 13.8159 4.21965 13.8159 4.12366V3.45436C13.8159 3.35837 13.8562 3.26631 13.9278 3.19844C13.9995 3.13057 14.0967 3.09244 14.198 3.09244C14.2994 3.09244 14.3965 3.13057 14.4682 3.19844C14.5399 3.26631 14.5801 3.35837 14.5801 3.45436V4.12366C14.5801 4.21965 14.5399 4.31171 14.4682 4.37958C14.3965 4.44745 14.2994 4.48559 14.198 4.48559Z" fill="#30B319"/>
<path d="M14.198 2.26079C14.0967 2.26079 13.9995 2.22266 13.9278 2.15479C13.8562 2.08692 13.8159 1.99486 13.8159 1.89887V1.22957C13.8159 1.13358 13.8562 1.04152 13.9278 0.97365C13.9995 0.905777 14.0967 0.867645 14.198 0.867645C14.2994 0.867645 14.3965 0.905777 14.4682 0.97365C14.5399 1.04152 14.5801 1.13358 14.5801 1.22957V1.89887C14.5801 1.99486 14.5399 2.08692 14.4682 2.15479C14.3965 2.22266 14.2994 2.26079 14.198 2.26079Z" fill="#30B319"/>
<path d="M27.1436 4.48562H26.4383C26.3369 4.48562 26.2397 4.44749 26.1681 4.37962C26.0964 4.31174 26.0562 4.21969 26.0562 4.1237C26.0562 4.02771 26.0964 3.93566 26.1681 3.86778C26.2397 3.79991 26.3369 3.76178 26.4383 3.76178H27.1436C27.2449 3.76178 27.3421 3.79991 27.4138 3.86778C27.4854 3.93566 27.5257 4.02771 27.5257 4.1237C27.5257 4.21969 27.4854 4.31174 27.4138 4.37962C27.3421 4.44749 27.2449 4.48562 27.1436 4.48562Z" fill="#30B319"/>
<path d="M29.4978 4.48562H28.7925C28.6912 4.48562 28.594 4.44749 28.5223 4.37962C28.4507 4.31174 28.4104 4.21969 28.4104 4.1237C28.4104 4.02771 28.4507 3.93566 28.5223 3.86778C28.594 3.79991 28.6912 3.76178 28.7925 3.76178H29.4978C29.5992 3.76178 29.6963 3.79991 29.768 3.86778C29.8397 3.93566 29.8799 4.02771 29.8799 4.1237C29.8799 4.21969 29.8397 4.31174 29.768 4.37962C29.6963 4.44749 29.5992 4.48562 29.4978 4.48562Z" fill="#30B319"/>
<path d="M27.968 5.93948C27.8667 5.93948 27.7695 5.90134 27.6978 5.83347C27.6262 5.7656 27.5859 5.67354 27.5859 5.57755V4.90825C27.5859 4.81226 27.6262 4.7202 27.6978 4.65233C27.7695 4.58446 27.8667 4.54633 27.968 4.54633C28.0694 4.54633 28.1666 4.58446 28.2382 4.65233C28.3099 4.7202 28.3501 4.81226 28.3501 4.90825V5.57755C28.3501 5.67354 28.3099 5.7656 28.2382 5.83347C28.1666 5.90134 28.0694 5.93948 27.968 5.93948Z" fill="#30B319"/>
<path d="M27.968 3.70969C27.8667 3.70969 27.7695 3.67156 27.6978 3.60369C27.6262 3.53581 27.5859 3.44376 27.5859 3.34777V2.6797C27.5859 2.58371 27.6262 2.49165 27.6978 2.42378C27.7695 2.35591 27.8667 2.31778 27.968 2.31778C28.0694 2.31778 28.1666 2.35591 28.2382 2.42378C28.3099 2.49165 28.3501 2.58371 28.3501 2.6797V3.34777C28.3501 3.44376 28.3099 3.53581 28.2382 3.60369C28.1666 3.67156 28.0694 3.70969 27.968 3.70969Z" fill="#30B319"/>
<path d="M21.0235 6.42288H20.3181C20.2168 6.42288 20.1196 6.38475 20.048 6.31687C19.9763 6.249 19.936 6.15694 19.936 6.06095C19.936 5.96497 19.9763 5.87291 20.048 5.80504C20.1196 5.73716 20.2168 5.69904 20.3181 5.69904H21.0235C21.1248 5.69904 21.222 5.73716 21.2936 5.80504C21.3653 5.87291 21.4056 5.96497 21.4056 6.06095C21.4056 6.15694 21.3653 6.249 21.2936 6.31687C21.222 6.38475 21.1248 6.42288 21.0235 6.42288Z" fill="#30B319"/>
<path d="M23.3775 6.42288H22.6721C22.5708 6.42288 22.4736 6.38475 22.402 6.31687C22.3303 6.249 22.29 6.15694 22.29 6.06095C22.29 5.96497 22.3303 5.87291 22.402 5.80504C22.4736 5.73716 22.5708 5.69904 22.6721 5.69904H23.3775C23.4788 5.69904 23.576 5.73716 23.6476 5.80504C23.7193 5.87291 23.7596 5.96497 23.7596 6.06095C23.7596 6.15694 23.7193 6.249 23.6476 6.31687C23.576 6.38475 23.4788 6.42288 23.3775 6.42288Z" fill="#30B319"/>
<path d="M21.8479 7.87178C21.7466 7.87178 21.6494 7.83365 21.5777 7.76578C21.5061 7.6979 21.4658 7.60584 21.4658 7.50986V6.84055C21.4715 6.74806 21.5143 6.66114 21.5855 6.59757C21.6567 6.53401 21.7508 6.4986 21.8486 6.4986C21.9464 6.4986 22.0405 6.53401 22.1117 6.59757C22.1828 6.66114 22.2256 6.74806 22.2313 6.84055V7.50986C22.231 7.60596 22.1904 7.69801 22.1186 7.76585C22.0467 7.83369 21.9494 7.87178 21.8479 7.87178Z" fill="#30B319"/>
<path d="M21.8478 5.64326C21.7464 5.64294 21.6492 5.60453 21.5776 5.53646C21.506 5.46839 21.4657 5.37621 21.4657 5.2801V4.60956C21.4627 4.56016 21.4703 4.5107 21.4882 4.46421C21.506 4.41771 21.5337 4.37516 21.5696 4.33917C21.6054 4.30318 21.6487 4.2745 21.6966 4.2549C21.7446 4.2353 21.7963 4.22519 21.8485 4.22519C21.9007 4.22519 21.9524 4.2353 22.0004 4.2549C22.0483 4.2745 22.0916 4.30318 22.1274 4.33917C22.1633 4.37516 22.191 4.41771 22.2088 4.46421C22.2267 4.5107 22.2343 4.56016 22.2313 4.60956V5.27763C22.2316 5.32553 22.2219 5.37301 22.2028 5.41736C22.1837 5.46171 22.1555 5.50204 22.1199 5.53602C22.0842 5.57001 22.0419 5.59698 21.9952 5.61539C21.9485 5.63379 21.8984 5.64326 21.8478 5.64326Z" fill="#30B319"/>
</g>
<defs>
<clipPath id="clip0">
<rect width="36" height="36" fill="white"/>
</clipPath>
</defs>
</svg>
