<svg width="30" height="32" viewBox="0 0 30 32" fill="none" xmlns="http://www.w3.org/2000/svg">
<g clip-path="url(#clip0)">
<path d="M10.3589 0.697205H3.46922C1.55631 0.697205 0 2.30218 0 4.2749V11.38C0 13.3527 1.55631 14.9577 3.46922 14.9577H10.3589C12.2718 14.9577 13.8281 13.3527 13.8281 11.38V4.2749C13.8281 2.30218 12.2718 0.697205 10.3589 0.697205ZM11.4844 11.38C11.4844 12.02 10.9795 12.5407 10.3589 12.5407H3.46922C2.84865 12.5407 2.34375 12.02 2.34375 11.38V4.2749C2.34375 3.63493 2.84865 3.11424 3.46922 3.11424H10.3589C10.9795 3.11424 11.4844 3.63493 11.4844 4.2749V11.38Z" fill="#30B319"/>
<path d="M26.4844 0.697205H19.6875C17.749 0.697205 16.1719 2.32363 16.1719 4.32276V11.3322C16.1719 13.3313 17.749 14.9577 19.6875 14.9577H26.4844C28.4229 14.9577 30 13.3313 30 11.3322V4.32276C30 2.32363 28.4229 0.697205 26.4844 0.697205ZM27.6562 11.3322C27.6562 11.9985 27.1305 12.5407 26.4844 12.5407H19.6875C19.0413 12.5407 18.5156 11.9985 18.5156 11.3322V4.32276C18.5156 3.65638 19.0413 3.11424 19.6875 3.11424H26.4844C27.1305 3.11424 27.6562 3.65638 27.6562 4.32276V11.3322Z" fill="#30B319"/>
<path d="M10.3589 17.3748H3.46922C1.55631 17.3748 0 18.9797 0 20.9525V28.0576C0 30.0303 1.55631 31.6353 3.46922 31.6353H10.3589C12.2718 31.6353 13.8281 30.0303 13.8281 28.0576V20.9525C13.8281 18.9797 12.2718 17.3748 10.3589 17.3748ZM11.4844 28.0576C11.4844 28.6975 10.9795 29.2182 10.3589 29.2182H3.46922C2.84865 29.2182 2.34375 28.6975 2.34375 28.0576V20.9525C2.34375 20.3125 2.84865 19.7918 3.46922 19.7918H10.3589C10.9795 19.7918 11.4844 20.3125 11.4844 20.9525V28.0576Z" fill="#30B319"/>
<path d="M26.4844 17.3748H19.6875C17.749 17.3748 16.1719 19.0012 16.1719 21.0003V28.0097C16.1719 30.0088 17.749 31.6353 19.6875 31.6353H26.4844C28.4229 31.6353 30 30.0088 30 28.0097V21.0003C30 19.0012 28.4229 17.3748 26.4844 17.3748ZM27.6562 28.0097C27.6562 28.6761 27.1305 29.2182 26.4844 29.2182H19.6875C19.0413 29.2182 18.5156 28.6761 18.5156 28.0097V21.0003C18.5156 20.3339 19.0413 19.7918 19.6875 19.7918H26.4844C27.1305 19.7918 27.6562 20.3339 27.6562 21.0003V28.0097Z" fill="#30B319"/>
</g>
<defs>
<clipPath id="clip0">
<rect width="30" height="30.938" fill="white" transform="translate(0 0.697205)"/>
</clipPath>
</defs>
</svg>
