<svg width="33" height="32" viewBox="0 0 33 32" fill="none" xmlns="http://www.w3.org/2000/svg">
<path style="mix-blend-mode:multiply" opacity="0.4" d="M30.7247 16.6432C30.545 16.4439 30.355 16.2545 30.1557 16.0758L30.218 15.9949C30.3995 15.7594 30.5687 15.5141 30.7247 15.2601C31.846 13.4696 32.2551 11.3069 31.8679 9.21675C31.4807 7.12663 30.3266 5.26801 28.6429 4.02318C26.9593 2.77835 24.8742 2.24196 22.8164 2.52433C20.7587 2.80669 18.8847 3.88635 17.58 5.54124C17.4665 5.6831 17.3585 5.82496 17.2547 5.97391C16.9743 6.37373 16.7296 6.79867 16.5238 7.24356C16.4379 7.42656 16.359 7.61382 16.2857 7.811C16.1002 8.30221 15.9611 8.8105 15.8703 9.32891C15.8697 9.33788 15.8697 9.34689 15.8703 9.35586C15.7958 9.77741 15.7537 10.2043 15.7444 10.6326C15.6433 10.5333 15.5409 10.4368 15.4343 10.3489C15.1662 10.1112 14.8832 9.89175 14.587 9.69207C14.4195 9.57716 14.2465 9.47077 14.0679 9.36863L14.0194 9.34167C13.7105 9.16795 13.391 9.0149 13.0628 8.88347C11.8918 8.41357 10.6299 8.23044 9.37761 8.34865C9.07853 8.37872 8.78133 8.42608 8.48746 8.49051C6.85395 8.83323 5.3631 9.68325 4.21771 10.9249C3.07232 12.1666 2.32799 13.7397 2.08596 15.4303C1.84392 17.1208 2.11594 18.8467 2.86502 20.3732C3.61409 21.8997 4.80384 23.1527 6.27246 23.9618C6.56354 24.1216 6.86355 24.2637 7.17092 24.3874C7.59798 24.5582 8.0384 24.6915 8.48746 24.786C10.5936 25.2253 12.7838 24.7918 14.5787 23.5802C15.3293 23.0751 15.9924 22.4451 16.5404 21.7161C16.5944 21.6452 16.647 21.5743 16.6996 21.4977C16.6899 21.5998 16.6816 21.702 16.6774 21.8041C16.589 23.3023 16.898 24.7971 17.5716 26.1298C18.2453 27.4625 19.2586 28.5835 20.5038 29.3737C20.9232 29.6378 21.3647 29.8628 21.8232 30.0462C23.534 30.7297 25.4205 30.7984 27.1744 30.2412C28.9283 29.6839 30.4459 28.5336 31.4793 26.9781C32.5126 25.4227 33.0006 23.5541 32.8636 21.6777C32.7265 19.8013 31.9725 18.028 30.7247 16.6475V16.6432ZM18.1809 17.4334C18.1989 17.2617 18.2113 17.0887 18.2155 16.917C18.2155 16.8849 18.2155 16.8522 18.2155 16.8191C18.2667 16.8702 18.3207 16.9213 18.3733 16.9709L18.4619 17.0532C18.3678 17.1738 18.2722 17.3029 18.1809 17.4334Z" fill="#E8EBEC"/>
<path d="M19.0185 1.84151C19.0183 2.48104 18.784 3.09723 18.3618 3.56821C17.9396 4.0392 17.3603 4.3307 16.7384 4.38506C16.6692 4.39215 16.6 4.39499 16.5266 4.39499C16.1678 4.39455 15.8134 4.31472 15.4875 4.16096C15.1616 4.0072 14.8719 3.78315 14.6383 3.50411C14.5823 3.43777 14.53 3.36814 14.4819 3.29557C14.4123 3.19834 14.3508 3.09538 14.2978 2.98774C14.1294 2.64519 14.0398 2.26762 14.0361 1.88406H18.4232L18.9659 1.32797C19.0005 1.49686 19.0182 1.66893 19.0185 1.84151Z" fill="#FFC107"/>
<path d="M20.9953 3.29559L23.2366 4.11413C23.9834 4.38688 24.6065 4.93104 24.9878 5.64338L28.8377 12.8385C28.9107 12.974 28.9318 13.1324 28.897 13.2829C28.8622 13.4334 28.7739 13.5653 28.6495 13.6528L25.428 15.941C25.3471 15.9984 25.2539 16.0348 25.1562 16.0473C25.0586 16.0598 24.9595 16.0479 24.8673 16.0126C24.7751 15.9774 24.6926 15.9198 24.6268 15.8448C24.561 15.7699 24.5139 15.6797 24.4894 15.5821L24.3358 14.9693C24.3239 14.9264 24.2974 14.8894 24.2612 14.8649C24.2249 14.8403 24.1813 14.83 24.1382 14.8356C24.0951 14.8413 24.0554 14.8626 24.0264 14.8958C23.9974 14.9289 23.9809 14.9716 23.98 15.0161V28.3807C23.98 28.7427 23.9104 29.1011 23.7752 29.4355C23.64 29.7699 23.4419 30.0738 23.1921 30.3297C22.9424 30.5857 22.6458 30.7887 22.3195 30.9272C21.9931 31.0658 21.6434 31.1371 21.2901 31.1371H10.654C9.94058 31.1371 9.25641 30.8467 8.75196 30.3297C8.24752 29.8128 7.96413 29.1117 7.96413 28.3807V15.0175C7.96322 14.973 7.94674 14.9303 7.91771 14.8972C7.88867 14.8641 7.849 14.8427 7.80591 14.8371C7.76282 14.8314 7.71918 14.8418 7.68292 14.8663C7.64666 14.8908 7.6202 14.9279 7.60834 14.9707L7.45468 15.5835C7.4302 15.6812 7.38306 15.7713 7.31727 15.8463C7.25147 15.9212 7.16897 15.9788 7.07679 16.014C6.98462 16.0493 6.88549 16.0612 6.78786 16.0487C6.69023 16.0362 6.59699 15.9998 6.51607 15.9424L3.29463 13.6528C3.17016 13.5653 3.08194 13.4334 3.04714 13.2829C3.01233 13.1324 3.03344 12.974 3.10635 12.8385L6.9563 5.64338C7.3379 4.93078 7.96158 4.38658 8.70892 4.11413L10.9502 3.29559" fill="#FFC107"/>
<path d="M20.9953 3.29559L23.2366 4.11413C23.9834 4.38688 24.6065 4.93104 24.9878 5.64338L28.8377 12.8385C28.9107 12.974 28.9318 13.1324 28.897 13.2829C28.8622 13.4334 28.7739 13.5653 28.6495 13.6528L25.428 15.941C25.3471 15.9984 25.2539 16.0348 25.1562 16.0473C25.0586 16.0598 24.9595 16.0479 24.8673 16.0126C24.7751 15.9774 24.6926 15.9198 24.6268 15.8448C24.561 15.7699 24.5139 15.6797 24.4894 15.5821L24.3358 14.9693C24.3239 14.9264 24.2974 14.8894 24.2612 14.8649C24.2249 14.8403 24.1813 14.83 24.1382 14.8356C24.0951 14.8413 24.0554 14.8626 24.0264 14.8958C23.9974 14.9289 23.9809 14.9716 23.98 15.0161V28.3807C23.98 28.7427 23.9104 29.1011 23.7752 29.4355C23.64 29.7699 23.4419 30.0738 23.1921 30.3297C22.9424 30.5857 22.6458 30.7887 22.3195 30.9272C21.9931 31.0658 21.6434 31.1371 21.2901 31.1371H10.654C9.94058 31.1371 9.25641 30.8467 8.75196 30.3297C8.24752 29.8128 7.96413 29.1117 7.96413 28.3807V15.0175C7.96322 14.973 7.94674 14.9303 7.91771 14.8972C7.88867 14.8641 7.849 14.8427 7.80591 14.8371C7.76282 14.8314 7.71918 14.8418 7.68292 14.8663C7.64666 14.8908 7.6202 14.9279 7.60834 14.9707L7.45468 15.5835C7.4302 15.6812 7.38306 15.7713 7.31727 15.8463C7.25147 15.9212 7.16897 15.9788 7.07679 16.014C6.98462 16.0493 6.88549 16.0612 6.78786 16.0487C6.69023 16.0362 6.59699 15.9998 6.51607 15.9424L3.29463 13.6528C3.17016 13.5653 3.08194 13.4334 3.04714 13.2829C3.01233 13.1324 3.03344 12.974 3.10635 12.8385L6.9563 5.64338C7.3379 4.93078 7.96158 4.38658 8.70892 4.11413L10.9502 3.29559" stroke="#30B319" stroke-width="0.4" stroke-miterlimit="10"/>
<path d="M12.7666 1.10247L13.6983 2.05719L15.9133 5.47176C15.9381 5.50988 15.9522 5.55422 15.9542 5.59998C15.9561 5.64574 15.9458 5.69117 15.9244 5.73137L14.4293 8.51324C14.3842 8.6086 14.3133 8.68865 14.2251 8.74384C14.1369 8.79903 14.035 8.82703 13.9316 8.82448C13.8283 8.82194 13.7278 8.78897 13.6423 8.7295C13.5567 8.67003 13.4896 8.58659 13.4491 8.48913L10.9683 3.33393C10.9186 3.23044 10.8989 3.11454 10.9114 2.99991C10.9239 2.88529 10.9681 2.77673 11.0389 2.68705L12.2669 1.12658C12.2967 1.08915 12.3339 1.05857 12.3761 1.03683C12.4182 1.0151 12.4644 1.00269 12.5115 1.00041C12.5586 0.998138 12.6057 1.00605 12.6497 1.02363C12.6936 1.04121 12.7335 1.06807 12.7666 1.10247Z" fill="#41BA2B" stroke="#30B319" stroke-width="0.4" stroke-miterlimit="10"/>
<path d="M23.9813 16.0616V26.2528C23.9813 26.984 23.698 27.6852 23.1936 28.2024C22.6892 28.7195 22.005 29.0102 21.2915 29.0106H10.654C9.94044 29.0102 9.25627 28.7195 8.75186 28.2024C8.24746 27.6852 7.96411 26.984 7.96411 26.2528V16.0616" stroke="#30B319" stroke-width="0.4" stroke-miterlimit="10"/>
<path d="M18.4231 1.87701H15.9936H15.952H14.0361H13.5225" stroke="#30B319" stroke-width="0.4" stroke-miterlimit="10"/>
<path d="M20.9925 3.29569C20.9925 3.30846 20.9828 3.32123 20.9773 3.33399L18.4951 8.48777C18.455 8.58538 18.3882 8.66905 18.3029 8.72874C18.2175 8.78844 18.1171 8.82162 18.0138 8.82432C17.9105 8.82701 17.8086 8.79911 17.7203 8.74394C17.6321 8.68877 17.5613 8.6087 17.5164 8.51331L16.0226 5.73285C16.0009 5.69249 15.9905 5.64679 15.9924 5.60075C15.9944 5.55471 16.0087 5.5101 16.0337 5.47183L16.737 4.38518L17.443 3.29569L18.2459 2.05725L18.4217 1.87709L18.9644 1.321L19.1776 1.10253C19.211 1.06831 19.251 1.04165 19.295 1.0243C19.3391 1.00696 19.3862 0.999308 19.4334 1.00185C19.4805 1.00439 19.5266 1.01707 19.5686 1.03906C19.6107 1.06105 19.6477 1.09186 19.6774 1.12949L20.9053 2.68995C20.9713 2.77374 21.0142 2.87411 21.0296 2.98063C21.0449 3.08715 21.0321 3.19594 20.9925 3.29569Z" fill="#41BA2B" stroke="#30B319" stroke-width="0.4" stroke-miterlimit="10"/>
<path d="M16.0239 5.73282V12.552" stroke="#30B319" stroke-width="0.4" stroke-miterlimit="10"/>
<path d="M19.2635 12.7478H20.6133C20.7681 12.7478 20.9167 12.8103 21.0269 12.9218C21.137 13.0334 21.1998 13.1849 21.2016 13.3436V14.0359C21.2016 14.379 21.0686 14.7081 20.8318 14.9507C20.595 15.1933 20.2739 15.3296 19.9391 15.3296C19.7733 15.3296 19.6091 15.2962 19.4559 15.2311C19.3027 15.1661 19.1635 15.0708 19.0463 14.9507C18.9291 14.8306 18.8361 14.6879 18.7726 14.531C18.7092 14.374 18.6765 14.2058 18.6765 14.0359V13.3436C18.6783 13.1852 18.7409 13.0338 18.8508 12.9223C18.9606 12.8108 19.1089 12.7481 19.2635 12.7478Z" fill="#41BA2B" stroke="#30B319" stroke-width="0.4" stroke-miterlimit="10"/>
<path d="M17.6506 23.2624H23.9813V20.4252H7.96411V23.2624H14.3973" stroke="#30B319" stroke-width="0.4" stroke-miterlimit="10"/>
<path d="M10.3175 5.73282L9.31656 6.50028C8.83752 6.86804 8.45975 7.35682 8.22013 7.91888L7.47949 9.64391" stroke="#30B319" stroke-width="0.4" stroke-miterlimit="10"/>
<path d="M16.0669 23.749C16.3291 23.749 16.5417 23.5312 16.5417 23.2624C16.5417 22.9937 16.3291 22.7758 16.0669 22.7758C15.8046 22.7758 15.592 22.9937 15.592 23.2624C15.592 23.5312 15.8046 23.749 16.0669 23.749Z" fill="#30B319"/>
<path d="M7.96411 25.674H18.6764" stroke="#30B319" stroke-width="0.4" stroke-miterlimit="10"/>
<path d="M19.5459 25.674H20.7005" stroke="#30B319" stroke-width="0.4" stroke-miterlimit="10"/>
<path d="M13.08 6.76363L12.1929 4.61172C12.1417 4.48766 12.1145 4.35921 12.1172 4.25461C12.1199 4.15001 12.1523 4.07783 12.2072 4.05393L12.2902 4.01794C12.3012 4.01324 12.3158 4.01857 12.3308 4.03276C12.3458 4.04695 12.3599 4.06884 12.3701 4.09363L13.7201 7.3682C13.6321 7.40626 13.5153 7.36396 13.3953 7.2506C13.2753 7.13723 13.1619 6.96207 13.08 6.76363Z" fill="white"/>
<path d="M16.0054 11.2029L16.0009 10.2177C16.0006 10.1609 16.0104 10.1062 16.0282 10.0656C16.0459 10.025 16.0701 10.0019 16.0955 10.0013L16.1337 10.0004C16.1388 10.0003 16.1437 10.0048 16.1473 10.0127C16.1509 10.0207 16.153 10.0315 16.153 10.0429L16.1599 11.542C16.1194 11.5429 16.0803 11.5077 16.0514 11.4441C16.0224 11.3805 16.0059 11.2937 16.0054 11.2029Z" fill="white"/>
<path d="M2.49041 7.19108L3.32567 5.70729C3.37382 5.62175 3.42884 5.54494 3.47864 5.49376C3.52844 5.44257 3.56894 5.4212 3.59123 5.43434L3.62484 5.45425C3.62926 5.45693 3.62969 5.46627 3.62602 5.48024C3.62235 5.4942 3.61488 5.51164 3.60526 5.52874L2.33425 7.78663C2.29866 7.76549 2.29512 7.69089 2.3244 7.57921C2.35368 7.46754 2.41339 7.32793 2.49041 7.19108Z" fill="white"/>
<path d="M20.2275 14.1074L20.1934 13.1978C20.1914 13.1453 20.1773 13.0955 20.1541 13.0593C20.1309 13.0231 20.1006 13.0034 20.0697 13.0046L20.0232 13.0064C20.017 13.0067 20.0113 13.0111 20.0072 13.0187C20.0032 13.0263 20.0011 13.0364 20.0015 13.0469L20.0534 14.431C20.1027 14.4291 20.1487 14.3939 20.1814 14.3332C20.214 14.2725 20.2306 14.1913 20.2275 14.1074Z" fill="white"/>
<path d="M16.5541 16.1479H15.9369C15.8913 16.1506 15.8456 16.1439 15.8026 16.1283C15.7597 16.1127 15.7203 16.0884 15.6871 16.0571C15.6538 16.0257 15.6273 15.9879 15.6092 15.9459C15.5911 15.904 15.5818 15.8587 15.5818 15.813C15.5818 15.7673 15.5911 15.7221 15.6092 15.6801C15.6273 15.6382 15.6538 15.6004 15.6871 15.569C15.7203 15.5376 15.7597 15.5134 15.8026 15.4978C15.8456 15.4822 15.8913 15.4755 15.9369 15.4781H16.5541C16.6396 15.4831 16.7199 15.5206 16.7786 15.5829C16.8374 15.6451 16.8701 15.7275 16.8701 15.813C16.8701 15.8986 16.8374 15.981 16.7786 16.0432C16.7199 16.1055 16.6396 16.1429 16.5541 16.1479Z" fill="#30B319"/>
<path d="M18.6142 16.1479H17.9959C17.9104 16.1429 17.8301 16.1055 17.7714 16.0432C17.7126 15.981 17.6799 15.8986 17.6799 15.813C17.6799 15.7275 17.7126 15.6451 17.7714 15.5829C17.8301 15.5206 17.9104 15.4831 17.9959 15.4781H18.6142C18.6997 15.4831 18.78 15.5206 18.8387 15.5829C18.8975 15.6451 18.9302 15.7275 18.9302 15.813C18.9302 15.8986 18.8975 15.981 18.8387 16.0432C18.78 16.1055 18.6997 16.1429 18.6142 16.1479Z" fill="#30B319"/>
<path d="M17.2755 17.4863C17.1869 17.4863 17.1018 17.4511 17.0391 17.3884C16.9764 17.3257 16.9412 17.2407 16.9412 17.152V16.5337C16.9412 16.4451 16.9764 16.36 17.0391 16.2974C17.1018 16.2347 17.1869 16.1994 17.2755 16.1994C17.3642 16.1994 17.4493 16.2347 17.512 16.2974C17.5747 16.36 17.6099 16.4451 17.6099 16.5337V17.152C17.6099 17.2407 17.5747 17.3257 17.512 17.3884C17.4493 17.4511 17.3642 17.4863 17.2755 17.4863Z" fill="#30B319"/>
<path d="M17.2755 15.4266C17.1869 15.4266 17.1018 15.3914 17.0391 15.3287C16.9764 15.266 16.9412 15.181 16.9412 15.0923V14.4741C16.9412 14.3854 16.9764 14.3004 17.0391 14.2377C17.1018 14.175 17.1869 14.1397 17.2755 14.1397C17.3642 14.1397 17.4493 14.175 17.512 14.2377C17.5747 14.3004 17.6099 14.3854 17.6099 14.4741V15.0923C17.6099 15.181 17.5747 15.266 17.512 15.3287C17.4493 15.3914 17.3642 15.4266 17.2755 15.4266Z" fill="#30B319"/>
<path d="M0.934311 9.00822H0.315935C0.230485 9.00322 0.150177 8.96576 0.0914458 8.90351C0.0327144 8.84125 0 8.75891 0 8.67333C0 8.58775 0.0327144 8.50541 0.0914458 8.44315C0.150177 8.3809 0.230485 8.34344 0.315935 8.33844H0.934311C1.01976 8.34344 1.10007 8.3809 1.1588 8.44315C1.21753 8.50541 1.25024 8.58775 1.25024 8.67333C1.25024 8.75891 1.21753 8.84125 1.1588 8.90351C1.10007 8.96576 1.01976 9.00322 0.934311 9.00822Z" fill="#30B319"/>
<path d="M2.99339 9.00822H2.37501C2.28956 9.00322 2.20926 8.96576 2.15052 8.90351C2.09179 8.84125 2.05908 8.75891 2.05908 8.67333C2.05908 8.58775 2.09179 8.50541 2.15052 8.44315C2.20926 8.3809 2.28956 8.34344 2.37501 8.33844H2.99339C3.07884 8.34344 3.15915 8.3809 3.21788 8.44315C3.27661 8.50541 3.30933 8.58775 3.30933 8.67333C3.30933 8.75891 3.27661 8.84125 3.21788 8.90351C3.15915 8.96576 3.07884 9.00322 2.99339 9.00822Z" fill="#30B319"/>
<path d="M1.6547 10.342C1.56601 10.342 1.48096 10.3068 1.41825 10.2441C1.35554 10.1814 1.32031 10.0964 1.32031 10.0077V9.38943C1.32031 9.30076 1.35554 9.21573 1.41825 9.15303C1.48096 9.09033 1.56601 9.05511 1.6547 9.05511C1.74338 9.05511 1.82843 9.09033 1.89114 9.15303C1.95385 9.21573 1.98908 9.30076 1.98908 9.38943V10.0077C1.98908 10.0964 1.95385 10.1814 1.89114 10.2441C1.82843 10.3068 1.74338 10.342 1.6547 10.342Z" fill="#30B319"/>
<path d="M1.6547 8.28689C1.56601 8.28689 1.48096 8.25167 1.41825 8.18898C1.35554 8.12628 1.32031 8.04124 1.32031 7.95258V7.33432C1.32031 7.24565 1.35554 7.16062 1.41825 7.09792C1.48096 7.03522 1.56601 7 1.6547 7C1.74338 7 1.82843 7.03522 1.89114 7.09792C1.95385 7.16062 1.98908 7.24565 1.98908 7.33432V7.95258C1.98908 8.04124 1.95385 8.12628 1.89114 8.18898C1.82843 8.25167 1.74338 8.28689 1.6547 8.28689Z" fill="#30B319"/>
<path d="M12.9836 10.3421H12.3664C12.2777 10.3421 12.1926 10.3068 12.1299 10.2441C12.0672 10.1814 12.032 10.0964 12.032 10.0077C12.032 9.91908 12.0672 9.83405 12.1299 9.77135C12.1926 9.70865 12.2777 9.67343 12.3664 9.67343H12.9836C13.0723 9.67343 13.1573 9.70865 13.22 9.77135C13.2828 9.83405 13.318 9.91908 13.318 10.0077C13.318 10.0964 13.2828 10.1814 13.22 10.2441C13.1573 10.3068 13.0723 10.3421 12.9836 10.3421Z" fill="#30B319"/>
<path d="M15.0437 10.3421H14.4264C14.3377 10.3421 14.2527 10.3068 14.19 10.2441C14.1273 10.1814 14.092 10.0964 14.092 10.0077C14.092 9.91908 14.1273 9.83405 14.19 9.77135C14.2527 9.70865 14.3377 9.67343 14.4264 9.67343H15.0437C15.1323 9.67343 15.2174 9.70865 15.2801 9.77135C15.3428 9.83405 15.378 9.91908 15.378 10.0077C15.378 10.0964 15.3428 10.1814 15.2801 10.2441C15.2174 10.3068 15.1323 10.3421 15.0437 10.3421Z" fill="#30B319"/>
<path d="M13.705 11.685C13.6163 11.685 13.5312 11.6498 13.4685 11.5871C13.4058 11.5244 13.3706 11.4394 13.3706 11.3507V10.7325C13.3706 10.6438 13.4058 10.5587 13.4685 10.4961C13.5312 10.4334 13.6163 10.3981 13.705 10.3981C13.7937 10.3981 13.8787 10.4334 13.9414 10.4961C14.0041 10.5587 14.0394 10.6438 14.0394 10.7325V11.3507C14.0394 11.4394 14.0041 11.5244 13.9414 11.5871C13.8787 11.6498 13.7937 11.685 13.705 11.685Z" fill="#30B319"/>
<path d="M13.705 9.62528C13.6163 9.62528 13.5312 9.59006 13.4685 9.52737C13.4058 9.46467 13.3706 9.37964 13.3706 9.29097V8.67385C13.3706 8.58519 13.4058 8.50015 13.4685 8.43746C13.5312 8.37476 13.6163 8.33954 13.705 8.33954C13.7937 8.33954 13.8787 8.37476 13.9414 8.43746C14.0041 8.50015 14.0394 8.58519 14.0394 8.67385V9.29097C14.0394 9.37964 14.0041 9.46467 13.9414 9.52737C13.8787 9.59006 13.7937 9.62528 13.705 9.62528Z" fill="#30B319"/>
<path d="M7.62764 12.1316H7.01041C6.92172 12.1316 6.83667 12.0963 6.77396 12.0336C6.71126 11.9709 6.67603 11.8859 6.67603 11.7972C6.67603 11.7086 6.71126 11.6235 6.77396 11.5608C6.83667 11.4981 6.92172 11.4629 7.01041 11.4629H7.62764C7.71632 11.4629 7.80137 11.4981 7.86408 11.5608C7.92679 11.6235 7.96202 11.7086 7.96202 11.7972C7.96202 11.8859 7.92679 11.9709 7.86408 12.0336C7.80137 12.0963 7.71632 12.1316 7.62764 12.1316Z" fill="#30B319"/>
<path d="M9.6877 12.1316H9.07046C8.98178 12.1316 8.89673 12.0963 8.83402 12.0336C8.77131 11.9709 8.73608 11.8859 8.73608 11.7972C8.73608 11.7086 8.77131 11.6235 8.83402 11.5608C8.89673 11.4981 8.98178 11.4629 9.07046 11.4629H9.6877C9.77638 11.4629 9.86143 11.4981 9.92414 11.5608C9.98685 11.6235 10.0221 11.7086 10.0221 11.7972C10.0221 11.8859 9.98685 11.9709 9.92414 12.0336C9.86143 12.0963 9.77638 12.1316 9.6877 12.1316Z" fill="#30B319"/>
<path d="M8.34928 13.47C8.26059 13.47 8.17554 13.4347 8.11283 13.372C8.05012 13.3093 8.01489 13.2243 8.01489 13.1356V12.5174C8.01989 12.4319 8.05736 12.3517 8.11963 12.2929C8.18189 12.2342 8.26425 12.2015 8.34985 12.2015C8.43544 12.2015 8.5178 12.2342 8.58007 12.2929C8.64234 12.3517 8.6798 12.4319 8.6848 12.5174V13.1356C8.6845 13.2244 8.64902 13.3094 8.58613 13.3721C8.52324 13.4348 8.43807 13.47 8.34928 13.47Z" fill="#30B319"/>
<path d="M8.34912 11.4114C8.26033 11.4111 8.17528 11.3756 8.1126 11.3127C8.04993 11.2499 8.01473 11.1647 8.01473 11.0759V10.4565C8.01206 10.4109 8.01875 10.3652 8.03437 10.3223C8.05 10.2793 8.07424 10.24 8.10561 10.2068C8.13697 10.1735 8.1748 10.147 8.21677 10.1289C8.25874 10.1108 8.30398 10.1015 8.34969 10.1015C8.3954 10.1015 8.44063 10.1108 8.4826 10.1289C8.52457 10.147 8.5624 10.1735 8.59377 10.2068C8.62513 10.24 8.64937 10.2793 8.665 10.3223C8.68063 10.3652 8.68731 10.4109 8.68464 10.4565V11.0736C8.68494 11.1179 8.67649 11.1617 8.65976 11.2027C8.64304 11.2437 8.61837 11.2809 8.58718 11.3123C8.55599 11.3437 8.5189 11.3686 8.47804 11.3856C8.43719 11.4026 8.39337 11.4114 8.34912 11.4114Z" fill="#30B319"/>
</svg>
