<svg width="36" height="36" viewBox="0 0 36 36" fill="none" xmlns="http://www.w3.org/2000/svg">
<g clip-path="url(#clip0)">
<path d="M14.3746 15.1014C17.8953 15.1014 20.7493 12.3924 20.7493 9.05071C20.7493 5.709 17.8953 3 14.3746 3C10.854 3 8 5.709 8 9.05071C8 12.3924 10.854 15.1014 14.3746 15.1014Z" fill="#E8EBEC"/>
<path d="M30.6254 19.8484C34.146 19.8484 37 17.1394 37 13.7977C37 10.456 34.146 7.74701 30.6254 7.74701C27.1048 7.74701 24.2507 10.456 24.2507 13.7977C24.2507 17.1394 27.1048 19.8484 30.6254 19.8484Z" fill="#E8EBEC"/>
<path d="M14.9996 24.5955C18.5203 24.5955 21.3743 21.8865 21.3743 18.5448C21.3743 15.2031 18.5203 12.4941 14.9996 12.4941C11.479 12.4941 8.625 15.2031 8.625 18.5448C8.625 21.8865 11.479 24.5955 14.9996 24.5955Z" fill="#E8EBEC"/>
<path d="M21.3992 24.2305H5.57188L5.41016 24.3922V30.7766H21.8914V26.8531L21.3992 24.2305ZM19.5781 29.9609H8.77109V25.3203H19.5852V29.9609H19.5781Z" fill="#FFC107"/>
<path d="M13.1235 12.2703C12.8212 11.968 12.4626 11.757 12.0759 11.6445C11.6892 11.7641 11.3306 11.968 11.0282 12.2703L2.79464 20.5109C1.8173 21.4883 1.81026 23.0703 2.76652 24.0617L13.8407 12.9875L13.1235 12.2703Z" fill="#FFC107"/>
<path d="M28.1985 8.17111V26.2766H28.6344L29.6118 8.17111H28.1985Z" fill="#FFC107"/>
<path d="M22.5665 8.17111H20.5415L23.3962 23.5063L22.5665 8.17111Z" fill="#FFC107"/>
<path d="M24.6758 8.17111L25.6531 26.2766H26.0891V8.17111H24.6758Z" fill="#FFC107"/>
<path d="M33.7463 8.17111H31.7213L30.8916 23.5063L33.7463 8.17111Z" fill="#FFC107"/>
<path d="M26.6168 28.4C26.7996 28.4 26.9754 28.4141 27.1441 28.4493C27.3129 28.4211 27.4887 28.4 27.6715 28.4C28.8246 28.4 29.823 29.075 30.2871 30.0524V27.3313H23.9941V30.0524C24.4652 29.075 25.4637 28.4 26.6168 28.4Z" fill="#99F2E3"/>
<path d="M18.1863 17.6773C18.1863 17.0164 17.6449 16.475 16.984 16.475H13.3277L10.916 18.8867H11.2324H16.984C17.6449 18.8797 18.1863 18.3383 18.1863 17.6773Z" fill="#99F2E3"/>
<path d="M8.77148 29.9609H19.5855V25.3203H8.77148V29.9609ZM9.82617 26.375H18.5309V28.9062H9.82617V26.375Z" fill="#30B319"/>
<path d="M19.3744 5.00703V7.69297L21.4557 18.8867H20.0775C20.2955 18.5352 20.4291 18.1273 20.4291 17.6844C20.4291 16.4398 19.4166 15.4273 18.1721 15.4273H14.3752L16.808 12.9945L15.3525 11.5391C13.9533 10.1398 11.6822 10.1398 10.283 11.5391L2.04941 19.7656C0.650195 21.1648 0.650195 23.4359 2.04941 24.8352L3.50488 26.2906L4.35566 25.4398V31.8242H32.4033V26.8461L35.9611 7.73516L35.9682 7.68594V5H19.3744V5.00703ZM21.6596 19.9344L21.8635 21.0242H8.77129L9.86113 19.9344H11.2322H18.1721H21.6596ZM22.0533 22.0789L22.2572 23.1687H6.62676L7.7166 22.0789H22.0533ZM18.1721 16.475C18.833 16.475 19.3744 17.0164 19.3744 17.6773C19.3744 18.3383 18.833 18.8797 18.1721 18.8797H11.2322H10.9158L13.3275 16.468H18.1721V16.475ZM3.50488 24.8L2.79473 24.0898C1.81035 23.1055 1.81035 21.4953 2.79473 20.5109L11.0283 12.2703C11.5205 11.7781 12.1674 11.532 12.8213 11.532C13.4682 11.532 14.115 11.7781 14.6143 12.2703L15.3244 12.9805L3.50488 24.8ZM22.9463 30.7766H5.41035V24.3922L5.57207 24.2305H22.4541L22.9393 26.8531V30.7766H22.9463ZM20.5416 8.17109H23.6213L24.6057 26.2766H23.9166L20.5416 8.17109ZM25.8994 30.7766C26.1244 30.0102 26.8346 29.4547 27.6713 29.4547C28.508 29.4547 29.2182 30.0102 29.4432 30.7766H25.8994ZM31.3416 30.7766H30.526C30.2799 29.4266 29.0916 28.4 27.6713 28.4C26.251 28.4 25.0627 29.4266 24.8166 30.7766H24.001V27.3312H31.3486V30.7766H31.3416ZM24.676 8.17109H27.1439V26.2766H25.6533L24.676 8.17109ZM28.1986 26.2766V8.17109H30.6666L29.6822 26.2766H28.1986ZM31.433 26.2766H30.7439L31.7283 8.17109H34.808L31.433 26.2766ZM34.9064 7.11641H20.4291V6.06172H34.9064V7.11641Z" fill="#30B319"/>
<path d="M26.5541 16.1479H25.9369C25.8913 16.1506 25.8456 16.1439 25.8026 16.1283C25.7597 16.1127 25.7203 16.0884 25.6871 16.0571C25.6538 16.0257 25.6273 15.9879 25.6092 15.9459C25.5911 15.904 25.5818 15.8587 25.5818 15.813C25.5818 15.7673 25.5911 15.7221 25.6092 15.6801C25.6273 15.6382 25.6538 15.6004 25.6871 15.569C25.7203 15.5376 25.7597 15.5134 25.8026 15.4978C25.8456 15.4822 25.8913 15.4755 25.9369 15.4781H26.5541C26.6396 15.4831 26.7199 15.5206 26.7786 15.5829C26.8374 15.6451 26.8701 15.7275 26.8701 15.813C26.8701 15.8986 26.8374 15.981 26.7786 16.0432C26.7199 16.1055 26.6396 16.1429 26.5541 16.1479Z" fill="#30B319"/>
<path d="M28.6142 16.1479H27.9959C27.9104 16.1429 27.8301 16.1055 27.7714 16.0432C27.7126 15.981 27.6799 15.8986 27.6799 15.813C27.6799 15.7275 27.7126 15.6451 27.7714 15.5829C27.8301 15.5206 27.9104 15.4831 27.9959 15.4781H28.6142C28.6997 15.4831 28.78 15.5206 28.8387 15.5829C28.8975 15.6451 28.9302 15.7275 28.9302 15.813C28.9302 15.8986 28.8975 15.981 28.8387 16.0432C28.78 16.1055 28.6997 16.1429 28.6142 16.1479Z" fill="#30B319"/>
<path d="M27.2755 17.4863C27.1869 17.4863 27.1018 17.4511 27.0391 17.3884C26.9764 17.3257 26.9412 17.2407 26.9412 17.152V16.5337C26.9412 16.4451 26.9764 16.36 27.0391 16.2974C27.1018 16.2347 27.1869 16.1994 27.2755 16.1994C27.3642 16.1994 27.4493 16.2347 27.512 16.2974C27.5747 16.36 27.6099 16.4451 27.6099 16.5337V17.152C27.6099 17.2407 27.5747 17.3257 27.512 17.3884C27.4493 17.4511 27.3642 17.4863 27.2755 17.4863Z" fill="#30B319"/>
<path d="M27.2755 15.4266C27.1869 15.4266 27.1018 15.3914 27.0391 15.3287C26.9764 15.266 26.9412 15.181 26.9412 15.0923V14.4741C26.9412 14.3854 26.9764 14.3004 27.0391 14.2377C27.1018 14.175 27.1869 14.1397 27.2755 14.1397C27.3642 14.1397 27.4493 14.175 27.512 14.2377C27.5747 14.3004 27.6099 14.3854 27.6099 14.4741V15.0923C27.6099 15.181 27.5747 15.266 27.512 15.3287C27.4493 15.3914 27.3642 15.4266 27.2755 15.4266Z" fill="#30B319"/>
<path d="M10.9343 9.00822H10.3159C10.2305 9.00322 10.1502 8.96576 10.0914 8.90351C10.0327 8.84125 10 8.75891 10 8.67333C10 8.58775 10.0327 8.50541 10.0914 8.44315C10.1502 8.3809 10.2305 8.34344 10.3159 8.33844H10.9343C11.0198 8.34344 11.1001 8.3809 11.1588 8.44315C11.2175 8.50541 11.2502 8.58775 11.2502 8.67333C11.2502 8.75891 11.2175 8.84125 11.1588 8.90351C11.1001 8.96576 11.0198 9.00322 10.9343 9.00822Z" fill="#30B319"/>
<path d="M12.9934 9.00822H12.375C12.2896 9.00322 12.2093 8.96576 12.1505 8.90351C12.0918 8.84125 12.0591 8.75891 12.0591 8.67333C12.0591 8.58775 12.0918 8.50541 12.1505 8.44315C12.2093 8.3809 12.2896 8.34344 12.375 8.33844H12.9934C13.0788 8.34344 13.1591 8.3809 13.2179 8.44315C13.2766 8.50541 13.3093 8.58775 13.3093 8.67333C13.3093 8.75891 13.2766 8.84125 13.2179 8.90351C13.1591 8.96576 13.0788 9.00322 12.9934 9.00822Z" fill="#30B319"/>
<path d="M11.6547 10.342C11.566 10.342 11.481 10.3068 11.4183 10.2441C11.3555 10.1814 11.3203 10.0964 11.3203 10.0077V9.38943C11.3203 9.30076 11.3555 9.21573 11.4183 9.15303C11.481 9.09033 11.566 9.05511 11.6547 9.05511C11.7434 9.05511 11.8284 9.09033 11.8911 9.15303C11.9538 9.21573 11.9891 9.30076 11.9891 9.38943V10.0077C11.9891 10.0964 11.9538 10.1814 11.8911 10.2441C11.8284 10.3068 11.7434 10.342 11.6547 10.342Z" fill="#30B319"/>
<path d="M11.6547 8.28689C11.566 8.28689 11.481 8.25167 11.4183 8.18898C11.3555 8.12628 11.3203 8.04124 11.3203 7.95258V7.33432C11.3203 7.24565 11.3555 7.16062 11.4183 7.09792C11.481 7.03522 11.566 7 11.6547 7C11.7434 7 11.8284 7.03522 11.8911 7.09792C11.9538 7.16062 11.9891 7.24565 11.9891 7.33432V7.95258C11.9891 8.04124 11.9538 8.12628 11.8911 8.18898C11.8284 8.25167 11.7434 8.28689 11.6547 8.28689Z" fill="#30B319"/>
<path d="M22.9836 10.3421H22.3664C22.2777 10.3421 22.1926 10.3068 22.1299 10.2441C22.0672 10.1814 22.032 10.0964 22.032 10.0077C22.032 9.91908 22.0672 9.83405 22.1299 9.77135C22.1926 9.70865 22.2777 9.67343 22.3664 9.67343H22.9836C23.0723 9.67343 23.1573 9.70865 23.22 9.77135C23.2828 9.83405 23.318 9.91908 23.318 10.0077C23.318 10.0964 23.2828 10.1814 23.22 10.2441C23.1573 10.3068 23.0723 10.3421 22.9836 10.3421Z" fill="#30B319"/>
<path d="M25.0437 10.3421H24.4264C24.3377 10.3421 24.2527 10.3068 24.19 10.2441C24.1273 10.1814 24.092 10.0964 24.092 10.0077C24.092 9.91908 24.1273 9.83405 24.19 9.77135C24.2527 9.70865 24.3377 9.67343 24.4264 9.67343H25.0437C25.1323 9.67343 25.2174 9.70865 25.2801 9.77135C25.3428 9.83405 25.378 9.91908 25.378 10.0077C25.378 10.0964 25.3428 10.1814 25.2801 10.2441C25.2174 10.3068 25.1323 10.3421 25.0437 10.3421Z" fill="#30B319"/>
<path d="M23.705 11.685C23.6163 11.685 23.5312 11.6498 23.4685 11.5871C23.4058 11.5244 23.3706 11.4394 23.3706 11.3507V10.7325C23.3706 10.6438 23.4058 10.5587 23.4685 10.4961C23.5312 10.4334 23.6163 10.3981 23.705 10.3981C23.7937 10.3981 23.8787 10.4334 23.9414 10.4961C24.0041 10.5587 24.0394 10.6438 24.0394 10.7325V11.3507C24.0394 11.4394 24.0041 11.5244 23.9414 11.5871C23.8787 11.6498 23.7937 11.685 23.705 11.685Z" fill="#30B319"/>
<path d="M23.705 9.62528C23.6163 9.62528 23.5312 9.59006 23.4685 9.52737C23.4058 9.46467 23.3706 9.37964 23.3706 9.29097V8.67385C23.3706 8.58519 23.4058 8.50015 23.4685 8.43746C23.5312 8.37476 23.6163 8.33954 23.705 8.33954C23.7937 8.33954 23.8787 8.37476 23.9414 8.43746C24.0041 8.50015 24.0394 8.58519 24.0394 8.67385V9.29097C24.0394 9.37964 24.0041 9.46467 23.9414 9.52737C23.8787 9.59006 23.7937 9.62528 23.705 9.62528Z" fill="#30B319"/>
<path d="M17.6276 12.1316H17.0104C16.9217 12.1316 16.8367 12.0963 16.774 12.0336C16.7113 11.9709 16.676 11.8859 16.676 11.7972C16.676 11.7086 16.7113 11.6235 16.774 11.5608C16.8367 11.4981 16.9217 11.4629 17.0104 11.4629H17.6276C17.7163 11.4629 17.8014 11.4981 17.8641 11.5608C17.9268 11.6235 17.962 11.7086 17.962 11.7972C17.962 11.8859 17.9268 11.9709 17.8641 12.0336C17.8014 12.0963 17.7163 12.1316 17.6276 12.1316Z" fill="#30B319"/>
<path d="M19.6877 12.1316H19.0705C18.9818 12.1316 18.8967 12.0963 18.834 12.0336C18.7713 11.9709 18.7361 11.8859 18.7361 11.7972C18.7361 11.7086 18.7713 11.6235 18.834 11.5608C18.8967 11.4981 18.9818 11.4629 19.0705 11.4629H19.6877C19.7764 11.4629 19.8614 11.4981 19.9241 11.5608C19.9868 11.6235 20.0221 11.7086 20.0221 11.7972C20.0221 11.8859 19.9868 11.9709 19.9241 12.0336C19.8614 12.0963 19.7764 12.1316 19.6877 12.1316Z" fill="#30B319"/>
<path d="M18.3493 13.47C18.2606 13.47 18.1755 13.4347 18.1128 13.372C18.0501 13.3093 18.0149 13.2243 18.0149 13.1356V12.5174C18.0199 12.4319 18.0574 12.3517 18.1196 12.2929C18.1819 12.2342 18.2643 12.2015 18.3498 12.2015C18.4354 12.2015 18.5178 12.2342 18.5801 12.2929C18.6423 12.3517 18.6798 12.4319 18.6848 12.5174V13.1356C18.6845 13.2244 18.649 13.3094 18.5861 13.3721C18.5232 13.4348 18.4381 13.47 18.3493 13.47Z" fill="#30B319"/>
<path d="M18.3491 11.4114C18.2603 11.4111 18.1753 11.3756 18.1126 11.3127C18.0499 11.2499 18.0147 11.1647 18.0147 11.0759V10.4565C18.0121 10.4109 18.0187 10.3652 18.0344 10.3223C18.05 10.2793 18.0742 10.24 18.1056 10.2068C18.137 10.1735 18.1748 10.147 18.2168 10.1289C18.2587 10.1108 18.304 10.1015 18.3497 10.1015C18.3954 10.1015 18.4406 10.1108 18.4826 10.1289C18.5246 10.147 18.5624 10.1735 18.5938 10.2068C18.6251 10.24 18.6494 10.2793 18.665 10.3223C18.6806 10.3652 18.6873 10.4109 18.6846 10.4565V11.0736C18.6849 11.1179 18.6765 11.1617 18.6598 11.2027C18.643 11.2437 18.6184 11.2809 18.5872 11.3123C18.556 11.3437 18.5189 11.3686 18.478 11.3856C18.4372 11.4026 18.3934 11.4114 18.3491 11.4114Z" fill="#30B319"/>
</g>
<defs>
<clipPath id="clip0">
<rect width="36" height="36" fill="white"/>
</clipPath>
</defs>
</svg>
