<svg width="512" height="272" viewBox="0 0 512 272" fill="none" xmlns="http://www.w3.org/2000/svg">
<path d="M232.126 40.7441L181.282 2.59409C176.599 -0.919909 170.144 -0.857907 165.529 2.74409C153.044 12.4901 147.258 28.5441 150.651 44.0221L154.196 60.1931" fill="#333F61"/>
<path d="M512 198.76V198.224C512 173.085 494.453 151.363 469.893 146.099L413.172 133.941C345.644 119.466 283.166 87.3051 232.125 40.7451C219.891 38.2471 201.892 36.6591 184.507 44.8151C160.621 56.0221 162.244 74.2001 137.772 89.1481C118.533 100.9 84.111 110.079 63.135 96.1301C53.532 89.7441 46.29 78.2061 25.119 68.5531C20.996 66.6731 17.509 65.3951 15.266 64.6261L13.956 65.2171L5.848 95.0421C1.967 109.32 0 124.052 0 138.85V198.76L6.722 234.89H502.705L512 198.76Z" fill="#78AA36"/>
<path d="M458.99 153.936C458.99 170.782 446.921 185.202 430.351 188.156L399.498 193.655C382.928 196.608 370.859 211.029 370.859 227.875V231.574L502.869 234.251L512 198.76V198.224C512 173.085 494.453 151.363 469.893 146.099L459.431 143.856L458.989 143.923L458.99 153.936Z" fill="#333F61"/>
<path d="M194.15 198.76L194.136 198.622C189.552 151.959 165.787 109.305 128.534 80.8759L126.566 79.3739L126.539 79.3629C98.722 90.8649 65.563 85.9779 42.087 64.1299L35.21 56.1509C29.125 49.0909 17.631 51.7009 15.185 60.6979L5.848 95.0419C1.967 109.32 0 124.052 0 138.85V198.76V211.074L194.15 198.76Z" fill="#78AA36"/>
<path d="M73.395 198.76V138.85C73.395 124.052 75.362 109.32 79.243 95.0419L82.201 84.1609C67.673 81.5829 53.696 74.9339 42.087 64.1299L35.21 56.1509C29.125 49.0909 17.631 51.7009 15.185 60.6979L5.848 95.0419C1.967 109.32 0 124.052 0 138.85V198.76V211.074L73.395 206.419V198.76Z" fill="#55AB00"/>
<path d="M439.662 271.02H44.782C20.05 271.02 0 250.952 0 226.197V198.76H194.15C204.042 198.76 212.06 206.786 212.06 216.686C212.06 226.694 220.247 231.202 230.245 231.048H462.034C475.737 230.837 487.994 222.47 493.191 209.778C494.696 206.103 497.752 203.284 501.535 202.083L512 198.76L510.607 223.416C498.791 252.215 470.767 271.02 439.662 271.02Z" fill="#F1F3F4"/>
<path d="M74.212 226.197V198.76H0V226.198C0 250.953 20.05 271.02 44.782 271.02H118.994C94.262 271.02 74.212 250.952 74.212 226.197Z" fill="#CFD2DC"/>
<path d="M118.939 229.13H0.105957C1.61696 252.516 21.035 271.02 44.782 271.02H160.791C160.791 247.885 142.053 229.13 118.939 229.13Z" fill="#333F61"/>
<path d="M74.3712 229.13H0.15918C1.67018 252.516 21.0882 271.02 44.8362 271.02H119.048C95.3002 271.02 75.8822 252.516 74.3712 229.13Z" fill="#253551"/>
<path d="M289.488 129.292C297.931 133.348 305.247 136.659 311.581 139.359C332.87 148.435 357.595 141.316 370.859 122.339L370.86 122.336C319.604 105.134 272.318 77.407 232.126 40.744C215.135 23.738 187.809 24.199 171.401 41.77L168.48 44.898C194.509 66.273 250.512 110.567 289.488 129.292Z" fill="#55AB00"/>
<path d="M35.21 79.0021C38.066 81.4531 40.923 83.9041 43.779 86.3561C49.955 90.8101 70.283 104.289 99.408 103.461C128.706 102.628 148.315 87.8471 154.195 83.0461L170.032 66.0861C186.56 48.3861 214.235 47.2761 232.125 63.5961C252.484 82.1671 275.516 88.5621 300.134 90.4631C275.84 76.4531 253.023 59.8081 232.125 40.7451C214.235 24.4261 186.56 25.5351 170.032 43.2351L154.195 60.1951C124.298 92.2121 74.152 93.9721 42.087 64.1311L35.21 56.1521C29.125 49.0921 17.631 51.7021 15.185 60.6991L13.957 65.2171C22.933 69.4531 32.223 75.5361 35.21 79.0021Z" fill="#55AB00"/>
<path d="M250.985 49.705C250.592 45.519 246.913 42.506 242.798 42.599C241.717 42.623 240.634 42.702 239.554 42.754C234.085 43.015 228.616 43.276 223.146 43.537C220.88 43.645 218.614 43.753 216.349 43.861C214.665 43.941 213.022 43.96 211.455 44.713C207.706 46.516 205.992 51.102 207.65 54.924C209 58.035 212.119 59.766 215.441 59.632C220.2 59.439 224.957 59.178 229.714 58.951C231.647 58.859 233.721 58.536 235.654 58.667C236.122 58.699 235.935 58.556 236.089 58.9C236.353 59.494 236.247 60.569 236.307 61.209C236.77 66.106 237.219 71.004 237.695 75.9C238.007 79.106 239.885 81.902 243.009 82.97C247.024 84.343 251.523 82.154 252.941 78.16C253.569 76.391 253.342 74.645 253.171 72.839C252.944 70.44 252.718 68.041 252.491 65.643C252.018 60.642 251.546 55.641 251.073 50.64C251.043 50.328 251.014 50.016 250.985 49.705Z" fill="#333F61"/>
<path d="M315.091 115.697C313.546 107.771 312 99.845 310.455 91.919C310.087 90.03 309.518 88.267 308.107 86.86C306.177 84.936 303.506 84.268 300.865 84.741C296.846 85.46 292.845 86.296 288.837 87.073C285.121 87.794 281.389 88.456 277.685 89.235C274.313 89.944 271.683 92.682 271.33 96.157C270.933 100.066 273.595 103.76 277.424 104.62C279.353 105.053 281.238 104.547 283.127 104.181C285.692 103.684 288.256 103.186 290.821 102.689C291.983 102.464 293.146 102.238 294.308 102.013C294.741 101.929 295.781 101.511 296.21 101.644C296.678 101.789 296.826 104.026 296.93 104.56C297.816 109.103 298.702 113.646 299.587 118.188C300.126 120.952 301.674 123.309 304.338 124.437C307.99 125.983 312.338 124.465 314.255 121.002C315.144 119.395 315.442 117.502 315.091 115.697Z" fill="#333F61"/>
</svg>
