<svg width="36" height="36" viewBox="0 0 36 36" fill="none" xmlns="http://www.w3.org/2000/svg">
<path style="mix-blend-mode:multiply" opacity="0.4" d="M29.7681 16.3476C30.8288 15.695 31.7247 14.8312 32.3926 13.8172C33.0605 12.8031 33.4841 11.6635 33.6335 10.4785C33.783 9.29357 33.6547 8.09218 33.2576 6.959C32.8606 5.82582 32.2044 4.78843 31.3355 3.91995C30.4666 3.05147 29.4059 2.37304 28.2284 1.93245C27.0508 1.49187 25.785 1.29986 24.5201 1.36996C23.2552 1.44006 22.022 1.77056 20.9075 2.33817C19.7929 2.90578 18.8241 3.69669 18.0693 4.65515C16.601 3.48256 14.8308 2.69463 12.9366 2.37056C11.0424 2.04649 9.09101 2.1977 7.27854 2.80899C5.46608 3.42028 3.85641 4.47011 2.61134 5.85296C1.36627 7.23581 0.529653 8.90295 0.185596 10.6868C-0.158462 12.4707 0.00215784 14.3084 0.65131 16.0153C1.30046 17.7221 2.41527 19.238 3.88369 20.4105C5.35211 21.583 7.12239 22.3709 9.01659 22.6948C10.9108 23.0188 12.8622 22.8675 14.6746 22.2561C13.9759 24.1392 13.871 26.1726 14.3726 28.1106C14.8742 30.0487 15.9608 31.8085 17.5013 33.1777C19.0417 34.5468 20.9701 35.4667 23.0536 35.8263C25.1371 36.1859 27.2865 35.9697 29.2424 35.2039C31.1983 34.4382 32.8769 33.1556 34.0756 31.511C35.2744 29.8664 35.9419 27.9301 35.9977 25.936C36.0535 23.9419 35.495 21.9753 34.3899 20.2735C33.2847 18.5718 31.68 17.2078 29.7697 16.3461L29.7681 16.3476Z" fill="#E8EBEC"/>
<path d="M27.5924 14.6245V25.3701C27.5928 26.2785 27.2518 27.1576 26.6299 27.8519C26.008 28.5462 25.1452 29.0108 24.1944 29.1635C23.9683 29.2002 23.7392 29.2184 23.5097 29.2181H14.0843C13.8548 29.2184 13.6257 29.2002 13.3996 29.1635C12.4485 29.0111 11.5853 28.5467 10.9631 27.8524C10.3408 27.158 9.99967 26.2787 10 25.3701V9.84793C9.99967 8.93938 10.3408 8.06005 10.9631 7.36573C11.5853 6.67142 12.4485 6.20695 13.3996 6.05463C13.6257 6.01793 13.8548 5.99965 14.0843 6H23.5097C23.7392 5.99965 23.9683 6.01793 24.1944 6.05463C25.1452 6.20727 26.008 6.67188 26.6299 7.36616C27.2518 8.06044 27.5928 8.9396 27.5924 9.84793V10.5793" fill="#FFC107"/>
<path d="M27.5924 14.6245V25.3701C27.5928 26.2785 27.2518 27.1576 26.6299 27.8519C26.008 28.5462 25.1452 29.0108 24.1944 29.1635C23.9683 29.2002 23.7392 29.2184 23.5097 29.2181H14.0843C13.8548 29.2184 13.6257 29.2002 13.3996 29.1635C12.4485 29.0111 11.5853 28.5467 10.9631 27.8524C10.3408 27.158 9.99967 26.2787 10 25.3701V9.84794C9.99967 8.93938 10.3408 8.06005 10.9631 7.36573C11.5853 6.67142 12.4485 6.20695 13.3996 6.05463C13.6257 6.01793 13.8548 5.99965 14.0843 6H23.5097C23.7392 5.99965 23.9683 6.01793 24.1944 6.05463C25.1452 6.20727 26.008 6.67188 26.6299 7.36616C27.2518 8.06044 27.5928 8.9396 27.5924 9.84794V10.5793" stroke="#30B319" stroke-width="0.5" stroke-miterlimit="10"/>
<path d="M14.681 29.1478V31.4844C14.681 31.6856 14.5961 31.8786 14.445 32.0209C14.294 32.1632 14.0891 32.2431 13.8754 32.2431C13.6618 32.2431 13.4569 32.1632 13.3058 32.0209C13.1547 31.8786 13.0698 31.6856 13.0698 31.4844V29.0931" fill="white"/>
<path d="M14.681 29.1478V31.4844C14.681 31.6856 14.5961 31.8786 14.445 32.0209C14.294 32.1632 14.0891 32.2431 13.8754 32.2431V32.2431C13.6618 32.2431 13.4569 32.1632 13.3058 32.0209C13.1547 31.8786 13.0698 31.6856 13.0698 31.4844V29.0931" stroke="#FFC107" stroke-width="0.5" stroke-miterlimit="10"/>
<path d="M23.8646 29.0931V31.4844C23.8646 31.6856 23.7797 31.8786 23.6286 32.0209C23.4776 32.1632 23.2727 32.2431 23.059 32.2431C22.8453 32.2431 22.6404 32.1632 22.4894 32.0209C22.3383 31.8786 22.2534 31.6856 22.2534 31.4844V29.1478" fill="white"/>
<path d="M23.8646 29.0931V31.4844C23.8646 31.6856 23.7797 31.8786 23.6286 32.0209C23.4776 32.1632 23.2727 32.2431 23.059 32.2431V32.2431C22.8453 32.2431 22.6404 32.1632 22.4894 32.0209C22.3383 31.8786 22.2534 31.6856 22.2534 31.4844V29.1478" stroke="#FFC107" stroke-width="0.5" stroke-miterlimit="10"/>
<path d="M13.0698 5.98888V3.3548C13.0698 2.58578 13.3942 1.84826 13.9716 1.30447C14.549 0.760693 15.3322 0.4552 16.1488 0.4552H20.7841C21.1884 0.4552 21.5888 0.530201 21.9624 0.675919C22.3359 0.821638 22.6754 1.03522 22.9613 1.30447C23.2472 1.57373 23.474 1.89338 23.6287 2.24517C23.7834 2.59697 23.8631 2.97402 23.8631 3.3548V5.98888" stroke="#30B319" stroke-width="0.5" stroke-miterlimit="10"/>
<path d="M15.1031 13.3676C15.1031 12.9067 14.7064 12.5331 14.217 12.5331C13.7276 12.5331 13.3308 12.9067 13.3308 13.3676V21.7129C13.3308 22.1738 13.7276 22.5474 14.217 22.5474C14.7064 22.5474 15.1031 22.1738 15.1031 21.7129V13.3676Z" fill="#30B319" stroke="#FFC107" stroke-width="0.5" stroke-miterlimit="10"/>
<path d="M19.3533 13.3676C19.3533 12.9067 18.9566 12.5331 18.4672 12.5331C17.9778 12.5331 17.5811 12.9067 17.5811 13.3676V21.7129C17.5811 22.1738 17.9778 22.5474 18.4672 22.5474C18.9566 22.5474 19.3533 22.1738 19.3533 21.7129V13.3676Z" fill="#30B319" stroke="#FFC107" stroke-width="0.5" stroke-miterlimit="10"/>
<path d="M23.6036 13.3676C23.6036 12.9067 23.2068 12.5331 22.7174 12.5331C22.228 12.5331 21.8313 12.9067 21.8313 13.3676V21.7129C21.8313 22.1738 22.228 22.5474 22.7174 22.5474C23.2068 22.5474 23.6036 22.1738 23.6036 21.7129V13.3676Z" fill="#30B319" stroke="#30B319" stroke-width="0.5" stroke-miterlimit="10"/>
<path d="M27.2626 13.0384C27.5589 13.0384 27.7991 12.8122 27.7991 12.5331C27.7991 12.254 27.5589 12.0278 27.2626 12.0278C26.9663 12.0278 26.7261 12.254 26.7261 12.5331C26.7261 12.8122 26.9663 13.0384 27.2626 13.0384Z" fill="#30B319"/>
<path d="M9.75098 9.02051H20.1785" stroke="#30B319" stroke-width="0.5" stroke-miterlimit="10"/>
<path d="M21.145 9.02051H22.2535" stroke="#30B319" stroke-width="0.5" stroke-miterlimit="10"/>
<path d="M9.75098 26.06H18.0839" stroke="#30B319" stroke-width="0.5" stroke-miterlimit="10"/>
<path d="M18.8894 26.06H20.1783" stroke="#30B319" stroke-width="0.5" stroke-miterlimit="10"/>
</svg>
