<svg width="36" height="36" viewBox="0 0 36 36" fill="none" xmlns="http://www.w3.org/2000/svg">
<path d="M8.7356 19.7745C11.4393 19.7745 13.6311 17.6941 13.6311 15.1278C13.6311 12.5614 11.4393 10.481 8.7356 10.481C6.03188 10.481 3.84009 12.5614 3.84009 15.1278C3.84009 17.6941 6.03188 19.7745 8.7356 19.7745Z" fill="#E8EBEC"/>
<path d="M21.2156 23.4201C23.9193 23.4201 26.1111 21.3396 26.1111 18.7733C26.1111 16.207 23.9193 14.1266 21.2156 14.1266C18.5119 14.1266 16.3201 16.207 16.3201 18.7733C16.3201 21.3396 18.5119 23.4201 21.2156 23.4201Z" fill="#E8EBEC"/>
<path d="M9.21558 27.0656C11.9193 27.0656 14.1111 24.9852 14.1111 22.4189C14.1111 19.8526 11.9193 17.7722 9.21558 17.7722C6.51186 17.7722 4.32007 19.8526 4.32007 22.4189C4.32007 24.9852 6.51186 27.0656 9.21558 27.0656Z" fill="#E8EBEC"/>
<path d="M22.8459 32.5297H13.1886C10.0388 22.434 11.7197 17.7388 12.9206 15.8975C13.0387 15.7178 13.1348 15.5259 13.2072 15.3253C13.4163 14.7213 13.4163 14.0688 13.2072 13.4648C11.7857 9.29918 12.5753 5.33253 13.0109 3.73681C13.0691 3.52487 13.1992 3.33746 13.3808 3.20407C13.5624 3.07069 13.7852 2.9989 14.014 3.00001C14.1645 3.00017 14.3131 3.03174 14.4495 3.09253C14.5859 3.15331 14.7068 3.24185 14.8038 3.35196C14.9008 3.46208 14.9716 3.59112 15.0111 3.7301C15.0507 3.86908 15.0582 4.01465 15.0329 4.15667C14.1889 8.93421 18.018 10.0758 18.018 10.0758C18.018 10.0758 21.8471 8.93421 21.0044 4.15667C20.9792 4.01465 20.9867 3.86908 21.0262 3.7301C21.0658 3.59112 21.1365 3.46208 21.2336 3.35196C21.3306 3.24185 21.4515 3.15331 21.5879 3.09253C21.7243 3.03174 21.8729 3.00017 22.0233 3.00001C22.2522 2.9989 22.475 3.07069 22.6566 3.20407C22.8382 3.33746 22.9683 3.52487 23.0265 3.73681C23.4564 5.33253 24.2531 9.29918 22.8301 13.4648C22.624 14.0687 22.6265 14.7201 22.8373 15.3226C22.9097 15.5231 23.0059 15.7151 23.1239 15.8947C24.3162 17.7388 25.9957 22.434 22.8459 32.5297Z" fill="#FFC107" stroke="#30B319" stroke-width="0.3" stroke-miterlimit="10"/>
<path d="M18.0181 15.9715C18.7526 15.9715 19.348 15.4015 19.348 14.6982C19.348 13.995 18.7526 13.425 18.0181 13.425C17.2836 13.425 16.6882 13.995 16.6882 14.6982C16.6882 15.4015 17.2836 15.9715 18.0181 15.9715Z" fill="white" stroke="#30B319" stroke-width="0.3" stroke-miterlimit="10"/>
<path d="M18.018 13.425H13.1943" stroke="#30B319" stroke-width="0.3" stroke-miterlimit="10"/>
<path d="M18.018 15.9715H12.8677" stroke="#30B319" stroke-width="0.3" stroke-miterlimit="10"/>
<path d="M23.1682 15.9715H18.0178" stroke="#30B319" stroke-width="0.3" stroke-miterlimit="10"/>
<path d="M22.8415 13.425H18.0178" stroke="#30B319" stroke-width="0.3" stroke-miterlimit="10"/>
<path d="M23.4636 30.3906H19.7549" stroke="#30B319" stroke-width="0.3" stroke-miterlimit="10"/>
<path d="M16.281 30.3906H12.5708" stroke="#30B319" stroke-width="0.3" stroke-miterlimit="10"/>
<path d="M18.0179 30.8173C18.2641 30.8173 18.4636 30.6262 18.4636 30.3906C18.4636 30.1549 18.2641 29.9639 18.0179 29.9639C17.7718 29.9639 17.5723 30.1549 17.5723 30.3906C17.5723 30.6262 17.7718 30.8173 18.0179 30.8173Z" fill="#30B319"/>
<path d="M20.9858 15.9715V23.8143" stroke="#30B319" stroke-width="0.3" stroke-miterlimit="10"/>
<path d="M20.9858 24.4866V25.3908" stroke="#30B319" stroke-width="0.3" stroke-miterlimit="10"/>
<path d="M25.5541 12.6114H24.9369C24.8913 12.6141 24.8456 12.6074 24.8026 12.5918C24.7597 12.5762 24.7203 12.5519 24.6871 12.5206C24.6538 12.4892 24.6273 12.4514 24.6092 12.4094C24.5911 12.3675 24.5818 12.3222 24.5818 12.2765C24.5818 12.2308 24.5911 12.1856 24.6092 12.1436C24.6273 12.1017 24.6538 12.0639 24.6871 12.0325C24.7203 12.0011 24.7597 11.9769 24.8026 11.9613C24.8456 11.9457 24.8913 11.939 24.9369 11.9416H25.5541C25.6396 11.9466 25.7199 11.9841 25.7786 12.0464C25.8374 12.1086 25.8701 12.191 25.8701 12.2765C25.8701 12.3621 25.8374 12.4445 25.7786 12.5067C25.7199 12.569 25.6396 12.6064 25.5541 12.6114Z" fill="#30B319"/>
<path d="M27.6142 12.6114H26.9959C26.9104 12.6064 26.8301 12.569 26.7714 12.5067C26.7126 12.4445 26.6799 12.3621 26.6799 12.2765C26.6799 12.191 26.7126 12.1086 26.7714 12.0464C26.8301 11.9841 26.9104 11.9466 26.9959 11.9417H27.6142C27.6997 11.9466 27.78 11.9841 27.8387 12.0464C27.8975 12.1086 27.9302 12.191 27.9302 12.2765C27.9302 12.3621 27.8975 12.4445 27.8387 12.5067C27.78 12.569 27.6997 12.6064 27.6142 12.6114Z" fill="#30B319"/>
<path d="M26.2755 13.9498C26.1869 13.9498 26.1018 13.9146 26.0391 13.8519C25.9764 13.7892 25.9412 13.7042 25.9412 13.6155V12.9972C25.9412 12.9086 25.9764 12.8236 26.0391 12.7609C26.1018 12.6982 26.1869 12.6629 26.2755 12.6629C26.3642 12.6629 26.4493 12.6982 26.512 12.7609C26.5747 12.8236 26.6099 12.9086 26.6099 12.9972V13.6155C26.6099 13.7042 26.5747 13.7892 26.512 13.8519C26.4493 13.9146 26.3642 13.9498 26.2755 13.9498Z" fill="#30B319"/>
<path d="M26.2755 11.8901C26.1869 11.8901 26.1018 11.8549 26.0391 11.7922C25.9764 11.7295 25.9412 11.6445 25.9412 11.5558V10.9376C25.9412 10.8489 25.9764 10.7639 26.0391 10.7012C26.1018 10.6385 26.1869 10.6032 26.2755 10.6032C26.3642 10.6032 26.4493 10.6385 26.512 10.7012C26.5747 10.7639 26.6099 10.8489 26.6099 10.9376V11.5558C26.6099 11.6445 26.5747 11.7295 26.512 11.7922C26.4493 11.8549 26.3642 11.8901 26.2755 11.8901Z" fill="#30B319"/>
<path d="M9.93431 5.47172H9.31593C9.23049 5.46672 9.15018 5.42926 9.09145 5.36701C9.03271 5.30475 9 5.22241 9 5.13683C9 5.05125 9.03271 4.96891 9.09145 4.90665C9.15018 4.8444 9.23049 4.80694 9.31593 4.80194H9.93431C10.0198 4.80694 10.1001 4.8444 10.1588 4.90665C10.2175 4.96891 10.2502 5.05125 10.2502 5.13683C10.2502 5.22241 10.2175 5.30475 10.1588 5.36701C10.1001 5.42926 10.0198 5.46672 9.93431 5.47172Z" fill="#30B319"/>
<path d="M11.9934 5.47172H11.375C11.2896 5.46672 11.2093 5.42926 11.1505 5.36701C11.0918 5.30475 11.0591 5.22241 11.0591 5.13683C11.0591 5.05125 11.0918 4.96891 11.1505 4.90665C11.2093 4.8444 11.2896 4.80694 11.375 4.80194H11.9934C12.0788 4.80694 12.1591 4.8444 12.2179 4.90665C12.2766 4.96891 12.3093 5.05125 12.3093 5.13683C12.3093 5.22241 12.2766 5.30475 12.2179 5.36701C12.1591 5.42926 12.0788 5.46672 11.9934 5.47172Z" fill="#30B319"/>
<path d="M10.6547 6.80551C10.566 6.80551 10.481 6.77028 10.4183 6.70759C10.3555 6.64489 10.3203 6.55986 10.3203 6.47119V5.85293C10.3203 5.76426 10.3555 5.67923 10.4183 5.61653C10.481 5.55384 10.566 5.51862 10.6547 5.51862C10.7434 5.51862 10.8284 5.55384 10.8911 5.61653C10.9538 5.67923 10.9891 5.76426 10.9891 5.85293V6.47119C10.9891 6.55986 10.9538 6.64489 10.8911 6.70759C10.8284 6.77028 10.7434 6.80551 10.6547 6.80551Z" fill="#30B319"/>
<path d="M10.6547 4.75039C10.566 4.75039 10.481 4.71517 10.4183 4.65248C10.3555 4.58978 10.3203 4.50474 10.3203 4.41608V3.79782C10.3203 3.70915 10.3555 3.62412 10.4183 3.56142C10.481 3.49872 10.566 3.4635 10.6547 3.4635C10.7434 3.4635 10.8284 3.49872 10.8911 3.56142C10.9538 3.62412 10.9891 3.70915 10.9891 3.79782V4.41608C10.9891 4.50474 10.9538 4.58978 10.8911 4.65248C10.8284 4.71517 10.7434 4.75039 10.6547 4.75039Z" fill="#30B319"/>
<path d="M21.9836 6.80557H21.3664C21.2777 6.80557 21.1926 6.77034 21.1299 6.70765C21.0672 6.64495 21.032 6.55991 21.032 6.47125C21.032 6.38258 21.0672 6.29755 21.1299 6.23485C21.1926 6.17216 21.2777 6.13693 21.3664 6.13693H21.9836C22.0723 6.13693 22.1573 6.17216 22.22 6.23485C22.2828 6.29755 22.318 6.38258 22.318 6.47125C22.318 6.55991 22.2828 6.64495 22.22 6.70765C22.1573 6.77034 22.0723 6.80557 21.9836 6.80557Z" fill="#30B319"/>
<path d="M24.0437 6.80557H23.4264C23.3377 6.80557 23.2527 6.77034 23.19 6.70765C23.1273 6.64495 23.092 6.55991 23.092 6.47125C23.092 6.38258 23.1273 6.29755 23.19 6.23485C23.2527 6.17216 23.3377 6.13693 23.4264 6.13693H24.0437C24.1323 6.13693 24.2174 6.17216 24.2801 6.23485C24.3428 6.29755 24.378 6.38258 24.378 6.47125C24.378 6.55991 24.3428 6.64495 24.2801 6.70765C24.2174 6.77034 24.1323 6.80557 24.0437 6.80557Z" fill="#30B319"/>
<path d="M22.705 8.14853C22.6163 8.14853 22.5312 8.1133 22.4685 8.05061C22.4058 7.98791 22.3706 7.90288 22.3706 7.81421V7.19595C22.3706 7.10729 22.4058 7.02225 22.4685 6.95955C22.5312 6.89686 22.6163 6.86163 22.705 6.86163C22.7937 6.86163 22.8787 6.89686 22.9414 6.95955C23.0041 7.02225 23.0394 7.10729 23.0394 7.19595V7.81421C23.0394 7.90288 23.0041 7.98791 22.9414 8.05061C22.8787 8.1133 22.7937 8.14853 22.705 8.14853Z" fill="#30B319"/>
<path d="M22.705 6.08879C22.6163 6.08879 22.5312 6.05357 22.4685 5.99087C22.4058 5.92817 22.3706 5.84314 22.3706 5.75447V5.13736C22.3706 5.04869 22.4058 4.96365 22.4685 4.90096C22.5312 4.83826 22.6163 4.80304 22.705 4.80304C22.7937 4.80304 22.8787 4.83826 22.9414 4.90096C23.0041 4.96365 23.0394 5.04869 23.0394 5.13736V5.75447C23.0394 5.84314 23.0041 5.92817 22.9414 5.99087C22.8787 6.05357 22.7937 6.08879 22.705 6.08879Z" fill="#30B319"/>
<path d="M16.6276 8.59506H16.0104C15.9217 8.59506 15.8367 8.55983 15.774 8.49714C15.7113 8.43444 15.676 8.3494 15.676 8.26074C15.676 8.17207 15.7113 8.08704 15.774 8.02434C15.8367 7.96164 15.9217 7.92642 16.0104 7.92642H16.6276C16.7163 7.92642 16.8014 7.96164 16.8641 8.02434C16.9268 8.08704 16.962 8.17207 16.962 8.26074C16.962 8.3494 16.9268 8.43444 16.8641 8.49714C16.8014 8.55983 16.7163 8.59506 16.6276 8.59506Z" fill="#30B319"/>
<path d="M18.6877 8.59506H18.0705C17.9818 8.59506 17.8967 8.55983 17.834 8.49714C17.7713 8.43444 17.7361 8.3494 17.7361 8.26074C17.7361 8.17207 17.7713 8.08704 17.834 8.02434C17.8967 7.96164 17.9818 7.92642 18.0705 7.92642H18.6877C18.7764 7.92642 18.8614 7.96164 18.9241 8.02434C18.9868 8.08704 19.0221 8.17207 19.0221 8.26074C19.0221 8.3494 18.9868 8.43444 18.9241 8.49714C18.8614 8.55983 18.7764 8.59506 18.6877 8.59506Z" fill="#30B319"/>
<path d="M17.3493 9.93346C17.2606 9.93346 17.1755 9.89824 17.1128 9.83554C17.0501 9.77284 17.0149 9.68781 17.0149 9.59914V8.98088C17.0199 8.89545 17.0574 8.81516 17.1196 8.75644C17.1819 8.69772 17.2643 8.66501 17.3498 8.66501C17.4354 8.66501 17.5178 8.69772 17.5801 8.75644C17.6423 8.81516 17.6798 8.89545 17.6848 8.98088V9.59914C17.6845 9.68791 17.649 9.77295 17.5861 9.83561C17.5232 9.89827 17.4381 9.93346 17.3493 9.93346Z" fill="#30B319"/>
<path d="M17.3491 7.87489C17.2603 7.87459 17.1753 7.83911 17.1126 7.77623C17.0499 7.71335 17.0147 7.6282 17.0147 7.53943V6.92002C17.0121 6.8744 17.0187 6.82871 17.0344 6.78576C17.05 6.74281 17.0742 6.7035 17.1056 6.67026C17.137 6.63701 17.1748 6.61052 17.2168 6.59242C17.2587 6.57431 17.304 6.56497 17.3497 6.56497C17.3954 6.56497 17.4406 6.57431 17.4826 6.59242C17.5246 6.61052 17.5624 6.63701 17.5938 6.67026C17.6251 6.7035 17.6494 6.74281 17.665 6.78576C17.6806 6.82871 17.6873 6.8744 17.6846 6.92002V7.53714C17.6849 7.58139 17.6765 7.62525 17.6598 7.66622C17.643 7.70718 17.6184 7.74443 17.5872 7.77583C17.556 7.80722 17.5189 7.83214 17.478 7.84914C17.4372 7.86614 17.3934 7.87489 17.3491 7.87489Z" fill="#30B319"/>
<path d="M13.638 27.1921L13.3761 19.9417C13.361 19.5237 13.3915 19.1212 13.4609 18.8227C13.5303 18.5241 13.6329 18.354 13.7462 18.3497L13.9172 18.3435C13.9398 18.3429 13.9627 18.3754 13.9808 18.434C13.9989 18.4926 14.0108 18.5724 14.0138 18.6559L14.4124 29.6889C14.2312 29.6952 14.0478 29.4357 13.9026 28.9676C13.7574 28.4994 13.6622 27.8608 13.638 27.1921Z" fill="white"/>
<path d="M22.7443 10.4959L22.639 7.58027C22.6329 7.41217 22.6026 7.25184 22.5548 7.13453C22.5069 7.01721 22.4454 6.95251 22.3838 6.95465L22.2908 6.95801C22.2785 6.95854 22.2671 6.97237 22.2593 6.99647C22.2515 7.02057 22.2478 7.05296 22.249 7.08655L22.4092 11.5233C22.5078 11.5197 22.5985 11.4094 22.6613 11.2167C22.7242 11.0241 22.754 10.7648 22.7443 10.4959Z" fill="white"/>
<path d="M16.2304 27.1465L16.1251 24.2308C16.119 24.0628 16.1236 23.9012 16.138 23.7816C16.1523 23.662 16.1752 23.5943 16.2016 23.5933L16.2414 23.5918C16.2467 23.5917 16.2522 23.6049 16.2568 23.6286C16.2613 23.6522 16.2646 23.6844 16.2658 23.718L16.4261 28.1547C16.3839 28.1561 16.3396 28.0508 16.3029 27.8617C16.2662 27.6726 16.2401 27.4154 16.2304 27.1465Z" fill="white"/>
</svg>
