<svg width="336" height="204" viewBox="0 0 336 204" fill="none" xmlns="http://www.w3.org/2000/svg">
<path d="M100.133 71.25H232.867V191.916H100.133V71.25Z" fill="#324A59" fill-opacity="0.7"/>
<path d="M100.133 71.25V89.3497H109.184V95.383H121.25V71.25H100.133Z" fill="#324A59" fill-opacity="0.7"/>
<path d="M232.867 89.3497V71.25H211.75V95.383H223.816V89.3497H232.867Z" fill="#324A59" fill-opacity="0.7"/>
<path d="M97.117 203.984H235.883C242.547 203.984 247.949 198.581 247.949 191.916H85.0506C85.0506 198.581 90.4527 203.984 97.117 203.984Z" fill="#C0C8CD"/>
<path d="M232.867 71.25H247.949C247.949 47.9249 229.042 29.0173 205.717 29.0173H127.283C103.958 29.0173 85.0506 47.9249 85.0506 71.25H232.867ZM145.383 56.1662H133.316V44.0997H145.383V56.1662ZM199.684 56.1662H187.617V44.0997H199.684V56.1662Z" fill="#324A59" fill-opacity="0.7"/>
<path d="M121.25 95.383V98.4003C121.25 103.398 125.302 107.449 130.301 107.449H148.4C153.398 107.449 157.449 103.398 157.449 98.4003V71.25H121.25V95.383Z" fill="#324A59" fill-opacity="0.7"/>
<path d="M100.133 89.3497H79.0173V101.416H109.184V89.3497H100.133Z" fill="#C0C8CD"/>
<path d="M175.551 71.25V98.4003C175.551 103.398 179.602 107.451 184.6 107.451H202.699C207.698 107.451 211.75 103.398 211.75 98.4003V71.25H175.551Z" fill="#324A59" fill-opacity="0.7"/>
<path d="M223.816 89.3497V101.416H253.983V89.3497H223.816Z" fill="#C0C8CD"/>
<path d="M112.199 155.717V164.767C112.199 176.429 121.655 185.883 133.316 185.883H139.35C151.013 185.883 160.467 176.429 160.467 164.767V149.683H112.199V155.717Z" fill="#324A59" fill-opacity="0.7"/>
<path d="M103.15 155.717C98.1514 155.717 94.0997 159.768 94.0997 164.767C94.0997 169.765 98.1514 173.816 103.15 173.816H112.199V155.717H103.15Z" fill="#324A59" fill-opacity="0.7"/>
<path d="M172.533 164.767C172.533 176.429 181.987 185.883 193.65 185.883H199.684C211.345 185.883 220.801 176.429 220.801 164.767V149.683H172.533V164.767Z" fill="#324A59" fill-opacity="0.7"/>
<path d="M220.801 173.816H229.85C234.849 173.816 238.9 169.765 238.9 164.767C238.9 159.768 234.849 155.717 229.85 155.717H220.801V173.816Z" fill="#324A59" fill-opacity="0.7"/>
<path d="M133.316 44.0997H145.383V56.1662H133.316V44.0997Z" fill="#324A59" fill-opacity="0.7"/>
<path d="M187.617 44.0997H199.684V56.1662H187.617V44.0997Z" fill="#324A59" fill-opacity="0.7"/>
<path d="M133.316 59.1836H145.383C147.05 59.1836 148.4 57.833 148.4 56.1663V44.0998C148.4 42.4344 147.05 41.0839 145.383 41.0839H133.316C131.651 41.0839 130.301 42.4344 130.301 44.0998V56.1663C130.301 57.833 131.651 59.1836 133.316 59.1836ZM136.334 47.1171H142.367V53.1503H136.334V47.1171Z" fill="#324A59"/>
<path d="M187.617 59.1836H199.684C201.349 59.1836 202.699 57.833 202.699 56.1663V44.0998C202.699 42.4344 201.349 41.0839 199.684 41.0839H187.617C185.95 41.0839 184.6 42.4344 184.6 44.0998V56.1663C184.6 57.833 185.95 59.1836 187.617 59.1836ZM190.633 47.1171H196.666V53.1503H190.633V47.1171Z" fill="#324A59"/>
<path d="M134.04 122.533H128.007C128.033 123.131 127.885 123.722 127.582 124.237C126.219 126.959 126.219 130.166 127.582 132.886C128.149 133.956 128.149 135.238 127.582 136.308C126.883 137.641 126.532 139.129 126.56 140.633H132.593C132.567 140.035 132.714 139.44 133.018 138.923C134.383 136.2 134.383 132.994 133.018 130.272C132.451 129.203 132.451 127.924 133.018 126.857C133.717 125.524 134.069 124.037 134.04 122.533Z" fill="#324A59"/>
<path d="M146.108 122.533H140.073C140.1 123.131 139.952 123.722 139.648 124.237C138.285 126.959 138.285 130.166 139.648 132.886C140.216 133.956 140.216 135.238 139.648 136.308C138.949 137.641 138.599 139.129 138.626 140.633H144.659C144.633 140.035 144.781 139.44 145.085 138.923C146.449 136.2 146.449 132.994 145.085 130.272C144.517 129.203 144.517 127.924 145.085 126.857C145.783 125.524 146.136 124.037 146.108 122.533Z" fill="#324A59"/>
<path d="M206.44 122.533H200.407C200.433 123.131 200.286 123.722 199.982 124.237C198.619 126.959 198.619 130.166 199.982 132.886C200.549 133.956 200.549 135.238 199.982 136.308C199.283 137.641 198.931 139.129 198.96 140.633H204.993C204.967 140.035 205.115 139.44 205.418 138.923C206.783 136.2 206.783 132.994 205.418 130.272C204.851 129.203 204.851 127.924 205.418 126.857C206.117 125.524 206.468 124.037 206.44 122.533Z" fill="#324A59"/>
<path d="M194.374 122.533H188.341C188.367 123.131 188.219 123.722 187.915 124.237C186.551 126.959 186.551 130.166 187.915 132.886C188.481 133.956 188.481 135.238 187.915 136.308C187.217 137.641 186.864 139.129 186.892 140.633H192.925C192.899 140.035 193.047 139.44 193.352 138.923C194.716 136.2 194.716 132.994 193.352 130.272C192.784 129.203 192.784 127.924 193.352 126.857C194.051 125.524 194.402 124.037 194.374 122.533Z" fill="#324A59"/>
<circle cx="48.5" cy="8.5" r="8.5" fill="#E4D5C9"/>
<circle cx="320.5" cy="98.5" r="15.5" fill="#8C9DA8"/>
<circle cx="55.5" cy="174.5" r="15.5" fill="#8C9DA8"/>
<circle cx="11" cy="90" r="11" fill="#E4D5C9"/>
<circle cx="274" cy="156" r="8" fill="#E4D5C9"/>
</svg>
