<svg width="30" height="30" viewBox="0 0 30 30" fill="none" xmlns="http://www.w3.org/2000/svg">
<g clip-path="url(#clip0)">
<path d="M21.6585 21.1735C21.3363 21.1389 21.0481 21.3722 21.0138 21.6939L20.2526 28.8281H9.74743L8.99655 21.7898C8.96221 21.468 8.67364 21.2347 8.35178 21.2694C8.02999 21.3037 7.79702 21.5924 7.83135 21.9141L8.63813 29.4762C8.66989 29.7741 8.9212 30 9.22073 30H20.7794C21.0789 30 21.3302 29.7741 21.362 29.4762L22.179 21.8183C22.2133 21.4965 21.9803 21.2078 21.6585 21.1735Z" fill="#324A59"/>
<path d="M24.3745 4.17715H23.0635L22.0313 1.63951C21.9415 1.41873 21.7269 1.27436 21.4886 1.27436H17.8936L16.8868 0.187734C16.7759 0.0680273 16.6202 0 16.457 0H13.543C13.3798 0 13.2241 0.0680273 13.1132 0.187734L12.1065 1.27436H8.51151C8.27315 1.27436 8.05858 1.41873 7.96875 1.63951L6.93651 4.17715H5.62547C5.30186 4.17715 5.03954 4.43947 5.03954 4.76309V7.28104C5.03954 7.60465 5.30186 7.86697 5.62547 7.86697H6.33258L7.06817 14.7616C7.1025 15.0834 7.39108 15.3166 7.71293 15.2821C8.03473 15.2477 8.2677 14.959 8.23336 14.6373L7.51102 7.86697H22.4889L21.7641 14.6598C21.7298 14.9816 21.9628 15.2702 22.2846 15.3046C22.3057 15.3069 22.3267 15.308 22.3474 15.308C22.6431 15.308 22.8973 15.0848 22.9293 14.7841L23.6673 7.86697H24.3744C24.698 7.86697 24.9604 7.60465 24.9604 7.28104V4.76309C24.9605 4.43947 24.6981 4.17715 24.3745 4.17715ZM8.90567 2.44623H12.3623C12.5255 2.44623 12.6813 2.3782 12.7921 2.2585L13.7989 1.17188H16.2011L17.2079 2.2585C17.3188 2.37814 17.4745 2.44623 17.6377 2.44623H21.0943L21.7984 4.17715H8.20161L8.90567 2.44623ZM23.7886 6.6951H6.21141V5.34902H23.7886V6.6951Z" fill="#324A59"/>
<path d="M6.03011 12.8271L7.19847 23.7779H22.8015L23.9699 12.8271H6.03011ZM15 20.5038C13.8091 20.5038 12.8437 19.5384 12.8437 18.3475C12.8437 17.1567 13.8091 16.1913 15 16.1913C16.1909 16.1913 17.1562 17.1567 17.1562 18.3475C17.1562 19.5384 16.1909 20.5038 15 20.5038Z" fill="#E4D5C9"/>
<path d="M15 21.0897C13.4879 21.0897 12.2578 19.8596 12.2578 18.3475C12.2578 16.8355 13.4879 15.6053 15 15.6053C16.5121 15.6053 17.7422 16.8355 17.7422 18.3475C17.7422 19.8596 16.5121 21.0897 15 21.0897ZM15 16.7773C14.1341 16.7773 13.4297 17.4817 13.4297 18.3476C13.4297 19.2135 14.1341 19.9179 15 19.9179C15.8659 19.9179 16.5703 19.2135 16.5703 18.3476C16.5703 17.4817 15.8658 16.7773 15 16.7773Z" fill="#324A59"/>
</g>
<defs>
<clipPath id="clip0">
<rect width="30" height="30" fill="white"/>
</clipPath>
</defs>
</svg>
