c<svg width="419" height="263" viewBox="0 0 419 263" fill="none" xmlns="http://www.w3.org/2000/svg">
<path d="M397.265 262.175H21.1019C9.55985 262.175 0.203857 252.819 0.203857 241.277V21.849C0.203857 10.307 9.55985 0.951019 21.1019 0.951019H397.265C408.807 0.951019 418.163 10.307 418.163 21.849V241.278C418.163 252.819 408.807 262.175 397.265 262.175Z" fill="#4B92B9"/>
<path d="M130.816 103.873H42V159.253H130.816V103.873Z" fill="#79CAE8"/>
<path d="M100.514 121.114H72.302V142.012H100.514V121.114Z" fill="white"/>
<path d="M360.694 230.828C375.121 230.828 386.816 219.133 386.816 204.706C386.816 190.279 375.121 178.584 360.694 178.584C346.267 178.584 334.572 190.279 334.572 204.706C334.572 219.133 346.267 230.828 360.694 230.828Z" fill="#FFD85C"/>
<path d="M326.212 230.828C340.639 230.828 352.334 219.133 352.334 204.706C352.334 190.279 340.639 178.584 326.212 178.584C311.785 178.584 300.09 190.279 300.09 204.706C300.09 219.133 311.785 230.828 326.212 230.828Z" fill="#FF503D"/>
<path d="M376.367 96.037H345.02V111.71H376.367V96.037Z" fill="white"/>
<path d="M324.123 96.037H156.939V111.71H324.123V96.037Z" fill="white"/>
<path d="M271.878 127.384H156.939V143.057H271.878V127.384Z" fill="white"/>
</svg>
