<svg width="31" height="30" viewBox="0 0 31 30" fill="none" xmlns="http://www.w3.org/2000/svg">
<g clip-path="url(#clip0)">
<path d="M22.5474 21.1735C22.2252 21.1389 21.937 21.3722 21.9027 21.6939L21.1415 28.8281H10.6363L9.88543 21.7898C9.85109 21.468 9.56252 21.2347 9.24066 21.2694C8.91887 21.3037 8.6859 21.5924 8.72023 21.9141L9.52701 29.4762C9.55877 29.7741 9.81008 30 10.1096 30H21.6683C21.9678 30 22.2191 29.7741 22.2509 29.4762L23.0679 21.8183C23.1022 21.4965 22.8692 21.2078 22.5474 21.1735Z" fill="#D8D8D8"/>
<path d="M25.2634 4.17715H23.9524L22.9202 1.63951C22.8304 1.41873 22.6158 1.27436 22.3774 1.27436H18.7825L17.7757 0.187734C17.6648 0.0680273 17.5091 0 17.3459 0H14.4319C14.2687 0 14.113 0.0680273 14.0021 0.187734L12.9954 1.27436H9.40039C9.16203 1.27436 8.94746 1.41873 8.85764 1.63951L7.82539 4.17715H6.51436C6.19074 4.17715 5.92842 4.43947 5.92842 4.76309V7.28104C5.92842 7.60465 6.19074 7.86697 6.51436 7.86697H7.22146L7.95705 14.7616C7.99139 15.0834 8.27996 15.3166 8.60182 15.2821C8.92361 15.2477 9.15658 14.959 9.12225 14.6373L8.3999 7.86697H23.3778L22.653 14.6598C22.6187 14.9816 22.8517 15.2702 23.1734 15.3046C23.1946 15.3069 23.2156 15.308 23.2363 15.308C23.532 15.308 23.7862 15.0848 23.8182 14.7841L24.5562 7.86697H25.2633C25.5869 7.86697 25.8492 7.60465 25.8492 7.28104V4.76309C25.8494 4.43947 25.587 4.17715 25.2634 4.17715ZM9.79455 2.44623H13.2512C13.4144 2.44623 13.5702 2.3782 13.681 2.2585L14.6878 1.17188H17.09L18.0968 2.2585C18.2077 2.37814 18.3634 2.44623 18.5265 2.44623H21.9832L22.6873 4.17715H9.09049L9.79455 2.44623ZM24.6775 6.6951H7.10029V5.34902H24.6775V6.6951Z" fill="#D8D8D8"/>
<path d="M6.919 12.8271L8.08736 23.7779H23.6904L24.8588 12.8271H6.919ZM15.8889 20.5038C14.698 20.5038 13.7326 19.5384 13.7326 18.3475C13.7326 17.1567 14.698 16.1913 15.8889 16.1913C17.0797 16.1913 18.0451 17.1567 18.0451 18.3475C18.0451 19.5384 17.0797 20.5038 15.8889 20.5038Z" fill="#D8D8D8"/>
<path d="M15.8889 21.0897C14.3768 21.0897 13.1467 19.8596 13.1467 18.3475C13.1467 16.8355 14.3768 15.6053 15.8889 15.6053C17.401 15.6053 18.6311 16.8355 18.6311 18.3475C18.6311 19.8596 17.401 21.0897 15.8889 21.0897ZM15.8889 16.7773C15.023 16.7773 14.3186 17.4817 14.3186 18.3476C14.3186 19.2135 15.023 19.9179 15.8889 19.9179C16.7548 19.9179 17.4592 19.2135 17.4592 18.3476C17.4592 17.4817 16.7547 16.7773 15.8889 16.7773Z" fill="#D8D8D8"/>
</g>
<defs>
<clipPath id="clip0">
<rect width="30" height="30" fill="white" transform="translate(0.888885)"/>
</clipPath>
</defs>
</svg>
