<svg width="24" height="24" viewBox="0 0 24 24" fill="none" xmlns="http://www.w3.org/2000/svg">
<g clip-path="url(#clip0)">
<path d="M21.9033 8.40222C22.6866 6.64821 22.3596 4.51887 20.9203 3.07962C19.4811 1.64037 17.3518 1.3135 15.5977 2.09667L13.5011 0L0 13.5011L2.09671 15.5978C1.31345 17.3518 1.64042 19.4811 3.07967 20.9204C4.51892 22.3596 6.64821 22.6865 8.40226 21.9033L10.499 24L24 10.499L21.9033 8.40222ZM9.23962 13.259C8.58573 13.9129 7.52555 13.9129 6.87166 13.259C6.21777 12.6051 6.21777 11.5449 6.87166 10.891C7.52555 10.2371 8.58573 10.2371 9.23962 10.891C9.89356 11.5449 9.89356 12.6051 9.23962 13.259ZM11.8164 17.6564L10.6272 6.50958L12.1835 6.34352L13.3727 17.4904L11.8164 17.6564ZM17.1378 13.1184C16.4839 13.7723 15.4237 13.7723 14.7698 13.1184C14.1159 12.4645 14.1159 11.4044 14.7698 10.7505C15.4237 10.0966 16.4839 10.0966 17.1378 10.7505C17.7917 11.4044 17.7917 12.4645 17.1378 13.1184Z" fill="#9098B1"/>
</g>
<defs>
<clipPath id="clip0">
<rect width="24" height="24" fill="white"/>
</clipPath>
</defs>
</svg>
