<svg width="26" height="20" viewBox="0 0 26 20" fill="none" xmlns="http://www.w3.org/2000/svg">
<path fill-rule="evenodd" clip-rule="evenodd" d="M15.5476 4.28571H9.83333C9.43905 4.28571 9.11905 3.96571 9.11905 3.57143C9.11905 3.17714 9.43905 2.85714 9.83333 2.85714H15.5476C15.9419 2.85714 16.2619 3.17714 16.2619 3.57143C16.2619 3.96571 15.9419 4.28571 15.5476 4.28571ZM24.1667 0H1.21429C0.81981 0 0.5 0.31981 0.5 0.714286C0.5 1.10876 0.81981 1.42857 1.21429 1.42857H1.97619V5.71429H23.4048V1.42857H24.1667C24.5611 1.42857 24.881 1.10876 24.881 0.714286C24.881 0.31981 24.5611 0 24.1667 0Z" fill="black"/>
<path fill-rule="evenodd" clip-rule="evenodd" d="M6.97607 8.57142H8.40465C8.79893 8.57142 9.11893 8.89142 9.11893 9.28571C9.11893 9.68 8.79893 10 8.40465 10H6.97607C6.58179 10 6.26179 9.68 6.26179 9.28571C6.26179 8.89142 6.58179 8.57142 6.97607 8.57142ZM1.97607 11.4286H11.9761V7.14285H1.97607V11.4286Z" fill="black"/>
<path fill-rule="evenodd" clip-rule="evenodd" d="M6.97607 14.2857H8.40465C8.79893 14.2857 9.11893 14.6057 9.11893 15C9.11893 15.3943 8.79893 15.7143 8.40465 15.7143H6.97607C6.58179 15.7143 6.26179 15.3943 6.26179 15C6.26179 14.6057 6.58179 14.2857 6.97607 14.2857ZM1.97607 17.8571C1.97607 18.2514 2.29607 18.5714 2.69036 18.5714H4.83322V19.2857C4.83322 19.6802 5.15303 20 5.5475 20C5.94198 20 6.26179 19.6802 6.26179 19.2857V18.5714H11.9761V12.8571H1.97607V17.8571Z" fill="black"/>
<path fill-rule="evenodd" clip-rule="evenodd" d="M16.9762 14.2857H18.4048C18.7991 14.2857 19.1191 14.6057 19.1191 15C19.1191 15.3943 18.7991 15.7143 18.4048 15.7143H16.9762C16.5819 15.7143 16.2619 15.3943 16.2619 15C16.2619 14.6057 16.5819 14.2857 16.9762 14.2857ZM13.4048 18.5714H19.1191V19.2857C19.1191 19.6802 19.4389 20 19.8334 20C20.2278 20 20.5476 19.6802 20.5476 19.2857V18.5714H22.6905C23.0848 18.5714 23.4048 18.2514 23.4048 17.8571V12.8571H13.4048V18.5714Z" fill="black"/>
<path fill-rule="evenodd" clip-rule="evenodd" d="M16.9762 8.57142H18.4048C18.7991 8.57142 19.1191 8.89142 19.1191 9.28571C19.1191 9.68 18.7991 10 18.4048 10H16.9762C16.5819 10 16.2619 9.68 16.2619 9.28571C16.2619 8.89142 16.5819 8.57142 16.9762 8.57142ZM13.4048 11.4286H23.4048V7.14285H13.4048V11.4286Z" fill="black"/>
</svg>
