<svg width="512" height="512" viewBox="0 0 512 512" fill="none" xmlns="http://www.w3.org/2000/svg">
<rect width="512" height="512" rx="256" fill="#31364C"/>
<path d="M380.069 206.65V183.087C380.052 168.217 374.129 153.961 363.599 143.446C353.069 132.931 338.793 127.017 323.901 127H189.099C174.207 127.017 159.931 132.931 149.401 143.446C138.871 153.961 132.948 168.217 132.931 183.087V206.65C120.247 209.238 108.847 216.121 100.659 226.136C92.4719 236.15 88 248.681 88 261.609C88 274.537 92.4719 287.068 100.659 297.083C108.847 307.098 120.247 313.981 132.931 316.568V362.565C132.938 368.513 135.307 374.216 139.519 378.422C143.731 382.628 149.442 384.993 155.398 385H357.602C363.558 384.993 369.269 382.628 373.481 378.422C377.693 374.216 380.062 368.513 380.069 362.565V316.568C392.753 313.981 404.153 307.098 412.341 297.083C420.528 287.068 425 274.537 425 261.609C425 248.681 420.528 236.15 412.341 226.136C404.153 216.121 392.753 209.238 380.069 206.65V206.65ZM189.099 149.435H323.901C332.836 149.445 341.402 152.994 347.72 159.302C354.038 165.611 357.592 174.165 357.602 183.087V206.65C344.924 209.253 333.533 216.14 325.348 226.151C317.163 236.162 312.685 248.685 312.668 261.609H200.332C200.315 248.685 195.837 236.162 187.652 226.151C179.467 216.14 168.076 209.253 155.398 206.65V183.087C155.408 174.165 158.962 165.611 165.28 159.302C171.598 152.994 180.164 149.445 189.099 149.435V149.435ZM369.38 295.257C369.199 295.248 369.017 295.243 368.835 295.243C365.856 295.243 362.999 296.424 360.892 298.528C358.785 300.632 357.602 303.485 357.602 306.46V362.565H155.398V306.407C155.384 303.441 154.194 300.602 152.089 298.51C149.984 296.418 147.135 295.244 144.165 295.244C143.982 295.244 143.8 295.248 143.62 295.258C136.979 295.151 130.517 293.086 125.047 289.324C119.577 285.561 115.343 280.269 112.876 274.111C110.408 267.953 109.818 261.204 111.18 254.712C112.541 248.221 115.793 242.276 120.528 237.624C125.262 232.972 131.267 229.82 137.79 228.566C144.312 227.311 151.06 228.009 157.186 230.572C163.312 233.134 168.544 237.448 172.223 242.97C175.902 248.492 177.865 254.976 177.865 261.609V317.696C177.865 320.671 179.049 323.524 181.156 325.628C183.262 327.731 186.12 328.913 189.099 328.913C192.078 328.913 194.935 327.731 197.042 325.628C199.149 323.524 200.332 320.671 200.332 317.696V284.043H312.668V317.696C312.668 320.671 313.851 323.524 315.958 325.628C318.065 327.731 320.922 328.913 323.901 328.913C326.88 328.913 329.738 327.731 331.844 325.628C333.951 323.524 335.135 320.671 335.135 317.696V261.609C335.135 254.976 337.098 248.491 340.777 242.969C344.456 237.447 349.687 233.133 355.813 230.571C361.939 228.008 368.687 227.31 375.21 228.564C381.732 229.819 387.737 232.97 392.472 237.622C397.206 242.274 400.459 248.219 401.82 254.711C403.182 261.202 402.592 267.951 400.125 274.109C397.657 280.267 393.423 285.56 387.953 289.322C382.483 293.085 376.021 295.149 369.38 295.257V295.257Z" fill="white"/>
</svg>
