<svg width="25" height="24" viewBox="0 0 25 24" fill="none" xmlns="http://www.w3.org/2000/svg">
<path fill-rule="evenodd" clip-rule="evenodd" d="M4.76562 14.2023C5.38953 13.9664 5.71137 14.1012 8.21877 14.0625C8.78469 14.0625 9.30059 14.2803 9.6875 14.6362C10.0745 14.2803 10.5903 14.0625 11.1562 14.0625H13.8438C14.4097 14.0625 14.9255 14.2803 15.3125 14.6361C15.6995 14.2802 16.2153 14.0625 16.7812 14.0625C19.2929 14.1013 19.6123 13.9671 20.2344 14.2023V9.60941H4.76562V14.2023Z" fill="black"/>
<path fill-rule="evenodd" clip-rule="evenodd" d="M21.6406 12.6562V16.9688H20.2344V16.2344C20.2344 15.8122 19.8909 15.4688 19.4688 15.4688H16.7812C16.3591 15.4688 16.0156 15.8122 16.0156 16.2344V16.9688H14.6094V16.2344C14.6094 15.8122 14.2659 15.4688 13.8438 15.4688H11.1562C10.7341 15.4688 10.3906 15.8122 10.3906 16.2344V16.9688H8.98438V16.2344C8.98438 15.8122 8.64092 15.4688 8.21877 15.4688H5.53123C5.10908 15.4688 4.76562 15.8122 4.76562 16.2344V16.9688H3.35938V12.6562H0.5V21.1875H1.95312V24H4.0625L4.76562 21.1875H20.2315L20.9345 24H23.0439V21.1875H24.5V12.6562H21.6406Z" fill="black"/>
<path fill-rule="evenodd" clip-rule="evenodd" d="M21.6406 5.97656C21.6406 4.47361 20.587 3.21295 19.1797 2.89223V0H17.7734V2.89223C16.3662 3.21295 15.3125 4.47361 15.3125 5.97656V7.03125H21.6406V5.97656Z" fill="black"/>
<mask id="mask0" mask-type="alpha" maskUnits="userSpaceOnUse" x="0" y="0" width="25" height="24">
<path fill-rule="evenodd" clip-rule="evenodd" d="M0.5 24H24.5V0H0.5V24Z" fill="white"/>
</mask>
<g mask="url(#mask0)">
<path fill-rule="evenodd" clip-rule="evenodd" d="M8.53906 2.81339H12.3125V0H8.53906V2.81339Z" fill="black"/>
<path fill-rule="evenodd" clip-rule="evenodd" d="M3.35938 2.81339H7.13281V0H3.35938V2.81339Z" fill="black"/>
<path fill-rule="evenodd" clip-rule="evenodd" d="M3.35938 7.03124H7.13281V4.21964H3.35938V7.03124Z" fill="black"/>
<path fill-rule="evenodd" clip-rule="evenodd" d="M8.53906 7.03124H12.3125V4.21964H8.53906V7.03124Z" fill="black"/>
</g>
</svg>
