<svg width="22" height="28" viewBox="0 0 22 28" fill="none" xmlns="http://www.w3.org/2000/svg">
<mask id="mask0" mask-type="alpha" maskUnits="userSpaceOnUse" x="0" y="0" width="22" height="28">
<path fill-rule="evenodd" clip-rule="evenodd" d="M0 0H21.1989V27.4201H0V0Z" fill="white"/>
</mask>
<g mask="url(#mask0)">
<path fill-rule="evenodd" clip-rule="evenodd" d="M10.5992 7.98694C8.97342 7.98694 8.12233 8.33169 8.11417 8.33519C7.94675 8.40344 7.75717 8.32644 7.68717 8.16019C7.61833 7.99394 7.69592 7.80377 7.86158 7.73377C7.8995 7.71744 8.82642 7.33419 10.5992 7.33419C12.3719 7.33419 13.2988 7.71744 13.3368 7.73377C13.5018 7.80377 13.5794 7.99394 13.5112 8.16019C13.4575 8.28502 13.3368 8.36027 13.209 8.36027C13.167 8.36027 13.1244 8.35211 13.083 8.33519C13.0766 8.33227 12.2255 7.98694 10.5992 7.98694ZM8.18825 5.75219C8.22208 5.73819 9.0405 5.39986 10.5997 5.39986C12.159 5.39986 12.9774 5.73819 13.0112 5.75219C13.1775 5.82277 13.2557 6.01411 13.1862 6.17977C13.1326 6.30402 13.0112 6.37927 12.8847 6.37927C12.8421 6.37927 12.7995 6.37111 12.7575 6.35361C12.7505 6.35127 12.012 6.05202 10.5997 6.05202C9.1875 6.05202 8.44842 6.35069 8.44083 6.35419C8.27458 6.42302 8.08442 6.34427 8.015 6.17861C7.94558 6.01294 8.022 5.82219 8.18825 5.75219ZM8.51433 3.77061C8.5435 3.75836 9.25458 3.46436 10.5992 3.46436C11.9438 3.46436 12.6543 3.75836 12.684 3.77061C12.8503 3.84119 12.9284 4.03252 12.8584 4.19819C12.8053 4.32244 12.684 4.39769 12.5574 4.39769C12.5148 4.39769 12.4722 4.38894 12.4297 4.37202C12.425 4.36969 11.7973 4.11711 10.5986 4.11711C9.39983 4.11711 8.77217 4.36969 8.76575 4.37261C8.5995 4.44202 8.40933 4.36211 8.33992 4.19644C8.27108 4.03077 8.34925 3.84002 8.51433 3.77061ZM20.58 25.0576V24.4661C20.58 24.2135 20.4353 23.9849 20.2084 23.8764C20.0637 23.8069 16.7213 22.2471 11.2519 22.1275V19.898C11.641 19.6723 11.9047 19.2552 11.9047 18.7734V18.0529H16.5346H16.5474C17.2684 18.0529 17.8529 17.4679 17.8529 16.7474C17.8529 16.6389 17.8383 16.5334 17.8132 16.4324C18.9525 16.0562 19.551 15.7161 19.6047 15.6834C19.8036 15.5668 19.9267 15.3527 19.9267 15.1199V11.5499H20.5456C20.9067 11.5499 21.1983 11.2577 21.1983 10.8972C21.1983 10.5367 20.9067 10.2444 20.5456 10.2444H18.0028C17.6423 10.2444 17.3507 10.5367 17.3507 10.8972C17.3507 11.2577 17.6423 11.5499 18.0028 11.5499H18.6223V14.7169C18.3027 14.8644 17.7456 15.0931 16.9604 15.3259L16.5182 14.8831C16.2196 14.5844 15.7938 14.4479 15.3767 14.5185C15.3621 14.5209 14.0607 14.7349 11.9052 14.8026V13.6622C14.2817 13.5146 15.4904 13.0013 15.6397 12.9336C16.1502 12.7026 16.4558 12.1712 16.3998 11.6135L15.3994 1.67527C15.3516 1.19986 15.0477 0.788022 14.6078 0.602522C14.4608 0.540689 13.104 -6.10352e-05 10.5992 -6.10352e-05C8.09433 -6.10352e-05 6.73808 0.540689 6.59167 0.602522C6.15067 0.788022 5.84733 1.19927 5.7995 1.67527L4.79908 11.6159C4.7425 12.1735 5.04875 12.7049 5.55975 12.9359C5.7085 13.003 6.91717 13.5169 9.29367 13.6645V14.8049C7.13825 14.7373 5.83742 14.5244 5.82342 14.5209C5.40342 14.4491 4.9805 14.5856 4.68067 14.8854L4.23908 15.3276C3.45275 15.0954 2.89567 14.8662 2.57717 14.7198V11.5529H3.19608C3.55717 11.5529 3.84883 11.2606 3.84883 10.9001C3.84883 10.5396 3.55717 10.2474 3.19608 10.2474H0.65275C0.291667 10.2474 0 10.5396 0 10.9001C0 11.2606 0.291667 11.5529 0.65275 11.5529H1.27167V15.1229C1.27167 15.3539 1.39475 15.5703 1.59425 15.6869C1.64967 15.719 2.25108 16.0638 3.40317 16.4412C3.33842 16.7054 3.34892 16.9884 3.458 17.2503C3.66042 17.7379 4.13642 18.0559 4.66433 18.0559H9.29425V18.7774C9.29425 19.2587 9.55792 19.6746 9.947 19.9015V22.1316C4.47708 22.2494 1.13575 23.8099 0.9905 23.8787C0.764167 23.9878 0.6195 24.217 0.6195 24.4679V25.0611C0.25025 25.2839 0.000583333 25.6847 0.000583333 26.1479C0.000583333 26.8502 0.571083 27.4201 1.27225 27.4201C1.97517 27.4201 2.5445 26.8502 2.5445 26.1479C2.5445 25.6847 2.29483 25.2834 1.925 25.0611V24.9019C2.90558 24.5116 5.77908 23.5304 9.947 23.4354V25.0611C9.57775 25.2839 9.32808 25.6847 9.32808 26.1479C9.32808 26.8502 9.89858 27.4201 10.5997 27.4201C11.3027 27.4201 11.872 26.8502 11.872 26.1479C11.872 25.6847 11.6223 25.2834 11.2525 25.0611V23.4354C15.4047 23.5316 18.2892 24.5134 19.2745 24.9019V25.0611C18.9047 25.2839 18.655 25.6847 18.655 26.1479C18.655 26.8502 19.2261 27.4201 19.9272 27.4201C20.6296 27.4201 21.1989 26.8502 21.1989 26.1479C21.1983 25.6812 20.9498 25.2799 20.58 25.0576Z" fill="black"/>
</g>
</svg>
