<svg width="16" height="16" viewBox="0 0 16 16" fill="none" xmlns="http://www.w3.org/2000/svg">
<path fill-rule="evenodd" clip-rule="evenodd" d="M7.41702 10.8832C7.23661 10.8832 7.07623 10.803 6.97601 10.6828L3.94905 7.39522C3.72854 7.15472 3.74861 6.77379 3.98915 6.55328C4.22968 6.33277 4.61058 6.35284 4.83108 6.59338L7.43705 9.41985L14.6536 2.22334C14.8942 1.98284 15.2751 1.98284 15.4955 2.22334C15.716 2.46388 15.7361 2.84481 15.4955 3.06532L7.83801 10.7028C7.73775 10.8231 7.57741 10.8832 7.41702 10.8832Z" fill="black"/>
<mask id="mask0" mask-type="alpha" maskUnits="userSpaceOnUse" x="0" y="0" width="16" height="16">
<path fill-rule="evenodd" clip-rule="evenodd" d="M0 0.0383301H15.9566V15.9949H0V0.0383301Z" fill="white"/>
</mask>
<g mask="url(#mask0)">
<path fill-rule="evenodd" clip-rule="evenodd" d="M7.97832 15.9949C3.58822 15.9949 0 12.4067 0 8.01665C0 3.62659 3.58822 0.0383301 7.97832 0.0383301C8.31912 0.0383301 8.57968 0.298934 8.57968 0.639692C8.57968 0.98045 8.31908 1.24105 7.97832 1.24105C4.24975 1.24105 1.20276 4.28804 1.20276 8.01661C1.20276 11.7452 4.24975 14.7921 7.97832 14.7921C11.7069 14.7921 14.7539 11.7452 14.7539 8.01661C14.7539 7.67582 15.0145 7.41525 15.3552 7.41525C15.696 7.41525 15.9566 7.67586 15.9566 8.01661C15.9566 12.4067 12.3684 15.9949 7.97832 15.9949Z" fill="black"/>
</g>
</svg>
