<?xml version="1.0" encoding="UTF-8"?>
<svg xmlns="http://www.w3.org/2000/svg" id="Outline" viewBox="0 0 512 512" width="512" height="512"><path d="M437.657,18.029a8,8,0,0,0-11.314,0L136,308.372,45.657,218.029a8,8,0,0,0-12.313,1.22C32.636,220.312,16,245.655,16,279.687c0,16.117,2.848,30.275,8.7,43.285,20.307,45.1,7.959,89.274,7.632,90.415a8,8,0,0,0,2.006,7.957l56,56a8,8,0,0,0,7.953,2.007c1.053-.3,45.277-12.7,90.42,7.63,13.009,5.858,27.167,8.706,43.284,8.706,34.031,0,59.375-16.636,60.438-17.344a8,8,0,0,0,1.219-12.314l-90.343-90.342L493.657,85.344a8,8,0,0,0,0-11.315ZM32,279.687c0-18.1,5.648-33.6,9.933-42.754l34.753,34.753L58.343,290.029a8,8,0,0,0,11.314,11.315L88,283l12.686,12.685L90.343,306.029a8,8,0,0,0,11.314,11.315L112,307l12.686,12.686L51.929,392.443c1.529-19.284.33-47.249-12.634-76.041C34.386,305.5,32,293.491,32,279.687Zm19.313,136L64,403l44.686,44.687L96,460.373Zm153.373-16-10.343,10.342a8,8,0,0,0,11.314,11.315L216,411l12.686,12.686-18.343,18.342a8,8,0,0,0,11.314,11.315L240,435l34.753,34.753C265.6,474.04,250.1,479.687,232,479.687c-13.805,0-25.814-2.386-36.715-7.3-28.792-12.964-56.757-14.164-76.041-12.635L192,387ZM464,92.373l-2.343-2.344a8,8,0,0,0-11.314,11.315l2.343,2.343L440,116.373l-10.343-10.344a8,8,0,0,0-11.314,11.315l10.343,10.343L416,140.373l-2.343-2.344a8,8,0,0,0-11.314,11.315l2.343,2.343L392,164.373l-10.343-10.344a8,8,0,0,0-11.314,11.315l10.343,10.343L368,188.373l-2.343-2.344a8,8,0,0,0-11.314,11.315l2.343,2.343L344,212.373l-10.343-10.344a8,8,0,0,0-11.314,11.315l10.343,10.343L320,236.373l-2.343-2.344a8,8,0,0,0-11.314,11.315l2.343,2.343L296,260.373l-10.343-10.344a8,8,0,0,0-11.314,11.315l10.343,10.343L272,284.373l-2.343-2.344a8,8,0,0,0-11.314,11.315l2.343,2.343L248,308.373l-10.343-10.344a8,8,0,0,0-11.314,11.315l10.343,10.343L224,332.373l-2.343-2.344a8,8,0,0,0-11.314,11.315l2.343,2.343L200,356.373l-10.343-10.344a8,8,0,0,0-11.314,11.315l10.343,10.343L176,380.373l-2.343-2.344a8,8,0,0,0-11.314,11.315l2.343,2.343L120,436.373,75.314,391.686,128,339l10.343,10.344a8,8,0,1,0,11.314-11.315l-10.343-10.343L168,299l10.343,10.344a8,8,0,1,0,11.314-11.315l-10.343-10.343L208,259l10.343,10.344a8,8,0,1,0,11.314-11.315l-10.343-10.343L248,219l10.343,10.344a8,8,0,0,0,11.314-11.315l-10.343-10.343L288,179l10.343,10.344a8,8,0,0,0,11.314-11.315l-10.343-10.343L328,139l10.343,10.344a8,8,0,0,0,11.314-11.315l-10.343-10.343L368,99l10.343,10.344a8,8,0,0,0,11.314-11.315L379.314,87.686,408,59l10.343,10.344a8,8,0,0,0,11.314-11.315L419.314,47.686,432,35l44.687,44.687Z"/></svg>
