<svg id="Capa_1" enable-background="new 0 0 512 512" height="512" viewBox="0 0 512 512" width="512" xmlns="http://www.w3.org/2000/svg"><g><path d="m106 292h300c8.284 0 15-6.716 15-15v-30c0-19.791-12.847-36.626-30.635-42.635-5.161-51.177-41.323-93.336-89.365-107.371v-19.994c0-19.555-12.541-36.228-30-42.42v-19.58c0-8.284-6.716-15-15-15s-15 6.716-15 15v19.58c-17.459 6.192-30 22.865-30 42.42v19.994c-48.042 14.035-84.204 56.193-89.365 107.371-17.788 6.01-30.635 22.844-30.635 42.635v30c0 8.284 6.716 15 15 15zm135-215c0-8.271 6.729-15 15-15s15 6.729 15 15v15.109c-1.66-.066-3.325-.109-5-.109h-20c-1.675 0-3.341.043-5 .109zm5 45h20c47.28 0 86.604 34.719 93.817 80h-207.635c7.213-45.281 46.538-80 93.818-80zm-125 125c0-8.271 6.729-15 15-15h240c8.271 0 15 6.729 15 15v15h-270z"/><path d="m256 322c-8.284 0-15 6.716-15 15v15c0 8.284 6.716 15 15 15s15-6.716 15-15v-15c0-8.284-6.716-15-15-15z"/><path d="m256 387c-8.284 0-15 6.716-15 15v30c0 8.284 6.716 15 15 15s15-6.716 15-15v-30c0-8.284-6.716-15-15-15z"/><path d="m256 467c-8.284 0-15 6.716-15 15v15c0 8.284 6.716 15 15 15s15-6.716 15-15v-15c0-8.284-6.716-15-15-15z"/><path d="m331.209 361.545c8.158-1.438 13.606-9.219 12.168-17.377l-2.604-14.772c-1.438-8.157-9.217-13.604-17.377-12.168-8.158 1.438-13.606 9.219-12.168 17.377l2.604 14.772c1.283 7.277 7.612 12.398 14.755 12.398.864 0 1.741-.075 2.622-.23z"/><path d="m345.102 440.329c8.158-1.439 13.605-9.219 12.167-17.378l-5.21-29.544c-1.439-8.158-9.218-13.605-17.378-12.167-8.158 1.439-13.605 9.219-12.167 17.378l5.21 29.544c1.284 7.277 7.612 12.397 14.755 12.397.865.001 1.743-.075 2.623-.23z"/><path d="m365.951 472.192c-1.438-8.157-9.212-13.607-17.377-12.168-8.158 1.438-13.606 9.219-12.168 17.377l2.604 14.772c1.283 7.277 7.612 12.398 14.755 12.398.864 0 1.741-.075 2.622-.23 8.158-1.438 13.606-9.219 12.168-17.377z"/><path d="m410.503 335.966-5.13-14.096c-2.833-7.785-11.44-11.8-19.226-8.966-7.785 2.833-11.799 11.44-8.966 19.226l5.13 14.096c2.217 6.092 7.969 9.874 14.097 9.874 1.703 0 3.436-.292 5.129-.908 7.785-2.834 11.799-11.441 8.966-19.226z"/><path d="m437.864 411.14-10.261-28.19c-2.835-7.784-11.441-11.8-19.227-8.965-7.784 2.834-11.798 11.441-8.965 19.227l10.261 28.19c2.218 6.091 7.97 9.873 14.097 9.873 1.703 0 3.437-.292 5.13-.908 7.784-2.835 11.798-11.442 8.965-19.227z"/><path d="m460.096 472.221-5.13-14.095c-2.834-7.785-11.444-11.801-19.226-8.966-7.785 2.834-11.799 11.441-8.966 19.226l5.13 14.095c2.218 6.092 7.969 9.874 14.097 9.874 1.703 0 3.437-.292 5.129-.908 7.785-2.835 11.799-11.442 8.966-19.226z"/><path d="m188.604 317.228c-8.158-1.439-15.938 4.009-17.376 12.168l-2.604 14.772c-1.438 8.158 4.009 15.938 12.167 17.377.881.155 1.757.23 2.622.23 7.142 0 13.472-5.121 14.754-12.398l2.604-14.772c1.439-8.159-4.008-15.939-12.167-17.377z"/><path d="m177.318 381.24c-8.154-1.438-15.938 4.009-17.377 12.168l-5.209 29.544c-1.438 8.158 4.009 15.938 12.167 17.377.881.155 1.757.23 2.623.23 7.142 0 13.471-5.121 14.754-12.398l5.209-29.544c1.438-8.158-4.009-15.938-12.167-17.377z"/><path d="m163.426 460.024c-8.158-1.438-15.938 4.01-17.377 12.168l-2.605 14.772c-1.439 8.158 4.009 15.938 12.167 17.377.881.155 1.757.23 2.623.23 7.142 0 13.471-5.121 14.754-12.398l2.605-14.772c1.439-8.158-4.009-15.937-12.167-17.377z"/><path d="m125.853 312.904c-7.784-2.832-16.392 1.181-19.226 8.966l-5.13 14.096c-2.833 7.784 1.18 16.392 8.965 19.226 1.694.616 3.425.908 5.129.908 6.126 0 11.879-3.783 14.096-9.874l5.13-14.096c2.835-7.784-1.179-16.392-8.964-19.226z"/><path d="m103.622 373.984c-7.782-2.832-16.392 1.18-19.226 8.966l-10.26 28.19c-2.833 7.784 1.18 16.392 8.965 19.226 1.693.616 3.426.908 5.129.908 6.127 0 11.879-3.782 14.096-9.874l10.26-28.19c2.834-7.784-1.179-16.392-8.964-19.226z"/><path d="m76.261 449.16c-7.785-2.831-16.392 1.18-19.226 8.965l-5.13 14.095c-2.833 7.785 1.18 16.393 8.965 19.227 1.694.616 3.425.908 5.129.908 6.126 0 11.879-3.782 14.096-9.873l5.13-14.095c2.834-7.785-1.18-16.393-8.964-19.227z"/></g></svg>