<svg width="480" height="384" viewBox="0 0 480 384" fill="none" xmlns="http://www.w3.org/2000/svg">
<path d="M456 128C441.867 128 432 134.301 432 143.32V170.825C419.333 145.793 399.85 128 376 128H152C147.583 127.999 144.001 131.579 144 135.996C144 135.997 144 135.999 144 136V184.067C144.045 171.015 138.799 157.992 128.414 148.484C108.862 130.582 78.499 131.92 60.598 151.473C43.834 169.782 43.797 197.853 60.512 216.207C55.9 216.715 51.544 218.587 48 221.582V19.199C48 8.434 37.461 0 24 0C10.539 0 0 8.434 0 19.199V364.801C0 375.566 10.539 384 24 384C37.461 384 48 375.566 48 364.801V312H432V368.68C432 377.699 441.867 384 456 384C470.133 384 480 377.699 480 368.68V143.32C480 134.301 470.133 128 456 128ZM32 364.801C31.914 365.457 29.227 368 24 368C18.75 368 16.078 365.457 16 364.801V19.199C16.078 18.543 18.75 16 24 16C29.227 16 31.914 18.543 32 19.199V364.801ZM160 144H376C406.172 144 429.172 188.926 431.758 232H160V144ZM144 184.083V222.643C140.548 219.29 136.152 217.077 131.403 216.301C139.793 207.137 143.956 195.6 144 184.083ZM96 152C113.673 152 128 166.327 128 184C128 201.673 113.673 216 96 216C78.327 216 64 201.673 64 184C64.019 166.335 78.335 152.019 96 152ZM432 296H48V247.977C52.163 247.649 55.374 244.176 55.375 240C55.298 235.669 58.739 232.091 63.07 232H127.68C132.011 232.091 135.452 235.669 135.375 240C135.374 244.417 138.954 247.999 143.371 248C143.372 248 143.374 248 143.375 248H432V296ZM464 366.594C458.831 368.469 453.169 368.469 448 366.594V145.406C453.169 143.531 458.831 143.531 464 145.406V366.594Z" fill="black"/>
</svg>
