<?xml version="1.0" encoding="iso-8859-1"?>
<!-- Generator: Adobe Illustrator 19.0.0, SVG Export Plug-In . SVG Version: 6.00 Build 0)  -->
<svg version="1.1" id="Capa_1" xmlns="http://www.w3.org/2000/svg" xmlns:xlink="http://www.w3.org/1999/xlink" x="0px" y="0px"
	 viewBox="0 0 512 512" style="enable-background:new 0 0 512 512;" xml:space="preserve">
<rect x="136.533" y="38.4" style="fill:#4398D1;" width="238.933" height="460.8"/>
<polygon style="fill:#3F8FC4;" points="136.533,371.2 136.533,499.2 375.467,499.2 375.467,105.719 "/>
<rect x="170.667" y="4.267" style="fill:#4398D1;" width="170.667" height="34.133"/>
<rect x="170.667" y="21.333" style="fill:#3F8FC4;" width="170.667" height="17.067"/>
<g>
	<rect x="170.667" y="81.067" style="fill:#87CED9;" width="34.133" height="34.133"/>
	<rect x="238.933" y="81.067" style="fill:#87CED9;" width="34.133" height="34.133"/>
	<rect x="307.2" y="81.067" style="fill:#87CED9;" width="34.133" height="34.133"/>
	<rect x="170.667" y="149.333" style="fill:#87CED9;" width="34.133" height="34.133"/>
	<rect x="238.933" y="149.333" style="fill:#87CED9;" width="34.133" height="34.133"/>
	<rect x="307.2" y="149.333" style="fill:#87CED9;" width="34.133" height="34.133"/>
	<rect x="170.667" y="217.6" style="fill:#87CED9;" width="34.133" height="34.133"/>
	<rect x="238.933" y="217.6" style="fill:#87CED9;" width="34.133" height="34.133"/>
	<rect x="307.2" y="217.6" style="fill:#87CED9;" width="34.133" height="34.133"/>
	<rect x="170.667" y="285.867" style="fill:#87CED9;" width="34.133" height="34.133"/>
	<rect x="238.933" y="285.867" style="fill:#87CED9;" width="34.133" height="34.133"/>
	<rect x="307.2" y="285.867" style="fill:#87CED9;" width="34.133" height="34.133"/>
	<rect x="170.667" y="354.133" style="fill:#87CED9;" width="34.133" height="34.133"/>
	<rect x="238.933" y="354.133" style="fill:#87CED9;" width="34.133" height="34.133"/>
	<rect x="307.2" y="354.133" style="fill:#87CED9;" width="34.133" height="34.133"/>
	<rect x="204.8" y="430.933" style="fill:#87CED9;" width="102.4" height="68.267"/>
</g>
<rect x="247.467" y="430.933" style="fill:#61ACC9;" width="17.067" height="68.267"/>
<path style="fill:#88B337;" d="M83.627,364.792c2.057-6.238,2.278-12.928,0.657-19.285c-3.089-12.16-12.663-21.615-24.866-24.55
	c-18.338-4.506-36.855,6.707-41.361,25.045c-0.657,2.662-0.99,5.393-0.99,8.132c0,3.021,0.401,6.025,1.195,8.934
	c3.823,12.689,2.381,26.385-4.011,37.999c-11.785,20.412-4.787,46.498,15.616,58.283s46.507,4.787,58.283-15.616
	c7.364-12.757,7.629-28.416,0.7-41.412C82.039,391.057,80.145,377.489,83.627,364.792z"/>
<rect x="42.667" y="354.133" style="fill:#79A125;" width="17.067" height="153.6"/>
<path style="fill:#88B337;" d="M493.227,364.792c2.057-6.238,2.278-12.928,0.657-19.285c-3.089-12.16-12.663-21.615-24.866-24.55
	c-18.338-4.506-36.855,6.707-41.361,25.045c-0.657,2.662-0.99,5.393-0.99,8.132c0,3.021,0.401,6.025,1.195,8.934
	c3.831,12.698,2.389,26.411-4.011,38.033c-11.785,20.412-4.787,46.498,15.616,58.283c20.403,11.785,46.498,4.787,58.283-15.616
	c7.364-12.757,7.629-28.416,0.7-41.412C491.631,391.083,489.737,377.498,493.227,364.792z"/>
<rect x="452.267" y="354.133" style="fill:#79A125;" width="17.067" height="153.6"/>
<rect y="490.667" style="fill:#E0D2C1;" width="512" height="17.067"/>
</svg>
