<svg width="150" height="150" viewBox="0 0 150 150" fill="none" xmlns="http://www.w3.org/2000/svg">
<path fill-rule="evenodd" clip-rule="evenodd" d="M68.3254 117.969C62.7585 111.749 59.3735 103.536 59.3735 94.5315C59.3735 75.1152 75.1135 59.3752 94.5297 59.3752C96.2348 59.3752 97.9116 59.4966 99.5518 59.7312V17.4441C99.5518 14.7136 97.3033 12.5002 94.5295 12.5002H24.217C21.4432 12.5002 19.1947 14.7136 19.1947 17.4441V111.377H15.0094C13.6226 111.377 12.4983 112.484 12.4983 113.849V117.969H68.3254Z" fill="#818194"/>
<path fill-rule="evenodd" clip-rule="evenodd" d="M116.53 110.44C119.91 105.795 121.728 100.198 121.722 94.4536C121.722 79.4193 109.49 67.1873 94.4558 67.1873C79.4215 67.1873 67.1895 79.4193 67.1895 94.4536C67.1895 109.488 79.4215 121.72 94.4558 121.72C100.2 121.726 105.797 119.907 110.442 116.528L131.417 137.5L137.502 131.415L116.53 110.44ZM84.0902 109.965C81.0219 107.915 78.6304 105.001 77.2181 101.592C75.8059 98.1832 75.4362 94.4318 76.1561 90.8127C76.8759 87.1935 78.6528 83.8691 81.262 81.2598C83.8713 78.6506 87.1957 76.8737 90.8149 76.1539C94.434 75.4341 98.1854 75.8037 101.594 77.2159C105.004 78.6282 107.917 81.0197 109.967 84.088C112.017 87.1563 113.111 90.7636 113.111 94.4536C113.105 99.3994 111.138 104.141 107.64 107.638C104.143 111.135 99.4016 113.103 94.4558 113.108C90.7658 113.109 87.1585 112.015 84.0902 109.965Z" fill="#818194"/>
</svg>
