<svg width="120" height="120" viewBox="0 0 120 120" fill="none" xmlns="http://www.w3.org/2000/svg">
<path fill-rule="evenodd" clip-rule="evenodd" d="M62.8572 0.285947V11.7145C87.943 14.8002 105.714 37.6002 102.629 62.6859C100 83.4859 83.6572 100 62.8572 102.457V113.886C94.2858 110.743 117.143 82.8574 114 51.4288C111.429 24.2859 89.8858 2.85738 62.8572 0.171661V0.285947ZM20.9716 12.9148L29.143 21.3719C35.543 16.229 43.2573 12.9148 51.4287 11.7719V0.343323C40.2858 1.42904 29.6573 5.71475 20.9716 12.9148ZM0.285828 51.4288H11.7144C12.8001 43.3145 16.0001 35.6002 21.0858 29.143L12.9144 20.9716C5.7144 29.6573 1.42868 40.2288 0.285828 51.4288ZM49.2572 65.0285L37.143 52.9142L31.0858 58.9713L49.2572 77.1428L83.2001 43.1999L77.143 37.1428L49.2572 65.0285ZM12.9716 93.3144L21.0859 85.143C16.0573 78.6858 12.8002 70.9715 11.7716 62.8572H0.343018C1.48587 74.0572 5.88587 84.6287 12.9716 93.3144ZM20.9716 101.372C29.6001 108.572 40.2287 113.086 51.4287 114.286V102.857C43.3144 101.829 35.6001 98.5718 29.143 93.5432L20.9716 101.372Z" fill="#34A853"/>
<path fill-rule="evenodd" clip-rule="evenodd" d="M62.8572 0.285947V11.7145C87.943 14.8002 105.714 37.6002 102.629 62.6859C100 83.4859 83.6572 100 62.8572 102.457V113.886C94.2858 110.743 117.143 82.8574 114 51.4288C111.429 24.2859 89.8858 2.85738 62.8572 0.171661V0.285947ZM20.9716 12.9148L29.143 21.3719C35.543 16.229 43.2573 12.9148 51.4287 11.7719V0.343323C40.2858 1.42904 29.6573 5.71475 20.9716 12.9148ZM0.285828 51.4288H11.7144C12.8001 43.3145 16.0001 35.6002 21.0858 29.143L12.9144 20.9716C5.7144 29.6573 1.42868 40.2288 0.285828 51.4288ZM49.2572 65.0285L37.143 52.9142L31.0858 58.9713L49.2572 77.1428L83.2001 43.1999L77.143 37.1428L49.2572 65.0285ZM12.9716 93.3144L21.0859 85.143C16.0573 78.6858 12.8002 70.9715 11.7716 62.8572H0.343018C1.48587 74.0572 5.88587 84.6287 12.9716 93.3144ZM20.9716 101.372C29.6001 108.572 40.2287 113.086 51.4287 114.286V102.857C43.3144 101.829 35.6001 98.5718 29.143 93.5432L20.9716 101.372Z" fill="#1E1F20"/>
<mask id="mask0" style="mask-type:alpha" maskUnits="userSpaceOnUse" x="0" y="0" width="115" height="115">
<path fill-rule="evenodd" clip-rule="evenodd" d="M62.8572 0.285947V11.7145C87.943 14.8002 105.714 37.6002 102.629 62.6859C100 83.4859 83.6572 100 62.8572 102.457V113.886C94.2858 110.743 117.143 82.8574 114 51.4288C111.429 24.2859 89.8858 2.85738 62.8572 0.171661V0.285947ZM20.9716 12.9148L29.143 21.3719C35.543 16.229 43.2573 12.9148 51.4287 11.7719V0.343323C40.2858 1.42904 29.6573 5.71475 20.9716 12.9148ZM0.285828 51.4288H11.7144C12.8001 43.3145 16.0001 35.6002 21.0858 29.143L12.9144 20.9716C5.7144 29.6573 1.42868 40.2288 0.285828 51.4288ZM49.2572 65.0285L37.143 52.9142L31.0858 58.9713L49.2572 77.1428L83.2001 43.1999L77.143 37.1428L49.2572 65.0285ZM12.9716 93.3144L21.0859 85.143C16.0573 78.6858 12.8002 70.9715 11.7716 62.8572H0.343018C1.48587 74.0572 5.88587 84.6287 12.9716 93.3144ZM20.9716 101.372C29.6001 108.572 40.2287 113.086 51.4287 114.286V102.857C43.3144 101.829 35.6001 98.5718 29.143 93.5432L20.9716 101.372Z" fill="white"/>
</mask>
<g mask="url(#mask0)">
</g>
</svg>
